<svg xmlns="http://www.w3.org/2000/svg" xmlns:xlink="http://www.w3.org/1999/xlink" preserveAspectRatio="xMidYMid" width="22" height="22" viewBox="0 0 22 22">
  <g>
    <circle cx="11" cy="11" r="10" class="cls-1" style="fill: #fff8f8;stroke: #969696;stroke-width: 2px;"/>
    <path style="fill: #969696;fill-rule: evenodd;" d="M14.839,7.512 L8.411,13.841 C8.250,14.000 7.988,14.000 7.827,13.841 L7.697,13.713 L7.697,13.714 L7.556,13.575 L6.950,12.978 C6.946,12.974 6.945,12.969 6.941,12.965 L4.161,10.208 C4.000,10.049 4.000,9.791 4.161,9.632 L5.038,8.769 C5.199,8.610 5.461,8.610 5.622,8.769 L8.122,11.249 L13.378,6.074 C13.539,5.915 13.801,5.915 13.962,6.074 L14.839,6.937 C15.000,7.096 15.000,7.353 14.839,7.512 Z" class="cls-2"/>
  </g>
</svg>
