<svg xmlns="http://www.w3.org/2000/svg" xmlns:xlink="http://www.w3.org/1999/xlink" preserveAspectRatio="xMidYMid" width="20" height="20" viewBox="0 0 20 20">
  <g>
    <circle cx="10" cy="10" r="10" class="cls-1" style="fill: #ff5b54;"/>
    <path style="fill: #fff;fill-rule: evenodd;" d="M15.839,7.597 L9.411,13.926 C9.250,14.085 8.988,14.085 8.827,13.926 L8.697,13.799 L8.697,13.799 L8.556,13.660 L7.950,13.063 C7.946,13.059 7.945,13.054 7.941,13.050 L5.161,10.293 C5.000,10.134 5.000,9.876 5.161,9.717 L6.038,8.854 C6.199,8.695 6.461,8.695 6.622,8.854 L9.122,11.334 L14.378,6.159 C14.539,6.000 14.801,6.000 14.962,6.159 L15.839,7.022 C16.000,7.181 16.000,7.438 15.839,7.597 Z" class="cls-2"/>
  </g>
</svg>
