<?xml version="1.0" encoding="UTF-8" standalone="no"?>
<svg width="36px" height="40px" viewBox="0 0 36 40" version="1.1" xmlns="http://www.w3.org/2000/svg" xmlns:xlink="http://www.w3.org/1999/xlink" xmlns:sketch="http://www.bohemiancoding.com/sketch/ns">
    <!-- Generator: Sketch 3.4 (15575) - http://www.bohemiancoding.com/sketch -->
    <title>icon-footer2</title>
    <desc>Created with Sketch.</desc>
    <defs></defs>
    <g id="Page-1" stroke="none" stroke-width="1" fill="none" fill-rule="evenodd" sketch:type="MSPage">
        <g id="美妆首页-copy-2" sketch:type="MSArtboardGroup" transform="translate(-640.000000, -4554.000000)" fill="#FFFFFF">
            <g id="icon-footer2" sketch:type="MSLayerGroup" transform="translate(640.000000, 4554.000000)">
                <path d="M31.428,30.1552 L20.9152,33.0712 C20.1448,31.472 18.5128,30.3632 16.6224,30.3632 C16.4008,30.3632 16.1856,30.3832 15.972,30.4128 L7.7608,0.8136 C7.6432,0.392 7.2072,0.1464 6.7856,0.2616 C6.364,0.3784 6.1176,0.8152 6.2344,1.2368 L7.2904,5.044 L1.1128,5.044 C0.6752,5.044 0.3216,5.3984 0.3216,5.836 C0.3216,6.2736 0.6752,6.628 1.1128,6.628 L7.5712,6.628 C7.6248,6.628 7.6712,6.608 7.7216,6.5976 L14.4592,30.8872 C12.916,31.6768 11.8544,33.28 11.8544,35.1288 C11.8544,37.7576 13.9936,39.896 16.6224,39.896 C19.2504,39.896 21.3888,37.7576 21.3888,35.1288 C21.3888,34.948 21.3768,34.7696 21.3568,34.5936 L31.852,31.6816 C32.2736,31.5648 32.52,31.128 32.4032,30.7064 C32.2856,30.2848 31.8488,30.0408 31.428,30.1552 L31.428,30.1552 Z M16.6224,38.312 C14.8664,38.312 13.4384,36.884 13.4384,35.1288 C13.4384,33.3752 14.8664,31.9472 16.6224,31.9472 C18.3768,31.9472 19.8048,33.3752 19.8048,35.1288 C19.8048,36.884 18.3768,38.312 16.6224,38.312 L16.6224,38.312 Z" id="Fill-1" sketch:type="MSShapeGroup"></path>
                <path d="M35.744,25.244 L31.4832,9.8856 C31.4264,9.684 31.2928,9.5112 31.1096,9.408 C30.9264,9.304 30.7096,9.2776 30.508,9.3344 L15.1504,13.5952 C14.7288,13.712 14.4824,14.1488 14.5992,14.5704 L18.86,29.928 C18.9568,30.2776 19.276,30.508 19.6224,30.508 C19.6928,30.508 19.764,30.4984 19.8352,30.4792 L35.192,26.2192 C35.3944,26.1624 35.5672,26.0288 35.6696,25.8456 C35.7736,25.6632 35.8,25.4464 35.744,25.244 L35.744,25.244 Z M20.1744,28.7408 L16.3368,14.9096 L30.168,11.072 L34.0056,24.904 L20.1744,28.7408 L20.1744,28.7408 Z" id="Fill-2" sketch:type="MSShapeGroup"></path>
                <path d="M25.2376,18.4224 C25.328,18.4568 25.4208,18.472 25.5128,18.472 C25.8344,18.472 26.1368,18.2752 26.2552,17.956 L26.38,17.62 L27.5984,21.9712 C27.6968,22.3208 28.0152,22.5496 28.3608,22.5496 C28.432,22.5496 28.504,22.5408 28.5752,22.5208 C28.996,22.4024 29.2424,21.9648 29.124,21.544 L27.9056,17.1936 L28.1856,17.416 C28.5296,17.688 29.028,17.6288 29.2984,17.2864 C29.5704,16.9432 29.512,16.4448 29.1696,16.1736 L26.9776,14.4376 C26.78,14.2808 26.5176,14.2272 26.272,14.2968 C26.028,14.3648 25.8312,14.5456 25.7432,14.784 L24.7704,17.4048 C24.6184,17.8152 24.8272,18.2704 25.2376,18.4224" id="Fill-3" sketch:type="MSShapeGroup"></path>
                <path d="M22.8648,23.2984 C22.9632,23.648 23.2808,23.8768 23.6264,23.8768 C23.6976,23.8768 23.7696,23.868 23.8408,23.848 C24.2624,23.7304 24.508,23.292 24.3896,22.8712 L23.1712,18.5192 L23.452,18.7416 C23.7952,19.0144 24.2936,18.9552 24.5648,18.612 C24.836,18.2688 24.7784,17.7704 24.4352,17.4992 L22.2432,15.764 C22.0448,15.6056 21.784,15.5536 21.5384,15.6224 C21.2936,15.6904 21.0976,15.872 21.0088,16.1096 L20.0368,18.7304 C19.8848,19.1408 20.0944,19.596 20.504,19.7488 C20.5944,19.7824 20.688,19.7976 20.7792,19.7976 C21.1016,19.7976 21.4032,19.6008 21.5216,19.2816 L21.6456,18.9472 L22.8648,23.2984" id="Fill-4" sketch:type="MSShapeGroup"></path>
                <path d="M22.7256,24.7264 C22.304,24.844 22.0576,25.2808 22.176,25.7024 C22.2744,26.052 22.592,26.2808 22.9384,26.2808 C23.0096,26.2808 23.0816,26.2712 23.152,26.2512 L30.412,24.2192 C30.8336,24.1016 31.0792,23.664 30.9608,23.2432 C30.8424,22.8216 30.4024,22.5768 29.9848,22.6936 L22.7256,24.7264" id="Fill-5" sketch:type="MSShapeGroup"></path>
                <path d="M16.6216,33.7704 C15.8712,33.7704 15.2624,34.3792 15.2624,35.1296 C15.2624,35.8808 15.8712,36.4888 16.6216,36.4888 C17.372,36.4888 17.9816,35.8808 17.9816,35.1296 C17.9816,34.3792 17.372,33.7704 16.6216,33.7704" id="Fill-6" sketch:type="MSShapeGroup"></path>
            </g>
        </g>
    </g>
</svg>