<?xml version="1.0" encoding="UTF-8" standalone="no"?>
<svg width="147px" height="41px" viewBox="0 0 147 41" version="1.1" xmlns="http://www.w3.org/2000/svg" xmlns:xlink="http://www.w3.org/1999/xlink" xmlns:sketch="http://www.bohemiancoding.com/sketch/ns">
    <!-- Generator: Sketch 3.4 (15575) - http://www.bohemiancoding.com/sketch -->
    <title>Imported Layers Copy</title>
    <desc>Created with Sketch.</desc>
    <defs></defs>
    <g id="Page-1" stroke="none" stroke-width="1" fill="none" fill-rule="evenodd" sketch:type="MSPage">
        <g id="美妆首页-copy-2" sketch:type="MSArtboardGroup" transform="translate(-370.000000, -4647.000000)">
            <g id="Imported-Layers-Copy" sketch:type="MSLayerGroup" transform="translate(370.000000, 4647.182000)">
                <path d="M73.2133773,15.5452661 L74.925606,15.5452661 L74.925606,22.2219003 L73.2133773,22.2219003 L73.2133773,15.5452661 Z" id="Fill-1" fill="#3E3A39" sketch:type="MSShapeGroup"></path>
                <path d="M88.4118802,22.6671617 L88.4118802,20.5567445 C93.3149423,16.3115122 93.3149423,10.3138254 93.3149423,8.05587725 C93.3149423,6.98275144 92.6418461,6.78680592 92.4592084,6.75402125 L88.7132325,6.75402125 L88.7132325,5.03854484 L92.6182554,5.04388188 C93.4511596,5.14032977 95.0267905,5.89361453 95.0267905,8.05587725 C95.0267905,10.5288318 95.0899527,17.8390486 88.4118802,22.6671617" id="Fill-2" fill="#3E3A39" sketch:type="MSShapeGroup"></path>
                <path d="M82.1614845,9.35849567 L86.8138001,9.35849567 L86.8138001,11.0735909 L82.1614845,11.0735909 L82.1614845,9.35849567 Z" id="Fill-3" fill="#3E3A39" sketch:type="MSShapeGroup"></path>
                <path d="M82.1614845,14.180128 L86.8138001,14.180128 L86.8138001,15.8952232 L82.1614845,15.8952232 L82.1614845,14.180128 Z" id="Fill-4" fill="#3E3A39" sketch:type="MSShapeGroup"></path>
                <path d="M75.9403869,4.65084717 L77.6522351,4.65084717 L77.6522351,24.6414844 L75.9403869,24.6414844 L75.9403869,4.65084717 Z" id="Fill-5" fill="#3E3A39" sketch:type="MSShapeGroup"></path>
                <path d="M81.3928841,5.93745448 L83.1047323,5.93745448 L83.1047323,20.028759 L81.3928841,20.028759 L81.3928841,5.93745448 Z" id="Fill-6" fill="#3E3A39" sketch:type="MSShapeGroup"></path>
                <path d="M136.342869,23.8458846 L134.63064,23.8382603 L134.68429,11.4509957 L136.396519,11.4582388 L136.342869,23.8458846" id="Fill-7" fill="#3E3A39" sketch:type="MSShapeGroup"></path>
                <path d="M145.114046,22.41289 L143.402578,22.41289 L143.402578,9.13929591 C143.283864,8.37914925 142.626748,7.81151716 141.853201,7.81151716 L130.861074,7.81151716 L130.861074,6.09604075 L141.853201,6.09604075 C143.50379,6.09604075 144.902871,7.33347107 145.107578,8.97384774 L145.114046,9.08020727 L145.114046,22.41289" id="Fill-8" fill="#3E3A39" sketch:type="MSShapeGroup"></path>
                <path d="M141.830372,25.7237595 L141.830372,24.0086643 C142.696379,24.0086643 143.401056,23.3034128 143.401056,22.4350006 L145.112524,22.4350006 C145.112524,24.248831 143.640007,25.7237595 141.830372,25.7237595" id="Fill-9" fill="#3E3A39" sketch:type="MSShapeGroup"></path>
                <path d="M76.4962905,25.5106592 C74.6862745,25.5106592 73.2133773,24.0353494 73.2133773,22.2219003 L74.925606,22.2219003 C74.925606,23.0899313 75.6302832,23.795564 76.4962905,23.795564 L76.4962905,25.5106592" id="Fill-10" fill="#3E3A39" sketch:type="MSShapeGroup"></path>
                <path d="M71.914747,25.2403763 L71.914747,23.5252811 C72.6319805,23.5252811 73.2156603,22.9404943 73.2156603,22.2219003 L74.9275085,22.2219003 C74.9275085,23.8862936 73.5759893,25.2403763 71.914747,25.2403763" id="Fill-11" fill="#3E3A39" sketch:type="MSShapeGroup"></path>
                <path d="M116.382848,25.4298412 L107.21139,25.4298412 C105.558138,25.4145925 104.219556,24.0612722 104.218415,22.41289 L104.218415,13.2655885 C104.219556,11.6015764 105.570695,10.2474937 107.231176,10.2474937 L116.359638,10.2474937 C118.02088,10.2474937 119.372019,11.6015764 119.372019,13.2659697 L119.372019,22.41289 C119.372019,24.0612722 118.032676,25.4145925 116.387034,25.4298412 L116.382848,25.4298412 L116.382848,25.4298412 Z M107.231176,11.9629701 C106.513943,11.9629701 105.930643,12.5473757 105.930643,13.2655885 L105.930643,22.41289 C105.930643,23.1242409 106.508996,23.7086465 107.219381,23.714746 L116.374858,23.714746 C117.083721,23.7067404 117.660171,23.1230972 117.660171,22.41289 L117.660171,13.2659697 C117.660171,12.5473757 117.076872,11.9629701 116.359638,11.9629701 L107.231176,11.9629701 L107.231176,11.9629701 Z" id="Fill-12" fill="#3E3A39" sketch:type="MSShapeGroup"></path>
                <path d="M95.4369644,22.2855635 C92.1399729,20.3482188 90.4418225,17.133416 89.6614267,13.429893 C89.0811714,10.6736943 89.2192912,8.47254741 89.2249986,8.3802929 L90.9334224,8.49313312 C90.9280955,8.57471356 90.4304076,16.1064175 95.4369644,20.3745228 L95.4369644,22.2855635" id="Fill-13" fill="#3E3A39" sketch:type="MSShapeGroup"></path>
                <path d="M138.535663,24.4135167 L132.038326,24.4135167 C130.823405,24.4135167 129.834497,23.4227338 129.834497,22.2051267 L129.834497,19.0456004 L131.546346,19.0456004 L131.546346,22.2051267 C131.546346,22.4776969 131.766652,22.6984215 132.038326,22.6984215 L138.535663,22.6984215 C138.806956,22.6984215 139.027644,22.4776969 139.027644,22.2051267 L139.027644,19.0456004 L140.739492,19.0456004 L140.739492,22.2047455 C140.739492,23.4227338 139.750585,24.4135167 138.535663,24.4135167" id="Fill-14" fill="#3E3A39" sketch:type="MSShapeGroup"></path>
                <path d="M130.711159,4.65084717 C130.711159,5.94850977 130.049477,7.09368558 129.046492,7.76653356 L129.046492,9.70159095 C131.026209,8.88121201 132.423007,6.92709376 132.423007,4.65084717 L130.711159,4.65084717" id="Fill-15" fill="#3E3A39" sketch:type="MSShapeGroup"></path>
                <path d="M105.883462,4.65084717 C105.883462,5.94850977 105.2214,7.09368558 104.218415,7.76653356 L104.218415,9.70159095 C106.198132,8.88121201 107.59531,6.92709376 107.59531,4.65084717 L105.883462,4.65084717" id="Fill-16" fill="#3E3A39" sketch:type="MSShapeGroup"></path>
                <path d="M130.976364,9.68062402 C130.976364,10.7842472 130.308975,11.7330962 129.358498,12.1478603 L129.358498,13.9540664 C131.268965,13.4748766 132.688212,11.7411018 132.688212,9.68062402 L130.976364,9.68062402" id="Fill-17" fill="#3E3A39" sketch:type="MSShapeGroup"></path>
                <path d="M69.7580998,6.829121 C69.7580998,6.50661143 69.49708,6.24509658 69.1755615,6.24509658 L46.9325692,6.24509658 L46.9325692,7.960573 L69.7580998,7.960573 L69.7580998,6.829121" id="Fill-18" fill="#3E3A39" sketch:type="MSShapeGroup"></path>
                <path d="M80.2179147,6.829121 C80.2179147,6.50661143 79.9572754,6.24509658 79.6353764,6.24509658 L72.433362,6.24509658 L72.433362,7.960573 L80.2198171,7.960573 L80.2198171,6.84360725 C80.2190562,6.83865142 80.2179147,6.83483925 80.2179147,6.829121" id="Fill-19" fill="#3E3A39" sketch:type="MSShapeGroup"></path>
                <path d="M69.7580998,13.8782042 C69.7580998,13.5621753 69.5069729,13.3071412 69.1942058,13.2964671 L46.9325692,13.2964671 L46.9325692,15.0119435 L69.7580998,15.0119435 L69.7580998,13.8782042" id="Fill-20" fill="#3E3A39" sketch:type="MSShapeGroup"></path>
                <path d="M69.7580998,20.9246189 C69.7580998,20.6268884 69.5351296,20.3844344 69.2478556,20.3482188 L46.9325692,20.3482188 L46.9325692,22.063314 L69.7580998,22.063314 L69.7580998,20.9246189" id="Fill-21" fill="#3E3A39" sketch:type="MSShapeGroup"></path>
                <path d="M112.651331,20.6539548 L112.651331,13.5503576 L110.939483,13.5503576 L110.939483,21.2372168 L112.068412,21.2372168 C112.390311,21.2372168 112.651331,20.9760832 112.651331,20.6539548" id="Fill-22" fill="#3E3A39" sketch:type="MSShapeGroup"></path>
                <path d="M119.711421,6.29008019 C119.699245,6.29008019 119.691255,6.2881741 119.684025,6.28474315 L106.183292,6.24509658 L106.178346,7.960573 L120.289013,8.00212565 L120.292437,6.85809349 C120.283305,6.54320826 120.027612,6.29008019 119.711421,6.29008019" id="Fill-23" fill="#3E3A39" sketch:type="MSShapeGroup"></path>
                <path d="M120.277217,17.1196922 C120.277217,16.7979451 120.016959,16.5368114 119.69506,16.5368114 L103.313216,16.5368114 L103.313216,18.2515254 L120.277217,18.2515254 L120.277217,17.1196922" id="Fill-24" fill="#3E3A39" sketch:type="MSShapeGroup"></path>
                <path d="M102.315938,5.89628305 C102.315938,5.57377348 102.055299,5.31225863 101.7334,5.31225863 C101.71057,5.31225863 101.699916,5.30501551 101.698775,5.29281657 L97.5293078,5.29281657 L97.5293078,7.00753055 L102.315938,7.00753055 L102.315938,5.89628305" id="Fill-25" fill="#3E3A39" sketch:type="MSShapeGroup"></path>
                <path d="M102.315938,14.4096207 C102.315938,14.0871111 102.055299,13.8255963 101.7334,13.8255963 L97.5293078,13.8255963 L97.5293078,15.5410727 L102.315938,15.5410727 L102.315938,14.4096207" id="Fill-26" fill="#3E3A39" sketch:type="MSShapeGroup"></path>
                <path d="M102.315938,23.8458846 C102.315938,23.5778891 102.135203,23.3548771 101.889403,23.2858769 L97.5293078,23.2858769 L97.5293078,25.0009721 L102.315938,25.0009721 L102.315938,23.8458846" id="Fill-27" fill="#3E3A39" sketch:type="MSShapeGroup"></path>
                <path d="M127.741774,5.89628305 C127.741774,5.57377348 127.481134,5.31225863 127.159235,5.31225863 C127.137928,5.31225863 127.126513,5.30501551 127.122327,5.29281657 L122.954382,5.29281657 L122.954382,7.00753055 L127.741774,7.00753055 L127.741774,5.89628305" id="Fill-28" fill="#3E3A39" sketch:type="MSShapeGroup"></path>
                <path d="M141.532444,11.1452597 C141.532444,10.8913692 141.368831,10.6771252 141.141675,10.5966884 L131.4497,10.5966884 L131.4497,12.3121648 L141.532444,12.3121648 L141.532444,11.1456409 L141.532444,11.1452597" id="Fill-29" fill="#3E3A39" sketch:type="MSShapeGroup"></path>
                <path d="M141.532444,16.4216839 C141.532444,16.0991743 141.271044,15.8376595 140.949906,15.8376595 L129.548365,15.8376595 L129.548365,17.5527547 L141.532444,17.5527547 L141.532444,16.4216839" id="Fill-30" fill="#3E3A39" sketch:type="MSShapeGroup"></path>
                <path d="M127.741774,14.4096207 C127.741774,14.0871111 127.481134,13.8255963 127.159235,13.8255963 L122.954382,13.8255963 L122.954382,15.5410727 L127.741774,15.5410727 L127.741774,14.4096207" id="Fill-31" fill="#3E3A39" sketch:type="MSShapeGroup"></path>
                <path d="M127.741774,23.8458846 C127.741774,23.5778891 127.560277,23.3548771 127.314858,23.2858769 L122.954382,23.2858769 L122.954382,25.0009721 L127.741774,25.0009721 L127.741774,23.8458846" id="Fill-32" fill="#3E3A39" sketch:type="MSShapeGroup"></path>
                <path d="M95.4369644,24.4173289 C95.4369644,24.0948193 95.1759446,23.8336857 94.8544261,23.8336857 C94.824367,23.8336857 94.8106692,23.8180558 94.8038202,23.795564 L76.49591,23.795564 L76.49591,25.5106592 L95.4369644,25.5106592 L95.4369644,24.4173289" id="Fill-33" fill="#3E3A39" sketch:type="MSShapeGroup"></path>
                <path d="M87.6699145,22.0831373 L87.6699145,5.93745448 L85.9580663,5.93745448 L85.9580663,22.6671617 L87.0869957,22.6671617 C87.4088947,22.6671617 87.6699145,22.4052656 87.6699145,22.0831373" id="Fill-34" fill="#3E3A39" sketch:type="MSShapeGroup"></path>
                <path d="M88.4118802,19.724929 C88.4118802,19.4024195 88.1508605,19.1409046 87.8289615,19.1409046 L80.6254251,19.1409046 L80.6254251,20.856381 L88.4118802,20.856381 L88.4118802,19.724929" id="Fill-35" fill="#3E3A39" sketch:type="MSShapeGroup"></path>
                <path d="M80.2198171,12.0426444 C80.2198171,11.7205161 79.9591779,11.4597637 79.6372789,11.4597637 C79.626625,11.4597637 79.6182541,11.4574764 79.6102637,11.4548078 L72.433362,11.4548078 L72.433362,13.169903 L80.2198171,13.169903 L80.2198171,12.0434069 C80.2198171,12.0434069 80.2198171,12.0434069 80.2198171,12.0426444" id="Fill-36" fill="#3E3A39" sketch:type="MSShapeGroup"></path>
                <path d="M80.2198171,17.5012904 C80.2198171,17.179162 79.9591779,16.9176472 79.6372789,16.9176472 L76.7961207,16.9176472 L76.7961207,18.6331236 L80.2198171,18.6331236 L80.2198171,17.5012904" id="Fill-37" fill="#3E3A39" sketch:type="MSShapeGroup"></path>
                <path d="M88.4118802,5.62180682 C88.4118802,5.29967847 88.1508605,5.03854484 87.8289615,5.03854484 L80.6254251,5.03854484 L80.6254251,6.75402125 L88.4118802,6.75402125 L88.4118802,5.62180682" id="Fill-38" fill="#3E3A39" sketch:type="MSShapeGroup"></path>
                <path d="M59.2012586,24.9415022 L59.2012586,4.65084717 L57.4894104,4.65084717 L57.4894104,25.5247642 L58.6187203,25.5247642 C58.9402388,25.5247642 59.2012586,25.2640118 59.2012586,24.9415022" id="Fill-39" fill="#3E3A39" sketch:type="MSShapeGroup"></path>
                <path d="M40.2929268,20.1625661 C40.2929268,31.2704665 31.3052481,40.2751928 20.2187575,40.2751928 C9.13150591,40.2751928 0.143827211,31.2704665 0.143827211,20.1625661 C0.143827211,9.05428452 9.13150591,0.0503206415 20.2187575,0.0503206415 C31.3052481,0.0503206415 40.2929268,9.05428452 40.2929268,20.1625661" id="Fill-40" fill="#E73736" sketch:type="MSShapeGroup"></path>
                <path d="M26.2039481,35.043371 C25.1556836,35.043371 24.3029937,34.1890637 24.3029937,33.1384297 L24.3029937,29.7669468 C24.3029937,29.4981888 24.5202565,29.2805139 24.7881252,29.2805139 C25.0563743,29.2805139 25.2736371,29.4981888 25.2736371,29.7669468 L25.2736371,33.1384297 C25.2736371,33.6523102 25.6906599,34.0708865 26.2039481,34.0708865 C26.7172362,34.0708865 27.13502,33.6523102 27.13502,33.1384297 C27.13502,32.8696718 27.3519023,32.6523781 27.6201514,32.6523781 C27.8880201,32.6523781 28.1052829,32.8696718 28.1052829,33.1384297 C28.1052829,34.1890637 27.252593,35.043371 26.2039481,35.043371" id="Fill-41" fill="#FFFFFF" sketch:type="MSShapeGroup"></path>
                <path d="M28.7060849,19.633437 C28.4382163,19.633437 28.220573,19.4161433 28.220573,19.1473853 C28.220573,18.5340072 27.7225047,18.0342317 27.1099073,18.0342317 C26.4976904,18.0342317 25.9996221,18.5340072 25.9996221,19.1473853 C25.9996221,19.4161433 25.7815983,19.633437 25.5141101,19.633437 C25.245861,19.633437 25.0285982,19.4161433 25.0285982,19.1473853 C25.0285982,17.9976349 25.9623336,17.0617472 27.1099073,17.0617472 C28.257481,17.0617472 29.1912164,17.9976349 29.1912164,19.1473853 C29.1912164,19.4161433 28.9739536,19.633437 28.7060849,19.633437" id="Fill-42" fill="#FFFFFF" sketch:type="MSShapeGroup"></path>
                <path d="M14.951181,19.633437 C14.6833124,19.633437 14.4660496,19.4161433 14.4660496,19.1473853 C14.4660496,18.5340072 13.9679813,18.0342317 13.3553839,18.0342317 C12.742406,18.0342317 12.2443377,18.5340072 12.2443377,19.1473853 C12.2443377,19.4161433 12.0266944,19.633437 11.7588257,19.633437 C11.4909571,19.633437 11.2736943,19.4161433 11.2736943,19.1473853 C11.2736943,17.9976349 12.2070492,17.0617472 13.3553839,17.0617472 C14.5029576,17.0617472 15.436693,17.9976349 15.436693,19.1473853 C15.436693,19.4161433 15.2194302,19.633437 14.951181,19.633437" id="Fill-43" fill="#FFFFFF" sketch:type="MSShapeGroup"></path>
                <path d="M18.694874,35.048708 C18.4266248,35.048708 18.2097425,34.8310331 18.2097425,34.5630376 L18.2097425,30.5915191 C18.2097425,30.3227611 18.4266248,30.1050862 18.694874,30.1050862 C18.9627426,30.1050862 19.1800054,30.3227611 19.1800054,30.5915191 L19.1800054,34.5630376 C19.1800054,34.8310331 18.9627426,35.048708 18.694874,35.048708" id="Fill-44" fill="#FFFFFF" sketch:type="MSShapeGroup"></path>
                <path d="M21.7414996,35.048708 C21.4736309,35.048708 21.2559876,34.8310331 21.2559876,34.5630376 L21.2559876,30.5915191 C21.2559876,30.3227611 21.4736309,30.1050862 21.7414996,30.1050862 C22.0093682,30.1050862 22.226631,30.3227611 22.226631,30.5915191 L22.226631,34.5630376 C22.226631,34.8310331 22.0093682,35.048708 21.7414996,35.048708" id="Fill-45" fill="#FFFFFF" sketch:type="MSShapeGroup"></path>
                <path d="M14.2807484,35.043371 C13.2594991,35.043371 12.4284974,34.2104119 12.4284974,33.1872255 C12.4284974,32.9184675 12.6457602,32.7011739 12.9140094,32.7011739 C13.181878,32.7011739 13.3987603,32.9184675 13.3987603,33.1872255 C13.3987603,33.6740396 13.7944754,34.0708865 14.2807484,34.0708865 C14.7674018,34.0708865 15.1631169,33.6740396 15.1631169,33.1872255 L15.1631169,29.7669468 C15.1631169,29.4981888 15.3799992,29.2808951 15.6482484,29.2808951 C15.916117,29.2808951 16.1333798,29.4981888 16.1333798,29.7669468 L16.1333798,33.1872255 C16.1333798,34.2104119 15.3023782,35.043371 14.2807484,35.043371" id="Fill-46" fill="#FFFFFF" sketch:type="MSShapeGroup"></path>
                <path d="M20.2328358,26.0218711 C18.6183944,26.0218711 17.3053052,24.7062913 17.3053052,23.0891689 C17.3053052,21.4724277 18.6183944,20.1568479 20.2328358,20.1568479 C21.8465163,20.1568479 23.1592249,21.4724277 23.1592249,23.0891689 C23.1592249,24.7062913 21.8465163,26.0218711 20.2328358,26.0218711 L20.2328358,26.0218711 Z M20.2328358,21.1293324 C19.1537512,21.1293324 18.2759487,22.0088 18.2759487,23.0891689 C18.2759487,24.1703003 19.1537512,25.0490054 20.2328358,25.0490054 C21.3111594,25.0490054 22.1885815,24.1703003 22.1885815,23.0891689 C22.1885815,22.0088 21.3111594,21.1293324 20.2328358,21.1293324 L20.2328358,21.1293324 Z" id="Fill-47" fill="#FFFFFF" sketch:type="MSShapeGroup"></path>
                <path d="M24.9669579,30.2194513 L24.6096729,29.3152046 C29.1881724,27.4979433 32.1469036,23.1349149 32.1469036,18.2000611 C32.1469036,11.6095819 26.7959987,6.24852754 20.2187575,6.24852754 C13.6411358,6.24852754 8.29023088,11.6095819 8.29023088,18.2000611 C8.29023088,23.1349149 11.2482011,27.4975621 15.8267006,29.3152046 L15.4694156,30.2190701 C13.0924616,29.2755581 11.0648024,27.6595793 9.60446153,25.5453499 C8.10911513,23.3815623 7.31920696,20.8411324 7.31920696,18.2000611 C7.31920696,11.0732097 13.1061595,5.27642424 20.2187575,5.27642424 C27.330975,5.27642424 33.1175471,11.0732097 33.1175471,18.2000611 C33.1175471,20.8411324 32.3272584,23.3815623 30.8322925,25.5457311 C29.3719516,27.6595793 27.3439119,29.2759393 24.9669579,30.2194513" id="Fill-48" fill="#FFFFFF" sketch:type="MSShapeGroup"></path>
                <path d="M46.9740432,31.0055207 L47.6364855,31.0055207 L49.1702619,34.6457617 L50.76682,31.0055207 L50.8832516,31.0055207 L52.4908441,34.6457617 L54.0539186,31.0055207 L54.7235903,31.0055207 L52.5498208,36.0189052 L52.4303453,36.0189052 L50.8303627,32.4293662 L49.2315216,36.0189052 L49.1112851,36.0189052 L46.9740432,31.0055207" id="Fill-49" fill="#8A8C8C" sketch:type="MSShapeGroup"></path>
                <path d="M57.7405373,31.0055207 L58.4029795,31.0055207 L59.9367559,34.6457617 L61.5333141,31.0055207 L61.6501261,31.0055207 L63.2573381,34.6457617 L64.8207932,31.0055207 L65.4904649,31.0055207 L63.3166954,36.0189052 L63.1972199,36.0189052 L61.5972373,32.4293662 L59.9980157,36.0189052 L59.8781597,36.0189052 L57.7405373,31.0055207" id="Fill-50" fill="#8A8C8C" sketch:type="MSShapeGroup"></path>
                <path d="M68.5074118,31.0055207 L69.1698541,31.0055207 L70.70325,34.6457617 L72.3001887,31.0055207 L72.4166202,31.0055207 L74.0242127,34.6457617 L75.5872873,31.0055207 L76.2569589,31.0055207 L74.0831895,36.0189052 L73.963714,36.0189052 L72.3637314,32.4293662 L70.7645098,36.0189052 L70.6446538,36.0189052 L68.5074118,31.0055207" id="Fill-51" fill="#8A8C8C" sketch:type="MSShapeGroup"></path>
                <path d="M80.6581477,35.0052493 C80.8149117,35.0052493 80.9480851,35.0605258 81.0584287,35.1714599 C81.1687723,35.2820128 81.2239442,35.4169636 81.2239442,35.5766935 C81.2239442,35.7333737 81.1687723,35.8679433 81.0584287,35.9800211 C80.9480851,36.0920989 80.8149117,36.1481378 80.6581477,36.1481378 C80.5017641,36.1481378 80.3685908,36.0920989 80.2582472,35.9800211 C80.1479035,35.8679433 80.0927317,35.7333737 80.0927317,35.5766935 C80.0927317,35.4169636 80.1479035,35.2820128 80.2582472,35.1714599 C80.3685908,35.0605258 80.5017641,35.0052493 80.6581477,35.0052493" id="Fill-52" fill="#8A8C8C" sketch:type="MSShapeGroup"></path>
                <path d="M87.5569074,29.0704633 L87.5569074,29.7013774 C87.3210003,29.5999737 87.1185768,29.5496531 86.9500174,29.5496531 C86.8240735,29.5496531 86.7201983,29.5748134 86.6372503,29.6255153 C86.5543024,29.6762171 86.5021745,29.7345433 86.4808668,29.8008751 C86.4591785,29.8668256 86.4485247,30.0425666 86.4485247,30.3284794 L86.4481442,31.0055207 L87.4926037,31.0055207 L87.4926037,31.5632412 L86.4477637,31.5632412 L86.4439587,36.0189052 L85.8001607,36.0189052 L85.8001607,31.5632412 L85.1426649,31.5632412 L85.1426649,31.0055207 L85.8001607,31.0055207 L85.8001607,30.2221198 C85.8001607,29.8630134 85.8332638,29.6064544 85.8990895,29.452824 C85.9649152,29.2988123 86.0767808,29.175298 86.2346863,29.0818998 C86.3925919,28.9881205 86.5836005,28.9412308 86.8073317,28.9412308 C87.0158431,28.9412308 87.2658285,28.9843083 87.5569074,29.0704633" id="Fill-53" fill="#8A8C8C" sketch:type="MSShapeGroup"></path>
                <path d="M96.3737437,31.0055207 L96.3737437,37.8529401 L95.7386971,37.8529401 L95.7386971,35.1573549 C95.468926,35.4859639 95.1660517,35.7333737 94.8304549,35.8992031 C94.4948581,36.0654137 94.1276802,36.1481378 93.7289211,36.1481378 C93.0208194,36.1481378 92.4158319,35.8908163 91.9143392,35.3761734 C91.4132269,34.8615305 91.1624805,34.2359534 91.1624805,33.4982986 C91.1624805,32.7766548 91.4155099,32.1590833 91.9215686,31.6463465 C92.4276273,31.1332284 93.0360392,30.8766694 93.7471849,30.8766694 C94.1581198,30.8766694 94.5298636,30.9643493 94.862797,31.1393279 C95.1953499,31.3146877 95.4875702,31.576965 95.7386971,31.9273034 L95.7386971,31.0055207 L96.3737437,31.0055207 L96.3737437,31.0055207 Z M93.8000737,31.4988155 C93.4420277,31.4988155 93.1109968,31.5868766 92.8081226,31.7633801 C92.5048678,31.9398835 92.2636338,32.1876746 92.0844206,32.506372 C91.9052073,32.8258318 91.8157909,33.1632088 91.8157909,33.5192655 C91.8157909,33.8722724 91.9059683,34.2096495 92.0867035,34.5317778 C92.2674388,34.8542874 92.5101948,35.1047469 92.8149715,35.2846813 C93.1193677,35.4638533 93.4465936,35.5538205 93.7955078,35.5538205 C94.1478464,35.5538205 94.4815407,35.4646158 94.7973518,35.2869686 C95.1124019,35.1089403 95.3551579,34.8680112 95.5252393,34.5641812 C95.6953207,34.2603513 95.7801711,33.9183997 95.7801711,33.5379451 C95.7801711,32.9577329 95.589543,32.4732061 95.2082867,32.0832211 C94.8270305,31.6936174 94.3574993,31.4988155 93.8000737,31.4988155 L93.8000737,31.4988155 Z" id="Fill-54" fill="#8A8C8C" sketch:type="MSShapeGroup"></path>
                <path d="M100.756669,29.0704633 L101.400467,29.0704633 L101.400467,31.9040492 C101.661106,31.5601914 101.947619,31.30287 102.260386,31.132466 C102.573153,30.962062 102.911794,30.8766694 103.277069,30.8766694 C103.651096,30.8766694 103.982888,30.9719736 104.272445,31.1622009 C104.562382,31.3528094 104.776221,31.608606 104.91396,31.9295907 C105.05208,32.2505754 105.120949,32.7537818 105.120949,33.4388287 L105.120949,36.0189052 L104.477151,36.0189052 L104.477151,33.6275311 C104.477151,33.0499874 104.454322,32.664577 104.408282,32.4709188 C104.328378,32.13926 104.183409,31.8895629 103.973756,31.7222087 C103.763342,31.5544732 103.488244,31.4709867 103.148081,31.4709867 C102.758454,31.4709867 102.409921,31.6002192 102.101719,31.8579219 C101.793518,32.1160058 101.590714,32.4358468 101.492547,32.8166826 C101.430906,33.0625676 101.400467,33.5169782 101.400467,34.1802957 L101.400467,36.0189052 L100.756669,36.0189052 L100.756669,29.0704633" id="Fill-55" fill="#8A8C8C" sketch:type="MSShapeGroup"></path>
                <path d="M110.000801,29.1440382 L110.64498,29.1440382 L110.64498,31.0055207 L111.665848,31.0055207 L111.665848,31.5632412 L110.64498,31.5632412 L110.64498,36.0189052 L110.000801,36.0189052 L110.000801,31.5632412 L109.122238,31.5632412 L109.122238,31.0055207 L110.000801,31.0055207 L110.000801,29.1440382" id="Fill-56" fill="#8A8C8C" sketch:type="MSShapeGroup"></path>
                <path d="M116.278593,35.0052493 C116.434976,35.0052493 116.56853,35.0605258 116.678874,35.1714599 C116.789217,35.2820128 116.844389,35.4169636 116.844389,35.5766935 C116.844389,35.7333737 116.789217,35.8679433 116.678874,35.9800211 C116.56853,36.0920989 116.434976,36.1481378 116.278593,36.1481378 C116.122209,36.1481378 115.989036,36.0920989 115.878312,35.9800211 C115.767968,35.8679433 115.712796,35.7333737 115.712796,35.5766935 C115.712796,35.4169636 115.767968,35.2820128 115.878312,35.1714599 C115.989036,35.0605258 116.122209,35.0052493 116.278593,35.0052493" id="Fill-57" fill="#8A8C8C" sketch:type="MSShapeGroup"></path>
                <path d="M125.973612,32.0470055 L125.462987,32.3649405 C125.022374,31.7782475 124.42043,31.4850917 123.657918,31.4850917 C123.048364,31.4850917 122.542306,31.6810372 122.139361,32.0740719 C121.736797,32.4667254 121.535515,32.9440091 121.535515,33.5055417 C121.535515,33.8707476 121.627976,34.2142241 121.813277,34.5367336 C121.998578,34.8584808 122.252749,35.1089403 122.575789,35.2869686 C122.89921,35.4646158 123.261061,35.5538205 123.662484,35.5538205 C124.39722,35.5538205 124.997642,35.2602835 125.462987,34.6735905 L125.973612,35.0098239 C125.734661,35.3708364 125.413142,35.6510309 125.010198,35.8496449 C124.606873,36.0486402 124.147615,36.1481378 123.632805,36.1481378 C122.841755,36.1481378 122.185401,35.8961534 121.664123,35.3925657 C121.142844,34.8885969 120.882205,34.2756 120.882205,33.5539562 C120.882205,33.0682858 121.004344,32.6176873 121.247861,32.2013984 C121.491758,31.7851095 121.826594,31.4603126 122.252749,31.2266266 C122.678904,30.9933218 123.155664,30.8766694 123.683411,30.8766694 C124.014442,30.8766694 124.334058,30.9273712 124.642259,31.028775 C124.95046,31.1297975 125.21186,31.2620798 125.42646,31.4252406 C125.641059,31.5876391 125.823316,31.7950211 125.973612,32.0470055" id="Fill-58" fill="#8A8C8C" sketch:type="MSShapeGroup"></path>
                <path d="M132.518511,30.8766694 C133.289395,30.8766694 133.928246,31.1561014 134.435066,31.7149655 C134.895846,32.2250338 135.126045,32.8288815 135.126045,33.5261274 C135.126045,34.226423 134.882528,34.8386575 134.395875,35.3624496 C133.909221,35.8862417 133.283307,36.1481378 132.518511,36.1481378 C131.750291,36.1481378 131.123235,35.8862417 130.636201,35.3624496 C130.149548,34.8386575 129.906031,34.226423 129.906031,33.5261274 C129.906031,32.8319313 130.13623,32.2299897 130.59701,31.7199213 C131.10383,31.1576263 131.744203,30.8766694 132.518511,30.8766694 L132.518511,30.8766694 Z M132.516228,31.5075835 C131.980871,31.5075835 131.520472,31.7061975 131.136172,32.102282 C130.751491,32.4987476 130.55896,32.9779374 130.55896,33.5398512 C130.55896,33.9027698 130.646855,34.2401468 130.822263,34.5538884 C130.997672,34.8672487 131.23434,35.1089403 131.533028,35.2793443 C131.831337,35.4497483 132.159324,35.5351409 132.516228,35.5351409 C132.872752,35.5351409 133.200739,35.4497483 133.499047,35.2793443 C133.797736,35.1089403 134.034404,34.8672487 134.209813,34.5538884 C134.385221,34.2401468 134.473115,33.9027698 134.473115,33.5398512 C134.473115,32.9779374 134.279824,32.4987476 133.894001,32.102282 C133.507418,31.7061975 133.048161,31.5075835 132.516228,31.5075835 L132.516228,31.5075835 Z" id="Fill-59" fill="#8A8C8C" sketch:type="MSShapeGroup"></path>
                <path d="M139.251375,31.0055207 L139.895553,31.0055207 L139.895553,31.8716457 C140.119285,31.5525671 140.349484,31.3188811 140.585772,31.1717313 C140.911476,30.9750234 141.253541,30.8766694 141.612728,30.8766694 C141.855104,30.8766694 142.085304,30.9243215 142.303327,31.0192445 C142.521351,31.1145488 142.699423,31.241494 142.837543,31.3996991 C142.975663,31.5579041 143.095519,31.784347 143.19673,32.0790277 C143.410949,31.685993 143.678437,31.3875001 143.999575,31.1831678 C144.320713,30.9788355 144.666583,30.8766694 145.036805,30.8766694 C145.382295,30.8766694 145.687452,30.9643493 145.951897,31.1393279 C146.216721,31.3146877 146.413057,31.5586666 146.541664,31.8716457 C146.670272,32.1853873 146.734575,32.6550466 146.734575,33.2821485 L146.734575,36.0189052 L146.076699,36.0189052 L146.076699,33.2821485 C146.076699,32.7442514 146.038269,32.3748521 145.96217,32.1735696 C145.88569,31.9726682 145.7548,31.8102698 145.57026,31.6875179 C145.385339,31.564766 145.164652,31.5033901 144.907817,31.5033901 C144.596192,31.5033901 144.31082,31.5956446 144.052845,31.7797724 C143.794488,31.9642814 143.605763,32.2097852 143.486668,32.5170461 C143.367573,32.8243069 143.307835,33.3370438 143.307835,34.056019 L143.307835,36.0189052 L142.664037,36.0189052 L142.664037,33.4525525 C142.664037,32.84718 142.626368,32.4362281 142.55141,32.220078 C142.476072,32.0031656 142.345182,31.8297118 142.157978,31.6989544 C141.971155,31.5685782 141.748946,31.5033901 141.49135,31.5033901 C141.193803,31.5033901 140.915661,31.5929761 140.656544,31.7729105 C140.397427,31.9524637 140.205657,32.1945365 140.081616,32.4987476 C139.957574,32.8025776 139.895553,33.2684247 139.895553,33.8947642 L139.895553,36.0189052 L139.251375,36.0189052 L139.251375,31.0055207" id="Fill-60" fill="#8A8C8C" sketch:type="MSShapeGroup"></path>
            </g>
        </g>
    </g>
</svg>