<?xml version="1.0" encoding="UTF-8" standalone="no"?>
<svg width="36px" height="33px" viewBox="0 0 36 33" version="1.1" xmlns="http://www.w3.org/2000/svg" xmlns:xlink="http://www.w3.org/1999/xlink" xmlns:sketch="http://www.bohemiancoding.com/sketch/ns">
    <!-- Generator: Sketch 3.4 (15575) - http://www.bohemiancoding.com/sketch -->
    <title>icon-footer5</title>
    <desc>Created with Sketch.</desc>
    <defs></defs>
    <g id="Page-1" stroke="none" stroke-width="1" fill="none" fill-rule="evenodd" sketch:type="MSPage">
        <g id="美妆首页-copy-2" sketch:type="MSArtboardGroup" transform="translate(-1359.000000, -4563.000000)" fill="#FFFFFF">
            <g id="icon-footer5" sketch:type="MSLayerGroup" transform="translate(1359.000000, 4563.000000)">
                <path d="M35.397364,4.87412807 C35.334724,4.67661503 35.188564,4.51618025 34.997044,4.43418025 L24.821284,0.0603715506 C24.492964,-0.083663232 24.110644,0.0382672028 23.922724,0.338458507 L20.399764,5.97364112 L10.643764,7.09098025 L10.084324,5.79395416 C10.015924,5.63423242 9.89136402,5.50517155 9.73296402,5.43030199 L1.03032402,1.30819764 C0.758884016,1.17984981 0.437764016,1.2304759 0.221764016,1.43654546 C0.00576401603,1.64261503 -0.059755984,1.95849329 0.057604016,2.23158894 L2.88360402,8.78445851 L2.88360402,25.4853629 C2.88360402,25.7270846 3.00744402,25.9524063 3.21192402,26.0836063 L12.437284,32.0040063 C12.465364,32.0218324 12.497044,32.031102 12.527284,32.0446498 C12.551044,32.0560585 12.572644,32.0681802 12.597124,32.0767368 C12.672724,32.1024063 12.749764,32.1188063 12.828964,32.1188063 C12.856324,32.1188063 12.883684,32.1173802 12.911044,32.113815 L30.136324,30.1401107 C30.499204,30.0987542 30.773524,29.7942846 30.773524,29.4320585 L30.773524,12.7646672 L35.323204,5.46238894 C35.432644,5.2862672 35.460004,5.07164112 35.397364,4.87412807 L35.397364,4.87412807 Z M20.108164,7.44179764 L20.108164,13.007815 L13.520164,13.762215 L11.233444,8.45859764 L20.108164,7.44179764 L20.108164,7.44179764 Z M21.548164,7.95304981 L28.013044,12.1022498 L21.548164,12.8423889 L21.548164,7.95304981 L21.548164,7.95304981 Z M8.86680402,6.60111938 L11.589124,12.9144063 L4.17960402,8.15911938 L2.13192402,3.41096285 L8.86680402,6.60111938 L8.86680402,6.60111938 Z M4.32360402,9.95028459 L12.108964,14.9465802 L12.108964,30.0937629 L4.32360402,25.0974672 L4.32360402,9.95028459 L4.32360402,9.95028459 Z M13.548964,30.6057281 L13.548964,15.1940063 L29.333524,13.3857281 L29.333524,28.7967368 L13.548964,30.6057281 L13.548964,30.6057281 Z M29.827444,11.5674672 L21.811684,6.42357155 L24.819124,1.61338025 L33.660724,5.41461503 L29.827444,11.5674672 L29.827444,11.5674672 Z" id="Imported-Layers" sketch:type="MSShapeGroup"></path>
            </g>
        </g>
    </g>
</svg>