<svg xmlns="http://www.w3.org/2000/svg" xmlns:xlink="http://www.w3.org/1999/xlink" width="181" height="845" viewBox="0 0 181 845"><svg width="30" height="30" viewBox="0 0 30 30" id="icon-addtocart" y="0"><title>Oval 25 + Fill 1 Copy 4</title><g fill="none" fill-rule="evenodd"><path d="M15 30c8.284 0 15-6.716 15-15 0-8.284-6.716-15-15-15C6.716 0 0 6.716 0 15c0 8.284 6.716 15 15 15z" opacity=".503" fill="#FFF"/><path d="M23 9.373c-.19-.052-.387.06-.44.25l-.25.92H8.93l.262-1.14c.012-.05.012-.102.002-.153-.097-.454-.504-.783-.968-.783H6.023c-.197 0-.356.16-.356.356 0 .197.16.357.356.357h2.203c.108 0 .205.064.25.158l-.343 1.482v.01c-.01.046-.01.096 0 .146v.003l1.52 6.652-.388 1.243-.01.036c-.052.26.015.53.182.734.168.206.417.324.683.324h10.61c.197 0 .357-.16.357-.357 0-.196-.16-.356-.357-.356H10.12c-.05 0-.098-.022-.13-.062-.03-.036-.043-.08-.036-.126l.34-1.09 10.3-1.12c.453-.01.838-.32.94-.75L23.25 9.81c.05-.19-.06-.386-.25-.437zm-2.16 6.557c-.028.125-.14.213-.267.213-.013 0-.026 0-.04.002L10.3 17.257l-1.37-6h13.186L20.84 15.93zm-10.116 4.93c-.793 0-1.44.647-1.44 1.44 0 .794.647 1.44 1.44 1.44.793 0 1.44-.646 1.44-1.44 0-.793-.647-1.44-1.44-1.44zm0 2.166c-.4 0-.726-.325-.726-.726 0-.4.326-.725.726-.725.4 0 .725.325.725.725 0 .4-.326.726-.726.726zm8.514-2.165c-.793 0-1.44.647-1.44 1.44 0 .794.647 1.44 1.44 1.44.794 0 1.44-.646 1.44-1.44 0-.793-.646-1.44-1.44-1.44zm0 2.166c-.4 0-.725-.325-.725-.726 0-.4.325-.725.725-.725.4 0 .726.325.726.725 0 .4-.326.726-.726.726z" fill="#E73736"/></g></svg>
<svg width="16" height="16" viewBox="0 0 16 16" id="icon-ashbin" y="30"><title>Imported Layers</title><g fill="#1A1918" fill-rule="evenodd"><path d="M15.492 2.196h-4.997L9.85.488C9.8.358 9.675.272 9.536.272H6.432c-.14 0-.263.086-.312.216l-.645 1.708H.477c-.184 0-.333.15-.333.334 0 .184.15.333.333.333h1.11l.935 12.81c.013.174.158.31.332.31h10.26c.175 0 .32-.136.333-.31l.934-12.81h1.112c.184 0 .333-.15.333-.333 0-.184-.15-.334-.333-.334zM6.662.94h2.645l.437 1.155H6.226L6.662.94zm6.143 14.376h-9.64l-.91-12.453h11.458l-.908 12.453z"/><path d="M7.984 13.984c.185 0 .334-.15.334-.333V4.46c0-.183-.15-.333-.334-.333-.184 0-.333.15-.333.334v9.19c0 .185.15.334.334.334M10.45 13.984h.022c.175 0 .32-.136.332-.312l.575-9.19c.01-.184-.13-.342-.313-.354-.184-.013-.342.128-.354.312l-.574 9.19c-.012.184.127.342.31.354M5.497 13.984h.02c.185-.012.324-.17.313-.354l-.574-9.19c-.012-.184-.165-.324-.354-.312-.183.01-.323.17-.31.354l.572 9.19c.01.176.158.312.333.312"/></g></svg>
<svg width="13" height="15" viewBox="0 0 13 15" id="icon-beauty-makeup" y="46"><title>美妆</title><g transform="translate(0 1)" stroke="#FFF" fill="none" fill-rule="evenodd"><path d="M8.59 9.983c1.8-.848 3.042-2.65 3.042-4.733 0-2.9-2.404-5.25-5.37-5.25C3.3 0 .896 2.35.896 5.25c0 2.066 1.21 3.887 3.075 4.733" stroke-linecap="round"/><path d="M10.596 9.625c1.066 0 1.93.777 1.93 1.75 0 .966-.86 1.75-1.93 1.75H1.93c-1.066 0-1.93-.777-1.93-1.75 0-.966.872-1.75 1.923-1.75h1.352" stroke-linecap="round"/><path d="M6.263 8.75c1.977 0 3.58-1.567 3.58-3.5s-1.603-3.5-3.58-3.5c-1.976 0-3.58 1.567-3.58 3.5s1.604 3.5 3.58 3.5z"/><path d="M7.026 3.04s1.292.25 1.493 1.684" stroke-linecap="round" stroke-linejoin="round"/><path d="M7.335 10.07h3.292M1.967 10.07h3.565" stroke-linecap="round"/></g></svg>
<svg width="12" height="18" viewBox="0 0 12 18" id="icon-body" y="61"><title>身体护理</title><g transform="translate(1 1)" fill="none" fill-rule="evenodd"><path d="M1.732.097s1.665.378.476 2.518C1.018 4.755-.602 5.865.85 10.01c1.456 4.14.882 5.132.882 5.132M7.716.09s-.72.666-.27 2.465c.448 1.8 2.394 2.41 2.735 4.922.34 2.514-1.422 8.717-1.422 8.717" stroke="#FFF" stroke-linecap="round" stroke-linejoin="round"/><path d="M1.922 8.93s.636 1.826 5.51.95" stroke="#FFF" stroke-linecap="round"/><path stroke="#979797" d="M3.212 11.21s.65.783.325 2.597c-.325 1.813-.34 2.28-.34 2.28"/><path d="M4.044 10.162s1.313 3.307 0 5.612" stroke="#FFF" stroke-linecap="round" stroke-linejoin="round"/></g></svg>
<svg width="16" height="12" viewBox="0 0 16 12" id="icon-cup" y="79"><title>Stroke 280</title><path d="M12.12 1c0-.276-.223-.5-.5-.5H2.45c-.276 0-.5.224-.5.5v5.214c0 2.866 2.286 5.217 5.086 5.217 2.8 0 5.087-2.35 5.087-5.216V1zm-5.086 9.43c-2.242 0-4.086-1.896-4.086-4.216V1l-.5.5h9.173l-.5-.5v5.214c0 2.32-1.844 4.217-4.086 4.217zm6.035-3.964c1.376 0 2.43-1.275 2.43-2.735S14.447.998 13.07.998h-1.45c-.275 0-.5.224-.5.5v4.47c0 .275.225.5.5.5h1.45zm-.95-.5v-4.47l-.5.5h1.45c.778 0 1.43.79 1.43 1.735 0 .946-.652 1.736-1.43 1.736h-1.45l.5.5zM15 11.43v-1H1v1h14zm-14 0h14c.667 0 .667-1 0-1H1c-.667 0-.667 1 0 1z" fill="#FFF" fill-rule="evenodd"/></svg>
<svg width="17" height="17" viewBox="0 0 17 17" id="icon-earth" y="91"><title>Shape</title><path d="M15.5 8.5c0 3.866-3.134 7-7 7s-7-3.134-7-7 3.134-7 7-7c3.865 0 7 3.135 7 7zm1 0c0-4.418-3.582-8-8-8s-8 3.582-8 8 3.582 8 8 8 8-3.582 8-8zm-2.957-5.05c-.022.074-.124.43-.28.766-.262.567-.62 1-1.074 1.228l.344-.038c-.694-.173-1.432-.06-2.08.234-.253.114-.474.252-.62.383-.117.104-.196.203-.236.35-.107.398.202.67.532.67-.15 0-.183-.03-.184-.03.05.078.107.203.165.358.084.225.15.453.188.6.022.087.067.167.13.23.205.205.468.293.753.293.19 0 .375-.037.558-.098.106-.036.19-.072.246-.1l-.577-.094c.07.07.06.183-.103.447-.106.17-.26.362-.47.59-.537.52-.877.89-.877 1.22 0 .29.12.45.362.664.025.025.025.025.05.045.07.062.092.086.082.056-.03-.087-.006-.155-.023-.14l.353-.145c-.66.452-.96.62-1.137.678-.204.068-.342.26-.342.474 0 .568-.233.86-.674 1.016-.25.09-.49.114-.782.114.12 0 .117 0 .092-.03-.08-.094-.173-.238-.267-.405-.167-.303-.303-.648-.303-.695 0-.03.024-.094.11-.266.158-.316.216-.468.216-.71 0-.228-.094-.437-.253-.677-.054-.08-.116-.164-.183-.248-.136-.17-.27-.315-.363-.408l.146.353c0-.69-.242-1.16-.736-1.38-.328-.145-.584-.154-1.264-.115-.222.013-.332.017-.456.017-.192 0-.302-.097-.388-.328-.067-.177-.09-.368-.09-.476h-1 1v-.002-.015l.002-.068c.004-.08.012-.168.024-.264.036-.273.098-.546.194-.794.21-.543.532-.88 1.007-.975.685-.137 1.003-.092 1.075-.02-.026-.026-.042-.074-.042-.145 0 .133.052.26.146.354.43.43.997.507 1.74.383.153-.026.3-.056.513-.106.483-.11.588-.132.708-.132.25 0 .46-.183.495-.43.01-.077.028-.208.044-.373.022-.232.037-.463.042-.68.006-.376-.02-.68-.093-.92-.145-.467-.55-.744-1.038-.5-.367.182-.552.093-.584-.252-.012-.124.388-.424 1.102-.697.293-.112.61-.21.93-.296.19-.05.337-.085.417-.1l-.37-.07 3.35 2.124.268-.42h-.5zm1 0c0-.172-.087-.332-.232-.423L10.96.904c-.11-.07-.24-.094-.368-.067-.098.02-.262.058-.472.114-.35.094-.7.203-1.03.33-1.134.432-1.813.943-1.74 1.723.1 1.078 1.058 1.537 2.026 1.053-.163.08-.348-.045-.363-.096.034.11.05.326.046.6-.005.19-.018.397-.04.605-.013.15-.028.265-.037.33l.495-.43c-.234 0-.34.02-.933.158-.196.045-.325.072-.453.094-.456.075-.725.04-.87-.105l.148.353c0-.174-.07-.38-.25-.562-.36-.358-1-.45-1.98-.254-.855.17-1.422.76-1.743 1.595-.128.33-.208.678-.252 1.026-.016.122-.026.235-.032.337l-.004.098v.041c1-.665 0-.665 0 .002 0 .218.036.516.153.828.22.585.66.976 1.324.976.15 0 .272-.005.513-.02.498-.027.682-.02.803.033.09.04.14.14.14.465 0 .133.053.26.147.354.07.07.18.19.29.326.05.063.094.123.13.177.058.087.086.15.086.122 0 .027-.025.092-.11.264-.16.318-.216.47-.216.713 0 .63.833 2.13 1.478 2.13.4 0 .733-.035 1.117-.172.82-.29 1.34-.94 1.34-1.958l-.343.474c.313-.103.746-.343 1.174-.772l-.353.147c.616-.41.722-.718.616-1.033-.07-.202-.165-.31-.374-.49l-.045-.04c-.03-.027-.023-.02-.023.085 0 .124.032.09.613-.542.25-.272.44-.507.584-.742.38-.613.43-1.21-.04-1.68-.152-.15-.384-.19-.577-.092-.016.01-.06.027-.115.046-.09.03-.175.047-.24.047-.04 0-.05-.003-.046 0l-.353.355.485-.12c-.045-.18-.12-.442-.22-.708-.244-.647-.45-.977-.918-.977.25 0 .527.244.434.59-.025.092-.045.118-.065.135.064-.057.2-.142.367-.218.46-.208.973-.287 1.425-.174.116.03.238.016.345-.037 1.172-.588 1.906-2.177 1.906-2.89z" fill="#FFF" fill-rule="evenodd"/></svg>
<svg width="16" height="16" viewBox="0 0 16 16" id="icon-face" y="108"><title>面部护理</title><g transform="translate(1 1)" stroke="#FFF" fill="none" fill-rule="evenodd"><path d="M7 14c3.866 0 7-3.134 7-7s-3.134-7-7-7-7 3.134-7 7 3.134 7 7 7z"/><path d="M1.91 5.917s1.6-2.088 3.708.037C3.36 7.896 1.91 5.917 1.91 5.917zM8.17 5.917s1.6-2.088 3.707.037C9.62 7.896 8.17 5.917 8.17 5.917z"/><path d="M3 10.178s.448.987 1.457.987H9.07s1.034-.34 1.034-1.165" stroke-linecap="round" stroke-linejoin="round"/></g></svg>
<svg width="37" height="36" viewBox="0 0 37 36" id="icon-footer1" y="124"><title>icon-footer1</title><path d="M36.223 18c0-9.858-8.017-17.887-17.91-17.995-.037 0-.072-.005-.11-.005v.002L18.114 0h-.05l-.06.003C8.066.06 0 8.11 0 18c0 9.89 8.066 17.938 18.003 17.997l.06.003h.05l.09-.002V36c.038 0 .073-.004.11-.005 9.893-.108 17.91-8.137 17.91-17.995zm-34.736.73h7.16c.047 2.35.32 4.57.78 6.588H3.19c-1-2.003-1.6-4.232-1.705-6.59zm33.25-1.46h-7.12c-.045-2.306-.307-4.487-.75-6.474h6.224c.965 1.973 1.544 4.162 1.646 6.474zm-8.587 0h-7.304v-6.474h6.488c.476 1.983.764 4.175.816 6.474zm-7.304-7.933V1.52c2.537.446 4.78 3.49 6.092 7.817h-6.092zm-1.468-7.81v7.81h-6.05c1.305-4.302 3.53-7.338 6.05-7.81zm0 9.27v6.473h-7.262c.05-2.3.34-4.49.815-6.474h6.448zm-8.73 6.473h-7.16c.1-2.312.68-4.5 1.644-6.474h6.266c-.442 1.987-.704 4.168-.75 6.474zm1.468 1.46h7.262v6.588H10.96c-.492-2.013-.792-4.246-.844-6.59zm7.262 8.047v7.695c-2.497-.467-4.705-3.453-6.015-7.695h6.015zm1.468 7.702v-7.703h6.056c-1.317 4.265-3.54 7.262-6.056 7.702zm0-9.162v-6.59h7.304c-.052 2.344-.353 4.577-.845 6.59h-6.46zm8.77-6.59h7.12c-.103 2.358-.706 4.587-1.704 6.59H26.84c.46-2.018.73-4.238.777-6.59zm4.666-9.39h-5.78c-.87-3.084-2.194-5.598-3.814-7.238 4.03 1.148 7.44 3.767 9.594 7.237zM13.595 2.082c-1.628 1.64-2.96 4.16-3.83 7.254H3.94c2.167-3.487 5.6-6.115 9.655-7.254zm-9.58 24.694H9.8c.87 3.04 2.188 5.52 3.795 7.14-4.01-1.126-7.41-3.71-9.58-7.14zM22.688 33.9c1.6-1.62 2.91-4.093 3.78-7.123h5.74c-2.16 3.413-5.535 5.988-9.52 7.123z" fill="#FFF" fill-rule="evenodd"/></svg>
<svg width="36" height="40" viewBox="0 0 36 40" id="icon-footer2" y="160"><title>icon-footer2</title><g fill="#FFF" fill-rule="evenodd"><path d="M31.428 30.155L20.915 33.07c-.77-1.598-2.402-2.707-4.293-2.707-.22 0-.436.02-.65.05L7.762.813c-.12-.42-.555-.667-.976-.55-.422.115-.668.552-.552.974L7.29 5.044H1.113c-.438 0-.79.354-.79.792 0 .438.352.792.79.792H7.57c.055 0 .1-.02.152-.03l6.737 24.29c-1.544.79-2.606 2.392-2.606 4.24 0 2.63 2.14 4.768 4.768 4.768 2.628 0 4.767-2.138 4.767-4.767 0-.182-.013-.36-.033-.536l10.495-2.912c.422-.117.668-.554.55-.976-.116-.42-.553-.665-.974-.55zm-14.806 8.157c-1.756 0-3.184-1.428-3.184-3.183s1.428-3.183 3.184-3.183c1.755 0 3.183 1.428 3.183 3.182s-1.428 3.182-3.183 3.182z"/><path d="M35.744 25.244l-4.26-15.358c-.058-.202-.19-.375-.374-.478-.184-.104-.4-.13-.602-.074l-15.358 4.26c-.42.118-.668.555-.55.976l4.26 15.358c.097.35.416.58.762.58.07 0 .142-.01.213-.03l15.357-4.26c.202-.056.375-.19.478-.372.104-.183.13-.4.074-.602zm-15.57 3.497l-3.837-13.83 13.83-3.838 3.84 13.832-13.833 3.837z"/><path d="M25.238 18.422c.09.035.183.05.275.05.32 0 .624-.197.742-.516l.125-.336 1.218 4.35c.1.35.417.58.763.58.072 0 .144-.01.215-.03.42-.118.667-.555.55-.976l-1.22-4.35.28.222c.345.272.843.213 1.113-.13.272-.343.214-.84-.128-1.112l-2.192-1.736c-.198-.157-.46-.21-.706-.14-.244.067-.44.248-.53.486l-.972 2.62c-.152.41.057.866.468 1.018"/><path d="M22.865 23.298c.098.35.416.58.76.58.073 0 .145-.01.216-.03.422-.118.668-.556.55-.977l-1.22-4.35.282.222c.343.272.842.213 1.113-.13.27-.343.213-.842-.13-1.113l-2.192-1.736c-.198-.158-.46-.21-.705-.142-.244.068-.44.25-.53.488l-.97 2.62c-.153.41.056.866.466 1.02.09.032.184.048.275.048.322 0 .623-.197.742-.516l.124-.335 1.22 4.35M22.726 24.726c-.422.118-.668.555-.55.976.098.35.416.58.762.58.072 0 .144-.01.214-.03l7.26-2.033c.422-.118.667-.556.55-.977-.12-.42-.56-.666-.977-.55l-7.26 2.033M16.622 33.77c-.75 0-1.36.61-1.36 1.36 0 .75.61 1.36 1.36 1.36.75 0 1.36-.61 1.36-1.36 0-.75-.61-1.36-1.36-1.36"/></g></svg>
<svg width="27" height="33" viewBox="0 0 27 33" id="icon-footer3" y="200"><title>icon-footer3</title><g fill="#FFF" fill-rule="evenodd"><path d="M25.85 5.46l-4.514-4.446C21.01.694 20.58.52 20.126.52H2.252C1.303.52.53 1.29.53 2.24v28.777c0 .95.772 1.724 1.723 1.724h22.385c.95 0 1.726-.773 1.726-1.723V6.685c0-.458-.188-.905-.514-1.226zm-1.257.58h-3.816l-.004-3.762 3.82 3.76zm.045 25.406H2.253c-.236 0-.43-.192-.43-.43V2.242c0-.235.194-.427.43-.427h17.224l.005 4.874c0 .357.29.646.648.646h4.938v23.684c0 .237-.193.43-.43.43z"/><path d="M21.52 23.182H10.934c-.358 0-.648.29-.648.647 0 .356.29.646.648.646H21.52c.357 0 .647-.29.647-.647 0-.36-.29-.648-.647-.648M21.52 17.552H10.934c-.358 0-.648.29-.648.647 0 .357.29.646.648.646H21.52c.357 0 .647-.29.647-.647 0-.36-.29-.648-.647-.648M21.52 11.923H10.934c-.358 0-.648.29-.648.647 0 .357.29.647.648.647H21.52c.357 0 .647-.29.647-.647 0-.358-.29-.647-.647-.647M7.53 11.023H5.727c-.358 0-.648.29-.648.647v1.8c0 .357.29.646.648.646h1.8c.36 0 .65-.29.65-.647v-1.8c0-.357-.29-.647-.65-.647M7.53 16.653H5.727c-.358 0-.648.29-.648.647v1.8c0 .356.29.646.648.646h1.8c.36 0 .65-.29.65-.647v-1.8c0-.358-.29-.647-.65-.647M7.53 22.282H5.727c-.358 0-.648.29-.648.647v1.8c0 .356.29.646.648.646h1.8c.36 0 .65-.29.65-.647v-1.8c0-.358-.29-.648-.65-.648"/></g></svg>
<svg width="40" height="31" viewBox="0 0 40 31" id="icon-footer4" y="233"><title>icon-footer4</title><g fill="#FFF" fill-rule="evenodd"><path d="M38.718 19.158v-5.694c0-4.595-3.025-6.972-3.154-7.07-.137-.106-.305-.163-.478-.163H27.91V1.49c0-.435-.35-.787-.784-.787H1.356c-.433 0-.784.352-.784.786v18.45c0 .433.35.785.785.785h.828v3.303c0 .435.35.786.784.786h2.505c-.088.355-.14.724-.14 1.106 0 2.512 2.04 4.556 4.548 4.556s4.548-2.044 4.548-4.556c0-.382-.05-.75-.14-1.106h13.334c-.088.355-.14.724-.14 1.106 0 2.512 2.04 4.556 4.548 4.556s4.548-2.044 4.548-4.556c0-.382-.052-.75-.142-1.106h2.195c.434 0 .784-.35.784-.786v-4.09c0-.404-.306-.737-.7-.78zm-1.568-5.694v.257H34.1V7.804h.695c.586.543 2.355 2.45 2.355 5.66zm-9.24-5.66h4.62v5.917h-4.62V7.804zM2.14 2.273h24.2v16.88H2.14V2.273zm7.743 26.63c-1.644 0-2.98-1.337-2.98-2.984 0-1.646 1.336-2.984 2.98-2.984 1.642 0 2.98 1.338 2.98 2.984 0 1.647-1.338 2.985-2.98 2.985zm22.15 0c-1.645 0-2.98-1.337-2.98-2.984 0-1.646 1.335-2.984 2.98-2.984 1.642 0 2.98 1.338 2.98 2.984 0 1.647-1.338 2.985-2.98 2.985zm5.816-5.66h-2.146c-.83-1.137-2.164-1.88-3.672-1.88-1.51 0-2.845.743-3.672 1.88H13.555c-.83-1.137-2.164-1.88-3.672-1.88-1.51 0-2.845.743-3.672 1.88H3.755v-2.52h23.372c.434 0 .785-.35.785-.785V15.29h9.24v4.647c0 .404.306.737.7.78v2.523z"/><path d="M32.03 24.894c-.563 0-1.023.46-1.023 1.026 0 .566.46 1.027 1.024 1.027.566 0 1.026-.46 1.026-1.027 0-.566-.46-1.026-1.025-1.026M9.882 24.894c-.564 0-1.025.46-1.025 1.026 0 .566.46 1.027 1.025 1.027.566 0 1.025-.46 1.025-1.027 0-.566-.46-1.026-1.025-1.026M29.68 2.606h.005c1.998 0 3.8 2.387 3.818 2.412.153.207.39.316.63.316.163 0 .326-.05.466-.155.347-.26.42-.75.162-1.098-.09-.125-2.284-3.047-5.077-3.047h-.007c-.433 0-.783.352-.782.787 0 .433.35.784.784.784"/></g></svg>
<svg width="36" height="33" viewBox="0 0 36 33" id="icon-footer5" y="264"><title>icon-footer5</title><path d="M35.397 4.874c-.062-.197-.208-.358-.4-.44L24.82.06c-.327-.144-.71-.022-.897.278L20.4 5.974 10.644 7.09l-.56-1.296c-.068-.16-.193-.29-.35-.364L1.03 1.308c-.27-.128-.592-.078-.808.13-.216.205-.282.52-.164.794l2.826 6.552v16.7c0 .243.123.468.328.6l9.225 5.92c.028.018.06.027.09.04.024.012.046.024.07.033.076.025.153.042.232.042.026 0 .054-.003.08-.006l17.226-1.974c.363-.04.638-.346.638-.708V12.765l4.55-7.303c.11-.176.136-.39.073-.588zm-15.29 2.568v5.566l-6.587.754-2.287-5.303 8.875-1.018zm1.44.51l6.466 4.15-6.465.74v-4.89zm-12.68-1.35l2.722 6.312L4.18 8.16 2.132 3.41 8.867 6.6zM4.324 9.95l7.785 4.997v15.147l-7.786-4.997V9.95zm9.225 20.656V15.194l15.784-1.808v15.41l-15.785 1.81zm16.277-19.04l-8.015-5.142 3.007-4.81 8.84 3.8-3.833 6.153z" fill="#FFF" fill-rule="evenodd"/></svg>
<svg width="147" height="41" viewBox="0 0 147 41" id="icon-footer6" y="297"><title>Imported Layers Copy</title><g transform="translate(0 .182)" fill="none" fill-rule="evenodd"><path d="M73.213 15.545h1.713v6.677h-1.713v-6.677zM88.412 22.667v-2.11c4.903-4.245 4.903-10.243 4.903-12.5 0-1.074-.673-1.27-.856-1.303h-3.747V5.04l3.905.004c.833.096 2.41.85 2.41 3.012 0 2.473.062 9.783-6.616 14.61M82.16 9.358h4.654v1.716H82.16V9.358zM82.16 14.18h4.654v1.715H82.16V14.18zM75.94 4.65h1.712v19.99H75.94V4.65z" fill="#3E3A39"/><path d="M81.393 5.937h1.712V20.03h-1.712V5.936zM136.343 23.846l-1.712-.008.054-12.387 1.713.008-.054 12.388" fill="#3E3A39"/><path d="M145.114 22.413h-1.71V9.14c-.12-.76-.777-1.328-1.55-1.328H130.86V6.096h10.993c1.65 0 3.05 1.237 3.255 2.878l.006.106v13.333M141.83 25.724V24.01c.866 0 1.57-.707 1.57-1.575h1.713c0 1.814-1.473 3.29-3.283 3.29M76.496 25.51c-1.81 0-3.283-1.475-3.283-3.288h1.713c0 .868.704 1.574 1.57 1.574v1.715" fill="#3E3A39"/><path d="M71.915 25.24v-1.715c.717 0 1.3-.585 1.3-1.303h1.713c0 1.664-1.352 3.018-3.013 3.018M116.383 25.43h-9.172c-1.652-.015-2.99-1.37-2.992-3.017v-9.147c.002-1.664 1.353-3.02 3.013-3.02h9.13c1.66 0 3.012 1.356 3.012 3.02v9.147c0 1.648-1.34 3.002-2.985 3.017h-.004zm-9.152-13.467c-.716 0-1.3.584-1.3 1.303v9.147c0 .71.58 1.296 1.29 1.302h9.155c.71-.008 1.285-.592 1.285-1.302v-9.147c0-.72-.583-1.303-1.3-1.303h-9.13zM95.437 22.286c-3.297-1.938-4.995-5.153-5.776-8.856-.58-2.756-.44-4.957-.435-5.05l1.708.113c-.005.082-.503 7.613 4.504 11.882v1.91M138.536 24.414h-6.498c-1.215 0-2.204-.99-2.204-2.21v-3.158h1.712v3.16c0 .272.22.492.492.492h6.498c.27 0 .492-.22.492-.493v-3.16h1.71v3.16c0 1.218-.987 2.21-2.202 2.21M130.71 4.65c0 1.3-.66 2.444-1.664 3.117v1.935c1.98-.82 3.377-2.775 3.377-5.05h-1.712M105.883 4.65c0 1.3-.662 2.444-1.665 3.117v1.935c1.98-.82 3.377-2.775 3.377-5.05h-1.712M130.976 9.68c0 1.104-.667 2.053-1.618 2.468v1.806c1.91-.48 3.33-2.213 3.33-4.273h-1.712M69.758 6.83c0-.323-.26-.585-.582-.585H46.933V7.96h22.825V6.83M80.218 6.83c0-.323-.26-.585-.583-.585h-7.202V7.96h7.787V6.845l-.002-.015M69.758 13.878c0-.316-.25-.57-.564-.582h-22.26v1.716h22.824v-1.134M69.758 20.925c0-.298-.223-.54-.51-.577H46.933v1.715h22.825v-1.138" fill="#3E3A39"/><path d="M112.65 20.654V13.55h-1.71v7.687h1.128c.322 0 .583-.26.583-.583M119.71 6.29c-.01 0-.02-.002-.026-.005l-13.5-.04-.006 1.716 14.11.042.004-1.144c-.01-.315-.264-.568-.58-.568" fill="#3E3A39"/><path d="M120.277 17.12c0-.322-.26-.583-.582-.583h-16.382v1.715h16.964V17.12M102.316 5.896c0-.322-.26-.584-.583-.584-.022 0-.033-.007-.034-.02h-4.17V7.01h4.786V5.896M102.316 14.41c0-.323-.26-.584-.583-.584H97.53v1.715h4.786v-1.13M102.316 23.846c0-.268-.18-.49-.427-.56h-4.36V25h4.786v-1.154M127.742 5.896c0-.322-.26-.584-.583-.584-.022 0-.033-.007-.038-.02h-4.168V7.01h4.788V5.896M141.532 11.145c0-.254-.163-.468-.39-.548h-9.692v1.715h10.082v-1.166M141.532 16.422c0-.323-.26-.584-.582-.584h-11.402v1.715h11.984v-1.13M127.742 14.41c0-.323-.26-.584-.583-.584h-4.206v1.715h4.788v-1.13M127.742 23.846c0-.268-.182-.49-.427-.56h-4.36V25h4.787v-1.154M95.437 24.417c0-.322-.26-.583-.583-.583-.03 0-.043-.016-.05-.038H76.496v1.715h18.94v-1.093M87.67 22.083V5.937h-1.712v16.73h1.13c.32 0 .582-.262.582-.584" fill="#3E3A39"/><path d="M88.412 19.725c0-.323-.26-.584-.583-.584h-7.205v1.716h7.787v-1.13M80.22 12.043c0-.322-.26-.583-.583-.583-.01 0-.02-.003-.027-.005h-7.177v1.715h7.787v-1.127M80.22 17.5c0-.32-.26-.582-.583-.582h-2.84v1.715h3.423V17.5M88.412 5.622c0-.322-.26-.583-.583-.583h-7.205v1.714h7.787V5.622M59.2 24.942V4.652h-1.71v20.873h1.13c.32 0 .58-.26.58-.583" fill="#3E3A39"/><path d="M40.293 20.163c0 11.107-8.988 20.112-20.074 20.112C9.13 40.275.143 31.27.143 20.163.144 9.053 9.132.05 20.22.05c11.085 0 20.073 9.004 20.073 20.113" fill="#E73736"/><path d="M26.204 35.043c-1.048 0-1.9-.854-1.9-1.905v-3.37c0-.27.216-.487.484-.487s.486.218.486.487v3.37c0 .515.417.934.93.934.513 0 .93-.418.93-.932 0-.268.218-.486.486-.486s.485.218.485.486c0 1.05-.852 1.905-1.9 1.905M28.706 19.633c-.268 0-.485-.217-.485-.486 0-.613-.497-1.113-1.11-1.113-.612 0-1.11.5-1.11 1.113 0 .27-.218.486-.486.486s-.485-.217-.485-.486c0-1.15.932-2.085 2.08-2.085 1.147 0 2.08.936 2.08 2.085 0 .27-.216.486-.484.486M14.95 19.633c-.267 0-.484-.217-.484-.486 0-.613-.498-1.113-1.11-1.113-.614 0-1.112.5-1.112 1.113 0 .27-.217.486-.485.486-.27 0-.486-.217-.486-.486 0-1.15.933-2.085 2.08-2.085 1.15 0 2.083.936 2.083 2.085 0 .27-.218.486-.486.486M18.695 35.05c-.268 0-.485-.22-.485-.487v-3.97c0-.27.217-.488.485-.488s.485.218.485.487v3.97c0 .27-.217.487-.485.487M21.74 35.05c-.266 0-.484-.22-.484-.487v-3.97c0-.27.218-.488.485-.488.27 0 .487.218.487.487v3.97c0 .27-.218.487-.486.487M14.28 35.043c-1.02 0-1.852-.833-1.852-1.856 0-.27.218-.486.486-.486s.485.218.485.487c0 .487.394.884.88.884.487 0 .883-.396.883-.883v-3.42c0-.27.217-.486.485-.486s.485.218.485.487v3.42c0 1.023-.83 1.856-1.852 1.856M20.233 26.022c-1.615 0-2.928-1.316-2.928-2.933 0-1.618 1.313-2.933 2.928-2.933 1.614 0 2.926 1.315 2.926 2.932 0 1.616-1.313 2.932-2.927 2.932zm0-4.893c-1.08 0-1.957.88-1.957 1.96s.878 1.96 1.957 1.96c1.078 0 1.956-.88 1.956-1.96s-.88-1.96-1.957-1.96z" fill="#FFF"/><path d="M24.967 30.22l-.357-.905c4.578-1.817 7.537-6.18 7.537-11.115 0-6.59-5.35-11.95-11.928-11.95-6.58 0-11.93 5.36-11.93 11.95 0 4.935 2.958 9.298 7.537 11.115l-.358.904c-2.378-.944-4.405-2.56-5.866-4.675C8.11 23.382 7.32 20.84 7.32 18.2c0-7.127 5.786-12.924 12.9-12.924 7.11 0 12.898 5.797 12.898 12.924 0 2.64-.79 5.182-2.286 7.346-1.46 2.114-3.488 3.73-5.865 4.673" fill="#FFF"/><path d="M46.974 31.006h.662l1.534 3.64 1.597-3.64h.116l1.608 3.64 1.564-3.64h.67L52.55 36.02h-.12l-1.6-3.59-1.598 3.59h-.12l-2.138-5.014M57.74 31.006h.663l1.534 3.64 1.596-3.64h.117l1.607 3.64 1.564-3.64h.67l-2.173 5.013h-.12l-1.6-3.59-1.6 3.59h-.12l-2.136-5.014M68.507 31.006h.663l1.533 3.64 1.597-3.64h.117l1.607 3.64 1.563-3.64h.67l-2.174 5.013h-.12l-1.6-3.59-1.598 3.59h-.12l-2.138-5.014M80.658 35.005c.157 0 .29.056.4.166.11.112.166.247.166.407 0 .156-.055.29-.166.403-.11.112-.243.168-.4.168-.156 0-.29-.056-.4-.168-.11-.112-.165-.247-.165-.403 0-.16.055-.295.165-.406.11-.11.244-.165.4-.165M87.557 29.07v.63c-.236-.1-.438-.15-.607-.15-.126 0-.23.025-.313.076-.083.05-.135.11-.156.175-.02.067-.03.243-.03.528l-.002.678h1.045v.557h-1.045l-.004 4.456H85.8v-4.457h-.657v-.557h.657v-.784c0-.36.033-.616.1-.77.065-.153.177-.277.335-.37.158-.094.35-.14.572-.14.21 0 .46.042.75.128M96.374 31.006v6.847h-.635v-2.696c-.27.33-.574.576-.91.742-.335.165-.702.248-1.1.248-.71 0-1.314-.257-1.816-.772-.5-.514-.752-1.14-.752-1.878 0-.72.254-1.34.76-1.852.506-.513 1.114-.77 1.825-.77.41 0 .783.088 1.116.263.332.175.625.437.876.787v-.92h.634zM93.8 31.5c-.358 0-.69.087-.992.263-.303.177-.544.425-.724.743-.18.32-.268.657-.268 1.013 0 .352.09.69.27 1.012.18.322.424.573.73.753.303.18.63.27.98.27.352 0 .686-.09 1-.268.316-.178.56-.42.73-.723.17-.304.254-.646.254-1.026 0-.58-.19-1.065-.572-1.455-.38-.39-.85-.584-1.408-.584zM100.757 29.07h.643v2.834c.26-.344.548-.6.86-.772.313-.17.652-.255 1.017-.255.374 0 .706.095.995.285.29.19.504.447.642.768.138.32.207.824.207 1.51v2.58h-.643v-2.392c0-.578-.023-.963-.07-1.157-.08-.33-.224-.58-.433-.748-.21-.168-.486-.25-.826-.25-.39 0-.738.128-1.046.386-.308.258-.51.578-.61.96-.06.245-.092.7-.092 1.362v1.84h-.643v-6.95M110 29.144h.645v1.862h1.02v.557h-1.02v4.456H110v-4.457h-.878v-.557h.88v-1.862M116.28 35.005c.155 0 .29.056.4.166.11.112.164.247.164.407 0 .156-.055.29-.165.403-.11.112-.245.168-.4.168-.158 0-.29-.056-.402-.168-.11-.112-.165-.247-.165-.403 0-.16.055-.295.165-.406.11-.11.244-.165.4-.165M125.974 32.047l-.51.318c-.442-.587-1.044-.88-1.806-.88-.61 0-1.116.196-1.52.59-.4.392-.602.87-.602 1.43 0 .366.092.71.277 1.032.186.32.44.572.763.75.323.178.685.267 1.086.267.735 0 1.336-.294 1.8-.88l.512.336c-.24.36-.56.64-.964.84-.403.2-.862.298-1.377.298-.79 0-1.448-.252-1.97-.755-.52-.504-.78-1.117-.78-1.84 0-.485.12-.935.365-1.352.244-.415.58-.74 1.005-.973.426-.234.903-.35 1.43-.35.33 0 .65.05.96.152.307.1.57.232.783.395.215.163.397.37.548.622M132.52 30.877c.77 0 1.408.28 1.915.838.46.51.69 1.114.69 1.81 0 .7-.242 1.314-.73 1.837-.486.524-1.112.786-1.876.786-.77 0-1.397-.262-1.884-.786-.486-.523-.73-1.136-.73-1.836 0-.694.23-1.296.69-1.806.508-.562 1.148-.843 1.923-.843zm-.004.63c-.535 0-.996.2-1.38.595-.385.397-.577.876-.577 1.438 0 .363.087.7.262 1.014.176.313.412.555.71.725.3.17.627.255.984.255s.685-.085.983-.256c.298-.17.534-.413.71-.726.175-.314.263-.65.263-1.014 0-.562-.193-1.04-.58-1.438-.386-.396-.845-.594-1.377-.594zM139.25 31.006h.646v.866c.223-.32.453-.553.69-.7.325-.197.668-.295 1.027-.295.242 0 .472.047.69.142.218.095.396.22.535.38.138.158.258.384.36.68.213-.394.48-.692.802-.897.32-.204.667-.306 1.037-.306.345 0 .65.087.915.262.265.175.46.42.59.732.128.313.193.783.193 1.41v2.737h-.658V33.28c0-.538-.04-.907-.115-1.108-.076-.2-.207-.364-.392-.486-.185-.123-.405-.185-.662-.185-.312 0-.597.093-.855.277-.26.184-.447.43-.566.737-.12.307-.18.82-.18 1.54v1.962h-.643v-2.567c0-.606-.038-1.017-.113-1.233-.074-.217-.205-.39-.392-.52-.187-.13-.41-.197-.667-.197-.296 0-.574.09-.833.27-.26.18-.45.422-.575.726-.124.303-.186.768-.186 1.395v2.124h-.645v-5.014" fill="#8A8C8C"/></g></svg>
<svg width="15" height="13" viewBox="0 0 15 13" id="icon-hair" y="338"><title>洗发护发</title><path d="M7.025.703c1.633 0 2.44 1.806 3.577 2.07C11.74 3.04 14 3.847 14 6.707s-.104 5.347-.104 5.347-2.197.285-2.37-.793c-.173-1.08-.104-3.046-.104-3.046s-.186-.626-.82-.237C9.97 8.367 9.51 9.1 7.676 9.215c-1.832.115-3.167-.938-3.552-1.39-.385-.454-.884 0-.884.34s.077 3.445.077 3.445-.465 1.115-1.98.382V6.108s-.068-2.75 3.56-3.7C8.523 1.457 5.39.702 7.024.702z" stroke="#FFF" fill="none" fill-rule="evenodd"/></svg>
<svg width="22" height="19" viewBox="0 0 22 19" id="icon-header-cart-black" y="351"><title>Fill 1</title><path d="M20.89 1.092c-.23-.063-.466.073-.53.3l-.302 1.11H3.932L4.25 1.13c.013-.06.014-.125 0-.186C4.136.397 3.645 0 3.086 0H.43C.193 0 0 .192 0 .43c0 .237.193.43.43.43h2.655c.13 0 .246.076.3.19l-.412 1.786v.01c-.012.058-.014.118 0 .18v.002l1.832 8.018-.468 1.498-.01.043c-.065.314.015.636.217.883.203.25.502.39.823.39h12.788c.237 0 .43-.19.43-.43 0-.237-.193-.43-.43-.43H5.367c-.06 0-.118-.026-.157-.074-.035-.043-.05-.097-.044-.152l.41-1.314 12.414-1.35c.546-.01 1.01-.385 1.13-.904l2.07-7.586c.063-.23-.072-.466-.3-.528zM6.095 14.938c-.957 0-1.735.778-1.735 1.734 0 .957.78 1.735 1.736 1.735.955 0 1.733-.778 1.733-1.735 0-.956-.78-1.734-1.734-1.734zm10.26 0c-.956 0-1.734.778-1.734 1.734 0 .957.778 1.735 1.734 1.735.957 0 1.735-.778 1.735-1.735 0-.956-.777-1.734-1.734-1.734z" fill="#323232" fill-rule="evenodd"/></svg>
<svg width="25" height="22" viewBox="0 0 25 22" id="icon-header-cart-red" y="370"><title>icon-header5</title><path d="M24.47 1.57c-.265-.074-.54.084-.614.35l-.352 1.29H4.75l.368-1.597c.016-.07.017-.145.002-.216C4.985.76 4.415.3 3.764.3H.677C.4.3.177.522.177.8c0 .275.223.5.5.5h3.087c.15 0 .287.088.35.22l-.48 2.077v.012c-.014.066-.016.136 0 .206v.007l2.13 9.323-.544 1.743c-.004.016-.01.033-.012.05-.075.364.018.74.253 1.027.237.29.585.454.958.454H21.29c.276 0 .5-.225.5-.5 0-.278-.224-.5-.5-.5H6.418c-.07 0-.137-.032-.182-.088-.04-.05-.06-.113-.05-.177l.476-1.53L21.1 12.06c.634-.013 1.174-.45 1.315-1.053l2.406-8.823c.073-.266-.084-.54-.35-.613zm-3.025 9.19c-.04.176-.196.298-.376.298-.02 0-.037.002-.055.003L6.67 12.62 4.748 4.21h18.484l-1.787 6.55zm-14.18 6.91c-1.112 0-2.017.906-2.017 2.02 0 1.11.905 2.015 2.017 2.015 1.112 0 2.017-.904 2.017-2.016 0-1.114-.905-2.02-2.017-2.02zm0 3.035c-.56 0-1.017-.456-1.017-1.016 0-.563.457-1.02 1.017-1.02.56 0 1.017.457 1.017 1.02 0 .56-.457 1.015-1.017 1.015zm11.933-3.034c-1.112 0-2.017.906-2.017 2.02 0 1.11.906 2.015 2.018 2.015 1.113 0 2.018-.904 2.018-2.016 0-1.114-.905-2.02-2.018-2.02zm0 3.035c-.56 0-1.017-.456-1.017-1.016 0-.563.458-1.02 1.018-1.02s1.018.457 1.018 1.02c0 .56-.457 1.015-1.018 1.015z" fill="#E73736" fill-rule="evenodd"/></svg>
<svg width="149" height="36" viewBox="0 0 149 36" id="icon-header-logo" y="392"><title>svg-header-logo</title><g transform="translate(.64)" fill="none" fill-rule="evenodd"><g transform="translate(43.475 5.014)" fill="#3E3A39"><path d="M28.144 12.342h1.813v7.068h-1.813v-7.068zM44.233 19.88v-2.233c5.19-4.493 5.19-10.842 5.19-13.232 0-1.136-.713-1.344-.906-1.38h-3.965V1.222l4.133.006c.882.102 2.55.9 2.55 3.19 0 2.616.067 10.355-7.002 15.465M37.616 5.793h4.925V7.61h-4.924V5.792zM37.616 10.897h4.925v1.816h-4.924v-1.816zM31.03.81h1.813v21.16H31.03V.81z"/><path d="M36.803 2.172h1.812v14.916h-1.812V2.172zM94.97 21.13l-1.812-.01.056-13.112 1.813.008-.057 13.113"/><path d="M104.255 19.612h-1.812V5.562c-.126-.805-.82-1.406-1.64-1.406H89.167V2.34h11.636c1.747 0 3.228 1.31 3.445 3.046l.007.113V19.61M100.78 23.117V21.3c.916 0 1.66-.745 1.66-1.664h1.813c0 1.92-1.56 3.48-3.474 3.48M31.62 22.89c-1.917 0-3.476-1.56-3.476-3.48h1.813c0 .92.746 1.666 1.662 1.666v1.815"/><path d="M26.77 22.605V20.79c.76 0 1.377-.62 1.377-1.38h1.812c0 1.762-1.432 3.195-3.19 3.195M73.84 22.806h-9.707c-1.75-.016-3.167-1.45-3.168-3.194V9.93c0-1.762 1.43-3.195 3.19-3.195h9.662c1.758 0 3.19 1.433 3.19 3.195v9.682c0 1.745-1.42 3.178-3.16 3.194h-.006zM64.155 8.55c-.76 0-1.377.62-1.377 1.38v9.682c0 .753.612 1.372 1.364 1.378h9.693c.75-.008 1.36-.626 1.36-1.378V9.93c0-.76-.617-1.38-1.376-1.38h-9.663zM51.67 19.477c-3.49-2.05-5.29-5.453-6.115-9.374-.614-2.917-.468-5.247-.462-5.345l1.81.12c-.007.086-.534 8.058 4.766 12.576v2.023M97.29 21.73h-6.877c-1.286 0-2.332-1.05-2.332-2.338v-3.344h1.813v3.344c0 .29.233.522.52.522h6.878c.288 0 .522-.233.522-.522v-3.344h1.812v3.344c0 1.29-1.047 2.338-2.333 2.338M89.01.81c0 1.374-.702 2.586-1.764 3.298v2.05C89.342 5.287 90.82 3.22 90.82.81h-1.81M62.727.81c0 1.374-.7 2.586-1.762 3.298v2.05C63.06 5.287 64.54 3.22 64.54.81h-1.813M89.29 6.134c0 1.17-.707 2.173-1.713 2.612v1.912C89.6 10.15 91.1 8.316 91.1 6.134h-1.81M24.487 3.116c0-.34-.277-.618-.617-.618H.325v1.816h24.162V3.116M35.56 3.116c0-.34-.277-.618-.618-.618H27.32v1.816h8.24V3.13v-.014M24.487 10.578c0-.335-.266-.605-.597-.616H.325v1.816h24.162v-1.2M24.487 18.037c0-.315-.236-.572-.54-.61H.325v1.815h24.162v-1.205"/><path d="M69.89 17.75v-7.52h-1.81v8.138h1.194c.34 0 .617-.277.617-.618M77.365 2.545c-.013 0-.022-.002-.03-.005l-14.29-.042-.006 1.816 14.936.044.004-1.21c-.01-.335-.28-.603-.615-.603"/><path d="M77.964 14.01c0-.342-.276-.618-.616-.618h-17.34v1.815h17.956V14.01M58.95 2.13c0-.343-.275-.62-.616-.62-.024 0-.035-.007-.036-.02h-4.414v1.815h5.067V2.13M58.95 11.14c0-.34-.275-.618-.616-.618h-4.45v1.816h5.067V11.14M58.95 21.13c0-.285-.19-.52-.45-.594h-4.616v1.816h5.067V21.13M85.865 2.13c0-.343-.276-.62-.616-.62-.024 0-.036-.007-.04-.02h-4.412v1.815h5.067V2.13M100.463 7.685c0-.27-.173-.496-.413-.58H89.79V8.92h10.673V7.685M100.463 13.27c0-.34-.276-.618-.616-.618h-12.07v1.815h12.686V13.27M85.865 11.14c0-.34-.276-.618-.616-.618h-4.452v1.816h5.067V11.14M85.865 21.13c0-.285-.192-.52-.452-.594h-4.615v1.816h5.067V21.13M51.67 21.734c0-.34-.277-.618-.618-.618-.03 0-.046-.016-.053-.04H31.62v1.815h20.05v-1.156M43.447 19.263V2.173h-1.812V19.88h1.195c.34 0 .617-.276.617-.617"/><path d="M44.233 16.767c0-.342-.277-.618-.617-.618H35.99v1.815h8.243v-1.198M35.56 8.635c0-.34-.275-.617-.616-.617-.01 0-.02-.003-.028-.005H27.32v1.815h8.24V8.636M35.56 14.413c0-.34-.275-.618-.616-.618h-3.007v1.816h3.624v-1.197M44.233 1.838c0-.34-.277-.617-.617-.617H35.99v1.816h8.243V1.838M13.312 22.29V.81H11.5v22.096h1.195c.34 0 .617-.276.617-.617"/></g><path d="M17.587 35.034C7.943 35.034.125 27.2.125 17.54.125 7.875 7.943.043 17.587.043S35.05 7.876 35.05 17.54c0 9.66-7.82 17.494-17.463 17.494z" fill="#E73736"/><path d="M22.794 30.483c-.912 0-1.654-.743-1.654-1.657v-2.933c0-.234.19-.423.422-.423.233 0 .422.19.422.423v2.933c0 .447.363.81.81.81.446 0 .81-.363.81-.81 0-.234.188-.423.422-.423.233 0 .422.19.422.423 0 .914-.742 1.657-1.654 1.657M24.97 17.078c-.233 0-.422-.19-.422-.423 0-.533-.433-.968-.966-.968-.533 0-.966.435-.966.968 0 .234-.19.423-.422.423-.234 0-.423-.19-.423-.423 0-1 .813-1.814 1.812-1.814.998 0 1.81.815 1.81 1.815 0 .234-.19.423-.422.423M13.005 17.078c-.233 0-.422-.19-.422-.423 0-.533-.433-.968-.966-.968-.533 0-.966.435-.966.968 0 .234-.19.423-.422.423-.233 0-.422-.19-.422-.423 0-1 .812-1.814 1.81-1.814 1 0 1.812.815 1.812 1.815 0 .234-.19.423-.423.423M16.262 30.487c-.233 0-.422-.19-.422-.422V26.61c0-.234.19-.423.422-.423.233 0 .422.19.422.423v3.455c0 .233-.19.422-.422.422M18.912 30.487c-.233 0-.422-.19-.422-.422V26.61c0-.234.19-.423.422-.423.233 0 .422.19.422.423v3.455c0 .233-.19.422-.422.422M12.422 30.483c-.888 0-1.61-.725-1.61-1.615 0-.234.188-.423.42-.423.234 0 .423.19.423.423 0 .424.344.77.767.77.424 0 .768-.346.768-.77v-2.975c0-.234.188-.423.422-.423.233 0 .422.19.422.423v2.975c0 .89-.723 1.615-1.612 1.615M17.6 22.635c-1.405 0-2.547-1.144-2.547-2.55 0-1.407 1.142-2.55 2.547-2.55 1.403 0 2.545 1.143 2.545 2.55 0 1.406-1.142 2.55-2.545 2.55zm0-4.256c-.94 0-1.703.764-1.703 1.704s.764 1.705 1.703 1.705c.938 0 1.7-.765 1.7-1.706 0-.94-.762-1.705-1.7-1.705z" fill="#FFF"/><path d="M21.718 26.287l-.31-.787c3.98-1.58 6.555-5.376 6.555-9.67 0-5.73-4.654-10.395-10.376-10.395-5.72 0-10.376 4.664-10.376 10.396 0 4.294 2.574 8.09 6.557 9.67l-.31.786c-2.068-.82-3.832-2.226-5.103-4.065-1.3-1.88-1.987-4.09-1.987-6.39 0-6.198 5.033-11.24 11.22-11.24s11.22 5.042 11.22 11.24c0 2.3-.687 4.51-1.987 6.39-1.27 1.84-3.035 3.246-5.102 4.067" fill="#FFF"/></g></svg>
<svg width="181" height="66" viewBox="0 0 181 66" id="icon-header-logo-big" y="428"><title>logo</title><defs><path id="aqa" d="M0 .156h180.66V66H0V.156z"/></defs><g fill="none" fill-rule="evenodd"><path d="M179.11 8.864c-.263-2.092-2.05-3.67-4.16-3.67h-12.31c.163-.59.263-1.203.263-1.843h-2.187c0 1.656-.846 3.116-2.127 3.974v2.468c1.218-.504 2.257-1.35 3.014-2.41h13.347c.99 0 1.83.723 1.98 1.693V26h-.002c0 1.11-.9 2.037-2.006 2.037v2.187c2.312 0 4.193-1.91 4.193-4.223h.002V9l-.008-.136z" fill="#3E3A39"/><mask id="aqb" fill="#fff"><use xlink:href="#aqa"/></mask><path d="M99.89 17.69h3.647v4.14H99.89v-4.14zm3.647-8.336h-3.645v-3.32h3.645v3.32zm-3.646 2.188h3.647v3.96H99.89v-3.96zm12.657 8.103c2.603-4.88 2.577-9.822 2.577-11.952 0-2.757-2.014-3.718-3.078-3.84l-4.99-.008v2.188h4.787c.234.042 1.093.292 1.093 1.66 0 1.824-.005 5.56-1.597 9.43-1.726-4.48-1.45-8.802-1.446-8.872l-2.183-.143c-.006.118-.183 2.925.558 6.44.388 1.833.958 3.568 1.75 5.155-.85 1.37-1.93 2.71-3.346 3.933v-1.06c0-.412-.334-.746-.745-.746h-.203V6.032h.948V4.59c0-.41-.334-.745-.745-.745h-9.204v2.188h.98V21.83h-.98v2.187h6.814v2.31h1.442c.41 0 .744-.335.744-.746v-1.563h.948v2.31c1.94-1.402 3.42-2.97 4.57-4.59 1.134 1.62 2.565 3.023 4.406 4.102v-2.437c-1.312-1.116-2.315-2.41-3.1-3.758zM82.094 5.385H69.352V3.352h-2.19v2.033H53.677v2.188h13.487v6.803H53.677v2.188h13.486v6.805l-13.486-.002v2.19l13.486-.002v4.415h1.444c.41 0 .745-.332.745-.743v-3.67h13.487v-1.453c0-.38-.287-.688-.654-.735l-12.835-.002.002-6.804h13.487v-1.446c0-.402-.322-.73-.722-.742H69.352V7.574h13.487V6.128c0-.412-.335-.745-.746-.745M146.662 5.44c-.016 0-.026 0-.035-.005l-15.753-.046c.198-.646.308-1.33.308-2.04h-2.187c0 1.656-.846 3.116-2.128 3.974v2.468c1.143-.473 2.12-1.252 2.864-2.22l17.67.052.004-1.458c-.01-.402-.338-.725-.742-.725M144.04 26.002c0 .906-.735 1.65-1.64 1.66h-11.7c-.906-.007-1.645-.753-1.645-1.66v-5.306h6.4v3.807h1.442c.41 0 .744-.333.744-.744v-3.064h6.4v5.306zm-14.985-11.665c0-.916.745-1.66 1.662-1.66h11.662c.916 0 1.66.744 1.66 1.66v4.172h-6.4V14.7h-2.186v3.81h-6.4v-4.173zm17.586 4.172h-.412v-4.172c0-2.123-1.726-3.85-3.85-3.85h-11.66c-2.123 0-3.85 1.727-3.85 3.85v4.17h-1.157v2.188h1.157v5.307c0 2.102 1.712 3.827 3.824 3.847h11.724c2.103-.02 3.814-1.746 3.814-3.848v-5.306h1.157v-1.444c0-.41-.333-.743-.744-.743zM123.692 4.195c-.03 0-.043-.01-.044-.025h-5.327v2.187h6.116V4.94c0-.41-.333-.745-.744-.745M123.692 15.05h-5.37v2.19h6.114v-1.444c0-.41-.333-.745-.744-.745M123.892 27.115h-5.57v2.187h6.115V27.83c0-.343-.23-.627-.545-.715M156.177 4.195c-.027 0-.042-.01-.047-.025h-5.325v2.187h6.116V4.94c0-.41-.332-.745-.743-.745M174.042 10.934h-10.937c.08-.38.136-.766.136-1.168h-2.186c0 1.407-.852 2.617-2.067 3.146v2.303c1.27-.318 2.363-1.075 3.126-2.093h3.674l-.02 4.495h-6.537v2.188h6.528l-.03 6.56h-3.317c-.346 0-.628-.28-.628-.628v-4.03h-2.187v4.03c0 1.553 1.263 2.817 2.816 2.817h8.302c1.553 0 2.816-1.264 2.816-2.817v-4.03h-2.187v4.03c0 .348-.28.63-.628.63h-2.795l.028-6.562h6.596v-1.443c0-.41-.333-.745-.743-.745h-5.842l.02-4.495h6.566v-1.488c0-.324-.208-.598-.498-.7M156.177 15.05h-5.372v2.19h6.116v-1.444c0-.41-.332-.745-.743-.745M156.376 27.115h-5.57v2.187h6.115V27.83c0-.343-.23-.627-.544-.715" fill="#3E3A39" mask="url(#aqb)"/><path d="M114.903 27.814c-.038 0-.056-.02-.064-.05H92.924v-6.582h3.28v-1.444c0-.41-.333-.744-.744-.744h-2.535v-4.78h3.28v-1.437c0-.41-.333-.744-.744-.744-.012 0-.023-.003-.034-.006h-2.5V7.572h3.28V6.147c-.002-.006-.003-.01-.003-.018 0-.412-.333-.746-.744-.746h-2.535V3.35h-2.187v2.034h-4.48v2.188h4.48v4.456h-4.48v2.187h4.48V27.63c-.752-.287-1.29-1.01-1.295-1.858v-.013h-.002v-8.516h-2.186V25.77c-.007.91-.748 1.65-1.66 1.65v2.186c1.053 0 2.006-.426 2.702-1.113.77.885 1.89 1.457 3.15 1.457h24.202v-1.394c0-.41-.334-.744-.745-.744" fill="#3E3A39" mask="url(#aqb)"/><path d="M46.823 23.284c0 12.774-10.355 23.13-23.13 23.13C10.92 46.413.566 36.057.566 23.283S10.92.154 23.695.154c12.773 0 23.128 10.356 23.128 23.13" fill="#E73836" mask="url(#aqb)"/><path d="M30.59 40.397c-1.208 0-2.19-.982-2.19-2.19v-3.878c0-.31.25-.56.56-.56.308 0 .558.25.558.56v3.876c0 .59.48 1.072 1.072 1.072.59 0 1.073-.48 1.073-1.072 0-.31.25-.56.56-.56.308 0 .558.25.558.56 0 1.21-.982 2.19-2.19 2.19M33.473 22.676c-.31 0-.56-.25-.56-.56 0-.705-.573-1.28-1.28-1.28-.704 0-1.278.575-1.278 1.28 0 .31-.25.56-.56.56-.31 0-.56-.25-.56-.56 0-1.32 1.077-2.397 2.4-2.397 1.32 0 2.397 1.075 2.397 2.397 0 .31-.25.56-.56.56M17.625 22.676c-.31 0-.56-.25-.56-.56 0-.705-.573-1.28-1.28-1.28-.705 0-1.28.575-1.28 1.28 0 .31-.25.56-.558.56-.31 0-.56-.25-.56-.56 0-1.32 1.076-2.397 2.4-2.397 1.32 0 2.397 1.075 2.397 2.397 0 .31-.25.56-.56.56M21.938 40.403c-.31 0-.56-.25-.56-.56v-4.566c0-.308.25-.56.56-.56.31 0 .56.252.56.56v4.567c0 .31-.25.56-.56.56M25.448 40.403c-.31 0-.56-.25-.56-.56v-4.566c0-.308.25-.56.56-.56.31 0 .56.252.56.56v4.567c0 .31-.25.56-.56.56M16.852 40.397c-1.177 0-2.134-.958-2.134-2.135 0-.31.25-.56.56-.56.308 0 .558.25.558.56 0 .56.456 1.016 1.016 1.016s1.016-.456 1.016-1.016V34.33c0-.31.25-.56.56-.56.308 0 .56.25.56.56v3.932c0 1.177-.96 2.135-2.136 2.135M23.71 24.396c-1.243 0-2.254 1.01-2.254 2.254 0 1.243 1.01 2.254 2.254 2.254 1.243 0 2.254-1.01 2.254-2.254 0-1.243-1.01-2.254-2.254-2.254m0 5.626c-1.86 0-3.373-1.513-3.373-3.372 0-1.86 1.513-3.372 3.373-3.372 1.86 0 3.372 1.512 3.372 3.372 0 1.86-1.513 3.372-3.372 3.372" fill="#FEFEFE" mask="url(#aqb)"/><path d="M29.165 34.85l-.412-1.04c5.275-2.09 8.684-7.108 8.684-12.783 0-7.58-6.165-13.744-13.743-13.744S9.95 13.448 9.95 21.027c0 5.675 3.41 10.692 8.684 12.782l-.412 1.04c-2.738-1.086-5.075-2.945-6.757-5.376-1.723-2.488-2.633-5.41-2.633-8.447 0-8.196 6.667-14.862 14.862-14.862s14.862 6.666 14.862 14.862c0 3.037-.91 5.96-2.633 8.447-1.683 2.43-4.02 4.29-6.758 5.375" fill="#FEFEFE" mask="url(#aqb)"/><path d="M53.73 36.96h.845l1.96 4.642 2.04-4.643h.15l2.053 4.642 1.997-4.643h.855l-2.777 6.393H60.7l-2.044-4.578-2.043 4.578h-.153l-2.73-6.394zM65.174 36.96h.846l1.96 4.642 2.04-4.643h.15l2.053 4.642 1.998-4.643h.856L72.3 43.352h-.153L70.1 38.775l-2.04 4.578h-.154l-2.732-6.394zM76.62 36.96h.846l1.96 4.642 2.04-4.643h.15l2.053 4.642 1.996-4.643h.855l-2.776 6.393h-.152l-2.045-4.578-2.043 4.578h-.153l-2.73-6.394zM89.834 42.06c.2 0 .37.07.51.212.142.14.213.313.213.517 0 .2-.07.37-.212.513-.14.143-.31.214-.51.214s-.37-.07-.512-.214c-.14-.143-.212-.314-.212-.514 0-.205.072-.377.213-.518.14-.142.31-.212.51-.212M96.338 34.49v.806c-.302-.13-.56-.194-.776-.194-.16 0-.293.033-.4.097-.105.063-.172.14-.2.223-.026.084-.04.308-.04.672v.864h1.333v.71H94.92l-.004 5.682h-.823V37.67h-.84v-.71h.84v-1c0-.458.042-.785.126-.982.084-.195.227-.352.43-.472.2-.12.444-.18.73-.18.267 0 .585.056.958.165M104.31 39.51c-.11-.44-.27-.79-.48-1.052-.21-.262-.487-.474-.832-.635-.345-.16-.708-.24-1.088-.24-.628 0-1.167.2-1.62.605-.328.294-.577.734-.746 1.322h4.766zm0 1.722l.693.364c-.227.446-.49.807-.788 1.08-.298.275-.633.483-1.006.627-.373.143-.795.214-1.265.214-1.043 0-1.86-.34-2.447-1.026-.588-.68-.882-1.455-.882-2.316 0-.812.25-1.534.747-2.17.63-.806 1.476-1.21 2.535-1.21 1.09 0 1.96.414 2.61 1.24.464.584.7 1.313.707 2.187h-5.753c.015.743.253 1.353.712 1.827.46.475 1.026.712 1.7.712.326 0 .643-.058.95-.17.308-.113.57-.264.786-.45.216-.19.45-.49.7-.908zM108.193 36.96h.823v1.145c.33-.44.693-.767 1.093-.984.4-.217.833-.325 1.303-.325.478 0 .903.12 1.273.364.37.242.643.57.82.98.176.412.264 1.052.264 1.92v3.293h-.823v-3.05c0-.737-.03-1.23-.09-1.475-.097-.423-.28-.74-.55-.955-.27-.214-.623-.32-1.058-.32-.498 0-.944.164-1.338.493-.394.33-.653.737-.778 1.223-.08.316-.118.896-.118 1.738v2.345h-.823V36.96zM120.06 37.588c-.465 0-.898.112-1.297.338-.4.226-.713.537-.94.935-.228.398-.342.828-.342 1.29 0 .702.237 1.28.706 1.74.47.458 1.08.687 1.828.687.756 0 1.364-.227 1.825-.68.46-.456.69-1.053.69-1.794 0-.482-.107-.91-.318-1.29-.212-.377-.51-.676-.9-.896-.387-.22-.804-.33-1.25-.33zm2.428-.63h.822v5.096c0 .897-.078 1.554-.234 1.97-.216.587-.59 1.04-1.122 1.356-.534.317-1.174.476-1.922.476-.55 0-1.04-.078-1.478-.233-.437-.155-.792-.363-1.067-.625-.274-.26-.527-.643-.757-1.146h.892c.244.423.558.737.942.94.384.204.86.306 1.43.306.56 0 1.034-.105 1.42-.314.387-.21.662-.47.827-.787.166-.316.248-.827.248-1.532v-.33c-.31.393-.688.694-1.135.903-.447.21-.922.315-1.424.315-.59 0-1.142-.146-1.66-.438-.517-.292-.917-.684-1.2-1.18-.282-.492-.423-1.035-.423-1.626 0-.592.147-1.144.44-1.655.295-.512.702-.916 1.222-1.214.52-.297 1.066-.445 1.643-.445.478 0 .924.1 1.338.297.415.197.814.523 1.198.978v-1.11zM129.594 37.588c-.457 0-.88.112-1.268.338-.387.224-.695.54-.924.947-.23.407-.343.838-.343 1.292 0 .45.114.88.345 1.29.23.412.54.732.93.96.39.23.807.344 1.253.344.45 0 .877-.114 1.28-.34.403-.228.713-.535.93-.923.217-.388.326-.823.326-1.308 0-.74-.244-1.36-.73-1.857-.488-.496-1.088-.745-1.8-.745zm3.288-.63v8.734h-.81v-3.438c-.346.42-.732.734-1.162.946-.428.21-.897.317-1.407.317-.905 0-1.677-.327-2.318-.984-.64-.656-.96-1.455-.96-2.394 0-.922.323-1.71.97-2.363.645-.655 1.423-.982 2.332-.982.525 0 1 .11 1.424.335.427.223.8.558 1.12 1.005V36.96h.812zM136.066 36.96h.823v2.984c0 .73.038 1.23.116 1.504.118.393.343.702.674.93.33.226.727.34 1.186.34.46 0 .848-.11 1.168-.332.32-.22.54-.512.662-.872.082-.247.124-.77.124-1.57V36.96h.84v3.137c0 .88-.103 1.546-.308 1.992-.206.446-.516.796-.93 1.048-.412.253-.93.38-1.553.38-.624 0-1.144-.127-1.56-.38-.418-.252-.73-.605-.935-1.058-.207-.452-.31-1.133-.31-2.042v-3.08zM145.836 42.06c.2 0 .37.07.51.212.142.14.213.313.213.517 0 .2-.072.37-.213.513-.14.143-.31.214-.51.214s-.37-.07-.512-.214c-.14-.143-.212-.314-.212-.514 0-.205.07-.377.212-.518.14-.142.31-.212.51-.212M155.912 38.287l-.652.405c-.564-.748-1.333-1.122-2.307-1.122-.78 0-1.425.25-1.94.75-.515.502-.77 1.11-.77 1.827 0 .465.117.904.353 1.315.237.41.562.73.975.957.414.225.876.34 1.39.34.938 0 1.705-.375 2.3-1.123l.652.428c-.306.46-.716.818-1.23 1.072-.517.254-1.103.38-1.76.38-1.012 0-1.85-.32-2.516-.963-.666-.643-1-1.424-1-2.345 0-.62.157-1.195.468-1.726.31-.53.74-.945 1.284-1.243.544-.297 1.154-.445 1.828-.445.423 0 .83.064 1.225.193.394.13.728.298 1.003.506.274.208.507.472.7.793M161.96 37.6c-.684 0-1.272.253-1.763.758-.49.506-.738 1.117-.738 1.834 0 .462.112.892.336 1.293.224.4.527.708.908.925.38.217.8.326 1.256.326.456 0 .874-.11 1.256-.326.38-.217.684-.526.908-.925.224-.4.336-.83.336-1.293 0-.717-.247-1.328-.74-1.834-.493-.505-1.08-.758-1.76-.758m.003-.805c.985 0 1.8.357 2.45 1.07.588.65.882 1.42.882 2.31 0 .892-.31 1.673-.933 2.34-.622.67-1.422 1.002-2.4 1.002-.98 0-1.782-.333-2.404-1-.622-.67-.932-1.45-.932-2.343 0-.886.293-1.653.882-2.304.648-.716 1.466-1.075 2.455-1.075M168.255 36.96h.823v1.104c.286-.408.58-.706.882-.893.416-.25.853-.375 1.312-.375.31 0 .604.06.882.182.28.122.507.283.683.485.176.2.33.49.46.866.272-.5.614-.882 1.025-1.142.41-.26.852-.39 1.325-.39.44 0 .83.11 1.17.334.337.223.588.534.752.934.164.4.246.998.246 1.798v3.49h-.84v-3.49c0-.685-.05-1.157-.147-1.413-.098-.258-.266-.465-.502-.62-.236-.158-.518-.236-.846-.236-.398 0-.762.117-1.092.352-.33.236-.572.55-.724.94-.152.392-.228 1.047-.228 1.964v2.503h-.823V40.08c0-.772-.048-1.296-.144-1.572-.095-.277-.262-.498-.5-.664-.24-.167-.524-.25-.853-.25-.38 0-.736.114-1.067.343-.33.23-.576.54-.734.926-.16.388-.238.982-.238 1.78v2.71h-.823V36.96z" fill="#989899" mask="url(#aqb)"/><path d="M5.177 58.323h1.58l.26-1.302h-2.19v-.702h5.486v.703h-2.47l-.3 1.303h2.315v5.218h-.744v-4.514H5.92v4.515h-.743v-5.217zm2.005 1.343h.744c0 1.633-.048 2.652-.145 3.06-.034.206-.082.4-.144.587 1.02.648 1.947 1.285 2.78 1.913l-.537.67c-.78-.64-1.627-1.277-2.543-1.91-.47.847-1.265 1.518-2.387 2.014-.138-.2-.307-.42-.507-.66 1.53-.648 2.394-1.568 2.594-2.76.097-.38.145-1.35.145-2.914zm-3.576-3.678h.723v9.475h-.724v-9.475zm-1.426.35h.723v8.65H2.18v-8.65zm-1.405-.31h.723v3.948c0 2.796-.3 4.763-.9 5.9-.2-.2-.398-.39-.598-.568.517-.992.775-2.61.775-4.856V56.03zM24.523 62.29h4.598v-1.714h-3.627v-.765h3.628v-1.694h-4.288v-.764h4.288v-1.665h.868v1.665h4.29v.764h-4.29v1.695h3.617v.766H29.99l-.002 1.715h4.6v.766h-4.6v2.84h-.867v-2.84h-4.598v-.765zM56.31 64.326l.475-.537c.724.468 1.433.96 2.13 1.477l-.518.62c-.723-.593-1.42-1.112-2.087-1.56zm-1.83-1.25h2.553v-.827H54.48v.826zm0-1.446h2.553v-.817H54.48v.817zm0-1.458h2.553v-.816H54.48v.816zm-1.818-2.304c.482-.593.885-1.34 1.21-2.243l.743.197c-.13.303-.262.59-.392.858h4.7v.702h-5.067c-.228.407-.456.76-.687 1.065-.173-.22-.342-.413-.508-.58zm-.02 5.208h1.095v-3.72h-1.013v-.682h1.013v-.817h.744v.817h2.553v-.826h.744v.826h.992v.682h-.993v3.72h1.19v.682H52.64v-.682zm2.056.733l.527.548c-.827.64-1.58 1.153-2.263 1.54-.138-.22-.303-.435-.496-.642.723-.344 1.467-.827 2.232-1.447zm-5.838-6.45h1.803c-.217-.515-.44-.987-.667-1.414l.63-.31c.25.414.503.89.765 1.426l-.644.3h1.73v.702H50.57c-.007.534-.016 1.037-.026 1.51h1.83c-.042 1.776-.094 3.32-.156 4.628-.048.896-.396 1.347-1.044 1.354-.33.006-.675.004-1.033-.01-.04-.228-.092-.49-.154-.786.386.04.672.062.858.062.406 0 .62-.237.64-.712.062-.986.11-2.268.145-3.844h-1.107c0 2.672-.434 4.5-1.302 5.486-.137-.186-.31-.393-.515-.62.654-.812 1.01-2.183 1.064-4.113.016-.534.04-1.52.067-2.956h-.977v-.703zM73.207 56.546H83.25v.847h-5.02v2.253l.474-.66c1.578.93 2.9 1.765 3.968 2.51l-.61.837c-1.067-.82-2.345-1.685-3.833-2.595v6.067h-.94v-8.412h-4.083v-.847zM102.59 59.294h3.416c-.475-.466-.876-1.024-1.204-1.674h-.955c-.345.613-.763 1.17-1.256 1.674zm-1.192 1.56h5.952v.682h-4.098l-.366.92h3.7c-.042.66-.09 1.27-.145 1.828-.09.91-.59 1.364-1.498 1.364-.565 0-1.205-.006-1.922-.02-.034-.255-.083-.53-.144-.827.723.057 1.357.084 1.9.084.538 0 .834-.234.89-.703.04-.343.072-.698.092-1.063h-3.647v-.672l.357-.91h-1.07v-.68zm-.59-1.054c.9-.59 1.62-1.316 2.166-2.18h-1.576v-.682h1.953c.2-.41.366-.847.497-1.313l.775.186c-.12.394-.262.77-.424 1.128h3.286v.682h-1.932c.606.968 1.357 1.597 2.253 1.89-.187.263-.352.507-.497.735-.46-.245-.878-.545-1.25-.9v.61h-3.637v-.49c-.337.326-.705.628-1.105.904-.138-.18-.306-.37-.506-.57zm-.454-2.924H98.67v1.963h1.684v-1.964zm-2.996 7.688c.172-.035.347-.068.527-.1v-3.992h.66v3.865c.29-.062.586-.127.89-.19v-4.708h-.765v.36h-.66v-3.523h3.005v3.162h-.92v1.838h1.034v.62h-1.034v2.097c.396-.09.8-.186 1.21-.29.013.277.034.528.06.756-.95.2-2.204.514-3.76.94l-.248-.836zM126.19 62.673h4.225v-.765h-4.226v.765zm4.226-2.088h-4.226v.744h4.226v-.745zm-5.064-3.874h2.728c-.124-.247-.262-.5-.413-.754l.723-.3c.21.37.39.72.538 1.055h2.583v.62h-6.158v-.62zm-.248 1.953h1.86c-.19-.3-.4-.6-.63-.898l.61-.383c.282.345.544.686.785 1.024l-.39.257h1.562c.278-.426.54-.857.78-1.29l.744.413c-.234.3-.467.592-.697.877h2.132v.62h-6.758v-.62zm.372 1.323h5.653v3.524h-.714v-.238h-.972v1.116c0 .38.18.57.538.57h.65c.338 0 .53-.174.58-.518.04-.268.068-.586.082-.95.262.116.517.22.765.31-.05.426-.1.75-.156.97-.118.586-.507.88-1.168.88h-.94c-.724 0-1.085-.345-1.085-1.035v-1.343h-.965c-.09.755-.384 1.317-.884 1.685-.42.337-1.156.658-2.21.96-.145-.233-.304-.47-.476-.712 1.075-.227 1.812-.503 2.212-.827.33-.26.53-.627.6-1.106h-.797v.238h-.714v-3.524zm-3.69 3.38c.37-.087.797-.192 1.283-.316v-3.953h-1.18v-.733h1.18V55.78h.753v2.584h1.064v.733h-1.064v3.752c.386-.104.802-.22 1.25-.343.007.297.017.555.03.776-1.06.29-2.113.603-3.16.94l-.156-.857zM154.256 60.317h-2.966v1.768h2.966v-1.768zm0-2.49h-2.966v1.757h2.966v-1.757zm-6.78 4.257h2.956v-1.768h-2.955v1.768zm0-2.5h2.956v-1.757h-2.955v1.757zm-.856-2.533h3.813v-1.32h.857v1.32h3.824v5.81h-3.824v1.208c0 .42.22.63.662.63h2.418c.468 0 .754-.154.857-.464.11-.338.19-.823.238-1.458.2.09.486.197.858.32-.083.552-.176 1.023-.28 1.416-.17.648-.64.97-1.405.97h-2.748c-.972 0-1.457-.474-1.457-1.425V62.86h-2.956v.712h-.857v-6.52zM176.124 60.41l.455-.57c1.018.642 1.79 1.155 2.313 1.54l-.516.652c-.682-.55-1.433-1.092-2.253-1.622zm.785 1.766h-2.657v1.458h2.656v-1.458zm-3.4 2.666v-3.327h4.143v2.78h-3.4v.547h-.743zm.795-5l.558.536c-.806.69-1.56 1.296-2.263 1.82-.206-.283-.368-.486-.485-.61.758-.503 1.488-1.086 2.19-1.747zm-3.027-.828h2.51c-.237-.347-.495-.69-.774-1.033l.63-.422c.33.385.63.744.9 1.075l-.56.38h2.347c.348-.446.67-.918.962-1.414l.785.454c-.327.39-.603.71-.827.96h2.573v5.415c0 .867-.396 1.305-1.188 1.312-.427.006-.91.003-1.447-.01-.055-.4-.107-.69-.155-.87.544.057.992.084 1.344.084.448 0 .67-.248.67-.744v-4.474h-6.994v6.138h-.775v-6.852zm-.755-2.21h4.718c-.13-.245-.29-.518-.48-.817l.796-.362c.206.355.423.748.65 1.178h4.454v.734h-10.137v-.734z" fill="#323333" mask="url(#aqb)"/></g></svg>
<svg width="23" height="24" viewBox="0 0 23 24" id="icon-header-num" y="494"><title>Oval 1 + 1</title><path d="M11.508 23.41c4.018-1.51 11-6.15 11-12.224 0-6.075-4.925-11-11-11-6.076 0-11 4.925-11 11s7.66 10.714 11 12.224z" fill="#E73736" fill-rule="evenodd"/></svg>
<svg width="181" height="66" viewBox="0 0 181 66" id="icon-header1" y="518"><title>logo</title><defs><path id="ata" d="M0 .156h180.66V66H0V.156z"/></defs><g fill="none" fill-rule="evenodd"><path d="M179.11 8.864c-.263-2.092-2.05-3.67-4.16-3.67h-12.31c.163-.59.263-1.203.263-1.843h-2.187c0 1.656-.846 3.116-2.127 3.974v2.468c1.218-.504 2.257-1.35 3.014-2.41h13.347c.99 0 1.83.723 1.98 1.693V26h-.002c0 1.11-.9 2.037-2.006 2.037v2.187c2.312 0 4.193-1.91 4.193-4.223h.002V9l-.008-.136z" fill="#3E3A39"/><mask id="atb" fill="#fff"><use xlink:href="#ata"/></mask><path d="M99.89 17.69h3.647v4.14H99.89v-4.14zm3.647-8.336h-3.645v-3.32h3.645v3.32zm-3.646 2.188h3.647v3.96H99.89v-3.96zm12.657 8.103c2.603-4.88 2.577-9.822 2.577-11.952 0-2.757-2.014-3.718-3.078-3.84l-4.99-.008v2.188h4.787c.234.042 1.093.292 1.093 1.66 0 1.824-.005 5.56-1.597 9.43-1.726-4.48-1.45-8.802-1.446-8.872l-2.183-.143c-.006.118-.183 2.925.558 6.44.388 1.833.958 3.568 1.75 5.155-.85 1.37-1.93 2.71-3.346 3.933v-1.06c0-.412-.334-.746-.745-.746h-.203V6.032h.948V4.59c0-.41-.334-.745-.745-.745h-9.204v2.188h.98V21.83h-.98v2.187h6.814v2.31h1.442c.41 0 .744-.335.744-.746v-1.563h.948v2.31c1.94-1.402 3.42-2.97 4.57-4.59 1.134 1.62 2.565 3.023 4.406 4.102v-2.437c-1.312-1.116-2.315-2.41-3.1-3.758zM82.094 5.385H69.352V3.352h-2.19v2.033H53.677v2.188h13.487v6.803H53.677v2.188h13.486v6.805l-13.486-.002v2.19l13.486-.002v4.415h1.444c.41 0 .745-.332.745-.743v-3.67h13.487v-1.453c0-.38-.287-.688-.654-.735l-12.835-.002.002-6.804h13.487v-1.446c0-.402-.322-.73-.722-.742H69.352V7.574h13.487V6.128c0-.412-.335-.745-.746-.745M146.662 5.44c-.016 0-.026 0-.035-.005l-15.753-.046c.198-.646.308-1.33.308-2.04h-2.187c0 1.656-.846 3.116-2.128 3.974v2.468c1.143-.473 2.12-1.252 2.864-2.22l17.67.052.004-1.458c-.01-.402-.338-.725-.742-.725M144.04 26.002c0 .906-.735 1.65-1.64 1.66h-11.7c-.906-.007-1.645-.753-1.645-1.66v-5.306h6.4v3.807h1.442c.41 0 .744-.333.744-.744v-3.064h6.4v5.306zm-14.985-11.665c0-.916.745-1.66 1.662-1.66h11.662c.916 0 1.66.744 1.66 1.66v4.172h-6.4V14.7h-2.186v3.81h-6.4v-4.173zm17.586 4.172h-.412v-4.172c0-2.123-1.726-3.85-3.85-3.85h-11.66c-2.123 0-3.85 1.727-3.85 3.85v4.17h-1.157v2.188h1.157v5.307c0 2.102 1.712 3.827 3.824 3.847h11.724c2.103-.02 3.814-1.746 3.814-3.848v-5.306h1.157v-1.444c0-.41-.333-.743-.744-.743zM123.692 4.195c-.03 0-.043-.01-.044-.025h-5.327v2.187h6.116V4.94c0-.41-.333-.745-.744-.745M123.692 15.05h-5.37v2.19h6.114v-1.444c0-.41-.333-.745-.744-.745M123.892 27.115h-5.57v2.187h6.115V27.83c0-.343-.23-.627-.545-.715M156.177 4.195c-.027 0-.042-.01-.047-.025h-5.325v2.187h6.116V4.94c0-.41-.332-.745-.743-.745M174.042 10.934h-10.937c.08-.38.136-.766.136-1.168h-2.186c0 1.407-.852 2.617-2.067 3.146v2.303c1.27-.318 2.363-1.075 3.126-2.093h3.674l-.02 4.495h-6.537v2.188h6.528l-.03 6.56h-3.317c-.346 0-.628-.28-.628-.628v-4.03h-2.187v4.03c0 1.553 1.263 2.817 2.816 2.817h8.302c1.553 0 2.816-1.264 2.816-2.817v-4.03h-2.187v4.03c0 .348-.28.63-.628.63h-2.795l.028-6.562h6.596v-1.443c0-.41-.333-.745-.743-.745h-5.842l.02-4.495h6.566v-1.488c0-.324-.208-.598-.498-.7M156.177 15.05h-5.372v2.19h6.116v-1.444c0-.41-.332-.745-.743-.745M156.376 27.115h-5.57v2.187h6.115V27.83c0-.343-.23-.627-.544-.715" fill="#3E3A39" mask="url(#atb)"/><path d="M114.903 27.814c-.038 0-.056-.02-.064-.05H92.924v-6.582h3.28v-1.444c0-.41-.333-.744-.744-.744h-2.535v-4.78h3.28v-1.437c0-.41-.333-.744-.744-.744-.012 0-.023-.003-.034-.006h-2.5V7.572h3.28V6.147c-.002-.006-.003-.01-.003-.018 0-.412-.333-.746-.744-.746h-2.535V3.35h-2.187v2.034h-4.48v2.188h4.48v4.456h-4.48v2.187h4.48V27.63c-.752-.287-1.29-1.01-1.295-1.858v-.013h-.002v-8.516h-2.186V25.77c-.007.91-.748 1.65-1.66 1.65v2.186c1.053 0 2.006-.426 2.702-1.113.77.885 1.89 1.457 3.15 1.457h24.202v-1.394c0-.41-.334-.744-.745-.744" fill="#3E3A39" mask="url(#atb)"/><path d="M46.823 23.284c0 12.774-10.355 23.13-23.13 23.13C10.92 46.413.566 36.057.566 23.283S10.92.154 23.695.154c12.773 0 23.128 10.356 23.128 23.13" fill="#E73836" mask="url(#atb)"/><path d="M30.59 40.397c-1.208 0-2.19-.982-2.19-2.19v-3.878c0-.31.25-.56.56-.56.308 0 .558.25.558.56v3.876c0 .59.48 1.072 1.072 1.072.59 0 1.073-.48 1.073-1.072 0-.31.25-.56.56-.56.308 0 .558.25.558.56 0 1.21-.982 2.19-2.19 2.19M33.473 22.676c-.31 0-.56-.25-.56-.56 0-.705-.573-1.28-1.28-1.28-.704 0-1.278.575-1.278 1.28 0 .31-.25.56-.56.56-.31 0-.56-.25-.56-.56 0-1.32 1.077-2.397 2.4-2.397 1.32 0 2.397 1.075 2.397 2.397 0 .31-.25.56-.56.56M17.625 22.676c-.31 0-.56-.25-.56-.56 0-.705-.573-1.28-1.28-1.28-.705 0-1.28.575-1.28 1.28 0 .31-.25.56-.558.56-.31 0-.56-.25-.56-.56 0-1.32 1.076-2.397 2.4-2.397 1.32 0 2.397 1.075 2.397 2.397 0 .31-.25.56-.56.56M21.938 40.403c-.31 0-.56-.25-.56-.56v-4.566c0-.308.25-.56.56-.56.31 0 .56.252.56.56v4.567c0 .31-.25.56-.56.56M25.448 40.403c-.31 0-.56-.25-.56-.56v-4.566c0-.308.25-.56.56-.56.31 0 .56.252.56.56v4.567c0 .31-.25.56-.56.56M16.852 40.397c-1.177 0-2.134-.958-2.134-2.135 0-.31.25-.56.56-.56.308 0 .558.25.558.56 0 .56.456 1.016 1.016 1.016s1.016-.456 1.016-1.016V34.33c0-.31.25-.56.56-.56.308 0 .56.25.56.56v3.932c0 1.177-.96 2.135-2.136 2.135M23.71 24.396c-1.243 0-2.254 1.01-2.254 2.254 0 1.243 1.01 2.254 2.254 2.254 1.243 0 2.254-1.01 2.254-2.254 0-1.243-1.01-2.254-2.254-2.254m0 5.626c-1.86 0-3.373-1.513-3.373-3.372 0-1.86 1.513-3.372 3.373-3.372 1.86 0 3.372 1.512 3.372 3.372 0 1.86-1.513 3.372-3.372 3.372" fill="#FEFEFE" mask="url(#atb)"/><path d="M29.165 34.85l-.412-1.04c5.275-2.09 8.684-7.108 8.684-12.783 0-7.58-6.165-13.744-13.743-13.744S9.95 13.448 9.95 21.027c0 5.675 3.41 10.692 8.684 12.782l-.412 1.04c-2.738-1.086-5.075-2.945-6.757-5.376-1.723-2.488-2.633-5.41-2.633-8.447 0-8.196 6.667-14.862 14.862-14.862s14.862 6.666 14.862 14.862c0 3.037-.91 5.96-2.633 8.447-1.683 2.43-4.02 4.29-6.758 5.375" fill="#FEFEFE" mask="url(#atb)"/><path d="M53.73 36.96h.845l1.96 4.642 2.04-4.643h.15l2.053 4.642 1.997-4.643h.855l-2.777 6.393H60.7l-2.044-4.578-2.043 4.578h-.153l-2.73-6.394zM65.174 36.96h.846l1.96 4.642 2.04-4.643h.15l2.053 4.642 1.998-4.643h.856L72.3 43.352h-.153L70.1 38.775l-2.04 4.578h-.154l-2.732-6.394zM76.62 36.96h.846l1.96 4.642 2.04-4.643h.15l2.053 4.642 1.996-4.643h.855l-2.776 6.393h-.152l-2.045-4.578-2.043 4.578h-.153l-2.73-6.394zM89.834 42.06c.2 0 .37.07.51.212.142.14.213.313.213.517 0 .2-.07.37-.212.513-.14.143-.31.214-.51.214s-.37-.07-.512-.214c-.14-.143-.212-.314-.212-.514 0-.205.072-.377.213-.518.14-.142.31-.212.51-.212M96.338 34.49v.806c-.302-.13-.56-.194-.776-.194-.16 0-.293.033-.4.097-.105.063-.172.14-.2.223-.026.084-.04.308-.04.672v.864h1.333v.71H94.92l-.004 5.682h-.823V37.67h-.84v-.71h.84v-1c0-.458.042-.785.126-.982.084-.195.227-.352.43-.472.2-.12.444-.18.73-.18.267 0 .585.056.958.165M104.31 39.51c-.11-.44-.27-.79-.48-1.052-.21-.262-.487-.474-.832-.635-.345-.16-.708-.24-1.088-.24-.628 0-1.167.2-1.62.605-.328.294-.577.734-.746 1.322h4.766zm0 1.722l.693.364c-.227.446-.49.807-.788 1.08-.298.275-.633.483-1.006.627-.373.143-.795.214-1.265.214-1.043 0-1.86-.34-2.447-1.026-.588-.68-.882-1.455-.882-2.316 0-.812.25-1.534.747-2.17.63-.806 1.476-1.21 2.535-1.21 1.09 0 1.96.414 2.61 1.24.464.584.7 1.313.707 2.187h-5.753c.015.743.253 1.353.712 1.827.46.475 1.026.712 1.7.712.326 0 .643-.058.95-.17.308-.113.57-.264.786-.45.216-.19.45-.49.7-.908zM108.193 36.96h.823v1.145c.33-.44.693-.767 1.093-.984.4-.217.833-.325 1.303-.325.478 0 .903.12 1.273.364.37.242.643.57.82.98.176.412.264 1.052.264 1.92v3.293h-.823v-3.05c0-.737-.03-1.23-.09-1.475-.097-.423-.28-.74-.55-.955-.27-.214-.623-.32-1.058-.32-.498 0-.944.164-1.338.493-.394.33-.653.737-.778 1.223-.08.316-.118.896-.118 1.738v2.345h-.823V36.96zM120.06 37.588c-.465 0-.898.112-1.297.338-.4.226-.713.537-.94.935-.228.398-.342.828-.342 1.29 0 .702.237 1.28.706 1.74.47.458 1.08.687 1.828.687.756 0 1.364-.227 1.825-.68.46-.456.69-1.053.69-1.794 0-.482-.107-.91-.318-1.29-.212-.377-.51-.676-.9-.896-.387-.22-.804-.33-1.25-.33zm2.428-.63h.822v5.096c0 .897-.078 1.554-.234 1.97-.216.587-.59 1.04-1.122 1.356-.534.317-1.174.476-1.922.476-.55 0-1.04-.078-1.478-.233-.437-.155-.792-.363-1.067-.625-.274-.26-.527-.643-.757-1.146h.892c.244.423.558.737.942.94.384.204.86.306 1.43.306.56 0 1.034-.105 1.42-.314.387-.21.662-.47.827-.787.166-.316.248-.827.248-1.532v-.33c-.31.393-.688.694-1.135.903-.447.21-.922.315-1.424.315-.59 0-1.142-.146-1.66-.438-.517-.292-.917-.684-1.2-1.18-.282-.492-.423-1.035-.423-1.626 0-.592.147-1.144.44-1.655.295-.512.702-.916 1.222-1.214.52-.297 1.066-.445 1.643-.445.478 0 .924.1 1.338.297.415.197.814.523 1.198.978v-1.11zM129.594 37.588c-.457 0-.88.112-1.268.338-.387.224-.695.54-.924.947-.23.407-.343.838-.343 1.292 0 .45.114.88.345 1.29.23.412.54.732.93.96.39.23.807.344 1.253.344.45 0 .877-.114 1.28-.34.403-.228.713-.535.93-.923.217-.388.326-.823.326-1.308 0-.74-.244-1.36-.73-1.857-.488-.496-1.088-.745-1.8-.745zm3.288-.63v8.734h-.81v-3.438c-.346.42-.732.734-1.162.946-.428.21-.897.317-1.407.317-.905 0-1.677-.327-2.318-.984-.64-.656-.96-1.455-.96-2.394 0-.922.323-1.71.97-2.363.645-.655 1.423-.982 2.332-.982.525 0 1 .11 1.424.335.427.223.8.558 1.12 1.005V36.96h.812zM136.066 36.96h.823v2.984c0 .73.038 1.23.116 1.504.118.393.343.702.674.93.33.226.727.34 1.186.34.46 0 .848-.11 1.168-.332.32-.22.54-.512.662-.872.082-.247.124-.77.124-1.57V36.96h.84v3.137c0 .88-.103 1.546-.308 1.992-.206.446-.516.796-.93 1.048-.412.253-.93.38-1.553.38-.624 0-1.144-.127-1.56-.38-.418-.252-.73-.605-.935-1.058-.207-.452-.31-1.133-.31-2.042v-3.08zM145.836 42.06c.2 0 .37.07.51.212.142.14.213.313.213.517 0 .2-.072.37-.213.513-.14.143-.31.214-.51.214s-.37-.07-.512-.214c-.14-.143-.212-.314-.212-.514 0-.205.07-.377.212-.518.14-.142.31-.212.51-.212M155.912 38.287l-.652.405c-.564-.748-1.333-1.122-2.307-1.122-.78 0-1.425.25-1.94.75-.515.502-.77 1.11-.77 1.827 0 .465.117.904.353 1.315.237.41.562.73.975.957.414.225.876.34 1.39.34.938 0 1.705-.375 2.3-1.123l.652.428c-.306.46-.716.818-1.23 1.072-.517.254-1.103.38-1.76.38-1.012 0-1.85-.32-2.516-.963-.666-.643-1-1.424-1-2.345 0-.62.157-1.195.468-1.726.31-.53.74-.945 1.284-1.243.544-.297 1.154-.445 1.828-.445.423 0 .83.064 1.225.193.394.13.728.298 1.003.506.274.208.507.472.7.793M161.96 37.6c-.684 0-1.272.253-1.763.758-.49.506-.738 1.117-.738 1.834 0 .462.112.892.336 1.293.224.4.527.708.908.925.38.217.8.326 1.256.326.456 0 .874-.11 1.256-.326.38-.217.684-.526.908-.925.224-.4.336-.83.336-1.293 0-.717-.247-1.328-.74-1.834-.493-.505-1.08-.758-1.76-.758m.003-.805c.985 0 1.8.357 2.45 1.07.588.65.882 1.42.882 2.31 0 .892-.31 1.673-.933 2.34-.622.67-1.422 1.002-2.4 1.002-.98 0-1.782-.333-2.404-1-.622-.67-.932-1.45-.932-2.343 0-.886.293-1.653.882-2.304.648-.716 1.466-1.075 2.455-1.075M168.255 36.96h.823v1.104c.286-.408.58-.706.882-.893.416-.25.853-.375 1.312-.375.31 0 .604.06.882.182.28.122.507.283.683.485.176.2.33.49.46.866.272-.5.614-.882 1.025-1.142.41-.26.852-.39 1.325-.39.44 0 .83.11 1.17.334.337.223.588.534.752.934.164.4.246.998.246 1.798v3.49h-.84v-3.49c0-.685-.05-1.157-.147-1.413-.098-.258-.266-.465-.502-.62-.236-.158-.518-.236-.846-.236-.398 0-.762.117-1.092.352-.33.236-.572.55-.724.94-.152.392-.228 1.047-.228 1.964v2.503h-.823V40.08c0-.772-.048-1.296-.144-1.572-.095-.277-.262-.498-.5-.664-.24-.167-.524-.25-.853-.25-.38 0-.736.114-1.067.343-.33.23-.576.54-.734.926-.16.388-.238.982-.238 1.78v2.71h-.823V36.96z" fill="#989899" mask="url(#atb)"/><path d="M5.177 58.323h1.58l.26-1.302h-2.19v-.702h5.486v.703h-2.47l-.3 1.303h2.315v5.218h-.744v-4.514H5.92v4.515h-.743v-5.217zm2.005 1.343h.744c0 1.633-.048 2.652-.145 3.06-.034.206-.082.4-.144.587 1.02.648 1.947 1.285 2.78 1.913l-.537.67c-.78-.64-1.627-1.277-2.543-1.91-.47.847-1.265 1.518-2.387 2.014-.138-.2-.307-.42-.507-.66 1.53-.648 2.394-1.568 2.594-2.76.097-.38.145-1.35.145-2.914zm-3.576-3.678h.723v9.475h-.724v-9.475zm-1.426.35h.723v8.65H2.18v-8.65zm-1.405-.31h.723v3.948c0 2.796-.3 4.763-.9 5.9-.2-.2-.398-.39-.598-.568.517-.992.775-2.61.775-4.856V56.03zM24.523 62.29h4.598v-1.714h-3.627v-.765h3.628v-1.694h-4.288v-.764h4.288v-1.665h.868v1.665h4.29v.764h-4.29v1.695h3.617v.766H29.99l-.002 1.715h4.6v.766h-4.6v2.84h-.867v-2.84h-4.598v-.765zM56.31 64.326l.475-.537c.724.468 1.433.96 2.13 1.477l-.518.62c-.723-.593-1.42-1.112-2.087-1.56zm-1.83-1.25h2.553v-.827H54.48v.826zm0-1.446h2.553v-.817H54.48v.817zm0-1.458h2.553v-.816H54.48v.816zm-1.818-2.304c.482-.593.885-1.34 1.21-2.243l.743.197c-.13.303-.262.59-.392.858h4.7v.702h-5.067c-.228.407-.456.76-.687 1.065-.173-.22-.342-.413-.508-.58zm-.02 5.208h1.095v-3.72h-1.013v-.682h1.013v-.817h.744v.817h2.553v-.826h.744v.826h.992v.682h-.993v3.72h1.19v.682H52.64v-.682zm2.056.733l.527.548c-.827.64-1.58 1.153-2.263 1.54-.138-.22-.303-.435-.496-.642.723-.344 1.467-.827 2.232-1.447zm-5.838-6.45h1.803c-.217-.515-.44-.987-.667-1.414l.63-.31c.25.414.503.89.765 1.426l-.644.3h1.73v.702H50.57c-.007.534-.016 1.037-.026 1.51h1.83c-.042 1.776-.094 3.32-.156 4.628-.048.896-.396 1.347-1.044 1.354-.33.006-.675.004-1.033-.01-.04-.228-.092-.49-.154-.786.386.04.672.062.858.062.406 0 .62-.237.64-.712.062-.986.11-2.268.145-3.844h-1.107c0 2.672-.434 4.5-1.302 5.486-.137-.186-.31-.393-.515-.62.654-.812 1.01-2.183 1.064-4.113.016-.534.04-1.52.067-2.956h-.977v-.703zM73.207 56.546H83.25v.847h-5.02v2.253l.474-.66c1.578.93 2.9 1.765 3.968 2.51l-.61.837c-1.067-.82-2.345-1.685-3.833-2.595v6.067h-.94v-8.412h-4.083v-.847zM102.59 59.294h3.416c-.475-.466-.876-1.024-1.204-1.674h-.955c-.345.613-.763 1.17-1.256 1.674zm-1.192 1.56h5.952v.682h-4.098l-.366.92h3.7c-.042.66-.09 1.27-.145 1.828-.09.91-.59 1.364-1.498 1.364-.565 0-1.205-.006-1.922-.02-.034-.255-.083-.53-.144-.827.723.057 1.357.084 1.9.084.538 0 .834-.234.89-.703.04-.343.072-.698.092-1.063h-3.647v-.672l.357-.91h-1.07v-.68zm-.59-1.054c.9-.59 1.62-1.316 2.166-2.18h-1.576v-.682h1.953c.2-.41.366-.847.497-1.313l.775.186c-.12.394-.262.77-.424 1.128h3.286v.682h-1.932c.606.968 1.357 1.597 2.253 1.89-.187.263-.352.507-.497.735-.46-.245-.878-.545-1.25-.9v.61h-3.637v-.49c-.337.326-.705.628-1.105.904-.138-.18-.306-.37-.506-.57zm-.454-2.924H98.67v1.963h1.684v-1.964zm-2.996 7.688c.172-.035.347-.068.527-.1v-3.992h.66v3.865c.29-.062.586-.127.89-.19v-4.708h-.765v.36h-.66v-3.523h3.005v3.162h-.92v1.838h1.034v.62h-1.034v2.097c.396-.09.8-.186 1.21-.29.013.277.034.528.06.756-.95.2-2.204.514-3.76.94l-.248-.836zM126.19 62.673h4.225v-.765h-4.226v.765zm4.226-2.088h-4.226v.744h4.226v-.745zm-5.064-3.874h2.728c-.124-.247-.262-.5-.413-.754l.723-.3c.21.37.39.72.538 1.055h2.583v.62h-6.158v-.62zm-.248 1.953h1.86c-.19-.3-.4-.6-.63-.898l.61-.383c.282.345.544.686.785 1.024l-.39.257h1.562c.278-.426.54-.857.78-1.29l.744.413c-.234.3-.467.592-.697.877h2.132v.62h-6.758v-.62zm.372 1.323h5.653v3.524h-.714v-.238h-.972v1.116c0 .38.18.57.538.57h.65c.338 0 .53-.174.58-.518.04-.268.068-.586.082-.95.262.116.517.22.765.31-.05.426-.1.75-.156.97-.118.586-.507.88-1.168.88h-.94c-.724 0-1.085-.345-1.085-1.035v-1.343h-.965c-.09.755-.384 1.317-.884 1.685-.42.337-1.156.658-2.21.96-.145-.233-.304-.47-.476-.712 1.075-.227 1.812-.503 2.212-.827.33-.26.53-.627.6-1.106h-.797v.238h-.714v-3.524zm-3.69 3.38c.37-.087.797-.192 1.283-.316v-3.953h-1.18v-.733h1.18V55.78h.753v2.584h1.064v.733h-1.064v3.752c.386-.104.802-.22 1.25-.343.007.297.017.555.03.776-1.06.29-2.113.603-3.16.94l-.156-.857zM154.256 60.317h-2.966v1.768h2.966v-1.768zm0-2.49h-2.966v1.757h2.966v-1.757zm-6.78 4.257h2.956v-1.768h-2.955v1.768zm0-2.5h2.956v-1.757h-2.955v1.757zm-.856-2.533h3.813v-1.32h.857v1.32h3.824v5.81h-3.824v1.208c0 .42.22.63.662.63h2.418c.468 0 .754-.154.857-.464.11-.338.19-.823.238-1.458.2.09.486.197.858.32-.083.552-.176 1.023-.28 1.416-.17.648-.64.97-1.405.97h-2.748c-.972 0-1.457-.474-1.457-1.425V62.86h-2.956v.712h-.857v-6.52zM176.124 60.41l.455-.57c1.018.642 1.79 1.155 2.313 1.54l-.516.652c-.682-.55-1.433-1.092-2.253-1.622zm.785 1.766h-2.657v1.458h2.656v-1.458zm-3.4 2.666v-3.327h4.143v2.78h-3.4v.547h-.743zm.795-5l.558.536c-.806.69-1.56 1.296-2.263 1.82-.206-.283-.368-.486-.485-.61.758-.503 1.488-1.086 2.19-1.747zm-3.027-.828h2.51c-.237-.347-.495-.69-.774-1.033l.63-.422c.33.385.63.744.9 1.075l-.56.38h2.347c.348-.446.67-.918.962-1.414l.785.454c-.327.39-.603.71-.827.96h2.573v5.415c0 .867-.396 1.305-1.188 1.312-.427.006-.91.003-1.447-.01-.055-.4-.107-.69-.155-.87.544.057.992.084 1.344.084.448 0 .67-.248.67-.744v-4.474h-6.994v6.138h-.775v-6.852zm-.755-2.21h4.718c-.13-.245-.29-.518-.48-.817l.796-.362c.206.355.423.748.65 1.178h4.454v.734h-10.137v-.734z" fill="#323333" mask="url(#atb)"/></g></svg>
<svg width="20" height="24" viewBox="0 0 20 24" id="icon-header2" y="584"><title>icon-header2</title><g fill="#999" fill-rule="evenodd"><path d="M19.206 4.14c-.284-.214-.668-.287-1.012-.188-.005.002-.506.14-1.268.14-1.668 0-4.09-.626-6.146-3.61C10.572.18 10.218 0 9.833 0c-.384 0-.738.18-.946.48C6.83 3.467 4.41 4.093 2.74 4.093c-.76 0-1.26-.137-1.26-.137C1.14 3.85.753 3.92.463 4.138c-.29.218-.462.566-.462.93v6.417c0 9.257 9.432 12.018 9.53 12.046.1.028.2.04.303.04.102 0 .204-.012.305-.04.095-.026 9.528-2.77 9.528-12.045V5.07c0-.364-.172-.71-.46-.93zm-.492 7.345c0 8.534-8.742 11.095-8.828 11.12-.035.01-.075.008-.103 0-.088-.024-8.83-2.593-8.83-11.12V5.07c0-.066.03-.125.078-.162.037-.026.08-.04.123-.04l.04.002c.107.037.72.182 1.547.182 1.896 0 4.637-.698 6.93-4.024.07-.1.258-.1.327 0 2.293 3.326 5.033 4.024 6.93 4.024.932 0 1.528-.176 1.528-.176.06-.018.127-.006.178.032.05.038.08.1.08.16v6.417z"/><text font-family="Heiti SC" font-size="12" font-weight="bold"><tspan x="3.8" y="16.2">正</tspan></text></g></svg>
<svg width="20" height="24" viewBox="0 0 20 24" id="icon-header3" y="608"><title>icon-header3</title><g transform="translate(0 -1)" fill="#999" fill-rule="evenodd"><path d="M19.206 5.14c-.284-.214-.668-.287-1.012-.188-.005.002-.506.14-1.268.14-1.668 0-4.09-.626-6.146-3.61C10.572 1.18 10.218 1 9.833 1c-.384 0-.738.18-.946.48C6.83 4.467 4.41 5.093 2.74 5.093c-.76 0-1.26-.137-1.26-.137C1.14 4.85.753 4.92.463 5.138c-.29.218-.462.566-.462.93v6.417c0 9.257 9.432 12.018 9.53 12.046.1.028.2.04.303.04.102 0 .204-.012.305-.04.095-.026 9.528-2.77 9.528-12.045V6.07c0-.364-.172-.71-.46-.93zm-.492 7.345c0 8.534-8.742 11.095-8.828 11.12-.035.01-.075.008-.103 0-.088-.024-8.83-2.593-8.83-11.12V6.07c0-.066.03-.125.078-.162.037-.026.08-.04.123-.04l.04.002c.107.037.72.182 1.547.182 1.896 0 4.637-.698 6.93-4.024.07-.1.258-.1.327 0 2.293 3.326 5.033 4.024 6.93 4.024.932 0 1.528-.176 1.528-.176.06-.018.127-.006.178.032.05.038.08.1.08.16v6.417z"/><text font-family="Heiti SC" font-size="12" font-weight="bold"><tspan x="3.8" y="17.2">免</tspan></text></g></svg>
<svg width="20" height="24" viewBox="0 0 20 24" id="icon-header4" y="632"><title>icon-header4</title><g fill="#999" fill-rule="evenodd"><path d="M19.206 4.14c-.284-.214-.668-.287-1.012-.188-.005.002-.506.14-1.268.14-1.668 0-4.09-.626-6.146-3.61C10.572.18 10.218 0 9.833 0c-.384 0-.738.18-.946.48C6.83 3.467 4.41 4.093 2.74 4.093c-.76 0-1.26-.137-1.26-.137C1.14 3.85.753 3.92.463 4.138c-.29.218-.462.566-.462.93v6.417c0 9.257 9.432 12.018 9.53 12.046.1.028.2.04.303.04.102 0 .204-.012.305-.04.095-.026 9.528-2.77 9.528-12.045V5.07c0-.364-.172-.71-.46-.93zm-.492 7.345c0 8.534-8.742 11.095-8.828 11.12-.035.01-.075.008-.103 0-.088-.024-8.83-2.593-8.83-11.12V5.07c0-.066.03-.125.078-.162.037-.026.08-.04.123-.04l.04.002c.107.037.72.182 1.547.182 1.896 0 4.637-.698 6.93-4.024.07-.1.258-.1.327 0 2.293 3.326 5.033 4.024 6.93 4.024.932 0 1.528-.176 1.528-.176.06-.018.127-.006.178.032.05.038.08.1.08.16v6.417z"/><text font-family="Heiti SC" font-size="12" font-weight="bold"><tspan x="3.8" y="16.2">快</tspan></text></g></svg>
<svg width="8" height="13" viewBox="0 0 8 13" id="icon-header6" y="656"><title>Shape</title><path d="M1.293 2.964l4.163 4.163-.013-1.4L1.28 10.05l-.694.72 1.44 1.387.694-.72 4.163-4.323.68-.707-.693-.694L2.707 1.55 2 .843.586 2.257l.707.707z" fill="#CCC" fill-rule="evenodd"/></svg>
<svg width="23" height="24" viewBox="0 0 23 24" id="icon-header8" y="669"><title>Oval 1</title><path d="M11.508 23.41c4.018-1.51 11-6.15 11-12.224 0-6.075-4.925-11-11-11-6.076 0-11 4.925-11 11s7.66 10.714 11 12.224z" fill="#E73736" fill-rule="evenodd"/></svg>
<svg width="15" height="12" viewBox="0 0 15 12" id="icon-makeup" y="693"><title>魅力彩妆</title><g transform="translate(1 1)" stroke-linecap="round" stroke="#FFF" stroke-linejoin="round" fill="none" fill-rule="evenodd"><path d="M.01 7.37S.167-.27 5.79 2.74c0 0 .753-5.117 7.21-.854 0 0-.173 5.264-4.164 7.177C4.846 10.977.01 7.37.01 7.37z"/><path d="M2.6 6.38S4.022 5.1 6.546 4.3c1.144-.362 2.513-.624 4.08-.624 0 0-.874 1.833-3.516 2.7-2.643.87-4.51 0-4.51 0z"/></g></svg>
<svg width="13" height="14" viewBox="0 0 13 14" id="icon-man" y="705"><title>Stroke 105</title><path d="M6.5 7.628c1.445 0 2.723-.912 3.265-2.275L9.3 5.168l-.137.48c.12.035.244.052.37.052.755 0 1.367-.612 1.367-1.367 0-.754-.612-1.366-1.367-1.366H9.5v.5l.495-.07C9.74 1.605 8.262.254 6.5.254s-3.24 1.35-3.495 3.143l.495.07v-.5h-.033c-.755 0-1.367.612-1.367 1.366 0 .755.612 1.367 1.367 1.367.126 0 .25-.017.37-.05L3.7 5.167l-.465.185c.542 1.363 1.82 2.275 3.265 2.275zM3.998 4.564l-.435.123c-.03.008-.062.013-.096.013-.203 0-.367-.164-.367-.367 0-.202.164-.366.367-.366H3.934l.06-.43c.187-1.31 1.253-2.283 2.506-2.283s2.32.974 2.505 2.283l.06.43H9.534c.203 0 .367.164.367.366 0 .203-.164.367-.367.367-.034 0-.067-.005-.096-.013l-.435-.123-.167.42c-.393.99-1.31 1.644-2.335 1.644s-1.942-.654-2.335-1.645l-.167-.42zm-2.92 4.934l-.07.242c.057-.096.2-.27.442-.45.752-.562 1.833-.71 3.354-.152l-.217-.156 1.61 2.004.407.508.385-.525 1.468-2.005-.167.145c.06-.032.19-.088.373-.146.83-.264 1.713-.235 2.54.28.272.17.534.39.783.67l-.127-.334v3.414l.5-.5H.505l.5.51.07-3.506zm-1.082 3.996H12.86V9.39l-.128-.143c-.312-.35-.647-.632-1-.852-1.11-.69-2.287-.73-3.37-.385-.247.08-.432.16-.543.218l-.168.145-1.47 2.004.794-.017-1.61-2.004-.086-.108-.13-.048c-1.837-.676-3.273-.477-4.3.29-.357.268-.586.543-.705.746l-.065.112-.003.13-.07 3.506-.01.51z" fill="#FFF" fill-rule="evenodd"/></svg>
<svg width="15" height="15" viewBox="0 0 15 15" id="icon-mask" y="719"><title>人气面膜</title><g transform="translate(0 -1)" fill="#FFF" fill-rule="evenodd"><path d="M8.862 1.064c-2.545-.34-3.706.457-6.373 3.68-2.125 2.565-2.725 5.804-1.454 7.94 1.503 2.53 5.6 4.205 9.41 2.792 2.767-1.025 4.383-4.58 3.818-8.043-.574-3.52-2.557-5.99-5.402-6.37zm-.132.99c2.35.315 4.038 2.415 4.547 5.54.494 3.027-.904 6.102-3.178 6.945-3.338 1.236-6.938-.235-8.205-2.366C.865 10.44 1.383 7.648 3.26 5.38c2.463-2.976 3.378-3.604 5.47-3.325z"/><path d="M9.275 9.872c1.35.337 2.693-.127 2.955-1.176.26-1.05-.706-2.09-2.057-2.425-1.35-.336-2.693.128-2.954 1.177-.263 1.05.704 2.088 2.055 2.425zm.242-.97c-.88-.22-1.43-.81-1.328-1.213.1-.406.86-.67 1.74-.45.882.22 1.43.81 1.33 1.214-.1.404-.862.667-1.743.448zM5.22 12.597c1.356.338 2.63.126 2.845-.737.216-.863-.81-1.65-2.165-1.987-1.356-.338-2.63-.126-2.846.737-.215.863.81 1.65 2.166 1.987zm.242-.97c-.876-.218-1.464-.67-1.437-.775.026-.105.757-.227 1.633-.01.876.22 1.463.67 1.437.776-.026.106-.757.227-1.633.01zM4.727 8.12c.938 0 1.75-.588 1.75-1.405 0-.816-.812-1.403-1.75-1.403s-1.75.587-1.75 1.403c0 .817.812 1.404 1.75 1.404zm0-1c-.442 0-.75-.223-.75-.405 0-.18.308-.403.75-.403s.75.222.75.403c0 .182-.308.404-.75.404z"/></g></svg>
<svg width="13" height="15" viewBox="0 0 13 15" id="icon-mouth" y="734"><title>口腔护理</title><g stroke-linecap="round" stroke="#FFF" stroke-linejoin="round" fill="none" fill-rule="evenodd"><path d="M1.025 2.383C1.688-.1 4.467.935 4.792 1.08c.734.332 2.466.745 4.235-.253.842-.475 2.95.1 3.144 1.87.213 1.952-.96 4.716-1.604 6.997-.54 1.912-.57 3.418-.812 3.643-.54.503-1.33.075-1.33-.64 0-.712-.48-4.536-1.438-4.85-.41-.133-1.066.65-1.394 1.847-.443 1.614-.24 3.643-1.213 3.8-1.13.185-.88-1.797-1.623-3.8-.11-.303-2.396-4.83-1.732-7.31zM5.35 2.89s2.153 0 3.004-1.655"/></g></svg>
<svg width="12" height="15" viewBox="0 0 12 15" id="icon-sidebar1" y="749"><title>Imported Layers</title><g fill="#FFF" fill-rule="evenodd"><path d="M11.974 5.02c0-2.77-2.65-4.86-6.162-4.86-.207 0-.375.162-.375.362v3.815H.38c-.208 0-.376.162-.376.362 0 3.467 2.014 5.226 5.985 5.226 4.026 0 5.984-1.605 5.984-4.906zM9.265 10.46c-1.287 0-2.334 1.01-2.334 2.25s1.048 2.25 2.335 2.25 2.334-1.01 2.334-2.25-1.048-2.25-2.335-2.25zM2.81 10.46c-1.287 0-2.334 1.01-2.334 2.25s1.047 2.25 2.334 2.25c1.287 0 2.334-1.01 2.334-2.25s-1.047-2.25-2.334-2.25z"/></g></svg>
<svg width="16" height="10" viewBox="0 0 16 10" id="icon-sidebar2" y="764"><title>Page 1</title><path d="M.837 3.812c.608-.434 1.364-.975 2.017-1.66L3 2c.8-.844 1.897-2 2.742-2 .084 0 .312.114.495.206.404.202.96.48 1.623.494C8.508.686 9.062.408 9.467.206 9.65.114 9.877 0 9.962 0c.846 0 1.944 1.157 2.745 2l.143.152c.66.692 1.43 1.235 2.05 1.672.225.157.488.343.702.512-.475-.035-1.054-.14-1.657-.25-.86-.16-1.752-.323-2.535-.323-.37 0-.937.133-1.594.288-.687.162-1.467.345-1.963.347-.498-.002-1.277-.185-1.965-.346-.657-.154-1.224-.287-1.594-.287-.782 0-1.675.164-2.538.32-.588.11-1.154.212-1.623.25.215-.172.48-.36.704-.52zm12.49 3.456c-.592.78-2.066 2.092-5.268 2.13-.016 0-.03 0-.045.004l-.13-.002-.123.002c-.014-.003-.03-.004-.044-.004-3.48-.043-4.978-1.782-5.243-2.13C1.4 5.856.692 5.328.243 5.024c.495-.044 1.057-.146 1.64-.252.83-.153 1.692-.31 2.41-.31.29 0 .873.136 1.436.27.758.177 1.543.36 2.123.363.578-.002 1.363-.186 2.123-.365.563-.132 1.145-.268 1.434-.268.72 0 1.578.157 2.41.31.63.116 1.24.226 1.764.262-.46.314-1.2.847-2.256 2.234z" fill="#FFF" fill-rule="evenodd"/></svg>
<svg width="13" height="15" viewBox="0 0 13 15" id="icon-sidebar3" y="774"><title>Imported Layers</title><path d="M12.797 1.19l-.144-.885-.47.767c-.918 1.492-2.89 2.416-4.98 3.393-.864.405-1.758.827-2.602 1.297-1.88.992-3.445 3.13-2.44 5.47.008.018.02.037.027.056-1.015.473-1.763 1.372-2.17 2.62-.057.175.04.36.214.417.035.01.07.016.104.016.14 0 .272-.088.318-.228.362-1.108.993-1.864 1.875-2.252.634.85 1.782 1.574 3.298 1.574 1.072 0 2.734-.394 4.57-2.208l.017-.032c2.937-3.41 2.755-7.73 2.385-10.004z" fill="#FFF" fill-rule="evenodd"/></svg>
<svg width="13" height="11" viewBox="0 0 13 11" id="icon-sidebar4" y="789"><title>Imported Layers</title><path d="M3.39 4.173l2.24 5.935L.153 4.173H3.39zM7.55.673l1.516 2.834H4L5.246.673h2.302zm1.44 3.5l-2.456 6.454-2.428-6.454h4.884zm.72 0H12.8l-5.34 5.884 2.248-5.884zm3.056-.666H9.827L8.31.673h1.127l3.327 2.834zM3.066.673H4.51L3.26 3.507H.11L3.066.673z" fill="#FFF" fill-rule="evenodd"/></svg>
<svg width="30" height="30" viewBox="0 0 30 30" id="icon-trash" y="800"><title>Rectangle 44 + Page 1</title><defs><path id="bha" d="M0 .29h15.68V16H0V.29z"/></defs><g fill="none" fill-rule="evenodd"><path opacity=".6" fill="#333" d="M0 0h30v30H0z"/><g transform="translate(7 7)"><mask id="bhb" fill="#fff"><use xlink:href="#bha"/></mask><path d="M12.66 15.333H3.02L2.113 2.88H13.57l-.91 12.453zM6.52.957h2.643L9.6 2.113H6.082L6.52.957zm8.828 1.257H10.35L9.706.504C9.655.377 9.532.29 9.393.29H6.288c-.14 0-.263.086-.312.215l-.646 1.71H.334c-.185 0-.334.148-.334.332 0 .184.15.334.334.334h1.11l.934 12.81c.013.175.158.31.333.31h10.26c.175 0 .32-.135.333-.31l.934-12.81h1.11c.185 0 .335-.15.335-.333 0-.184-.15-.333-.334-.333z" fill="#FFF" mask="url(#bhb)"/><path d="M7.667 14c.184 0 .333-.15.333-.338V4.338C8 4.15 7.85 4 7.667 4c-.185 0-.334.15-.334.338v9.324c0 .187.15.338.334.338M10.336 14h.023c.186 0 .344-.138.356-.317l.617-9.323c.012-.187-.138-.347-.335-.36-.198-.013-.368.13-.38.317L10 13.64c-.012.187.138.347.336.36M5.64 14h.024c.197-.012.347-.173.335-.36L5.38 4.318c-.012-.186-.177-.33-.38-.316-.197.012-.347.173-.335.36l.617 9.323c.012.18.17.317.357.317" fill="#FFF"/></g></g></svg>
<svg width="14" height="15" viewBox="0 0 14 15" id="icon-women" y="830"><title>女性呵护</title><g transform="translate(-1)" stroke-linecap="round" stroke="#FFF" stroke-linejoin="round" fill="none" fill-rule="evenodd"><path d="M2.31 9.3c.467-1.04 1.765-3.14 1.765-3.14s2.254.365 3.425.365c1.163 0 3.773-.168 3.773-.168S12.416 8.32 12.818 9.3c.507 1.234 1.315 3.7 1.315 3.7s-3.243 1.684-6.765 1.684c-3.523 0-6.433-1.752-6.433-1.752S1.752 10.54 2.31 9.3zM11.067 1.16s-1.87 2.668-.157 5.65M4.18.947s1.89 2.77.174 5.752"/></g></svg>
</svg>