<?xml version="1.0" encoding="UTF-8" standalone="no"?>
<svg width="162px" height="162px" viewBox="0 0 162 162" version="1.1" xmlns="http://www.w3.org/2000/svg" xmlns:xlink="http://www.w3.org/1999/xlink">
    <!-- Generator: Sketch 3.6.1 (26313) - http://www.bohemiancoding.com/sketch -->
    <title>Group 14</title>
    <desc>Created with Sketch.</desc>
    <defs></defs>
    <g id="Page-3" stroke="none" stroke-width="1" fill="none" fill-rule="evenodd">
        <g id="Group-14" transform="translate(1.000000, 1.000000)">
            <path d="M80,155 C121.421356,155 155,121.421356 155,80 C155,38.5786438 121.421356,5 80,5 C38.5786438,5 5,38.5786438 5,80 C5,121.421356 38.5786438,155 80,155 Z" id="Oval-5-Copy-3" fill="#F9F9F9"></path>
            <path d="M80,160 C124.18278,160 160,124.18278 160,80 C160,35.81722 124.18278,0 80,0 C35.81722,0 0,35.81722 0,80 C0,124.18278 35.81722,160 80,160 Z" id="Oval-5-Copy-4" stroke="#E27A79"></path>
            <g id="Group-15-Copy" transform="translate(35.000000, 45.000000)" fill="#E27A79">
                <path d="M84.183,0.536 L5.818,0.536 C2.61,0.536 0,3.142 0,6.346 L0,59.234 C0,62.437 2.61,65.047 5.818,65.047 L84.182,65.047 C87.389,65.047 89.999,62.438 89.999,59.234 L89.999,6.346 C90,3.142 87.39,0.536 84.183,0.536 L84.183,0.536 Z M86.308,49.631 L3.693,49.631 L3.693,4.225 L86.307,4.225 L86.307,49.631 L86.308,49.631 Z" id="Shape"></path>
                <path d="M53.172,66.482 L36.828,66.482 C36.828,74.893 33.657,75.136 25.047,75.136 L25.047,78.476 L45.001,78.476 L64.957,78.476 L64.957,75.136 C56.348,75.136 53.172,74.893 53.172,66.482 L53.172,66.482 Z" id="Shape"></path>
                <g id="Group-6" transform="translate(26.000000, 9.000000)">
                    <path d="M15.501791,28.3882525 L10.3346188,28.3882525 L3.06594708,28.3882525 C1.37297133,28.3882525 0,27.0288018 0,25.3508123 L1.43316264,6.78649713 L4.24234427,6.78649713 L5.34940716,6.78649713 L5.34940716,5.76596553 C5.36921696,3.0583865 7.59705723,0.861828101 10.3346188,0.861828101 C13.0721804,0.861828101 15.3000207,3.0583865 15.3198305,5.76596553 L15.3198305,6.78649713 L16.4268934,6.78649713 L18.354539,6.78649713 L19.236075,6.78649713 L19.4725595,9.84814592 L16.9330848,9.84814592 L15.501791,28.3882525 Z M5.96300293,10.5377559 C5.55156868,10.5377559 5.21784979,10.2071399 5.21784979,9.79953113 C5.21784979,9.39192235 5.55156868,9.06130635 5.96300293,9.06130635 C6.37443718,9.06130635 6.70815608,9.39192235 6.70815608,9.79953113 C6.70815608,10.2071399 6.37443718,10.5377559 5.96300293,10.5377559 Z M6.70866402,6.83331953 L6.70866402,5.81278793 L6.71018785,5.81278793 C6.71018785,3.90155567 8.27439991,2.35264233 10.2028075,2.35264233 C12.131977,2.35264233 13.6954271,3.90155567 13.6954271,5.81278793 L13.6969509,5.81278793 L13.6969509,6.83331953 L10.2035694,6.83331953 L6.70866402,6.83331953 Z M14.1624812,10.5377559 C13.7510469,10.5377559 13.417328,10.2071399 13.417328,9.79953113 C13.417328,9.39192235 13.7510469,9.06130635 14.1624812,9.06130635 C14.5739154,9.06130635 14.9076343,9.39192235 14.9076343,9.79953113 C14.9076343,10.2071399 14.5739154,10.5377559 14.1624812,10.5377559 Z" id="Path-Copy-2"></path>
                    <path d="M37.1772693,10.7561627 L36.2145979,10.7561627 L34.1095343,10.7561627 L32.9005788,10.7561627 L32.9005788,9.64170278 C32.8789458,6.68492181 30.4460581,4.28619512 27.456535,4.28619512 C24.4670119,4.28619512 22.0341242,6.68492181 22.0124911,9.64170278 L22.0124911,10.7561627 L20.8035356,10.7561627 L17.7358007,10.7561627 L16.1707317,31.0291126 C16.1707317,32.861542 17.6700695,34.3461147 19.5188644,34.3461147 L27.456535,34.3461147 L35.3942055,34.3461147 C37.2438325,34.3461147 38.7431703,32.8607177 38.7431703,31.0291126 L37.1772693,10.7561627 Z M22.6825614,14.8526823 C22.2332593,14.8526823 21.8688254,14.4916369 21.8688254,14.0465123 C21.8688254,13.6013878 22.2332593,13.2403423 22.6825614,13.2403423 C23.1318635,13.2403423 23.4962975,13.6013878 23.4962975,14.0465123 C23.4962975,14.4916369 23.1318635,14.8526823 22.6825614,14.8526823 Z M23.4968522,10.8072946 L23.4968522,9.69283465 L23.4985162,9.69283465 C23.4985162,7.60569514 25.2066963,5.91422189 27.3125919,5.91422189 C29.4193196,5.91422189 31.1266676,7.60569514 31.1266676,9.69283465 L31.1283316,9.69283465 L31.1283316,10.8072946 L27.3134239,10.8072946 L23.4968522,10.8072946 Z M31.6367087,14.8526823 C31.1874065,14.8526823 30.8229726,14.4916369 30.8229726,14.0465123 C30.8229726,13.6013878 31.1874065,13.2403423 31.6367087,13.2403423 C32.0860108,13.2403423 32.4504447,13.6013878 32.4504447,14.0465123 C32.4504447,14.4916369 32.0860108,14.8526823 31.6367087,14.8526823 Z" id="Path-Copy-3"></path>
                </g>
                <path d="M22.4320995,27 L7.56790129,27 L6.4,27 L6.4,29.2 L7.56790129,29.2 L22.4320995,29.2 L23.6000008,29.2 L23.6000008,27 L22.4320995,27 L22.4320995,27 Z" id="Shape"></path>
                <path d="M82.4320995,27 L67.5679013,27 L66.4,27 L66.4,29.2 L67.5679013,29.2 L82.4320995,29.2 L83.6000008,29.2 L83.6000008,27 L82.4320995,27 L82.4320995,27 Z" id="Shape"></path>
            </g>
        </g>
    </g>
</svg>