<?xml version="1.0" encoding="UTF-8" standalone="no"?>
<svg width="162px" height="162px" viewBox="0 0 162 162" version="1.1" xmlns="http://www.w3.org/2000/svg" xmlns:xlink="http://www.w3.org/1999/xlink">
    <!-- Generator: Sketch 3.6.1 (26313) - http://www.bohemiancoding.com/sketch -->
    <title>Group 9 Copy</title>
    <desc>Created with Sketch.</desc>
    <defs></defs>
    <g id="Page-3" stroke="none" stroke-width="1" fill="none" fill-rule="evenodd">
        <g id="Group-9-Copy" transform="translate(1.000000, 1.000000)">
            <circle id="Oval-5-Copy-2" fill="#F9F9F9" cx="80" cy="80" r="75"></circle>
            <path d="M80,160 C124.18278,160 160,124.18278 160,80 C160,35.81722 124.18278,0 80,0 C35.81722,0 0,35.81722 0,80 C0,124.18278 35.81722,160 80,160 Z" id="Oval-5-Copy-6" stroke="#E27A79"></path>
            <path d="M119.183,45.536 L40.818,45.536 C37.61,45.536 35,48.142 35,51.346 L35,104.234 C35,107.437 37.61,110.047 40.818,110.047 L119.182,110.047 C122.389,110.047 124.999,107.438 124.999,104.234 L124.999,51.346 C125,48.142 122.39,45.536 119.183,45.536 L119.183,45.536 Z M121.308,94.631 L38.693,94.631 L38.693,49.225 L121.307,49.225 L121.307,94.631 L121.308,94.631 Z" id="Shape" fill="#E27A79"></path>
            <path d="M88.172,111.482 L71.828,111.482 C71.828,119.893 68.657,120.136 60.047,120.136 L60.047,123.476 L80.001,123.476 L99.957,123.476 L99.957,120.136 C91.348,120.136 88.172,119.893 88.172,111.482 L88.172,111.482 Z" id="Shape" fill="#E27A79"></path>
            <path d="M103.191668,63.5554233 L93.7364051,70.5459496 C93.7364051,70.5459496 89.8506156,70.5496339 84.7358788,70.5438444 L93.4053525,55.6580549 L89.549563,55.6580549 L71.6106156,70.534897 C65.5721946,70.534897 60.6221946,70.5385812 60.4727209,70.5685812 C59.8832472,70.6875286 59.1585103,71.4370023 59.1585103,71.4370023 C57.1169314,71.9301602 54.5427209,72.8412128 54.5427209,74.6917391 C54.5427209,77.0170023 57.387984,78.8159496 62.5174577,78.8159496 L63.1774577,78.8159496 L73.8106156,78.854897 L90.2953525,85.6580549 L94.1511419,85.6580549 L85.9864051,78.7885812 L99.0027209,78.5659496 L107.255879,63.6385812 L103.191668,63.5554233 Z" id="Shape-Copy-4" fill="#E27A79" transform="translate(80.899300, 70.658055) scale(-1, 1) rotate(8.000000) translate(-80.899300, -70.658055) "></path>
            <path d="M117.531193,86.9022751 C106.006846,84.7267324 94.2515128,83.5561808 82.3575333,83.4195362 L82.3322602,85.619391 C94.0976058,85.7545578 105.724843,86.9123541 117.12309,89.0640918 L117.531193,86.9022751 L117.531193,86.9022751 Z M68.0057309,83.7578126 C59.2938323,84.2703129 50.6726544,85.340866 42.1798932,86.9570354 L42.5911717,89.1182504 C50.9908586,87.5197929 59.5178149,86.4609401 68.1349283,85.9540157 L68.0057309,83.7578126 L68.0057309,83.7578126 Z" id="Shape" fill="#E27A79"></path>
        </g>
    </g>
</svg>