<?xml version="1.0" encoding="UTF-8" standalone="no"?>
<svg width="162px" height="162px" viewBox="0 0 162 162" version="1.1" xmlns="http://www.w3.org/2000/svg" xmlns:xlink="http://www.w3.org/1999/xlink">
    <!-- Generator: Sketch 3.6.1 (26313) - http://www.bohemiancoding.com/sketch -->
    <title>Group 13</title>
    <desc>Created with Sketch.</desc>
    <defs></defs>
    <g id="Page-3" stroke="none" stroke-width="1" fill="none" fill-rule="evenodd">
        <g id="Group-13" transform="translate(1.000000, 1.000000)">
            <circle id="Oval-5-Copy" fill="#EBEBEB" cx="80" cy="80" r="75"></circle>
            <path d="M80,160 C124.18278,160 160,124.18278 160,80 C160,35.81722 124.18278,0 80,0 C35.81722,0 0,35.81722 0,80 C0,124.18278 35.81722,160 80,160 Z" id="Oval-5-Copy-5" stroke="#EAEAEA"></path>
            <g id="Group-16-Copy" transform="translate(35.000000, 45.000000)" fill="#5C5E5F">
                <path d="M84.183,0.536 L5.818,0.536 C2.61,0.536 0,3.142 0,6.346 L0,59.234 C0,62.437 2.61,65.047 5.818,65.047 L84.182,65.047 C87.389,65.047 89.999,62.438 89.999,59.234 L89.999,6.346 C90,3.142 87.39,0.536 84.183,0.536 L84.183,0.536 Z M86.308,49.631 L3.693,49.631 L3.693,4.225 L86.307,4.225 L86.307,49.631 L86.308,49.631 Z" id="Shape"></path>
                <path d="M53.172,66.482 L36.828,66.482 C36.828,74.893 33.657,75.136 25.047,75.136 L25.047,78.476 L45.001,78.476 L64.957,78.476 L64.957,75.136 C56.348,75.136 53.172,74.893 53.172,66.482 L53.172,66.482 Z" id="Shape"></path>
                <path d="M68.1916682,18.5554233 L58.7364051,25.5459496 C58.7364051,25.5459496 54.8506156,25.5496339 49.7358788,25.5438444 L58.4053525,10.6580549 L54.549563,10.6580549 L36.6106156,25.534897 C30.5721946,25.534897 25.6221946,25.5385812 25.4727209,25.5685812 C24.8832472,25.6875286 24.1585103,26.4370023 24.1585103,26.4370023 C22.1169314,26.9301602 19.5427209,27.8412128 19.5427209,29.6917391 C19.5427209,32.0170023 22.387984,33.8159496 27.5174577,33.8159496 L28.1774577,33.8159496 L38.8106156,33.854897 L55.2953525,40.6580549 L59.1511419,40.6580549 L50.9864051,33.7885812 L64.0027209,33.5659496 L72.2558788,18.6385812 L68.1916682,18.5554233 Z" id="Shape-Copy-4" transform="translate(45.899300, 25.658055) scale(-1, 1) rotate(8.000000) translate(-45.899300, -25.658055) "></path>
                <path d="M82.5311929,41.9022751 C71.0068458,39.7267324 59.2515128,38.5561808 47.3575333,38.4195362 L47.3322602,40.619391 C59.0976058,40.7545578 70.7248425,41.9123541 82.1230896,44.0640918 L82.5311929,41.9022751 L82.5311929,41.9022751 Z M33.0057309,38.7578126 C24.2938323,39.2703129 15.6726544,40.340866 7.17989324,41.9570354 L7.59117168,44.1182504 C15.9908586,42.5197929 24.5178149,41.4609401 33.1349283,40.9540157 L33.0057309,38.7578126 L33.0057309,38.7578126 Z" id="Shape"></path>
            </g>
        </g>
    </g>
</svg>