<?xml version="1.0" encoding="UTF-8" standalone="no"?>
<svg width="162px" height="162px" viewBox="0 0 162 162" version="1.1" xmlns="http://www.w3.org/2000/svg" xmlns:xlink="http://www.w3.org/1999/xlink">
    <!-- Generator: Sketch 3.6.1 (26313) - http://www.bohemiancoding.com/sketch -->
    <title>Group 19</title>
    <desc>Created with Sketch.</desc>
    <defs></defs>
    <g id="Page-3" stroke="none" stroke-width="1" fill="none" fill-rule="evenodd">
        <g id="Group-19" transform="translate(1.000000, 1.000000)">
            <circle id="Oval-5-Copy" fill="#F9F9F9" cx="80" cy="80" r="75"></circle>
            <path d="M80,160 C124.18278,160 160,124.18278 160,80 C160,35.81722 124.18278,0 80,0 C35.81722,0 0,35.81722 0,80 C0,124.18278 35.81722,160 80,160 Z" id="Oval-5-Copy-5" stroke="#E27A79"></path>
            <g id="Group-17-Copy" transform="translate(35.000000, 45.000000)" fill="#E27A79">
                <path d="M44.6585376,13.7294038 L83.4303762,24.3152592 L84,22.2456954 L44.6523008,11.506 L6,22.2477743 L6.57586055,24.3142197 L44.6585376,13.7294038 Z" id="Shape"></path>
                <path d="M58.3216,38.6751028 L67.8224829,42.9553997 L77.3216,38.6751023 L77.3216,27.7033087 L67.8224829,23.4265429 L58.3216,27.7033087 L58.3216,38.6751028 Z M67.8216,30.6513105 L61.2810796,27.7033087 L67.8216,24.7588384 L74.3647691,27.7033087 L67.8216,30.6513105 L67.8216,30.6513105 Z" id="Shape"></path>
                <path d="M35.3216,38.75456 L44.8224829,43.0348569 L54.3216,38.7545595 L54.3216,27.7827658 L44.8224829,23.506 L35.3216,27.7827658 L35.3216,38.75456 Z M44.8216,30.7307677 L38.2810796,27.7827658 L44.8216,24.8382955 L51.3647691,27.7827658 L44.8216,30.7307677 L44.8216,30.7307677 Z" id="Shape"></path>
                <path d="M13.3216,38.6751028 L22.8224829,42.9553997 L32.3216,38.6751023 L32.3216,27.7033087 L22.8224829,23.4265429 L13.3216,27.7033087 L13.3216,38.6751028 Z M22.8216,30.6513105 L16.2810796,27.7033087 L22.8216,24.7588384 L29.3647691,27.7033087 L22.8216,30.6513105 L22.8216,30.6513105 Z" id="Shape"></path>
                <path d="M84.183,0.506 L5.818,0.506 C2.61,0.506 0,3.112 0,6.316 L0,59.204 C0,62.407 2.61,65.017 5.818,65.017 L84.182,65.017 C87.389,65.017 89.999,62.408 89.999,59.204 L89.999,6.316 C90,3.112 87.39,0.506 84.183,0.506 L84.183,0.506 Z M86.308,49.601 L3.693,49.601 L3.693,4.195 L86.307,4.195 L86.307,49.601 L86.308,49.601 Z" id="Shape-Copy-7"></path>
                <path d="M53.125,66.506 L36.781,66.506 C36.781,74.917 33.61,75.16 25,75.16 L25,78.5 L44.954,78.5 L64.91,78.5 L64.91,75.16 C56.301,75.16 53.125,74.917 53.125,66.506 L53.125,66.506 Z" id="Shape-Copy-8"></path>
            </g>
        </g>
    </g>
</svg>