<svg xmlns="http://www.w3.org/2000/svg" xmlns:xlink="http://www.w3.org/1999/xlink" preserveAspectRatio="xMidYMid" width="58" height="58" viewBox="0 0 58 58">
  <defs>
    <style>
      .cls-1 {
        fill: #fceded;
      }

      .cls-2 {
        fill: #e60012;
        fill-rule: evenodd;
      }
    </style>
  </defs>
  <g>
    <circle cx="29" cy="29" r="29" class="cls-1"/>
    <path d="M44.355,43.000 L20.020,43.000 C19.664,43.000 19.375,42.715 19.375,42.362 L19.375,35.273 C19.375,34.920 19.664,34.635 20.020,34.635 C20.376,34.635 20.665,34.920 20.665,35.273 L20.665,37.868 C22.682,38.150 24.279,39.730 24.564,41.725 L39.878,41.725 C40.154,39.663 41.737,38.041 43.711,37.840 L43.711,32.363 C42.204,32.207 40.862,31.222 40.222,29.748 C40.081,29.425 40.232,29.049 40.560,28.910 C40.885,28.772 41.265,28.920 41.407,29.245 C41.842,30.246 42.719,30.935 43.711,31.087 L43.711,28.488 L43.300,28.488 C42.944,28.488 42.655,28.203 42.655,27.851 C42.655,27.498 42.944,27.213 43.300,27.213 L44.355,27.213 C44.711,27.213 45.000,27.498 45.000,27.851 L45.000,42.362 C45.000,42.715 44.711,43.000 44.355,43.000 ZM20.665,39.158 L20.665,41.725 L23.260,41.725 C23.001,40.433 21.971,39.414 20.665,39.158 ZM43.711,39.139 C42.444,39.331 41.427,40.372 41.180,41.725 L43.711,41.725 L43.711,39.139 ZM28.544,34.253 C28.544,33.985 28.764,33.768 29.034,33.768 L29.623,33.768 C30.091,32.222 31.272,31.230 32.661,31.230 C33.712,31.230 34.491,31.624 35.185,32.508 C35.274,32.613 35.325,32.747 35.325,32.879 C35.325,33.175 35.071,33.426 34.771,33.426 C34.540,33.426 34.396,33.299 34.330,33.223 C33.818,32.552 33.343,32.293 32.629,32.293 C31.840,32.293 31.163,32.853 30.826,33.768 L33.043,33.768 C33.314,33.768 33.543,33.990 33.543,34.253 C33.543,34.516 33.314,34.738 33.043,34.738 L30.602,34.738 C30.590,34.885 30.584,35.031 30.584,35.176 C30.584,35.307 30.584,35.433 30.591,35.551 L33.043,35.551 C33.319,35.551 33.543,35.774 33.543,36.046 C33.543,36.309 33.314,36.531 33.043,36.531 L30.790,36.531 C31.131,37.505 31.850,38.079 32.746,38.079 C33.377,38.079 33.880,37.779 34.376,37.106 C34.482,36.967 34.629,36.894 34.803,36.894 C35.107,36.894 35.346,37.125 35.346,37.420 C35.346,37.522 35.308,37.629 35.234,37.740 C34.531,38.698 33.731,39.142 32.714,39.142 C31.207,39.142 30.018,38.146 29.587,36.531 L29.034,36.531 C28.764,36.531 28.544,36.314 28.544,36.046 C28.544,35.774 28.764,35.551 29.034,35.551 L29.435,35.551 C29.429,35.433 29.424,35.317 29.424,35.197 C29.424,35.041 29.430,34.888 29.441,34.738 L29.034,34.738 C28.764,34.738 28.544,34.520 28.544,34.253 ZM41.348,27.187 L18.013,34.014 C17.952,34.032 17.890,34.041 17.830,34.041 C17.551,34.041 17.295,33.861 17.212,33.584 L16.091,29.839 C16.091,29.839 16.091,29.839 16.091,29.839 C16.091,29.839 16.091,29.839 16.091,29.838 L13.048,19.670 C13.000,19.507 13.019,19.333 13.100,19.184 C13.182,19.035 13.320,18.925 13.484,18.877 L36.819,12.049 C36.982,12.000 37.159,12.019 37.310,12.100 C37.460,12.181 37.572,12.317 37.620,12.479 L41.783,26.394 C41.832,26.556 41.813,26.731 41.732,26.880 C41.650,27.029 41.512,27.139 41.348,27.187 ZM18.265,32.611 L20.754,31.883 C20.135,30.717 18.854,30.029 17.529,30.150 L18.265,32.611 ZM14.468,19.919 L15.205,22.382 C15.780,22.084 16.254,21.626 16.571,21.049 C16.888,20.472 17.020,19.829 16.959,19.190 L14.468,19.919 ZM36.566,13.452 L34.128,14.165 C34.421,14.769 34.878,15.257 35.458,15.568 C36.028,15.874 36.664,15.964 37.285,15.855 L36.566,13.452 ZM37.653,17.085 C37.370,17.145 37.085,17.186 36.801,17.186 C36.127,17.186 35.458,17.019 34.843,16.689 C33.975,16.223 33.287,15.453 32.883,14.530 L18.208,18.824 C18.355,19.794 18.186,20.781 17.704,21.658 C17.222,22.535 16.477,23.211 15.574,23.617 L17.159,28.913 C19.174,28.616 21.159,29.683 22.005,31.517 L36.419,27.299 C36.082,25.159 37.249,23.032 39.209,22.287 L37.653,17.085 ZM39.580,23.526 C38.290,24.069 37.515,25.471 37.674,26.932 L40.364,26.145 L39.580,23.526 ZM29.056,26.549 L29.228,27.123 C29.305,27.379 29.150,27.661 28.890,27.738 C28.846,27.751 28.801,27.757 28.755,27.757 C28.534,27.757 28.329,27.609 28.267,27.404 L28.089,26.808 C27.283,26.941 26.502,26.850 25.669,26.523 C25.483,26.458 25.359,26.331 25.304,26.148 C25.219,25.865 25.388,25.565 25.681,25.479 C25.802,25.442 25.936,25.450 26.047,25.497 C26.694,25.780 27.240,25.877 27.824,25.810 L27.157,23.582 C25.540,23.651 24.692,23.215 24.368,22.135 C24.046,21.056 24.675,19.994 25.905,19.507 L25.854,19.338 C25.818,19.216 25.834,19.080 25.898,18.962 C25.962,18.846 26.069,18.758 26.192,18.722 C26.443,18.652 26.740,18.809 26.815,19.056 L26.873,19.253 C27.496,19.162 28.062,19.212 28.720,19.423 C28.865,19.474 29.058,19.567 29.128,19.801 C29.171,19.946 29.152,20.095 29.076,20.222 C29.003,20.343 28.884,20.432 28.741,20.475 C28.661,20.498 28.524,20.515 28.393,20.466 C27.944,20.309 27.539,20.242 27.143,20.266 L27.795,22.444 C29.411,22.361 30.291,22.805 30.611,23.874 C30.941,24.974 30.318,26.034 29.056,26.549 ZM26.229,20.481 C25.605,20.752 25.292,21.253 25.445,21.764 C25.584,22.227 25.847,22.480 26.829,22.486 L26.229,20.481 ZM29.534,24.245 C29.399,23.792 29.127,23.530 28.138,23.530 C28.132,23.530 28.126,23.530 28.119,23.530 L28.735,25.586 C29.394,25.298 29.698,24.795 29.534,24.245 Z" class="cls-2"/>
  </g>
</svg>
