<svg xmlns="http://www.w3.org/2000/svg" xmlns:xlink="http://www.w3.org/1999/xlink" preserveAspectRatio="xMidYMid" width="58" height="58" viewBox="0 0 58 58">
  <defs>
    <style>
      .cls-1 {
        fill: #fceded;
      }

      .cls-2 {
        fill: #e60012;
        fill-rule: evenodd;
      }
    </style>
  </defs>
  <g>
    <circle cx="29" cy="29" r="29" class="cls-1"/>
    <path d="M43.477,34.657 L30.825,47.469 C30.680,47.615 30.508,47.732 30.298,47.828 C30.261,47.846 30.214,47.865 30.167,47.883 C30.142,47.897 30.089,47.920 30.036,47.934 C29.889,47.976 29.732,47.998 29.572,48.000 C29.570,48.000 29.567,48.000 29.564,48.000 C29.539,48.000 29.511,47.998 29.483,47.994 C29.309,47.987 29.136,47.952 28.963,47.890 C28.914,47.872 28.863,47.852 28.812,47.828 C28.616,47.742 28.441,47.625 28.295,47.479 L12.594,31.884 C12.253,31.540 12.066,31.091 12.064,30.617 L12.002,17.864 C12.000,17.390 12.189,16.927 12.522,16.592 C12.656,16.454 12.819,16.341 13.032,16.240 C13.066,16.223 13.104,16.207 13.143,16.193 C13.201,16.164 13.254,16.142 13.311,16.127 C13.461,16.085 13.617,16.063 13.774,16.060 L26.500,16.000 C26.982,16.000 27.428,16.184 27.765,16.519 L43.467,32.117 C43.807,32.453 43.996,32.904 43.998,33.383 C44.000,33.864 43.815,34.316 43.477,34.657 ZM42.565,33.033 L26.862,17.434 C26.767,17.339 26.642,17.288 26.509,17.288 L13.789,17.347 C13.757,17.348 13.721,17.353 13.685,17.360 C13.662,17.371 13.640,17.380 13.617,17.388 C13.511,17.437 13.464,17.466 13.436,17.497 C13.338,17.594 13.286,17.724 13.286,17.858 L13.348,30.611 C13.349,30.744 13.404,30.875 13.501,30.973 L29.199,46.565 C29.232,46.598 29.279,46.628 29.345,46.656 C29.486,46.710 29.530,46.705 29.593,46.710 C29.616,46.709 29.637,46.706 29.659,46.702 C29.683,46.690 29.706,46.681 29.729,46.672 C29.833,46.626 29.880,46.596 29.914,46.561 L42.566,33.749 C42.662,33.652 42.715,33.525 42.714,33.389 C42.713,33.254 42.660,33.127 42.565,33.033 ZM35.544,33.630 L24.133,35.400 C23.923,35.443 23.724,35.370 23.576,35.222 C23.345,34.990 23.345,34.631 23.576,34.400 C23.681,34.294 23.818,34.241 23.944,34.220 L35.355,32.450 C35.555,32.397 35.754,32.470 35.902,32.618 C36.133,32.850 36.143,33.219 35.912,33.450 C35.807,33.556 35.671,33.610 35.544,33.630 ZM31.131,31.543 C30.112,32.566 28.557,32.734 27.506,31.681 C26.476,30.648 26.634,29.099 27.643,28.087 L27.664,28.066 C28.694,27.033 30.249,26.886 31.289,27.929 C32.329,28.972 32.161,30.511 31.152,31.523 L31.131,31.543 ZM30.458,28.719 C29.965,28.224 29.187,28.413 28.620,28.983 L28.599,29.003 C28.000,29.604 27.864,30.416 28.336,30.890 C28.830,31.386 29.608,31.196 30.175,30.627 L30.196,30.605 C30.784,30.016 30.932,29.194 30.458,28.719 ZM19.536,27.043 C18.669,27.043 17.854,26.705 17.242,26.090 C15.977,24.821 15.977,22.756 17.242,21.488 C17.854,20.873 18.669,20.534 19.536,20.534 C20.403,20.534 21.218,20.873 21.830,21.488 C22.443,22.102 22.781,22.920 22.781,23.789 C22.781,24.658 22.443,25.475 21.830,26.090 C21.217,26.705 20.403,27.043 19.536,27.043 ZM20.922,22.399 C20.552,22.027 20.060,21.822 19.536,21.822 C19.012,21.822 18.520,22.027 18.149,22.399 C17.385,23.165 17.385,24.412 18.150,25.180 C18.890,25.922 20.182,25.923 20.922,25.180 C21.292,24.808 21.496,24.314 21.496,23.789 C21.496,23.264 21.293,22.770 20.922,22.399 ZM28.347,36.297 C29.376,35.263 30.931,35.116 31.972,36.160 C33.001,37.192 32.844,38.741 31.835,39.753 L31.814,39.774 C30.795,40.797 29.229,40.955 28.189,39.911 C27.159,38.879 27.317,37.329 28.326,36.317 L28.347,36.297 ZM29.019,39.121 C29.513,39.616 30.291,39.426 30.858,38.858 L30.879,38.837 C31.468,38.246 31.614,37.424 31.142,36.950 C30.648,36.454 29.870,36.644 29.303,37.213 L29.282,37.235 C28.683,37.835 28.546,38.646 29.019,39.121 Z" class="cls-2"/>
  </g>
</svg>
