<svg xmlns="http://www.w3.org/2000/svg" xmlns:xlink="http://www.w3.org/1999/xlink" preserveAspectRatio="xMidYMid" width="58" height="58" viewBox="0 0 58 58">
  <defs>
    <style>
      .cls-1 {
        fill: #fceded;
      }

      .cls-2 {
        fill: #e60012;
        fill-rule: evenodd;
      }
    </style>
  </defs>
  <g>
    <circle cx="29" cy="29" r="29" class="cls-1"/>
    <path d="M38.299,45.000 L19.701,45.000 C19.314,45.000 19.000,44.692 19.000,44.311 L19.000,14.467 C19.000,14.201 19.154,13.969 19.379,13.854 L22.355,11.234 C22.621,11.000 23.025,11.000 23.290,11.234 L25.912,13.542 L28.531,11.234 C28.797,11.000 29.201,11.000 29.467,11.234 L32.088,13.542 L34.708,11.234 C34.974,11.000 35.378,11.000 35.644,11.234 L38.664,13.893 C38.862,14.017 39.000,14.227 39.000,14.467 L39.000,44.311 C39.000,44.692 38.686,45.000 38.299,45.000 ZM37.598,14.805 L35.176,12.673 L32.555,14.981 C32.290,15.215 31.886,15.215 31.620,14.981 L28.999,12.673 L26.379,14.981 C26.113,15.215 25.710,15.215 25.444,14.981 L22.823,12.673 L20.402,14.804 L20.402,43.622 L37.598,43.622 L37.598,14.805 ZM24.819,32.868 L32.838,32.868 C33.226,32.868 33.539,33.176 33.539,33.557 C33.539,33.938 33.226,34.246 32.838,34.246 L24.819,34.246 C24.432,34.246 24.118,33.938 24.118,33.557 C24.118,33.176 24.432,32.868 24.819,32.868 ZM24.819,37.984 L32.838,37.984 C33.226,37.984 33.539,38.292 33.539,38.673 C33.539,39.054 33.226,39.362 32.838,39.362 L24.819,39.362 C24.432,39.362 24.118,39.054 24.118,38.673 C24.118,38.292 24.432,37.984 24.819,37.984 ZM29.576,28.545 L29.576,29.299 C29.576,29.600 29.332,29.839 29.026,29.839 C28.719,29.839 28.463,29.600 28.463,29.299 L28.463,28.520 C27.504,28.419 26.622,28.080 25.842,27.540 C25.625,27.402 25.497,27.201 25.497,26.937 C25.497,26.547 25.804,26.246 26.200,26.246 C26.354,26.246 26.507,26.296 26.622,26.384 C27.223,26.811 27.811,27.100 28.514,27.225 L28.514,24.750 C26.648,24.273 25.778,23.582 25.778,22.162 C25.778,20.818 26.865,19.888 28.463,19.762 L28.463,19.498 C28.463,19.196 28.719,18.958 29.026,18.958 C29.332,18.958 29.576,19.196 29.576,19.498 L29.576,19.775 C30.330,19.863 30.969,20.101 31.557,20.466 C31.762,20.579 31.940,20.767 31.940,21.069 C31.940,21.458 31.621,21.760 31.225,21.760 C31.097,21.760 30.969,21.722 30.841,21.647 C30.394,21.383 29.959,21.195 29.524,21.094 L29.524,23.507 C31.467,23.984 32.299,24.750 32.299,26.095 C32.299,27.477 31.199,28.394 29.576,28.545 ZM28.514,21.019 C27.696,21.094 27.287,21.521 27.287,22.074 C27.287,22.602 27.530,22.929 28.514,23.242 L28.514,21.019 ZM29.524,24.989 L29.524,27.276 C30.342,27.188 30.790,26.786 30.790,26.183 C30.790,25.630 30.509,25.291 29.524,24.989 Z" class="cls-2"/>
  </g>
</svg>
