<svg xmlns="http://www.w3.org/2000/svg" xmlns:xlink="http://www.w3.org/1999/xlink" preserveAspectRatio="xMidYMid" width="58" height="58" viewBox="0 0 58 58">
  <defs>
    <style>
      .cls-1 {
        fill: #fceded;
      }

      .cls-2 {
        fill: #e60012;
        fill-rule: evenodd;
      }
    </style>
  </defs>
  <g>
    <circle cx="29" cy="29" r="29" class="cls-1"/>
    <path d="M40.475,37.871 L40.475,41.288 C40.475,41.579 40.305,41.841 40.045,41.948 C39.962,41.984 39.875,42.000 39.789,42.000 C39.606,42.000 39.425,41.924 39.293,41.780 L35.750,37.938 L33.832,37.938 C31.810,37.938 29.886,36.843 28.687,35.009 C28.474,34.684 28.555,34.241 28.869,34.020 C29.182,33.799 29.609,33.883 29.822,34.209 C30.780,35.673 32.241,36.513 33.832,36.513 L36.043,36.513 C36.230,36.513 36.408,36.592 36.538,36.733 L39.103,39.514 L39.103,37.220 C39.103,36.836 39.396,36.522 39.766,36.508 C42.492,36.411 44.628,33.880 44.628,30.747 C44.628,27.567 42.376,24.980 39.608,24.980 C39.228,24.980 38.922,24.662 38.922,24.268 C38.922,23.875 39.228,23.556 39.608,23.556 C43.132,23.556 46.000,26.781 46.000,30.747 C46.000,34.400 43.622,37.397 40.475,37.871 ZM28.880,32.699 L26.573,32.699 L19.773,38.919 C19.645,39.036 19.482,39.097 19.319,39.097 C19.223,39.097 19.127,39.076 19.036,39.033 C18.791,38.919 18.633,38.665 18.633,38.385 L18.633,32.409 C14.757,31.335 12.000,27.412 12.000,22.850 C12.000,17.419 15.918,13.000 20.734,13.000 L28.880,13.000 C33.696,13.000 37.614,17.419 37.614,22.850 C37.614,28.281 33.696,32.699 28.880,32.699 ZM28.880,14.425 L20.734,14.425 C16.675,14.425 13.372,18.204 13.372,22.850 C13.372,26.947 15.928,30.434 19.450,31.143 C19.772,31.208 20.005,31.501 20.005,31.843 L20.005,36.808 L25.860,31.452 C25.985,31.338 26.147,31.274 26.314,31.274 L28.880,31.274 C32.939,31.274 36.242,27.495 36.242,22.850 C36.242,18.204 32.939,14.425 28.880,14.425 ZM30.886,21.416 L18.654,21.416 C18.274,21.416 17.968,21.097 17.968,20.704 C17.968,20.310 18.274,19.991 18.654,19.991 L30.886,19.991 C31.265,19.991 31.572,20.310 31.572,20.704 C31.572,21.097 31.265,21.416 30.886,21.416 ZM18.654,24.510 L24.658,24.510 C25.037,24.510 25.344,24.829 25.344,25.223 C25.344,25.616 25.037,25.935 24.658,25.935 L18.654,25.935 C18.274,25.935 17.968,25.616 17.968,25.223 C17.968,24.829 18.274,24.510 18.654,24.510 Z" class="cls-2"/>
  </g>
</svg>
