<svg xmlns="http://www.w3.org/2000/svg" xmlns:xlink="http://www.w3.org/1999/xlink" preserveAspectRatio="xMidYMid" width="58" height="58" viewBox="0 0 58 58">
  <defs>
    <style>
      .cls-1 {
        fill: #fceded;
      }

      .cls-2 {
        fill: #e60012;
        fill-rule: evenodd;
      }
    </style>
  </defs>
  <g>
    <circle cx="29" cy="29" r="29" class="cls-1"/>
    <path d="M35.761,44.000 L24.239,44.000 C22.453,44.000 21.000,42.592 21.000,40.860 L21.000,38.234 L21.000,18.094 L21.000,17.139 C21.000,15.408 22.453,14.000 24.239,14.000 L35.761,14.000 C37.547,14.000 39.000,15.408 39.000,17.139 L39.000,18.094 L39.000,38.234 L39.000,40.860 C39.000,42.592 37.547,44.000 35.761,44.000 ZM37.762,17.139 C37.762,16.070 36.865,15.200 35.761,15.200 L24.239,15.200 C23.135,15.200 22.238,16.070 22.238,17.139 L22.238,18.094 L37.762,18.094 L37.762,17.139 ZM37.762,19.294 L22.238,19.294 L22.238,37.034 L37.762,37.034 L37.762,19.294 ZM37.762,38.234 L22.238,38.234 L22.238,40.860 C22.238,41.930 23.135,42.800 24.239,42.800 L35.761,42.800 C36.865,42.800 37.762,41.930 37.762,40.860 L37.762,38.234 ZM30.000,41.965 C29.131,41.965 28.428,41.283 28.428,40.441 C28.428,39.600 29.131,38.917 30.000,38.917 C30.869,38.917 31.572,39.600 31.572,40.441 C31.572,41.283 30.869,41.965 30.000,41.965 ZM30.000,40.117 C29.816,40.117 29.666,40.263 29.666,40.441 C29.666,40.620 29.816,40.765 30.000,40.765 C30.184,40.765 30.334,40.620 30.334,40.441 C30.334,40.263 30.185,40.117 30.000,40.117 Z" class="cls-2"/>
  </g>
</svg>
