<svg xmlns="http://www.w3.org/2000/svg" xmlns:xlink="http://www.w3.org/1999/xlink" preserveAspectRatio="xMidYMid" width="58" height="58" viewBox="0 0 58 58">
  <defs>
    <style>
      .cls-1 {
        fill: #fceded;
      }

      .cls-2 {
        fill: #e60012;
        fill-rule: evenodd;
      }
    </style>
  </defs>
  <g>
    <circle cx="29" cy="29" r="29" class="cls-1"/>
    <path d="M39.554,31.765 L33.997,26.241 C33.572,25.819 32.845,25.790 32.373,26.221 L32.032,26.549 C31.619,26.947 30.941,27.599 30.733,27.795 C30.736,27.792 30.738,27.790 30.739,27.787 C29.998,27.787 27.781,26.337 26.127,24.151 C25.237,22.973 25.064,22.282 25.068,22.069 L26.690,20.505 C26.908,20.295 27.033,20.002 27.035,19.706 C27.039,19.404 26.918,19.109 26.705,18.897 L21.168,13.341 C20.955,13.127 20.657,13.002 20.343,13.000 C20.040,13.000 19.753,13.115 19.533,13.326 L19.269,13.581 C18.789,14.045 17.830,14.971 17.807,14.994 L17.746,15.055 C14.323,18.495 15.848,23.092 22.691,29.959 C27.286,34.570 30.937,36.813 33.850,36.813 C34.662,36.813 35.426,36.637 36.123,36.291 C36.498,36.104 36.814,35.886 37.081,35.677 C37.217,36.495 37.174,38.101 35.407,39.841 C34.557,40.677 33.557,40.841 32.865,40.812 C31.604,40.779 30.314,40.170 29.397,39.165 L20.174,29.853 C20.157,29.836 20.140,29.820 20.121,29.806 C19.251,29.112 17.111,28.260 15.239,29.992 C14.478,30.694 14.033,31.685 14.016,32.711 C14.000,33.738 14.413,34.742 15.151,35.468 L18.372,38.637 C18.607,38.869 18.989,38.869 19.224,38.637 C19.460,38.406 19.460,38.030 19.224,37.799 L16.003,34.629 C15.495,34.129 15.210,33.437 15.221,32.730 C15.233,32.024 15.540,31.341 16.064,30.857 C17.550,29.482 19.076,30.513 19.339,30.709 L28.517,39.976 C29.633,41.200 31.246,41.956 32.832,41.998 C32.880,41.999 32.928,42.000 32.976,42.000 C34.247,42.000 35.380,41.545 36.259,40.680 C39.008,37.974 38.316,35.403 38.088,34.775 C38.583,34.301 39.535,33.385 39.577,33.341 C40.000,32.895 39.991,32.203 39.554,31.765 ZM36.980,34.180 L36.872,34.278 C36.566,34.562 36.146,34.950 35.577,35.232 C35.045,35.497 34.480,35.627 33.850,35.627 C31.313,35.627 27.848,33.440 23.551,29.129 C14.484,20.028 17.374,17.124 18.606,15.885 L18.664,15.828 C18.715,15.777 19.644,14.880 20.112,14.428 L20.342,14.206 L25.811,19.693 L24.138,21.306 C23.546,21.921 23.919,23.215 25.160,24.860 C26.876,27.128 29.379,28.973 30.739,28.973 C30.946,28.973 31.133,28.932 31.286,28.856 C31.378,28.811 31.462,28.753 31.518,28.697 C31.608,28.616 32.408,27.847 32.875,27.397 L33.174,27.109 L38.663,32.564 C38.401,32.819 37.062,34.105 36.980,34.180 Z" class="cls-2"/>
  </g>
</svg>
