<svg xmlns="http://www.w3.org/2000/svg" xmlns:xlink="http://www.w3.org/1999/xlink" preserveAspectRatio="xMidYMid" width="58" height="58" viewBox="0 0 58 58">
  <defs>
    <style>
      .cls-1 {
        fill: #fceded;
      }

      .cls-2 {
        fill: #e60012;
        fill-rule: evenodd;
      }
    </style>
  </defs>
  <g>
    <circle cx="29" cy="29" r="29" class="cls-1"/>
    <path d="M29.000,44.000 C20.729,44.000 14.000,37.271 14.000,29.000 C14.000,20.729 20.729,14.000 29.000,14.000 C37.271,14.000 44.000,20.729 44.000,29.000 C44.000,37.271 37.271,44.000 29.000,44.000 ZM29.000,15.224 C21.404,15.224 15.225,21.404 15.225,29.000 C15.225,36.596 21.404,42.776 29.000,42.776 C36.596,42.776 42.775,36.596 42.775,29.000 C42.775,21.404 36.596,15.224 29.000,15.224 ZM34.769,32.277 C34.769,34.585 32.880,36.268 30.156,36.412 L30.156,37.947 C30.156,38.310 29.849,38.617 29.486,38.617 C29.123,38.617 28.815,38.310 28.815,37.947 L28.815,36.384 C27.012,36.212 25.484,35.538 24.019,34.269 C23.884,34.153 23.729,33.984 23.729,33.700 C23.729,33.338 24.058,33.008 24.420,33.008 C24.692,33.008 24.858,33.146 24.917,33.204 C26.106,34.309 27.364,34.916 28.859,35.102 L28.859,29.253 C25.657,28.526 24.289,27.273 24.289,25.079 C24.289,22.838 26.184,21.154 28.815,21.029 L28.815,20.358 C28.815,19.994 29.123,19.687 29.486,19.687 C29.849,19.687 30.156,19.994 30.156,20.358 L30.156,21.080 C31.544,21.219 32.681,21.680 33.931,22.606 C34.151,22.776 34.295,22.945 34.295,23.225 C34.295,23.606 33.975,23.917 33.581,23.917 C33.420,23.917 33.275,23.885 33.093,23.728 C32.138,22.968 31.185,22.538 30.113,22.385 L30.113,28.123 C33.332,28.825 34.769,30.109 34.769,32.277 ZM30.113,35.137 C32.035,35.042 33.364,33.918 33.364,32.364 C33.364,31.062 32.826,30.176 30.113,29.538 L30.113,35.137 ZM28.859,22.305 C27.016,22.401 25.694,23.513 25.694,24.992 C25.694,26.282 26.219,27.168 28.859,27.836 L28.859,22.305 Z" class="cls-2"/>
  </g>
</svg>
