<svg xmlns="http://www.w3.org/2000/svg" xmlns:xlink="http://www.w3.org/1999/xlink" preserveAspectRatio="xMidYMid" width="58" height="58" viewBox="0 0 58 58">
  <defs>
    <style>
      .cls-1 {
        fill: #fceded;
      }

      .cls-2 {
        fill: #e60012;
        fill-rule: evenodd;
      }
    </style>
  </defs>
  <g>
    <circle cx="29" cy="29" r="29" class="cls-1"/>
    <path d="M40.744,38.557 C40.747,40.427 39.185,42.000 37.265,42.000 L22.734,42.000 C20.815,42.000 19.253,40.427 19.253,38.495 L18.003,25.397 C18.000,23.403 19.562,21.831 21.481,21.831 L23.632,21.831 L23.632,16.409 C23.632,12.875 26.489,10.000 30.000,10.000 C33.510,10.000 36.367,12.875 36.367,16.409 L36.367,21.831 L38.518,21.831 C40.438,21.831 42.000,23.403 42.000,25.335 L40.744,38.557 ZM35.070,16.409 C35.070,13.594 32.795,11.305 30.000,11.305 C27.204,11.305 24.929,13.594 24.929,16.409 L24.929,21.831 L35.070,21.831 L35.070,16.409 ZM38.518,23.136 L21.481,23.136 C20.276,23.136 19.297,24.122 19.297,25.335 L20.547,38.432 C20.550,39.708 21.530,40.695 22.734,40.695 L37.265,40.695 C38.470,40.695 39.450,39.708 39.450,38.495 L40.706,25.272 C40.703,24.122 39.723,23.136 38.518,23.136 ZM32.127,36.809 C32.088,37.138 31.811,37.385 31.483,37.385 L28.518,37.385 C28.189,37.385 27.913,37.138 27.874,36.809 L27.316,32.062 C27.313,32.037 27.311,32.011 27.311,31.986 C27.311,30.494 28.517,29.281 29.998,29.281 C31.481,29.281 32.687,30.494 32.687,31.986 C32.687,32.011 32.686,32.037 32.683,32.062 L32.127,36.809 ZM29.998,30.586 C29.243,30.586 28.627,31.195 28.608,31.951 L29.094,36.080 L30.906,36.080 L31.390,31.951 C31.372,31.195 30.754,30.586 29.998,30.586 Z" class="cls-2"/>
  </g>
</svg>
