<svg xmlns="http://www.w3.org/2000/svg" xmlns:xlink="http://www.w3.org/1999/xlink" preserveAspectRatio="xMidYMid" width="58" height="58" viewBox="0 0 58 58">
  <defs>
    <style>
      .cls-1 {
        fill: #fceded;
      }

      .cls-2 {
        fill: #e60012;
        fill-rule: evenodd;
      }
    </style>
  </defs>
  <g>
    <circle cx="29" cy="29" r="29" class="cls-1"/>
    <path d="M35.477,37.552 L32.291,37.552 L23.080,45.822 C22.950,45.939 22.785,46.000 22.619,46.000 C22.521,46.000 22.424,45.979 22.331,45.937 C22.081,45.822 21.921,45.568 21.921,45.288 L21.921,37.222 C16.718,35.896 13.000,30.760 13.000,24.776 C13.000,17.731 18.169,12.000 24.522,12.000 L35.477,12.000 C41.831,12.000 47.000,17.731 47.000,24.776 C47.000,31.821 41.831,37.552 35.477,37.552 ZM35.477,13.423 L24.522,13.423 C18.939,13.423 14.396,18.516 14.396,24.776 C14.396,30.295 17.910,34.995 22.752,35.952 C23.080,36.017 23.317,36.310 23.317,36.651 L23.317,43.713 L31.565,36.306 C31.693,36.192 31.857,36.129 32.027,36.129 L35.477,36.129 C41.061,36.129 45.604,31.036 45.604,24.776 C45.604,18.516 41.061,13.423 35.477,13.423 ZM38.085,26.067 L22.402,26.067 C22.016,26.067 21.704,25.749 21.704,25.355 C21.704,24.962 22.016,24.643 22.402,24.643 L38.085,24.643 C38.471,24.643 38.784,24.962 38.784,25.355 C38.784,25.749 38.471,26.067 38.085,26.067 ZM38.085,21.359 L22.402,21.359 C22.016,21.359 21.704,21.041 21.704,20.648 C21.704,20.255 22.016,19.936 22.402,19.936 L38.085,19.936 C38.471,19.936 38.784,20.255 38.784,20.648 C38.784,21.041 38.471,21.359 38.085,21.359 ZM22.402,29.351 L30.101,29.351 C30.487,29.351 30.799,29.670 30.799,30.063 C30.799,30.456 30.487,30.775 30.101,30.775 L22.402,30.775 C22.016,30.775 21.704,30.456 21.704,30.063 C21.704,29.670 22.016,29.351 22.402,29.351 Z" class="cls-2"/>
  </g>
</svg>
