<svg xmlns="http://www.w3.org/2000/svg" xmlns:xlink="http://www.w3.org/1999/xlink" preserveAspectRatio="xMidYMid" width="58" height="58" viewBox="0 0 58 58">
  <defs>
    <style>
      .cls-1 {
        fill: #fceded;
      }

      .cls-2 {
        fill: #e60012;
        fill-rule: evenodd;
      }
    </style>
  </defs>
  <g>
    <circle cx="29" cy="29" r="29" class="cls-1"/>
    <path d="M45.599,19.414 L45.525,19.487 L30.582,34.235 C30.459,34.361 30.304,34.463 30.128,34.535 L23.367,37.228 C23.202,37.293 23.030,37.326 22.855,37.326 C22.854,37.326 22.849,37.326 22.847,37.326 C22.482,37.326 22.136,37.185 21.876,36.928 C21.484,36.541 21.365,35.962 21.574,35.455 L24.301,28.787 C24.370,28.617 24.475,28.461 24.603,28.334 L39.616,13.516 C40.129,13.004 41.043,13.000 41.566,13.515 L45.596,17.492 C45.854,17.751 46.000,18.101 46.000,18.454 C46.000,18.815 45.857,19.156 45.599,19.414 ZM23.276,34.369 L24.470,35.547 L29.184,33.669 L25.178,29.715 L23.276,34.369 ZM44.768,18.303 L40.741,14.329 C40.687,14.276 40.623,14.268 40.590,14.268 C40.558,14.268 40.495,14.276 40.443,14.328 L25.840,28.741 L28.321,31.190 C28.331,31.179 28.334,31.165 28.345,31.155 L41.325,18.342 C41.553,18.117 41.922,18.117 42.150,18.342 C42.377,18.566 42.377,18.931 42.150,19.156 L29.169,31.968 C29.159,31.979 29.145,31.982 29.134,31.992 L30.170,33.015 L44.773,18.601 C44.810,18.564 44.834,18.509 44.834,18.454 C44.834,18.400 44.810,18.345 44.768,18.303 ZM33.137,17.632 L18.416,17.632 C18.278,17.632 18.166,17.743 18.166,17.879 L18.166,39.603 C18.166,39.738 18.278,39.849 18.416,39.849 L40.716,39.849 C40.853,39.849 40.965,39.738 40.965,39.603 L40.965,26.317 C40.965,25.999 41.226,25.741 41.548,25.741 C41.870,25.741 42.131,25.999 42.131,26.317 L42.131,39.603 C42.131,40.373 41.496,41.000 40.716,41.000 L18.416,41.000 C17.635,41.000 17.000,40.373 17.000,39.603 L17.000,17.879 C17.000,17.108 17.635,16.481 18.416,16.481 L33.137,16.481 C33.459,16.481 33.721,16.739 33.721,17.057 C33.721,17.375 33.459,17.632 33.137,17.632 Z" class="cls-2"/>
  </g>
</svg>
