<svg xmlns="http://www.w3.org/2000/svg" xmlns:xlink="http://www.w3.org/1999/xlink" preserveAspectRatio="xMidYMid" width="58" height="58" viewBox="0 0 58 58">
  <defs>
    <style>
      .cls-1 {
        fill: #fceded;
      }

      .cls-2 {
        fill: #e60012;
        fill-rule: evenodd;
      }
    </style>
  </defs>
  <g>
    <circle cx="29" cy="29" r="29" class="cls-1"/>
    <path d="M41.026,40.027 C37.820,43.234 33.549,45.000 29.002,45.000 C29.002,45.000 29.002,45.000 29.001,45.000 C24.453,45.000 20.181,43.233 16.974,40.026 C13.766,36.818 12.000,32.547 12.000,28.000 C12.000,23.452 13.766,19.181 16.974,15.974 C20.181,12.766 24.452,11.000 29.000,11.000 C33.547,11.000 37.818,12.766 41.025,15.974 C44.233,19.181 45.999,23.452 46.000,28.000 C46.000,32.548 44.234,36.819 41.026,40.027 ZM40.036,16.963 C37.093,14.020 33.173,12.399 29.000,12.399 C24.826,12.399 20.906,14.020 17.963,16.963 C15.020,19.906 13.399,23.826 13.399,28.000 C13.399,32.173 15.020,36.093 17.963,39.036 C20.907,41.979 24.827,43.601 29.001,43.601 C29.001,43.601 29.002,43.601 29.002,43.601 C33.175,43.601 37.094,41.980 40.037,39.037 C42.980,36.095 44.601,32.175 44.600,28.001 C44.600,23.826 42.979,19.907 40.036,16.963 ZM34.315,29.995 L36.119,35.890 C36.282,36.418 36.092,36.996 35.645,37.326 C35.198,37.651 34.579,37.658 34.131,37.350 L29.000,33.817 L23.871,37.349 C23.654,37.500 23.397,37.580 23.131,37.580 C22.851,37.580 22.584,37.492 22.359,37.327 C21.910,36.998 21.719,36.420 21.882,35.890 L23.685,29.995 L18.720,26.270 C18.274,25.934 18.090,25.354 18.260,24.825 C18.431,24.295 18.919,23.931 19.476,23.919 L25.720,23.794 L27.768,17.965 C27.950,17.443 28.445,17.091 29.000,17.091 C29.554,17.091 30.049,17.442 30.232,17.965 L32.280,23.794 L38.523,23.919 C39.081,23.932 39.569,24.295 39.739,24.824 C39.911,25.352 39.726,25.934 39.281,26.269 L34.315,29.995 ZM31.767,25.183 C31.475,25.177 31.217,24.990 31.121,24.715 L29.000,18.679 L26.880,24.715 C26.783,24.990 26.525,25.177 26.234,25.183 L19.776,25.313 L24.917,29.170 C25.153,29.347 25.253,29.653 25.166,29.935 L23.297,36.045 L28.604,32.392 C28.842,32.226 29.159,32.226 29.397,32.392 L34.703,36.044 L32.833,29.935 C32.747,29.653 32.847,29.347 33.082,29.170 L38.224,25.313 L31.767,25.183 Z" class="cls-2"/>
  </g>
</svg>
