<svg xmlns="http://www.w3.org/2000/svg" xmlns:xlink="http://www.w3.org/1999/xlink" preserveAspectRatio="xMidYMid" width="58" height="58" viewBox="0 0 58 58">
  <defs>
    <style>
      .cls-1 {
        fill: #fceded;
      }

      .cls-2 {
        fill: #e60012;
        fill-rule: evenodd;
      }
    </style>
  </defs>
  <g>
    <circle cx="29" cy="29" r="29" class="cls-1"/>
    <path d="M44.354,38.245 L42.547,38.245 C42.620,38.543 42.663,38.853 42.663,39.174 C42.663,41.284 40.982,43.000 38.916,43.000 C36.850,43.000 35.169,41.284 35.169,39.174 C35.169,38.853 35.212,38.543 35.285,38.245 L24.300,38.245 C24.374,38.543 24.417,38.853 24.417,39.174 C24.417,41.284 22.736,43.000 20.670,43.000 C18.604,43.000 16.923,41.284 16.923,39.174 C16.923,38.853 16.966,38.543 17.039,38.245 L14.975,38.245 C14.618,38.245 14.329,37.950 14.329,37.585 L14.329,34.812 L13.646,34.812 C13.289,34.812 13.000,34.517 13.000,34.152 L13.000,18.660 C13.000,18.295 13.289,18.000 13.646,18.000 L34.875,18.000 C35.232,18.000 35.521,18.295 35.521,18.660 L35.521,22.642 L41.433,22.642 C41.574,22.642 41.713,22.689 41.826,22.777 C41.932,22.860 44.424,24.856 44.424,28.715 L44.424,33.496 C44.748,33.532 45.000,33.812 45.000,34.152 L45.000,37.585 C45.000,37.950 44.711,38.245 44.354,38.245 ZM38.916,41.681 C40.270,41.681 41.371,40.557 41.371,39.174 C41.371,37.792 40.270,36.668 38.916,36.668 C37.562,36.668 36.461,37.792 36.461,39.174 C36.461,40.557 37.562,41.681 38.916,41.681 ZM20.670,41.681 C22.023,41.681 23.124,40.557 23.124,39.174 C23.124,37.792 22.023,36.668 20.670,36.668 C19.316,36.668 18.215,37.792 18.215,39.174 C18.215,40.557 19.316,41.681 20.670,41.681 ZM34.229,23.301 L34.229,19.319 L14.292,19.319 L14.292,33.492 L14.975,33.492 L34.229,33.492 L34.229,23.301 ZM39.326,23.961 L35.521,23.961 L35.521,28.931 L39.326,28.931 L39.326,23.961 ZM43.132,28.715 C43.132,26.019 41.675,24.417 41.193,23.961 L40.619,23.961 L40.619,28.931 L43.132,28.931 L43.132,28.715 ZM43.708,34.808 C43.384,34.772 43.132,34.492 43.132,34.152 L43.132,30.250 L39.973,30.250 L35.521,30.250 L35.521,34.152 C35.521,34.517 35.232,34.812 34.875,34.812 L15.621,34.812 L15.621,36.926 L17.645,36.926 C18.327,35.972 19.427,35.349 20.670,35.349 C21.912,35.349 23.012,35.972 23.695,36.926 L35.891,36.926 C36.573,35.972 37.674,35.349 38.916,35.349 C40.159,35.349 41.259,35.972 41.941,36.926 L43.708,36.926 L43.708,34.808 ZM20.670,38.313 C21.135,38.313 21.514,38.699 21.514,39.174 C21.514,39.650 21.135,40.036 20.670,40.036 C20.204,40.036 19.825,39.650 19.825,39.174 C19.825,38.699 20.204,38.313 20.670,38.313 ZM38.916,38.313 C39.381,38.313 39.760,38.699 39.760,39.174 C39.760,39.650 39.381,40.036 38.916,40.036 C38.450,40.036 38.072,39.650 38.072,39.174 C38.072,38.699 38.450,38.313 38.916,38.313 ZM40.647,21.888 C40.449,21.888 40.254,21.797 40.128,21.623 C40.113,21.602 38.629,19.598 36.983,19.598 C36.980,19.598 36.979,19.598 36.979,19.598 C36.622,19.598 36.333,19.303 36.332,18.939 C36.332,18.574 36.621,18.279 36.977,18.278 C36.979,18.278 36.981,18.278 36.983,18.278 C39.283,18.278 41.090,20.732 41.166,20.837 C41.378,21.129 41.318,21.541 41.031,21.758 C40.916,21.846 40.781,21.888 40.647,21.888 Z" class="cls-2"/>
  </g>
</svg>
