<svg xmlns="http://www.w3.org/2000/svg" xmlns:xlink="http://www.w3.org/1999/xlink" preserveAspectRatio="xMidYMid" width="58" height="58" viewBox="0 0 58 58">
  <defs>
    <style>
      .cls-1 {
        fill: #fceded;
      }

      .cls-2 {
        fill: #e60012;
        fill-rule: evenodd;
      }
    </style>
  </defs>
  <g>
    <circle cx="29" cy="29" r="29" class="cls-1"/>
    <path d="M29.736,31.922 C29.729,31.922 29.721,31.922 29.714,31.921 L24.611,31.739 C24.275,31.727 24.011,31.440 24.023,31.099 C24.035,30.757 24.313,30.489 24.653,30.502 L29.757,30.685 C30.093,30.697 30.356,30.983 30.344,31.325 C30.333,31.659 30.062,31.922 29.736,31.922 ZM25.859,22.293 C25.871,21.951 26.148,21.691 26.489,21.696 L36.055,22.038 C36.391,22.050 36.654,22.337 36.643,22.678 C36.631,23.012 36.361,23.275 36.034,23.275 C36.027,23.275 36.020,23.275 36.012,23.275 L26.447,22.933 C26.110,22.921 25.847,22.634 25.859,22.293 ZM34.707,27.648 C34.700,27.648 34.692,27.648 34.685,27.647 L25.743,27.328 C25.407,27.316 25.144,27.029 25.156,26.688 C25.168,26.347 25.439,26.083 25.786,26.091 L34.728,26.411 C35.064,26.423 35.327,26.709 35.315,27.051 C35.304,27.385 35.033,27.648 34.707,27.648 ZM34.493,41.922 C34.418,41.936 34.343,41.946 34.268,41.953 C34.197,41.984 34.118,42.000 34.036,42.000 C34.034,42.000 34.032,42.000 34.030,42.000 C33.925,41.999 23.452,41.906 18.031,41.775 C13.378,41.663 12.092,35.822 12.039,35.574 C12.000,35.389 12.047,35.196 12.165,35.050 C12.285,34.904 12.469,34.821 12.649,34.826 L29.215,35.215 C29.444,35.220 29.651,35.355 29.750,35.565 C31.425,39.110 33.035,40.935 34.274,40.705 C37.355,40.133 39.750,28.553 40.715,17.801 L23.186,17.280 C22.997,19.617 22.169,28.133 19.838,33.215 C19.695,33.525 19.333,33.658 19.028,33.514 C18.723,33.370 18.591,33.002 18.733,32.692 C21.301,27.094 22.008,16.708 22.015,16.603 C22.037,16.271 22.300,16.000 22.641,16.026 L41.397,16.584 C41.564,16.589 41.722,16.663 41.833,16.791 C41.945,16.918 42.000,17.086 41.985,17.256 C41.513,22.822 39.584,40.977 34.493,41.922 ZM28.815,36.443 L13.451,36.082 C13.931,37.518 15.256,40.471 18.060,40.538 C21.862,40.629 28.159,40.703 31.605,40.739 C30.691,39.825 29.765,38.397 28.815,36.443 Z" class="cls-2"/>
  </g>
</svg>
