<svg xmlns="http://www.w3.org/2000/svg" xmlns:xlink="http://www.w3.org/1999/xlink" preserveAspectRatio="xMidYMid" width="58" height="58" viewBox="0 0 58 58">
  <defs>
    <style>
      .cls-1 {
        fill: #fceded;
      }

      .cls-2 {
        fill: #e60012;
        fill-rule: evenodd;
      }
    </style>
  </defs>
  <g>
    <circle cx="29" cy="29" r="29" class="cls-1"/>
    <path d="M41.476,34.425 L40.288,34.425 L40.288,38.484 C40.288,38.769 40.053,39.000 39.764,39.000 L18.229,39.000 C17.000,39.000 16.000,38.016 16.000,36.808 L16.000,22.591 C16.000,21.385 16.994,20.405 18.219,20.400 L18.069,19.924 C18.028,19.793 18.041,19.651 18.106,19.531 C18.171,19.410 18.282,19.319 18.415,19.279 L35.641,14.041 C35.774,14.000 35.917,14.014 36.041,14.077 C36.163,14.141 36.256,14.250 36.297,14.381 L38.189,20.399 L39.764,20.399 C40.053,20.399 40.288,20.630 40.288,20.915 C40.288,21.200 40.053,21.430 39.764,21.430 L38.513,21.430 L39.201,23.617 C39.215,23.661 39.213,23.706 39.215,23.751 L39.764,23.751 C40.053,23.751 40.288,23.982 40.288,24.267 L40.288,28.133 L41.476,28.133 C41.765,28.133 42.000,28.364 42.000,28.649 L42.000,33.909 C42.000,34.194 41.765,34.425 41.476,34.425 ZM18.229,21.430 C17.579,21.430 17.049,21.951 17.049,22.591 C17.049,23.230 17.578,23.751 18.229,23.751 L18.229,23.751 L19.273,23.751 L18.543,21.430 L18.229,21.430 ZM35.450,15.179 L19.226,20.112 L20.371,23.751 L36.898,23.751 L38.042,23.422 L35.450,15.179 ZM39.239,24.782 L18.229,24.782 C17.794,24.782 17.392,24.655 17.049,24.442 L17.049,36.808 C17.049,37.448 17.579,37.968 18.229,37.968 L39.239,37.968 L39.239,34.425 L35.891,34.425 C34.127,34.425 32.692,33.013 32.692,31.279 C32.692,29.544 34.127,28.133 35.891,28.133 L39.239,28.133 L39.239,24.782 ZM40.951,29.165 L35.891,29.165 C34.705,29.165 33.741,30.113 33.741,31.279 C33.741,32.445 34.705,33.393 35.891,33.393 L40.951,33.393 L40.951,29.165 ZM35.535,31.279 C35.535,30.888 35.857,30.572 36.254,30.572 C36.651,30.572 36.973,30.888 36.973,31.279 C36.973,31.669 36.651,31.986 36.254,31.986 C35.857,31.986 35.535,31.669 35.535,31.279 Z" class="cls-2"/>
  </g>
</svg>
