<?xml version="1.0" encoding="UTF-8" standalone="no"?>
<svg width="27px" height="18px" viewBox="0 0 27 18" version="1.1" xmlns="http://www.w3.org/2000/svg" xmlns:xlink="http://www.w3.org/1999/xlink">
    <!-- Generator: Sketch 3.6.1 (26313) - http://www.bohemiancoding.com/sketch -->
    <title>Group 3</title>
    <desc>Created with Sketch.</desc>
    <defs></defs>
    <g id="Page-3" stroke="none" stroke-width="1" fill="none" fill-rule="evenodd">
        <g id="首页" transform="translate(-1220.000000, -36.000000)">
            <g id="Group-3" transform="translate(1220.000000, 36.000000)">
                <path d="M11.2796463,7.00147612 L10.7349448,6.63489403 L10.2184522,7.03949104 L10.3985866,6.40855075 L9.85428806,6.04196866 L10.5100791,6.01846119 L10.6903478,5.38738657 L10.9154821,6.0038194 L11.5714075,5.98031194 L11.0545119,6.38504328 L11.2796463,7.00147612 Z M10.3252433,2.76932687 L10.7819597,3.24041642 L11.3712582,2.95134179 L11.0644522,3.5316403 L11.521303,4.00259552 L10.8747806,3.89002836 L10.568109,4.47019254 L10.4752881,3.8205806 L9.82849701,3.70801343 L10.4177955,3.41907313 L10.3252433,2.76932687 Z M9.17660149,2.00016269 L9.1188403,2.65407313 L8.78113881,2.09123731 L8.14187015,2.23859552 L8.57266119,1.74332687 L8.2349597,1.1807597 L8.8389,1.43759552 L9.26969104,0.942595522 L9.21192985,1.59637164 L9.81600448,1.85320746 L9.17660149,2.00016269 Z M9.09922836,8.97126716 L8.76260149,8.42831194 L8.16148209,8.59313284 L8.55788507,8.09772985 L8.19425821,7.51098358 L8.68254179,7.71019254 L8.80424328,7.75613284 L9.22536269,7.25777463 L9.22482537,7.26408806 L9.23503433,7.25146119 L9.20387015,7.92310299 L9.78470597,8.16046119 L9.14745224,8.3168194 L9.09922836,8.97126716 Z M5.99261642,6.67586418 L4.4000194,5.51862537 L2.80728806,6.67586418 L3.41539254,4.80359552 L1.82266119,3.64622239 L3.79164627,3.64622239 L4.4000194,1.7738194 L5.00839254,3.64622239 L6.97724328,3.64622239 L5.38437761,4.80359552 L5.99261642,6.67586418 Z M24.5820493,1.34328359e-05 L2.28354179,1.34328359e-05 C1.02246716,1.34328359e-05 -4.02985074e-05,1.02225224 -4.02985074e-05,2.28359552 L-4.02985074e-05,15.7164313 C-4.02985074e-05,16.9776403 1.02246716,18.0000134 2.28354179,18.0000134 L24.5820493,18.0000134 C25.8432582,18.0000134 26.8656313,16.9776403 26.8656313,15.7164313 L26.8656313,2.28359552 C26.8656313,1.02225224 25.8432582,1.34328359e-05 24.5820493,1.34328359e-05 L24.5820493,1.34328359e-05 Z" id="Fill-38" fill="#DD342C"></path>
                <path d="M5.0084597,3.64627612 L4.40008657,1.77387313 L3.7915791,3.64627612 L1.82259403,3.64627612 L3.4154597,4.80351493 L2.8072209,6.67591791 L4.40008657,5.51854478 L5.99254925,6.67591791 L5.38444478,4.80351493 L6.97717612,3.64627612 L5.0084597,3.64627612 Z" id="Fill-41" fill="#FFDE00"></path>
                <path d="M9.26970448,0.942528358 L8.83891343,1.43766269 L8.23497313,1.18069254 L8.57267463,1.74339403 L8.14188358,2.23852836 L8.78115224,2.09130448 L9.11885373,2.65400597 L9.17661493,2.00022985 L9.81588358,1.8531403 L9.21194328,1.59630448 L9.26970448,0.942528358 Z" id="Fill-43" fill="#FFDE00"></path>
                <path d="M10.4752612,3.8206209 L10.5680821,4.47023284 L10.8748881,3.89006866 L11.5212761,4.00250149 L11.0645597,3.5316806 L11.3712313,2.95124776 L10.7819328,3.24045672 L10.3252164,2.76936716 L10.4177687,3.41911343 L9.82860448,3.70805373 L10.4752612,3.8206209 Z" id="Fill-45" fill="#FFDE00"></path>
                <path d="M11.571394,5.98036567 L10.9154687,6.00387313 L10.6903343,5.3874403 L10.5102,6.0183806 L9.85427463,6.04202239 L10.3987075,6.40860448 L10.2184388,7.03954478 L10.7349313,6.63494776 L11.2796328,7.00152985 L11.0544985,6.38509701 L11.571394,5.98036567 Z" id="Fill-47" fill="#FFDE00"></path>
                <path d="M9.23507463,7.25150149 L9.22486567,7.26412836 L9.22540299,7.25781493 L8.80428358,7.75617313 L8.68258209,7.71023284 L8.19429851,7.51102388 L8.55792537,8.09777015 L8.16152239,8.59303881 L8.76250746,8.42835224 L9.09913433,8.97130746 L9.14749254,8.3168597 L9.78474627,8.16050149 L9.20391045,7.92314328 L9.23507463,7.25150149 Z" id="Fill-49" fill="#FFDE00"></path>
            </g>
        </g>
    </g>
</svg>