<?xml version="1.0" encoding="UTF-8" standalone="no"?>
<svg width="27px" height="18px" viewBox="0 0 27 18" version="1.1" xmlns="http://www.w3.org/2000/svg" xmlns:xlink="http://www.w3.org/1999/xlink">
    <!-- Generator: Sketch 3.6.1 (26313) - http://www.bohemiancoding.com/sketch -->
    <title>Group 2</title>
    <desc>Created with Sketch.</desc>
    <defs></defs>
    <g id="Page-3" stroke="none" stroke-width="1" fill="none" fill-rule="evenodd">
        <g id="首页" transform="translate(-1300.000000, -36.000000)">
            <g id="Group-2" transform="translate(1300.000000, 36.000000)">
                <path d="M15.563,17.92488 L23.3799333,17.92488 L15.563,12.55888 L15.563,17.92488 Z" id="Fill-1" fill="#273476"></path>
                <path d="M0.00181333333,11.9233733 L0.00181333333,15.6583067 C0.00181333333,15.8007067 0.0163466667,15.9395067 0.04168,16.0747067 L6.01274667,12.0215067 L0.00181333333,11.9233733 Z" id="Fill-2" fill="#273476"></path>
                <path d="M0.0422,1.90462667 C0.0167333333,2.04102667 0.0018,2.18116 0.0018,2.32489333 L0.0018,5.87409333 L5.9666,5.97156 L0.0422,1.90462667 Z" id="Fill-4" fill="#273476"></path>
                <path d="M23.6362,0.0582666667 L15.563,0.0582666667 L15.563,5.5388 L23.6362,0.0582666667 Z" id="Fill-6" fill="#273476"></path>
                <path d="M26.66848,5.87416 L26.66848,2.32496 C26.66848,2.18122667 26.65368,2.04082667 26.6278133,1.90442667 L20.7034133,5.97149333 L26.66848,5.87416 Z" id="Fill-8" fill="#273476"></path>
                <path d="M26.62864,16.0749333 C26.6535733,15.9394667 26.6685067,15.8006667 26.6685067,15.6582667 L26.6685067,11.9233333 L20.6573067,12.0216 L26.62864,16.0749333 Z" id="Fill-10" fill="#273476"></path>
                <path d="M11.1072933,0.0582666667 L3.03382667,0.0582666667 L11.1072933,5.5388 L11.1072933,0.0582666667 Z" id="Fill-12" fill="#273476"></path>
                <path d="M3.29010667,17.9249333 L11.1073067,17.9249333 L11.1073067,12.5588 L3.29010667,17.9249333 Z" id="Fill-14" fill="#273476"></path>
                <g id="Group-18" fill="#FFFFFF">
                    <path d="M11.1072933,5.53873333 L3.03382667,0.0582 L2.26849333,0.0582 C1.76742667,0.0582 1.30596,0.222866667 0.931026667,0.4978 L8.87942667,6.05513333 L6.88676,6.05513333 L0.22156,1.3562 C0.139826667,1.52833333 0.07836,1.71193333 0.0422266667,1.9046 L5.96662667,5.97153333 L0.00182666667,5.8742 L0.00182666667,7.08406667 L7.75809333,7.20126667 L11.9984933,7.265 L11.9984933,6.14366667 L11.9984933,0.0582 L11.1072933,0.0582 L11.1072933,5.53873333 Z" id="Fill-16"></path>
                </g>
                <g id="Group-21" transform="translate(14.666667, 10.666667)" fill="#FFFFFF">
                    <path d="M0.00521333333,0.2278 L0.00521333333,1.28046667 L0.00521333333,7.25833333 L0.896413333,7.25833333 L0.896413333,1.89206667 L8.71334667,7.25833333 L9.73521333,7.25833333 C10.2828133,7.25833333 10.78548,7.06393333 11.1773467,6.74033333 L3.12441333,1.43793333 L5.11694667,1.43793333 L11.84108,5.82593333 C11.89428,5.69233333 11.9349467,5.55286667 11.9620133,5.40833333 L5.99068,1.35486667 L12.00188,1.25673333 L12.00188,0.0471333333 L4.23641333,0.163933333 L0.00521333333,0.2278 Z" id="Fill-19"></path>
                </g>
                <path d="M0.00181333333,10.7137333 L0.00181333333,11.9233333 L6.01274667,12.0216 L0.04168,16.0746667 C0.140613333,16.6074667 0.42448,17.0754667 0.826346667,17.4069333 L8.87941333,12.1046667 L10.87208,12.1046667 L2.29768,17.9249333 L3.29008,17.9249333 L11.10728,12.5588 L11.10728,17.9249333 L11.99848,17.9249333 L11.99848,11.9470667 L11.99848,10.8944 L7.76661333,10.8306667 L0.00181333333,10.7137333 Z" id="Fill-22" fill="#FFFFFF"></path>
                <g id="Group-26" transform="translate(14.666667, 0.000000)" fill="#FFFFFF">
                    <path d="M6.03672,5.97154667 L11.9612533,1.90434667 C11.85312,1.32888 11.5273867,0.831413333 11.07272,0.497813333 L3.12445333,6.05514667 L1.13125333,6.05514667 L9.70858667,0.0582133333 L8.96952,0.0582133333 L0.89632,5.53874667 L0.89632,0.0582133333 L0.00525333333,0.0582133333 L0.00525333333,6.14341333 L0.00525333333,7.26501333 L4.24525333,7.20128 L12.0017867,7.08408 L12.0017867,5.87421333 L6.03672,5.97154667 Z" id="Fill-24"></path>
                </g>
                <path d="M18.9119733,7.20124 L14.67184,7.26510667 L14.67184,6.14337333 L14.67184,0.0583066667 L11.9983733,0.0583066667 L11.9983733,6.14364 L11.9983733,7.26510667 L7.75810667,7.20124 L0.00184,7.08404 L0.00184,10.7137733 L7.76664,10.8307067 L11.9983733,10.89444 L11.9983733,11.9471067 L11.9983733,17.9249733 L14.67184,17.9249733 L14.67184,11.9471067 L14.67184,10.89444 L18.9031733,10.8307067 L26.6685067,10.7137733 L26.6685067,7.08404 L18.9119733,7.20124 Z" id="Fill-27" fill="#ED2F31"></path>
                <path d="M6.88672,6.05514667 L8.87938667,6.05514667 L0.930986667,0.497813333 C0.62832,0.71968 0.38392,1.01394667 0.221653333,1.35621333 L6.88672,6.05514667 Z" id="Fill-29" fill="#ED2F31"></path>
                <g id="Group-33" transform="translate(15.733333, 0.000000)" fill="#ED2F31">
                    <path d="M0.0645733333,6.05514667 L2.05777333,6.05514667 L10.00604,0.497813333 C9.63070667,0.22288 9.16924,0.0582133333 8.66844,0.0582133333 L8.64190667,0.0582133333 L0.0645733333,6.05514667 Z" id="Fill-31"></path>
                </g>
                <path d="M17.7911333,12.1046267 L25.8440667,17.4070267 C26.1364667,17.16556 26.3656667,16.8512933 26.5078,16.4926267 L19.7835333,12.1046267 L17.7911333,12.1046267 Z" id="Fill-34" fill="#ED2F31"></path>
                <path d="M8.87942667,12.1046267 L0.82636,17.4070267 C1.21796,17.7306267 1.72062667,17.9248933 2.26849333,17.9248933 L2.29769333,17.9248933 L10.8720933,12.1046267 L8.87942667,12.1046267 Z" id="Fill-36" fill="#ED2F31"></path>
            </g>
        </g>
    </g>
</svg>