<?xml version="1.0" encoding="UTF-8" standalone="no"?>
<svg width="424px" height="50px" viewBox="0 0 424 50" version="1.1" xmlns="http://www.w3.org/2000/svg" xmlns:xlink="http://www.w3.org/1999/xlink">
    <!-- Generator: Sketch 3.6.1 (26313) - http://www.bohemiancoding.com/sketch -->
    <title>logo-english</title>
    <desc>Created with Sketch.</desc>
    <defs>
        <path id="path-1" d="M0,0.177136842 L0,24.6501193 L8.36433684,24.6501193 L8.36433684,0.177136842 L2.6629527e-20,0.177136842 L0,0.177136842 Z"></path>
    </defs>
    <g id="Page-3" stroke="none" stroke-width="1" fill="none" fill-rule="evenodd">
        <g id="Group-11">
            <path d="M49.7748593,24.6365854 C49.7748593,38.2435272 38.7440901,49.2737336 25.1377111,49.2737336 C11.5307692,49.2737336 0.5,38.2435272 0.5,24.6365854 C0.5,11.0290807 11.5307692,0 25.1377111,0 C38.7440901,0 49.7748593,11.0290807 49.7748593,24.6365854" id="Fill-16" fill="#E73836"></path>
            <path d="M32.5012758,43.0595685 C31.1645028,43.0595685 30.0770732,41.9721388 30.0770732,40.6353659 L30.0770732,36.4950281 C30.0770732,36.1179174 30.3827017,35.8128518 30.7598124,35.8128518 C31.1363602,35.8128518 31.4419887,36.1179174 31.4419887,36.4950281 L31.4419887,40.6353659 C31.4419887,41.219606 31.9170356,41.6946529 32.5012758,41.6946529 C33.0855159,41.6946529 33.5611257,41.219606 33.5611257,40.6353659 C33.5611257,40.2582552 33.8667542,39.9526266 34.2433021,39.9526266 C34.6204128,39.9526266 34.9260413,40.2582552 34.9260413,40.6353659 C34.9260413,41.9721388 33.8380488,43.0595685 32.5012758,43.0595685" id="Fill-35" fill="#FEFEFE"></path>
            <path d="M35.5796248,24.1373358 C35.2030769,24.1373358 34.8974484,23.8317073 34.8974484,23.4551595 C34.8974484,22.7482176 34.3227767,22.173546 33.6163977,22.173546 C32.9094559,22.173546 32.3347842,22.7482176 32.3347842,23.4551595 C32.3347842,23.8317073 32.0291557,24.1373358 31.6526079,24.1373358 C31.2754972,24.1373358 30.9698687,23.8317073 30.9698687,23.4551595 C30.9698687,21.9956848 32.1569231,20.8086304 33.6163977,20.8086304 C35.0753096,20.8086304 36.2618011,21.9956848 36.2618011,23.4551595 C36.2618011,23.8317073 35.9567355,24.1373358 35.5796248,24.1373358" id="Fill-36" fill="#FEFEFE"></path>
            <path d="M18.6572045,24.1373358 C18.2800938,24.1373358 17.9750281,23.8317073 17.9750281,23.4551595 C17.9750281,22.7482176 17.3997936,22.173546 16.6934146,22.173546 C15.9870356,22.173546 15.412364,22.7482176 15.412364,23.4551595 C15.412364,23.8317073 15.1067355,24.1373358 14.7296248,24.1373358 C14.3530769,24.1373358 14.0474484,23.8317073 14.0474484,23.4551595 C14.0474484,21.9956848 15.2345028,20.8086304 16.6934146,20.8086304 C18.1528893,20.8086304 19.3393809,21.9956848 19.3393809,23.4551595 C19.3393809,23.8317073 19.0337523,24.1373358 18.6572045,24.1373358" id="Fill-37" fill="#FEFEFE"></path>
            <path d="M23.2629081,43.0669418 C22.8857974,43.0669418 22.5807317,42.7613133 22.5807317,42.3847655 L22.5807317,37.5076548 C22.5807317,37.1305441 22.8857974,36.8254784 23.2629081,36.8254784 C23.6394559,36.8254784 23.9450844,37.1305441 23.9450844,37.5076548 L23.9450844,42.3847655 C23.9450844,42.7613133 23.6394559,43.0669418 23.2629081,43.0669418" id="Fill-38" fill="#FEFEFE"></path>
            <path d="M27.0112758,43.0669418 C26.634728,43.0669418 26.3290994,42.7613133 26.3290994,42.3847655 L26.3290994,37.5076548 C26.3290994,37.1305441 26.634728,36.8254784 27.0112758,36.8254784 C27.3883865,36.8254784 27.6934522,37.1305441 27.6934522,37.5076548 L27.6934522,42.3847655 C27.6934522,42.7613133 27.3883865,43.0669418 27.0112758,43.0669418" id="Fill-39" fill="#FEFEFE"></path>
            <path d="M17.8325704,43.0595685 C16.5290056,43.0595685 15.46803,41.9985929 15.46803,40.6950281 C15.46803,40.3184803 15.7736585,40.0128518 16.1507692,40.0128518 C16.5273171,40.0128518 16.8329456,40.3184803 16.8329456,40.6950281 C16.8329456,41.24606 17.2815385,41.6946529 17.8325704,41.6946529 C18.3841651,41.6946529 18.832758,41.24606 18.832758,40.6950281 L18.832758,36.495591 C18.832758,36.1184803 19.1378236,35.8128518 19.5149343,35.8128518 C19.8914822,35.8128518 20.1971107,36.1184803 20.1971107,36.495591 L20.1971107,40.6950281 C20.1971107,41.9985929 19.1366979,43.0595685 17.8325704,43.0595685" id="Fill-40" fill="#FEFEFE"></path>
            <path d="M25.1547655,25.9742026 C23.8748405,25.9742026 22.8330019,27.0154784 22.8330019,28.2954034 C22.8330019,29.5758912 23.8748405,30.617167 25.1547655,30.617167 C26.4346904,30.617167 27.4759662,29.5758912 27.4759662,28.2954034 C27.4759662,27.0154784 26.4346904,25.9742026 25.1547655,25.9742026 M25.1547655,31.9820826 C23.1223077,31.9820826 21.4680863,30.328424 21.4680863,28.2954034 C21.4680863,26.2629456 23.1223077,24.6092871 25.1547655,24.6092871 C27.1872233,24.6092871 28.8408818,26.2629456 28.8408818,28.2954034 C28.8408818,30.328424 27.1872233,31.9820826 25.1547655,31.9820826" id="Fill-41" fill="#FEFEFE"></path>
            <path d="M31.0110694,37.1300938 L30.5084428,35.8614259 C36.108818,33.6426642 39.7273921,28.3158349 39.7273921,22.2916323 C39.7273921,14.2462289 33.1825516,7.70138837 25.1371482,7.70138837 C17.0923077,7.70138837 10.5474672,14.2462289 10.5474672,22.2916323 C10.5474672,28.3158349 14.1654784,33.6421013 19.7658537,35.860863 L19.263227,37.129531 C16.3234522,35.9649906 13.8148218,33.9702439 12.0091932,31.3603002 C10.1596623,28.6884428 9.18255159,25.5522326 9.18255159,22.2916323 C9.18255159,13.4936961 16.3397749,6.3364728 25.1371482,6.3364728 C33.9350844,6.3364728 41.0923077,13.4936961 41.0923077,22.2916323 C41.0923077,25.5527955 40.1146341,28.6884428 38.265666,31.3603002 C36.4594747,33.9702439 33.9508443,35.9655535 31.0110694,37.1300938" id="Fill-42" fill="#FEFEFE"></path>
            <path d="M176.719512,14.6341463 L176.719512,36.5853659" id="Line" stroke="#3F3A3A" stroke-linecap="square"></path>
            <g id="Page-1" transform="translate(57.000000, 9.000000)">
                <g id="Group-3" transform="translate(0.000000, 0.805418)">
                    <mask id="mask-2" fill="white">
                        <use xlink:href="#path-1"></use>
                    </mask>
                    <g id="Clip-2"></g>
                    <path d="M8.36433684,0.62317193 L8.36433684,2.80618947 C7.54693333,2.45545263 6.84545965,2.28057544 6.26089825,2.28057544 C5.82567018,2.28057544 5.46510877,2.36703158 5.17823158,2.54289123 C4.89135439,2.71875088 4.71058246,2.92015439 4.63591579,3.14808421 C4.56223158,3.37699649 4.52489825,3.98513684 4.52489825,4.97250526 L4.52293333,7.3146807 L8.1413193,7.3146807 L8.1413193,9.24324211 L4.52096842,9.24324211 L4.50819649,24.6501193 L2.27802105,24.6501193 L2.27802105,9.24324211 L-0.000294736842,9.24324211 L-0.000294736842,7.3146807 L2.27802105,7.3146807 L2.27802105,4.60604912 C2.27802105,3.36324211 2.39198596,2.47706667 2.62089825,1.94555789 C2.84882807,1.41503158 3.23689825,0.986680702 3.78412632,0.662470175 C4.33135439,0.339242105 4.99156491,0.177136842 5.76672281,0.177136842 C6.48981053,0.177136842 7.35535439,0.325487719 8.36433684,0.62317193" id="Fill-1" fill="#E73836" mask="url(#mask-2)"></path>
                </g>
                <path d="M26.0667228,15.0357053 C25.7690386,13.8459509 25.3357754,12.8939509 24.7669333,12.1826526 C24.1971088,11.4723368 23.4445474,10.8985825 22.5092491,10.4633544 C21.5729684,10.0271439 20.5895298,9.8090386 19.5579509,9.8090386 C17.8563368,9.8090386 16.3934596,10.3552842 15.1703018,11.4497404 C14.2772491,12.2474947 13.6013193,13.4411789 13.1454596,15.0357053 L26.0667228,15.0357053 Z M26.0667228,19.7043368 L27.9471439,20.6926877 C27.3301614,21.9030737 26.6178807,22.8796351 25.8093193,23.6223719 C25.0017404,24.3670737 24.091986,24.9329684 23.0830035,25.3210386 C22.0730386,25.7081263 20.9294596,25.9026526 19.6542316,25.9026526 C16.8257404,25.9026526 14.6142316,24.975214 13.0197053,23.1213193 C11.4251789,21.268407 10.6274246,19.1728281 10.6274246,16.8355649 C10.6274246,14.6368281 11.3023719,12.6778105 12.6532491,10.9565474 C14.3646877,8.76861754 16.6557754,7.67514386 19.5265123,7.67514386 C22.4817404,7.67514386 24.8416,8.79514386 26.6070737,11.0371088 C27.8606877,12.6198456 28.4992842,14.5945825 28.5199158,16.9623018 L12.9214596,16.9623018 C12.9637053,18.9773193 13.607214,20.6268632 14.851986,21.9148632 C16.0967579,23.2028632 17.6333193,23.8473544 19.4616702,23.8473544 C20.3448982,23.8473544 21.2035649,23.6940912 22.0376702,23.3865825 C22.8737404,23.0800561 23.5830737,22.6703719 24.1676351,22.164407 C24.7531789,21.6554947 25.3858807,20.8361263 26.0667228,19.7043368 L26.0667228,19.7043368 Z" id="Fill-4" fill="#E73836"></path>
                <path d="M32.6781614,8.12009825 L34.9083368,8.12009825 L34.9083368,11.2266246 C35.8013895,10.0368702 36.7897404,9.14872982 37.872407,8.55729123 C38.9570386,7.9688 40.1350035,7.67504561 41.4102316,7.67504561 C42.7060912,7.67504561 43.8555649,8.00318596 44.8586526,8.66143158 C45.8637053,9.32164211 46.6044772,10.2078175 47.0819509,11.3229053 C47.5594246,12.437993 47.7991439,14.173993 47.7991439,16.5328702 L47.7991439,25.4555368 L45.567986,25.4555368 L45.567986,17.187186 C45.567986,15.1888702 45.4854596,13.8556772 45.320407,13.187607 C45.0610386,12.0400982 44.5668632,11.1765193 43.8329684,10.5968702 C43.1000561,10.0201684 42.1441263,9.73034386 40.9651789,9.73034386 C39.6152842,9.73034386 38.4068632,10.1753965 37.3389333,11.0674667 C36.2710035,11.9595368 35.5675649,13.0648 35.2286175,14.3812912 C35.0154246,15.2429053 34.9083368,16.8148351 34.9083368,19.0980632 L34.9083368,25.4555368 L32.6781614,25.4555368 L32.6781614,8.12009825 Z" id="Fill-6" fill="#E73836"></path>
                <path d="M60.9439158,9.82593684 C59.6794947,9.82593684 58.5064421,10.1314807 57.422793,10.741586 C56.3401263,11.3516912 55.4893193,12.1956211 54.8733193,13.2743579 C54.2573193,14.3521123 53.9498105,15.5192702 53.9498105,16.7719018 C53.9498105,18.6739368 54.5864421,20.2448842 55.8606877,21.4886737 C57.1359158,22.7304982 58.7874246,23.352393 60.8161965,23.352393 C62.8665825,23.352393 64.5161263,22.736393 65.7638456,21.504393 C67.0115649,20.272393 67.636407,18.6523228 67.636407,16.6432 C67.636407,15.3384982 67.3495298,14.1723228 66.7757754,13.1476211 C66.2020211,12.1229193 65.3885474,11.3133754 64.3373193,10.718007 C63.2860912,10.1236211 62.1543018,9.82593684 60.9439158,9.82593684 L60.9439158,9.82593684 Z M67.524407,8.12039298 L69.7555649,8.12039298 L69.7555649,21.9337263 C69.7555649,24.3672702 69.5423719,26.1455158 69.1169684,27.272393 C68.5333895,28.8649544 67.5185123,30.0930246 66.0752842,30.9526737 C64.6300912,31.8123228 62.8931088,32.2436211 60.8643368,32.2436211 C59.3768982,32.2436211 58.0417404,32.0333754 56.8568982,31.6128842 C55.6730386,31.1904281 54.7082667,30.6264982 53.9645474,29.9181474 C53.2218105,29.208814 52.5360561,28.1742877 51.9102316,26.8096561 L54.331986,26.8096561 C54.9902316,27.9571649 55.8420211,28.8069895 56.8834246,29.3601123 C57.926793,29.9102877 59.2187228,30.1873404 60.7611789,30.1873404 C62.2810386,30.1873404 63.5651088,29.904393 64.612407,29.3384982 C65.6606877,28.7706386 66.4083368,28.0593404 66.8543719,27.2026386 C67.3013895,26.3449544 67.524407,24.9596912 67.524407,23.048814 L67.524407,22.1567439 C66.684407,23.2197614 65.6587228,24.0352 64.4463719,24.6030596 C63.2340211,25.1709193 61.9470035,25.4548491 60.5863018,25.4548491 C58.9917754,25.4548491 57.4915649,25.0599018 56.0886175,24.2690246 C54.6846877,23.4771649 53.6000561,22.4121825 52.8347228,21.0740772 C52.0693895,19.7349895 51.6862316,18.2652351 51.6862316,16.6608842 C51.6862316,15.0565333 52.0851088,13.5622175 52.8828632,12.1749895 C53.6806175,10.7887439 54.7839158,9.69134035 56.1927579,8.88572632 C57.6016,8.07814737 59.0870737,7.67534035 60.6501614,7.67534035 C61.9470035,7.67534035 63.1573895,7.94158596 64.2793544,8.47898947 C65.4003368,9.01442807 66.4830035,9.8986386 67.524407,11.1306386 L67.524407,8.12039298 Z" id="Fill-8" fill="#E73836"></path>
                <path d="M82.8764632,9.82593684 C81.6346386,9.82593684 80.4881123,10.1314807 79.4388491,10.7396211 C78.3886035,11.3497263 77.5525333,12.2074105 76.9316211,13.3107088 C76.3107088,14.414007 76.0012351,15.5801825 76.0012351,16.8121825 C76.0012351,18.0333754 76.3136561,19.1995509 76.9394807,20.3126737 C77.5662877,21.4277614 78.4062877,22.2942877 79.4624281,22.9142175 C80.5185684,23.5361123 81.6503579,23.8465684 82.8597614,23.8465684 C84.0809544,23.8465684 85.2363228,23.5380772 86.3297965,22.9240421 C87.4222877,22.3080421 88.2622877,21.4749193 88.8517614,20.4236912 C89.4412351,19.3744281 89.7359719,18.1925333 89.7359719,16.8760421 C89.7359719,14.8708491 89.0747789,13.1937965 87.7533754,11.8468491 C86.4329544,10.4999018 84.8069895,9.82593684 82.8764632,9.82593684 L82.8764632,9.82593684 Z M91.7902877,8.12039298 L91.7902877,31.7966035 L89.5915509,31.7966035 L89.5915509,22.4750596 C88.6572351,23.6127439 87.6079719,24.4664982 86.4447439,25.0402526 C85.2815158,25.614007 84.0092351,25.9018667 82.6288842,25.9018667 C80.1756912,25.9018667 78.0801123,25.0117614 76.3441123,23.2325333 C74.6071298,21.4542877 73.7386386,19.2899368 73.7386386,16.7394807 C73.7386386,14.2430596 74.6149895,12.1091649 76.3676912,10.3348491 C78.1194105,8.56151579 80.2287439,7.67534035 82.6937263,7.67534035 C84.1163228,7.67534035 85.4033404,7.97597193 86.5567439,8.58214737 C87.7091649,9.18734035 88.7201123,10.0961123 89.5915509,11.3074807 L89.5915509,8.12039298 L91.7902877,8.12039298 Z" id="Fill-10" fill="#E73836"></path>
                <path d="M96.5071579,8.12009825 L98.7383158,8.12009825 L98.7383158,16.2135719 C98.7383158,18.1902737 98.8444211,19.5509754 99.0566316,20.2937123 C99.3759298,21.3567298 99.9850526,22.1947649 100.884,22.8107649 C101.781965,23.4267649 102.854807,23.7342737 104.099579,23.7342737 C105.343368,23.7342737 106.399509,23.4346246 107.266035,22.8343439 C108.133544,22.2350456 108.73186,21.4461333 109.061965,20.467607 C109.284982,19.8005193 109.396982,18.3818526 109.396982,16.2135719 L109.396982,8.12009825 L111.675298,8.12009825 L111.675298,16.6281684 C111.675298,19.0194667 111.396281,20.8193263 110.839228,22.0297123 C110.281193,23.2410807 109.442175,24.1881684 108.321193,24.8739228 C107.201193,25.5586947 105.796281,25.9025544 104.106456,25.9025544 C102.418596,25.9025544 101.007789,25.5586947 99.8769825,24.8739228 C98.745193,24.1881684 97.9012632,23.2332211 97.3442105,22.0071158 C96.785193,20.7790456 96.5071579,18.9330105 96.5071579,16.4690105 L96.5071579,8.12009825 Z" id="Fill-12" fill="#E73836"></path>
            </g>
            <text id="Open-Service-Platfor" font-family="ArialMT, Arial" font-size="24" font-weight="normal" fill="#444444">
                <tspan x="184" y="33.4331826">Open Service Platform</tspan>
            </text>
        </g>
    </g>
</svg>