<?xml version="1.0" encoding="UTF-8" standalone="no"?>
<svg width="285px" height="50px" viewBox="0 0 285 50" version="1.1" xmlns="http://www.w3.org/2000/svg" xmlns:xlink="http://www.w3.org/1999/xlink">
    <!-- Generator: Sketch 3.6.1 (26313) - http://www.bohemiancoding.com/sketch -->
    <title>Group 4</title>
    <desc>Created with Sketch.</desc>
    <defs></defs>
    <g id="Page-3" stroke="none" stroke-width="1" fill="none" fill-rule="evenodd">
        <g id="首页" transform="translate(-210.000000, -20.000000)">
            <g id="Group-4" transform="translate(210.000000, 20.000000)">
                <g id="Group" transform="translate(56.097561, 13.195122)" fill="#3E3A39">
                    <path d="M62.5931332,0.914071295 C62.567242,0.914071295 62.5554221,0.905628518 62.5537336,0.892120075 L57.8201501,0.892120075 L57.8201501,2.83508443 L63.2544841,2.83508443 L63.2544841,1.57598499 L63.2544841,1.57542214 C63.2544841,1.21069418 62.958424,0.914071295 62.5931332,0.914071295" id="Fill-8"></path>
                    <path d="M91.4582552,0.914071295 C91.4340525,0.914071295 91.4211069,0.905628518 91.4166041,0.892120075 L86.6847092,0.892120075 L86.6847092,2.83508443 L92.119606,2.83508443 L92.119606,1.57598499 L92.119606,1.57542214 C92.119606,1.21069418 91.823546,0.914071295 91.4582552,0.914071295" id="Fill-11"></path>
                    <path d="M111.834615,5.06318949 C111.602158,3.20465291 110.014353,1.80202627 108.140056,1.80202627 L97.2100375,1.80202627 C97.3535647,1.27969981 97.4340525,0.732045028 97.4340525,0.164690432 L95.4910882,0.164690432 C95.4910882,1.63485929 94.7396811,2.9327955 93.6010319,3.69489681 L93.6010319,5.88776735 C94.6856473,5.43917448 95.613227,4.68945591 96.2858349,3.74611632 L108.140056,3.74611632 C109.018105,3.74611632 109.763884,4.38889306 109.898968,5.25061914 L109.898968,20.2911445 L109.89728,20.2911445 C109.89728,21.2750094 109.096904,22.0995872 108.114165,22.0995872 L108.114165,24.0431144 C110.168574,24.0431144 111.840244,22.3461163 111.840244,20.2911445 L111.841932,20.2911445 L111.841932,5.18363977 L111.834615,5.06318949 Z" id="Fill-1"></path>
                    <path d="M41.4446529,12.9056285 L44.6838649,12.9056285 L44.6838649,16.5833021 L41.4446529,16.5833021 L41.4446529,12.9056285 Z M44.6838649,5.49906191 L41.4446529,5.49906191 L41.4446529,2.54803002 L44.6838649,2.54803002 L44.6838649,5.49906191 Z M41.4446529,7.44202627 L44.6838649,7.44202627 L44.6838649,10.9621013 L41.4446529,10.9621013 L41.4446529,7.44202627 Z M52.688743,14.6560976 C55.008818,10.3148218 54.9795497,5.91669794 54.9795497,4.02270169 C54.9795497,1.57317073 53.1902439,0.719324578 52.2452158,0.60956848 L47.8116323,0.603377111 L47.8116323,2.54746717 L52.0645403,2.54746717 C52.2716698,2.58461538 53.0360225,2.80694184 53.0360225,4.02270169 C53.0360225,5.64484053 53.0337711,8.97129456 51.6148218,12.4142589 C50.0765478,8.42701689 50.3281426,4.5804878 50.3320826,4.51857411 L48.3924953,4.39080675 C48.3863039,4.49549719 48.2292683,6.98893058 48.8883677,10.1121951 C49.232833,11.7461538 49.7382739,13.2934334 50.4446529,14.7067542 C49.6921201,15.9202627 48.7228893,17.1045028 47.4694184,18.1874296 L47.4694184,17.2452158 C47.4694184,16.879925 47.1727955,16.5833021 46.8080675,16.5833021 L46.6268293,16.5833021 L46.6268293,2.54746717 L47.4694184,2.54746717 L47.4694184,1.26529081 L47.4694184,1.26472795 C47.4694184,0.9 47.1727955,0.603377111 46.8080675,0.603377111 L38.6298311,0.603377111 L38.6298311,2.54746717 L39.5011257,2.54746717 L39.5011257,16.5833021 L38.6298311,16.5833021 L38.6298311,18.5273921 L44.6838649,18.5273921 L44.6838649,20.5795497 L45.9654784,20.5795497 C46.3307692,20.5795497 46.6268293,20.282364 46.6268293,19.917636 L46.6268293,18.5273921 L47.4694184,18.5273921 L47.4694184,20.5795497 C49.1844278,19.3418386 50.5043152,17.9600375 51.5258912,16.530394 C52.5311445,17.9611632 53.8155722,19.1909944 55.4450281,20.1467167 L55.4450281,17.9814259 C54.2838649,16.9930582 53.3866792,15.8493433 52.688743,14.6560976 L52.688743,14.6560976 Z" id="Fill-3"></path>
                    <path d="M25.6308818,1.97121951 L14.3074296,1.97121951 L14.3074296,0.164465291 L12.3639024,0.164465291 L12.3639024,1.97121951 L0.379099437,1.97121951 L0.379099437,3.91530957 L12.3639024,3.91530957 L12.3639024,9.96146341 L0.379099437,9.96146341 L0.379099437,11.9049906 L12.3639024,11.9049906 L12.3639024,17.9517073 L0.379099437,17.9517073 L0.379099437,19.8952345 L12.3639024,19.8952345 L12.3639024,23.8171857 L13.6460788,23.8171857 C14.0113696,23.8171857 14.3074296,23.5216886 14.3074296,23.1563977 L14.3074296,19.8952345 L26.2927955,19.8952345 L26.2927955,18.6046154 C26.2927955,18.2674672 26.0389493,17.9927955 25.7130582,17.9517073 L14.3074296,17.9517073 L14.3074296,11.9049906 L26.2927955,11.9049906 L26.2927955,10.6211257 L26.2927955,10.62 C26.2927955,10.2620263 26.0074296,9.9732833 25.6522702,9.96146341 L14.3074296,9.96146341 L14.3074296,3.91530957 L26.2927955,3.91530957 L26.2927955,2.63313321 L26.2927955,2.63257036 C26.2927955,2.2678424 25.9961726,1.97121951 25.6308818,1.97121951" id="Fill-5"></path>
                    <path d="M83.0033208,2.02181989 C82.9892495,2.02181989 82.9802439,2.02013133 82.972364,2.01619137 L68.9764916,1.97510319 C69.1521013,1.40212008 69.248349,0.794803002 69.248349,0.164971857 L67.3048218,0.164971857 C67.3048218,1.63514071 66.5528518,2.93251407 65.4147655,3.69461538 L65.4147655,5.88748593 C66.4329644,5.4664728 67.3132645,4.77923077 67.9740525,3.91581614 L83.6584803,3.96196998 L83.6624203,2.66572233 C83.6522889,2.3088743 83.3618574,2.02181989 83.0033208,2.02181989" id="Fill-6"></path>
                    <path d="M80.674409,20.2909756 C80.674409,21.0958537 80.0198124,21.7572045 79.2154972,21.7662101 L68.8213133,21.7662101 C68.0147467,21.7594559 67.3578987,21.0969794 67.3578987,20.2915385 L67.3578987,15.5759662 L73.0443902,15.5759662 L73.0443902,18.9587054 L74.3260038,18.9587054 C74.6912946,18.9587054 74.9879174,18.6632083 74.9879174,18.2979174 L74.9879174,15.5759662 L80.674409,15.5759662 L80.674409,20.2909756 Z M67.3578987,9.92606004 C67.3578987,9.11217636 68.0203752,8.45026266 68.8348218,8.45026266 L79.1980488,8.45026266 C80.0119325,8.45026266 80.674409,9.11217636 80.674409,9.92662289 L80.674409,13.632439 L74.9879174,13.632439 L74.9879174,10.249137 L73.0443902,10.249137 L73.0443902,13.632439 L67.3578987,13.632439 L67.3578987,9.92606004 Z M82.9843527,13.632439 L82.6179362,13.632439 L82.6179362,9.92662289 C82.6179362,8.04050657 81.0836023,6.50673546 79.1980488,6.50673546 L68.8348218,6.50673546 C66.9492683,6.50673546 65.4154972,8.04050657 65.4143715,9.92606004 L65.4143715,13.632439 L64.3866041,13.632439 L64.3866041,15.5759662 L65.4143715,15.5759662 L65.4143715,20.2915385 C65.4154972,22.1590807 66.935197,23.6928518 68.8123077,23.7097373 L79.2245028,23.7097373 L79.2290056,23.7097373 C81.0971107,23.6928518 82.6179362,22.1585178 82.6179362,20.2909756 L82.6179362,15.5759662 L83.6457036,15.5759662 L83.6457036,14.293227 C83.6457036,13.9284991 83.3496435,13.632439 82.9843527,13.632439 L82.9843527,13.632439 Z" id="Fill-7"></path>
                    <path d="M62.5931332,10.5605066 L57.8201501,10.5605066 L57.8201501,12.5045966 L63.2544841,12.5045966 L63.2544841,11.2224203 C63.2544841,10.8571295 62.958424,10.5605066 62.5931332,10.5605066" id="Fill-9"></path>
                    <path d="M62.7702627,21.2804128 L57.8205441,21.2804128 L57.8205441,23.22394 L63.2543152,23.22394 L63.2543152,21.9147467 C63.2543152,21.6113696 63.0494371,21.3586492 62.7702627,21.2804128" id="Fill-10"></path>
                    <path d="M107.332364,6.90208255 L97.6226079,6.90208255 C97.6935272,6.56662289 97.7351782,6.22046904 97.7351782,5.86418386 L95.791651,5.86418386 C95.791651,7.11427767 95.0340525,8.18988743 93.9550657,8.65930582 L93.9550657,10.7063977 C95.085272,10.4232833 96.061257,9.75236398 96.7394934,8.84617261 L99.9972795,8.84617261 L99.9798311,12.8407317 L94.1706379,12.8407317 L94.1706379,14.7842589 L99.9713884,14.7842589 L99.94606,20.6148405 L96.9972795,20.6148405 C96.6888368,20.6148405 96.4389306,20.3643715 96.4389306,20.0559287 L96.4389306,16.4756285 L94.4954034,16.4756285 L94.4954034,20.0559287 C94.4954034,21.4354784 95.6182927,22.5583677 96.9972795,22.5583677 L104.373452,22.5583677 C105.753002,22.5583677 106.875891,21.4354784 106.875891,20.0553659 L106.875891,16.4756285 L104.932364,16.4756285 L104.932364,20.0559287 C104.932364,20.3643715 104.681332,20.6148405 104.373452,20.6148405 L101.889587,20.6148405 L101.914916,14.7842589 L107.775891,14.7842589 L107.775891,13.5026454 C107.775891,13.1367917 107.479268,12.8407317 107.11454,12.8407317 L101.923358,12.8407317 L101.940807,8.84617261 L107.775891,8.84617261 L107.775891,7.52403377 L107.775891,7.52347092 C107.775891,7.23585366 107.59015,6.99326454 107.332364,6.90208255" id="Fill-12"></path>
                    <path d="M91.4582552,10.5605066 L86.6847092,10.5605066 L86.6847092,12.5045966 L92.119606,12.5045966 L92.119606,11.2224203 C92.119606,10.8571295 91.823546,10.5605066 91.4582552,10.5605066" id="Fill-13"></path>
                    <path d="M91.634878,21.2804128 L86.6845966,21.2804128 L86.6845966,23.22394 L92.1194934,23.22394 L92.1194934,21.9147467 C92.1194934,21.6113696 91.9134897,21.3586492 91.634878,21.2804128" id="Fill-14"></path>
                    <path d="M54.7833396,21.9012946 C54.7490056,21.9012946 54.7338086,21.8832833 54.7264916,21.857955 L35.2540713,21.857955 L35.2540713,16.0082364 L38.1690807,16.0082364 L38.1690807,14.7254972 C38.1690807,14.3607692 37.8735835,14.0641463 37.5077298,14.0641463 L35.2540713,14.0641463 L35.2540713,9.81742964 L38.1690807,9.81742964 L38.1690807,8.54144465 L38.1690807,8.54031895 C38.1690807,8.17559099 37.8735835,7.87953096 37.5077298,7.87953096 C37.4959099,7.87953096 37.4863415,7.87727955 37.4773358,7.87446529 L35.2540713,7.87446529 L35.2540713,3.91536585 L38.1690807,3.91536585 L38.1690807,2.64894934 C38.1685178,2.64388368 38.1673921,2.63938086 38.1673921,2.63262664 C38.1673921,2.26733583 37.8713321,1.9712758 37.5054784,1.9712758 L35.2540713,1.9712758 L35.2540713,0.164521576 L33.3105441,0.164521576 L33.3105441,1.9712758 L29.3294934,1.9712758 L29.3294934,3.91536585 L33.3105441,3.91536585 L33.3105441,7.87446529 L29.3294934,7.87446529 L29.3294934,9.81742964 L33.3105441,9.81742964 L33.3105441,21.7369418 C32.6441276,21.4830957 32.1668293,20.8436961 32.1606379,20.0900375 C32.1606379,20.0849719 32.1612008,20.0799062 32.1612008,20.0748405 L32.1589493,20.0748405 L32.1589493,12.5095497 L30.2154221,12.5095497 L30.2154221,20.0748405 C30.2154221,20.080469 30.215985,20.0855347 30.215985,20.0911632 C30.2069794,20.8977298 29.5495685,21.5517636 28.7407505,21.5517636 L28.7407505,23.4952908 C29.6711445,23.4952908 30.5154221,23.1204315 31.1323077,22.5153659 C31.8161726,23.3011069 32.820863,23.8009193 33.9415009,23.8014822 L33.9415009,23.8014822 L55.4452533,23.8014822 L55.4452533,22.5626454 C55.4452533,22.1973546 55.1486304,21.9012946 54.7833396,21.9012946" id="Fill-15"></path>
                </g>
                <path d="M49.2748593,24.6365854 C49.2748593,38.2435272 38.2440901,49.2737336 24.6377111,49.2737336 C11.0307692,49.2737336 0,38.2435272 0,24.6365854 C0,11.0290807 11.0307692,0 24.6377111,0 C38.2440901,0 49.2748593,11.0290807 49.2748593,24.6365854" id="Fill-16" fill="#E73836"></path>
                <path d="M32.0012758,43.0595685 C30.6645028,43.0595685 29.5770732,41.9721388 29.5770732,40.6353659 L29.5770732,36.4950281 C29.5770732,36.1179174 29.8827017,35.8128518 30.2598124,35.8128518 C30.6363602,35.8128518 30.9419887,36.1179174 30.9419887,36.4950281 L30.9419887,40.6353659 C30.9419887,41.219606 31.4170356,41.6946529 32.0012758,41.6946529 C32.5855159,41.6946529 33.0611257,41.219606 33.0611257,40.6353659 C33.0611257,40.2582552 33.3667542,39.9526266 33.7433021,39.9526266 C34.1204128,39.9526266 34.4260413,40.2582552 34.4260413,40.6353659 C34.4260413,41.9721388 33.3380488,43.0595685 32.0012758,43.0595685" id="Fill-35" fill="#FEFEFE"></path>
                <path d="M35.0796248,24.1373358 C34.7030769,24.1373358 34.3974484,23.8317073 34.3974484,23.4551595 C34.3974484,22.7482176 33.8227767,22.173546 33.1163977,22.173546 C32.4094559,22.173546 31.8347842,22.7482176 31.8347842,23.4551595 C31.8347842,23.8317073 31.5291557,24.1373358 31.1526079,24.1373358 C30.7754972,24.1373358 30.4698687,23.8317073 30.4698687,23.4551595 C30.4698687,21.9956848 31.6569231,20.8086304 33.1163977,20.8086304 C34.5753096,20.8086304 35.7618011,21.9956848 35.7618011,23.4551595 C35.7618011,23.8317073 35.4567355,24.1373358 35.0796248,24.1373358" id="Fill-36" fill="#FEFEFE"></path>
                <path d="M18.1572045,24.1373358 C17.7800938,24.1373358 17.4750281,23.8317073 17.4750281,23.4551595 C17.4750281,22.7482176 16.8997936,22.173546 16.1934146,22.173546 C15.4870356,22.173546 14.912364,22.7482176 14.912364,23.4551595 C14.912364,23.8317073 14.6067355,24.1373358 14.2296248,24.1373358 C13.8530769,24.1373358 13.5474484,23.8317073 13.5474484,23.4551595 C13.5474484,21.9956848 14.7345028,20.8086304 16.1934146,20.8086304 C17.6528893,20.8086304 18.8393809,21.9956848 18.8393809,23.4551595 C18.8393809,23.8317073 18.5337523,24.1373358 18.1572045,24.1373358" id="Fill-37" fill="#FEFEFE"></path>
                <path d="M22.7629081,43.0669418 C22.3857974,43.0669418 22.0807317,42.7613133 22.0807317,42.3847655 L22.0807317,37.5076548 C22.0807317,37.1305441 22.3857974,36.8254784 22.7629081,36.8254784 C23.1394559,36.8254784 23.4450844,37.1305441 23.4450844,37.5076548 L23.4450844,42.3847655 C23.4450844,42.7613133 23.1394559,43.0669418 22.7629081,43.0669418" id="Fill-38" fill="#FEFEFE"></path>
                <path d="M26.5112758,43.0669418 C26.134728,43.0669418 25.8290994,42.7613133 25.8290994,42.3847655 L25.8290994,37.5076548 C25.8290994,37.1305441 26.134728,36.8254784 26.5112758,36.8254784 C26.8883865,36.8254784 27.1934522,37.1305441 27.1934522,37.5076548 L27.1934522,42.3847655 C27.1934522,42.7613133 26.8883865,43.0669418 26.5112758,43.0669418" id="Fill-39" fill="#FEFEFE"></path>
                <path d="M17.3325704,43.0595685 C16.0290056,43.0595685 14.96803,41.9985929 14.96803,40.6950281 C14.96803,40.3184803 15.2736585,40.0128518 15.6507692,40.0128518 C16.0273171,40.0128518 16.3329456,40.3184803 16.3329456,40.6950281 C16.3329456,41.24606 16.7815385,41.6946529 17.3325704,41.6946529 C17.8841651,41.6946529 18.332758,41.24606 18.332758,40.6950281 L18.332758,36.495591 C18.332758,36.1184803 18.6378236,35.8128518 19.0149343,35.8128518 C19.3914822,35.8128518 19.6971107,36.1184803 19.6971107,36.495591 L19.6971107,40.6950281 C19.6971107,41.9985929 18.6366979,43.0595685 17.3325704,43.0595685" id="Fill-40" fill="#FEFEFE"></path>
                <path d="M24.6547655,25.9742026 C23.3748405,25.9742026 22.3330019,27.0154784 22.3330019,28.2954034 C22.3330019,29.5758912 23.3748405,30.617167 24.6547655,30.617167 C25.9346904,30.617167 26.9759662,29.5758912 26.9759662,28.2954034 C26.9759662,27.0154784 25.9346904,25.9742026 24.6547655,25.9742026 M24.6547655,31.9820826 C22.6223077,31.9820826 20.9680863,30.328424 20.9680863,28.2954034 C20.9680863,26.2629456 22.6223077,24.6092871 24.6547655,24.6092871 C26.6872233,24.6092871 28.3408818,26.2629456 28.3408818,28.2954034 C28.3408818,30.328424 26.6872233,31.9820826 24.6547655,31.9820826" id="Fill-41" fill="#FEFEFE"></path>
                <path d="M30.5110694,37.1300938 L30.0084428,35.8614259 C35.608818,33.6426642 39.2273921,28.3158349 39.2273921,22.2916323 C39.2273921,14.2462289 32.6825516,7.70138837 24.6371482,7.70138837 C16.5923077,7.70138837 10.0474672,14.2462289 10.0474672,22.2916323 C10.0474672,28.3158349 13.6654784,33.6421013 19.2658537,35.860863 L18.763227,37.129531 C15.8234522,35.9649906 13.3148218,33.9702439 11.5091932,31.3603002 C9.65966229,28.6884428 8.68255159,25.5522326 8.68255159,22.2916323 C8.68255159,13.4936961 15.8397749,6.3364728 24.6371482,6.3364728 C33.4350844,6.3364728 40.5923077,13.4936961 40.5923077,22.2916323 C40.5923077,25.5527955 39.6146341,28.6884428 37.765666,31.3603002 C35.9594747,33.9702439 33.4508443,35.9655535 30.5110694,37.1300938" id="Fill-42" fill="#FEFEFE"></path>
                <path d="M176.219512,14.6341463 L176.219512,36.5853659" id="Line" stroke="#3F3A3A" stroke-linecap="square"></path>
                <path d="M193.596341,24.0768293 L193.596341,23.0012195 L193.596341,16.8292683 L200.715854,16.8292683 L200.715854,24.0768293 L193.596341,24.0768293 Z M208.347561,24.0768293 L202.662195,24.0768293 L202.662195,16.8292683 L207.553659,16.8292683 L207.553659,15.0109756 L186.528049,15.0109756 L186.528049,16.8292683 L191.67561,16.8292683 L191.67561,22.9756098 C191.67561,23.3597561 191.67561,23.6926829 191.65,24.0768293 L185.580488,24.0768293 L185.580488,25.9207317 L191.573171,25.9207317 C191.214634,29.3780488 189.908537,32.8097561 185.657317,35.4219512 C186.118293,35.7292683 186.809756,36.395122 187.168293,36.8304878 C191.854878,33.8853659 193.160976,29.9158537 193.519512,25.9207317 L200.715854,25.9207317 L200.715854,36.7536585 L202.662195,36.7536585 L202.662195,25.9207317 L208.347561,25.9207317 L208.347561,24.0768293 Z M218.130488,16.7012195 C217.87439,15.7792683 217.285366,14.3707317 216.747561,13.295122 L215.108537,13.7817073 C215.595122,14.8573171 216.184146,16.3170732 216.414634,17.2646341 L218.130488,16.7012195 Z M215.8,22.6426829 L215.8,19.2365854 L222.253659,19.2365854 L222.253659,17.4695122 L210.959756,17.4695122 L210.959756,19.2365854 L213.981707,19.2365854 L213.981707,24.5378049 C213.981707,28.1487805 213.597561,32.1695122 210.49878,35.4731707 C210.959756,35.7804878 211.57439,36.2926829 211.907317,36.702439 C215.287805,33.0914634 215.8,28.7634146 215.8,24.5634146 L215.8,24.3841463 L219.257317,24.3841463 C219.103659,31.4012195 218.92439,33.8597561 218.489024,34.4231707 C218.309756,34.704878 218.079268,34.7817073 217.746341,34.7817073 C217.336585,34.7817073 216.389024,34.7560976 215.339024,34.6536585 C215.620732,35.1658537 215.8,35.9085366 215.85122,36.4207317 C216.926829,36.497561 217.95122,36.497561 218.591463,36.4207317 C219.257317,36.3439024 219.692683,36.1390244 220.102439,35.6012195 C220.742683,34.704878 220.921951,31.8878049 221.10122,23.5134146 C221.126829,23.2573171 221.126829,22.6426829 221.126829,22.6426829 L215.8,22.6426829 Z M230.52561,19.8512195 C230.039024,23.1292683 229.270732,25.8695122 228.067073,28.1743902 C226.940244,25.8439024 226.171951,23.1036585 225.634146,20.1073171 C225.659756,20.0304878 225.685366,19.9280488 225.736585,19.8512195 L230.52561,19.8512195 Z M234.290244,19.8512195 L234.290244,18.0841463 L226.3,18.0841463 C226.709756,16.65 227.042683,15.1390244 227.35,13.6280488 L225.429268,13.3207317 C224.635366,17.7 223.226829,21.9768293 221.152439,24.6658537 C221.587805,24.9987805 222.330488,25.7414634 222.637805,26.1 C223.303659,25.152439 223.943902,24.102439 224.481707,22.9243902 C225.121951,25.5621951 225.915854,27.9695122 226.965854,30.0439024 C225.480488,32.195122 223.482927,33.8853659 220.819512,35.1146341 C221.178049,35.5243902 221.741463,36.3439024 221.920732,36.7792683 C224.456098,35.4731707 226.453659,33.8341463 227.990244,31.8109756 C229.321951,33.8853659 231.037805,35.55 233.189024,36.6768293 C233.496341,36.1390244 234.085366,35.4219512 234.520732,35.0378049 C232.267073,33.9878049 230.52561,32.2719512 229.142683,30.095122 C230.730488,27.3292683 231.780488,23.9743902 232.420732,19.8512195 L234.290244,19.8512195 Z M259.592683,25.8695122 L249.092683,25.8695122 L249.092683,16.9317073 L258.158537,16.9317073 L258.158537,15.0621951 L238.131707,15.0621951 L238.131707,16.9317073 L247.146341,16.9317073 L247.146341,25.8695122 L236.8,25.8695122 L236.8,27.7390244 L247.146341,27.7390244 L247.146341,36.702439 L249.092683,36.702439 L249.092683,27.7390244 L259.592683,27.7390244 L259.592683,25.8695122 Z M239.92439,18.6987805 C240.897561,20.5682927 241.870732,23.052439 242.229268,24.5634146 L244.021951,23.9487805 C243.689024,22.4378049 242.639024,20.0304878 241.589024,18.1865854 L239.92439,18.6987805 Z M253.497561,24.6402439 C254.496341,23.1036585 255.72561,20.6707317 256.647561,18.6219512 L254.65,18.0585366 C254.009756,19.902439 252.831707,22.5146341 251.884146,24.102439 L253.497561,24.6402439 Z M279.926829,27.8158537 L279.926829,33.4756098 L267.557317,33.4756098 L267.557317,27.8158537 L279.926829,27.8158537 Z M265.636585,36.702439 L267.557317,36.702439 L267.557317,35.3195122 L279.926829,35.3195122 L279.926829,36.6512195 L281.92439,36.6512195 L281.92439,25.997561 L265.636585,25.997561 L265.636585,36.702439 Z M276.290244,17.2134146 C277.519512,18.3146341 278.82561,19.6463415 280.003659,20.9780488 L266.942683,21.6182927 C269.196341,19.4926829 271.47561,16.854878 273.49878,14.0890244 L271.629268,13.2439024 C269.631707,16.4195122 266.660976,19.6463415 265.739024,20.4658537 C264.893902,21.3109756 264.228049,21.8743902 263.664634,21.9768293 C263.869512,22.4890244 264.202439,23.4365854 264.279268,23.8463415 C265.278049,23.4878049 266.763415,23.4365854 281.386585,22.6170732 C282.026829,23.4109756 282.564634,24.1536585 282.94878,24.8195122 L284.562195,23.6670732 C283.230488,21.5414634 280.285366,18.4170732 277.80122,16.2402439 L276.290244,17.2134146 Z" id="开放平台" fill="#3E3A39"></path>
            </g>
        </g>
    </g>
</svg>