<?xml version="1.0" encoding="UTF-8" standalone="no"?>
<svg width="20px" height="20px" viewBox="0 0 20 20" version="1.1" xmlns="http://www.w3.org/2000/svg" xmlns:xlink="http://www.w3.org/1999/xlink" xmlns:sketch="http://www.bohemiancoding.com/sketch/ns">
    <!-- Generator: Sketch 3.4.4 (17249) - http://www.bohemiancoding.com/sketch -->
    <title>Clip 5 Copy + Path</title>
    <desc>Created with Sketch.</desc>
    <defs>
        <path id="path-1" d="M10,19.9996353 C15.5228508,19.9996353 20,15.5228508 20,10 C20,4.47714921 15.5228508,0 10,0 C4.47714921,0 0,4.47714921 0,10 C0,15.5228508 4.47714921,19.9996353 10,19.9996353 L10,19.9996353 Z"></path>
    </defs>
    <g id="Page-1" stroke="none" stroke-width="1" fill="none" fill-rule="evenodd" sketch:type="MSPage">
        <g id="9.-设置密码" sketch:type="MSArtboardGroup" transform="translate(-798.000000, -550.000000)">
            <g id="Clip-5-Copy-+-Path" sketch:type="MSLayerGroup" transform="translate(798.000000, 550.000000)">
                <mask id="mask-2" sketch:name="Clip 5 Copy" fill="white">
                    <use xlink:href="#path-1"></use>
                </mask>
                <use id="Clip-5-Copy" fill="#00AAEE" sketch:type="MSShapeGroup" xlink:href="#path-1"></use>
                <path d="M8.96986687,6.04873016 L8.96986687,4.44444444 L10.7445097,4.44444444 L10.7445097,6.04873016 L14.3666526,6.04873016 L14.3666526,6.7540873 L10.7445097,6.77837302 L10.7445097,7.77480159 L13.735224,7.7990873 C13.735224,7.7990873 13.6812954,8.35837302 13.3020097,9.37515873 C12.9234383,10.3923016 12.567724,10.910873 12.567724,10.910873 L18.3705812,12.8148016 C18.3705812,12.8148016 18.1623669,13.3594444 17.9116526,13.8369444 C17.6605812,14.3144444 17.3112954,14.828373 17.3112954,14.828373 L11.7655812,12.1994444 C11.7655812,12.1994444 10.7166526,13.3590873 9.64700973,13.8698016 C8.57736687,14.3801587 7.34915259,14.6976587 6.01915259,14.3840873 C4.68879545,14.0705159 3.74486687,13.2198016 3.90700973,11.6498016 C4.06986687,10.0790873 5.7484383,9.53765873 7.12879545,9.53765873 C8.50986687,9.53765873 11.1298669,10.4323016 11.1298669,10.4323016 C11.1298669,10.4323016 11.3498669,9.9390873 11.5637954,9.37515873 C11.777724,8.8115873 11.8384383,8.35837302 11.8384383,8.35837302 L6.25950973,8.35837302 L6.25950973,7.7990873 L8.96986687,7.7990873 L8.96986687,6.72944444 L5.5909383,6.7540873 L5.5909383,6.04873016 L8.96986687,6.04873016 Z M10.4620097,11.550873 C10.4620097,11.550873 8.8009383,13.5240873 6.84415259,13.5240873 C4.88700973,13.5240873 4.4759383,12.5869444 4.4759383,11.9126587 C4.4759383,11.238373 4.88272402,10.5055159 6.54808116,10.3998016 C8.21308116,10.2937302 10.4620097,11.550873 10.4620097,11.550873 Z" id="Path" fill="#FFFFFF" sketch:type="MSShapeGroup"></path>
            </g>
        </g>
    </g>
</svg>