<?xml version="1.0" encoding="UTF-8" standalone="no"?>
<svg width="13px" height="14px" viewBox="0 0 13 14" version="1.1" xmlns="http://www.w3.org/2000/svg" xmlns:xlink="http://www.w3.org/1999/xlink" xmlns:sketch="http://www.bohemiancoding.com/sketch/ns">
    <!-- Generator: Sketch 3.2.2 (9983) - http://www.bohemiancoding.com/sketch -->
    <title>Stroke 105</title>
    <desc>Created with Sketch.</desc>
    <defs></defs>
    <g id="Page-1" stroke="none" stroke-width="1" fill="none" fill-rule="evenodd" sketch:type="MSPage">
        <g id="楼层" sketch:type="MSLayerGroup" transform="translate(-564.000000, -1041.000000)" fill="#FFFFFF">
            <path d="M570.5,1048.628 C571.944577,1048.628 573.223416,1047.71581 573.76471,1046.35251 L573.3,1046.168 L573.163498,1046.64901 C573.2825,1046.68278 573.407464,1046.7 573.533,1046.7 C574.288142,1046.7 574.9,1046.08814 574.9,1045.333 C574.9,1044.57861 574.287898,1043.967 573.533,1043.967 L573.5,1043.967 L573.5,1044.467 L573.995033,1044.3967 C573.740543,1042.60476 572.261681,1041.254 570.5,1041.254 C568.738319,1041.254 567.259457,1042.60476 567.004967,1044.3967 L567.5,1044.467 L567.5,1043.967 L567.467,1043.967 C566.712102,1043.967 566.1,1044.57861 566.1,1045.333 C566.1,1046.08814 566.711858,1046.7 567.467,1046.7 C567.592536,1046.7 567.7175,1046.68278 567.836502,1046.64901 L567.7,1046.168 L567.23529,1046.35251 C567.776584,1047.71581 569.055423,1048.628 570.5,1048.628 Z M567.998027,1045.56368 L567.563498,1045.68699 C567.533732,1045.69544 567.50065,1045.7 567.467,1045.7 C567.264142,1045.7 567.1,1045.53586 567.1,1045.333 C567.1,1045.13108 567.264208,1044.967 567.467,1044.967 L567.5,1044.967 L567.934007,1044.967 L567.995033,1044.5373 C568.180972,1043.22805 569.247396,1042.254 570.5,1042.254 C571.752604,1042.254 572.819028,1043.22805 573.004967,1044.5373 L573.065993,1044.967 L573.5,1044.967 L573.533,1044.967 C573.735792,1044.967 573.9,1045.13108 573.9,1045.333 C573.9,1045.53586 573.735858,1045.7 573.533,1045.7 C573.49935,1045.7 573.466268,1045.69544 573.436502,1045.68699 L573.001973,1045.56368 L572.83529,1045.98349 C572.441968,1046.97411 571.525245,1047.628 570.5,1047.628 C569.474755,1047.628 568.558032,1046.97411 568.16471,1045.98349 L567.998027,1045.56368 Z M565.076898,1050.49812 L565.00896,1050.73982 C565.064554,1050.64445 565.209264,1050.471 565.450053,1050.2909 C566.202309,1049.72826 567.282797,1049.57862 568.804403,1050.13827 L568.587117,1049.98204 L570.196117,1051.98604 L570.604046,1052.49411 L570.98926,1051.9686 L572.45826,1049.9646 L572.290634,1050.11 C572.350248,1050.07814 572.479428,1050.02193 572.663347,1049.96358 C573.492767,1049.70041 574.37588,1049.72935 575.202188,1050.24354 C575.475334,1050.41351 575.737286,1050.63509 575.986433,1050.91346 L575.859,1050.58 L575.859,1053.994 L576.359,1053.494 L564.506,1053.494 L565.005898,1054.00412 L565.076898,1050.49812 Z M563.995772,1054.494 L564.506,1054.494 L576.359,1054.494 L576.859,1054.494 L576.859,1053.994 L576.859,1050.58 L576.859,1050.38892 L576.731567,1050.24654 C576.419902,1049.89832 576.085202,1049.61522 575.730524,1049.39451 C574.622458,1048.70498 573.445111,1048.6664 572.360913,1049.01041 C572.114611,1049.08856 571.930068,1049.16885 571.819366,1049.228 L571.65174,1049.3734 L570.18274,1051.3774 L570.975883,1051.35996 L569.366883,1049.35596 L569.279937,1049.24767 L569.149597,1049.19973 C567.312775,1048.52415 565.876684,1048.72305 564.85111,1049.49011 C564.492761,1049.75814 564.263603,1050.0328 564.14504,1050.23618 L564.079728,1050.34822 L564.077102,1050.47788 L564.006102,1053.98388 L563.995772,1054.494 Z" id="Stroke-105" sketch:type="MSShapeGroup"></path>
        </g>
    </g>
</svg>