<?xml version="1.0" encoding="UTF-8" standalone="no"?>
<svg width="17px" height="17px" viewBox="0 0 17 17" version="1.1" xmlns="http://www.w3.org/2000/svg" xmlns:xlink="http://www.w3.org/1999/xlink" xmlns:sketch="http://www.bohemiancoding.com/sketch/ns">
    <!-- Generator: Sketch 3.3.2 (12043) - http://www.bohemiancoding.com/sketch -->
    <title>Shape</title>
    <desc>Created with Sketch.</desc>
    <defs></defs>
    <g id="Page-1" stroke="none" stroke-width="1" fill="none" fill-rule="evenodd" sketch:type="MSPage">
        <g id="Group" sketch:type="MSLayerGroup" transform="translate(-19.000000, -33.000000)" fill="#FFFFFF">
            <path d="M34.5,41.5 C34.5,45.3659083 31.36572,48.5 27.5,48.5 C23.6338598,48.5 20.5,45.3661402 20.5,41.5 C20.5,37.63428 23.6340917,34.5 27.5,34.5 C31.3654881,34.5 34.5,37.6345119 34.5,41.5 L34.5,41.5 Z M35.5,41.5 C35.5,37.0822272 31.9177728,33.5 27.5,33.5 C23.0817935,33.5 19.5,37.0820087 19.5,41.5 C19.5,45.918425 23.081575,49.5 27.5,49.5 C31.9179913,49.5 35.5,45.9182065 35.5,41.5 L35.5,41.5 Z M32.5434783,36.448913 C32.5207555,36.5243978 32.4192924,36.8789404 32.2635407,37.2158573 C32.0012611,37.7832116 31.6435324,38.2170429 31.1894367,38.4440908 L31.5343113,38.4062331 C30.8395585,38.2325449 30.1022141,38.3450212 29.4534246,38.6399255 C29.2013768,38.7544926 28.9797577,38.8915243 28.8327031,39.0230995 C28.7170523,39.1265765 28.637694,39.2263285 28.5984729,39.3725162 C28.4914703,39.7713444 28.8002963,40.0434783 29.1304348,40.0434783 C28.9799991,40.0434783 28.9471586,40.0142867 28.9459057,40.0122821 C28.995154,40.0910793 29.0525481,40.2163027 29.1106398,40.3712139 C29.1943755,40.5945091 29.260986,40.8228879 29.2975374,40.9690939 C29.3195165,41.0570101 29.3649759,41.1373001 29.4290553,41.2013795 C29.6328276,41.4051518 29.8956331,41.4927536 30.1811594,41.4927536 C30.3690137,41.4927536 30.5551237,41.4555316 30.737824,41.3946315 C30.8440069,41.3592372 30.9285277,41.323014 30.9844764,41.2950397 L30.4073162,41.2013795 C30.476473,41.2705363 30.4668663,41.3829199 30.3037718,41.6466401 C30.1976222,41.8182816 30.0442735,42.0089646 29.8337346,42.2382305 C29.2965999,42.756462 28.9565217,43.1267463 28.9565217,43.4565217 C28.9565217,43.7463909 29.0768462,43.9076768 29.3189476,44.1212957 C29.3454265,44.1445192 29.3454265,44.1445192 29.3693625,44.1653267 C29.4396926,44.2265679 29.4615067,44.2507793 29.4515997,44.2213967 C29.4219061,44.1333313 29.4455395,44.064745 29.4290553,44.0812292 L29.7826087,43.9347826 C29.123651,44.3866335 28.8228606,44.5537393 28.6462339,44.6126149 C28.4420629,44.6806719 28.3043478,44.8717413 28.3043478,45.0869565 C28.3043478,45.6546247 28.0712824,45.9463881 27.6304018,46.1031457 C27.3801908,46.1921096 27.1412782,46.2173913 26.8478261,46.2173913 C26.9666794,46.2173913 26.9645485,46.2158138 26.9402573,46.1868958 C26.8611369,46.0927049 26.766604,45.9492373 26.6734917,45.7816351 C26.5055675,45.4793716 26.3695652,45.1341349 26.3695652,45.0869565 C26.3695652,45.0581695 26.3938989,44.9932796 26.4798223,44.8214329 C26.6384641,44.5041492 26.6956522,44.3516478 26.6956522,44.1086957 C26.6956522,43.8823161 26.6024044,43.6725087 26.4425952,43.4327948 C26.3886423,43.3518655 26.3273718,43.2691503 26.2599996,43.1849351 C26.1242448,43.0152416 25.9904806,42.8703303 25.8970317,42.7768814 L26.0434783,43.1304348 C26.0434783,42.4401562 25.8010394,41.96881 25.3069084,41.7503521 C24.9789142,41.6053441 24.7227743,41.5960299 24.0430331,41.6348723 C23.8207579,41.6475737 23.7111205,41.6521739 23.5869565,41.6521739 L23.5869565,41.6521739 C23.3952384,41.6521739 23.2854464,41.5545811 23.1991428,41.3244383 C23.132521,41.1467799 23.1086957,40.9561775 23.1086957,40.8478261 L22.6086957,40.8478261 L22.1086957,40.8478261 L23.1086955,40.8482229 C23.1086948,40.8486914 23.1086948,40.8486914 23.1086943,40.8488789 C23.1086935,40.8490872 23.1086935,40.8490872 23.108694,40.848988 C23.1086984,40.8483321 23.1086984,40.8483321 23.1087192,40.846477 C23.1087965,40.8409998 23.1087965,40.8409998 23.1090283,40.8309778 C23.1098128,40.8043687 23.1098128,40.8043687 23.11192,40.7616036 C23.1162512,40.6828053 23.1241368,40.5939796 23.1364591,40.4978773 C23.171503,40.2245681 23.2343498,39.9522463 23.329955,39.7036812 C23.5388115,39.1606733 23.8621052,38.8244374 24.3371885,38.7294208 C25.0216252,38.5925334 25.3395385,38.6379496 25.411664,38.7100751 C25.3857902,38.6842014 25.3695652,38.6355263 25.3695652,38.5652174 C25.3695652,38.6978256 25.4222436,38.8250026 25.5160118,38.9187708 C25.9468063,39.3495653 26.5131919,39.4267997 27.2561125,39.3029796 C27.4093246,39.2774442 27.5556775,39.2466691 27.7694346,39.1973405 C28.2531978,39.0857029 28.3579013,39.0652174 28.4782609,39.0652174 C28.7270861,39.0652174 28.9380464,38.8822524 28.9732356,38.6359281 C28.9844108,38.5577017 29.0005867,38.4269469 29.0166591,38.2622049 C29.0393226,38.0299037 29.0544917,37.7990213 29.0586533,37.5805366 C29.0657803,37.2063678 29.041332,36.9007634 28.9673801,36.6630609 C28.8216249,36.1945623 28.4158018,35.9178647 27.9285671,36.1614821 C27.5634129,36.3440592 27.3777419,36.255182 27.34568,35.9102461 C27.3341494,35.7864202 27.7338788,35.4856058 28.4478982,35.2130415 C28.7413395,35.1010255 29.0589821,35.0018554 29.377051,34.917295 C29.5677908,34.8665857 29.7148047,34.8323685 29.795369,34.8156178 L29.4259504,34.7484265 L32.7758417,36.8712526 L33.0434783,36.448913 L32.5434783,36.448913 L32.5434783,36.448913 Z M33.5434783,36.448913 C33.5434783,36.2776257 33.4557977,36.1182591 33.3111148,36.0265735 L29.9612235,33.9037474 C29.8514891,33.8342087 29.7189974,33.8101106 29.5918049,33.8365561 C29.4943687,33.8568148 29.3298815,33.8950989 29.1201201,33.9508652 C28.7706869,34.043764 28.4208274,34.1529924 28.0912667,34.2787964 C26.9559835,34.7121707 26.2773459,35.2228761 26.3499799,36.0028812 C26.4502052,37.0811508 27.4081742,37.5397125 28.3757807,37.0559092 C28.2131837,37.1372078 28.0284234,37.0112348 28.0125233,36.9601275 C28.046784,37.0702511 28.0640748,37.2863859 28.0588346,37.5614924 C28.0552245,37.751024 28.041701,37.9568603 28.0213844,38.1651049 C28.0068862,38.313712 27.9924914,38.4300701 27.9832861,38.4945067 L28.4782609,38.0652174 C28.2443531,38.0652174 28.1374164,38.0861398 27.5445751,38.2229493 C27.3492933,38.2680144 27.2199456,38.2952136 27.0917135,38.3165856 C26.6362647,38.3924938 26.3672669,38.3558123 26.2231186,38.211664 L26.3695652,38.5652174 C26.3695652,38.3905606 26.3011663,38.1853639 26.1187708,38.0029683 C25.7604615,37.6446591 25.1196791,37.5531187 24.1410724,37.7488401 C23.2848813,37.9200783 22.7176554,38.5100114 22.3966136,39.3446914 C22.269458,39.6752846 22.1890986,40.0234902 22.1445794,40.3706976 C22.1290571,40.4917563 22.1190419,40.6045713 22.1134272,40.7067208 C22.110562,40.7647542 22.110562,40.7647542 22.1093575,40.8053221 C22.1089678,40.8220996 22.1089678,40.8220996 22.1087964,40.8340467 C22.1087395,40.8390854 22.1087395,40.8390854 22.1087128,40.8428581 C22.1087036,40.8445034 22.1087036,40.8445034 22.108699,40.845825 C22.1086972,40.8464497 22.1086972,40.8464497 22.1086966,40.8467913 L22.1086959,40.8473064 C23.1086957,40.1811594 22.1086957,40.1811594 22.1086957,40.8478261 C22.1086957,41.0655617 22.1460117,41.3640897 22.2628137,41.6755617 C22.4822167,42.2606363 22.9226964,42.6521739 23.5869565,42.6521739 L23.5869565,42.6521739 C23.7360413,42.6521739 23.8593288,42.647001 24.1000829,42.6332436 C24.5981924,42.6047802 24.7815249,42.6114469 24.9025572,42.6649559 C24.9926974,42.7048073 25.0434783,42.8035348 25.0434783,43.1304348 C25.0434783,43.263043 25.0961567,43.39022 25.1899249,43.4839882 C25.2595194,43.5535827 25.3703204,43.6736171 25.4791308,43.8096301 C25.5295123,43.872607 25.5739181,43.9325548 25.6105449,43.987495 C25.668127,44.0738682 25.6956522,44.1357998 25.6956522,44.1086957 C25.6956522,44.1374827 25.6713185,44.2023726 25.5853951,44.3742193 C25.4267533,44.691503 25.3695652,44.8440044 25.3695652,45.0869565 C25.3695652,45.7176782 26.2027392,47.2173913 26.8478261,47.2173913 C27.2468055,47.2173913 27.5810527,47.1820212 27.9654114,47.0453603 C28.7846618,46.7540713 29.3043478,46.1035014 29.3043478,45.0869565 L28.9624617,45.5612982 C29.2749655,45.4571302 29.7078708,45.2166273 30.1361621,44.788336 L29.7826087,44.9347826 C30.3990027,44.5254954 30.505368,44.2168128 30.399185,43.9018939 C30.3309661,43.6995696 30.2352231,43.5933053 30.0260581,43.4111709 C30.0017564,43.3900405 30.0017564,43.3900405 29.9805693,43.3714579 C29.9500407,43.3445209 29.9565217,43.3532083 29.9565217,43.4565217 C29.9565217,43.5812017 29.9891871,43.545635 30.5702829,42.9146155 C30.8197868,42.6429187 31.00867,42.4080498 31.1542689,42.1726197 C31.5328678,41.5604339 31.5838755,40.9637252 31.114423,40.4942727 C30.9622428,40.3420926 30.7297571,40.3043653 30.5372628,40.4006125 C30.5207476,40.4088701 30.4784569,40.4269947 30.4215963,40.4459482 C30.3325575,40.4756278 30.2469284,40.4927536 30.1811594,40.4927536 C30.1405988,40.4927536 30.1316651,40.4897757 30.1361621,40.4942727 L29.7826087,40.8478261 L30.2676799,40.7265583 C30.2227097,40.5466773 30.1466571,40.2859257 30.0469689,40.0200905 C29.8043017,39.3729778 29.5983645,39.0434783 29.1304348,39.0434783 C29.3811124,39.0434783 29.6569128,39.2865103 29.5643158,39.6316448 C29.5391523,39.7254358 29.518656,39.7511994 29.499498,39.7683408 C29.5640682,39.7105674 29.7013038,39.6257118 29.8672276,39.5502919 C30.3256364,39.3419243 30.8400754,39.2634505 31.2917757,39.3763756 C31.4075676,39.4053236 31.5298953,39.3918954 31.6366503,39.3385179 C32.8088207,38.7524327 33.5434783,37.163246 33.5434783,36.448913 L33.5434783,36.448913 Z" id="Shape" sketch:type="MSShapeGroup"></path>
        </g>
    </g>
</svg>