<?xml version="1.0" encoding="UTF-8" standalone="no"?>
<svg width="55px" height="54px" viewBox="0 0 55 54" version="1.1" xmlns="http://www.w3.org/2000/svg" xmlns:xlink="http://www.w3.org/1999/xlink" xmlns:sketch="http://www.bohemiancoding.com/sketch/ns">
    <!-- Generator: Sketch 3.4.4 (17249) - http://www.bohemiancoding.com/sketch -->
    <title>Oval 1 + 订 Copy + Fill 1</title>
    <desc>Created with Sketch.</desc>
    <defs></defs>
    <g id="Page-1" stroke="none" stroke-width="1" fill="none" fill-rule="evenodd" sketch:type="MSPage">
        <g id="预售-商品详情页" sketch:type="MSArtboardGroup" transform="translate(-687.000000, -845.000000)">
            <g id="Group-Copy" sketch:type="MSLayerGroup" transform="translate(310.000000, 826.000000)">
                <g id="Oval-1-+-订-Copy-+-Fill-1" transform="translate(382.000000, 21.000000)" sketch:type="MSShapeGroup">
                    <g id="Oval-1-+-订-Copy" transform="translate(0.000000, 0.343146)" stroke="#969696">
                        <circle id="Oval-1" cx="22.5" cy="22.5" r="22.5"></circle>
                    </g>
                    <path d="M31.88823,19.8731383 L26.005994,16.0798589 L28.2134836,12.53319 L34.701749,15.3358209 L31.88823,19.8731383 Z M19.9425303,33.9125836 L19.9425303,22.5479944 L31.5263032,21.2139842 L31.5263032,32.5790992 L19.9425303,33.9125836 Z M13.1731772,18.6805741 L18.8858095,22.3650084 L18.8858095,33.5350435 L13.1731772,29.8506093 L13.1731772,18.6805741 Z M16.5071311,16.2107886 L18.5048617,20.8664159 L13.0669767,17.3597095 L11.5648482,13.8582613 L16.5071311,16.2107886 Z M25.8131424,17.2082727 L30.5567619,20.2675047 L25.8131424,20.8133079 L25.8131424,17.2082727 Z M24.7564217,16.8307326 L24.7564217,20.9352985 L19.9219242,21.4916181 L18.2438517,17.5810805 L24.7564217,16.8307326 Z M35.6818575,14.6128157 L28.2145403,11.387424 C27.973608,11.2817338 27.693577,11.3711236 27.5551466,11.5930204 L24.9698793,15.7480653 L17.8111245,16.5720282 L17.4005885,15.6155581 C17.3498659,15.497774 17.2584596,15.4031261 17.1427487,15.347389 L10.7564568,12.3076124 C10.557265,12.2129645 10.3216162,12.2502978 10.1625798,12.4027862 C10.0040716,12.5542229 9.95599084,12.787162 10.0426419,12.9885518 L12.1164564,17.8208553 L12.1164564,30.1366564 C12.1164564,30.31491 12.2073344,30.4810698 12.3573887,30.577821 L19.1267419,34.9437204 C19.2102228,34.9821054 19.226602,34.9910444 19.2445662,34.9973543 C19.2995157,35.0162839 19.3565786,35.0283778 19.4141699,35.0283778 C19.4342476,35.0283778 32.1148966,33.5697477 32.1148966,33.5697477 C32.3817186,33.5387243 32.5830239,33.3141983 32.5830239,33.0470808 L32.5830239,20.7559933 L35.9212048,15.3710509 C36.0020439,15.2411729 36.0215932,15.0829005 35.9756259,14.9372478 C35.9301869,14.792121 35.8224014,14.6732852 35.6818575,14.6128157 Z" id="Fill-1" fill="#969696"></path>
                </g>
            </g>
        </g>
    </g>
</svg>