<svg xmlns="http://www.w3.org/2000/svg" xmlns:xlink="http://www.w3.org/1999/xlink" width="16" height="51" viewBox="0 0 16 51"><svg width="12" height="15" viewBox="0 0 12 15" id="baby" y="0"><title>Imported Layers</title><g fill="#FFF" fill-rule="evenodd"><path d="M11.974 5.02c0-2.77-2.65-4.86-6.162-4.86-.207 0-.375.162-.375.362v3.815H.38c-.208 0-.376.162-.376.362 0 3.467 2.014 5.226 5.985 5.226 4.026 0 5.984-1.605 5.984-4.906zM9.265 10.46c-1.287 0-2.334 1.01-2.334 2.25s1.048 2.25 2.335 2.25 2.334-1.01 2.334-2.25-1.048-2.25-2.335-2.25zM2.81 10.46c-1.287 0-2.334 1.01-2.334 2.25s1.047 2.25 2.334 2.25c1.287 0 2.334-1.01 2.334-2.25s-1.047-2.25-2.334-2.25z"/></g></svg>
<svg width="13" height="15" viewBox="0 0 13 15" id="health" y="15"><title>Imported Layers</title><path d="M12.797 1.19l-.144-.885-.47.767c-.918 1.492-2.89 2.416-4.98 3.393-.864.405-1.758.827-2.602 1.297-1.88.992-3.445 3.13-2.44 5.47.008.018.02.037.027.056-1.015.473-1.763 1.372-2.17 2.62-.057.175.04.36.214.417.035.01.07.016.104.016.14 0 .272-.088.318-.228.362-1.108.993-1.864 1.875-2.252.634.85 1.782 1.574 3.298 1.574 1.072 0 2.734-.394 4.57-2.208l.017-.032c2.937-3.41 2.755-7.73 2.385-10.004z" fill="#FFF" fill-rule="evenodd"/></svg>
<svg width="16" height="10" viewBox="0 0 16 10" id="makeup" y="30"><title>Page 1</title><path d="M.837 3.812c.608-.434 1.364-.975 2.017-1.66L3 2c.8-.844 1.897-2 2.742-2 .084 0 .312.114.495.206.404.202.96.48 1.623.494C8.508.686 9.062.408 9.467.206 9.65.114 9.877 0 9.962 0c.846 0 1.944 1.157 2.745 2l.143.152c.66.692 1.43 1.235 2.05 1.672.225.157.488.343.702.512-.475-.035-1.054-.14-1.657-.25-.86-.16-1.752-.323-2.535-.323-.37 0-.937.133-1.594.288-.687.162-1.467.345-1.963.347-.498-.002-1.277-.185-1.965-.346-.657-.154-1.224-.287-1.594-.287-.782 0-1.675.164-2.538.32-.588.11-1.154.212-1.623.25.215-.172.48-.36.704-.52zm12.49 3.456c-.592.78-2.066 2.092-5.268 2.13-.016 0-.03 0-.045.004l-.13-.002-.123.002c-.014-.003-.03-.004-.044-.004-3.48-.043-4.978-1.782-5.243-2.13C1.4 5.856.692 5.328.243 5.024c.495-.044 1.057-.146 1.64-.252.83-.153 1.692-.31 2.41-.31.29 0 .873.136 1.436.27.758.177 1.543.36 2.123.363.578-.002 1.363-.186 2.123-.365.563-.132 1.145-.268 1.434-.268.72 0 1.578.157 2.41.31.63.116 1.24.226 1.764.262-.46.314-1.2.847-2.256 2.234z" fill="#FFF" fill-rule="evenodd"/></svg>
<svg width="13" height="11" viewBox="0 0 13 11" id="trend" y="40"><title>Imported Layers</title><path d="M3.39 4.173l2.24 5.935L.153 4.173H3.39zM7.55.673l1.516 2.834H4L5.246.673h2.302zm1.44 3.5l-2.456 6.454-2.428-6.454h4.884zm.72 0H12.8l-5.34 5.884 2.248-5.884zm3.056-.666H9.827L8.31.673h1.127l3.327 2.834zM3.066.673H4.51L3.26 3.507H.11L3.066.673z" fill="#FFF" fill-rule="evenodd"/></svg>
</svg>