<svg xmlns="http://www.w3.org/2000/svg" xmlns:xlink="http://www.w3.org/1999/xlink" width="23" height="20" viewBox="0 0 23 20"><svg width="23" height="20" viewBox="0 0 23 20" id="cart" y="0"><title>Fill 1 Copy 2</title><path d="M22.697 1.187c-.248-.07-.505.08-.573.327l-.33 1.206H4.275l.343-1.492c.015-.067.016-.136.002-.203C4.492.43 3.96 0 3.35 0H.467C.21 0 0 .21 0 .467c0 .258.21.467.467.467h2.885c.14 0 .267.083.326.207L3.23 3.083v.01c-.013.063-.015.13 0 .194v.004l1.99 8.712-.507 1.628c-.005.015-.01.03-.012.047-.07.34.018.69.238.96s.545.424.893.424h13.896c.258 0 .467-.208.467-.466 0-.26-.21-.467-.467-.467H5.83c-.065 0-.127-.03-.17-.082-.037-.046-.054-.106-.046-.165l.445-1.428 13.488-1.466c.593-.012 1.097-.42 1.23-.983l2.247-8.243c.068-.25-.08-.506-.328-.573zM19.87 9.774c-.037.164-.182.28-.35.28h-.05L6.066 11.512 4.272 3.655H21.54l-1.67 6.12zM6.624 16.23c-1.04 0-1.885.846-1.885 1.886S5.584 20 6.623 20c1.04 0 1.884-.845 1.884-1.884 0-1.04-.845-1.885-1.884-1.885zm0 2.836c-.524 0-.95-.426-.95-.95 0-.525.426-.95.95-.95.523 0 .95.425.95.95 0 .524-.427.95-.95.95zm11.15-2.835c-1.04 0-1.885.846-1.885 1.886S16.733 20 17.772 20c1.04 0 1.885-.845 1.885-1.884 0-1.04-.845-1.885-1.885-1.885zm0 2.836c-.525 0-.95-.426-.95-.95 0-.525.425-.95.95-.95.523 0 .95.425.95.95 0 .524-.427.95-.95.95z" fill="#333" fill-rule="evenodd"/></svg>
</svg>