<?xml version="1.0" encoding="UTF-8" standalone="no"?>
<svg width="20px" height="20px" viewBox="0 0 20 20" version="1.1" xmlns="http://www.w3.org/2000/svg" xmlns:xlink="http://www.w3.org/1999/xlink" xmlns:sketch="http://www.bohemiancoding.com/sketch/ns">
    <!-- Generator: Sketch 3.4.4 (17249) - http://www.bohemiancoding.com/sketch -->
    <title>Imported Layers Copy 3</title>
    <desc>Created with Sketch.</desc>
    <defs></defs>
    <g id="Page-1" stroke="none" stroke-width="1" fill="none" fill-rule="evenodd" sketch:type="MSPage">
        <g id="9.-设置密码" sketch:type="MSArtboardGroup" transform="translate(-682.000000, -550.000000)">
            <g id="Imported-Layers-Copy-3" sketch:type="MSLayerGroup" transform="translate(682.000000, 550.000000)">
                <path d="M10,0 C4.47974975,0 0,4.47810339 0,10 C0,15.5224454 4.47974975,20 10,20 C15.5202502,20 19.9978049,15.5224454 19.9978049,10 C19.9978049,4.47810339 15.5202502,0 10,0 L10,0 Z" id="Path" fill="#64B406" sketch:type="MSShapeGroup"></path>
                <path d="M16.0608056,15.1404895 L16.490506,16.5673362 L14.9253649,15.7095818 C14.3546263,15.8528153 13.7811437,15.9960487 13.2131489,15.9960487 C10.4982988,15.9960487 8.36022391,14.1405993 8.36022391,11.8554495 C8.36022391,9.57414115 10.4982988,7.71485018 13.2131489,7.71485018 C15.7759851,7.71485018 18.0594885,9.57414115 18.0594885,11.8554495 C18.0594885,13.1423554 17.2066733,14.2821864 16.0608056,15.1404895 L16.0608056,15.1404895 Z" id="Fill-5" fill="#FFFFFF" sketch:type="MSShapeGroup"></path>
                <path d="M7.64460542,13.1423554 C6.93227966,13.1423554 6.35989463,12.9969268 5.64592251,12.8558885 L3.65108111,13.8563275 L4.22181978,12.1391724 C2.79387554,11.1414773 1.93831632,9.8545714 1.93831632,8.287784 C1.93831632,5.57293382 4.5077379,3.43485896 7.64460542,3.43485896 C10.4494567,3.43485896 12.9074745,5.14213588 13.4013829,7.44155417 C13.2202832,7.42124904 13.0369883,7.40807815 12.852047,7.40807815 C10.1415871,7.40807815 8.00131709,9.43090769 8.00131709,11.9240479 C8.00131709,12.3383822 8.06552519,12.7378992 8.17692899,13.1198551 C8.0007683,13.1335748 7.82351004,13.1423554 7.64460542,13.1423554 L7.64460542,13.1423554 Z" id="Path" fill="#FFFFFF" sketch:type="MSShapeGroup"></path>
                <path d="M11.5278947,9.58526316 C11.2552632,9.58526316 10.9805263,9.86 10.9805263,10.1321053 C10.9805263,10.4094737 11.2552632,10.68 11.5278947,10.68 C11.9415789,10.68 12.2126316,10.4094737 12.2126316,10.1321053 C12.2126316,9.86 11.9415789,9.58526316 11.5278947,9.58526316" id="Fill-1" fill="#64B406" sketch:type="MSShapeGroup"></path>
                <path d="M14.5378947,9.58526316 C14.2668421,9.58526316 13.9942105,9.86 13.9942105,10.1321053 C13.9942105,10.4094737 14.2668421,10.68 14.5378947,10.68 C14.9478947,10.68 15.2226316,10.4094737 15.2226316,10.1321053 C15.2226316,9.86 14.9478947,9.58526316 14.5378947,9.58526316" id="Fill-2" fill="#64B406" sketch:type="MSShapeGroup"></path>
                <path d="M5.91842105,5.61631579 C5.50842105,5.61631579 5.09421053,5.88684211 5.09421053,6.29894737 C5.09421053,6.70894737 5.50842105,6.98368421 5.91842105,6.98368421 C6.32842105,6.98368421 6.60105263,6.70894737 6.60105263,6.29894737 C6.60105263,5.88684211 6.32842105,5.61631579 5.91842105,5.61631579" id="Fill-3" fill="#64B406" sketch:type="MSShapeGroup"></path>
                <path d="M9.74842105,6.98368421 C10.16,6.98368421 10.4331579,6.70894737 10.4331579,6.29894737 C10.4331579,5.88684211 10.16,5.61631579 9.74842105,5.61631579 C9.33842105,5.61631579 8.92631579,5.88684211 8.92631579,6.29894737 C8.92631579,6.70894737 9.33842105,6.98368421 9.74842105,6.98368421" id="Fill-4" fill="#64B406" sketch:type="MSShapeGroup"></path>
            </g>
        </g>
    </g>
</svg>