<svg xmlns="http://www.w3.org/2000/svg" xmlns:xlink="http://www.w3.org/1999/xlink" width="93.781" height="129" viewBox="0 0 93.781 129"><svg preserveAspectRatio="xMidYMid" width="34.94" height="35.093" viewBox="-10 -10 34.94 35.093" id="close" y="0"><path d="M14.717.184c-.274-.278-.72-.278-.995 0L7.446 6.526 1.17.184C.895-.094.45-.094.175.184S-.1.912.175 1.19L6.45 7.53.176 13.873c-.275.278-.275.728 0 1.006.138.138.318.208.498.208s.36-.07.497-.208l6.276-6.342 6.276 6.342c.138.138.318.208.498.208s.36-.07.497-.208c.275-.278.275-.728 0-1.006L8.44 7.532l6.277-6.342c.275-.278.275-.728 0-1.006z" class="cls-1" fill="#aaa" fill-rule="evenodd"/></svg>
<svg preserveAspectRatio="xMidYMid" width="93.781" height="93" viewBox="-10 -10 93.781 93" id="success" y="36"><path d="M62.982 62.31C56.01 69.204 46.74 73 36.88 73h-.003c-9.864 0-19.136-3.798-26.108-10.693-14.395-14.23-14.393-37.384 0-51.618C17.746 3.795 27.016 0 36.875 0c9.86 0 19.13 3.796 26.102 10.69 14.396 14.234 14.4 37.39.006 51.62zm-2.127-49.525c-6.407-6.332-14.923-9.82-23.98-9.82-9.06 0-17.576 3.488-23.983 9.82C-.333 25.862-.335 47.137 12.89 60.21c6.406 6.335 14.925 9.823 23.987 9.825h.002c9.058 0 17.573-3.488 23.98-9.822 13.224-13.073 13.222-34.348-.005-47.428zM31.883 51.67c-.013.014-.03.018-.042.03-.01.012-.016.028-.028.04-.09.082-.195.128-.296.184-.057.032-.105.08-.165.103-.18.072-.37.113-.563.113-.192 0-.383-.04-.564-.113-.06-.024-.108-.07-.165-.103-.1-.056-.207-.102-.296-.184-.012-.012-.017-.028-.03-.04-.01-.012-.028-.016-.04-.03L19.138 40.518c-.566-.598-.534-1.536.07-2.097.605-.56 1.552-.527 2.12.07l9.46 9.996 21.63-22.858c.567-.596 1.516-.628 2.12-.07.605.56.636 1.5.07 2.097L31.884 51.67z" class="cls-1" fill="#5bc2d9" fill-rule="evenodd"/></svg>
</svg>