<?xml version="1.0" encoding="UTF-8" standalone="no"?>
<svg width="23px" height="20px" viewBox="0 0 23 20" version="1.1" xmlns="http://www.w3.org/2000/svg" xmlns:xlink="http://www.w3.org/1999/xlink" xmlns:sketch="http://www.bohemiancoding.com/sketch/ns">
    <!-- Generator: Sketch 3.4.2 (15857) - http://www.bohemiancoding.com/sketch -->
    <title>Fill 1 Copy 2</title>
    <desc>Created with Sketch.</desc>
    <defs></defs>
    <g id="Page-1" stroke="none" stroke-width="1" fill="none" fill-rule="evenodd" sketch:type="MSPage">
        <g id="商品详情页-2" sketch:type="MSArtboardGroup" transform="translate(-1435.000000, -16.000000)" fill="#333333">
            <path d="M1457.69731,17.1865555 C1457.44926,17.1183519 1457.19186,17.2655035 1457.12365,17.5140261 L1456.79478,18.7197347 L1439.27253,18.7197347 L1439.61682,17.2276645 C1439.63224,17.1613295 1439.63271,17.0921916 1439.61869,17.0253895 C1439.49256,16.4311774 1438.95954,16 1438.35179,16 L1435.46715,16 C1435.20928,16 1435,16.2088151 1435,16.4671478 C1435,16.7250134 1435.20928,16.9342957 1435.46715,16.9342957 L1438.35179,16.9342957 C1438.49286,16.9342957 1438.61946,17.017448 1438.67832,17.140775 L1438.23033,19.0817742 C1438.22939,19.0855114 1438.23079,19.0892486 1438.22986,19.0929858 C1438.21725,19.1551164 1438.21538,19.2205171 1438.22986,19.286385 L1438.22986,19.2901222 L1438.22986,19.2910565 L1440.22131,28.001962 L1439.71259,29.6304394 C1439.70792,29.6453881 1439.70371,29.6612711 1439.70091,29.676687 C1439.6313,30.0177049 1439.71819,30.3680658 1439.93775,30.6366758 C1440.15778,30.9062201 1440.48338,31.060846 1440.83141,31.060846 L1454.72625,31.060846 C1454.98412,31.060846 1455.1934,30.8520309 1455.1934,30.5936982 C1455.1934,30.3353654 1454.98412,30.1265503 1454.72625,30.1265503 L1440.83141,30.1265503 C1440.76507,30.1265503 1440.70341,30.09712 1440.66136,30.0452666 C1440.62306,29.9985518 1440.60577,29.9392241 1440.61372,29.8798963 L1441.05937,28.4518254 L1454.5478,26.9863826 C1455.14061,26.9742368 1455.64513,26.5664167 1455.77687,26.0030365 L1458.02525,17.7597459 C1458.09299,17.5112232 1457.9463,17.2542919 1457.69731,17.1865555 L1457.69731,17.1865555 Z M1454.87107,25.7736669 C1454.83276,25.9376358 1454.68841,26.0525541 1454.51977,26.0525541 C1454.50295,26.0525541 1454.48567,26.0534884 1454.46932,26.055357 L1441.06732,27.5114568 L1439.2716,19.6540303 L1456.54019,19.6540303 L1454.87107,25.7736669 Z M1441.62322,32.2310513 C1440.58382,32.2310513 1439.73828,33.0761217 1439.73828,34.1155257 C1439.73828,35.1549296 1440.58382,36 1441.62322,36 C1442.66169,36 1443.50676,35.1549296 1443.50676,34.1155257 C1443.50676,33.0761217 1442.66169,32.2310513 1441.62322,32.2310513 Z M1441.62322,35.0657043 C1441.09908,35.0657043 1440.67258,34.6396655 1440.67258,34.1155257 C1440.67258,33.5913858 1441.09908,33.165347 1441.62322,33.165347 C1442.14643,33.165347 1442.57247,33.5913858 1442.57247,34.1155257 C1442.57247,34.6396655 1442.14643,35.0657043 1441.62322,35.0657043 Z M1452.77217,32.2310513 C1451.73324,32.2310513 1450.8877,33.0761217 1450.8877,34.1155257 C1450.8877,35.1549296 1451.73324,36 1452.77217,36 C1453.81158,36 1454.65665,35.1549296 1454.65665,34.1155257 C1454.65665,33.0761217 1453.81158,32.2310513 1452.77217,32.2310513 Z M1452.77217,35.0657043 C1452.24803,35.0657043 1451.82199,34.6396655 1451.82199,34.1155257 C1451.82199,33.5913858 1452.24803,33.165347 1452.77217,33.165347 C1453.29631,33.165347 1453.72235,33.5913858 1453.72235,34.1155257 C1453.72235,34.6396655 1453.29631,35.0657043 1452.77217,35.0657043 L1452.77217,35.0657043 Z" id="Fill-1-Copy-2" sketch:type="MSShapeGroup"></path>
        </g>
    </g>
</svg>