<svg xmlns="http://www.w3.org/2000/svg" xmlns:xlink="http://www.w3.org/1999/xlink" width="182" height="728" viewBox="0 0 182 728"><svg width="182" height="182" viewBox="-10 -10 182 182" id="platform" y="0"><title>Group 11</title><g transform="translate(1 1)" fill="none" fill-rule="evenodd"><path d="M80 155c41.42 0 75-33.58 75-75S121.42 5 80 5 5 38.58 5 80s33.58 75 75 75z" fill="#EBEBEB"/><path d="M80 160c44.183 0 80-35.817 80-80S124.183 0 80 0 0 35.817 0 80s35.817 80 80 80z" stroke="#EAEAEA"/><g transform="translate(35 45)" fill="#5C5E5F"><path d="M84.183.536H5.818C2.61.536 0 3.142 0 6.346v52.888c0 3.203 2.61 5.813 5.818 5.813h78.364c3.207 0 5.817-2.61 5.817-5.813V6.346c0-3.204-2.61-5.81-5.817-5.81zm2.125 49.095H3.693V4.226h82.614V49.63zM53.172 66.482H36.828c0 8.41-3.17 8.654-11.78 8.654v3.34h39.91v-3.34c-8.61 0-11.785-.243-11.785-8.654z"/><g transform="translate(26 9)"><path d="M15.502 28.388H3.065C1.374 28.388 0 27.028 0 25.35L1.433 6.787H5.35v-1.02C5.37 3.058 7.596.862 10.334.862c2.737 0 4.965 2.196 4.985 4.904v1.02h3.915l.238 3.062h-2.54l-1.43 18.54zm-9.54-17.85c-.41 0-.744-.33-.744-.738s.334-.74.745-.74c.41 0 .745.332.745.74 0 .407-.334.738-.745.738zm.747-3.705v-1.02c0-1.91 1.564-3.46 3.493-3.46 1.93 0 3.492 1.55 3.492 3.46h.002v1.02H6.71zm7.452 3.705c-.41 0-.745-.33-.745-.738s.334-.74.745-.74c.412 0 .746.332.746.74 0 .407-.334.738-.746.738z"/><path d="M37.177 10.756H32.9V9.642c-.02-2.957-2.454-5.356-5.443-5.356-2.99 0-5.423 2.4-5.445 5.356v1.114h-4.276L16.17 31.03c0 1.832 1.5 3.316 3.35 3.316h15.874c1.85 0 3.35-1.485 3.35-3.317l-1.567-20.274zm-14.494 4.097c-.45 0-.814-.36-.814-.806 0-.446.363-.807.813-.807.45 0 .813.36.813.807 0 .445-.364.806-.813.806zm.814-4.046V9.693h.002c0-2.087 1.707-3.78 3.813-3.78s3.814 1.693 3.814 3.78v1.114h-7.63zm8.14 4.046c-.45 0-.814-.36-.814-.806 0-.446.364-.807.814-.807.45 0 .813.36.813.807 0 .445-.364.806-.813.806z"/></g><path d="M22.432 27H6.4v2.2h17.2V27h-1.168zM82.432 27H66.4v2.2h17.2V27h-1.168z"/></g></g></svg>
<svg width="182" height="182" viewBox="-10 -10 182 182" id="platform-hover" y="182"><title>Group 14</title><g transform="translate(1 1)" fill="none" fill-rule="evenodd"><path d="M80 155c41.42 0 75-33.58 75-75S121.42 5 80 5 5 38.58 5 80s33.58 75 75 75z" fill="#F9F9F9"/><path d="M80 160c44.183 0 80-35.817 80-80S124.183 0 80 0 0 35.817 0 80s35.817 80 80 80z" stroke="#E27A79"/><g transform="translate(35 45)" fill="#E27A79"><path d="M84.183.536H5.818C2.61.536 0 3.142 0 6.346v52.888c0 3.203 2.61 5.813 5.818 5.813h78.364c3.207 0 5.817-2.61 5.817-5.813V6.346c0-3.204-2.61-5.81-5.817-5.81zm2.125 49.095H3.693V4.226h82.614V49.63zM53.172 66.482H36.828c0 8.41-3.17 8.654-11.78 8.654v3.34h39.91v-3.34c-8.61 0-11.785-.243-11.785-8.654z"/><g transform="translate(26 9)"><path d="M15.502 28.388H3.065C1.374 28.388 0 27.028 0 25.35L1.433 6.787H5.35v-1.02C5.37 3.058 7.596.862 10.334.862c2.737 0 4.965 2.196 4.985 4.904v1.02h3.915l.238 3.062h-2.54l-1.43 18.54zm-9.54-17.85c-.41 0-.744-.33-.744-.738s.334-.74.745-.74c.41 0 .745.332.745.74 0 .407-.334.738-.745.738zm.747-3.705v-1.02c0-1.91 1.564-3.46 3.493-3.46 1.93 0 3.492 1.55 3.492 3.46h.002v1.02H6.71zm7.452 3.705c-.41 0-.745-.33-.745-.738s.334-.74.745-.74c.412 0 .746.332.746.74 0 .407-.334.738-.746.738z"/><path d="M37.177 10.756H32.9V9.642c-.02-2.957-2.454-5.356-5.443-5.356-2.99 0-5.423 2.4-5.445 5.356v1.114h-4.276L16.17 31.03c0 1.832 1.5 3.316 3.35 3.316h15.874c1.85 0 3.35-1.485 3.35-3.317l-1.567-20.274zm-14.494 4.097c-.45 0-.814-.36-.814-.806 0-.446.363-.807.813-.807.45 0 .813.36.813.807 0 .445-.364.806-.813.806zm.814-4.046V9.693h.002c0-2.087 1.707-3.78 3.813-3.78s3.814 1.693 3.814 3.78v1.114h-7.63zm8.14 4.046c-.45 0-.814-.36-.814-.806 0-.446.364-.807.814-.807.45 0 .813.36.813.807 0 .445-.364.806-.813.806z"/></g><path d="M22.432 27H6.4v2.2h17.2V27h-1.168zM82.432 27H66.4v2.2h17.2V27h-1.168z"/></g></g></svg>
<svg width="182" height="182" viewBox="-10 -10 182 182" id="setofgoods" y="364"><title>Group 13</title><g transform="translate(1 1)" fill="none" fill-rule="evenodd"><circle fill="#EBEBEB" cx="80" cy="80" r="75"/><path d="M80 160c44.183 0 80-35.817 80-80S124.183 0 80 0 0 35.817 0 80s35.817 80 80 80z" stroke="#EAEAEA"/><g transform="translate(35 45)" fill="#5C5E5F"><path d="M84.183.536H5.818C2.61.536 0 3.142 0 6.346v52.888c0 3.203 2.61 5.813 5.818 5.813h78.364c3.207 0 5.817-2.61 5.817-5.813V6.346c0-3.204-2.61-5.81-5.817-5.81zm2.125 49.095H3.693V4.226h82.614V49.63zM53.172 66.482H36.828c0 8.41-3.17 8.654-11.78 8.654v3.34h39.91v-3.34c-8.61 0-11.785-.243-11.785-8.654z"/><path d="M22.835 21.727l10.337 5.607s3.848-.538 8.912-1.255L31.427 12.544l3.82-.537L55.08 24.243c5.98-.84 10.882-1.525 11.035-1.516.6.035 1.422.677 1.422.677 2.09.204 4.766.748 5.024 2.58.324 2.303-2.243 4.48-7.322 5.194l-.654.092-10.524 1.52-15.378 9.03-3.818.536 7.13-7.94-12.92 1.592L18.82 22.375l4.013-.648z"/><path d="M82.53 41.902c-11.523-2.175-23.278-3.346-35.172-3.482l-.026 2.2c11.766.135 23.393 1.292 34.79 3.444l.41-2.162zm-49.524-3.144c-8.712.512-17.333 1.583-25.826 3.2l.41 2.16c8.4-1.598 16.928-2.657 25.545-3.164l-.13-2.196z"/></g></g></svg>
<svg width="182" height="182" viewBox="-10 -10 182 182" id="setofgoods-hover" y="546"><title>Group 9 Copy</title><g transform="translate(1 1)" fill="none" fill-rule="evenodd"><circle fill="#F9F9F9" cx="80" cy="80" r="75"/><path d="M80 160c44.183 0 80-35.817 80-80S124.183 0 80 0 0 35.817 0 80s35.817 80 80 80z" stroke="#E27A79"/><path d="M119.183 45.536H40.818c-3.208 0-5.818 2.606-5.818 5.81v52.888c0 3.203 2.61 5.813 5.818 5.813h78.364c3.207 0 5.817-2.61 5.817-5.813V51.346c0-3.204-2.61-5.81-5.817-5.81zm2.125 49.095H38.693V49.226h82.614V94.63zM88.172 111.482H71.828c0 8.41-3.17 8.654-11.78 8.654v3.34h39.91v-3.34c-8.61 0-11.785-.243-11.785-8.654z" fill="#E27A79"/><path d="M57.835 66.727l10.337 5.607s3.848-.538 8.912-1.255L66.427 57.544l3.82-.537L90.08 69.243c5.98-.84 10.882-1.525 11.035-1.516.6.035 1.422.677 1.422.677 2.09.204 4.766.748 5.024 2.58.324 2.303-2.243 4.48-7.322 5.194l-.654.092-10.524 1.52-15.378 9.03-3.818.536 7.13-7.94-12.92 1.592L53.82 67.375l4.013-.648z" fill="#E27A79"/><path d="M117.53 86.902c-11.523-2.175-23.278-3.346-35.172-3.482l-.026 2.2c11.766.135 23.393 1.292 34.79 3.444l.41-2.162zm-49.524-3.144c-8.712.512-17.333 1.583-25.826 3.2l.41 2.16c8.4-1.598 16.928-2.657 25.545-3.164l-.13-2.196z" fill="#E27A79"/></g></svg>
</svg>