<svg xmlns="http://www.w3.org/2000/svg" xmlns:xlink="http://www.w3.org/1999/xlink" preserveAspectRatio="xMidYMid" width="14.94" height="15.093" viewBox="0 0 14.94 15.093">
  <path style="fill: #aaa;fill-rule: evenodd;" d="M14.717,0.184 C14.443,-0.094 13.997,-0.094 13.722,0.184 L7.446,6.526 L1.170,0.184 C0.895,-0.094 0.450,-0.094 0.175,0.184 C-0.100,0.462 -0.100,0.912 0.175,1.190 L6.451,7.531 L0.175,13.872 C-0.100,14.150 -0.100,14.600 0.175,14.878 C0.313,15.016 0.493,15.086 0.673,15.086 C0.853,15.086 1.033,15.016 1.170,14.878 L7.446,8.536 L13.722,14.878 C13.860,15.016 14.040,15.086 14.220,15.086 C14.400,15.086 14.580,15.016 14.717,14.878 C14.992,14.600 14.992,14.150 14.717,13.872 L8.441,7.531 L14.717,1.190 C14.992,0.912 14.992,0.462 14.717,0.184 Z" class="cls-1"/>
</svg>
