<svg xmlns="http://www.w3.org/2000/svg" xmlns:xlink="http://www.w3.org/1999/xlink" width="248" height="121" viewBox="0 0 248 121"><svg width="248" height="68" viewBox="-10 -10 248 68" id="logo1" y="0"><title>Page 1</title><defs><path id="aaa" d="M0 1.228h227.294V49H0V1.228z"/><path id="aac" d="M0 1.228h227.294V49H0V1.228z"/></defs><g transform="translate(0 -1)" fill="none" fill-rule="evenodd"><path d="M86.808 14.06H79.91v5.748h6.898V14.06zm-15.64 5.75h6.81v-5.747h-6.81v5.747zm-1.847-7.425h8.655v-4.93h1.935v4.93h8.744v10.322h-1.846v-1.222H79.91v8.422h-1.935v-8.422h-6.808v1.222H69.32V12.385zM103.937 20.082l1.26-.95c.827.86 1.53 1.668 2.115 2.423l-1.33 1.015c-.717-.98-1.398-1.81-2.045-2.488zm-9.034 3.032h6.203v-4.482H95.69v-1.536h5.416V14.06h-5.843v-1.538h13.394v1.54h-5.888v3.034h5.438v1.536h-5.44v4.482h6.25v1.54H94.903v-1.54zm15.174-12.832H93.87v16.773h16.207V10.282zm-17.94-1.608h19.67V29.79h-1.73v-1.13h-16.21v1.153h-1.73V8.673zM129.182 23.998l1.326-1.133c2.367 2.205 4.22 4.047 5.55 5.522l-1.483 1.38c-1.525-1.823-3.326-3.75-5.393-5.77zm-3.775-3.42h4.852v-6.245h-4.853v6.246zm4.852-12.854h1.845v4.98h3.215v1.63h-3.215v6.245h4v1.63H119.76v-1.63h3.798v-6.247h-2.9v-1.628h2.9V7.747h1.847v4.958h4.852v-4.98zm-3.754 16.32c-1.77 2.173-3.61 4.11-5.528 5.816-.406-.47-.864-.905-1.374-1.314 1.904-1.447 3.687-3.31 5.35-5.59l1.552 1.088zM113.56 18.41c2.352-3.186 4.204-6.815 5.55-10.89l1.8.656c-.773 2.015-1.572 3.866-2.405 5.546v16.092h-1.797v-12.8c-.773 1.27-1.566 2.412-2.382 3.433-.215-.62-.47-1.3-.767-2.038zM153.835 12.14c1.065-1.163 2.098-2.448 3.103-3.85l1.486 1.134c-.916 1.112-2.038 2.375-3.372 3.78l-1.217-1.065zm-6.63 10.747h8.972V20.08h-8.972v2.807zm8.97-7.217h-8.972v2.784h8.97V15.67zm-8.97 14.144h-1.643V13.972h5.15v-6.43h1.732v6.43h5.373v13.126c0 1.75-.82 2.626-2.453 2.626-.84 0-2.03-.023-3.573-.07-.088-.555-.193-1.175-.314-1.852 1.41.09 2.48.132 3.215.132.99 0 1.484-.42 1.484-1.265v-2.15h-8.97v5.294zm-2.38-20.64l1.233-.95c1.08 1.07 2.144 2.278 3.19 3.618l-1.413 1.156c-1.033-1.464-2.038-2.738-3.01-3.825zm-.16 15.636c0 .666.04 1.294.113 1.882-.96.467-2.075 1.087-3.35 1.853-.27.153-.583.41-.944.773l-1.19-1.562c.48-.44.718-1.006.718-1.698v-4.935h-3.01V19.56h3.01v-3.05h-1.46v-1.564h5.73v1.563h-2.63v3.05h3.15v1.563h-3.15v5.387c1.097-.59 2.1-1.155 3.014-1.7zM136.8 14.514c1.454-2.095 2.614-4.427 3.484-6.995l1.683.566c-.403 1.012-.836 1.983-1.302 2.92h4.16v1.56h-4.948c-.658 1.225-1.368 2.386-2.135 3.487-.286-.542-.598-1.058-.942-1.54zM171.617 16.01l1.013-1.02c.956.737 1.903 1.51 2.83 2.308l-1.147 1.176c-.913-.905-1.812-1.727-2.696-2.465zm-.295 5.793l1.036-1.02c1.002.772 1.94 1.547 2.808 2.33l-1.168 1.18c-.884-.86-1.775-1.692-2.676-2.49zm6.97-7.085h-8.9l-.552 4.12h9.352c.037-1.284.068-2.656.1-4.12zm-.146 5.704h-9.506l-.55 4.165h9.9c.06-1.236.113-2.628.156-4.165zm-13.34-1.585h2.305l.797-5.655h12.117c-.046 2.095-.092 3.98-.135 5.655h2.358v1.585h-2.416c-.046 1.63-.09 3.018-.135 4.165h1.832v1.54h-1.936c-.126 1.11-.423 1.94-.896 2.487-.54.62-1.5.928-2.876.928-.782 0-1.784-.03-3.015-.09-.074-.512-.177-1.126-.312-1.832 1.452.135 2.568.204 3.35.204 1.127 0 1.803-.568 2.02-1.697H166.31v-1.675l.575-4.03h-2.078v-1.585zm-.18-4.932c1.858-1.767 3.355-3.934 4.495-6.496h1.913c-.36.783-.74 1.53-1.137 2.238h11.88v1.585h-12.824c-.968 1.517-2.027 2.85-3.18 4.004-.344-.453-.728-.896-1.146-1.332zM160.67 8.97l1.145-1.198c.902.69 2.15 1.74 3.756 3.14-.51.5-.95.95-1.324 1.34-1.62-1.555-2.81-2.65-3.576-3.28zm-.18 20.166c.885-2.64 1.646-5.53 2.293-8.668.66.286 1.265.522 1.82.7-.764 2.958-1.477 5.817-2.135 8.58l-1.978-.612zm-.673-14.147l1.125-1.292c1.377.968 2.657 1.94 3.842 2.923-.538.62-.976 1.102-1.305 1.447-1.335-1.204-2.555-2.233-3.663-3.078zM196.86 7.703h1.886v7.785l.9-1.017c2.145 1.675 4.055 3.206 5.732 4.592l-1.282 1.675c-1.586-1.476-3.37-3.053-5.35-4.727v13.873h-1.887V7.703zM182.652 19.22c2.232-3.42 3.91-7.323 5.035-11.7l1.843.52c-.36 1.222-.732 2.4-1.12 3.534h6.245v1.674c-.793 7.497-4.16 13-10.09 16.496-.315-.496-.704-1.032-1.168-1.605 2.905-1.736 5.138-3.91 6.698-6.518-1.05-.89-2.227-1.796-3.532-2.715l1.148-1.384c1.275.937 2.362 1.76 3.258 2.47.933-1.948 1.532-4.182 1.8-6.7h-5.01c-1.052 2.67-2.41 5.288-4.072 7.853-.298-.62-.64-1.26-1.033-1.925zM220.684 18.157l1.552-.45c.69 2.174 1.357 4.45 2 6.835l-1.685.498c-.12-.455-.23-.914-.337-1.383-1.59.106-3.01.236-4.268.386-.658.075-1.328.196-2 .363l-.696-1.473c.52-.33.912-.784 1.166-1.355.825-2.01 1.6-4.424 2.336-7.243l1.71.404c-.903 2.792-1.793 5.366-2.677 7.718 1.276-.075 2.622-.165 4.047-.27-.36-1.33-.74-2.67-1.148-4.03zm-13.574-9.32h7.598v6.493c1.5-2.31 2.613-4.912 3.35-7.81l1.773.408c-.36 1.086-.734 2.12-1.12 3.1h8.584c-.092 7.334-.18 12.216-.27 14.643-.134 2.446-1.38 3.67-3.732 3.67-1.288 0-2.66-.03-4.11-.092-.092-.602-.212-1.222-.36-1.856 1.45.167 2.784.257 3.998.274 1.574-.017 2.407-.8 2.496-2.358.103-2.562.18-6.77.223-12.624h-7.506c-.556 1.31-1.13 2.51-1.73 3.597-.437-.288-.967-.567-1.596-.835v7.422h-1.618v-12.38h-4.362v12.515h-1.618V8.836zm2.99 3.616h1.616v4.55c0 2.927-.2 5.198-.607 6.815l.652-.61c1.53 1.6 2.87 3.054 4.025 4.366l-1.417 1.202c-1.065-1.375-2.233-2.77-3.507-4.19-.538 1.72-1.835 3.48-3.887 5.276-.33-.472-.727-.93-1.194-1.383 1.755-1.313 2.917-2.716 3.487-4.212.55-1.294.83-3.5.83-6.607v-5.207z" fill="#444344"/><mask id="aab" fill="#fff"><use xlink:href="#aaa"/></mask><path d="M4.805 43.24c-.438.148-1.25.044-1.25.044v-3.568h1.622v2.894c0 .34.037.495-.372.63zm-2.224.056H.96s.037-2.548.037-2.89c0-.342.077-.408.464-.604.385-.193 1.12 0 1.12 0v3.494zm3.576-4.243H3.634v-.545h-.976v.556h-1.7s-.793.095-.96.75v4.33h2.583v.477h1.017v-.506H5.25s.877-.282.906-.905c.032-.624 0-4.157 0-4.157z" fill="#444344" mask="url(#aab)"/><path d="M8.287 40.533h1.28s.11 0 .11.112v.686l-1.356.002v.726H9.68v.674h-1.39v.825h3.105s.443-.07.524-.21c.077-.142 0-.753 0-.753h-.914s-.045.2-.166.182c-.123-.018-.21 0-.21 0v-.733h1.324v-.746h-1.296v-.764h1.33v-.807H8.288v.807zM7.12 38.576v6.122s4.072.012 4.9 0c.827-.01 1.26-.948 1.26-.948v-5.174H7.12zm4.774 5.174H8.198v-4.168h4.082v3.78c0 .353-.386.388-.386.388zM15.77 38.577v.688c-.06.04-.17.352-.17.352v5.085h-1.04v-4.02h-.366v-.852c.73-.565.73-1.253.73-1.253h.845z" fill="#444344"/><mask id="aad" fill="#fff"><use xlink:href="#aac"/></mask><path d="M18.606 41.638h-1.294v-1.524h1.294v1.524zm1.66-1.568v-.818h-.66v-.675h-1v.675h-1.29v-.675h-.928v.646h-.493v.847h.493v1.568h-.618v.825h4.497v-.825h-.62V40.07h.62zM16.457 42.576s.026.835-.69 1.147v.98s1.49-.358 1.798-2.127h-1.108zM18.527 42.576c.31 1.77 1.797 2.127 1.797 2.127v-.98c-.712-.312-.69-1.147-.69-1.147h-1.107zM22.558 38.56c0 .347.217.47.217.47h.805v.727h-1.29l-.585.513h-.616v-.84c.55-.036.55-.852.55-.852l.918-.017zM21.09 40.566v.7h.676v.68h-.675v.817h.676v1.167s-.03.67.57.7c.598.032 1.073 0 1.073 0v-.827h-.516s-.137.107-.15-.265c-.01-.372 0-.764 0-.764h.837v-.818h-.835v-.658h.836v-.732h-2.49zM26.368 41.61H24.99l-.228-.243.286-.294h1.328l.195.317-.202.22zm0 1.175H24.99l-.228-.242.286-.297h1.328l.195.32-.202.22zm.214-2.6c.928-.458.928-1.38.928-1.38h-.822c-.117.38-.463.784-.463.784v.595h-.138v-1.74h-.864v1.74h-.118v-.7c-.378-.225-.44-.724-.44-.724h-.75c-.086.11-.064.226-.064.226.14.666.634 1.113.772 1.124.137.01.062.107.062.107-.154.066-.337.135-.458.233-.208.168-.312.36-.312.36v3.834h.865v-1.032h1.748v.202h-.684v.83h1.116c.264-.06.455-.458.455-.458s.04-2.963 0-3.367c-.043-.4-.833-.635-.833-.635zM29.056 40.575h4.924c-1.065-.426-1.726-1.112-1.726-1.112h-1.53c-.735.807-1.668 1.026-1.668 1.026v.085zm.88-1.845h3.176s.324.764 1.432 1.168v.72h-.467v.83H28.85v-.818h-.292v-.807s.996-.46 1.377-1.093zM33.08 43.533c0 .294-.273.338-.273.338h-3.003v-1.296h3.275v.96zm.995-1.758h-5.3v2.87h4.4s.88-.195.9-.88c.023-.69 0-1.99 0-1.99zM38.356 38.508s-.226.69-1.002 1.375v.957l.65-.308h.206v4.113h1.005V43.32h2.307v-.713h-2.307v-1.03h2.307v-.774h-2.34v-.793h2.34v-.78H39.19s-.038-.194.034-.376c.074-.18.154-.346.154-.346h-1.022zm-1.002.075c-.206.735-.635 1.18-.635 1.18v4.882h-.91v-4.177s-.162.147-.265.21c-.103.067-.257.12-.257.12v-.932c.91-.686 1.033-1.283 1.033-1.283h1.034zM45.473 44.64h3.235v-.787h-1.01v-3.288h1.01v-.698h-1.045v-1.14h-.967v1.134H45.54v.705h1.156v3.28h-1.223v.795zm-3.11-5.424h.984v-.49h.84v.495h1.14v.624c-.237.476-.94 1.124-.94 1.124v.1l.414.064.48.53v1.07c-.34-.156-1.026-.82-1.026-.82v2.92h-.896v-2.838c-.19.133-.996.42-.996.42v-.838c.94-.58 1.652-1.354 1.652-1.354v-.217l-1.652.018v-.807zM12.79 47.908h.633s-.192 1-1.51 1.09c-.592.04-1.244-.608-1.316-1.09-.057-.377-.046-1.31.61-1.65.655-.344 2.055-.19 2.178.878h-.612s-.387-.568-.773-.496c-.387.075-.78.268-.756.902.014.444.075.65.507.81.27.1.6.156 1.04-.444M26.97 47.908h.633s-.192 1-1.508 1.09c-.593.04-1.246-.608-1.317-1.09-.057-.377-.046-1.31.61-1.65.655-.344 2.055-.19 2.178.878h-.613s-.386-.568-.773-.496c-.386.075-.778.268-.755.902.014.444.074.65.506.81.27.1.6.156 1.04-.444M13.745 46.16v2.694h.676v-1.01h.99v1.01h.665V46.16h-.655v1.008h-1.022v-1.01h-.653zM17.258 48.853H16.6v-2.727h.658v2.727zM17.824 46.127v2.727h.727V47.42l.885 1.434h.833V46.16h-.672v1.506h-.138l-.982-1.54h-.652zM22.005 47.124l-.324.72h.685l-.36-.72zm.36-.997l1.19 2.727h-.79l-.23-.5h-1.086l-.213.5h-.695l1.14-2.727h.683zM29.345 46.063c-.784 0-1.416.64-1.416 1.426 0 .79.63 1.43 1.415 1.43s1.42-.64 1.42-1.43c0-.788-.635-1.427-1.42-1.427m.84 1.426c0 .466-.376.847-.84.847-.463 0-.838-.38-.838-.848 0-.465.375-.845.838-.845.464 0 .84.38.84.844M33.87 46.063c-.785 0-1.42.64-1.42 1.426 0 .79.635 1.43 1.42 1.43.784 0 1.417-.64 1.417-1.43 0-.788-.633-1.427-1.417-1.427m.838 1.426c0 .466-.375.847-.838.847-.464 0-.84-.38-.84-.848 0-.465.376-.845.84-.845.463 0 .838.38.838.844M32.223 47.812h-1.208v-.637h1.208v.637zM36.35 46.638v.853h.624s.34-.065.34-.426c0-.36-.34-.426-.34-.426h-.624zm1.088-.462s.613.15.613.845c0 .78-.612.822-.612.822h-1.1v1.02h-.663v-2.686h1.763z" fill="#444344" mask="url(#aad)"/><path d="M14.77 12.388h6.49v13.545h-6.49V12.388zM27.592 12.388h6.49v13.545h-6.49V12.388z" fill="#FFF000" mask="url(#aad)"/><path d="M17.604 9.535H31.24v6.534H17.605V9.534zM17.604 22.255H31.24v6.534H17.605v-6.535z" fill="#FFF000" mask="url(#aad)"/><path d="M24.425 19.103c-.032 0-.058.026-.058.057 0 .035.026.06.058.06.03 0 .057-.025.057-.06 0-.03-.026-.057-.057-.057m0 6.174c-3.35 0-6.072-2.744-6.072-6.117 0-3.37 2.722-6.113 6.072-6.113s6.07 2.744 6.07 6.113c0 3.373-2.72 6.117-6.07 6.117M24.317 37.054c-.624 0-1.19-.213-1.637-.62-.373-.337-3.82-3.94-5.282-5.473l-.495-.515-.014-.718c-.01-.487.042-2.156 1.14-3.145.593-.533 1.395-.8 2.382-.8.456 0 .81.057.88.07l.54.096 2.565 2.465 2.236-2.246.237-.126c.163-.09.762-.374 1.578-.374.89 0 1.73.334 2.43.965 1.43 1.3 1.297 3.172.564 4.365l-.07.113-.082.098c-.635.767-4.388 4.45-5.135 5.182l-.186.182-.233.124c-.203.11-.747.36-1.42.36M28.448 12.617c-.816 0-1.415-.288-1.578-.374l-.237-.13-2.236-2.242-2.565 2.462-.54.098c-.067.012-.424.072-.88.072-.987 0-1.79-.27-2.38-.8-1.1-.993-1.152-2.66-1.143-3.146l.013-.717.495-.52c1.463-1.534 4.91-5.134 5.282-5.474.446-.403 1.013-.617 1.637-.617.673 0 1.216.25 1.42.36l.232.12.185.185c.747.732 4.5 4.413 5.135 5.183l.083.098.07.11c.732 1.192.866 3.07-.565 4.366-.7.63-1.54.966-2.43.966M34.88 26.737c-.612 0-2.135-.113-3.057-1.153-1.013-1.142-.813-2.8-.727-3.28l.097-.545 2.445-2.584-2.227-2.25-.128-.24c-.418-.787-.76-2.522.587-4.035.634-.71 1.5-1.103 2.432-1.103.965 0 1.7.41 1.903.536l.11.07.1.083c.76.64 4.42 4.418 5.143 5.17l.184.188.12.233c.426.81.615 2.104-.255 3.08-.335.373-3.913 3.84-5.436 5.317l-.508.493-.72.02h-.062zM13.92 26.736l-.707-.02-.52-.493c-1.524-1.473-5.102-4.943-5.437-5.318-.87-.974-.68-2.268-.255-3.078l.12-.234.185-.187c.724-.752 4.382-4.53 5.146-5.17l.1-.085.107-.068c.204-.124.94-.536 1.904-.536.934 0 1.8.392 2.434 1.104 1.35 1.513 1.005 3.248.587 4.035l-.128.24-2.227 2.25 2.445 2.583.097.545c.086.48.286 2.142-.727 3.283-.92 1.038-2.445 1.15-3.057 1.15h-.063z" fill="#FFF000" mask="url(#aad)"/><path d="M18.935 24.463H15.83V13.66h3.105v10.803zM32.976 24.463H29.87V13.66h3.106v10.803zM29.87 13.657H18.935V10.53H29.87v3.127zM29.87 27.59H18.935v-3.127H29.87v3.127zM24.404 14.377c-2.568 0-4.65 2.096-4.65 4.68 0 2.59 2.082 4.685 4.65 4.685 2.567 0 4.648-2.095 4.648-4.684 0-2.585-2.08-4.68-4.648-4.68m2.064 4.68c0 1.15-.925 2.08-2.064 2.08-1.14 0-2.064-.93-2.064-2.08 0-1.147.924-2.078 2.064-2.078 1.14 0 2.064.93 2.064 2.078M30.132 28.736c-1.042-.943-2.11-.37-2.11-.37l-3.617 3.635-3.785-3.633s-1.274-.228-1.886.322c-.61.547-.58 1.896-.58 1.896s5.277 5.53 5.675 5.892c.4.36 1.075 0 1.075 0s4.818-4.716 5.48-5.517c0 0 .79-1.282-.253-2.224M30.132 9.34c-1.042.94-2.11.368-2.11.368l-3.617-3.635-3.785 3.635s-1.274.227-1.886-.323c-.61-.548-.58-1.897-.58-1.897s5.277-5.53 5.675-5.89c.4-.36 1.075 0 1.075 0s4.818 4.714 5.48 5.516c0 0 .79 1.282-.253 2.225M34.043 13.277c-.936 1.046-.366 2.12-.366 2.12l3.61 3.647-3.61 3.81s-.226 1.283.32 1.897c.544.618 1.884.59 1.884.59s5.494-5.32 5.852-5.72c.358-.4 0-1.08 0-1.08s-4.683-4.85-5.48-5.52c0 0-1.273-.792-2.21.257M14.78 13.277c.936 1.046.366 2.12.366 2.12l-3.61 3.647 3.61 3.81s.226 1.283-.32 1.897c-.544.618-1.884.59-1.884.59s-5.493-5.32-5.85-5.72c-.36-.4 0-1.08 0-1.08s4.682-4.85 5.478-5.52c0 0 1.274-.792 2.21.257" fill="#094" mask="url(#aad)"/><path d="M75.622 38.98l-.655.413c-.567-.758-1.337-1.138-2.32-1.138-.78 0-1.43.256-1.948.763-.517.505-.777 1.122-.777 1.845 0 .473.12.917.358 1.332.238.418.565.738.98.968.415.23.878.346 1.394.346.944 0 1.717-.38 2.313-1.137l.655.433c-.306.467-.718.827-1.237 1.084-.518.26-1.107.386-1.77.386-1.015 0-1.856-.323-2.53-.974-.666-.652-1-1.444-1-2.375 0-.626.157-1.208.47-1.747.31-.536.743-.957 1.29-1.257.543-.303 1.16-.45 1.837-.45.424 0 .836.064 1.23.194.396.132.73.3 1.01.513.274.21.508.478.7.8M81.462 38.286c-.687 0-1.277.256-1.772.77-.495.507-.74 1.126-.74 1.853 0 .466.11.904.336 1.307.224.407.53.718.914.937.38.222.804.33 1.262.33.458 0 .882-.108 1.262-.33.384-.22.69-.53.913-.937.227-.403.338-.84.338-1.308 0-.728-.25-1.347-.744-1.855-.494-.513-1.084-.77-1.768-.77m.003-.812c.99 0 1.812.36 2.46 1.08.59.658.89 1.44.89 2.338 0 .906-.313 1.696-.937 2.374-.627.674-1.43 1.01-2.413 1.01-.988 0-1.792-.336-2.42-1.01-.623-.678-.935-1.468-.935-2.373 0-.895.298-1.673.887-2.33.65-.727 1.472-1.087 2.468-1.087M90.594 38.286c-.687 0-1.276.256-1.77.77-.497.507-.743 1.126-.743 1.853 0 .466.113.904.34 1.307.222.407.528.718.912.937.38.222.804.33 1.262.33.458 0 .882-.108 1.263-.33.383-.22.69-.53.913-.937.226-.403.338-.84.338-1.308 0-.728-.25-1.347-.745-1.855-.495-.513-1.084-.77-1.77-.77m.004-.812c.99 0 1.812.36 2.462 1.08.59.658.886 1.44.886 2.338 0 .906-.312 1.696-.936 2.374-.627.674-1.43 1.01-2.413 1.01-.987 0-1.792-.336-2.42-1.01-.623-.678-.935-1.468-.935-2.373 0-.895.298-1.673.888-2.33.65-.727 1.47-1.087 2.467-1.087M100.007 38.274c-.713 0-1.317.25-1.807.756-.49.504-.732 1.127-.732 1.876 0 .49.108.93.33 1.326.216.392.525.7.935.93.403.232.836.347 1.288.347.442 0 .863-.12 1.252-.35.39-.23.7-.553.936-.97.232-.416.346-.854.346-1.307 0-.46-.114-.896-.343-1.31-.23-.408-.54-.73-.93-.958-.386-.228-.813-.34-1.273-.34zm-3.307-.637h.828v1.188c.326-.45.7-.79 1.125-1.015.426-.224.9-.337 1.422-.337.913 0 1.695.33 2.345.99.647.665.973 1.46.973 2.394 0 .95-.324 1.758-.965 2.42-.644.667-1.42 1-2.33 1-.51 0-.982-.108-1.408-.32-.43-.218-.816-.535-1.162-.958v3.478H96.7v-8.84zM109.19 38.286c-.688 0-1.277.256-1.772.77-.496.507-.742 1.126-.742 1.853 0 .466.112.904.338 1.307.223.407.53.718.913.937.38.222.804.33 1.262.33.457 0 .88-.108 1.262-.33.383-.22.69-.53.913-.937.226-.403.338-.84.338-1.308 0-.728-.25-1.347-.744-1.855-.497-.513-1.086-.77-1.77-.77m.002-.812c.99 0 1.812.36 2.462 1.08.59.658.887 1.44.887 2.338 0 .906-.31 1.696-.935 2.374-.626.674-1.43 1.01-2.413 1.01-.987 0-1.792-.336-2.418-1.01-.624-.678-.936-1.468-.936-2.373 0-.895.297-1.673.887-2.33.65-.727 1.47-1.087 2.467-1.087M114.67 37.638h.883l2.158 4.72 2.13-4.72h.885l-2.94 6.47h-.154l-2.96-6.47zM128.606 40.22c-.108-.444-.27-.8-.48-1.064-.21-.268-.49-.48-.836-.646-.35-.158-.713-.242-1.097-.242-.63 0-1.17.205-1.626.61-.33.3-.58.748-.75 1.34h4.79zm0 1.74l.7.37c-.23.455-.494.818-.794 1.095-.3.28-.636.49-1.01.634-.376.143-.8.215-1.27.215-1.05 0-1.868-.346-2.46-1.038-.593-.69-.888-1.473-.888-2.346 0-.82.25-1.553.75-2.192.633-.82 1.483-1.225 2.548-1.225 1.096 0 1.972.415 2.625 1.25.466.594.7 1.33.71 2.217h-5.783c.018.752.255 1.37.716 1.848.46.48 1.03.723 1.712.723.326 0 .64-.06.953-.175.31-.112.573-.265.79-.455.215-.19.45-.496.7-.92zM131.955 37.638h.845v.946c.252-.375.518-.652.795-.836.28-.185.57-.277.876-.277.23 0 .474.076.734.223l-.432.7c-.172-.077-.318-.112-.438-.112-.275 0-.538.114-.796.34-.257.23-.45.583-.584 1.065-.106.37-.154 1.115-.154 2.234v2.19h-.845v-6.472zM140.35 38.345l-.535.553c-.44-.432-.87-.648-1.297-.648-.266 0-.495.09-.687.268-.19.178-.285.386-.285.622 0 .214.077.413.237.603.155.196.487.423.99.686.62.32 1.037.627 1.257.927.217.3.326.64.326 1.014 0 .535-.187.984-.556 1.353-.372.37-.836.554-1.394.554-.37 0-.724-.084-1.06-.242-.337-.165-.617-.39-.838-.675l.52-.597c.422.482.872.72 1.347.72.33 0 .61-.106.844-.32.234-.212.35-.466.35-.754 0-.24-.08-.45-.234-.64-.15-.18-.498-.41-1.04-.69-.58-.3-.975-.596-1.184-.89-.21-.294-.312-.63-.312-1.006 0-.493.163-.9.498-1.225.335-.327.753-.49 1.263-.49.593 0 1.19.293 1.79.875M148.434 40.22c-.108-.444-.27-.8-.48-1.064-.21-.268-.49-.48-.836-.646-.35-.158-.713-.242-1.097-.242-.628 0-1.17.205-1.625.61-.33.3-.58.748-.75 1.34h4.79zm0 1.74l.7.37c-.23.455-.494.818-.794 1.095-.3.28-.636.49-1.01.634-.376.143-.8.215-1.272.215-1.047 0-1.866-.346-2.458-1.038-.593-.69-.888-1.473-.888-2.346 0-.82.25-1.553.75-2.192.633-.82 1.483-1.225 2.548-1.225 1.096 0 1.972.415 2.625 1.25.466.594.7 1.33.71 2.217h-5.783c.018.752.255 1.37.716 1.848.46.48 1.03.723 1.712.723.326 0 .64-.06.953-.175.31-.112.573-.265.79-.455.215-.19.45-.496.7-.92zM155.196 38.274c-.46 0-.887.113-1.273.34-.39.228-.7.55-.93.96-.233.413-.347.848-.347 1.31 0 .452.117.89.35 1.305.234.417.543.74.935.97.39.23.814.35 1.26.35.453 0 .882-.116 1.286-.347.406-.23.718-.54.936-.93.22-.396.33-.837.33-1.327 0-.75-.247-1.372-.736-1.876-.49-.505-1.094-.756-1.81-.756zm3.307-.637v6.47h-.816V43c-.347.422-.736.74-1.165.956-.432.213-.908.32-1.417.32-.91 0-1.686-.332-2.33-.998-.644-.663-.968-1.47-.968-2.42 0-.935.327-1.73.976-2.396.65-.66 1.432-.99 2.348-.99.527 0 1.002.114 1.432.338.426.225.8.565 1.125 1.015v-1.188h.816zM164.804 38.345l-.535.553c-.442-.432-.87-.648-1.298-.648-.266 0-.495.09-.687.268-.192.178-.286.386-.286.622 0 .214.076.413.236.603.155.196.487.423.99.686.62.32 1.037.627 1.258.927.217.3.326.64.326 1.014 0 .535-.186.984-.555 1.353-.373.37-.836.554-1.394.554-.37 0-.724-.084-1.06-.242-.336-.165-.617-.39-.837-.675l.52-.597c.42.482.87.72 1.346.72.328 0 .61-.106.843-.32.235-.212.353-.466.353-.754 0-.24-.08-.45-.235-.64-.15-.18-.497-.41-1.04-.69-.58-.3-.974-.596-1.183-.89-.21-.294-.312-.63-.312-1.006 0-.493.163-.9.498-1.225.335-.327.753-.49 1.262-.49.593 0 1.188.293 1.79.875M170.84 43.473c.46 0 .884-.115 1.273-.343.39-.227.696-.547.93-.96.23-.412.344-.847.344-1.308 0-.458-.114-.9-.346-1.314-.234-.418-.546-.74-.938-.972-.387-.233-.807-.35-1.25-.35-.45 0-.883.117-1.286.35-.41.23-.722.542-.94.934-.22.395-.328.836-.328 1.33 0 .748.246 1.374.735 1.875.49.505 1.09.758 1.806.758zm-3.307.637v-8.972h.828v3.61c.344-.425.733-.745 1.16-.96.43-.212.902-.316 1.41-.316.91 0 1.687.332 2.33.998.642.663.966 1.467.966 2.418 0 .934-.327 1.732-.973 2.395-.653.663-1.432.992-2.345.992-.524 0-.996-.113-1.423-.338-.423-.227-.8-.565-1.124-1.017v1.19h-.827zM176.836 37.638h.827v3.02c0 .74.04 1.246.117 1.523.118.4.344.71.676.94.335.23.732.346 1.193.346.463 0 .852-.112 1.176-.337.32-.223.54-.517.664-.88.08-.25.123-.78.123-1.59v-3.022h.847v3.177c0 .89-.103 1.565-.312 2.017-.206.45-.518.805-.933 1.06-.415.258-.936.384-1.563.384-.624 0-1.148-.126-1.566-.383-.42-.256-.732-.614-.94-1.072-.207-.455-.31-1.146-.31-2.066v-3.116zM184.814 37.638h.876l2.207 4.984 2.147-4.984h.88l-3.834 8.838h-.873l1.236-2.857-2.64-5.982zM194.11 42.8c.202 0 .373.07.517.214.14.144.21.32.21.525 0 .2-.07.376-.21.52-.144.14-.315.216-.516.216-.2 0-.37-.075-.514-.216-.14-.144-.212-.32-.212-.52 0-.206.072-.382.212-.526.143-.144.315-.213.515-.213M204 38.98l-.657.413c-.567-.758-1.337-1.138-2.318-1.138-.782 0-1.432.256-1.95.763-.515.505-.776 1.122-.776 1.845 0 .473.12.917.357 1.332.238.418.564.738.98.968.414.23.878.346 1.393.346.945 0 1.718-.38 2.313-1.137l.656.433c-.308.467-.72.827-1.238 1.084-.518.26-1.108.386-1.77.386-1.015 0-1.857-.323-2.53-.974-.666-.652-1-1.444-1-2.375 0-.626.156-1.208.468-1.747.312-.536.744-.957 1.29-1.257.545-.303 1.16-.45 1.84-.45.423 0 .835.064 1.23.194.395.132.73.3 1.007.513.275.21.51.478.702.8M209.838 38.286c-.687 0-1.277.256-1.772.77-.495.507-.74 1.126-.74 1.853 0 .466.11.904.337 1.307.223.407.53.718.913.937.38.222.804.33 1.262.33.458 0 .882-.108 1.263-.33.384-.22.69-.53.914-.937.226-.403.337-.84.337-1.308 0-.728-.248-1.347-.743-1.855-.495-.513-1.085-.77-1.77-.77m.004-.812c.99 0 1.813.36 2.463 1.08.59.658.887 1.44.887 2.338 0 .906-.312 1.696-.936 2.374-.627.674-1.43 1.01-2.413 1.01-.987 0-1.79-.336-2.418-1.01-.624-.678-.936-1.468-.936-2.373 0-.895.298-1.673.888-2.33.65-.727 1.47-1.087 2.467-1.087M215.927 37.638h.824v1.12c.29-.416.585-.716.89-.906.416-.254.857-.38 1.32-.38.31 0 .605.06.885.184s.51.285.685.49c.18.204.334.498.463.876.275-.505.62-.89 1.03-1.156.413-.265.86-.395 1.335-.395.443 0 .836.114 1.173.34.342.226.594.54.76.947.163.403.246 1.01.246 1.82v3.532h-.84v-3.532c0-.697-.053-1.173-.15-1.435-.098-.257-.267-.467-.504-.626-.238-.158-.52-.236-.85-.236-.404 0-.767.12-1.1.36-.332.235-.575.552-.727.95-.15.395-.23 1.058-.23 1.986v2.533h-.826v-3.313c0-.784-.05-1.31-.147-1.59-.097-.283-.263-.505-.504-.672-.24-.17-.527-.254-.857-.254-.383 0-.74.116-1.073.35-.332.23-.578.542-.738.934-.16.395-.24.994-.24 1.804v2.74h-.825v-6.47z" fill="#939394" mask="url(#aad)"/><path d="M56.193 8.546v36.45" stroke="#CBCCCC" stroke-width=".25" mask="url(#aad)"/></g></svg>
<svg width="210" height="53" viewBox="-10 -10 210 53" id="logo2" y="68"><title>Page 1</title><defs><path id="aba" d="M0 1.493h189.23V34H0V1.493z"/><path id="abc" d="M0 1.493h189.23V34H0V1.493z"/></defs><g transform="translate(0 -1)" fill="none" fill-rule="evenodd"><path d="M59.72 13.137h-6.36v5.215h6.36v-5.215zM45.3 18.352h6.277v-5.215H45.3v5.215zm-1.7-6.734h7.977V7.14h1.784v4.478h8.063v9.365H59.72v-1.11h-6.36v7.64h-1.783v-7.64H45.3v1.11h-1.7v-9.365zM75.51 18.6l1.162-.862c.763.782 1.412 1.514 1.95 2.2l-1.224.92c-.663-.89-1.29-1.643-1.887-2.257zm-8.327 2.752H72.9v-4.067H67.91V15.89H72.9v-2.753h-5.385V11.74h12.348v1.397h-5.43v2.754h5.015v1.395h-5.014v4.067h5.76v1.397h-13.01V21.35zM81.17 9.708H66.23v15.22h14.94V9.707zm-16.536-1.46h18.13v19.16h-1.593v-1.024H66.228v1.046h-1.593V8.25zM98.784 22.153l1.222-1.027c2.183 2 3.89 3.672 5.117 5.01l-1.367 1.253c-1.406-1.656-3.066-3.403-4.972-5.237zm-3.48-3.1h4.473v-5.67h-4.473v5.67zm4.473-11.666h1.702v4.52h2.962v1.477h-2.963v5.668h3.685v1.48H90.1v-1.48h3.502v-5.668h-2.674v-1.478h2.674V7.408h1.702v4.498h4.473v-4.52zm-3.46 14.808c-1.63 1.972-3.328 3.73-5.096 5.278-.373-.426-.796-.82-1.265-1.193 1.755-1.312 3.4-3.002 4.932-5.07l1.43.985zM84.38 17.082c2.17-2.89 3.878-6.183 5.118-9.88l1.66.596c-.712 1.828-1.45 3.507-2.217 5.032v14.6h-1.656V15.817c-.712 1.154-1.443 2.19-2.195 3.115-.2-.56-.434-1.178-.71-1.848zM121.51 11.393c.983-1.054 1.936-2.22 2.862-3.492l1.37 1.03c-.845 1.01-1.88 2.154-3.11 3.428l-1.12-.965zm-6.11 9.753h8.27v-2.548h-8.27v2.548zm8.267-6.55h-8.27v2.527h8.27v-2.526zM115.4 27.43h-1.515V13.056h4.747V7.22h1.597v5.836h4.952v11.91c0 1.588-.755 2.383-2.26 2.383-.775 0-1.872-.022-3.295-.063-.082-.505-.18-1.068-.29-1.682 1.298.08 2.285.12 2.963.12.913 0 1.367-.382 1.367-1.148v-1.95H115.4v4.803zm-2.196-18.728l1.137-.86c.996.97 1.978 2.065 2.944 3.28l-1.304 1.05c-.952-1.328-1.88-2.484-2.776-3.47zm-.145 14.188c0 .604.033 1.174.102 1.708-.884.424-1.913.986-3.088 1.682-.25.138-.538.37-.87.7l-1.098-1.417c.443-.398.662-.913.662-1.54v-4.478h-2.776v-1.418h2.776v-2.77h-1.346V13.94h5.283v1.418h-2.425v2.77h2.903v1.417h-2.903v4.888c1.01-.536 1.937-1.05 2.78-1.543zm-7.253-9.342c1.34-1.9 2.41-4.017 3.212-6.348l1.55.516c-.372.918-.77 1.8-1.2 2.65h3.834v1.414h-4.56c-.607 1.11-1.26 2.165-1.97 3.165-.262-.492-.55-.96-.867-1.397zM137.904 14.905l.934-.926c.88.67 1.755 1.37 2.61 2.094l-1.058 1.067c-.842-.82-1.67-1.566-2.486-2.235zm-.272 5.257l.955-.926c.924.7 1.79 1.404 2.59 2.116l-1.078 1.07c-.816-.783-1.637-1.536-2.468-2.26zm6.426-6.43h-8.205l-.51 3.74h8.622c.035-1.165.064-2.41.093-3.74zm-.135 5.177h-8.764l-.507 3.778h9.128c.053-1.122.104-2.385.143-3.78zm-12.297-1.44h2.124l.734-5.13h11.17c-.042 1.9-.084 3.61-.124 5.13h2.175v1.44h-2.228c-.042 1.477-.08 2.737-.124 3.778h1.69v1.397h-1.785c-.116 1.007-.39 1.76-.826 2.257-.498.562-1.382.842-2.652.842-.72 0-1.644-.026-2.778-.08-.07-.467-.164-1.024-.288-1.664 1.338.123 2.367.185 3.087.185 1.04 0 1.664-.515 1.865-1.54H133.01v-1.52l.532-3.656h-1.916v-1.44zm-.166-4.474c1.712-1.604 3.092-3.57 4.143-5.895h1.763c-.333.712-.68 1.39-1.048 2.033h10.95v1.438h-11.82c-.893 1.377-1.87 2.588-2.933 3.634-.316-.41-.67-.813-1.055-1.208zm-3.647-4.478l1.055-1.088c.832.628 1.982 1.58 3.463 2.85-.47.453-.876.86-1.22 1.214-1.495-1.41-2.593-2.403-3.297-2.976zm-.167 18.297c.816-2.395 1.518-5.016 2.114-7.864.61.26 1.167.474 1.68.636-.706 2.684-1.363 5.278-1.97 7.784l-1.824-.555zm-.62-12.836l1.037-1.173c1.27.88 2.45 1.76 3.542 2.652-.496.562-.9.998-1.204 1.312-1.228-1.093-2.352-2.027-3.374-2.793zM161.174 7.368h1.74v7.064l.83-.923c1.977 1.518 3.737 2.907 5.284 4.165l-1.183 1.52c-1.46-1.34-3.106-2.77-4.932-4.29v12.588h-1.74V7.368zm-13.096 10.45c2.058-3.104 3.604-6.645 4.64-10.615l1.7.47c-.332 1.11-.675 2.18-1.034 3.207h5.758v1.52c-.73 6.802-3.834 11.795-9.302 14.968-.29-.45-.65-.937-1.076-1.457 2.678-1.574 4.736-3.546 6.175-5.913-.97-.808-2.054-1.63-3.258-2.463l1.058-1.256c1.175.85 2.178 1.598 3.004 2.242.86-1.768 1.41-3.795 1.66-6.08h-4.62c-.97 2.423-2.22 4.798-3.754 7.126-.274-.562-.59-1.143-.952-1.747z" fill="#444344"/><mask id="abb" fill="#fff"><use xlink:href="#aba"/></mask><path d="M183.14 16.854l1.43-.408c.635 1.972 1.25 4.038 1.843 6.2l-1.554.453c-.112-.414-.215-.83-.312-1.256-1.465.096-2.776.214-3.935.35-.607.068-1.224.178-1.844.33l-.643-1.337c.48-.3.842-.71 1.077-1.23.76-1.822 1.475-4.014 2.153-6.57l1.576.365c-.83 2.534-1.652 4.87-2.468 7.004 1.177-.068 2.418-.15 3.732-.246-.333-1.206-.684-2.422-1.058-3.656zm-12.515-8.46h7.004v5.894c1.38-2.095 2.408-4.457 3.086-7.085l1.636.37c-.332.985-.678 1.923-1.034 2.813h7.914c-.085 6.653-.166 11.084-.248 13.286-.124 2.218-1.272 3.33-3.44 3.33-1.19 0-2.453-.03-3.79-.084-.085-.547-.196-1.11-.333-1.685 1.34.152 2.568.233 3.687.25 1.452-.017 2.22-.728 2.3-2.14.096-2.326.168-6.144.207-11.456h-6.92c-.51 1.19-1.04 2.278-1.593 3.264-.403-.26-.89-.514-1.47-.758v6.735h-1.492V9.894h-4.022V21.25h-1.49V8.395zm2.755 3.284h1.49v4.13c0 2.654-.184 4.715-.558 6.182l.6-.554c1.41 1.45 2.648 2.772 3.71 3.962l-1.305 1.09c-.98-1.247-2.058-2.513-3.232-3.802-.497 1.56-1.692 3.16-3.584 4.79-.302-.43-.67-.846-1.1-1.257 1.618-1.19 2.69-2.464 3.215-3.822.51-1.174.765-3.175.765-5.994v-4.726z" fill="#444344" mask="url(#abb)"/><mask id="abd" fill="#fff"><use xlink:href="#abc"/></mask><path d="M7.494 11.62h5.983v12.29H7.494V11.62zM19.314 11.62h5.982v12.29h-5.982V11.62z" fill="#FFF000" mask="url(#abd)"/><path d="M10.107 9.028H22.68v5.93H10.106v-5.93zM10.107 20.573H22.68v5.93H10.106v-5.93z" fill="#FFF000" mask="url(#abd)"/><path d="M16.394 17.71c-.03 0-.053.025-.053.054 0 .03.025.055.054.055.03 0 .053-.025.053-.056 0-.03-.024-.053-.053-.053m0 5.604c-3.087 0-5.597-2.49-5.597-5.55 0-3.058 2.51-5.548 5.597-5.548 3.088 0 5.597 2.49 5.597 5.548 0 3.06-2.508 5.55-5.596 5.55M16.295 34c-.575 0-1.098-.194-1.51-.562-.343-.306-3.52-3.576-4.868-4.967l-.457-.467-.013-.65c-.008-.443.04-1.958 1.053-2.855.546-.484 1.285-.727 2.195-.727.42 0 .747.054.81.067l.5.086 2.364 2.236 2.06-2.038.22-.115c.15-.08.7-.34 1.453-.34.82 0 1.596.303 2.24.876 1.32 1.177 1.196 2.877.52 3.96l-.063.1-.077.09c-.586.696-4.045 4.04-4.734 4.703l-.172.165-.214.113c-.188.1-.69.327-1.31.327M20.103 11.827c-.752 0-1.304-.262-1.454-.34l-.22-.118-2.06-2.036-2.366 2.234-.498.09c-.06.01-.39.064-.81.064-.91 0-1.65-.246-2.196-.727-1.013-.9-1.06-2.41-1.053-2.853l.013-.652.457-.47c1.348-1.392 4.525-4.66 4.868-4.967.412-.366.935-.56 1.51-.56.62 0 1.12.228 1.31.327l.213.11.17.168c.69.664 4.15 4.004 4.735 4.7l.077.09.063.1c.676 1.083.8 2.786-.52 3.963-.644.573-1.42.877-2.24.877M26.033 24.638c-.565 0-1.97-.102-2.818-1.046-.935-1.036-.75-2.54-.67-2.976l.09-.495 2.253-2.342-2.053-2.043-.12-.217c-.384-.714-.7-2.288.542-3.66.586-.647 1.383-1.003 2.243-1.003.89 0 1.567.372 1.755.487l.1.062.092.076c.702.58 4.075 4.01 4.742 4.692l.168.17.11.212c.394.735.57 1.91-.234 2.793-.308.34-3.607 3.487-5.01 4.826l-.47.447-.663.018h-.057zM6.71 24.638l-.652-.02-.48-.446C4.174 22.836.875 19.687.568 19.347c-.804-.884-.63-2.06-.236-2.793l.11-.212.17-.17c.667-.683 4.04-4.112 4.744-4.692l.09-.076.1-.063c.188-.11.866-.485 1.755-.485.86 0 1.658.355 2.244 1 1.246 1.374.926 2.95.54 3.663l-.118.217-2.053 2.043 2.254 2.343.09.495c.08.437.263 1.943-.67 2.98-.848.94-2.254 1.043-2.82 1.043H6.71z" fill="#FFF000" mask="url(#abd)"/><path d="M11.334 22.573H8.47V12.77h2.864v9.803zM24.278 22.573h-2.863V12.77h2.863v9.803zM21.415 12.77h-10.08V9.934h10.08v2.838zM21.415 25.41h-10.08v-2.837h10.08v2.838zM16.375 13.424c-2.367 0-4.285 1.9-4.285 4.247 0 2.35 1.918 4.25 4.285 4.25s4.286-1.9 4.286-4.25c0-2.345-1.918-4.246-4.285-4.246m1.903 4.247c0 1.045-.853 1.887-1.903 1.887s-1.903-.842-1.903-1.886c0-1.04.853-1.885 1.903-1.885s1.903.845 1.903 1.886M21.656 26.452c-.96-.855-1.945-.335-1.945-.335l-3.334 3.298-3.49-3.298s-1.173-.206-1.738.293c-.562.497-.535 1.72-.535 1.72s4.866 5.02 5.232 5.347c.37.327.993 0 .993 0s4.44-4.28 5.05-5.006c0 0 .73-1.163-.232-2.018M21.656 8.852c-.96.855-1.945.335-1.945.335L16.377 5.89l-3.49 3.297s-1.173.206-1.738-.293c-.562-.497-.535-1.72-.535-1.72s4.866-5.02 5.232-5.347c.37-.327.993 0 .993 0s4.44 4.28 5.05 5.006c0 0 .73 1.164-.232 2.02M25.26 12.425c-.862.95-.336 1.925-.336 1.925l3.327 3.308-3.326 3.458s-.21 1.164.295 1.72c.5.56 1.735.534 1.735.534s5.064-4.825 5.394-5.19c.33-.362 0-.98 0-.98s-4.318-4.4-5.05-5.008c0 0-1.176-.72-2.04.233M7.503 12.425c.863.95.338 1.925.338 1.925l-3.327 3.308 3.328 3.458s.21 1.164-.295 1.72c-.5.56-1.736.534-1.736.534S.744 18.545.414 18.18c-.33-.362 0-.98 0-.98s4.317-4.4 5.05-5.008c0 0 1.175-.72 2.038.233" fill="#094" mask="url(#abd)"/></g></svg>
</svg>