<svg xmlns="http://www.w3.org/2000/svg" xmlns:xlink="http://www.w3.org/1999/xlink" width="242.308" height="136" viewBox="0 0 242.308 136"><svg width="240.49" height="56" viewBox="-10 -10 240.49 56" id="logo1" y="0"><g fill-rule="evenodd" clip-rule="evenodd"><path fill="#FFF462" d="M35.478 16.71l-4.92-4.92v-.003c-.84-.748-1.95-1.2-3.168-1.2-1.326 0-2.525.54-3.388 1.416V12c.872-.866 1.413-2.065 1.413-3.39 0-1.214-.455-2.325-1.2-3.168h-.003L19.29.52C18.96.195 18.503 0 18 0c-.5 0-.95.193-1.284.516L14.18 3.05l-2.393 2.392v.003c-.75.843-1.2 1.95-1.2 3.164 0 1.325.54 2.524 1.414 3.39 0 0-.002 0-.002.003-.863-.877-2.063-1.417-3.39-1.417-1.214 0-2.324.453-3.166 1.2v.005l-4.92 4.92C.2 17.046 0 17.495 0 18c0 .498.2.953.516 1.283l2.536 2.533 2.392 2.395c.842.747 1.952 1.206 3.166 1.206 1.326 0 2.526-.543 3.39-1.418H12c-.876.866-1.415 2.063-1.415 3.393 0 1.213.453 2.323 1.2 3.16v.005l2.395 2.39 2.535 2.533c.332.327.783.522 1.283.522.503 0 .96-.195 1.29-.52l4.92-4.922h.004c.745-.842 1.2-1.952 1.2-3.165 0-1.33-.54-2.527-1.413-3.393.864.875 2.063 1.418 3.39 1.418 1.213 0 2.32-.46 3.165-1.205l2.393-2.395 2.532-2.533c.323-.332.52-.786.52-1.286 0-.504-.197-.953-.522-1.29z"/><path fill="#094" d="M12.688 9.516h10.646v3.17H12.688zM23.315 12.686h3.17v10.626h-3.17zM12.688 23.313h10.626v3.175H12.688zM9.517 12.686h3.17v10.626h-3.17zM18 19.982c-1.09 0-1.978-.89-1.978-1.983 0-1.094.888-1.983 1.978-1.983 1.094 0 1.978.888 1.978 1.982 0 1.092-.884 1.982-1.978 1.982zm0-6.633c-2.568 0-4.652 2.08-4.652 4.65 0 2.57 2.083 4.653 4.652 4.653 2.57 0 4.652-2.082 4.652-4.653 0-2.57-2.083-4.65-4.652-4.65zM34.94 18.774c.193-.2.314-.474.314-.774 0-.3-.12-.572-.315-.776l-1.705-1.702-3.206-3.205c-.32-.32-.757-.514-1.24-.514-.968 0-1.752.784-1.752 1.755 0 .482.194.92.512 1.24L30.756 18 27.55 21.21c-.318.315-.512.757-.512 1.237 0 .97.784 1.757 1.752 1.757.487 0 .923-.2 1.242-.517l4.907-4.91zM1.066 18.774c-.197-.2-.32-.474-.32-.774 0-.3.123-.572.32-.776l1.7-1.702 3.206-3.205c.32-.32.755-.514 1.24-.514.968 0 1.755.784 1.755 1.755 0 .482-.2.92-.516 1.24L5.246 18 8.45 21.21c.318.315.517.757.517 1.237 0 .97-.787 1.757-1.755 1.757-.485 0-.922-.2-1.24-.517l-4.906-4.91zM17.228 34.938c.197.195.474.316.772.316.302 0 .573-.12.776-.316l1.706-1.703 3.206-3.212c.314-.313.51-.752.51-1.233 0-.968-.78-1.753-1.75-1.753-.486 0-.924.196-1.242.514L18 30.755l-3.203-3.204c-.32-.318-.76-.514-1.24-.514-.97 0-1.753.785-1.753 1.753 0 .48.195.92.512 1.238l4.912 4.91zM17.228 1.06c.197-.193.473-.313.772-.313.302 0 .573.12.776.314l1.706 1.705 3.206 3.205c.314.32.51.758.51 1.243 0 .967-.78 1.75-1.75 1.75-.486 0-.924-.194-1.242-.513L18 5.247 14.797 8.45c-.32.32-.76.513-1.24.513-.97 0-1.753-.784-1.753-1.75 0-.487.195-.925.512-1.243l4.912-4.91z"/></g><g fill="#333"><path d="M63.195 11.557c0-.18.065-.34.195-.477s.285-.208.465-.208h1.37c.163 0 .314.07.453.208.138.14.208.298.208.477v9.888c0 .18-.065.335-.196.464-.13.13-.286.195-.465.195h-1.37c-.18 0-.335-.065-.465-.196-.13-.13-.195-.286-.195-.465v-.833h-5.678v7.49c0 .18-.066.338-.196.477-.13.137-.285.207-.464.207h-1.444c-.163 0-.315-.065-.453-.196-.14-.13-.21-.293-.21-.488v-7.49h-5.677v1.004c0 .18-.065.34-.196.477-.13.14-.285.208-.464.208h-1.37c-.164 0-.315-.068-.454-.207-.14-.14-.21-.298-.21-.477V11.63c0-.18.066-.34.197-.477.13-.14.285-.208.464-.208h1.372c.18 0 .334.07.464.208s.196.298.196.477v.196h5.678V7.763c0-.18.065-.34.196-.477s.285-.208.465-.208h1.445c.163 0 .314.07.453.208.14.14.21.298.21.477v4.063h5.677v-.27zm-14.122 7.88h5.678v-6.436h-5.677v6.438zm8.444 0h5.678v-6.436h-5.678v6.438zM71.932 8.448c0-.18.07-.338.208-.477.14-.137.29-.207.453-.207h1.273c.163 0 .306.057.428.17.123.116.2.262.233.442h14.61c0-.18.066-.334.197-.464.13-.13.285-.195.464-.195h1.248c.18 0 .334.07.465.208.13.14.196.298.196.477v19.677c0 .18-.065.34-.195.477-.13.14-.285.208-.464.208h-1.248c-.18 0-.335-.07-.464-.208-.13-.14-.196-.298-.196-.477v-.685H74.526v.66c0 .18-.065.335-.196.465-.13.13-.285.196-.464.196h-1.273c-.163 0-.314-.066-.453-.196-.14-.13-.208-.286-.208-.465V8.448zm2.594 17.89h14.61V9.453h-14.61V26.34zm1.69-9.128c0-.08.036-.163.11-.245.072-.08.158-.123.256-.123h3.794V13.05h-4.38c-.262 0-.392-.13-.392-.392v-.27c0-.08.037-.162.11-.244.073-.08.167-.123.28-.123H87.67c.097 0 .187.042.27.124.08.082.12.163.12.245v.268c0 .115-.04.208-.12.28-.083.075-.173.112-.27.112h-4.798v3.793h4.136c.098 0 .187.04.27.123.08.082.122.163.122.245v.295c0 .098-.04.183-.123.257-.082.073-.17.11-.27.11h-4.135v4.798h5.14c.098 0 .187.04.27.122.08.082.12.17.12.27v.268c0 .098-.04.184-.12.257-.083.073-.172.11-.27.11H75.627c-.114 0-.208-.037-.28-.11s-.11-.16-.11-.257v-.27c0-.098.036-.187.11-.27.072-.08.166-.12.28-.12h4.748V17.87H76.58c-.096 0-.182-.037-.256-.11-.073-.074-.11-.16-.11-.258v-.294zm7.634 1.91c-.05-.082-.012-.192.11-.33.123-.14.25-.185.38-.136.57.23 1.056.473 1.456.734.4.26.713.498.942.71.18.18.285.367.32.563.03.196-.018.45-.148.76-.05.13-.122.26-.22.39s-.22.253-.367.367c-.18.147-.38.192-.6.135-.22-.057-.395-.257-.526-.6-.343-.895-.792-1.76-1.347-2.593zM96.21 18.532c.603-1.126 1.134-2.174 1.59-3.145.457-.97.857-1.896 1.2-2.777s.645-1.738.906-2.57c.26-.832.497-1.672.71-2.52.032-.197.13-.336.293-.417.162-.08.35-.098.562-.05l1.493.49c.39.18.522.465.39.857-.342.93-.693 1.803-1.05 2.62-.36.815-.735 1.59-1.127 2.324.26.115.392.327.392.637v14.147c0 .18-.066.34-.196.477-.13.14-.286.208-.465.208h-1.273c-.18 0-.335-.07-.465-.208-.13-.14-.196-.298-.196-.477v-11.43c-.702.897-1.444 1.712-2.227 2.446-.05.05-.12.065-.21.05-.09-.017-.167-.058-.232-.123s-.115-.147-.147-.245c-.032-.097-.015-.195.05-.293zm5.727 9.692c.57-.554 1.09-1.08 1.554-1.578.466-.498.89-.987 1.274-1.47.382-.48.726-.957 1.028-1.43.3-.473.583-.955.844-1.445.13-.26.285-.403.464-.428.18-.024.4.03.66.16.115.064.29.158.527.28.237.123.42.24.55.355.262.18.41.36.442.54.032.178-.066.415-.294.708-.26.343-.62.746-1.077 1.212-.458.465-.976.935-1.555 1.407-.58.473-1.208.927-1.884 1.358-.676.433-1.374.796-2.092 1.09-.065.032-.135.02-.208-.038s-.14-.127-.196-.208c-.057-.08-.094-.17-.11-.27-.017-.096.007-.177.073-.242zm.465-8.224c0-.114.04-.212.123-.293.08-.082.18-.123.293-.123h3.402v-6.486h-2.47c-.116 0-.214-.04-.295-.122-.082-.082-.123-.188-.123-.32v-.366c0-.114.04-.212.123-.293.08-.08.18-.123.294-.123h2.47V7.738c0-.18.065-.334.196-.464.13-.13.277-.196.44-.196h1.274c.163 0 .31.065.44.196s.196.285.196.464v4.136h3.598v-4.11c0-.18.065-.34.196-.478.13-.14.277-.208.44-.208h1.273c.163 0 .31.07.44.208.132.14.197.298.197.477v4.112h2.643c.114 0 .212.04.293.123.082.08.123.18.123.293v.368c0 .13-.042.237-.124.32-.08.08-.18.12-.293.12h-2.643v6.487h3.23c.132 0 .234.04.307.123.073.08.11.18.11.293v.442c0 .13-.037.237-.11.32-.073.08-.175.12-.306.12h-15.32c-.114 0-.212-.04-.293-.12-.082-.083-.123-.19-.123-.32V20zm6.363-.416h3.598v-6.486h-3.598v6.486zm3.157 3.28c-.05-.05-.065-.118-.05-.208.017-.09.054-.18.11-.27.058-.088.132-.158.22-.207.09-.05.185-.05.283 0 .57.26 1.122.542 1.652.843.53.302 1.02.604 1.468.906.45.3.848.59 1.2.867.35.278.64.53.868.76.408.39.547.92.417 1.59-.05.228-.127.456-.233.685-.107.228-.225.416-.355.562-.277.327-.558.493-.844.502-.285.008-.543-.192-.77-.6-.523-.897-1.106-1.795-1.75-2.692-.645-.896-1.383-1.81-2.216-2.74zM121.835 16.574c.407-.897.762-1.733 1.064-2.508.3-.775.565-1.518.794-2.228.23-.71.425-1.407.588-2.092.163-.686.31-1.396.44-2.13.05-.245.144-.408.282-.49.14-.08.362-.097.673-.05.26.05.485.103.673.16.187.057.355.102.5.135.262.082.418.196.466.344.05.147.033.35-.05.612-.097.327-.204.65-.318.966-.114.32-.237.64-.367.967h3.722c.13 0 .24.04.33.12.09.083.135.18.135.295v.245c0 .115-.045.208-.135.28-.09.075-.2.112-.33.112h-4.136c-.245.554-.502 1.097-.77 1.627-.27.53-.56 1.032-.87 1.505h5.36c.132 0 .237.04.32.122.08.082.12.17.12.27v.268c0 .115-.044.208-.133.28-.09.075-.193.112-.306.112h-2.424v3.67h2.937c.13 0 .24.042.33.123.09.082.135.17.135.27v.318c0 .114-.045.208-.134.28-.09.074-.192.11-.305.11h-2.962v4.43l2.742-1.27c.064-.034.137-.026.22.024.08.05.155.11.22.183s.107.155.123.245 0 .168-.05.233c-.26.294-.56.616-.904.967-.343.35-.706.7-1.09 1.052-.383.35-.78.705-1.187 1.064-.408.36-.807.7-1.2 1.028-.472.375-.855.35-1.15-.073-.13-.195-.272-.424-.427-.684-.155-.26-.257-.465-.306-.612-.18-.457-.05-.775.39-.954l.27-.123V20.27h-2.35c-.113 0-.216-.037-.305-.11-.09-.073-.136-.167-.136-.28v-.32c0-.098.045-.187.135-.27.088-.08.19-.12.305-.12h2.35v-3.672h-1.298c-.457.62-.914 1.142-1.37 1.566-.05.05-.115.06-.196.037-.08-.024-.158-.064-.232-.122-.073-.057-.13-.126-.17-.208-.042-.082-.047-.147-.013-.196zm9.153-7.905c-.033-.05-.037-.11-.013-.185.025-.073.07-.143.135-.208s.14-.114.22-.147c.08-.033.172-.025.27.025.603.31 1.153.636 1.65.98.498.342.895.692 1.188 1.05.178.197.282.393.306.59.024.195-.005.407-.086.635-.065.23-.15.425-.257.588-.106.163-.224.318-.354.464-.228.23-.473.32-.735.27-.26-.05-.447-.23-.56-.54-.18-.505-.414-1.047-.7-1.627s-.638-1.21-1.062-1.896zm7.514 18.403c-.115-.31-.01-.49.317-.54l.953-.12c.343-.066.588-.193.735-.38.147-.188.22-.494.22-.918v-1.958h-6.9v4.993c0 .196-.066.36-.197.49-.13.13-.284.195-.464.195h-1.125c-.163 0-.314-.065-.453-.196-.14-.132-.207-.294-.207-.49V13.612c0-.18.065-.334.196-.464.13-.13.285-.196.465-.196h1.126c.147 0 .282.05.405.147.122.097.2.22.234.366h2.178V7.738c0-.18.07-.334.207-.464.138-.13.29-.196.452-.196h1.1c.165 0 .316.065.455.196s.207.285.207.464v5.727h2.325c.032-.147.114-.273.244-.38.13-.105.27-.158.416-.158h1.127c.178 0 .333.07.465.208.13.14.194.298.194.477v12.36c0 .668-.113 1.224-.343 1.664-.228.44-.628.75-1.198.93-.23.065-.49.123-.784.17-.292.05-.595.082-.904.1-.196.032-.347.01-.453-.062-.107-.073-.217-.208-.33-.404-.033-.05-.082-.13-.148-.245-.065-.114-.13-.237-.196-.367s-.132-.257-.197-.38c-.065-.12-.105-.223-.12-.305zm-4.675-9.3h6.9v-3.23h-6.9v3.23zm0 4.332h6.9V18.85h-6.9v3.255zm5.604-9.496c.278-.605.544-1.233.798-1.886.252-.652.492-1.346.722-2.08.064-.228.178-.383.343-.465.163-.082.343-.082.54 0 .193.08.397.175.61.28.213.107.44.225.686.356.227.13.345.28.353.453.008.17-.045.346-.158.526-.18.26-.392.535-.637.82-.244.286-.505.57-.782.856-.28.286-.567.563-.87.833-.3.27-.607.51-.918.722-.08.065-.167.09-.257.073-.088-.016-.17-.053-.243-.11-.075-.057-.127-.123-.16-.196-.034-.075-.042-.136-.026-.185zM147.68 13.76c-.066-.114-.095-.21-.087-.282.008-.073.053-.16.135-.257.08-.13.155-.2.22-.207.066-.008.156.004.27.037.7.195 1.334.437 1.896.722.563.286.992.56 1.285.82.195.18.313.38.354.6.04.22-.013.5-.16.844-.064.147-.146.31-.244.49s-.23.358-.392.538c-.212.23-.44.34-.685.33-.245-.008-.465-.208-.66-.6-.278-.538-.57-1.047-.88-1.53-.312-.48-.663-.982-1.054-1.504zm.44 8.54c-.065-.195-.017-.366.147-.513.18-.18.367-.196.563-.05.147.132.297.27.453.418.155.147.322.31.502.49l2.74-6.73c.034-.066.1-.103.197-.11s.196 0 .294.023c.098.025.183.066.257.123.073.058.102.128.086.21l-1.86 8.296c.162.196.305.38.428.55.122.172.224.324.306.454.18.293.29.562.33.808.04.245-.004.514-.135.807-.082.18-.196.375-.344.588-.147.21-.335.4-.562.562-.327.23-.608.318-.844.27-.237-.05-.42-.303-.55-.76-.214-.75-.5-1.598-.857-2.544-.362-.947-.746-1.91-1.153-2.89zm1.42-14.292c-.132-.163-.124-.343.023-.538.098-.098.184-.155.257-.17.073-.018.175-.01.306.023.718.23 1.338.482 1.86.76.522.276.92.546 1.2.806.21.18.342.37.39.574.05.205 0 .494-.147.87-.05.162-.12.334-.21.513-.09.18-.216.36-.378.54-.23.228-.474.33-.735.305-.26-.025-.48-.24-.66-.65-.278-.522-.575-1.04-.894-1.553-.316-.515-.655-1.008-1.014-1.482zm3.498 6.388c.98-1.174 1.8-2.34 2.46-3.5.66-1.158 1.203-2.3 1.628-3.426.163-.392.424-.54.783-.44l1.37.365c.178.065.3.176.366.33.065.156.065.307 0 .454l-.514.978h10.108c.098 0 .187.04.27.123.08.083.122.172.122.27v.343c0 .098-.04.183-.123.257-.083.074-.172.11-.27.11h-10.793c-.26.376-.53.727-.808 1.053l-.834.978h.245l.833.05c.18.033.335.094.465.183.13.09.212.225.245.404h6.78v-.025c0-.18.064-.334.195-.464.13-.13.285-.196.465-.196l1.126.05c.178 0 .333.064.464.195.13.13.195.286.195.465-.034.962-.066 1.89-.1 2.778l-.096 2.582h1.86c.113 0 .207.04.28.122.074.082.11.163.11.245v.366c0 .098-.04.184-.122.257-.08.073-.163.11-.245.11h-1.934c-.033.8-.07 1.558-.11 2.276s-.086 1.394-.135 2.03h1.934c.114 0 .208.042.28.123.074.082.11.163.11.245v.343c0 .098-.04.188-.12.27-.083.08-.164.122-.246.122h-2.032c-.017.098-.03.192-.037.28-.01.09-.013.177-.013.258-.08.963-.26 1.697-.538 2.203-.278.505-.8.856-1.567 1.052-.474.114-1.07.195-1.787.245-.23 0-.392-.03-.49-.086-.097-.057-.195-.167-.293-.33-.082-.147-.188-.35-.32-.612-.13-.26-.228-.482-.292-.66-.082-.197-.086-.332-.013-.405.074-.073.184-.12.33-.135l1.2-.147c.425-.08.74-.2.942-.355.204-.155.322-.47.355-.942 0-.065.003-.127.012-.184.008-.057.012-.118.012-.183h-7.635l-.024.32c-.017.244-.102.416-.257.514-.156.097-.348.13-.575.097l-.833-.072c-.212-.033-.39-.114-.54-.245-.146-.13-.203-.318-.17-.563l.66-5.457h-1.468c-.097 0-.183-.037-.257-.11-.073-.073-.11-.16-.11-.257v-.367c0-.082.037-.164.11-.246.073-.08.16-.122.257-.122h1.616l.66-5.41c-.44.426-.88.813-1.322 1.164-.44.35-.864.656-1.272.918-.082.065-.163.08-.245.05-.08-.034-.15-.086-.207-.16-.057-.073-.102-.16-.135-.257-.027-.1-.018-.172.03-.22zm11.822 9.325c.05-.685.098-1.378.147-2.08.05-.7.09-1.444.122-2.227h-7.32l-.538 4.308h7.588zm.465-9.69h-6.828l-.54 4.282h7.22l.148-4.283zm-5.507 6.215c-.065-.114-.037-.24.085-.38.123-.138.257-.174.404-.11.604.262 1.093.515 1.47.76.373.244.684.48.93.71.195.195.31.387.342.574.032.187.007.378-.074.574-.082.196-.176.36-.28.49-.108.13-.21.244-.307.342-.197.18-.426.277-.687.293-.26.016-.45-.14-.562-.466-.097-.277-.19-.526-.28-.746-.09-.22-.184-.437-.282-.65-.098-.21-.208-.427-.33-.648-.124-.22-.267-.467-.43-.745zm.27-5.31c-.065-.1-.037-.21.085-.332.123-.122.265-.16.43-.11.57.23 1.043.453 1.42.673.374.22.692.445.953.673.196.178.31.366.343.56.032.197.007.385-.074.564-.082.196-.17.36-.27.49-.097.13-.195.236-.293.318-.196.18-.425.277-.685.293-.26.017-.45-.138-.563-.464-.195-.522-.387-.966-.574-1.333-.19-.366-.447-.81-.772-1.333zM173.23 28.077c1.306-1.06 2.472-2.14 3.5-3.243 1.03-1.1 1.938-2.28 2.73-3.536.79-1.256 1.463-2.627 2.018-4.112.554-1.484 1.012-3.14 1.37-4.968h-3.793c-.555 1.273-1.19 2.456-1.91 3.55.62.326 1.13.635 1.53.93.4.293.723.578.967.855.18.18.285.367.318.563.033.196.01.44-.073.734-.08.23-.167.43-.257.6-.09.17-.208.34-.355.502-.18.18-.387.277-.624.293-.236.017-.42-.138-.55-.464-.147-.342-.278-.65-.392-.93-.114-.277-.233-.534-.355-.77-.123-.237-.25-.47-.38-.698-.13-.228-.277-.473-.44-.734-.392.554-.808 1.076-1.248 1.566-.44.49-.914.97-1.42 1.444-.05.05-.12.06-.208.037-.09-.025-.17-.073-.245-.147-.073-.073-.13-.16-.17-.257-.042-.097-.038-.186.01-.268.457-.685.907-1.464 1.347-2.337.44-.873.85-1.8 1.235-2.778.383-.98.726-2.003 1.028-3.07.302-1.07.55-2.15.746-3.244.032-.18.118-.326.256-.44.14-.115.297-.156.477-.123l1.738.343c.164.033.29.118.38.257s.11.298.06.477c-.162.523-.326 1.03-.488 1.518-.163.49-.335.963-.514 1.42h3.548l.05-.245c.032-.163.122-.3.268-.416.147-.114.31-.155.49-.122l1.493.27c.18.032.314.12.403.267.09.146.12.31.086.49-.44 2.25-.97 4.24-1.59 5.97-.62 1.73-1.4 3.28-2.338 4.65-.938 1.37-2.076 2.62-3.414 3.745-1.338 1.126-2.937 2.218-4.797 3.28-.082.032-.167.02-.257-.038-.09-.057-.167-.135-.233-.233-.065-.098-.102-.204-.11-.318-.005-.114.03-.204.113-.27zm14.44-20.29c0-.178.065-.334.196-.464.13-.13.285-.196.465-.196h1.37c.18 0 .336.066.466.196s.195.286.195.465v6.534c1.323.685 2.383 1.314 3.183 1.885.8.57 1.387 1.068 1.762 1.493.163.18.26.408.294.685.03.277.007.57-.075.88-.08.246-.167.458-.257.637-.09.18-.208.36-.355.54-.18.212-.408.326-.685.342-.277.017-.506-.147-.685-.49-.425-.766-.906-1.537-1.444-2.312-.54-.775-1.12-1.554-1.74-2.337V28.15c0 .18-.064.334-.194.465-.13.13-.286.195-.465.195h-1.37c-.18 0-.334-.065-.464-.195s-.196-.286-.196-.465V7.788zM199.026 28.126c.686-.685 1.273-1.326 1.762-1.92.49-.597.893-1.176 1.212-1.74.318-.562.566-1.13.747-1.7.18-.57.314-1.183.404-1.836.09-.652.148-1.366.172-2.14.024-.776.037-1.645.037-2.608l-.026-4.112c0-.18.057-.34.17-.477s.295-.208.54-.208h.71c.245 0 .424.073.54.22.113.147.17.31.17.49v4.087c0 1.272-.037 2.415-.11 3.427-.074 1.01-.225 1.933-.454 2.764.897.49 1.717.98 2.46 1.468.742.49 1.3.923 1.676 1.297.26.26.39.518.39.77 0 .253-.048.518-.146.795-.082.196-.18.392-.294.588-.114.196-.237.36-.366.49-.196.178-.404.256-.625.232-.22-.025-.42-.217-.6-.575-.375-.67-.782-1.334-1.223-1.995-.44-.66-.963-1.382-1.566-2.165-.392 1.06-.984 2.023-1.775 2.888-.79.864-1.887 1.746-3.29 2.643-.082.05-.164.054-.246.014-.08-.04-.155-.102-.22-.184-.065-.08-.107-.17-.123-.27-.014-.097.01-.18.076-.244zm15.565-1.175c-.13-.31-.048-.48.246-.513.327-.05.67-.098 1.03-.147.358-.05.644-.098.855-.147.41-.08.678-.233.81-.453.13-.22.21-.567.244-1.04.016-.424.033-.975.05-1.652.015-.676.032-1.423.048-2.24.016-.815.028-1.672.037-2.57.007-.896.02-1.77.036-2.618.016-.848.028-1.652.037-2.41.008-.76.012-1.408.012-1.947h-5.286c-.474.864-1.013 1.688-1.617 2.47-.604.784-1.256 1.462-1.957 2.033-.065.05-.14.053-.22.013-.082-.042-.156-.103-.22-.185v5.678c0 .196-.066.36-.197.49-.132.13-.278.195-.442.195h-.906c-.163 0-.31-.065-.44-.195-.132-.13-.196-.294-.196-.49v-11.6h-4.234v12.262c0 .195-.06.36-.183.49-.124.13-.274.195-.454.195h-.856c-.163 0-.31-.065-.44-.196-.132-.13-.197-.294-.197-.49V8.5c0-.18.065-.335.196-.465.13-.13.276-.196.44-.196h.856c.163 0 .306.057.43.17.122.116.19.262.207.442h4.234c0-.18.065-.33.195-.454.13-.123.277-.183.44-.183h.907c.162 0 .31.065.44.195s.196.286.196.465v6.51c.668-1.272 1.244-2.504 1.726-3.695.48-1.19.884-2.423 1.21-3.696.05-.196.144-.347.282-.453.14-.107.34-.128.6-.062l1.175.367c.227.082.358.204.39.367.033.163.008.35-.073.562-.115.278-.233.567-.355.87-.123.3-.257.598-.404.892h4.747v-.293c-.033-.457.204-.676.71-.66l1.077.05c.277.016.465.085.562.208.098.123.147.29.147.502 0 .115-.003.514-.012 1.2-.008.685-.02 1.53-.037 2.533-.015 1.004-.032 2.097-.048 3.28-.017 1.183-.037 2.333-.06 3.45-.026 1.118-.05 2.134-.074 3.047s-.053 1.6-.086 2.055c-.033.72-.167 1.322-.403 1.81-.238.49-.642.85-1.213 1.078-.294.114-.592.204-.893.27-.303.064-.73.122-1.285.17-.28.033-.478.025-.6-.025-.123-.05-.25-.17-.38-.366-.098-.147-.23-.376-.39-.686-.165-.31-.305-.58-.42-.807zm-5.48-4.893c-.066-.473.113-.726.538-.76h.05c.554-1.19 1.05-2.4 1.492-3.633.44-1.232.808-2.394 1.102-3.487.065-.23.174-.367.33-.416.155-.048.355-.032.6.05l1.003.392c.375.18.473.464.294.856-.18.457-.405.958-.674 1.505-.27.547-.554 1.098-.856 1.652-.302.554-.624 1.093-.966 1.615-.343.523-.677.988-1.004 1.395l3.794-.27c-.13-.374-.286-.782-.465-1.223-.18-.44-.384-.922-.613-1.444-.033-.065-.033-.135 0-.208.033-.073.077-.135.135-.184.057-.05.126-.08.208-.098.08-.016.147 0 .196.05.783.684 1.428 1.337 1.934 1.956.505.62.848 1.134 1.028 1.542.18.39.163.824-.05 1.297-.08.147-.187.315-.318.502-.13.187-.277.347-.44.477-.18.13-.376.163-.588.098s-.36-.26-.44-.588l-.27-1.15c-.31.13-.66.268-1.052.416-.39.147-.808.293-1.248.44-.44.148-.89.294-1.346.442-.457.147-.906.277-1.346.39-.23.066-.4.07-.514.014s-.212-.217-.294-.477l-.223-1.15z"/></g></svg>
<svg width="242.308" height="80" viewBox="-10 -10 242.308 80" id="logo2" y="56"><g fill-rule="evenodd" clip-rule="evenodd"><path fill="#FFF462" d="M59.13 27.848l-8.203-8.197v-.006c-1.4-1.246-3.25-2.002-5.278-2.002-2.21 0-4.21.9-5.648 2.362V20c1.454-1.444 2.355-3.442 2.355-5.652 0-2.022-.758-3.874-2-5.28h-.007L32.147.866C31.597.325 30.84 0 30 0c-.834 0-1.584.322-2.14.86l-4.224 4.225-3.99 3.985-.002.005c-1.246 1.405-2 3.252-2 5.274 0 2.21.9 4.208 2.358 5.65 0 0-.005 0-.005.005-1.44-1.462-3.438-2.362-5.648-2.362-2.026 0-3.876.756-5.28 2.002v.007L.874 27.85C.333 28.41 0 29.16 0 30c0 .83.332 1.59.86 2.14l4.227 4.22 3.987 3.993c1.403 1.244 3.253 2.01 5.276 2.01 2.21 0 4.21-.906 5.648-2.364h.005c-1.46 1.442-2.36 3.437-2.36 5.654 0 2.02.755 3.87 2.002 5.267.002 0 .002 0 .002.008l3.99 3.986 4.224 4.22c.556.54 1.306.866 2.14.866.84 0 1.598-.325 2.15-.868l8.202-8.202h.006c1.242-1.404 2-3.254 2-5.274 0-2.217-.9-4.212-2.354-5.655 1.44 1.46 3.437 2.364 5.647 2.364 2.025 0 3.87-.765 5.277-2.01h.002l3.986-3.99 4.22-4.223c.537-.55.865-1.307.865-2.14 0-.84-.328-1.59-.87-2.152z"/><path fill="#094" d="M21.147 15.86H38.89v5.284H21.147zM38.858 21.144h5.282v17.71h-5.282zM21.147 38.854h17.71v5.292h-17.71zM15.862 21.144h5.286v17.71h-5.286zM30 33.304c-1.817 0-3.297-1.484-3.297-3.305 0-1.823 1.48-3.304 3.297-3.304 1.823 0 3.297 1.48 3.297 3.303 0 1.82-1.474 3.304-3.297 3.304zm0-11.056c-4.28 0-7.753 3.47-7.753 7.75 0 4.285 3.472 7.756 7.753 7.756 4.282 0 7.753-3.47 7.753-7.755 0-4.283-3.47-7.752-7.753-7.752zM58.23 31.29c.325-.332.526-.79.526-1.29s-.2-.955-.525-1.295l-2.84-2.837-5.342-5.342c-.53-.533-1.26-.856-2.066-.856-1.613 0-2.92 1.306-2.92 2.926 0 .803.323 1.535.853 2.064L51.258 30l-5.343 5.345c-.53.525-.853 1.262-.853 2.062 0 1.617 1.307 2.928 2.92 2.928.81 0 1.538-.335 2.07-.86l8.18-8.185zM1.776 31.29c-.328-.332-.532-.79-.532-1.29s.203-.955.532-1.295l2.836-2.837 5.342-5.342c.532-.533 1.26-.856 2.066-.856 1.613 0 2.925 1.306 2.925 2.926 0 .803-.332 1.535-.86 2.064L8.742 30l5.343 5.345c.528.525.86 1.262.86 2.062 0 1.617-1.312 2.928-2.925 2.928-.808 0-1.536-.335-2.066-.86L1.776 31.29zM28.713 58.23c.328.324.79.526 1.287.526.504 0 .955-.202 1.293-.526l2.843-2.84 5.344-5.352c.523-.522.85-1.253.85-2.055 0-1.613-1.302-2.922-2.92-2.922-.808 0-1.537.327-2.067.857L30 51.257l-5.338-5.34c-.53-.53-1.265-.857-2.068-.857-1.617 0-2.92 1.31-2.92 2.922 0 .802.325 1.535.853 2.065l8.186 8.183zM28.713 1.768c.328-.323.79-.523 1.287-.523.504 0 .955.2 1.293.523l2.843 2.84L39.48 9.95c.523.53.85 1.263.85 2.07 0 1.612-1.302 2.918-2.92 2.918-.808 0-1.537-.323-2.067-.855L30 8.745l-5.338 5.34c-.53.53-1.265.854-2.068.854-1.617 0-2.92-1.307-2.92-2.918 0-.812.325-1.542.853-2.07l8.186-8.184z"/></g><g fill="#333"><path d="M86.158 17.548c0-.155.056-.293.17-.413s.246-.18.402-.18h1.186c.14 0 .272.06.392.18s.18.258.18.413v8.555c0 .155-.057.29-.17.402-.113.114-.247.17-.403.17H86.73c-.157 0-.29-.056-.404-.17-.113-.112-.17-.247-.17-.402v-.72h-4.912v6.48c0 .155-.057.292-.17.413-.113.12-.247.18-.403.18h-1.248c-.14 0-.272-.057-.392-.17-.12-.113-.18-.254-.18-.423v-6.48h-4.913v.87c0 .154-.057.292-.17.412-.113.12-.247.18-.402.18H72.18c-.142 0-.273-.06-.393-.18s-.18-.258-.18-.413v-8.64c0-.155.057-.293.17-.413.112-.12.247-.18.402-.18h1.185c.155 0 .29.06.402.18.113.12.17.257.17.412v.17h4.913v-3.516c0-.155.057-.293.17-.413.113-.12.247-.18.403-.18h1.25c.14 0 .27.06.39.18s.182.258.182.413v3.516h4.913v-.234zm-12.22 6.82h4.913v-5.57H73.94v5.57zm7.307 0h4.913v-5.57h-4.913v5.57zM93.718 14.858c0-.155.06-.292.18-.413.12-.12.25-.18.392-.18h1.102c.14 0 .265.05.37.148.106.1.173.226.2.38h12.643c0-.154.056-.288.17-.4.112-.114.247-.17.402-.17h1.08c.155 0 .29.06.403.18.112.12.17.257.17.412V31.84c0 .156-.058.294-.17.414-.114.12-.247.18-.403.18h-1.08c-.155 0-.29-.06-.402-.18-.114-.12-.17-.258-.17-.413v-.592H95.962v.57c0 .156-.057.29-.17.404-.113.112-.247.17-.402.17h-1.102c-.14 0-.272-.057-.392-.17-.12-.113-.18-.247-.18-.403V14.857zm2.244 15.48h12.642V15.726H95.962v14.612zm1.46-7.9c0-.07.033-.14.096-.21.063-.07.138-.107.222-.107h3.283v-3.28h-3.79c-.227 0-.34-.113-.34-.34v-.232c0-.07.033-.14.096-.212.062-.07.144-.106.242-.106h10.102c.084 0 .162.036.233.106.07.07.105.14.105.212v.232c0 .1-.035.18-.105.243-.07.064-.15.096-.233.096h-4.15v3.28h3.578c.085 0 .162.037.233.107.07.07.106.14.106.212v.253c0 .085-.035.16-.105.222-.07.063-.148.096-.233.096h-3.58v4.152h4.45c.084 0 .16.035.232.105.07.07.105.148.105.233v.233c0 .085-.036.16-.106.223s-.148.095-.233.095H96.916c-.1 0-.18-.03-.243-.094-.063-.063-.095-.138-.095-.223V27.5c0-.085.032-.162.095-.233.063-.07.145-.105.243-.105h4.108v-4.15H97.74c-.084 0-.16-.033-.222-.097-.063-.063-.095-.137-.095-.222v-.254zm6.608 1.653c-.042-.07-.01-.164.096-.284.105-.12.215-.16.328-.116.494.198.913.41 1.26.635.345.226.617.43.815.614.154.155.246.317.275.486.028.17-.014.388-.128.656-.042.113-.105.226-.19.338-.085.114-.19.22-.318.318-.157.128-.33.166-.52.116s-.342-.222-.455-.518c-.296-.776-.685-1.525-1.165-2.245zM114.724 23.583c.522-.974.98-1.88 1.377-2.722.396-.84.742-1.64 1.038-2.402.296-.762.558-1.503.784-2.224.225-.72.43-1.447.614-2.18.028-.17.113-.29.254-.36.14-.07.303-.086.487-.044l1.292.424c.337.155.45.402.337.74-.296.805-.6 1.56-.91 2.267-.312.707-.636 1.378-.975 2.012.225.1.34.283.34.55v12.24c0 .156-.058.294-.17.414-.114.12-.248.18-.404.18h-1.1c-.157 0-.29-.06-.404-.18-.113-.12-.17-.258-.17-.413v-9.89c-.607.778-1.25 1.483-1.927 2.12-.043.04-.103.056-.18.04-.078-.013-.145-.048-.2-.104-.058-.058-.1-.128-.13-.213-.024-.085-.01-.17.047-.254zm4.955 8.386c.493-.48.94-.936 1.344-1.367.403-.43.77-.854 1.102-1.27.33-.417.628-.83.89-1.24.26-.41.504-.826.73-1.25.112-.224.247-.348.402-.37.155-.02.346.025.572.138.1.058.25.14.455.244.205.106.363.21.476.307.227.156.354.31.382.467.028.155-.057.36-.254.614-.226.297-.537.647-.932 1.05-.396.402-.844.808-1.345 1.216-.5.41-1.044.802-1.63 1.175-.585.375-1.19.69-1.81.943-.057.028-.117.018-.18-.032-.063-.05-.12-.11-.17-.18-.05-.07-.08-.147-.095-.232s.008-.153.064-.21zm.402-7.117c0-.1.035-.183.106-.254.07-.072.155-.107.254-.107h2.943V18.88h-2.138c-.1 0-.184-.034-.254-.104-.07-.07-.106-.163-.106-.276v-.318c0-.1.035-.183.106-.254.07-.07.155-.106.254-.106h2.138v-3.58c0-.154.057-.288.17-.4s.24-.17.38-.17h1.103c.14 0 .267.056.38.17s.17.246.17.4v3.58h3.114v-3.558c0-.155.057-.293.17-.413.113-.12.24-.18.38-.18h1.102c.14 0 .268.06.38.18.114.12.17.26.17.414v3.558h2.288c.1 0 .183.036.254.106.07.07.106.155.106.254v.318c0 .113-.035.205-.106.276-.07.07-.155.105-.254.105h-2.287v5.613h2.795c.113 0 .2.035.265.106.063.07.095.154.095.253v.38c0 .114-.032.206-.095.277-.063.07-.152.105-.265.105h-13.257c-.1 0-.183-.035-.254-.105-.072-.07-.107-.163-.107-.276v-.38zm5.506-.36h3.113V18.88h-3.112v5.613zm2.732 2.838c-.042-.04-.057-.1-.042-.18.014-.076.045-.154.095-.232.05-.077.113-.137.19-.18.078-.042.16-.042.244 0 .494.226.97.47 1.43.73.458.262.88.524 1.27.785.388.26.733.51 1.037.75.303.242.554.46.75.658.354.34.474.8.362 1.377-.043.198-.11.396-.2.594-.093.198-.195.36-.308.488-.24.283-.483.427-.73.434-.248.007-.47-.166-.668-.52-.452-.775-.957-1.552-1.514-2.328-.558-.777-1.196-1.568-1.916-2.373zM136.896 21.888c.352-.776.66-1.5.92-2.17.262-.67.49-1.313.69-1.927s.366-1.216.508-1.81c.14-.593.268-1.207.38-1.842.043-.212.124-.353.244-.424.12-.07.314-.084.582-.042.225.042.42.088.582.138.162.05.307.088.434.116.226.07.36.17.403.296.04.127.027.303-.043.53-.085.282-.177.56-.276.835-.098.276-.204.554-.317.837h3.22c.112 0 .207.035.284.105.08.07.117.155.117.253v.212c0 .1-.04.18-.117.243-.077.064-.172.096-.285.096h-3.58c-.21.48-.433.95-.666 1.408-.232.46-.483.893-.75 1.303h4.637c.113 0 .204.035.276.105.07.07.104.148.104.233v.233c0 .1-.04.18-.116.243-.077.063-.167.095-.265.095h-2.097v3.176h2.54c.114 0 .21.036.288.106.077.07.116.148.116.233v.275c0 .1-.04.18-.116.243-.08.063-.167.095-.265.095h-2.564v3.833l2.373-1.1c.054-.03.118-.022.19.02.07.042.133.095.19.16.056.062.09.133.105.21.014.08 0 .146-.043.202-.226.254-.487.533-.783.837-.297.303-.612.607-.944.91-.332.304-.674.61-1.027.922-.354.31-.7.607-1.038.89-.41.324-.74.302-.995-.064-.113-.17-.236-.367-.37-.593-.134-.226-.223-.403-.265-.53-.156-.394-.043-.67.338-.825l.233-.106v-4.766H137.7c-.1 0-.188-.032-.265-.095-.078-.064-.116-.146-.116-.244v-.276c0-.085.038-.162.115-.233.077-.07.166-.105.265-.105h2.033v-3.176h-1.122c-.395.536-.79.988-1.185 1.355-.043.043-.1.054-.17.033-.07-.02-.138-.057-.2-.106-.064-.05-.114-.11-.15-.18-.034-.07-.038-.126-.01-.17zm7.92-6.84c-.03-.042-.032-.094-.01-.158.02-.063.06-.123.116-.18.057-.056.12-.1.19-.127s.15-.02.233.02c.523.27.998.55 1.43.848.43.297.773.6 1.027.91.154.17.244.34.265.51s-.004.353-.074.55c-.057.2-.13.367-.222.51-.09.14-.193.274-.306.4-.197.2-.41.277-.636.234-.226-.042-.387-.197-.487-.465-.155-.44-.356-.908-.603-1.41-.247-.5-.554-1.048-.92-1.64zm6.502 15.925c-.1-.268-.008-.423.274-.466l.826-.105c.296-.057.51-.166.636-.328.127-.163.19-.427.19-.794v-1.694h-5.97v4.32c0 .17-.058.31-.17.423s-.248.17-.404.17h-.973c-.142 0-.273-.058-.393-.17-.12-.114-.18-.255-.18-.424v-12.58c0-.155.058-.29.17-.402.114-.113.248-.17.404-.17h.973c.128 0 .245.042.35.127.106.086.173.192.202.32h1.885v-4.957c0-.155.06-.29.18-.402.12-.112.25-.17.39-.17h.954c.143 0 .274.058.394.17.12.114.18.248.18.403V19.2h2.01c.03-.128.1-.237.212-.33s.233-.137.36-.137h.975c.155 0 .29.06.404.18.112.12.168.258.168.413V30.02c0 .578-.098 1.06-.296 1.44-.197.38-.543.65-1.037.804-.2.057-.424.106-.68.148-.253.043-.515.07-.782.085-.17.028-.3.01-.392-.053-.092-.063-.188-.18-.287-.35-.03-.04-.07-.112-.128-.21-.057-.1-.113-.206-.17-.32-.057-.112-.113-.22-.17-.327-.056-.105-.09-.193-.104-.264zm-4.045-8.046h5.97v-2.795h-5.97v2.795zm0 3.748h5.97v-2.817h-5.97v2.817zm4.85-8.217c.24-.523.47-1.066.688-1.63.22-.566.427-1.165.626-1.8.055-.198.154-.333.296-.404.14-.07.296-.07.466 0 .168.07.345.152.53.244.182.092.38.194.592.307.197.113.3.243.306.392.007.15-.04.3-.136.456-.156.226-.34.463-.55.71-.212.246-.438.493-.678.74-.24.247-.49.487-.753.72-.262.233-.526.44-.795.625-.07.057-.145.078-.222.063-.077-.013-.148-.044-.21-.094-.066-.05-.11-.106-.14-.17-.028-.063-.035-.116-.02-.158zM159.258 19.454c-.057-.1-.08-.18-.074-.244s.046-.137.117-.222c.07-.113.135-.173.192-.18.056-.007.134.003.233.032.607.17 1.154.378 1.64.625.488.247.86.484 1.113.71.17.155.272.327.307.518.035.19-.01.434-.138.73-.057.128-.127.27-.212.424-.085.156-.198.31-.34.466-.182.198-.38.293-.592.286-.212-.01-.403-.182-.57-.52-.242-.466-.495-.907-.763-1.324-.27-.416-.573-.85-.912-1.302zm.382 7.39c-.057-.17-.014-.318.127-.445.155-.156.318-.17.487-.044.127.113.257.233.392.36.134.128.278.27.434.424l2.37-5.824c.03-.057.086-.088.17-.095.086-.006.17 0 .255.022.085.02.16.057.222.106.063.05.088.11.074.18l-1.61 7.18c.142.17.266.327.372.475.105.148.194.28.265.392.155.254.25.487.285.7.035.21-.003.444-.116.697-.07.155-.17.325-.296.51-.127.182-.29.344-.487.486-.283.198-.526.275-.73.233s-.365-.26-.477-.655c-.184-.65-.43-1.384-.74-2.202-.312-.82-.644-1.652-.996-2.5zm1.228-12.367c-.114-.14-.106-.296.02-.465.086-.085.16-.134.224-.148.063-.014.152-.008.265.02.62.2 1.157.418 1.61.658.452.24.797.473 1.037.698.183.156.296.32.338.498.043.177 0 .427-.127.752-.042.14-.103.29-.18.445-.078.156-.188.31-.328.466-.198.2-.41.286-.636.266-.225-.02-.415-.208-.57-.56-.24-.453-.498-.9-.773-1.346-.276-.446-.57-.873-.88-1.283zm3.028 5.527c.847-1.016 1.557-2.025 2.13-3.028.57-1.002 1.04-1.99 1.407-2.964.14-.34.367-.466.678-.38l1.187.316c.155.057.26.152.318.286.056.134.056.265 0 .392l-.445.847h8.746c.085 0 .162.036.233.106.07.07.105.147.105.232v.296c0 .085-.036.16-.106.222-.072.064-.15.096-.234.096h-9.338c-.226.325-.46.628-.7.91l-.72.848h.213l.72.043c.156.028.29.08.404.16.112.077.183.193.212.348h5.866v-.02c0-.156.057-.29.17-.403s.247-.17.403-.17l.974.042c.154 0 .288.057.402.17.112.113.17.247.17.403l-.086 2.404-.084 2.235h1.61c.098 0 .18.035.243.105.063.07.095.14.095.212v.318c0 .085-.036.16-.106.223s-.14.095-.212.095h-1.673c-.03.692-.06 1.348-.096 1.97s-.074 1.206-.117 1.757h1.673c.1 0 .18.035.243.105.063.07.095.14.095.212v.297c0 .083-.035.16-.105.23-.07.072-.14.107-.212.107h-1.76c-.014.085-.025.166-.032.243-.008.078-.01.152-.01.223-.07.833-.226 1.468-.466 1.906-.24.436-.692.74-1.356.91-.41.1-.924.17-1.546.212-.198 0-.34-.025-.424-.074-.084-.05-.17-.145-.254-.285-.07-.128-.163-.304-.276-.53-.113-.225-.198-.416-.254-.57-.07-.17-.074-.287-.01-.35.063-.063.158-.103.285-.116l1.037-.127c.367-.07.64-.173.815-.307.175-.134.277-.406.306-.815 0-.057.003-.11.01-.16.007-.048.01-.1.01-.158h-6.607l-.022.275c-.014.212-.088.36-.223.445-.134.084-.3.113-.497.084l-.72-.063c-.183-.027-.338-.098-.466-.21-.127-.114-.176-.276-.148-.488l.572-4.722h-1.27c-.085 0-.16-.032-.223-.095s-.095-.138-.095-.223v-.322c0-.07.032-.14.095-.212.063-.07.138-.105.222-.105h1.398l.57-4.68c-.38.366-.76.7-1.143 1.005-.38.303-.748.568-1.1.794-.072.057-.142.07-.213.042-.07-.028-.13-.074-.18-.138-.05-.063-.088-.137-.117-.222-.024-.084-.016-.147.026-.19zm10.228 8.07l.128-1.802c.042-.607.077-1.25.105-1.927h-6.332l-.466 3.727h6.564zm.403-8.387h-5.908l-.467 3.706h6.247l.127-3.706zm-4.765 5.378c-.057-.1-.032-.208.074-.328.106-.12.223-.152.35-.095.522.226.945.445 1.27.656.324.212.593.417.804.614.17.17.268.336.296.498.028.163.007.328-.063.498-.07.17-.152.31-.243.423-.092.115-.18.213-.265.298-.17.155-.367.24-.594.254-.224.014-.387-.12-.486-.403-.085-.24-.166-.456-.243-.646-.077-.19-.158-.378-.243-.562-.085-.183-.18-.37-.285-.56-.105-.19-.23-.406-.37-.647zm.233-4.595c-.057-.085-.032-.18.074-.286.105-.105.23-.137.37-.095.494.197.903.39 1.228.58.325.19.6.386.826.583.17.155.268.318.296.487.028.17.007.332-.063.487-.07.17-.148.31-.233.423-.085.113-.17.205-.254.276-.17.155-.367.24-.593.254-.226.014-.39-.12-.487-.402-.17-.452-.335-.837-.497-1.155-.164-.316-.386-.7-.668-1.153zM181.366 31.842c1.13-.918 2.14-1.853 3.028-2.806.89-.953 1.676-1.972 2.362-3.06.685-1.086 1.267-2.273 1.747-3.558.48-1.284.875-2.717 1.186-4.3h-3.283c-.48 1.103-1.03 2.126-1.652 3.072.536.283.977.55 1.324.804.344.254.624.5.835.74.155.157.247.32.275.488.028.17.008.38-.063.635-.07.198-.145.37-.222.52-.078.147-.18.292-.307.433-.155.155-.335.24-.54.254-.205.014-.364-.12-.476-.402-.128-.296-.24-.565-.34-.805-.098-.24-.2-.462-.306-.667-.106-.205-.216-.406-.328-.604-.114-.197-.24-.41-.38-.635-.34.48-.7.932-1.08 1.356-.382.423-.792.84-1.23 1.25-.04.042-.102.052-.18.03-.077-.02-.147-.062-.21-.126-.064-.063-.114-.138-.15-.223-.035-.085-.03-.162.01-.233.396-.593.785-1.267 1.166-2.022.38-.756.738-1.557 1.07-2.404s.627-1.733.888-2.657c.26-.924.477-1.86.646-2.805.028-.155.103-.282.223-.38.12-.1.258-.135.414-.106l1.503.295c.14.028.25.102.328.222.078.12.095.258.053.413-.14.452-.283.89-.423 1.313-.14.423-.29.833-.445 1.228h3.07l.042-.21c.028-.142.106-.262.233-.36.128-.1.268-.135.424-.106l1.29.233c.156.028.273.105.35.232.078.127.103.268.074.423-.38 1.948-.84 3.67-1.377 5.167-.536 1.497-1.21 2.837-2.023 4.023-.81 1.186-1.796 2.266-2.954 3.24-1.158.975-2.54 1.92-4.15 2.838-.072.03-.146.018-.224-.03-.077-.05-.145-.117-.2-.202-.058-.085-.09-.176-.096-.275-.006-.097.026-.175.096-.23zm12.494-17.556c0-.155.057-.29.17-.403.113-.112.247-.17.403-.17h1.186c.154 0 .29.057.402.17.112.113.17.247.17.403v5.654c1.143.593 2.06 1.137 2.752 1.63.69.495 1.2.925 1.525 1.293.14.155.224.353.253.593.028.24.007.494-.064.762-.07.212-.146.395-.223.55-.078.156-.18.31-.307.466-.155.184-.353.283-.593.296-.24.014-.438-.127-.593-.423-.367-.664-.784-1.33-1.25-2-.465-.672-.966-1.346-1.503-2.024v10.82c0 .156-.056.29-.168.404-.113.112-.247.17-.403.17h-1.187c-.156 0-.29-.058-.403-.17-.113-.114-.17-.247-.17-.403V14.286zM203.686 31.884c.594-.593 1.102-1.147 1.525-1.662.425-.516.774-1.017 1.05-1.503.274-.488.49-.978.645-1.473.155-.494.272-1.024.35-1.588.076-.566.126-1.183.147-1.854.02-.67.032-1.422.032-2.256l-.02-3.558c0-.155.05-.293.147-.413.1-.12.255-.18.467-.18h.614c.213 0 .368.062.467.19.1.127.148.268.148.423v3.536c0 1.1-.032 2.088-.096 2.964-.064.875-.195 1.673-.393 2.393.776.423 1.486.847 2.13 1.27.64.424 1.124.798 1.45 1.122.224.225.337.448.337.666 0 .22-.042.448-.127.688-.07.17-.156.34-.254.51s-.205.31-.317.422c-.17.155-.35.223-.54.2-.19-.02-.363-.187-.518-.497-.325-.58-.678-1.155-1.06-1.727-.38-.57-.832-1.196-1.354-1.874-.34.917-.85 1.75-1.536 2.498-.685.748-1.634 1.51-2.848 2.287-.07.043-.14.046-.212.01-.07-.035-.134-.087-.19-.158-.057-.07-.092-.148-.106-.233-.013-.083.008-.154.064-.21zm13.47-1.016c-.114-.27-.043-.416.21-.445.284-.043.58-.085.89-.128.31-.042.56-.085.742-.127.353-.07.586-.2.7-.392.11-.19.182-.49.21-.9.015-.367.03-.844.043-1.43.015-.585.03-1.23.044-1.937.014-.707.024-1.45.032-2.225.007-.776.017-1.532.032-2.266.014-.735.024-1.43.032-2.087.007-.656.01-1.217.01-1.683h-4.574c-.41.748-.875 1.46-1.398 2.138s-1.087 1.264-1.694 1.758c-.057.043-.12.046-.19.01s-.135-.087-.19-.158v4.913c0 .17-.058.312-.17.425-.114.113-.24.17-.382.17h-.784c-.14 0-.268-.057-.38-.17-.114-.113-.17-.254-.17-.424V15.876h-3.664v10.61c0 .17-.053.31-.16.423-.105.113-.235.17-.39.17h-.742c-.14 0-.268-.057-.38-.17-.114-.113-.17-.254-.17-.423V14.9c0-.154.056-.29.17-.402s.24-.17.38-.17h.74c.142 0 .266.05.372.148.106.1.165.226.18.38h3.664c0-.154.056-.284.17-.39s.24-.16.38-.16h.784c.14 0 .268.057.38.17.114.113.17.246.17.402v5.633c.58-1.1 1.077-2.166 1.494-3.197.416-1.03.765-2.096 1.048-3.198.043-.17.123-.3.243-.392.12-.092.293-.11.52-.053l1.016.318c.197.07.31.176.338.318.03.14.008.303-.062.487-.1.24-.2.49-.307.752-.105.26-.222.518-.35.773h4.11v-.254c-.03-.395.175-.585.613-.57l.932.04c.24.015.403.075.487.182.085.105.128.25.128.434 0 .1-.003.445-.01 1.038-.008.593-.018 1.324-.033 2.19-.014.87-.028 1.815-.042 2.84-.014 1.023-.032 2.018-.053 2.985-.02.967-.042 1.846-.063 2.637-.022.79-.047 1.384-.075 1.778-.028.622-.145 1.144-.35 1.567-.204.424-.553.734-1.047.932-.254.1-.512.176-.773.233-.262.057-.632.106-1.112.148-.24.028-.413.02-.52-.02-.104-.043-.214-.15-.327-.318-.085-.128-.198-.325-.338-.594-.144-.268-.265-.5-.363-.698zm-4.745-4.236c-.056-.41.1-.628.467-.657h.042c.48-1.03.91-2.078 1.29-3.145.382-1.066.7-2.07.954-3.017.056-.198.15-.318.285-.36.133-.043.306-.028.518.042l.868.34c.325.154.41.4.254.74-.155.395-.35.83-.582 1.302-.233.473-.48.95-.74 1.43-.262.48-.54.946-.837 1.397-.295.452-.585.855-.868 1.207l3.283-.232c-.113-.325-.247-.678-.403-1.06-.156-.38-.332-.797-.53-1.248-.027-.057-.027-.116 0-.18.03-.063.068-.116.117-.16.05-.04.108-.07.18-.084.07-.014.126 0 .17.043.677.592 1.234 1.156 1.672 1.693.437.537.733.982.89 1.335.154.338.14.713-.043 1.122-.072.127-.164.272-.277.434-.113.162-.24.3-.38.413-.156.113-.326.14-.51.085-.182-.057-.31-.226-.38-.51l-.233-.994c-.268.113-.57.232-.91.36-.34.127-.7.254-1.08.38-.382.128-.77.255-1.165.382-.396.127-.784.24-1.165.338-.198.057-.346.06-.445.01-.1-.05-.183-.187-.254-.412l-.19-.994z"/></g><g fill="#333"><path d="M76.874 50.6c-.594.27-1.246.404-1.958.404-1.074 0-1.93-.326-2.57-.98-.64-.65-.96-1.52-.96-2.602 0-1.083.32-1.95.965-2.603.646-.654 1.49-.98 2.54-.98.684 0 1.337.12 1.957.36l-.268.845c-.62-.214-1.18-.32-1.677-.32-.75 0-1.346.242-1.785.726-.44.486-.658 1.143-.658 1.973 0 .76.227 1.398.68 1.916.455.516 1.047.775 1.776.775.576 0 1.17-.11 1.78-.334l.178.82zM82.303 43.84c.938 0 1.685.328 2.24.983.554.655.83 1.517.83 2.587 0 1.078-.276 1.947-.83 2.606-.555.66-1.3.99-2.24.99-.943 0-1.69-.33-2.243-.986-.552-.657-.83-1.527-.83-2.61 0-1.074.278-1.937.833-2.59.554-.653 1.3-.98 2.24-.98zm0 6.274c.62 0 1.108-.262 1.467-.786.358-.524.537-1.16.537-1.905 0-.786-.177-1.432-.53-1.938-.355-.507-.845-.76-1.474-.76-.634 0-1.124.25-1.474.75-.35.5-.525 1.15-.525 1.948 0 .76.177 1.398.53 1.916.354.516.843.774 1.468.774zM90.35 43.84c.94 0 1.686.328 2.24.983s.833 1.517.833 2.587c0 1.078-.278 1.947-.832 2.606s-1.3.99-2.24.99c-.942 0-1.69-.33-2.242-.986-.552-.657-.828-1.527-.828-2.61 0-1.074.277-1.937.83-2.59.555-.653 1.302-.98 2.24-.98zm0 6.274c.62 0 1.11-.262 1.468-.786.358-.524.537-1.16.537-1.905 0-.786-.176-1.432-.53-1.938-.354-.507-.845-.76-1.474-.76-.632 0-1.123.25-1.472.75-.35.5-.524 1.15-.524 1.948 0 .76.176 1.398.53 1.916.353.516.842.774 1.467.774zM96.808 44.89c.227-.315.534-.57.92-.76.387-.193.793-.29 1.222-.29.786 0 1.402.325 1.85.973.447.65.67 1.492.67 2.53 0 1.05-.233 1.92-.703 2.617-.47.697-1.102 1.044-1.896 1.044-.423 0-.82-.105-1.187-.317-.37-.212-.66-.492-.875-.842v3.68h-1.022v-9.522h1.022v.886zm0 1.014v2.836c.192.384.452.705.78.962.327.258.665.386 1.015.386.55 0 .988-.257 1.313-.772.325-.516.488-1.155.488-1.92 0-.785-.155-1.427-.465-1.924-.31-.498-.743-.747-1.298-.747-.72 0-1.332.393-1.834 1.18zM106.448 43.84c.94 0 1.685.328 2.24.983.554.655.832 1.517.832 2.587 0 1.078-.278 1.947-.832 2.606-.554.66-1.3.99-2.24.99-.943 0-1.69-.33-2.243-.986-.552-.657-.828-1.527-.828-2.61 0-1.074.277-1.937.83-2.59.555-.653 1.302-.98 2.24-.98zm0 6.274c.62 0 1.11-.262 1.467-.786.358-.524.537-1.16.537-1.905 0-.786-.176-1.432-.53-1.938-.354-.507-.845-.76-1.474-.76-.633 0-1.124.25-1.473.75-.35.5-.524 1.15-.524 1.948 0 .76.177 1.398.53 1.916.354.516.843.774 1.468.774zM117.45 44.005l-2.587 6.824h-.93l-2.574-6.825h1.112l1.932 5.43 1.932-5.43h1.113zM125.393 47.45h-4.683c0 .772.224 1.41.67 1.91.448.503.997.754 1.648.754.62 0 1.26-.11 1.92-.334l.175.82c-.602.27-1.306.404-2.11.404-1.012 0-1.83-.325-2.448-.975-.62-.652-.93-1.53-.93-2.634 0-1.083.278-1.946.835-2.59.557-.644 1.276-.966 2.158-.966.786 0 1.443.298 1.97.897s.794 1.395.794 2.39v.322zm-1.113-.832c0-.533-.166-.982-.498-1.346-.332-.364-.703-.547-1.113-.547-.53 0-.967.174-1.314.524-.347.348-.54.804-.58 1.368h3.504zM133.343 44.188l-.413.982c-.45-.196-.838-.295-1.166-.295-.3 0-.596.087-.884.26-.288.17-.554.418-.795.74-.243.32-.364.5-.364.54v4.413h-1.014v-6.824h1.015v1.382c.547-1.03 1.254-1.545 2.123-1.545.515 0 1.016.116 1.5.348zM140.573 44.98c-.572-.188-1.11-.28-1.618-.28-.554 0-.993.092-1.316.277-.324.185-.486.433-.486.743 0 .196.074.368.223.514.148.146.445.283.89.41l.976.28c.45.127.816.278 1.1.455.284.176.497.39.638.64.143.253.214.544.214.876 0 .65-.273 1.164-.818 1.542-.546.378-1.24.566-2.082.566-.838 0-1.53-.126-2.076-.38l.196-.883c.572.272 1.186.407 1.84.407.568 0 1.03-.105 1.386-.318.356-.213.534-.493.534-.843 0-.236-.088-.446-.265-.63-.177-.186-.593-.38-1.248-.58-.53-.162-.917-.284-1.166-.364-.25-.08-.48-.2-.694-.357-.214-.157-.377-.345-.488-.563-.112-.22-.167-.463-.167-.733 0-.59.257-1.057.773-1.4.515-.346 1.198-.518 2.05-.518.55 0 1.16.094 1.833.28l-.23.858zM149.54 47.45h-4.684c0 .772.223 1.41.67 1.91.448.503.997.754 1.648.754.62 0 1.26-.11 1.92-.334l.175.82c-.603.27-1.307.404-2.11.404-1.013 0-1.83-.325-2.45-.975-.62-.652-.93-1.53-.93-2.634 0-1.083.28-1.946.836-2.59.557-.644 1.276-.966 2.158-.966.786 0 1.443.298 1.972.897s.793 1.395.793 2.39v.322zm-1.115-.832c0-.533-.165-.982-.498-1.346-.332-.364-.702-.547-1.113-.547-.53 0-.966.174-1.313.524-.346.348-.54.804-.58 1.368h3.505zM157.554 50.828h-1.015c-.084-.275-.126-.642-.126-1.1-.58.85-1.37 1.277-2.37 1.277-.508 0-.954-.18-1.34-.54-.386-.36-.58-.824-.58-1.392 0-.336.068-.633.203-.89.135-.26.334-.476.596-.652.262-.176.58-.315.955-.418.376-.103.82-.174 1.336-.213l1.146-.093v-.327c0-1.17-.546-1.755-1.637-1.755-.258 0-.584.056-.98.167-.395.112-.734.243-1.018.396l-.268-.733c.93-.476 1.794-.713 2.593-.713 1.554 0 2.33.822 2.33 2.47v2.933c.004.592.06 1.12.174 1.583zm-1.19-2.024v-1.237c-.922.083-1.554.16-1.897.232-.343.07-.64.206-.89.402-.253.197-.378.463-.378.8 0 .305.107.552.32.74s.487.282.82.282c.36 0 .72-.108 1.08-.325.357-.217.672-.515.943-.896zM164.72 44.98c-.573-.188-1.112-.28-1.62-.28-.553 0-.992.092-1.315.277-.323.185-.485.433-.485.743 0 .196.074.368.223.514.148.146.445.283.89.41l.976.28c.448.127.815.278 1.1.455.283.176.495.39.637.64.142.253.213.544.213.876 0 .65-.273 1.164-.82 1.542-.544.378-1.238.566-2.08.566-.84 0-1.53-.126-2.077-.38l.196-.883c.57.272 1.184.407 1.84.407.567 0 1.028-.105 1.385-.318.356-.213.534-.493.534-.843 0-.236-.09-.446-.266-.63-.176-.186-.592-.38-1.247-.58-.53-.162-.917-.284-1.166-.364-.247-.08-.48-.2-.692-.357-.214-.157-.377-.345-.488-.563-.112-.22-.167-.463-.167-.733 0-.59.257-1.057.772-1.4.516-.346 1.2-.518 2.05-.518.55 0 1.162.094 1.834.28l-.23.858zM169.243 44.89c.227-.315.534-.57.92-.76.387-.193.793-.29 1.22-.29.796 0 1.414.32 1.857.956.443.638.665 1.476.665 2.515 0 1.054-.236 1.933-.707 2.637-.472.705-1.102 1.057-1.892 1.057-.423 0-.82-.105-1.188-.317-.37-.212-.66-.492-.875-.842v.982h-1.022v-9.24h1.023v3.302zm0 1.014v2.836c.192.384.452.705.78.962.327.258.666.386 1.015.386.55 0 .987-.262 1.312-.786.325-.524.488-1.168.488-1.932 0-.786-.155-1.423-.465-1.912-.31-.49-.742-.733-1.297-.733-.72 0-1.33.393-1.833 1.18zM181.516 50.828h-1.022V49.82c-.733.782-1.506 1.173-2.318 1.173-1.28 0-1.918-.776-1.918-2.325v-4.663h1.022v4.368c0 .58.09 1.014.274 1.3.183.285.494.428.93.428.625 0 1.295-.388 2.01-1.165v-4.93h1.023v6.823zM189.886 44.005L187.3 50.83c-.377 1.003-.75 1.704-1.118 2.1-.37.398-.79.597-1.26.597-.42 0-.834-.077-1.245-.23l.17-.818c.332.104.63.156.89.156.368 0 .67-.142.905-.426.236-.283.474-.75.713-1.395l-2.56-6.81h1.113l1.932 5.44 1.932-5.44h1.114zM194.94 49.328c.233 0 .427.08.584.236s.236.352.236.583c0 .236-.08.438-.24.606-.16.168-.352.252-.58.252-.222 0-.41-.084-.568-.252-.157-.168-.236-.37-.236-.606s.077-.43.232-.586c.154-.154.346-.232.573-.232zM205.647 50.6c-.594.27-1.246.404-1.958.404-1.075 0-1.932-.326-2.57-.98-.64-.65-.96-1.52-.96-2.602 0-1.083.32-1.95.965-2.603.644-.654 1.49-.98 2.537-.98.686 0 1.34.12 1.958.36l-.268.845c-.62-.214-1.18-.32-1.676-.32-.75 0-1.346.242-1.785.726-.438.486-.657 1.143-.657 1.973 0 .76.227 1.398.68 1.916.455.516 1.047.775 1.775.775.576 0 1.17-.11 1.78-.334l.18.82zM211.077 43.84c.94 0 1.685.328 2.24.983s.83 1.517.83 2.587c0 1.078-.276 1.947-.83 2.606s-1.3.99-2.24.99c-.943 0-1.69-.33-2.243-.986-.552-.657-.828-1.527-.828-2.61 0-1.074.277-1.937.83-2.59.555-.653 1.302-.98 2.24-.98zm0 6.274c.62 0 1.11-.262 1.467-.786.358-.524.537-1.16.537-1.905 0-.786-.175-1.432-.53-1.938-.353-.507-.844-.76-1.473-.76-.633 0-1.124.25-1.473.75-.35.5-.524 1.15-.524 1.948 0 .76.176 1.398.53 1.916.353.516.842.774 1.467.774zM222.308 50.828h-1.022v-4.48c0-1.082-.2-1.623-.602-1.623-.205 0-.432.187-.678.56-.247.374-.37.58-.37.62v4.924h-1.015v-4.48c0-1.083-.202-1.624-.608-1.624-.2 0-.425.187-.67.56-.248.374-.37.58-.37.62v4.924h-1.022v-6.824h.982v1.028c.192-.362.42-.65.685-.867.264-.216.527-.324.79-.324.274 0 .52.108.74.324.217.216.368.505.45.867.193-.362.422-.65.688-.867.267-.216.53-.324.786-.324.827 0 1.24.738 1.24 2.213v4.772z"/></g></svg>
</svg>