<svg xmlns="http://www.w3.org/2000/svg" xmlns:xlink="http://www.w3.org/1999/xlink" width="500" height="202" viewBox="0 0 500 202"><svg width="500" height="122" viewBox="-10 -10 100 37" id="logo1" y="0"><title>Page 1</title><defs><path id="aaa" d="M0 .426h79.404V17H0V.426z"/><path id="aac" d="M0 .426h79.404V17H0V.426z"/></defs><g fill="none" fill-rule="evenodd"><path d="M30.326 4.878h-2.41v1.994h2.41V4.878zm-5.464 1.995h2.38V4.88h-2.38v1.993zm-.645-2.576h3.023v-1.71h.676v1.71h3.055v3.58h-.644v-.423h-2.41v2.922h-.676V7.454h-2.378v.424h-.645v-3.58zM36.31 6.967l.44-.33c.29.3.535.58.74.84l-.465.353c-.25-.34-.49-.628-.715-.863zM33.154 8.02h2.167V6.463h-1.89V5.93h1.89V4.88h-2.04v-.534h4.68v.534H35.9V5.93h1.9v.534h-1.9V8.02h2.183v.533h-4.93V8.02zm5.3-4.453h-5.66v5.82h5.66v-5.82zM32.19 3.01h6.87v7.325h-.603v-.392h-5.663v.4h-.604V3.01zM45.13 8.326l.462-.393c.827.765 1.474 1.404 1.94 1.916l-.52.478c-.532-.633-1.16-1.3-1.883-2.002zM43.81 7.14h1.695V4.973H43.81V7.14zm1.695-4.46h.645v1.728h1.123v.565H46.15V7.14h1.397v.566h-5.71V7.14h1.328V4.973h-1.013v-.565h1.013v-1.72h.645v1.72h1.695V2.68zm-1.31 5.662c-.62.754-1.262 1.426-1.932 2.018-.142-.163-.302-.314-.48-.456.665-.502 1.288-1.148 1.87-1.94l.54.378zM39.67 6.387c.823-1.105 1.47-2.364 1.94-3.778l.63.227c-.27.7-.55 1.34-.84 1.924v5.584h-.63v-4.44c-.27.44-.546.836-.83 1.19-.076-.215-.165-.45-.27-.707zM53.742 4.212c.372-.403.733-.85 1.084-1.335l.518.393c-.32.385-.712.823-1.178 1.31l-.424-.37zm-2.316 3.73l3.133-.002v-.974h-3.135v.974zm3.133-2.506h-3.136v.966h3.135l-.002-.966zm-3.135 4.908h-.573V4.848h1.8l-.002-2.232h.605v2.232h1.877v4.554c0 .607-.285.91-.856.91-.294 0-.71-.007-1.248-.023-.032-.194-.07-.41-.11-.644.492.03.865.045 1.123.045.346.002.52-.144.52-.438l-.002-.745h-3.133v1.837zm-.83-7.16l.43-.33c.377.37.748.79 1.114 1.255l-.495.4c-.36-.508-.712-.95-1.052-1.327zm-.056 5.423c-.002.232.01.45.038.654-.336.162-.726.377-1.17.643-.096.053-.205.143-.33.268l-.417-.54c.17-.153.253-.35.253-.59V7.33l-1.052-.002v-.542h1.053V5.729h-.51v-.542h2.002v.542h-.92v1.06l1.1-.002v.543l-1.1-.002v1.87c.383-.206.734-.402 1.053-.59zm-2.75-3.57c.508-.728.913-1.538 1.218-2.429l.587.197c-.14.35-.29.688-.454 1.013h1.453v.54l-1.728.002c-.23.425-.477.827-.745 1.21-.1-.19-.21-.368-.33-.535zM59.953 5.554l.354-.354c.334.256.665.524.99.8l-.402.41c-.32-.315-.633-.6-.942-.856zm-.103 2.01l.362-.354c.35.268.678.537.98.81l-.407.408c-.31-.3-.62-.587-.935-.864zm2.435-2.458h-3.11l-.192 1.43h3.267c.013-.446.024-.922.035-1.43zm-.05 1.98h-3.322L58.72 8.53h3.46c.02-.43.04-.912.054-1.445zm-4.66-.55h.804l.277-1.963h4.233c-.016.727-.032 1.38-.047 1.962h.824v.55h-.844c-.016.565-.03 1.047-.047 1.445h.64v.534h-.676c-.044.385-.148.673-.313.863-.19.215-.524.322-1.005.322-.273 0-.623-.01-1.053-.032-.027-.178-.063-.39-.11-.636.507.047.897.07 1.17.07.394 0 .63-.196.706-.588H58.1v-.58l.2-1.4h-.726v-.55zm-.064-1.712c.65-.613 1.173-1.365 1.57-2.254h.67c-.127.272-.26.53-.398.777h4.15v.55h-4.48c-.338.526-.708.99-1.11 1.39-.12-.158-.255-.312-.4-.463zm-1.38-1.712l.4-.416c.314.24.75.604 1.31 1.09-.177.173-.33.33-.462.464-.566-.54-.982-.92-1.25-1.138zm-.064 6.996c.31-.916.575-1.918.8-3.007.232.1.443.182.637.244-.267 1.026-.516 2.018-.746 2.976l-.69-.212zM55.83 5.2l.394-.448c.48.336.928.673 1.342 1.014-.188.215-.34.382-.456.502-.466-.418-.892-.775-1.28-1.068zM68.772 2.672h.66v2.7l.314-.352c.75.58 1.416 1.112 2.002 1.593l-.448.58c-.554-.51-1.177-1.058-1.87-1.64v4.814h-.658V2.672zM63.81 6.668c.78-1.187 1.365-2.54 1.758-4.06l.644.18c-.126.425-.256.834-.392 1.227h2.182v.58c-.277 2.602-1.453 4.51-3.525 5.724-.11-.173-.246-.36-.408-.558 1.014-.602 1.794-1.356 2.34-2.26-.368-.31-.78-.624-1.235-.943l.4-.48c.446.324.826.61 1.14.856.325-.676.534-1.45.628-2.325h-1.75c-.368.928-.842 1.836-1.423 2.726-.104-.215-.224-.437-.36-.668zM77.095 6.3l.542-.157c.24.754.474 1.544.7 2.37l-.59.174c-.042-.158-.08-.317-.118-.48-.556.037-1.053.082-1.492.134-.23.027-.464.07-.7.127l-.242-.51c.182-.116.32-.273.408-.47.288-.698.56-1.536.816-2.514l.597.14c-.315.97-.626 1.862-.935 2.678.446-.025.916-.056 1.414-.093-.126-.46-.26-.926-.4-1.398zm-4.742-3.235h2.654v2.253c.524-.8.913-1.704 1.17-2.71l.62.142c-.126.377-.257.736-.392 1.076h3c-.033 2.544-.064 4.238-.095 5.08-.047.848-.482 1.273-1.304 1.273-.45 0-.93-.012-1.436-.033-.032-.21-.074-.424-.126-.644.507.058.973.09 1.397.095.55-.006.842-.278.873-.818.036-.89.063-2.35.078-4.38h-2.62c-.195.455-.396.87-.605 1.248-.153-.1-.338-.197-.558-.29v2.575h-.565V3.638h-1.524V7.98h-.565V3.065zm1.044 1.255h.565V5.9c0 1.014-.07 1.802-.212 2.363l.228-.212c.534.556 1.003 1.06 1.406 1.516l-.495.417c-.373-.477-.78-.96-1.226-1.454-.188.596-.64 1.207-1.358 1.83-.115-.164-.254-.323-.417-.48.612-.455 1.018-.942 1.217-1.46.193-.45.29-1.215.29-2.293V4.32z" fill="#444344"/><mask id="aab" fill="#fff"><use xlink:href="#aaa"/></mask><path d="M1.68 15.002c-.154.05-.438.015-.438.015V13.78h.567v1.003c0 .118.012.172-.13.22zm-.778.02H.335s.013-.885.013-1.003c0-.12.027-.143.162-.21.135-.068.392 0 .392 0v1.21zm1.25-1.473H1.27v-.19H.93v.193H.334s-.277.033-.335.26v1.502h.902v.166h.355v-.175h.577s.307-.098.317-.314c.012-.215 0-1.44 0-1.44z" fill="#444344" mask="url(#aab)"/><path d="M2.895 14.063h.447s.04 0 .04.038v.24h-.475v.252h.474v.233h-.485v.287H3.98s.155-.024.183-.073c.027-.05 0-.262 0-.262h-.32s-.015.07-.057.063c-.043-.005-.073 0-.073 0v-.254h.462v-.258h-.453v-.265h.465v-.28H2.895v.28zm-.408-.68v2.125s1.423.004 1.712 0c.288-.004.44-.33.44-.33v-1.795H2.486zm1.668 1.796l-1.29-.002v-1.446H4.29v1.312c0 .122-.135.134-.135.134zM5.51 13.384v.24c-.02.013-.06.12-.06.12v1.765h-.363v-1.396H4.96v-.295c.254-.197.254-.436.254-.436h.295z" fill="#444344"/><mask id="aad" fill="#fff"><use xlink:href="#aac"/></mask><path d="M6.5 14.446h-.452v-.53H6.5v.53zm.58-.544v-.284h-.23v-.234H6.5v.234h-.45v-.234h-.325v.224h-.172v.294h.172v.544H5.51v.286h1.57v-.286h-.216v-.544h.216zM5.75 14.77s.008.29-.242.4v.34s.52-.125.628-.74H5.75zM6.472 14.77c.108.615.628.74.628.74v-.34c-.25-.11-.24-.4-.24-.4H6.47zM7.88 13.378c0 .12.076.163.076.163h.28v.253h-.45l-.204.178h-.215v-.29c.192-.013.192-.296.192-.296l.32-.006zM7.368 14.074v.243h.236v.236h-.236v.283h.236v.405s-.01.233.2.244c.208.01.374 0 .374 0v-.287h-.18s-.048.037-.052-.092c-.004-.13 0-.265 0-.265h.292v-.284h-.292v-.228h.292v-.254h-.87zM9.21 14.436h-.48l-.08-.084.1-.102h.464l.068.11-.07.076zm0 .408h-.48l-.08-.084.1-.103h.464l.068.11-.07.077zm.076-.902c.324-.16.324-.48.324-.48h-.287c-.04.133-.162.273-.162.273v.207h-.047v-.604H8.81v.604h-.04V13.7c-.132-.08-.154-.252-.154-.252h-.262c-.03.038-.022.078-.022.078.048.23.22.386.27.39.047.003.02.037.02.037-.053.023-.117.047-.16.08-.072.06-.108.126-.108.126v1.33h.302v-.36h.61v.07H9.03v.29h.39c.092-.022.16-.16.16-.16s.013-1.028 0-1.168c-.016-.14-.292-.22-.292-.22zM10.15 14.077h1.72c-.37-.148-.602-.386-.602-.386h-.534c-.257.28-.583.357-.583.357v.03zm.308-.64h1.11s.113.265.5.405v.25h-.163v.288H10.08v-.284h-.103v-.28s.348-.16.48-.38zM11.556 15.103c0 .102-.095.117-.095.117h-1.048v-.45h1.144v.333zm.348-.61h-1.852v.996h1.538s.307-.07.314-.307c.008-.24 0-.69 0-.69zM13.4 13.36s-.08.24-.35.477v.332l.227-.108h.072v1.427h.35v-.46h.806v-.248H13.7v-.357h.806v-.27h-.818v-.274h.818v-.27h-.815s-.012-.067.013-.13c.026-.063.054-.12.054-.12H13.4zm-.35.026c-.072.255-.222.41-.222.41v1.693h-.318v-1.45s-.056.05-.092.073c-.036.023-.09.04-.09.04v-.322c.318-.237.36-.444.36-.444h.362zM15.886 15.487h1.13v-.273h-.353v-1.14h.353v-.243h-.365v-.395h-.337v.394h-.404v.243h.403v1.138h-.427v.277zM14.8 13.605h.343v-.17h.294v.172h.398v.216c-.083.165-.33.39-.33.39v.035l.146.022.168.184v.37c-.118-.053-.358-.284-.358-.284v1.014h-.313v-.985c-.066.045-.348.145-.348.145v-.29c.327-.202.576-.47.576-.47v-.076l-.577.005v-.28zM4.468 16.62h.22s-.066.348-.526.38c-.207.013-.435-.212-.46-.38-.02-.13-.016-.454.213-.572.23-.12.718-.066.76.305h-.213s-.135-.197-.27-.172c-.135.027-.272.094-.264.314.005.154.026.225.177.28.094.036.21.055.363-.153M9.422 16.62h.22s-.066.348-.526.38c-.207.013-.435-.212-.46-.38-.02-.13-.016-.454.213-.572.228-.12.717-.066.76.305h-.214s-.135-.197-.27-.172c-.135.027-.272.094-.264.314.005.154.026.225.177.28.093.036.208.055.362-.153M4.802 16.014v.935h.236v-.35h.346v.35h.232v-.936h-.23v.35H5.03v-.35h-.228zM6.03 16.95H5.8v-.947h.23v.946zM6.227 16.003v.946h.254v-.498l.31.497h.29v-.936h-.234v.523h-.048l-.343-.534h-.228zM7.687 16.35l-.113.25h.24l-.127-.25zm.126-.347l.416.946h-.277l-.08-.174h-.38l-.074.173h-.244l.398-.947h.24zM10.252 15.98c-.274 0-.495.223-.495.496 0 .274.22.496.495.496.274 0 .496-.222.496-.496 0-.273-.222-.495-.496-.495m.293.496c0 .162-.13.294-.293.294-.162 0-.293-.132-.293-.294 0-.16.13-.293.292-.293.162 0 .293.132.293.293M11.832 15.98c-.274 0-.496.223-.496.496 0 .274.222.496.496.496s.495-.222.495-.496c0-.273-.22-.495-.495-.495m.293.496c0 .162-.13.294-.293.294-.162 0-.293-.132-.293-.294 0-.16.13-.293.292-.293.162 0 .293.132.293.293M11.257 16.588h-.422v-.22h.422v.22zM12.7 16.18v.296h.217s.12-.023.12-.148-.12-.148-.12-.148H12.7zm.38-.16s.213.052.213.293c0 .27-.214.285-.214.285h-.385v.354h-.232v-.932h.616z" fill="#444344" mask="url(#aad)"/><path d="M5.16 4.298h2.267v4.7H5.16v-4.7zM9.64 4.298h2.266v4.7H9.64v-4.7z" fill="#FFF000" mask="url(#aad)"/><path d="M6.15 3.308h4.764v2.267H6.15V3.308zM6.15 7.72h4.764V9.99H6.15V7.72z" fill="#FFF000" mask="url(#aad)"/><path d="M8.533 6.628c-.01 0-.02.008-.02.02s.01.02.02.02.02-.008.02-.02c0-.01-.01-.02-.02-.02m0 2.142c-1.17 0-2.12-.952-2.12-2.122s.95-2.12 2.12-2.12c1.17 0 2.12.95 2.12 2.12 0 1.17-.95 2.122-2.12 2.122M8.495 12.855c-.218 0-.416-.074-.572-.215-.13-.117-1.334-1.367-1.845-1.9l-.173-.178-.005-.248c-.003-.17.015-.748.4-1.09.206-.187.486-.28.83-.28.16 0 .284.02.308.025l.19.032.895.855.78-.778.084-.046c.057-.03.266-.13.55-.13.312 0 .606.117.85.335.5.45.453 1.1.197 1.514l-.024.04-.03.032c-.22.266-1.532 1.544-1.793 1.798l-.065.063-.08.043c-.072.038-.262.125-.497.125M9.938 4.378c-.285 0-.494-.1-.55-.13L9.303 4.2l-.78-.777-.897.854-.19.032c-.022.004-.147.026-.306.026-.344 0-.624-.095-.83-.28-.385-.342-.403-.92-.4-1.09l.005-.248.173-.18c.51-.533 1.715-1.782 1.845-1.9.156-.14.354-.214.572-.214.235 0 .425.087.496.126l.082.04.065.066c.26.253 1.572 1.53 1.794 1.797l.03.034.024.037c.256.414.303 1.065-.197 1.516-.244.218-.538.335-.85.335M12.185 9.276c-.214 0-.746-.04-1.068-.4-.354-.396-.284-.97-.254-1.138l.034-.19.854-.895-.777-.78-.045-.084c-.146-.274-.266-.876.205-1.4.222-.248.524-.384.85-.384.337 0 .594.142.665.186l.038.024.035.03c.267.22 1.545 1.532 1.798 1.793l.064.064.042.08c.15.282.215.73-.09 1.07-.116.13-1.366 1.332-1.898 1.844l-.178.17-.25.008h-.023zM4.863 9.276l-.247-.007-.182-.172c-.532-.51-1.782-1.715-1.9-1.845-.303-.338-.237-.787-.088-1.068l.042-.08.064-.066c.253-.262 1.53-1.573 1.798-1.795l.034-.03.038-.023c.07-.043.328-.186.665-.186.326 0 .628.136.85.383.472.524.35 1.126.205 1.4l-.045.082-.778.78.853.897.034.188c.03.167.1.743-.254 1.14-.32.36-.854.398-1.068.398h-.022z" fill="#FFF000" mask="url(#aad)"/><path d="M6.615 8.487H5.53V4.74h1.085v3.747zM11.52 8.487h-1.085V4.74h1.085v3.747zM10.435 4.738h-3.82V3.653h3.82v1.085zM10.435 9.572h-3.82V8.487h3.82v1.085zM8.525 4.988c-.897 0-1.624.727-1.624 1.624 0 .898.728 1.625 1.625 1.625s1.624-.727 1.624-1.625c0-.897-.728-1.624-1.625-1.624m.72 1.624c0 .4-.322.72-.72.72-.398 0-.72-.32-.72-.72 0-.398.322-.72.72-.72.398 0 .72.322.72.72M10.527 9.97c-.364-.328-.737-.13-.737-.13l-1.264 1.262-1.322-1.26s-.445-.08-.66.11c-.212.19-.202.66-.202.66s1.844 1.918 1.983 2.043c.14.126.376 0 .376 0s1.684-1.635 1.915-1.913c0 0 .276-.446-.088-.773M10.527 3.24c-.364.327-.737.128-.737.128l-1.264-1.26-1.322 1.26s-.445.08-.66-.112c-.212-.19-.202-.658-.202-.658S8.186.678 8.325.554c.14-.125.376 0 .376 0s1.684 1.636 1.915 1.914c0 0 .276.445-.088.772M11.893 4.606c-.327.363-.128.736-.128.736l1.26 1.265-1.26 1.322s-.08.444.112.657c.19.214.658.204.658.204s1.92-1.844 2.044-1.983c.124-.14 0-.375 0-.375s-1.637-1.683-1.915-1.915c0 0-.445-.275-.772.09M5.163 4.606c.327.363.128.736.128.736L4.03 6.607 5.29 7.93s.08.444-.11.657c-.19.214-.66.204-.66.204S2.603 6.947 2.478 6.808c-.125-.14 0-.375 0-.375S4.113 4.75 4.39 4.517c0 0 .446-.275.773.09" fill="#094" mask="url(#aad)"/><path d="M26.418 13.524l-.23.143c-.197-.263-.466-.395-.81-.395-.272 0-.5.09-.68.265-.18.175-.27.39-.27.64 0 .164.04.318.124.462.083.144.197.255.342.335.145.08.307.12.487.12.33 0 .6-.132.81-.394l.228.15c-.107.163-.25.288-.432.377-.18.09-.387.134-.618.134-.355 0-.65-.11-.884-.337-.233-.226-.35-.5-.35-.824 0-.218.055-.42.164-.607.11-.186.26-.332.45-.436.19-.105.406-.156.643-.156.15 0 .293.023.43.068.14.046.256.104.353.178.096.073.178.166.245.278M28.458 13.283c-.24 0-.446.09-.62.267-.172.176-.258.39-.258.643 0 .162.04.314.118.454.078.14.185.25.32.325.132.077.28.115.44.115.16 0 .308-.038.44-.115.135-.076.242-.184.32-.325.08-.14.118-.292.118-.454 0-.252-.087-.467-.26-.643-.173-.178-.38-.267-.618-.267m0-.282c.347 0 .634.126.86.376.207.228.31.5.31.81 0 .315-.108.59-.326.824-.22.234-.5.35-.843.35-.346 0-.627-.116-.846-.35-.218-.235-.327-.51-.327-.823 0-.31.104-.58.31-.81.227-.25.514-.376.862-.376M31.65 13.283c-.24 0-.447.09-.62.267-.173.176-.26.39-.26.643 0 .162.04.314.12.454.077.14.184.25.318.325.133.077.28.115.44.115.16 0 .31-.038.442-.115.134-.076.24-.184.32-.325.078-.14.117-.292.117-.454 0-.252-.087-.467-.26-.643-.173-.178-.38-.267-.618-.267m0-.282c.346 0 .633.126.86.376.206.228.31.5.31.81 0 .315-.11.59-.327.824-.22.234-.5.35-.843.35-.345 0-.626-.116-.845-.35-.218-.235-.327-.51-.327-.823 0-.31.104-.58.31-.81.227-.25.514-.376.862-.376M34.937 13.28c-.25 0-.46.086-.63.26-.172.176-.257.392-.257.652 0 .17.038.323.115.46.076.136.184.243.327.323.14.08.292.12.45.12.154 0 .3-.04.437-.12.135-.08.244-.193.326-.338.08-.144.12-.296.12-.453 0-.16-.04-.31-.12-.454-.08-.142-.188-.254-.324-.333-.135-.08-.284-.118-.445-.118zm-1.155-.222h.29v.412c.113-.156.244-.274.392-.352.15-.078.315-.117.497-.117.32 0 .593.115.82.344.226.23.34.507.34.83 0 .33-.113.61-.337.84-.225.232-.496.347-.814.347-.18 0-.344-.036-.493-.11-.15-.075-.285-.185-.406-.332v1.207h-.288v-3.067zM38.145 13.283c-.24 0-.446.09-.62.267-.172.176-.258.39-.258.643 0 .162.04.314.118.454.078.14.185.25.32.325.132.077.28.115.44.115.16 0 .308-.038.44-.115.135-.076.242-.184.32-.325.08-.14.118-.292.118-.454 0-.252-.087-.467-.26-.643-.173-.178-.38-.267-.618-.267m0-.282c.347 0 .634.126.86.376.207.228.31.5.31.81 0 .315-.108.59-.326.824-.22.234-.5.35-.844.35-.345 0-.626-.116-.845-.35-.217-.235-.326-.51-.326-.823 0-.31.104-.58.31-.81.227-.25.514-.376.862-.376M40.06 13.058h.308l.754 1.637.744-1.637h.31l-1.028 2.245h-.054l-1.034-2.245zM44.928 13.954c-.038-.154-.094-.277-.168-.37-.073-.092-.17-.166-.292-.223-.122-.054-.25-.083-.383-.083-.22 0-.41.07-.568.212-.115.103-.203.258-.262.464h1.673zm0 .604l.244.128c-.08.158-.172.284-.277.38-.105.097-.222.17-.353.22-.13.05-.28.075-.444.075-.366 0-.652-.12-.86-.36-.206-.238-.31-.51-.31-.813 0-.285.088-.54.263-.76.222-.285.52-.426.89-.426.384 0 .69.145.918.435.163.206.245.46.248.77h-2.02c.006.26.09.474.25.64.16.167.36.25.598.25.114 0 .224-.02.333-.06.108-.04.2-.092.276-.158.075-.066.157-.172.245-.32zM46.098 13.058h.295v.328c.088-.13.18-.226.278-.29.1-.064.2-.096.307-.096.08 0 .165.026.256.077l-.15.243c-.06-.027-.112-.04-.154-.04-.097 0-.19.04-.28.12-.09.078-.156.2-.203.368-.037.128-.054.387-.054.775v.76h-.295v-2.245zM49.03 13.303l-.187.192c-.154-.15-.304-.225-.453-.225-.093 0-.172.03-.24.093-.066.062-.1.134-.1.216 0 .073.028.142.084.208.053.068.17.147.346.238.216.11.362.218.44.322.075.104.112.222.112.352 0 .185-.064.34-.193.47-.132.127-.294.19-.49.19-.128 0-.252-.028-.37-.083-.116-.057-.214-.135-.29-.234l.18-.207c.148.167.305.25.47.25.115 0 .213-.037.295-.11.083-.075.123-.163.123-.263 0-.083-.028-.156-.082-.222-.053-.06-.174-.14-.364-.238-.2-.104-.34-.207-.412-.31-.073-.1-.11-.217-.11-.348 0-.17.057-.312.175-.425.116-.114.262-.17.44-.17.207 0 .416.1.626.303M51.855 13.954c-.038-.154-.094-.277-.168-.37-.073-.092-.17-.166-.292-.223-.122-.054-.25-.083-.383-.083-.22 0-.41.07-.568.212-.115.103-.203.258-.262.464h1.673zm0 .604l.244.128c-.08.158-.173.284-.278.38-.105.097-.222.17-.353.22-.132.05-.28.075-.445.075-.366 0-.652-.12-.86-.36-.206-.238-.31-.51-.31-.813 0-.285.088-.54.263-.76.22-.285.518-.426.89-.426.383 0 .69.145.917.435.163.206.245.46.248.77h-2.02c.006.26.09.474.25.64.16.167.36.25.598.25.115 0 .225-.02.334-.06.108-.04.2-.092.276-.158.075-.066.157-.172.245-.32zM54.217 13.28c-.16 0-.31.038-.445.117-.136.08-.244.19-.325.333-.08.143-.12.294-.12.454 0 .157.04.31.12.453.083.145.19.257.328.337.136.08.284.12.44.12.158 0 .308-.04.45-.12.14-.08.25-.186.326-.322.078-.137.116-.29.116-.46 0-.26-.086-.476-.257-.65-.172-.176-.383-.263-.633-.263zm1.155-.222v2.245h-.285v-.385c-.12.147-.257.257-.407.332-.15.074-.317.11-.495.11-.318 0-.59-.114-.814-.345-.224-.23-.337-.51-.337-.84 0-.324.114-.6.34-.83.228-.23.5-.344.82-.344.185 0 .35.04.5.118.15.078.28.196.394.352v-.412h.285zM57.574 13.303l-.188.192c-.154-.15-.303-.225-.453-.225-.093 0-.172.03-.24.093-.066.062-.1.134-.1.216 0 .073.027.142.083.208.054.068.17.147.346.238.217.11.363.218.44.322.075.104.113.222.113.352 0 .185-.065.34-.194.47-.13.127-.29.19-.486.19-.128 0-.252-.028-.37-.083-.117-.057-.215-.135-.293-.234l.184-.207c.146.167.303.25.47.25.114 0 .212-.037.294-.11.083-.075.123-.163.123-.263.002-.083-.026-.156-.08-.222-.053-.06-.175-.14-.364-.238-.203-.104-.34-.207-.413-.31-.073-.1-.11-.217-.11-.348 0-.17.058-.312.175-.425.116-.114.262-.17.44-.17.208 0 .416.1.626.303M59.682 15.083c.16 0 .31-.04.445-.12.136-.078.243-.19.325-.332.08-.142.12-.293.12-.453 0-.16-.04-.312-.12-.456-.083-.144-.192-.256-.33-.336-.134-.08-.28-.12-.436-.12-.157 0-.308.04-.45.12-.142.08-.25.188-.327.324-.078.137-.116.29-.116.46 0 .26.086.478.257.652.172.175.382.263.632.263zm-1.155.22v-3.112h.29v1.254c.12-.148.255-.26.404-.333.15-.073.316-.11.494-.11.318 0 .59.116.814.347.224.23.337.51.337.84 0 .323-.114.6-.34.83-.228.23-.5.344-.82.344-.182 0-.347-.038-.496-.116-.15-.08-.28-.196-.394-.353v.414h-.29zM61.777 13.058h.29v1.048c0 .256.013.432.04.528.04.138.12.246.236.326.117.08.256.12.417.12.162 0 .298-.04.41-.117.113-.077.19-.18.233-.305.028-.087.043-.27.043-.552v-1.048h.296v1.102c0 .31-.036.543-.11.7-.07.156-.18.28-.325.368-.145.09-.327.133-.546.133-.217 0-.4-.043-.546-.132-.147-.09-.256-.213-.33-.372-.07-.158-.107-.398-.107-.717v-1.082zM64.564 13.058h.306l.77 1.73.75-1.73h.31l-1.34 3.066h-.306l.432-.99-.922-2.076zM67.812 14.85c.07 0 .13.023.18.073.05.05.074.11.074.182 0 .07-.025.13-.074.18-.05.05-.11.076-.18.076-.07 0-.13-.025-.18-.074-.05-.05-.074-.11-.074-.18 0-.072.025-.133.074-.183.05-.05.11-.074.18-.074M71.266 13.524l-.23.143c-.197-.263-.466-.395-.81-.395-.272 0-.5.09-.68.265-.18.175-.27.39-.27.64 0 .164.04.318.124.462.083.144.197.255.342.335.145.08.307.12.487.12.33 0 .6-.132.807-.394l.23.15c-.108.163-.252.288-.433.377-.18.09-.387.134-.618.134-.355 0-.65-.11-.884-.337-.233-.226-.35-.5-.35-.824 0-.218.055-.42.164-.607.11-.186.26-.332.45-.436.19-.105.406-.156.643-.156.147 0 .29.023.43.068.137.046.254.104.35.178.097.073.18.166.246.278M73.306 13.283c-.24 0-.446.09-.62.267-.172.176-.258.39-.258.643 0 .162.04.314.118.454.078.14.185.25.32.325.132.077.28.115.44.115.16 0 .308-.038.44-.115.135-.076.242-.184.32-.325.08-.14.118-.292.118-.454 0-.252-.087-.467-.26-.643-.173-.178-.38-.267-.618-.267m0-.282c.347 0 .634.126.86.376.207.228.31.5.31.81 0 .315-.108.59-.326.824-.22.234-.5.35-.843.35-.345 0-.626-.116-.845-.35-.218-.235-.327-.51-.327-.823 0-.31.104-.58.31-.81.227-.25.514-.376.862-.376M75.433 13.058h.288v.388c.102-.144.205-.248.312-.314.145-.088.3-.132.46-.132.11 0 .212.02.31.064.098.043.178.1.24.17s.116.173.16.304c.097-.175.217-.31.36-.4.145-.093.3-.138.467-.138.154 0 .29.04.41.118.118.078.206.187.264.328.057.14.086.35.086.632v1.225h-.294v-1.225c0-.242-.018-.407-.052-.498-.034-.09-.093-.162-.176-.217-.083-.055-.182-.082-.297-.082-.14 0-.267.042-.383.125-.116.082-.2.192-.254.33-.053.137-.08.367-.08.69v.878h-.29v-1.15c0-.27-.016-.454-.05-.55-.034-.1-.092-.176-.176-.234-.084-.06-.184-.09-.3-.09-.133 0-.258.04-.374.122-.116.08-.202.188-.258.324-.056.137-.084.345-.084.626v.95h-.287V13.06z" fill="#939394" mask="url(#aad)"/><path d="M19.63 2.965V15.61" stroke="#CBCCCC" stroke-width=".25" mask="url(#aad)"/></g></svg>
<svg width="350" height="80" viewBox="-10 -10 75 30" id="logo2" y="122"><title>Page 1</title><defs><path id="aba" d="M0 .44h54.777V10H0V.44z"/><path id="abc" d="M0 .44h54.777V10H0V.44z"/></defs><g fill="none" fill-rule="evenodd"><path d="M17.288 3.864h-1.84v1.534h1.84V3.864zm-4.175 1.534h1.817V3.864h-1.817v1.534zm-.492-1.98h2.31V2.1h.517v1.317h2.333v2.755h-.492v-.327h-1.84v2.247h-.518V5.845h-1.817v.327h-.492V3.417zM21.858 5.47l.337-.253c.22.23.408.445.564.647l-.355.27c-.192-.26-.374-.482-.547-.663zm-2.41.81h1.655V5.084h-1.445v-.41h1.445v-.81h-1.56v-.41h3.575v.41h-1.57v.81h1.45v.41h-1.45V6.28h1.666v.41h-3.766v-.41zm4.05-3.425H19.17v4.477h4.325V2.855zm-4.788-.43h5.248v5.637h-.46V7.76H19.17v.308h-.46V2.426zM28.595 6.516l.354-.303c.63.59 1.125 1.08 1.48 1.474l-.395.37c-.407-.488-.888-1.002-1.44-1.54zm-1.007-.913h1.295V3.936h-1.295v1.667zm1.295-3.43h.492v1.33h.858v.433h-.858v1.667h1.068v.436h-4.36v-.437h1.012V3.936h-.774v-.434h.775V2.18h.493V3.5h1.295v-1.33zM27.88 6.528c-.47.58-.962 1.097-1.474 1.552-.108-.125-.23-.24-.366-.35.508-.387.983-.884 1.427-1.492l.414.29zm-3.454-1.504c.628-.85 1.122-1.818 1.48-2.906l.482.175c-.206.538-.42 1.032-.642 1.48v4.295h-.48V4.652c-.206.34-.417.644-.635.916-.056-.165-.124-.347-.204-.544zM35.174 3.35c.285-.31.56-.652.828-1.026l.397.302c-.246.297-.545.634-.9 1.01l-.326-.285zm-1.77 2.87H35.8v-.75h-2.395v.75zM35.8 4.292h-2.394v.743h2.394v-.743zm-2.393 3.775h-.438V3.84h1.374V2.124h.463V3.84h1.434v3.503c0 .467-.22.7-.655.7-.224 0-.54-.005-.953-.018l-.085-.494c.376.025.66.036.858.036.264 0 .395-.112.395-.337v-.575h-2.393v1.413zm-.635-5.51l.33-.252c.287.286.57.608.85.966l-.377.308c-.276-.39-.544-.73-.803-1.02zm-.042 4.174c0 .178.01.346.03.503-.257.124-.554.29-.894.494-.073.04-.156.11-.252.205l-.318-.416c.128-.118.192-.27.192-.455V5.75h-.804V5.33h.804v-.815h-.39V4.1h1.53v.417h-.703v.815h.84v.417h-.84v1.436c.293-.157.56-.308.805-.454zm-2.1-2.747c.388-.56.698-1.182.93-1.867l.45.15c-.108.27-.224.53-.348.78h1.11v.417h-1.32c-.176.327-.366.637-.57.93-.077-.144-.16-.282-.252-.41zM39.92 4.384l.27-.273c.255.198.508.405.755.618l-.306.313c-.245-.24-.484-.46-.72-.656zm-.08 1.546l.277-.272c.268.206.518.413.75.622l-.312.315c-.236-.23-.474-.452-.714-.665zm1.86-1.89h-2.374l-.147 1.098h2.494c.01-.342.02-.708.027-1.1zm-.038 1.52h-2.537l-.147 1.113h2.643c.016-.33.03-.702.042-1.112zm-3.56-.422h.615l.213-1.51h3.233c-.012.56-.024 1.063-.036 1.51h.63v.423h-.645c-.012.436-.024.807-.036 1.113h.49v.41h-.518c-.033.297-.113.518-.24.665-.143.165-.4.247-.766.247-.21 0-.476-.007-.805-.024-.02-.135-.047-.3-.083-.488.387.036.685.055.894.055.3 0 .48-.152.54-.453h-3.085v-.447l.154-1.076h-.555V5.14zm-.048-1.316c.496-.47.895-1.05 1.2-1.734h.51c-.097.21-.197.41-.304.598h3.17v.423H39.21c-.258.404-.54.76-.848 1.068-.092-.12-.194-.24-.306-.356zm-1.056-1.317l.306-.32c.24.185.574.465 1.002.84-.136.132-.253.252-.353.356-.433-.414-.75-.706-.955-.875zm-.048 5.382c.236-.705.44-1.476.612-2.313.177.076.338.14.486.187-.204.79-.394 1.553-.57 2.29l-.528-.163zm-.18-3.776l.3-.343c.368.258.71.518 1.026.78-.143.165-.26.294-.348.386-.356-.322-.682-.596-.977-.822zM46.656 2.167h.503v2.078l.24-.272c.572.447 1.08.856 1.53 1.226l-.343.445c-.423-.393-.9-.814-1.428-1.26v3.7h-.504V2.168zm-3.79 3.074c.594-.912 1.042-1.954 1.342-3.12l.492.137c-.096.326-.195.64-.3.943h1.668v.447c-.212 2-1.11 3.47-2.693 4.402-.084-.133-.188-.276-.312-.43.776-.462 1.37-1.042 1.788-1.738-.28-.238-.594-.48-.942-.725l.306-.37c.34.25.63.47.87.66.25-.52.408-1.116.48-1.788h-1.337c-.28.712-.643 1.41-1.087 2.095-.08-.166-.17-.336-.275-.514z" fill="#444344"/><mask id="abb" fill="#fff"><use xlink:href="#aba"/></mask><path d="M53.014 4.957l.414-.12c.184.58.362 1.188.534 1.824l-.45.134c-.032-.122-.062-.244-.09-.37-.424.03-.804.064-1.14.104-.175.02-.354.052-.533.097l-.187-.393c.14-.09.244-.21.312-.362.22-.536.427-1.18.623-1.933l.456.108c-.24.745-.478 1.432-.714 2.06.34-.02.7-.044 1.08-.073-.096-.354-.198-.712-.306-1.075zM49.39 2.47h2.03V4.2c.4-.616.696-1.31.893-2.084l.473.11c-.096.29-.196.565-.3.827h2.292c-.025 1.957-.048 3.26-.072 3.907-.036.653-.368.98-.996.98-.344 0-.71-.01-1.097-.025-.025-.16-.057-.326-.096-.495.387.044.743.068 1.067.073.42-.005.642-.214.666-.63.027-.683.048-1.807.06-3.37h-2.004c-.148.35-.3.67-.46.96-.118-.076-.26-.15-.427-.222v1.98h-.433V2.91h-1.164v3.34h-.432V2.47zm.8.965h.43V4.65c0 .78-.053 1.386-.16 1.818l.173-.163c.408.427.766.815 1.074 1.165l-.378.32c-.285-.366-.597-.738-.937-1.118-.144.46-.49.93-1.037 1.41-.088-.127-.194-.25-.32-.37.47-.35.78-.725.93-1.124.15-.346.223-.934.223-1.763v-1.39z" fill="#444344" mask="url(#abb)"/><mask id="abd" fill="#fff"><use xlink:href="#abc"/></mask><path d="M2.17 3.418H3.9v3.614H2.17V3.418zM5.59 3.418h1.733v3.614H5.59V3.418z" fill="#FFF000" mask="url(#abd)"/><path d="M2.926 2.655h3.64V4.4h-3.64V2.654zM2.926 6.05h3.64v1.745h-3.64V6.05z" fill="#FFF000" mask="url(#abd)"/><path d="M4.746 5.21c-.01 0-.016.006-.016.015 0 .01.007.016.016.016.008 0 .015-.006.015-.015 0-.01-.006-.016-.014-.016m0 1.647c-.894 0-1.62-.732-1.62-1.632 0-.9.726-1.632 1.62-1.632.893 0 1.62.732 1.62 1.632 0 .9-.727 1.632-1.62 1.632M4.717 10c-.167 0-.318-.057-.437-.165-.1-.09-1.02-1.052-1.41-1.46l-.132-.14-.003-.19c-.003-.13.01-.576.304-.84.158-.142.37-.213.635-.213.12 0 .216.015.235.02l.144.024.684.658.597-.6.063-.033c.044-.023.204-.1.42-.1.24 0 .463.09.65.258.382.347.346.847.15 1.165l-.018.03-.022.026c-.17.204-1.17 1.187-1.37 1.382l-.05.05-.062.032c-.054.03-.2.096-.38.096M5.82 3.478c-.218 0-.378-.076-.422-.1l-.063-.034-.597-.6-.684.658-.144.026c-.018.004-.114.02-.235.02-.264 0-.477-.073-.636-.214-.294-.265-.308-.71-.305-.84l.003-.19.133-.14c.39-.41 1.31-1.37 1.41-1.46.12-.108.27-.165.437-.165.18 0 .325.066.38.095l.06.033.05.05c.2.194 1.2 1.177 1.37 1.38l.023.028.018.03c.196.318.232.82-.15 1.165-.187.17-.41.258-.65.258M7.536 7.247c-.164 0-.57-.03-.816-.308-.27-.306-.217-.748-.194-.877l.026-.145.652-.69-.594-.6-.034-.064c-.112-.21-.204-.673.156-1.077.17-.19.4-.294.65-.294.257 0 .453.11.508.143l.03.018.025.023c.203.17 1.18 1.18 1.373 1.38l.05.05.03.062c.115.215.165.56-.067.82-.088.1-1.043 1.026-1.45 1.42l-.136.13-.19.007h-.018zM1.942 7.246l-.188-.005-.14-.13C1.21 6.715.255 5.79.165 5.69c-.232-.26-.182-.605-.068-.82l.032-.064.05-.05c.192-.2 1.17-1.21 1.372-1.38l.026-.022.03-.018c.054-.033.25-.143.507-.143.25 0 .48.104.65.294.36.404.268.867.156 1.077l-.035.064-.594.6.653.69.026.145c.022.13.075.572-.195.876-.245.276-.652.306-.816.306H1.94z" fill="#FFF000" mask="url(#abd)"/><path d="M3.28 6.64h-.828V3.755h.83V6.64zM7.028 6.64h-.83V3.755h.83V6.64z" fill="#094" mask="url(#abd)"/><path d="M6.2 3.756H3.28v-.834H6.2v.834zM6.2 7.474H3.28V6.64H6.2v.834zM4.74 3.948c-.685 0-1.24.56-1.24 1.25s.555 1.25 1.24 1.25c.685 0 1.24-.56 1.24-1.25s-.555-1.25-1.24-1.25m.55 1.25c0 .306-.246.554-.55.554-.304 0-.55-.248-.55-.555 0-.306.246-.554.55-.554.304 0 .55.248.55.554M6.27 7.78c-.28-.252-.564-.098-.564-.098l-.966.97-1.01-.97s-.34-.06-.503.086c-.163.146-.155.506-.155.506s1.41 1.476 1.515 1.572c.107.096.287 0 .287 0S6.16 8.588 6.336 8.374c0 0 .21-.342-.067-.594M6.27 2.603c-.28.252-.564.1-.564.1l-.966-.97-1.01.97s-.34.06-.503-.087c-.163-.146-.155-.506-.155-.506S4.482.633 4.587.537c.107-.096.287 0 .287 0S6.16 1.797 6.336 2.01c0 0 .21.342-.067.593M7.312 3.654c-.25.28-.097.567-.097.567l.963.974-.963 1.017s-.06.343.085.507c.145.164.503.157.503.157s1.466-1.42 1.56-1.527c.097-.106 0-.288 0-.288s-1.248-1.296-1.46-1.474c0 0-.34-.212-.59.068M2.172 3.654c.25.28.098.567.098.567l-.964.974.964 1.017s.06.343-.086.507c-.145.164-.503.157-.503.157S.217 5.454.12 5.347c-.095-.106 0-.288 0-.288s1.25-1.296 1.462-1.474c0 0 .34-.212.59.068" fill="#094" mask="url(#abd)"/></g></svg>
</svg>