<?xml version="1.0" encoding="UTF-8" standalone="no"?>
<svg width="20px" height="20px" viewBox="0 0 20 20" version="1.1" xmlns="http://www.w3.org/2000/svg" xmlns:xlink="http://www.w3.org/1999/xlink" xmlns:sketch="http://www.bohemiancoding.com/sketch/ns">
    <!-- Generator: Sketch 3.4.4 (17249) - http://www.bohemiancoding.com/sketch -->
    <title>Q</title>
    <desc>Created with Sketch.</desc>
    <defs>
        <filter x="-50%" y="-50%" width="200%" height="200%" filterUnits="objectBoundingBox" id="filter-1">
            <feOffset dx="2" dy="2" in="SourceAlpha" result="shadowOffsetOuter1"></feOffset>
            <feGaussianBlur stdDeviation="0" in="shadowOffsetOuter1" result="shadowBlurOuter1"></feGaussianBlur>
            <feColorMatrix values="0 0 0 0 0   0 0 0 0 0   0 0 0 0 0  0 0 0 0.107294497 0" in="shadowBlurOuter1" type="matrix" result="shadowMatrixOuter1"></feColorMatrix>
            <feMerge>
                <feMergeNode in="shadowMatrixOuter1"></feMergeNode>
                <feMergeNode in="SourceGraphic"></feMergeNode>
            </feMerge>
        </filter>
    </defs>
    <g id="Page-1" stroke="none" stroke-width="1" fill="none" fill-rule="evenodd" sketch:type="MSPage">
        <g id="Q" sketch:type="MSLayerGroup">
            <rect id="Rectangle-1" fill="#E73736" sketch:type="MSShapeGroup" x="0" y="0" width="20" height="20" rx="4"></rect>
            <path d="M14.2408854,13.1269531 L16.0742188,15.4973958 L13.6966146,15.4973958 L12.765625,14.3014323 C11.996958,14.7215733 11.1399787,14.9316406 10.1946615,14.9316406 C8.61435842,14.9316406 7.30143752,14.3861817 6.25585938,13.2952474 C5.21028123,12.2043131 4.6875,10.9045214 4.6875,9.39583333 C4.6875,8.38844982 4.93098715,7.46343737 5.41796875,6.62076823 C5.90495035,5.77809909 6.57454001,5.10850943 7.42675781,4.61197917 C8.27897562,4.11544891 9.19443955,3.8671875 10.1731771,3.8671875 C11.6675422,3.8671875 12.950624,4.40667863 14.0224609,5.48567708 C15.0942979,6.56467553 15.6302083,7.87998356 15.6302083,9.43164062 C15.6302083,10.8591651 15.1671053,12.0909236 14.2408854,13.1269531 L14.2408854,13.1269531 Z M12.9876302,11.5084635 C13.4125455,10.8782521 13.625,10.1812104 13.625,9.41731771 C13.625,8.41948286 13.2884148,7.5720521 12.6152344,6.875 C11.9420539,6.1779479 11.128043,5.82942708 10.1731771,5.82942708 C9.18966522,5.82942708 8.36610575,6.16839939 7.70247396,6.84635417 C7.03884217,7.52430895 6.70703125,8.38606248 6.70703125,9.43164062 C6.70703125,10.596577 7.12477881,11.5180088 7.96028646,12.1959635 C8.61436959,12.7259141 9.35676668,12.9908854 10.1875,12.9908854 C10.6649329,12.9908854 11.1137132,12.8977874 11.5338542,12.7115885 L9.65039062,10.2838542 L12.0423177,10.2838542 L12.9876302,11.5084635 Z" fill="#FFFFFF" filter="url(#filter-1)" sketch:type="MSShapeGroup"></path>
        </g>
    </g>
</svg>