<?xml version="1.0" encoding="UTF-8" standalone="no"?>
<svg width="40px" height="31px" viewBox="0 0 40 31" version="1.1" xmlns="http://www.w3.org/2000/svg" xmlns:xlink="http://www.w3.org/1999/xlink" xmlns:sketch="http://www.bohemiancoding.com/sketch/ns">
    <!-- Generator: Sketch 3.4 (15575) - http://www.bohemiancoding.com/sketch -->
    <title>icon-footer4</title>
    <desc>Created with Sketch.</desc>
    <defs></defs>
    <g id="Page-1" stroke="none" stroke-width="1" fill="none" fill-rule="evenodd" sketch:type="MSPage">
        <g id="美妆首页-copy-2" sketch:type="MSArtboardGroup" transform="translate(-1113.000000, -4562.000000)" fill="#FFFFFF">
            <g id="icon-footer4" sketch:type="MSLayerGroup" transform="translate(1113.000000, 4562.000000)">
                <path d="M38.7184314,19.1583633 L38.7184314,13.4643535 C38.7184314,8.86860884 35.692549,6.49217676 35.5639216,6.39319149 C35.4266667,6.28792144 35.2588235,6.23135843 35.0862745,6.23135843 L27.9105882,6.23135843 L27.9105882,1.48870704 C27.9105882,1.05505728 27.56,0.703109656 27.1262745,0.703109656 L1.35686275,0.703109656 C0.923137255,0.703109656 0.571764706,1.05505728 0.571764706,1.48870704 L0.571764706,19.9392471 C0.571764706,20.3728969 0.923137255,20.7248445 1.35686275,20.7248445 L2.18509804,20.7248445 L2.18509804,24.0282815 C2.18509804,24.4627169 2.53568627,24.8138789 2.96941176,24.8138789 L5.47529412,24.8138789 C5.38666667,25.1689689 5.33411765,25.5381997 5.33411765,25.92 C5.33411765,28.4323404 7.37411765,30.4764648 9.88313725,30.4764648 C12.3905882,30.4764648 14.4305882,28.4323404 14.4305882,25.92 C14.4305882,25.5381997 14.3788235,25.1689689 14.2894118,24.8138789 L27.6243137,24.8138789 C27.5356863,25.1689689 27.4831373,25.5381997 27.4831373,25.92 C27.4831373,28.4323404 29.5239216,30.4764648 32.0321569,30.4764648 C34.5396078,30.4764648 36.5803922,28.4323404 36.5803922,25.92 C36.5803922,25.5381997 36.5278431,25.1689689 36.4384314,24.8138789 L38.6329412,24.8138789 C39.0666667,24.8138789 39.4172549,24.4627169 39.4172549,24.0282815 L39.4172549,19.9392471 C39.4172549,19.5338789 39.1113725,19.2007856 38.7184314,19.1583633 L38.7184314,19.1583633 Z M37.1498039,13.4643535 L37.1498039,13.7212439 L34.0988235,13.7212439 L34.0988235,7.80255319 L34.7952941,7.80255319 C35.3811765,8.34618658 37.1498039,10.253617 37.1498039,13.4643535 L37.1498039,13.4643535 Z M27.9105882,7.80255319 L32.5301961,7.80255319 L32.5301961,13.7212439 L27.9105882,13.7212439 L27.9105882,7.80255319 Z M2.14039216,2.27430442 L26.3411765,2.27430442 L26.3411765,19.1528642 L2.14039216,19.1528642 L2.14039216,2.27430442 Z M9.88313725,28.90527 C8.23921569,28.90527 6.9027451,27.5666121 6.9027451,25.92 C6.9027451,24.2741735 8.23921569,22.9355155 9.88313725,22.9355155 C11.5254902,22.9355155 12.8619608,24.2741735 12.8619608,25.92 C12.8619608,27.5666121 11.5254902,28.90527 9.88313725,28.90527 L9.88313725,28.90527 Z M32.0321569,28.90527 C30.3882353,28.90527 29.0517647,27.5666121 29.0517647,25.92 C29.0517647,24.2741735 30.3882353,22.9355155 32.0321569,22.9355155 C33.6752941,22.9355155 35.0117647,24.2741735 35.0117647,25.92 C35.0117647,27.5666121 33.6752941,28.90527 32.0321569,28.90527 L32.0321569,28.90527 Z M37.8486275,23.2426841 L35.7035294,23.2426841 C34.8752941,22.1067103 33.5403922,21.3643208 32.0321569,21.3643208 C30.5231373,21.3643208 29.187451,22.1067103 28.36,23.2426841 L13.5545098,23.2426841 C12.7262745,22.1067103 11.3913725,21.3643208 9.88313725,21.3643208 C8.37411765,21.3643208 7.03843137,22.1067103 6.21098039,23.2426841 L3.75372549,23.2426841 L3.75372549,20.7248445 L27.1262745,20.7248445 C27.56,20.7248445 27.9105882,20.3728969 27.9105882,19.9392471 L27.9105882,15.2924386 L37.1498039,15.2924386 L37.1498039,19.9392471 C37.1498039,20.3438298 37.4556863,20.6769231 37.8486275,20.7201309 L37.8486275,23.2426841 L37.8486275,23.2426841 Z" id="Fill-1" sketch:type="MSShapeGroup"></path>
                <path d="M32.0313725,24.8940098 C31.4666667,24.8940098 31.0070588,25.3543699 31.0070588,25.92 C31.0070588,26.4864157 31.4666667,26.9467758 32.0313725,26.9467758 C32.5960784,26.9467758 33.0564706,26.4864157 33.0564706,25.92 C33.0564706,25.3543699 32.5960784,24.8940098 32.0313725,24.8940098" id="Fill-2" sketch:type="MSShapeGroup"></path>
                <path d="M9.88235294,24.8940098 C9.31764706,24.8940098 8.8572549,25.3543699 8.8572549,25.92 C8.8572549,26.4864157 9.31764706,26.9467758 9.88235294,26.9467758 C10.4478431,26.9467758 10.9066667,26.4864157 10.9066667,25.92 C10.9066667,25.3543699 10.4478431,24.8940098 9.88235294,24.8940098" id="Fill-3" sketch:type="MSShapeGroup"></path>
                <path d="M29.68,2.60582651 L29.6854902,2.60582651 C31.6831373,2.60582651 33.4847059,4.99325696 33.5027451,5.01839607 C33.6564706,5.22500818 33.8933333,5.33420622 34.132549,5.33420622 C34.2956863,5.33420622 34.4588235,5.28392799 34.5992157,5.17944354 C34.947451,4.920982 35.0196078,4.43076923 34.7623529,4.08196399 C34.6705882,3.95705401 32.4776471,1.03463175 29.6854902,1.03463175 L29.6784314,1.03463175 C29.2454902,1.03541735 28.894902,1.38736498 28.8956863,1.82180033 C28.8964706,2.25545008 29.2470588,2.60582651 29.68,2.60582651" id="Fill-4" sketch:type="MSShapeGroup"></path>
            </g>
        </g>
    </g>
</svg>