<?xml version="1.0" encoding="UTF-8" standalone="no"?>
<svg width="146px" height="57px" viewBox="0 0 146 57" version="1.1" xmlns="http://www.w3.org/2000/svg" xmlns:xlink="http://www.w3.org/1999/xlink">
    <!-- Generator: Sketch 3.6.1 (26313) - http://www.bohemiancoding.com/sketch -->
    <title>Page 1</title>
    <desc>Created with Sketch.</desc>
    <defs>
        <path id="path-1" d="M0,56.9439744 L145.54594,56.9439744 L145.54594,0 L0,0 L0,56.9439744 Z"></path>
    </defs>
    <g id="Page-1" stroke="none" stroke-width="1" fill="none" fill-rule="evenodd">
        <g id="头部添加关注我们-copy" transform="translate(-369.000000, -39.000000)">
            <g id="Page-1" transform="translate(369.000000, 39.000000)">
                <path d="M145.201623,7.30311282 C145.00063,5.69444615 143.627743,4.48039487 142.007143,4.48039487 L132.556563,4.48039487 C132.680663,4.02829231 132.750257,3.55426667 132.750257,3.06318974 L131.070283,3.06318974 C131.070283,4.33570256 130.420583,5.45913846 129.436057,6.11877949 L129.436057,8.01683077 C130.373863,7.62854872 131.17589,6.97962564 131.757457,6.16311282 L142.007143,6.16311282 C142.766343,6.16311282 143.411177,6.71947179 143.527977,7.46534359 L143.527977,20.4837538 L143.526517,20.4837538 C143.526517,21.3353436 142.834477,22.0490615 141.984757,22.0490615 L141.984757,23.7312923 C143.76109,23.7312923 145.20649,22.2624462 145.20649,20.4837538 L145.20795,20.4837538 L145.20795,7.40736923 L145.201623,7.30311282 L145.201623,7.30311282 Z" id="Fill-1" fill="#3E3A39"></path>
                <mask id="mask-2" fill="white">
                    <use xlink:href="#path-1"></use>
                </mask>
                <g id="Clip-4"></g>
                <path d="M84.3393333,17.2744103 L87.1401,17.2744103 L87.1401,14.0911795 L84.3393333,14.0911795 L84.3393333,17.2744103 Z M84.3393333,7.68038462 L87.1401,7.68038462 L87.1401,5.12610256 L84.3393333,5.12610256 L84.3393333,7.68038462 Z M84.3393333,12.4089487 L87.1401,12.4089487 L87.1401,9.36212821 L84.3393333,9.36212821 L84.3393333,12.4089487 Z M94.0614733,15.6063077 C96.0675133,11.8486923 96.0422067,8.04187179 96.0422067,6.40251282 C96.0422067,4.28230769 94.4950933,3.54325641 93.67798,3.44825641 L89.8445067,3.44289744 L89.8445067,5.12561538 L93.52176,5.12561538 C93.7008533,5.15776923 94.3617467,5.35020513 94.3617467,6.40251282 C94.3617467,7.8065641 94.3598,10.6857949 93.1329133,13.6658718 C91.8028533,10.2146923 92.0203933,6.88530769 92.0238,6.83171795 L90.3467467,6.72112821 C90.3413933,6.81174359 90.2056133,8.96994872 90.7755,11.6733077 C91.07334,13.0875897 91.5103667,14.4268462 92.1211333,15.6501538 C91.47046,16.7005128 90.63242,17.7255385 89.5486133,18.6628718 L89.5486133,17.8473333 C89.5486133,17.5311538 89.29214,17.2744103 88.97678,17.2744103 L88.8200733,17.2744103 L88.8200733,5.12561538 L89.5486133,5.12561538 L89.5486133,4.01582051 L89.5486133,4.01533333 C89.5486133,3.69964103 89.29214,3.44289744 88.97678,3.44289744 L81.9055133,3.44289744 L81.9055133,5.12561538 L82.6588733,5.12561538 L82.6588733,17.2744103 L81.9055133,17.2744103 L81.9055133,18.9571282 L87.1401,18.9571282 L87.1401,20.7333846 L88.24824,20.7333846 C88.5640867,20.7333846 88.8200733,20.4761538 88.8200733,20.1604615 L88.8200733,18.9571282 L89.5486133,18.9571282 L89.5486133,20.7333846 C91.0314867,19.6620769 92.17272,18.4660513 93.05602,17.2286154 C93.9252067,18.4670256 95.03578,19.5315128 96.44468,20.3587436 L96.44468,18.4845641 C95.4406867,17.6290769 94.66494,16.6391282 94.0614733,15.6063077 L94.0614733,15.6063077 Z" id="Fill-3" fill="#3E3A39" mask="url(#mask-2)"></path>
                <path d="M70.666044,4.62684103 L60.875284,4.62684103 L60.875284,3.06299487 L59.194824,3.06299487 L59.194824,4.62684103 L48.8322307,4.62684103 L48.8322307,6.30955897 L59.194824,6.30955897 L59.194824,11.542841 L48.8322307,11.542841 L48.8322307,13.2250718 L59.194824,13.2250718 L59.194824,18.458841 L48.8322307,18.458841 L48.8322307,20.1410718 L59.194824,20.1410718 L59.194824,23.5357385 L60.3034507,23.5357385 C60.6192973,23.5357385 60.875284,23.2799692 60.875284,22.9637897 L60.875284,20.1410718 L71.238364,20.1410718 L71.238364,19.0239692 C71.238364,18.7321487 71.0188773,18.4944051 70.7370973,18.458841 L60.875284,18.458841 L60.875284,13.2250718 L71.238364,13.2250718 L71.238364,12.1138154 L71.238364,12.112841 C71.238364,11.8029949 70.991624,11.5530718 70.6845373,11.542841 L60.875284,11.542841 L60.875284,6.30955897 L71.238364,6.30955897 L71.238364,5.1997641 L71.238364,5.19927692 C71.238364,4.88358462 70.9818907,4.62684103 70.666044,4.62684103" id="Fill-5" fill="#3E3A39" mask="url(#mask-2)"></path>
                <path d="M120.272805,4.67063846 C120.260638,4.67063846 120.252851,4.66917692 120.246038,4.66576667 L108.144585,4.63020256 C108.296425,4.13425385 108.379645,3.60858718 108.379645,3.06343333 L106.699185,3.06343333 C106.699185,4.33594615 106.048998,5.45889487 105.064958,6.1185359 L105.064958,8.01658718 C105.945338,7.65217692 106.706485,7.05733077 107.277831,6.30999744 L120.839285,6.34994615 L120.842691,5.22797179 C120.833931,4.9191 120.582811,4.67063846 120.272805,4.67063846" id="Fill-6" fill="#3E3A39" mask="url(#mask-2)"></path>
                <path d="M118.259124,20.4836077 C118.259124,21.1802744 117.693131,21.7527103 116.997684,21.7605051 L108.010411,21.7605051 C107.313017,21.754659 106.745077,21.1812487 106.745077,20.4840949 L106.745077,16.4025051 L111.661871,16.4025051 L111.661871,19.3304538 L112.770011,19.3304538 C113.085857,19.3304538 113.342331,19.0746846 113.342331,18.7585051 L113.342331,16.4025051 L118.259124,16.4025051 L118.259124,20.4836077 Z M106.745077,11.5121974 C106.745077,10.8077359 107.317884,10.2348128 108.022091,10.2348128 L116.982597,10.2348128 C117.686317,10.2348128 118.259124,10.8077359 118.259124,11.5126846 L118.259124,14.7202744 L113.342331,14.7202744 L113.342331,11.7918385 L111.661871,11.7918385 L111.661871,14.7202744 L106.745077,14.7202744 L106.745077,11.5121974 Z M120.256404,14.7202744 L119.939584,14.7202744 L119.939584,11.5126846 C119.939584,9.88014615 118.612931,8.55258205 116.982597,8.55258205 L108.022091,8.55258205 C106.391757,8.55258205 105.065591,9.88014615 105.064617,11.5121974 L105.064617,14.7202744 L104.175964,14.7202744 L104.175964,16.4025051 L105.064617,16.4025051 L105.064617,20.4840949 C105.065591,22.1005564 106.379591,23.4281205 108.002624,23.4427359 L117.005471,23.4427359 L117.009364,23.4427359 C118.624611,23.4281205 119.939584,22.1000692 119.939584,20.4836077 L119.939584,16.4025051 L120.828237,16.4025051 L120.828237,15.2922231 C120.828237,14.9765308 120.572251,14.7202744 120.256404,14.7202744 L120.256404,14.7202744 Z" id="Fill-7" fill="#3E3A39" mask="url(#mask-2)"></path>
                <path d="M102.625249,3.71182051 C102.602863,3.71182051 102.592643,3.70451282 102.591183,3.69282051 L98.498316,3.69282051 L98.498316,5.3745641 L103.197083,5.3745641 L103.197083,4.28474359 L103.197083,4.28425641 C103.197083,3.9685641 102.941096,3.71182051 102.625249,3.71182051" id="Fill-8" fill="#3E3A39" mask="url(#mask-2)"></path>
                <path d="M102.625249,12.0613462 L98.498316,12.0613462 L98.498316,13.7440641 L103.197083,13.7440641 L103.197083,12.6342692 C103.197083,12.3180897 102.941096,12.0613462 102.625249,12.0613462" id="Fill-9" fill="#3E3A39" mask="url(#mask-2)"></path>
                <path d="M102.778403,21.3400205 L98.4986567,21.3400205 L98.4986567,23.0222513 L103.196937,23.0222513 L103.196937,21.8890718 C103.196937,21.6264821 103.01979,21.4077385 102.778403,21.3400205" id="Fill-10" fill="#3E3A39" mask="url(#mask-2)"></path>
                <path d="M127.583317,3.71182051 C127.56239,3.71182051 127.551197,3.70451282 127.547303,3.69282051 L123.455897,3.69282051 L123.455897,5.3745641 L128.15515,5.3745641 L128.15515,4.28474359 L128.15515,4.28425641 C128.15515,3.9685641 127.899163,3.71182051 127.583317,3.71182051" id="Fill-11" fill="#3E3A39" mask="url(#mask-2)"></path>
                <path d="M141.308777,8.89477692 L132.91329,8.89477692 C132.97461,8.60441795 133.010623,8.30480256 133.010623,7.99641795 L131.330163,7.99641795 C131.330163,9.07844359 130.67511,10.0094436 129.74217,10.4157513 L129.74217,12.1876231 C130.719397,11.9425718 131.563277,11.3618538 132.14971,10.5774949 L134.966537,10.5774949 L134.95145,14.0350077 L129.928563,14.0350077 L129.928563,15.7172385 L134.94415,15.7172385 L134.92225,20.7639308 L132.372603,20.7639308 C132.10591,20.7639308 131.88983,20.5471359 131.88983,20.2801615 L131.88983,17.1812128 L130.20937,17.1812128 L130.20937,20.2801615 C130.20937,21.4742385 131.18027,22.4461615 132.372603,22.4461615 L138.75037,22.4461615 C139.94319,22.4461615 140.91409,21.4742385 140.91409,20.2796744 L140.91409,17.1812128 L139.23363,17.1812128 L139.23363,20.2801615 C139.23363,20.5471359 139.016577,20.7639308 138.75037,20.7639308 L136.60271,20.7639308 L136.62461,15.7172385 L141.69227,15.7172385 L141.69227,14.6079308 C141.69227,14.2912641 141.435797,14.0350077 141.120437,14.0350077 L136.63191,14.0350077 L136.646997,10.5774949 L141.69227,10.5774949 L141.69227,9.43311026 L141.69227,9.43262308 C141.69227,9.18367436 141.53167,8.9737 141.308777,8.89477692" id="Fill-12" fill="#3E3A39" mask="url(#mask-2)"></path>
                <path d="M127.583317,12.0613462 L123.455897,12.0613462 L123.455897,13.7440641 L128.15515,13.7440641 L128.15515,12.6342692 C128.15515,12.3180897 127.899163,12.0613462 127.583317,12.0613462" id="Fill-13" fill="#3E3A39" mask="url(#mask-2)"></path>
                <path d="M127.736033,21.3400205 L123.455799,21.3400205 L123.455799,23.0222513 L128.155053,23.0222513 L128.155053,21.8890718 C128.155053,21.6264821 127.976933,21.4077385 127.736033,21.3400205" id="Fill-14" fill="#3E3A39" mask="url(#mask-2)"></path>
                <path d="M95.8725547,21.8774282 C95.842868,21.8774282 95.829728,21.8618385 95.8234013,21.8399154 L78.9866813,21.8399154 L78.9866813,16.776659 L81.507128,16.776659 L81.507128,15.6663769 C81.507128,15.3506846 81.251628,15.093941 80.9352947,15.093941 L78.9866813,15.093941 L78.9866813,11.4181718 L81.507128,11.4181718 L81.507128,10.3137359 L81.507128,10.3127615 C81.507128,9.99706923 81.251628,9.74081282 80.9352947,9.74081282 C80.9250747,9.74081282 80.9168013,9.7388641 80.9090147,9.73642821 L78.9866813,9.73642821 L78.9866813,6.30960769 L81.507128,6.30960769 L81.507128,5.21345385 C81.5066413,5.20906923 81.505668,5.20517179 81.505668,5.19932564 C81.505668,4.88314615 81.2496813,4.62688974 80.933348,4.62688974 L78.9866813,4.62688974 L78.9866813,3.06304359 L77.3062213,3.06304359 L77.3062213,4.62688974 L73.864028,4.62688974 L73.864028,6.30960769 L77.3062213,6.30960769 L77.3062213,9.73642821 L73.864028,9.73642821 L73.864028,11.4181718 L77.3062213,11.4181718 L77.3062213,21.7351718 C76.730008,21.5154538 76.3173147,20.9620179 76.3119613,20.3096846 C76.3119613,20.3053 76.312448,20.3009154 76.312448,20.2965308 L76.3105013,20.2965308 L76.3105013,13.7483513 L74.6300413,13.7483513 L74.6300413,20.2965308 C74.6300413,20.3014026 74.630528,20.3057872 74.630528,20.310659 C74.6227413,21.0087872 74.0543147,21.5748897 73.3549747,21.5748897 L73.3549747,23.2571205 C74.1594347,23.2571205 74.8894347,22.932659 75.4228213,22.408941 C76.0141213,23.0890436 76.8828213,23.521659 77.8517747,23.5221462 L77.8517747,23.5221462 L96.4448747,23.5221462 L96.4448747,22.4498641 C96.4448747,22.1336846 96.1884013,21.8774282 95.8725547,21.8774282" id="Fill-15" fill="#3E3A39" mask="url(#mask-2)"></path>
                <path d="M42.605282,21.3245282 C42.605282,33.1020923 33.0675887,42.6493487 21.3029087,42.6493487 C9.537742,42.6493487 4.86666686e-05,33.1020923 4.86666686e-05,21.3245282 C4.86666686e-05,9.54647692 9.537742,0.000194871798 21.3029087,0.000194871798 C33.0675887,0.000194871798 42.605282,9.54647692 42.605282,21.3245282" id="Fill-16" fill="#E73836" mask="url(#mask-2)"></path>
                <path d="M52.271942,27.1224026 L52.271942,28.2049154 C51.8665487,28.0309923 51.5190687,27.9442744 51.2299887,27.9442744 C51.0143953,27.9442744 50.835302,27.9871462 50.6931953,28.0743513 C50.5515753,28.1615564 50.461542,28.2614282 50.425042,28.3744538 C50.3880553,28.4879667 50.3700487,28.7895308 50.3700487,29.2791462 L50.3685887,30.4405821 L52.1614687,30.4405821 L52.1614687,31.3969154 L50.368102,31.3969154 L50.3617753,39.0368641 L49.257042,39.0368641 L49.257042,31.3969154 L48.1279753,31.3969154 L48.1279753,30.4405821 L49.257042,30.4405821 L49.257042,29.0974282 C49.257042,28.4811462 49.3134953,28.0417103 49.426402,27.7781462 C49.5397953,27.5150692 49.731542,27.302659 50.0026153,27.1418897 C50.2736887,26.9816077 50.6012153,26.9012231 50.9851953,26.9012231 C51.343382,26.9012231 51.7721353,26.9747872 52.271942,27.1224026" id="Fill-17" fill="#E73836" mask="url(#mask-2)"></path>
                <path d="M61.0405073,33.8698872 C60.8930473,33.2799128 60.6784273,32.8078359 60.3966473,32.4551179 C60.1148673,32.1028872 59.7420807,31.8183744 59.2782873,31.6025538 C58.8149807,31.3862462 58.3278273,31.2780923 57.8163407,31.2780923 C56.973434,31.2780923 56.2487873,31.5489641 55.643374,32.0916821 C55.200994,32.4872718 54.8661673,33.0791949 54.6398673,33.8698872 L61.0405073,33.8698872 Z M61.0405073,36.1849641 L61.9719873,36.6750667 C61.6663607,37.2752718 61.3135273,37.7595282 60.9134873,38.1278359 C60.5129607,38.4971179 60.062794,38.7777333 59.5625007,38.9701692 C59.0617207,39.1621179 58.4957273,39.2580923 57.864034,39.2580923 C56.4634073,39.2580923 55.3679207,38.7986821 54.5780607,37.8793744 C53.787714,36.9605538 53.3925407,35.9214 53.3925407,34.7624 C53.3925407,33.6720923 53.7273673,32.7006564 54.3960473,31.8471179 C55.2438207,30.7621692 56.3787273,30.2199385 57.8007673,30.2199385 C59.2651473,30.2199385 60.4341207,30.7753231 61.308174,31.8870667 C61.9296473,32.6719128 62.2459807,33.6511436 62.2562007,34.8252462 L54.529394,34.8252462 C54.5503207,35.8244513 54.8690873,36.6424256 55.4852073,37.2811179 C56.101814,37.9198103 56.8629607,38.2394 57.769134,38.2394 C58.2066473,38.2394 58.631994,38.1634 59.045174,38.0109128 C59.4588407,37.8589128 59.8107007,37.655759 60.1002673,37.4048615 C60.389834,37.1525026 60.703734,36.7461949 61.0405073,36.1849641 L61.0405073,36.1849641 Z" id="Fill-18" fill="#E73836" mask="url(#mask-2)"></path>
                <path d="M64.3159687,30.4405821 L65.4211887,30.4405821 L65.4211887,31.9810436 C65.863082,31.3910692 66.3526687,30.950659 66.8889753,30.6573769 C67.4257687,30.3655564 68.0097687,30.2198897 68.641462,30.2198897 C69.2828887,30.2198897 69.8527753,30.3826077 70.349662,30.7090179 C70.8470353,31.0364026 71.213982,31.4758385 71.4509887,32.0287872 C71.6879953,32.5817359 71.8062553,33.4425821 71.8062553,34.6123 L71.8062553,39.0368641 L70.7010353,39.0368641 L70.7010353,34.9367615 C70.7010353,33.9458385 70.6601553,33.2847359 70.5779087,32.9534538 C70.450402,32.3844282 70.2046353,31.9561974 69.841582,31.6687615 C69.478042,31.3827872 69.005002,31.2390692 68.421002,31.2390692 C67.752322,31.2390692 67.1532353,31.4597615 66.6247153,31.9021205 C66.0957087,32.3444795 65.7472553,32.8925564 65.5788687,33.5453769 C65.473262,33.9726333 65.4211887,34.7521205 65.4211887,35.8843256 L65.4211887,39.0368641 L64.3159687,39.0368641 L64.3159687,30.4405821 Z" id="Fill-19" fill="#E73836" mask="url(#mask-2)"></path>
                <path d="M78.3176607,31.2864718 C77.6913207,31.2864718 77.1102407,31.4379846 76.5729607,31.7405231 C76.036654,32.0430615 75.6152007,32.4615487 75.3100607,32.9964718 C75.0049207,33.5309077 74.852594,34.1096769 74.852594,34.7308308 C74.852594,35.6740103 75.167954,36.4530103 75.7996473,37.0697795 C76.4313407,37.6855744 77.2494273,37.993959 78.254394,37.993959 C79.2695807,37.993959 80.086694,37.6884974 80.7047607,37.0775744 C81.323314,36.4666513 81.632834,35.6632923 81.632834,34.6670103 C81.632834,34.0200359 81.4907273,33.4417538 81.206514,32.9336256 C80.9223007,32.4254974 80.5193407,32.0240615 79.9986073,31.7288308 C79.477874,31.4340872 78.917234,31.2864718 78.3176607,31.2864718 L78.3176607,31.2864718 Z M81.5768673,30.4407282 L82.6820873,30.4407282 L82.6820873,37.2904718 C82.6820873,38.4972154 82.5769673,39.3790103 82.3662407,39.9378051 C82.0771607,40.7275231 81.574434,41.3364974 80.859034,41.7627795 C80.1431473,42.1890615 79.2827207,42.4029333 78.2782407,42.4029333 C77.5409407,42.4029333 76.8795607,42.2986769 76.2931273,42.0901641 C75.7062073,41.8806769 75.2287873,41.6010359 74.8603807,41.2497795 C74.4924607,40.8980359 74.1527673,40.3850359 73.842274,39.7083436 L75.042394,39.7083436 C75.3684607,40.2773692 75.7904007,40.6987795 76.3062673,40.9730615 C76.8226207,41.2458821 77.4625873,41.3832667 78.226654,41.3832667 C78.9795273,41.3832667 79.6160873,41.242959 80.134874,40.9623436 C80.6541473,40.6807538 81.024014,40.3280359 81.2454473,39.9032154 C81.466394,39.4779077 81.5768673,38.7909846 81.5768673,37.8434205 L81.5768673,37.4010615 C81.161254,37.9281897 80.6526873,38.3325487 80.0521407,38.6141385 C79.451594,38.8957282 78.8145473,39.0365231 78.140514,39.0365231 C77.3501673,39.0365231 76.607514,38.8406769 75.912554,38.4484974 C75.2171073,38.0558308 74.6798273,37.5277282 74.300714,36.8641897 C73.9216007,36.2001641 73.7318007,35.4713436 73.7318007,34.6757795 C73.7318007,33.8802154 73.9289007,33.1392154 74.3245607,32.4513179 C74.7192473,31.7639077 75.265774,31.2197282 75.963654,30.820241 C76.661534,30.4197795 77.397374,30.2200359 78.1716607,30.2200359 C78.8145473,30.2200359 79.413634,30.3520615 79.9694073,30.6185487 C80.5251807,30.8840615 81.0610007,31.3225231 81.5768673,31.9334462 L81.5768673,30.4407282 Z" id="Fill-20" fill="#E73836" mask="url(#mask-2)"></path>
                <path d="M89.181618,31.2864718 C88.5664713,31.2864718 87.999018,31.4379846 87.4787713,31.7395487 C86.9585247,32.0420872 86.5443713,32.4673949 86.236798,33.0144974 C85.9297113,33.5616 85.7759247,34.1398821 85.7759247,34.7508051 C85.7759247,35.3563692 85.9306847,35.9346513 86.241178,36.4866256 C86.5511847,37.0395744 86.9677713,37.4692667 87.4904513,37.7766769 C88.013618,38.0850615 88.5747447,38.2390103 89.1738313,38.2390103 C89.7782713,38.2390103 90.351078,38.0860359 90.892738,37.7815487 C91.4339113,37.4760872 91.8500113,37.062959 92.1420113,36.5416769 C92.4340113,36.0213692 92.5795247,35.4352923 92.5795247,34.7824718 C92.5795247,33.7881385 92.2524847,32.9565231 91.597918,32.2886 C90.943838,31.6206769 90.1384047,31.2864718 89.181618,31.2864718 L89.181618,31.2864718 Z M93.5976313,30.4407282 L93.5976313,42.1812667 L92.5084713,42.1812667 L92.5084713,37.5589077 C92.0456513,38.1230615 91.5258913,38.5464205 90.949678,38.8309333 C90.3734647,39.1154462 89.7432313,39.2581897 89.0594647,39.2581897 C87.8437713,39.2581897 86.8057113,38.8168051 85.9457713,37.9345231 C85.0853447,37.0527282 84.6551313,35.9794718 84.6551313,34.7147538 C84.6551313,33.4768308 85.089238,32.4186769 85.9574513,31.5388308 C86.8256647,30.6594718 87.870538,30.2200359 89.091098,30.2200359 C89.796278,30.2200359 90.4338113,30.3691128 91.005158,30.6697026 C91.576018,30.9698051 92.076798,31.4204462 92.5084713,32.0211385 L92.5084713,30.4407282 L93.5976313,30.4407282 Z" id="Fill-21" fill="#E73836" mask="url(#mask-2)"></path>
                <path d="M95.934118,30.4405821 L97.039338,30.4405821 L97.039338,34.4539667 C97.039338,35.4341718 97.091898,36.1089154 97.197018,36.4772231 C97.3551847,37.0043513 97.656918,37.4199154 98.102218,37.7253769 C98.5470313,38.0308385 99.0784713,38.1833256 99.695078,38.1833256 C100.311198,38.1833256 100.834365,38.0347359 101.263605,37.7370692 C101.693331,37.4398897 101.989711,37.0486846 102.153231,36.5634538 C102.263705,36.232659 102.319185,35.5291718 102.319185,34.4539667 L102.319185,30.4405821 L103.447765,30.4405821 L103.447765,34.6595564 C103.447765,35.8453513 103.309551,36.7378641 103.033611,37.3380692 C102.757185,37.9387615 102.341571,38.4084026 101.786285,38.7484538 C101.231485,39.0880179 100.535551,39.2585308 99.6984847,39.2585308 C98.8623913,39.2585308 98.163538,39.0880179 97.6033847,38.7484538 C97.0427447,38.4084026 96.624698,37.9348641 96.348758,37.3268641 C96.0718447,36.7178897 95.934118,35.8024795 95.934118,34.5806333 L95.934118,30.4405821 Z" id="Fill-22" fill="#E73836" mask="url(#mask-2)"></path>
                <path d="M107.117961,37.2982179 C107.386601,37.2982179 107.614848,37.3932179 107.804648,37.5827308 C107.994448,37.7732179 108.088861,38.004141 108.088861,38.2784231 C108.088861,38.546859 107.994448,38.7777821 107.804648,38.9702179 C107.614848,39.1621667 107.386601,39.258141 107.117961,39.258141 C106.849808,39.258141 106.621075,39.1621667 106.431275,38.9702179 C106.241961,38.7777821 106.147548,38.546859 106.147548,38.2784231 C106.147548,38.004141 106.241961,37.7732179 106.431275,37.5827308 C106.621075,37.3932179 106.849808,37.2982179 107.117961,37.2982179" id="Fill-23" fill="#E73836" mask="url(#mask-2)"></path>
                <path d="M118.712405,32.2265821 L117.835919,32.7717359 C117.079639,31.7652231 116.046445,31.2624538 114.737799,31.2624538 C113.692439,31.2624538 112.823252,31.5995821 112.132672,32.2723769 C111.441605,32.9461462 111.096072,33.7641205 111.096072,34.7272744 C111.096072,35.3533 111.254725,35.9423 111.572519,36.4952487 C111.890312,37.0472231 112.326852,37.475941 112.881652,37.7814026 C113.435965,38.0858897 114.057439,38.2393513 114.746072,38.2393513 C116.007025,38.2393513 117.037299,37.7360949 117.835919,36.7300692 L118.712405,37.3068897 C118.301659,37.9251205 117.750265,38.4049923 117.058712,38.7465051 C116.367159,39.0870436 115.579245,39.2585308 114.694972,39.2585308 C113.337172,39.2585308 112.211512,38.8264026 111.317019,37.9621462 C110.422525,37.0983769 109.975279,36.0480179 109.975279,34.8100949 C109.975279,33.9775051 110.184545,33.2048385 110.602592,32.4911205 C111.020639,31.7774026 111.595879,31.2200692 112.327339,30.8200949 C113.058312,30.4196333 113.876885,30.2198897 114.781599,30.2198897 C115.350025,30.2198897 115.898499,30.3066077 116.427505,30.4805308 C116.956512,30.6534795 117.404245,30.8800179 117.772652,31.1601462 C118.141059,31.4388128 118.454472,31.7944538 118.712405,32.2265821" id="Fill-24" fill="#E73836" mask="url(#mask-2)"></path>
                <path d="M124.895992,31.3017205 C123.977165,31.3017205 123.187792,31.6412846 122.527872,32.3209 C121.867465,33.0000282 121.537992,33.8223872 121.537992,34.7860282 C121.537992,35.4076692 121.687885,35.9869256 121.989132,36.5247718 C122.290379,37.0611564 122.696745,37.4762333 123.208719,37.7690282 C123.721179,38.0613359 124.283279,38.2070026 124.895992,38.2070026 C125.508705,38.2070026 126.070805,38.0613359 126.583265,37.7690282 C127.095239,37.4762333 127.502092,37.0611564 127.802852,36.5247718 C128.103612,35.9869256 128.253992,35.4076692 128.253992,34.7860282 C128.253992,33.8223872 127.923059,33.0000282 127.260219,32.3209 C126.597379,31.6412846 125.809465,31.3017205 124.895992,31.3017205 M124.899885,30.2196949 C126.223132,30.2196949 127.319592,30.6985923 128.189265,31.6573615 C128.980099,32.5318487 129.374785,33.5671051 129.374785,34.7626436 C129.374785,35.9630538 128.957225,37.0129256 128.122105,37.9107974 C127.286499,38.8091564 126.212425,39.2583359 124.899885,39.2583359 C123.581992,39.2583359 122.505485,38.8091564 121.669879,37.9107974 C120.834272,37.0129256 120.417199,35.9630538 120.417199,34.7626436 C120.417199,33.5719769 120.811885,32.5396436 121.602719,31.6651564 C122.472879,30.7015154 123.571285,30.2196949 124.899885,30.2196949" id="Fill-25" fill="#E73836" mask="url(#mask-2)"></path>
                <path d="M131.411339,30.4405821 L132.516559,30.4405821 L132.516559,31.9259923 C132.901026,31.3779154 133.295713,30.9784282 133.701593,30.7250949 C134.260286,30.3884538 134.847693,30.2198897 135.463813,30.2198897 C135.879913,30.2198897 136.274599,30.3007615 136.648846,30.4644538 C137.022606,30.6281462 137.328233,30.844941 137.565726,31.1163 C137.802733,31.3871718 138.008106,31.7754538 138.181846,32.2816333 C138.549279,31.6073769 139.008206,31.0953513 139.559599,30.7450692 C140.110993,30.3947872 140.704239,30.2198897 141.339339,30.2198897 C141.932586,30.2198897 142.455753,30.3694538 142.910299,30.6700436 C143.364359,30.969659 143.701619,31.3881462 143.922079,31.9259923 C144.142539,32.4633513 144.253013,33.2696333 144.253013,34.3438641 L144.253013,39.0368641 L143.123946,39.0368641 L143.123946,34.3438641 C143.123946,33.4216333 143.058733,32.7887872 142.927333,32.4433769 C142.796419,32.098941 142.572066,31.8202744 142.254759,31.6098128 C141.937453,31.3998385 141.558826,31.2941205 141.117906,31.2941205 C140.583059,31.2941205 140.094446,31.4519667 139.651093,31.7681462 C139.207739,32.0838385 138.884106,32.5052487 138.679706,33.0323769 C138.475306,33.5585308 138.372619,34.4388641 138.372619,35.670941 L138.372619,39.0368641 L137.267399,39.0368641 L137.267399,34.6356846 C137.267399,33.5984795 137.203159,32.8935308 137.074679,32.5223 C136.945226,32.1515564 136.720386,31.8534026 136.399673,31.6297872 C136.078473,31.4061718 135.697413,31.2941205 135.255519,31.2941205 C134.745006,31.2941205 134.267099,31.4480692 133.822773,31.7564538 C133.377959,32.0638641 133.048973,32.478941 132.836299,33.0002231 C132.622653,33.5215051 132.516559,34.3199923 132.516559,35.3942231 L132.516559,39.0368641 L131.411339,39.0368641 L131.411339,30.4405821 Z" id="Fill-26" fill="#E73836" mask="url(#mask-2)"></path>
                <path d="M4.17073333,50.7526051 L5.44434,50.7526051 L5.65263333,49.7027333 L3.88749333,49.7027333 L3.88749333,49.1361436 L8.30788667,49.1361436 L8.30788667,49.7027333 L6.31839333,49.7027333 L6.07700667,50.7526051 L7.94191333,50.7526051 L7.94191333,54.9603744 L7.34234,54.9603744 L7.34234,51.3191949 L4.77030667,51.3191949 L4.77030667,54.9603744 L4.17073333,54.9603744 L4.17073333,50.7526051 Z M5.78549333,51.8360923 L6.38506667,51.8360923 C6.38506667,53.1524513 6.34662,53.9743231 6.26875333,54.3026821 C6.24052667,54.4692974 6.20208,54.6271436 6.15195333,54.7771949 C6.97344667,55.2999385 7.71999333,55.8134256 8.39159333,56.3196051 L7.95846,56.8608615 C7.33114667,56.3439641 6.64835333,55.8299897 5.91056667,55.3194256 C5.53291333,56.0029385 4.89197333,56.5437077 3.98774667,56.9441692 C3.8763,56.7834 3.74052,56.6055795 3.57943333,56.4107077 C4.81167333,55.8889385 5.50809333,55.1469641 5.66918,54.1862462 C5.74704667,53.8802974 5.78549333,53.0969128 5.78549333,51.8360923 L5.78549333,51.8360923 Z M2.9054,56.5105795 L3.48794,56.5105795 L3.48794,48.8691692 L2.9054,48.8691692 L2.9054,56.5105795 Z M1.75638,56.1271692 L2.33892,56.1271692 L2.33892,49.1527077 L1.75638,49.1527077 L1.75638,56.1271692 Z M0.624393333,48.9022974 L1.20693333,48.9022974 L1.20693333,52.0860154 C1.20693333,54.3411692 0.965546667,55.9274256 0.482773333,56.8438103 C0.321686667,56.683041 0.161086667,56.5300667 0,56.3863487 C0.4161,55.5859128 0.624393333,54.2802718 0.624393333,52.4694256 L0.624393333,48.9022974 Z" id="Fill-27" fill="#3E3A39" mask="url(#mask-2)"></path>
                <path d="M19.7562333,53.9526923 L23.46074,53.9526923 L23.46074,52.5691026 L20.5387933,52.5691026 L20.5387933,51.9528205 L23.46074,51.9528205 L23.46074,50.5857949 L20.0058933,50.5857949 L20.0058933,49.9690256 L23.46074,49.9690256 L23.46074,48.6268462 L24.16008,48.6268462 L24.16008,49.9690256 L27.6149267,49.9690256 L27.6149267,50.5857949 L24.16008,50.5857949 L24.16008,51.9528205 L27.0737533,51.9528205 L27.0737533,52.5691026 L24.16008,52.5691026 L24.16008,53.9526923 L27.8645867,53.9526923 L27.8645867,54.5694615 L24.16008,54.5694615 L24.16008,56.8606667 L23.46074,56.8606667 L23.46074,54.5694615 L19.7562333,54.5694615 L19.7562333,53.9526923 Z" id="Fill-28" fill="#3E3A39" mask="url(#mask-2)"></path>
                <path d="M45.3653147,55.5939026 L45.7483213,55.1603128 C46.3308613,55.5388513 46.9026947,55.9359026 47.4633347,56.3529282 L47.046748,56.8527744 C46.464208,56.3743641 45.903568,55.9558769 45.3653147,55.5939026 L45.3653147,55.5939026 Z M43.891688,54.5859282 L45.9478547,54.5859282 L45.9478547,53.9194667 L43.891688,53.9194667 L43.891688,54.5859282 Z M43.891688,53.4191333 L45.9478547,53.4191333 L45.9478547,52.7604667 L43.891688,52.7604667 L43.891688,53.4191333 Z M43.891688,52.2435692 L45.9478547,52.2435692 L45.9478547,51.5858769 L43.891688,51.5858769 L43.891688,52.2435692 Z M42.4268213,50.3859538 C42.8151813,49.9075436 43.139788,49.3053897 43.4006413,48.5770564 L44.0002147,48.7358769 C43.894608,48.9799538 43.7890013,49.2103897 43.6838813,49.4271846 L47.471608,49.4271846 L47.471608,49.9937744 L43.387988,49.9937744 C43.2050013,50.3221333 43.0205547,50.6076205 42.834648,50.8526718 C42.695948,50.6743641 42.5596813,50.519441 42.4268213,50.3859538 L42.4268213,50.3859538 Z M42.409788,54.5859282 L43.2926013,54.5859282 L43.2926013,51.5858769 L42.4764613,51.5858769 L42.4764613,51.0358513 L43.2926013,51.0358513 L43.2926013,50.3771846 L43.891688,50.3771846 L43.891688,51.0358513 L45.9478547,51.0358513 L45.9478547,50.3693897 L46.547428,50.3693897 L46.547428,51.0358513 L47.3465347,51.0358513 L47.3465347,51.5858769 L46.547428,51.5858769 L46.547428,54.5859282 L47.5047013,54.5859282 L47.5047013,55.1359538 L42.409788,55.1359538 L42.409788,54.5859282 Z M44.0664013,55.1773641 L44.4912613,55.6192359 C43.8250147,56.1361333 43.2176547,56.5497487 42.668208,56.8605692 C42.5567613,56.6832359 42.4239013,56.5107744 42.2686547,56.344159 C42.8511947,56.0664667 43.450768,55.6772103 44.0664013,55.1773641 L44.0664013,55.1773641 Z M39.3632547,49.9772103 L40.8159547,49.9772103 C40.6407547,49.5601846 40.462148,49.1801846 40.2786747,48.8357487 L40.7867547,48.5858256 C40.986288,48.9190564 41.1916613,49.3024667 41.4028747,49.7360564 L40.882628,49.9772103 L42.276928,49.9772103 L42.276928,50.5438 L40.7405213,50.5438 C40.735168,50.9739795 40.7283547,51.3802872 40.7200813,51.7602872 L42.193708,51.7602872 C42.160128,53.1940564 42.1187613,54.4388 42.0686347,55.4940308 C42.030188,56.2165179 41.7493813,56.580441 41.2276747,56.5862872 C40.961468,56.591159 40.684068,56.5892103 40.3954747,56.5770308 C40.3618947,56.3938513 40.320528,56.1829026 40.2704013,55.9436974 C40.5813813,55.9773128 40.8115747,55.9938769 40.961468,55.9938769 C41.2889947,55.9938769 41.460788,55.8029026 41.4778213,55.4194923 C41.5274613,54.6244154 41.5663947,53.5911077 41.5941347,52.3190821 L40.7035347,52.3190821 C40.7035347,54.4743641 40.3536213,55.9500308 39.6542813,56.7441333 C39.5433213,56.5940821 39.4046213,56.4274667 39.2381813,56.2438 C39.765728,55.5890308 40.0509147,54.4831333 40.095688,52.9270821 C40.1093147,52.4969026 40.1273213,51.7028 40.1501947,50.5438 L39.3632547,50.5438 L39.3632547,49.9772103 Z" id="Fill-29" fill="#3E3A39" mask="url(#mask-2)"></path>
                <path d="M58.9778193,49.3192256 L67.069626,49.3192256 L67.069626,50.0027385 L63.0234793,50.0027385 L63.0234793,51.8194308 L63.406486,51.2859692 C64.6771727,52.0362256 65.7429727,52.7104821 66.6033993,53.3106872 L66.1123527,53.9859179 C65.251926,53.3243282 64.222626,52.6271744 63.0234793,51.8939692 L63.0234793,56.7862256 L62.266226,56.7862256 L62.266226,50.0027385 L58.9778193,50.0027385 L58.9778193,49.3192256 Z" id="Fill-30" fill="#3E3A39" mask="url(#mask-2)"></path>
                <path d="M82.6511353,51.535941 L85.4027487,51.535941 C85.019742,51.1603256 84.6965953,50.710659 84.432822,50.1859667 L83.6629153,50.1859667 C83.3850287,50.6799667 83.0482553,51.1301205 82.6511353,51.535941 L82.6511353,51.535941 Z M81.6899687,52.7938385 L86.4850953,52.7938385 L86.4850953,53.3438641 L83.1840353,53.3438641 L82.8886287,54.0858385 L85.8689753,54.0858385 C85.8353953,54.6193 85.7969487,55.1103769 85.7521753,55.5605308 C85.6806353,56.2937359 85.2776753,56.6605821 84.545242,56.6605821 C84.0902087,56.6605821 83.574342,56.6557103 82.9966687,56.6440179 C82.9689287,56.4389154 82.930482,56.2162744 82.8803553,55.9770692 C83.4628953,56.0223769 83.9738953,56.0438128 84.4118953,56.0438128 C84.8450287,56.0438128 85.0834953,55.8557615 85.127782,55.4772231 C85.161362,55.2000179 85.186182,54.9135564 85.2027287,54.6193 L82.2642353,54.6193 L82.2642353,54.0770692 L82.5513687,53.3438641 L81.6899687,53.3438641 L81.6899687,52.7938385 Z M81.2154687,51.9437103 C81.9396287,51.4691974 82.5207087,50.8831205 82.959682,50.1859667 L81.6899687,50.1859667 L81.6899687,49.635941 L83.263362,49.635941 C83.4244487,49.3056333 83.5577953,48.9524282 83.6629153,48.5773 L84.2873087,48.7268641 C84.190462,49.0435308 84.0760953,49.3465564 83.9456687,49.635941 L86.5931353,49.635941 L86.5931353,50.1859667 L85.0362887,50.1859667 C85.5244153,50.9664282 86.1298287,51.4740692 86.8510687,51.7103513 C86.7011753,51.9222744 86.5683153,52.1190949 86.4515153,52.3027615 C86.0801887,52.1054538 85.743902,51.8633256 85.444602,51.5773513 L85.444602,52.0694026 L82.5138953,52.0694026 L82.5138953,51.6733256 C82.2423353,51.9368897 81.944982,52.1799923 81.6232953,52.4026333 C81.5123353,52.2574538 81.3765553,52.1054538 81.2154687,51.9437103 L81.2154687,51.9437103 Z M79.492182,51.1690949 L80.8490087,51.1690949 L80.8490087,49.5857615 L79.492182,49.5857615 L79.492182,51.1690949 Z M78.4346553,55.7860949 C78.5733553,55.7578385 78.7149753,55.7310436 78.8595153,55.7066846 L78.8595153,52.485941 L79.3924153,52.485941 L79.3924153,55.6029154 C79.6255287,55.5527359 79.8639953,55.5006077 80.108302,55.4489667 L80.108302,51.6528641 L79.492182,51.6528641 L79.492182,51.9437103 L78.959282,51.9437103 L78.959282,49.1024795 L81.3819087,49.1024795 L81.3819087,51.6528641 L80.6407153,51.6528641 L80.6407153,53.1358385 L81.473402,53.1358385 L81.473402,53.6361718 L80.6407153,53.6361718 L80.6407153,55.3271718 C80.9599687,55.2555564 81.285062,55.1771205 81.615022,55.0938128 C81.6262153,55.3164538 81.642762,55.5196077 81.664662,55.7027872 C80.8991353,55.8635564 79.8888153,56.1164026 78.6346753,56.4608385 L78.4346553,55.7860949 Z" id="Fill-31" fill="#3E3A39" mask="url(#mask-2)"></path>
                <path d="M101.66272,54.2605897 L105.06744,54.2605897 L105.06744,53.6438205 L101.66272,53.6438205 L101.66272,54.2605897 Z M101.66272,53.1771026 L105.06744,53.1771026 L105.06744,52.5768974 L101.66272,52.5768974 L101.66272,53.1771026 Z M100.9882,49.4526154 L103.185987,49.4526154 C103.08622,49.2523846 102.974773,49.0497179 102.853107,48.843641 L103.435647,48.6024872 C103.605007,48.8996667 103.74906,49.1832051 103.86878,49.4526154 L105.949767,49.4526154 L105.949767,49.9524615 L100.9882,49.9524615 L100.9882,49.4526154 Z M100.788667,51.0271795 L102.287113,51.0271795 C102.1343,50.7860256 101.965427,50.5438974 101.779033,50.3027436 L102.27008,49.9938718 C102.49784,50.2720513 102.708567,50.5468205 102.902747,50.8191538 L102.590307,51.0271795 L103.847853,51.0271795 C104.072207,50.6827436 104.28196,50.3358718 104.47614,49.9860769 L105.075713,50.3193077 C104.887373,50.5604615 104.69952,50.7967436 104.5141,51.0271795 L106.233007,51.0271795 L106.233007,51.5270256 L100.788667,51.5270256 L100.788667,51.0271795 Z M101.087967,52.0936154 L105.641707,52.0936154 L105.641707,54.9358205 L105.06744,54.9358205 L105.06744,54.7438718 L104.28488,54.7438718 L104.28488,55.6436923 C104.28488,55.949641 104.42942,56.1026154 104.717527,56.1026154 L105.242153,56.1026154 C105.5142,56.1026154 105.669933,55.9637692 105.70838,55.6860769 C105.741473,55.4692821 105.76386,55.2135128 105.775053,54.9192564 C105.986267,55.0137692 106.191153,55.0965897 106.391173,55.1691795 C106.35224,55.5136154 106.310873,55.7742564 106.2661,55.9525641 C106.171687,56.4241538 105.858273,56.6604359 105.325373,56.6604359 L104.567633,56.6604359 C103.985093,56.6604359 103.69358,56.3832308 103.69358,55.827359 L103.69358,54.7438718 L102.915887,54.7438718 C102.843373,55.3528462 102.606367,55.8054359 102.203893,56.1026154 C101.865173,56.3744615 101.27144,56.6331538 100.422207,56.8772308 C100.305407,56.6891795 100.1779,56.4967436 100.0392,56.3028462 C100.90498,56.1191795 101.4992,55.8970256 101.820887,55.6358974 C102.087093,55.4273846 102.24818,55.1302051 102.30366,54.7438718 L101.66272,54.7438718 L101.66272,54.9358205 L101.087967,54.9358205 L101.087967,52.0936154 Z M98.11638,54.8193846 C98.41276,54.7497179 98.75732,54.6644615 99.1486,54.5645897 L99.1486,51.3769744 L98.1996,51.3769744 L98.1996,50.7860256 L99.1486,50.7860256 L99.1486,48.702359 L99.75596,48.702359 L99.75596,50.7860256 L100.613467,50.7860256 L100.613467,51.3769744 L99.75596,51.3769744 L99.75596,54.4028462 C100.06694,54.3195385 100.40274,54.2269744 100.76336,54.1271026 C100.768713,54.3663077 100.776987,54.5743333 100.788667,54.752641 C99.93408,54.986 99.0848467,55.2388462 98.2409667,55.5106923 L98.11638,54.8193846 Z" id="Fill-32" fill="#3E3A39" mask="url(#mask-2)"></path>
                <path d="M121.88518,53.7860769 L124.274227,53.7860769 L124.274227,52.3605897 L121.88518,52.3605897 L121.88518,53.7860769 Z M121.88518,51.7691538 L124.274227,51.7691538 L124.274227,50.3524359 L121.88518,50.3524359 L121.88518,51.7691538 Z M118.81334,53.7860769 L121.194113,53.7860769 L121.194113,52.3605897 L118.81334,52.3605897 L118.81334,53.7860769 Z M118.81334,51.7691538 L121.194113,51.7691538 L121.194113,50.3524359 L118.81334,50.3524359 L118.81334,51.7691538 Z M118.122273,49.7268974 L121.194113,49.7268974 L121.194113,48.6604615 L121.88518,48.6604615 L121.88518,49.7268974 L124.965293,49.7268974 L124.965293,54.410641 L121.88518,54.410641 L121.88518,55.3859744 C121.88518,55.7245641 122.062813,55.8941026 122.417593,55.8941026 L124.36572,55.8941026 C124.743373,55.8941026 124.973567,55.7693846 125.056787,55.5194615 C125.14536,55.246641 125.2096,54.8559231 125.248047,54.3438974 C125.409133,54.4164872 125.639327,54.5027179 125.939113,54.6025897 C125.87244,55.0468974 125.797493,55.4273846 125.714273,55.7440513 C125.57606,56.2663077 125.198407,56.5274359 124.582287,56.5274359 L122.367953,56.5274359 C121.585393,56.5274359 121.194113,56.1440256 121.194113,55.3772051 L121.194113,54.410641 L118.81334,54.410641 L118.81334,54.986 L118.122273,54.986 L118.122273,49.7268974 Z" id="Fill-33" fill="#3E3A39" mask="url(#mask-2)"></path>
                <path d="M141.891463,52.4360051 L142.257923,51.9770821 C143.078929,52.4939795 143.700889,52.9075949 144.122343,53.2193897 L143.706243,53.7440821 C143.156796,53.2997744 142.551869,52.8632615 141.891463,52.4360051 L141.891463,52.4360051 Z M140.384743,55.0360821 L142.524129,55.0360821 L142.524129,53.8605179 L140.384743,53.8605179 L140.384743,55.0360821 Z M139.785169,56.010441 L139.785169,53.3270564 L143.123703,53.3270564 L143.123703,55.5695436 L140.384743,55.5695436 L140.384743,56.010441 L139.785169,56.010441 Z M140.426109,51.9770821 L140.875789,52.4106718 C140.226576,52.9665436 139.618729,53.4556718 139.052736,53.8770821 C138.886296,53.6495692 138.755869,53.4858769 138.661456,53.3860051 C139.272223,52.9801846 139.860116,52.5105436 140.426109,51.9770821 L140.426109,51.9770821 Z M137.986936,51.3106205 L140.010009,51.3106205 C139.818749,51.0300051 139.610456,50.7528 139.385616,50.4770564 L139.893696,50.1360308 C140.159903,50.4468513 140.401289,50.7357487 140.617856,51.0027231 L140.168176,51.3106205 L142.057903,51.3106205 C142.338223,50.9496205 142.596156,50.5691333 142.832189,50.169159 L143.464856,50.5360051 C143.201569,50.8497487 142.979163,51.1074667 142.799096,51.3106205 L144.871809,51.3106205 L144.871809,55.6772103 C144.871809,56.3772872 144.552556,56.7300051 143.914536,56.7363385 C143.569976,56.7412103 143.181616,56.7392615 142.748969,56.7270821 C142.704196,56.4055436 142.662829,56.1721846 142.623896,56.0274923 C143.062383,56.0723128 143.423003,56.0937487 143.706243,56.0937487 C144.067349,56.0937487 144.247416,55.8940051 144.247416,55.4940308 L144.247416,51.8859795 L138.611329,51.8859795 L138.611329,56.8362103 L137.986936,56.8362103 L137.986936,51.3106205 Z M137.379576,49.5270564 L141.179956,49.5270564 C141.074349,49.3297487 140.945383,49.1105179 140.792569,48.8693641 L141.433509,48.5770564 C141.599949,48.8635179 141.774663,49.1801846 141.958136,49.5270564 L145.545843,49.5270564 L145.545843,50.1194667 L137.379576,50.1194667 L137.379576,49.5270564 Z" id="Fill-34" fill="#3E3A39" mask="url(#mask-2)"></path>
                <path d="M27.6697253,37.2144231 C26.513892,37.2144231 25.573652,36.2731923 25.573652,35.116141 L25.573652,31.5324487 C25.573652,31.2060385 25.837912,30.9419872 26.1639787,30.9419872 C26.4895587,30.9419872 26.7538187,31.2060385 26.7538187,31.5324487 L26.7538187,35.116141 C26.7538187,35.6218333 27.1645653,36.0330128 27.6697253,36.0330128 C28.1748853,36.0330128 28.5861187,35.6218333 28.5861187,35.116141 C28.5861187,34.7897308 28.8503787,34.5251923 29.1759587,34.5251923 C29.5020253,34.5251923 29.7662853,34.7897308 29.7662853,35.116141 C29.7662853,36.2731923 28.8255587,37.2144231 27.6697253,37.2144231" id="Fill-35" fill="#FEFEFE" mask="url(#mask-2)"></path>
                <path d="M30.3314027,20.8361795 C30.0058227,20.8361795 29.7415627,20.571641 29.7415627,20.2457179 C29.7415627,19.6338205 29.244676,19.1364103 28.6339093,19.1364103 C28.022656,19.1364103 27.5257693,19.6338205 27.5257693,20.2457179 C27.5257693,20.571641 27.2615093,20.8361795 26.9359293,20.8361795 C26.6098627,20.8361795 26.3456027,20.571641 26.3456027,20.2457179 C26.3456027,18.9824615 27.3719827,17.955 28.6339093,17.955 C29.8953493,17.955 30.9212427,18.9824615 30.9212427,20.2457179 C30.9212427,20.571641 30.6574693,20.8361795 30.3314027,20.8361795" id="Fill-36" fill="#FEFEFE" mask="url(#mask-2)"></path>
                <path d="M15.699526,20.8361795 C15.3734593,20.8361795 15.109686,20.571641 15.109686,20.2457179 C15.109686,19.6338205 14.6123127,19.1364103 14.001546,19.1364103 C13.3907793,19.1364103 12.8938927,19.6338205 12.8938927,20.2457179 C12.8938927,20.571641 12.6296327,20.8361795 12.303566,20.8361795 C11.977986,20.8361795 11.713726,20.571641 11.713726,20.2457179 C11.713726,18.9824615 12.740106,17.955 14.001546,17.955 C15.2634727,17.955 16.289366,18.9824615 16.289366,20.2457179 C16.289366,20.571641 16.025106,20.8361795 15.699526,20.8361795" id="Fill-37" fill="#FEFEFE" mask="url(#mask-2)"></path>
                <path d="M19.681822,37.2208051 C19.3557553,37.2208051 19.091982,36.9562667 19.091982,36.6303436 L19.091982,32.4089333 C19.091982,32.0825231 19.3557553,31.8184718 19.681822,31.8184718 C20.007402,31.8184718 20.271662,32.0825231 20.271662,32.4089333 L20.271662,36.6303436 C20.271662,36.9562667 20.007402,37.2208051 19.681822,37.2208051" id="Fill-38" fill="#FEFEFE" mask="url(#mask-2)"></path>
                <path d="M22.9228273,37.2208051 C22.5972473,37.2208051 22.3329873,36.9562667 22.3329873,36.6303436 L22.3329873,32.4089333 C22.3329873,32.0825231 22.5972473,31.8184718 22.9228273,31.8184718 C23.248894,31.8184718 23.5126673,32.0825231 23.5126673,32.4089333 L23.5126673,36.6303436 C23.5126673,36.9562667 23.248894,37.2208051 22.9228273,37.2208051" id="Fill-39" fill="#FEFEFE" mask="url(#mask-2)"></path>
                <path d="M14.9865107,37.2144231 C13.8593907,37.2144231 12.942024,36.2960897 12.942024,35.1677821 C12.942024,34.841859 13.206284,34.5773205 13.5323507,34.5773205 C13.8579307,34.5773205 14.1221907,34.841859 14.1221907,35.1677821 C14.1221907,35.6447308 14.510064,36.0330128 14.9865107,36.0330128 C15.463444,36.0330128 15.8513173,35.6447308 15.8513173,35.1677821 L15.8513173,31.5329359 C15.8513173,31.2065256 16.1150907,30.9419872 16.4411573,30.9419872 C16.7667373,30.9419872 17.0309973,31.2065256 17.0309973,31.5329359 L17.0309973,35.1677821 C17.0309973,36.2960897 16.1141173,37.2144231 14.9865107,37.2144231" id="Fill-40" fill="#FEFEFE" mask="url(#mask-2)"></path>
                <path d="M21.317606,22.4260897 C20.210926,22.4260897 19.310106,23.3273718 19.310106,24.4352179 C19.310106,25.5435513 20.210926,26.4448333 21.317606,26.4448333 C22.424286,26.4448333 23.3246193,25.5435513 23.3246193,24.4352179 C23.3246193,23.3273718 22.424286,22.4260897 21.317606,22.4260897 M21.317606,27.6262436 C19.5602527,27.6262436 18.1299393,26.1949103 18.1299393,24.4352179 C18.1299393,22.6760128 19.5602527,21.2446795 21.317606,21.2446795 C23.0749593,21.2446795 24.504786,22.6760128 24.504786,24.4352179 C24.504786,26.1949103 23.0749593,27.6262436 21.317606,27.6262436" id="Fill-41" fill="#FEFEFE" mask="url(#mask-2)"></path>
                <path d="M26.3812267,32.0821333 L25.9466333,30.9840308 C30.7889667,29.0635692 33.9177467,24.4529026 33.9177467,19.2386205 C33.9177467,12.2748769 28.2587867,6.60995385 21.3023733,6.60995385 C14.3464467,6.60995385 8.68748667,12.2748769 8.68748667,19.2386205 C8.68748667,24.4529026 11.81578,29.0630821 16.6581133,30.9835436 L16.22352,32.0816462 C13.68166,31.0736718 11.5125867,29.3471077 9.95136,27.0880564 C8.35217333,24.7754154 7.50732,22.0608513 7.50732,19.2386205 C7.50732,11.6235179 13.6957733,5.42854359 21.3023733,5.42854359 C28.90946,5.42854359 35.0979133,11.6235179 35.0979133,19.2386205 C35.0979133,22.0613385 34.2525733,24.7754154 32.6538733,27.0880564 C31.09216,29.3471077 28.9230867,31.074159 26.3812267,32.0821333" id="Fill-42" fill="#FEFEFE" mask="url(#mask-2)"></path>
            </g>
        </g>
    </g>
</svg>