<?xml version="1.0" encoding="UTF-8" standalone="no"?>
<svg width="32px" height="32px" viewBox="0 0 32 32" version="1.1" xmlns="http://www.w3.org/2000/svg" xmlns:xlink="http://www.w3.org/1999/xlink">
    <!-- Generator: Sketch 3.6.1 (26313) - http://www.bohemiancoding.com/sketch -->
    <title>Group 4</title>
    <desc>Created with Sketch.</desc>
    <defs></defs>
    <g id="Page-1" stroke="none" stroke-width="1" fill="none" fill-rule="evenodd">
        <g id="头部添加关注我们-copy" transform="translate(-474.000000, -110.000000)">
            <g id="Group-4" transform="translate(474.000000, 110.000000)">
                <circle id="Oval-83-Copy" fill="#28B836" cx="16" cy="16" r="16"></circle>
                <g id="Group" transform="translate(5.052632, 6.736842)" fill="#FFFFFF">
                    <g id="Group-3" transform="translate(0.784314, 0.784314)">
                        <path d="M4.86027941,5.06199095 C4.32052451,5.06199095 3.77630882,4.68570136 3.77630882,4.12358974 C3.77630882,3.55948718 4.32052451,3.18784314 4.86027941,3.18784314 C5.40003431,3.18784314 5.75880882,3.55948718 5.75880882,4.12358974 C5.75880882,4.68570136 5.40003431,5.06199095 4.86027941,5.06199095 M9.89841667,3.18784314 C10.4407206,3.18784314 10.7994951,3.55948718 10.7994951,4.12358974 C10.7994951,4.68570136 10.4407206,5.06199095 9.89841667,5.06199095 C9.35929902,5.06199095 8.81763235,4.68570136 8.81763235,4.12358974 C8.81763235,3.55948718 9.35929902,3.18784314 9.89841667,3.18784314 M13.7691029,5.22060332 C14.0029755,5.22060332 14.2336618,5.23852187 14.4624363,5.26506787 C13.8398382,2.24413273 10.7389559,0.000331825034 7.1990049,0.000331825034 C3.24165196,0.000331825034 -6.37254933e-05,2.80889894 -6.37254933e-05,6.3760181 C-6.37254933e-05,8.43532428 1.07817157,10.1263047 2.88096569,11.4376772 L2.16086765,13.6927602 L4.67738725,12.378733 C5.57782843,12.5645551 6.30047549,12.7550226 7.1990049,12.7550226 C7.42459314,12.7550226 7.64890686,12.7437406 7.87130882,12.7251584 C7.73047549,12.2241026 7.64890686,11.6991554 7.64890686,11.1542986 C7.64890686,7.87918552 10.3495931,5.22060332 13.7691029,5.22060332" id="Fill-1"></path>
                    </g>
                    <g id="Group-6" transform="translate(8.431373, 6.093514)">
                        <path d="M8.55253431,4.81697134 C8.19630882,4.81697134 7.83753431,4.4453273 7.83753431,4.06704676 C7.83753431,3.69341176 8.19630882,3.31712217 8.55253431,3.31712217 C9.09228922,3.31712217 9.45361275,3.69341176 9.45361275,4.06704676 C9.45361275,4.4453273 9.09228922,4.81697134 8.55253431,4.81697134 M4.59263235,4.81697134 C4.2344951,4.81697134 3.87253431,4.4453273 3.87253431,4.06704676 C3.87253431,3.69341176 4.2344951,3.31712217 4.59263235,3.31712217 C5.13748529,3.31712217 5.49371078,3.69341176 5.49371078,4.06704676 C5.49371078,4.4453273 5.13748529,4.81697134 4.59263235,4.81697134 M12.6927794,5.75537255 C12.6927794,2.75766516 9.81238725,0.314105581 6.57768137,0.314105581 C3.15243627,0.314105581 0.454936274,2.75766516 0.454936274,5.75537255 C0.454936274,8.75772549 3.15243627,11.1959759 6.57768137,11.1959759 C7.29459314,11.1959759 8.01787745,11.0074992 8.73797549,10.8196863 L10.7128284,11.9459005 L10.1711618,10.0724163 C11.6164559,8.94288386 12.6927794,7.44568929 12.6927794,5.75537255" id="Fill-4"></path>
                    </g>
                </g>
            </g>
        </g>
    </g>
</svg>