<?xml version="1.0" encoding="UTF-8" standalone="no"?>
<svg width="32px" height="32px" viewBox="0 0 32 32" version="1.1" xmlns="http://www.w3.org/2000/svg" xmlns:xlink="http://www.w3.org/1999/xlink">
    <!-- Generator: Sketch 3.6.1 (26313) - http://www.bohemiancoding.com/sketch -->
    <title>Group 2</title>
    <desc>Created with Sketch.</desc>
    <defs></defs>
    <g id="Page-1" stroke="none" stroke-width="1" fill="none" fill-rule="evenodd">
        <g id="头部添加关注我们-copy" transform="translate(-431.000000, -110.000000)">
            <g id="Group-2" transform="translate(431.000000, 110.000000)">
                <circle id="Oval-83" fill="#E73736" cx="16" cy="16" r="16"></circle>
                <g id="Page-1" transform="translate(6.736842, 6.736842)" fill="#FFFFFF">
                    <path d="M6.68686792,9.72732059 C5.44642771,9.97821196 4.6091751,11.0278839 4.81700376,12.0703705 C5.02423862,13.1134558 6.19936126,13.7547557 7.43980148,13.5026667 C8.6802417,13.2511766 9.5180881,12.2015046 9.30966564,11.1590181 C9.10243078,10.1171303 7.92849573,9.47583045 6.68686792,9.72732059 L6.68686792,9.72732059 Z M16.7962479,5.67533531 C16.4910366,4.17178351 15.3141326,2.9861871 13.824298,2.67841107 C13.4632699,2.60476038 13.1087736,2.83828695 13.0351429,3.20354645 C12.9609183,3.56700959 13.1936864,3.92328729 13.5547145,3.99873434 C14.5249775,4.19872888 15.2885994,4.96936654 15.4863335,5.9465854 C15.560558,6.31124611 15.9138667,6.54537146 16.2754886,6.47112199 C16.6371105,6.39627373 16.8704724,6.03939724 16.7962479,5.67533531 L16.7962479,5.67533531 Z M19.452892,5.77353623 C19.4505168,2.58500044 16.8865049,4.10116027e-05 13.7239464,4.10116027e-05 C13.3546052,4.10116027e-05 13.0559257,0.301230401 13.0559257,0.673675332 C13.0559257,1.04612026 13.3546052,1.34671087 13.7239464,1.34671087 C16.1484162,1.34671087 18.115663,3.3298903 18.115663,5.77653016 C18.115663,6.14897509 18.4149362,6.45076326 18.7842775,6.45076326 C19.1536187,6.45076326 19.452892,6.14897509 19.452892,5.77653016 L19.452892,5.77353623 Z M8.26695956,15.1451369 C5.18693878,15.4523141 2.52851329,14.0415742 2.32840397,11.9907319 C2.12829466,9.94048843 4.46310124,8.02856454 7.54312201,7.71959093 C10.6249242,7.41061732 13.2827559,8.82195607 13.4822714,10.8716008 C13.6817869,12.9218442 11.3475741,14.8355645 8.26695956,15.1451369 L8.26695956,15.1451369 Z M14.4275949,8.34532236 C14.1663246,8.26568382 13.9852168,8.20999671 14.1235713,7.85671294 C14.4204694,7.0890692 14.4513468,6.42741061 14.1295092,5.9549684 C13.5256185,5.06936382 11.8730837,5.11606913 9.97887394,5.93161575 C9.97887394,5.93041817 9.38448396,6.19807554 9.53590199,5.71305883 C9.82745591,4.7520072 9.783515,3.94723873 9.32985471,3.48198196 C8.30258733,2.42751971 5.56993731,3.52389699 3.2250362,5.92802303 C1.4697747,7.7291715 0.451414254,9.63870026 0.451414254,11.2895534 C0.451414254,14.4481499 4.39659606,16.5600684 8.25627122,16.5600684 C13.3171961,16.5600684 16.6828328,13.3505751 16.6828328,10.954832 C16.6828328,9.50696732 15.4952404,8.68543285 14.4275949,8.34532236 L14.4275949,8.34532236 Z" id="Fill-1"></path>
                </g>
            </g>
        </g>
    </g>
</svg>