<svg xmlns="http://www.w3.org/2000/svg" xmlns:xlink="http://www.w3.org/1999/xlink" preserveAspectRatio="xMidYMid" width="73.781" height="73" viewBox="0 0 73.781 73">
  <path style="fill: #5bc2d9;fill-rule: evenodd;" d="M62.982,62.310 C56.009,69.204 46.739,73.000 36.879,73.000 C36.879,73.000 36.878,73.000 36.877,73.000 C27.013,72.999 17.741,69.202 10.769,62.307 C-3.625,48.078 -3.623,24.923 10.771,10.689 C17.745,3.796 27.015,-0.000 36.874,-0.000 C46.733,-0.000 56.003,3.796 62.976,10.689 C77.372,24.924 77.375,48.081 62.982,62.310 ZM60.855,12.785 C54.448,6.453 45.932,2.965 36.874,2.965 C27.816,2.965 19.299,6.453 12.892,12.785 C-0.333,25.862 -0.335,47.137 12.889,60.210 C19.296,66.545 27.815,70.033 36.877,70.035 L36.879,70.035 C45.938,70.035 54.453,66.547 60.861,60.213 C74.084,47.140 74.082,25.865 60.855,12.785 ZM31.883,51.670 C31.870,51.684 31.853,51.688 31.841,51.700 C31.829,51.712 31.824,51.728 31.812,51.740 C31.723,51.822 31.617,51.868 31.516,51.924 C31.459,51.956 31.411,52.003 31.351,52.027 C31.170,52.099 30.979,52.140 30.787,52.140 C30.595,52.140 30.404,52.099 30.223,52.027 C30.164,52.003 30.115,51.956 30.058,51.924 C29.957,51.868 29.851,51.822 29.762,51.740 C29.750,51.728 29.745,51.712 29.733,51.700 C29.721,51.688 29.704,51.684 29.692,51.670 L19.138,40.518 C18.572,39.920 18.604,38.982 19.209,38.421 C19.813,37.861 20.760,37.893 21.329,38.491 L30.787,48.486 L52.417,25.628 C52.985,25.032 53.934,25.000 54.538,25.558 C55.143,26.119 55.174,27.057 54.609,27.655 L31.883,51.670 Z" class="cls-1"/>
</svg>
