<?xml version="1.0" encoding="UTF-8" standalone="no"?>
<svg width="36px" height="37px" viewBox="0 0 36 37" version="1.1" xmlns="http://www.w3.org/2000/svg" xmlns:xlink="http://www.w3.org/1999/xlink" xmlns:sketch="http://www.bohemiancoding.com/sketch/ns">
    <!-- Generator: Sketch 3.4 (15575) - http://www.bohemiancoding.com/sketch -->
    <title>icon-alipay</title>
    <desc>Created with Sketch.</desc>
    <defs>
        <path id="path-1" d="M18,36.8623435 C27.9411314,36.8623435 36,28.8041314 36,18.863 C36,8.92186859 27.9411314,0.863 18,0.863 C8.05886859,0.863 0,8.92186859 0,18.863 C0,28.8041314 8.05886859,36.8623435 18,36.8623435 L18,36.8623435 Z"></path>
    </defs>
    <g id="Page-1" stroke="none" stroke-width="1" fill="none" fill-rule="evenodd" sketch:type="MSPage">
        <g id="1.整页-登录-0" sketch:type="MSArtboardGroup" transform="translate(-754.000000, -608.000000)">
            <g id="icon-alipay" sketch:type="MSLayerGroup" transform="translate(754.000000, 608.000000)">
                <mask id="mask-2" sketch:name="Clip 5 Copy" fill="white">
                    <use xlink:href="#path-1"></use>
                </mask>
                <use id="Clip-5-Copy" fill="#00AAEE" sketch:type="MSShapeGroup" xlink:href="#path-1"></use>
                <path d="M15.5449286,11.6192857 L15.5449286,8.73157143 L18.7392857,8.73157143 L18.7392857,11.6192857 L25.2591429,11.6192857 L25.2591429,12.8889286 L18.7392857,12.9326429 L18.7392857,14.7262143 L24.1225714,14.7699286 C24.1225714,14.7699286 24.0255,15.7766429 23.3427857,17.6068571 C22.6613571,19.4377143 22.0210714,20.3711429 22.0210714,20.3711429 L32.4662143,23.7982143 C32.4662143,23.7982143 32.0914286,24.7785714 31.6401429,25.6380714 C31.1882143,26.4975714 30.5595,27.4226429 30.5595,27.4226429 L20.5772143,22.6905714 C20.5772143,22.6905714 18.6891429,24.7779286 16.7637857,25.6972143 C14.8384286,26.6158571 12.6276429,27.1873571 10.2336429,26.6229286 C7.839,26.0585 6.13992857,24.5272143 6.43178571,21.7012143 C6.72492857,18.8739286 9.74635714,17.8993571 12.231,17.8993571 C14.7169286,17.8993571 19.4329286,19.5097143 19.4329286,19.5097143 C19.4329286,19.5097143 19.8289286,18.6219286 20.214,17.6068571 C20.5990714,16.5924286 20.7083571,15.7766429 20.7083571,15.7766429 L10.6662857,15.7766429 L10.6662857,14.7699286 L15.5449286,14.7699286 L15.5449286,12.8445714 L9.46285714,12.8889286 L9.46285714,11.6192857 L15.5449286,11.6192857 Z M18.2307857,21.5231429 C18.2307857,21.5231429 15.2408571,25.0749286 11.7186429,25.0749286 C8.19578571,25.0749286 7.45585714,23.3880714 7.45585714,22.1743571 C7.45585714,20.9606429 8.18807143,19.6415 11.1857143,19.4512143 C14.1827143,19.2602857 18.2307857,21.5231429 18.2307857,21.5231429 Z" id="Path" fill="#FFFFFF" sketch:type="MSShapeGroup" mask="url(#mask-2)"></path>
            </g>
        </g>
    </g>
</svg>