<?xml version="1.0" encoding="UTF-8" standalone="no"?>
<svg width="36px" height="36px" viewBox="0 0 36 36" version="1.1" xmlns="http://www.w3.org/2000/svg" xmlns:xlink="http://www.w3.org/1999/xlink" xmlns:sketch="http://www.bohemiancoding.com/sketch/ns">
    <!-- Generator: Sketch 3.3.3 (12072) - http://www.bohemiancoding.com/sketch -->
    <title>Clip 5 Copy</title>
    <desc>Created with Sketch.</desc>
    <defs>
        <path id="path-1" d="M18,35.9993435 C27.9411314,35.9993435 36,27.9411314 36,18 C36,8.05886859 27.9411314,0 18,0 C8.05886859,0 0,8.05886859 0,18 C0,27.9411314 8.05886859,35.9993435 18,35.9993435 L18,35.9993435 Z"></path>
    </defs>
    <g id="Page-1" stroke="none" stroke-width="1" fill="none" fill-rule="evenodd" sketch:type="MSPage">
        <mask id="mask-2" sketch:name="Clip 5 Copy" fill="white">
            <use xlink:href="#path-1"></use>
        </mask>
        <use id="Clip-5-Copy" fill="#00AAEE" sketch:type="MSShapeGroup" xlink:href="#path-1"></use>
        <path d="M15.5449286,10.757717 L15.5449286,7.87000275 L18.7392857,7.87000275 L18.7392857,10.757717 L25.2591429,10.757717 L25.2591429,12.0273599 L18.7392857,12.0710742 L18.7392857,13.8646456 L24.1225714,13.9083599 C24.1225714,13.9083599 24.0255,14.9150742 23.3427857,16.7452885 C22.6613571,18.5761456 22.0210714,19.5095742 22.0210714,19.5095742 L32.4662143,22.9366456 C32.4662143,22.9366456 32.0914286,23.9170027 31.6401429,24.7765027 C31.1882143,25.6360027 30.5595,26.5610742 30.5595,26.5610742 L20.5772143,21.8290027 C20.5772143,21.8290027 18.6891429,23.9163599 16.7637857,24.8356456 C14.8384286,25.7542885 12.6276429,26.3257885 10.2336429,25.7613599 C7.839,25.1969313 6.13992857,23.6656456 6.43178571,20.8396456 C6.72492857,18.0123599 9.74635714,17.0377885 12.231,17.0377885 C14.7169286,17.0377885 19.4329286,18.6481456 19.4329286,18.6481456 C19.4329286,18.6481456 19.8289286,17.7603599 20.214,16.7452885 C20.5990714,15.7308599 20.7083571,14.9150742 20.7083571,14.9150742 L10.6662857,14.9150742 L10.6662857,13.9083599 L15.5449286,13.9083599 L15.5449286,11.9830027 L9.46285714,12.0273599 L9.46285714,10.757717 L15.5449286,10.757717 Z M18.2307857,20.6615742 C18.2307857,20.6615742 15.2408571,24.2133599 11.7186429,24.2133599 C8.19578571,24.2133599 7.45585714,22.5265027 7.45585714,21.3127885 C7.45585714,20.0990742 8.18807143,18.7799313 11.1857143,18.5896456 C14.1827143,18.398717 18.2307857,20.6615742 18.2307857,20.6615742 Z" id="Path" fill="#FFFFFF" sketch:type="MSShapeGroup"></path>
    </g>
</svg>