<?xml version="1.0" encoding="UTF-8" standalone="no"?>
<svg width="95px" height="95px" viewBox="0 0 95 95" version="1.1" xmlns="http://www.w3.org/2000/svg" xmlns:xlink="http://www.w3.org/1999/xlink" xmlns:sketch="http://www.bohemiancoding.com/sketch/ns">
    <!-- Generator: Sketch 3.4 (15575) - http://www.bohemiancoding.com/sketch -->
    <title>icon-logo</title>
    <desc>Created with Sketch.</desc>
    <defs></defs>
    <g id="Page-1" stroke="none" stroke-width="1" fill="none" fill-rule="evenodd" sketch:type="MSPage">
        <g id="1.整页-登录-0" sketch:type="MSArtboardGroup" transform="translate(-673.000000, -160.000000)">
            <g id="icon-logo" sketch:type="MSLayerGroup" transform="translate(673.000000, 160.000000)">
                <path d="M94.2533178,47.6269626 C94.2533178,73.4962617 73.2814019,94.4681776 47.411215,94.4681776 C21.541028,94.4681776 0.56911215,73.4962617 0.56911215,47.6269626 C0.56911215,21.7558879 21.541028,0.785747664 47.411215,0.785747664 C73.2814019,0.785747664 94.2533178,21.7558879 94.2533178,47.6269626" id="Fill-1" fill="#DD3D42" sketch:type="MSShapeGroup"></path>
                <path d="M61.3771028,82.2842056 C58.9310748,82.2842056 56.9414019,80.2936449 56.9414019,77.8476168 L56.9414019,69.9954673 C56.9414019,69.3695327 57.4492523,68.8625701 58.0742991,68.8625701 C58.6993458,68.8625701 59.2063084,69.3695327 59.2063084,69.9954673 L59.2063084,77.8476168 C59.2063084,79.0435514 60.1802804,80.0184112 61.3771028,80.0184112 C62.5748131,80.0184112 63.5496729,79.0435514 63.5496729,77.8476168 C63.5496729,77.2216822 64.0566355,76.7147196 64.6825701,76.7147196 C65.3076168,76.7147196 65.8145794,77.2216822 65.8145794,77.8476168 C65.8145794,80.2936449 63.8249065,82.2842056 61.3771028,82.2842056" id="Fill-2" fill="#FFFFFF" sketch:type="MSShapeGroup"></path>
                <path d="M67.2164953,46.3946262 C66.5905607,46.3946262 66.0835981,45.8885514 66.0835981,45.261729 C66.0835981,43.8331776 64.9214019,42.6692056 63.4919626,42.6692056 C62.0625234,42.6692056 60.9003271,43.8331776 60.9003271,45.261729 C60.9003271,45.8885514 60.3924766,46.3946262 59.7674299,46.3946262 C59.1414953,46.3946262 58.6345327,45.8885514 58.6345327,45.261729 C58.6345327,42.5848598 60.8142056,40.4051869 63.4919626,40.4051869 C66.1697196,40.4051869 68.3476168,42.5848598 68.3476168,45.261729 C68.3476168,45.8885514 67.8415421,46.3946262 67.2164953,46.3946262" id="Fill-3" fill="#FFFFFF" sketch:type="MSShapeGroup"></path>
                <path d="M35.1207009,46.3946262 C34.4956542,46.3946262 33.9886916,45.8885514 33.9886916,45.261729 C33.9886916,43.8331776 32.8256075,42.6692056 31.3961682,42.6692056 C29.966729,42.6692056 28.8036449,43.8331776 28.8036449,45.261729 C28.8036449,45.8885514 28.2966822,46.3946262 27.6716355,46.3946262 C27.0465888,46.3946262 26.5387383,45.8885514 26.5387383,45.261729 C26.5387383,42.5848598 28.7175234,40.4051869 31.3961682,40.4051869 C34.0739252,40.4051869 36.2535981,42.5848598 36.2535981,45.261729 C36.2535981,45.8885514 35.7466355,46.3946262 35.1207009,46.3946262" id="Fill-4" fill="#FFFFFF" sketch:type="MSShapeGroup"></path>
                <path d="M43.8553738,82.2957477 C43.2303271,82.2957477 42.7242523,81.788785 42.7242523,81.1646262 L42.7242523,71.915 C42.7242523,71.2899533 43.2303271,70.7829907 43.8553738,70.7829907 C44.4813084,70.7829907 44.988271,71.2899533 44.988271,71.915 L44.988271,81.1646262 C44.988271,81.788785 44.4813084,82.2957477 43.8553738,82.2957477" id="Fill-5" fill="#FFFFFF" sketch:type="MSShapeGroup"></path>
                <path d="M50.9652804,82.2957477 C50.3393458,82.2957477 49.8323832,81.788785 49.8323832,81.1646262 L49.8323832,71.915 C49.8323832,71.2899533 50.3393458,70.7829907 50.9652804,70.7829907 C51.5894393,70.7829907 52.0972897,71.2899533 52.0972897,71.915 L52.0972897,81.1646262 C52.0972897,81.788785 51.5894393,82.2957477 50.9652804,82.2957477" id="Fill-6" fill="#FFFFFF" sketch:type="MSShapeGroup"></path>
                <path d="M33.5563084,82.2842056 C31.1733178,82.2842056 29.2342523,80.3433645 29.2342523,77.9612617 C29.2342523,77.3344393 29.741215,76.8283645 30.3662617,76.8283645 C30.9921963,76.8283645 31.498271,77.3344393 31.498271,77.9612617 C31.498271,79.0950467 32.4216355,80.0184112 33.5563084,80.0184112 C34.6909813,80.0184112 35.6143458,79.0950467 35.6143458,77.9612617 L35.6143458,69.9954673 C35.6143458,69.3695327 36.1213084,68.8625701 36.747243,68.8625701 C37.3722897,68.8625701 37.8792523,69.3695327 37.8792523,69.9954673 L37.8792523,77.9612617 C37.8792523,80.3433645 35.9392991,82.2842056 33.5563084,82.2842056" id="Fill-7" fill="#FFFFFF" sketch:type="MSShapeGroup"></path>
                <path d="M47.4440654,61.2732243 C43.6778037,61.2732243 40.6138318,58.2083645 40.6138318,54.4421028 C40.6138318,50.676729 43.6778037,47.6136449 47.4440654,47.6136449 C51.2103271,47.6136449 54.2734112,50.676729 54.2734112,54.4421028 C54.2734112,58.2083645 51.2103271,61.2732243 47.4440654,61.2732243 L47.4440654,61.2732243 Z M47.4440654,49.8785514 C44.9270093,49.8785514 42.8787383,51.9259346 42.8787383,54.4421028 C42.8787383,56.9600467 44.9270093,59.0074299 47.4440654,59.0074299 C49.9611215,59.0074299 52.0085047,56.9600467 52.0085047,54.4421028 C52.0085047,51.9259346 49.9611215,49.8785514 47.4440654,49.8785514 L47.4440654,49.8785514 Z" id="Fill-8" fill="#FFFFFF" sketch:type="MSShapeGroup"></path>
                <path d="M58.4915888,71.0484579 L57.6570093,68.9424766 C68.3414019,64.7109813 75.2444393,54.5486449 75.2444393,43.0554206 C75.2444393,27.7071495 62.7585981,15.2213084 47.411215,15.2213084 C32.0638318,15.2213084 19.5771028,27.7071495 19.5771028,43.0554206 C19.5771028,54.5486449 26.4801402,64.7100935 37.162757,68.9424766 L36.3290654,71.0475701 C30.7835514,68.851028 26.0513084,65.0874299 22.6437383,60.1634112 C19.1553738,55.123972 17.3121963,49.2073364 17.3121963,43.0554206 C17.3121963,26.4579439 30.8146262,12.9572897 47.411215,12.9572897 C64.0078037,12.9572897 77.5093458,26.4579439 77.5093458,43.0554206 C77.5093458,49.2073364 75.6661682,55.123972 72.1778037,60.1642991 C68.7702336,65.0874299 64.0371028,68.8519159 58.4915888,71.0484579" id="Fill-9" fill="#FFFFFF" sketch:type="MSShapeGroup"></path>
            </g>
        </g>
    </g>
</svg>