<?xml version="1.0" encoding="UTF-8" standalone="no"?>
<svg width="36px" height="36px" viewBox="0 0 36 36" version="1.1" xmlns="http://www.w3.org/2000/svg" xmlns:xlink="http://www.w3.org/1999/xlink" xmlns:sketch="http://www.bohemiancoding.com/sketch/ns">
    <!-- Generator: Sketch 3.4 (15575) - http://www.bohemiancoding.com/sketch -->
    <title>icon-webchat</title>
    <desc>Created with Sketch.</desc>
    <defs></defs>
    <g id="Page-1" stroke="none" stroke-width="1" fill="none" fill-rule="evenodd" sketch:type="MSPage">
        <g id="1.整页-登录-0" sketch:type="MSArtboardGroup" transform="translate(-603.000000, -609.000000)">
            <g id="icon-webchat" sketch:type="MSLayerGroup" transform="translate(603.000000, 609.000000)">
                <path d="M18,0 C8.06354956,0 0,8.0605861 0,18 C0,27.9404017 8.06354956,36 18,36 C27.9364504,36 35.9960487,27.9404017 35.9960487,18 C35.9960487,8.0605861 27.9364504,0 18,0 L18,0 Z" id="Path" fill="#64B406" sketch:type="MSShapeGroup"></path>
                <path d="M28.9094501,27.2528811 L29.6829108,29.8212051 L26.8656569,28.2772473 C25.8383273,28.5350675 24.8060586,28.7928877 23.7836681,28.7928877 C18.8969378,28.7928877 15.048403,25.4530787 15.048403,21.339809 C15.048403,17.2334541 18.8969378,13.8867303 23.7836681,13.8867303 C28.3967731,13.8867303 32.5070794,17.2334541 32.5070794,21.339809 C32.5070794,23.6562397 30.9720119,25.7079355 28.9094501,27.2528811 L28.9094501,27.2528811 Z" id="Fill-5" fill="#FFFFFF" sketch:type="MSShapeGroup"></path>
                <path d="M13.7602898,23.6562397 C12.4781034,23.6562397 11.4478103,23.3944682 10.1626605,23.1405993 L6.571946,24.9413895 L7.5992756,21.8505104 C5.02897596,20.0546592 3.48896938,17.7382285 3.48896938,14.9180112 C3.48896938,10.0312809 8.11392822,6.18274613 13.7602898,6.18274613 C18.8090221,6.18274613 23.2334541,9.25584458 24.1224893,13.3947975 C23.7965097,13.3582483 23.4665789,13.3345407 23.1336846,13.3345407 C18.2548568,13.3345407 14.4023708,16.9756338 14.4023708,21.4632861 C14.4023708,22.2090879 14.5179453,22.9282186 14.7184722,23.6157392 C14.4013829,23.6404346 14.0823181,23.6562397 13.7602898,23.6562397 L13.7602898,23.6562397 Z" id="Path" fill="#FFFFFF" sketch:type="MSShapeGroup"></path>
                <path d="M20.7502105,17.2534737 C20.2594737,17.2534737 19.7649474,17.748 19.7649474,18.2377895 C19.7649474,18.7370526 20.2594737,19.224 20.7502105,19.224 C21.4948421,19.224 21.9827368,18.7370526 21.9827368,18.2377895 C21.9827368,17.748 21.4948421,17.2534737 20.7502105,17.2534737" id="Fill-1" fill="#64B406" sketch:type="MSShapeGroup"></path>
                <path d="M26.1682105,17.2534737 C25.6803158,17.2534737 25.1895789,17.748 25.1895789,18.2377895 C25.1895789,18.7370526 25.6803158,19.224 26.1682105,19.224 C26.9062105,19.224 27.4007368,18.7370526 27.4007368,18.2377895 C27.4007368,17.748 26.9062105,17.2534737 26.1682105,17.2534737" id="Fill-2" fill="#64B406" sketch:type="MSShapeGroup"></path>
                <path d="M10.6531579,10.1093684 C9.91515789,10.1093684 9.16957895,10.5963158 9.16957895,11.3381053 C9.16957895,12.0761053 9.91515789,12.5706316 10.6531579,12.5706316 C11.3911579,12.5706316 11.8818947,12.0761053 11.8818947,11.3381053 C11.8818947,10.5963158 11.3911579,10.1093684 10.6531579,10.1093684" id="Fill-3" fill="#64B406" sketch:type="MSShapeGroup"></path>
                <path d="M17.5471579,12.5706316 C18.288,12.5706316 18.7796842,12.0761053 18.7796842,11.3381053 C18.7796842,10.5963158 18.288,10.1093684 17.5471579,10.1093684 C16.8091579,10.1093684 16.0673684,10.5963158 16.0673684,11.3381053 C16.0673684,12.0761053 16.8091579,12.5706316 17.5471579,12.5706316" id="Fill-4" fill="#64B406" sketch:type="MSShapeGroup"></path>
            </g>
        </g>
    </g>
</svg>