<?xml version="1.0" encoding="UTF-8" standalone="no"?>
<svg width="15px" height="13px" viewBox="0 0 15 13" version="1.1" xmlns="http://www.w3.org/2000/svg" xmlns:xlink="http://www.w3.org/1999/xlink" xmlns:sketch="http://www.bohemiancoding.com/sketch/ns">
    <!-- Generator: Sketch 3.3.2 (12043) - http://www.bohemiancoding.com/sketch -->
    <title>洗发护发</title>
    <desc>Created with Sketch.</desc>
    <defs></defs>
    <g id="Page-1" stroke="none" stroke-width="1" fill="none" fill-rule="evenodd" sketch:type="MSPage">
        <g id="Group" sketch:type="MSLayerGroup" transform="translate(-20.000000, -185.000000)" stroke="#FFFFFF">
            <path d="M27.0248715,185.703247 C28.6576501,185.703247 29.4638205,187.508868 30.6020108,187.773512 C31.740201,188.038157 34,188.846255 34,191.706171 C34,194.566087 33.8957894,197.053414 33.8957894,197.053414 C33.8957894,197.053414 31.6993513,197.338044 31.5262893,196.259591 C31.3532273,195.181138 31.4220787,193.213875 31.4220787,193.213875 C31.4220787,193.213875 31.23551,192.587843 30.6020108,192.977452 C29.9685115,193.367061 29.5086234,194.100379 27.6760987,194.215241 C25.843574,194.330103 24.5093712,193.277456 24.1240447,192.824266 C23.7387182,192.371076 23.2395177,192.824376 23.2395177,193.165009 C23.2395177,193.505643 23.316605,196.609888 23.316605,196.609888 C23.316605,196.609888 22.8517753,197.725127 21.336714,196.992359 L21.336714,191.10847 C21.336714,191.10847 21.2689606,188.357157 24.896235,187.407183 C28.5235095,186.457209 25.3920929,185.703247 27.0248715,185.703247 Z" id="洗发护发" sketch:type="MSShapeGroup"></path>
        </g>
    </g>
</svg>