<?xml version="1.0" encoding="UTF-8" standalone="no"?>
<svg width="12px" height="18px" viewBox="0 0 12 18" version="1.1" xmlns="http://www.w3.org/2000/svg" xmlns:xlink="http://www.w3.org/1999/xlink" xmlns:sketch="http://www.bohemiancoding.com/sketch/ns">
    <!-- Generator: Sketch 3.3.2 (12043) - http://www.bohemiancoding.com/sketch -->
    <title>身体护理</title>
    <desc>Created with Sketch.</desc>
    <defs></defs>
    <g id="Page-1" stroke="none" stroke-width="1" fill="none" fill-rule="evenodd" sketch:type="MSPage">
        <g id="Group" sketch:type="MSLayerGroup" transform="translate(-21.000000, -284.000000)">
            <g id="身体护理" transform="translate(22.000000, 285.000000)" sketch:type="MSShapeGroup">
                <path d="M1.73168943,0.0974121186 C1.73168943,0.0974121186 3.39746092,0.475341806 2.20800779,2.61547852 C1.01855465,4.75561524 -0.603271484,5.86645508 0.851318359,10.0085449 C2.3059082,14.1506348 1.73168945,15.1418457 1.73168945,15.1418457" id="Path-56" stroke="#FFFFFF" stroke-linecap="round" stroke-linejoin="round"></path>
                <path d="M7.71630859,0.0908203125 C7.71630859,0.0908203125 6.99560547,0.755747742 7.44482422,2.55524138 C7.89404297,4.35473503 9.84008799,4.96402659 10.1806641,7.47732614 C10.5212401,9.99062568 8.75847577,16.1943359 8.75847577,16.1943359" id="Path-56" stroke="#FFFFFF" stroke-linecap="round" stroke-linejoin="round"></path>
                <path d="M1.92175293,8.92919922 C1.92175293,8.92919922 2.55761719,10.7561035 7.43078613,9.87902832" id="Path-57" stroke="#FFFFFF" stroke-linecap="round"></path>
                <path id="Path-58" stroke="#979797" d="M3.2121582,11.2099609 C3.2121582,11.2099609 3.86108398,11.9934082 3.53662109,13.8068848 C3.2121582,15.6203613 3.19604492,16.0859375 3.19604492,16.0859375"></path>
                <path d="M4.04370117,10.1616211 C4.04370117,10.1616211 5.35717773,13.4694824 4.04370117,15.7744141" id="Path-59" stroke="#FFFFFF" stroke-linecap="round" stroke-linejoin="round"></path>
            </g>
        </g>
    </g>
</svg>