<?xml version="1.0" encoding="UTF-8" standalone="no"?>
<svg width="20px" height="20px" viewBox="0 0 20 20" version="1.1" xmlns="http://www.w3.org/2000/svg" xmlns:xlink="http://www.w3.org/1999/xlink" xmlns:sketch="http://www.bohemiancoding.com/sketch/ns">
    <!-- Generator: Sketch 3.4 (15575) - http://www.bohemiancoding.com/sketch -->
    <title>icon-star</title>
    <desc>Created with Sketch.</desc>
    <defs></defs>
    <g id="Page-1" stroke="none" stroke-width="1" fill="none" fill-rule="evenodd" sketch:type="MSPage">
        <g id="商品详情添加收藏入口" sketch:type="MSArtboardGroup" transform="translate(-1225.000000, -749.000000)" stroke="#E73736">
            <path d="M1243.95725,756.809703 C1243.84264,756.432429 1243.51296,756.172742 1243.13649,756.164315 L1237.63598,756.047111 L1235.83125,750.622407 C1235.70721,750.250112 1235.37318,750 1234.99997,750 C1234.62641,750 1234.29201,750.250112 1234.16869,750.62279 L1232.36396,756.047111 L1226.86237,756.164315 C1226.48699,756.172742 1226.15731,756.432046 1226.04233,756.80932 C1225.92736,757.186211 1226.05176,757.599872 1226.35243,757.839259 L1230.72934,761.307118 L1229.13968,766.795787 C1229.02942,767.174593 1229.15854,767.585956 1229.46102,767.819598 C1229.75842,768.050176 1230.18059,768.055538 1230.48162,767.835302 L1234.99997,764.549761 L1239.51905,767.835685 C1239.66703,767.94293 1239.83966,768 1240.01847,768 C1240.20598,768 1240.38587,767.937951 1240.54038,767.819215 C1240.84213,767.584807 1240.97088,767.173827 1240.86063,766.79617 L1239.26988,761.307118 L1243.64788,757.838876 C1243.94854,757.599872 1244.07294,757.185445 1243.95725,756.809703" id="icon-star" sketch:type="MSShapeGroup"></path>
        </g>
    </g>
</svg>