<?xml version="1.0" encoding="UTF-8" standalone="no"?>
<svg width="16px" height="12px" viewBox="0 0 16 12" version="1.1" xmlns="http://www.w3.org/2000/svg" xmlns:xlink="http://www.w3.org/1999/xlink" xmlns:sketch="http://www.bohemiancoding.com/sketch/ns">
    <!-- Generator: Sketch 3.2.2 (9983) - http://www.bohemiancoding.com/sketch -->
    <title>Stroke 280</title>
    <desc>Created with Sketch.</desc>
    <defs></defs>
    <g id="Page-1" stroke="none" stroke-width="1" fill="none" fill-rule="evenodd" sketch:type="MSPage">
        <g id="楼层" sketch:type="MSLayerGroup" transform="translate(-777.000000, -797.000000)" fill="#FFFFFF">
            <path d="M789.121,798 C789.121,797.723858 788.897142,797.5 788.621,797.5 L779.448,797.5 C779.171858,797.5 778.948,797.723858 778.948,798 L778.948,803.214 C778.948,806.080044 781.233661,808.431 784.034,808.431 C786.834494,808.431 789.121,806.079882 789.121,803.214 L789.121,798 Z M784.034,807.431 C781.792348,807.431 779.948,805.533965 779.948,803.214 L779.948,798 L779.448,798.5 L788.621,798.5 L788.121,798 L788.121,803.214 C788.121,805.533737 786.275877,807.431 784.034,807.431 Z M790.069,803.466 C791.446457,803.466 792.5,802.191144 792.5,800.731 C792.5,799.270336 791.446761,797.997 790.069,797.997 L788.621,797.997 C788.344858,797.997 788.121,798.220858 788.121,798.497 L788.121,802.966 C788.121,803.242142 788.344858,803.466 788.621,803.466 L790.069,803.466 Z M789.121,802.966 L789.121,798.497 L788.621,798.997 L790.069,798.997 C790.848091,798.997 791.5,799.78514 791.5,800.731 C791.5,801.676493 790.84755,802.466 790.069,802.466 L788.621,802.466 L789.121,802.966 Z M792,808.431 L792,807.431 L778,807.431 L778,808.431 L792,808.431 Z M778,808.431 L792,808.431 C792.666667,808.431 792.666667,807.431 792,807.431 L778,807.431 C777.333333,807.431 777.333333,808.431 778,808.431 Z" id="Stroke-280" sketch:type="MSShapeGroup"></path>
        </g>
    </g>
</svg>