<?xml version="1.0" encoding="UTF-8" standalone="no"?>
<svg width="14px" height="15px" viewBox="0 0 14 15" version="1.1" xmlns="http://www.w3.org/2000/svg" xmlns:xlink="http://www.w3.org/1999/xlink" xmlns:sketch="http://www.bohemiancoding.com/sketch/ns">
    <!-- Generator: Sketch 3.3.2 (12043) - http://www.bohemiancoding.com/sketch -->
    <title>女性呵护</title>
    <desc>Created with Sketch.</desc>
    <defs></defs>
    <g id="Page-1" stroke="none" stroke-width="1" fill="none" fill-rule="evenodd" sketch:type="MSPage">
        <g id="Group" sketch:type="MSLayerGroup" transform="translate(-21.000000, -235.000000)" stroke-linecap="round" stroke="#FFFFFF" stroke-linejoin="round">
            <g id="女性呵护" transform="translate(20.000000, 235.000000)" sketch:type="MSShapeGroup">
                <path d="M2.30963135,9.29882812 C2.77676413,8.2596559 4.074646,6.16021729 4.074646,6.16021729 C4.074646,6.16021729 6.32942708,6.52514648 7.5,6.52514648 C8.66276042,6.52514648 11.2731323,6.3571167 11.2731323,6.3571167 C11.2731323,6.3571167 12.4156859,8.319814 12.8175659,9.29882812 C13.3246418,10.5341084 14.1329346,13 14.1329346,13 C14.1329346,13 10.8903198,14.6838379 7.36761475,14.6838379 C3.84490967,14.6838379 0.934692383,12.9320068 0.934692383,12.9320068 C0.934692383,12.9320068 1.75188213,10.5395835 2.30963135,9.29882812 Z" id="Rectangle-17"></path>
                <path d="M11.0670776,1.15960693 C11.0670776,1.15960693 9.19604492,3.82836914 10.9104004,6.80981445" id="Path-50"></path>
                <path d="M5.07336285,0.94708252 C5.07336285,0.94708252 3.18420271,3.7175293 4.89855818,6.69897461" id="Path-50-Copy" transform="translate(4.626403, 3.823029) scale(-1, 1) translate(-4.626403, -3.823029) "></path>
            </g>
        </g>
    </g>
</svg>