<?xml version="1.0" encoding="UTF-8" standalone="no"?>
<svg width="22px" height="19px" viewBox="0 0 22 19" version="1.1" xmlns="http://www.w3.org/2000/svg" xmlns:xlink="http://www.w3.org/1999/xlink" xmlns:sketch="http://www.bohemiancoding.com/sketch/ns">
    <!-- Generator: Sketch 3.4 (15575) - http://www.bohemiancoding.com/sketch -->
    <title>Fill 1</title>
    <desc>Created with Sketch.</desc>
    <defs></defs>
    <g id="Page-1" stroke="none" stroke-width="1" fill="none" fill-rule="evenodd" sketch:type="MSPage">
        <g id="Group" sketch:type="MSLayerGroup" transform="translate(-1428.000000, -17.000000)" fill="#323232">
            <path d="M1448.8889,18.0920167 C1448.66061,18.0292472 1448.42372,18.1646745 1448.36095,18.3933961 L1448.05828,19.5030398 L1431.93212,19.5030398 L1432.24898,18.1298503 C1432.26316,18.0688006 1432.26359,18.0051713 1432.2507,17.9436916 C1432.13462,17.3968234 1431.64407,17 1431.08473,17 L1428.42993,17 C1428.19261,17 1428,17.1921777 1428,17.4299278 C1428,17.667248 1428.19261,17.8598557 1428.42993,17.8598557 L1431.08473,17.8598557 C1431.21457,17.8598557 1431.33108,17.9363828 1431.38525,18.0498838 L1430.97295,19.8362339 C1430.97209,19.8396733 1430.97338,19.8431127 1430.97252,19.8465521 C1430.96091,19.9037325 1430.95919,19.9639224 1430.97252,20.0245423 L1430.97252,20.0279817 L1430.97252,20.0288415 L1432.8053,28.0457057 L1432.33711,29.5444341 C1432.33281,29.5581918 1432.32894,29.5728093 1432.32636,29.586997 C1432.2623,29.9008443 1432.34227,30.2232901 1432.54434,30.4704986 C1432.74683,30.718567 1433.04649,30.8608731 1433.36679,30.8608731 L1446.15456,30.8608731 C1446.39188,30.8608731 1446.58449,30.6686954 1446.58449,30.4309453 C1446.58449,30.1931952 1446.39188,30.0010174 1446.15456,30.0010174 L1433.36679,30.0010174 C1433.30574,30.0010174 1433.24899,29.973932 1433.2103,29.92621 C1433.17504,29.8832172 1433.15913,29.8286164 1433.16644,29.7740156 L1433.57659,28.4597262 L1445.99033,27.1110426 C1446.53591,27.0998645 1447.00023,26.7245375 1447.12147,26.2060445 L1449.19071,18.6195381 C1449.25305,18.3908165 1449.11805,18.1543562 1448.8889,18.0920167 Z M1434.09552,31.9378423 C1433.13893,31.9378423 1432.36076,32.7155817 1432.36076,33.6721712 C1432.36076,34.6287606 1433.13893,35.4065 1434.09552,35.4065 C1435.05125,35.4065 1435.82899,34.6287606 1435.82899,33.6721712 C1435.82899,32.7155817 1435.05125,31.9378423 1434.09552,31.9378423 Z M1444.35617,31.9378423 C1443.40001,31.9378423 1442.62185,32.7155817 1442.62185,33.6721712 C1442.62185,34.6287606 1443.40001,35.4065 1444.35617,35.4065 C1445.31276,35.4065 1446.0905,34.6287606 1446.0905,33.6721712 C1446.0905,32.7155817 1445.31276,31.9378423 1444.35617,31.9378423 Z" id="Fill-1" sketch:type="MSShapeGroup"></path>
        </g>
    </g>
</svg>