<svg xmlns="http://www.w3.org/2000/svg" xmlns:xlink="http://www.w3.org/1999/xlink" width="0" height="0" style="position:absolute">

<symbol id="icon-voise" viewBox="0 0 39 35">
        <defs><style>.cls-1 { fill: #f29545; fill-rule: evenodd; }</style></defs><path d="M35.726 23.618c-.238.206-.533.307-.826.307-.347 0-.694-.142-.942-.422-.455-.516-.404-1.3.116-1.753 1.54-1.338 2.422-3.263 2.422-5.28 0-2.015-.883-3.94-2.422-5.277-.52-.452-.572-1.236-.116-1.752.455-.516 1.245-.566 1.767-.114C37.805 11.136 39 13.74 39 16.47c0 2.732-1.193 5.337-3.274 7.148zM20.896 35c-.584 0-1.203-.22-1.89-.675C17.077 33.05 12.552 29.118 9 25.957H1.93c-1.064 0-1.93-.893-1.93-1.99V11.213c0-1.097.866-1.99 1.93-1.99H8.8c3.633-3.237 8.257-7.26 10.205-8.547C19.693.222 20.312 0 20.897 0c1.602 0 2.212 1.623 2.31 2.482.004.034.006.07.006.103v29.83c0 .036-.002.07-.006.104-.098.858-.708 2.48-2.31 2.48z" class="cls-1"/>
</symbol>
</svg>