<?xml version="1.0" encoding="utf-8"?>
<!-- Generator: Adobe Illustrator 17.0.0, SVG Export Plug-In . SVG Version: 6.00 Build 0)  -->
<!DOCTYPE svg PUBLIC "-//W3C//DTD SVG 1.1//EN" "http://www.w3.org/Graphics/SVG/1.1/DTD/svg11.dtd">
<svg version="1.1" id="_x33_15274262343_1" xmlns="http://www.w3.org/2000/svg" xmlns:xlink="http://www.w3.org/1999/xlink" x="0px"
	 y="0px" width="220.49px" height="36px" viewBox="0 0 220.49 36" enable-background="new 0 0 220.49 36" xml:space="preserve">
<g>
	<g>
		<path fill-rule="evenodd" clip-rule="evenodd" fill="#FFF462" d="M35.478,16.709l-4.921-4.918v-0.004
			c-0.84-0.748-1.95-1.201-3.167-1.201c-1.326,0-2.525,0.54-3.388,1.417c0-0.003,0-0.003,0-0.003
			c0.872-0.866,1.413-2.065,1.413-3.391c0-1.213-0.455-2.324-1.2-3.167c-0.003,0-0.003,0-0.003,0l-4.922-4.923
			C18.959,0.196,18.503,0,18,0c-0.5,0-0.95,0.193-1.284,0.516l-2.535,2.535l-2.394,2.391c0,0,0,0-0.001,0.003
			c-0.748,0.843-1.2,1.951-1.2,3.164c0,1.326,0.54,2.525,1.415,3.391c0,0-0.003,0-0.003,0.003c-0.863-0.877-2.063-1.417-3.389-1.417
			c-1.215,0-2.325,0.453-3.167,1.201v0.004l-4.919,4.918C0.2,17.047,0,17.496,0,17.999c0,0.499,0.199,0.954,0.516,1.284l2.536,2.533
			l2.392,2.395c0.842,0.746,1.952,1.205,3.166,1.205c1.326,0,2.526-0.543,3.389-1.418h0.003c-0.876,0.866-1.415,2.063-1.415,3.393
			c0,1.212,0.453,2.322,1.2,3.16c0.001,0,0.001,0,0.001,0.004l2.394,2.391l2.535,2.532C17.049,35.805,17.5,36,18,36
			c0.503,0,0.959-0.195,1.289-0.521l4.922-4.921c0,0,0,0,0.003,0c0.745-0.842,1.2-1.952,1.2-3.165c0-1.33-0.541-2.527-1.413-3.393
			c0.863,0.875,2.062,1.418,3.388,1.418c1.214,0,2.322-0.459,3.166-1.205c0.001,0,0.001,0,0.001,0l2.392-2.395l2.532-2.533
			C35.803,18.953,36,18.499,36,17.999C36,17.496,35.803,17.047,35.478,16.709z"/>
		<rect x="12.688" y="9.516" fill-rule="evenodd" clip-rule="evenodd" fill="#009944" width="10.646" height="3.17"/>
		<rect x="23.315" y="12.686" fill-rule="evenodd" clip-rule="evenodd" fill="#009944" width="3.169" height="10.626"/>
		<rect x="12.688" y="23.313" fill-rule="evenodd" clip-rule="evenodd" fill="#009944" width="10.626" height="3.175"/>
		<rect x="9.517" y="12.686" fill-rule="evenodd" clip-rule="evenodd" fill="#009944" width="3.171" height="10.626"/>
		<path fill-rule="evenodd" clip-rule="evenodd" fill="#009944" d="M18,19.982c-1.09,0-1.978-0.89-1.978-1.983
			c0-1.093,0.888-1.982,1.978-1.982c1.094,0,1.978,0.888,1.978,1.982C19.978,19.092,19.094,19.982,18,19.982L18,19.982z M18,13.349
			c-2.568,0-4.652,2.081-4.652,4.651c0,2.571,2.083,4.653,4.652,4.653c2.569,0,4.652-2.082,4.652-4.653
			C22.652,15.43,20.569,13.349,18,13.349z"/>
		<path fill-rule="evenodd" clip-rule="evenodd" fill="#009944" d="M34.939,18.774c0.194-0.199,0.315-0.474,0.315-0.774
			c0-0.299-0.121-0.572-0.315-0.776l-1.704-1.702l-3.206-3.205c-0.318-0.32-0.756-0.514-1.239-0.514
			c-0.968,0-1.752,0.784-1.752,1.755c0,0.482,0.194,0.921,0.512,1.239l3.206,3.204l-3.206,3.207
			c-0.318,0.315-0.512,0.757-0.512,1.237c0,0.97,0.784,1.757,1.752,1.757c0.487,0,0.923-0.201,1.242-0.517L34.939,18.774z"/>
		<path fill-rule="evenodd" clip-rule="evenodd" fill="#009944" d="M1.066,18.774c-0.197-0.199-0.319-0.474-0.319-0.774
			c0-0.299,0.122-0.572,0.319-0.776l1.701-1.702l3.205-3.205c0.319-0.32,0.755-0.514,1.24-0.514c0.968,0,1.755,0.784,1.755,1.755
			c0,0.482-0.199,0.921-0.516,1.239l-3.206,3.204l3.206,3.207c0.317,0.315,0.516,0.757,0.516,1.237c0,0.97-0.787,1.757-1.755,1.757
			c-0.485,0-0.922-0.201-1.24-0.517L1.066,18.774z"/>
		<path fill-rule="evenodd" clip-rule="evenodd" fill="#009944" d="M17.228,34.938c0.197,0.195,0.474,0.316,0.772,0.316
			c0.302,0,0.573-0.121,0.776-0.316l1.706-1.703l3.206-3.212c0.314-0.313,0.51-0.752,0.51-1.233c0-0.968-0.781-1.753-1.751-1.753
			c-0.485,0-0.923,0.196-1.241,0.514L18,30.754l-3.203-3.204c-0.319-0.318-0.759-0.514-1.241-0.514c-0.97,0-1.752,0.785-1.752,1.753
			c0,0.481,0.195,0.921,0.512,1.239L17.228,34.938z"/>
		<path fill-rule="evenodd" clip-rule="evenodd" fill="#009944" d="M17.228,1.061C17.425,0.867,17.701,0.747,18,0.747
			c0.302,0,0.573,0.12,0.776,0.314l1.706,1.704l3.206,3.205c0.314,0.319,0.51,0.758,0.51,1.243c0,0.967-0.781,1.75-1.751,1.75
			c-0.485,0-0.923-0.194-1.241-0.513L18,5.247L14.797,8.45c-0.319,0.319-0.759,0.513-1.241,0.513c-0.97,0-1.752-0.784-1.752-1.75
			c0-0.487,0.195-0.925,0.512-1.243L17.228,1.061z"/>
	</g>
	<g>
		<path fill="#333333" d="M63.195,11.557c0-0.179,0.065-0.339,0.195-0.477s0.285-0.208,0.465-0.208h1.37
			c0.163,0,0.314,0.069,0.453,0.208c0.138,0.139,0.208,0.298,0.208,0.477v9.888c0,0.179-0.065,0.335-0.196,0.464
			c-0.131,0.131-0.286,0.196-0.465,0.196h-1.37c-0.18,0-0.335-0.065-0.465-0.196c-0.131-0.13-0.195-0.285-0.195-0.464v-0.833h-5.678
			v7.49c0,0.179-0.066,0.338-0.196,0.477c-0.131,0.138-0.286,0.208-0.465,0.208h-1.444c-0.163,0-0.315-0.065-0.453-0.196
			c-0.139-0.131-0.208-0.294-0.208-0.489v-7.49h-5.678v1.004c0,0.179-0.065,0.339-0.196,0.477c-0.131,0.139-0.285,0.208-0.464,0.208
			h-1.371c-0.163,0-0.314-0.069-0.453-0.208c-0.139-0.139-0.208-0.298-0.208-0.477V11.63c0-0.179,0.065-0.339,0.196-0.477
			c0.13-0.139,0.285-0.208,0.464-0.208h1.371c0.179,0,0.334,0.069,0.464,0.208s0.196,0.298,0.196,0.477v0.196h5.678V7.763
			c0-0.179,0.065-0.339,0.196-0.477s0.285-0.208,0.465-0.208h1.444c0.163,0,0.314,0.069,0.453,0.208
			c0.139,0.139,0.209,0.298,0.209,0.477v4.063h5.678V11.557z M49.073,19.438h5.678v-6.437h-5.678V19.438z M57.517,19.438h5.678
			v-6.437h-5.678V19.438z"/>
		<path fill="#333333" d="M71.932,8.448c0-0.179,0.069-0.338,0.208-0.477c0.139-0.138,0.289-0.208,0.453-0.208h1.273
			c0.163,0,0.306,0.057,0.428,0.171c0.123,0.115,0.2,0.261,0.233,0.441h14.611c0-0.179,0.065-0.334,0.196-0.464
			c0.13-0.131,0.285-0.196,0.464-0.196h1.248c0.179,0,0.334,0.069,0.465,0.208c0.13,0.139,0.195,0.298,0.195,0.477v19.677
			c0,0.179-0.065,0.339-0.195,0.477c-0.131,0.139-0.286,0.208-0.465,0.208h-1.248c-0.179,0-0.335-0.069-0.464-0.208
			c-0.131-0.139-0.196-0.298-0.196-0.477v-0.685H74.526v0.66c0,0.179-0.065,0.335-0.196,0.465c-0.131,0.13-0.285,0.196-0.464,0.196
			h-1.273c-0.163,0-0.314-0.066-0.453-0.196c-0.139-0.131-0.208-0.286-0.208-0.465V8.448z M74.526,26.339h14.611V9.452H74.526
			V26.339z M76.215,17.21c0-0.081,0.037-0.163,0.11-0.245c0.073-0.081,0.159-0.123,0.257-0.123h3.794V13.05h-4.381
			c-0.261,0-0.391-0.131-0.391-0.392v-0.269c0-0.081,0.037-0.163,0.11-0.245c0.073-0.081,0.167-0.123,0.281-0.123h11.675
			c0.097,0,0.187,0.041,0.269,0.123c0.081,0.082,0.122,0.163,0.122,0.245v0.269c0,0.115-0.041,0.208-0.122,0.281
			c-0.082,0.074-0.172,0.111-0.269,0.111h-4.798v3.793h4.136c0.098,0,0.187,0.041,0.269,0.123c0.081,0.082,0.123,0.163,0.123,0.245
			v0.294c0,0.098-0.041,0.183-0.123,0.257c-0.082,0.073-0.171,0.111-0.269,0.111h-4.136v4.797h5.14c0.098,0,0.187,0.041,0.269,0.122
			c0.081,0.082,0.122,0.171,0.122,0.269v0.269c0,0.098-0.041,0.184-0.122,0.257c-0.082,0.073-0.171,0.11-0.269,0.11H75.627
			c-0.114,0-0.208-0.037-0.281-0.11s-0.11-0.159-0.11-0.257V23.06c0-0.098,0.037-0.187,0.11-0.269
			c0.073-0.081,0.167-0.122,0.281-0.122h4.748v-4.797h-3.794c-0.097,0-0.183-0.037-0.257-0.111c-0.073-0.073-0.11-0.159-0.11-0.257
			V17.21z M83.85,19.119c-0.049-0.081-0.012-0.191,0.111-0.33c0.122-0.139,0.249-0.184,0.379-0.135
			c0.57,0.229,1.056,0.473,1.456,0.734c0.399,0.261,0.713,0.498,0.942,0.71c0.179,0.18,0.285,0.367,0.319,0.563
			c0.032,0.195-0.017,0.449-0.147,0.758c-0.049,0.131-0.122,0.261-0.22,0.391c-0.098,0.131-0.221,0.253-0.367,0.367
			c-0.18,0.147-0.379,0.192-0.6,0.135c-0.22-0.057-0.395-0.257-0.526-0.599C84.854,20.817,84.405,19.952,83.85,19.119z"/>
		<path fill="#333333" d="M96.21,18.532c0.603-1.126,1.134-2.174,1.591-3.145c0.456-0.97,0.856-1.896,1.199-2.777
			s0.645-1.738,0.906-2.57c0.261-0.832,0.497-1.672,0.709-2.521c0.033-0.196,0.131-0.335,0.294-0.416
			c0.163-0.081,0.351-0.098,0.563-0.049l1.493,0.49c0.391,0.179,0.522,0.464,0.391,0.856c-0.343,0.93-0.694,1.803-1.052,2.619
			c-0.359,0.816-0.734,1.591-1.126,2.325c0.261,0.115,0.392,0.327,0.392,0.637v14.146c0,0.179-0.066,0.339-0.196,0.477
			c-0.131,0.139-0.286,0.208-0.465,0.208h-1.272c-0.18,0-0.335-0.069-0.465-0.208c-0.131-0.139-0.196-0.298-0.196-0.477V16.696
			c-0.702,0.898-1.444,1.713-2.227,2.447c-0.049,0.049-0.119,0.065-0.208,0.049c-0.09-0.016-0.168-0.057-0.233-0.122
			c-0.065-0.065-0.115-0.147-0.147-0.245C96.128,18.728,96.145,18.63,96.21,18.532z M101.937,28.224
			c0.571-0.554,1.089-1.081,1.554-1.578c0.465-0.498,0.889-0.987,1.273-1.469c0.382-0.48,0.726-0.958,1.028-1.432
			c0.301-0.472,0.583-0.954,0.844-1.444c0.13-0.261,0.285-0.404,0.464-0.429c0.179-0.024,0.4,0.029,0.661,0.159
			c0.114,0.065,0.289,0.159,0.526,0.281c0.237,0.123,0.42,0.241,0.551,0.355c0.261,0.179,0.408,0.359,0.441,0.539
			c0.033,0.179-0.065,0.416-0.293,0.709c-0.261,0.343-0.621,0.746-1.077,1.212c-0.457,0.465-0.975,0.935-1.554,1.407
			c-0.579,0.473-1.208,0.927-1.884,1.358c-0.677,0.433-1.375,0.796-2.093,1.089c-0.065,0.033-0.135,0.021-0.208-0.037
			s-0.139-0.127-0.196-0.208c-0.057-0.081-0.094-0.171-0.11-0.269C101.847,28.37,101.871,28.289,101.937,28.224z M102.402,20
			c0-0.114,0.041-0.212,0.123-0.293c0.081-0.082,0.179-0.123,0.293-0.123h3.402v-6.486h-2.471c-0.115,0-0.213-0.041-0.294-0.122
			c-0.082-0.082-0.123-0.188-0.123-0.319v-0.367c0-0.114,0.041-0.212,0.123-0.293c0.081-0.081,0.179-0.123,0.294-0.123h2.471V7.738
			c0-0.179,0.065-0.334,0.196-0.464c0.131-0.131,0.277-0.196,0.441-0.196h1.273c0.163,0,0.309,0.065,0.44,0.196
			s0.196,0.285,0.196,0.464v4.136h3.598V7.763c0-0.179,0.065-0.339,0.196-0.477c0.131-0.139,0.277-0.208,0.441-0.208h1.272
			c0.163,0,0.31,0.069,0.441,0.208c0.131,0.139,0.196,0.298,0.196,0.477v4.112h2.643c0.114,0,0.212,0.041,0.293,0.123
			c0.082,0.081,0.123,0.179,0.123,0.293v0.367c0,0.131-0.041,0.237-0.123,0.319c-0.081,0.081-0.179,0.122-0.293,0.122h-2.643v6.486
			h3.231c0.131,0,0.233,0.041,0.306,0.123c0.073,0.081,0.11,0.179,0.11,0.293v0.441c0,0.131-0.037,0.237-0.11,0.319
			c-0.073,0.081-0.175,0.122-0.306,0.122h-15.321c-0.114,0-0.212-0.041-0.293-0.122c-0.082-0.082-0.123-0.188-0.123-0.319V20z
			 M108.765,19.584h3.598v-6.486h-3.598V19.584z M111.922,22.864c-0.049-0.049-0.065-0.118-0.049-0.208
			c0.016-0.089,0.053-0.179,0.11-0.269c0.057-0.089,0.131-0.159,0.22-0.208c0.09-0.049,0.184-0.049,0.282,0
			c0.57,0.261,1.122,0.543,1.652,0.844c0.531,0.302,1.02,0.604,1.468,0.906c0.449,0.302,0.848,0.591,1.2,0.868
			c0.351,0.278,0.64,0.531,0.868,0.759c0.408,0.391,0.547,0.922,0.417,1.59c-0.049,0.229-0.127,0.457-0.233,0.686
			c-0.107,0.228-0.225,0.416-0.355,0.562c-0.277,0.327-0.558,0.493-0.844,0.502c-0.285,0.008-0.543-0.192-0.77-0.6
			c-0.523-0.897-1.106-1.795-1.75-2.692C113.493,24.708,112.755,23.794,111.922,22.864z"/>
		<path fill="#333333" d="M121.835,16.574c0.407-0.897,0.762-1.733,1.064-2.508c0.302-0.775,0.566-1.518,0.795-2.228
			c0.229-0.71,0.425-1.407,0.588-2.092c0.163-0.686,0.31-1.396,0.441-2.13c0.049-0.245,0.143-0.408,0.281-0.49
			c0.139-0.081,0.362-0.097,0.673-0.049c0.261,0.049,0.485,0.102,0.673,0.159c0.187,0.057,0.355,0.102,0.501,0.135
			c0.261,0.081,0.417,0.195,0.465,0.343c0.049,0.147,0.033,0.351-0.049,0.612c-0.098,0.327-0.205,0.649-0.319,0.966
			c-0.114,0.319-0.237,0.641-0.367,0.967h3.721c0.131,0,0.241,0.041,0.33,0.122c0.091,0.082,0.135,0.18,0.135,0.294v0.245
			c0,0.115-0.045,0.208-0.135,0.281c-0.089,0.074-0.199,0.111-0.33,0.111h-4.136c-0.245,0.554-0.502,1.097-0.771,1.627
			c-0.268,0.531-0.558,1.033-0.868,1.506h5.36c0.131,0,0.236,0.041,0.319,0.122c0.081,0.082,0.121,0.171,0.121,0.269v0.269
			c0,0.115-0.045,0.208-0.134,0.281c-0.089,0.074-0.193,0.111-0.306,0.111h-2.424v3.671h2.937c0.131,0,0.241,0.041,0.331,0.122
			c0.089,0.082,0.134,0.171,0.134,0.269v0.319c0,0.114-0.045,0.208-0.134,0.281c-0.091,0.073-0.193,0.11-0.306,0.11h-2.962v4.43
			l2.742-1.272c0.064-0.033,0.137-0.025,0.22,0.025c0.081,0.049,0.155,0.11,0.22,0.183c0.065,0.073,0.107,0.155,0.123,0.245
			c0.016,0.09,0,0.168-0.049,0.233c-0.261,0.294-0.562,0.616-0.905,0.967c-0.343,0.351-0.706,0.701-1.09,1.052
			c-0.383,0.351-0.779,0.705-1.187,1.064c-0.408,0.359-0.807,0.701-1.199,1.028c-0.473,0.375-0.856,0.351-1.15-0.073
			c-0.131-0.196-0.273-0.425-0.428-0.685c-0.155-0.261-0.257-0.465-0.306-0.612c-0.18-0.457-0.049-0.775,0.391-0.954l0.269-0.123
			V20.27h-2.349c-0.114,0-0.217-0.037-0.306-0.11c-0.09-0.073-0.135-0.167-0.135-0.281V19.56c0-0.098,0.045-0.187,0.135-0.269
			c0.089-0.081,0.192-0.122,0.306-0.122h2.349v-3.671h-1.297c-0.457,0.62-0.914,1.142-1.37,1.566
			c-0.049,0.049-0.115,0.061-0.196,0.037c-0.082-0.025-0.159-0.065-0.233-0.123c-0.073-0.057-0.131-0.126-0.171-0.208
			C121.806,16.688,121.801,16.623,121.835,16.574z M130.988,8.669c-0.033-0.049-0.037-0.11-0.013-0.184
			c0.025-0.073,0.07-0.143,0.135-0.208c0.065-0.065,0.139-0.114,0.22-0.147c0.081-0.033,0.172-0.025,0.269,0.025
			c0.604,0.31,1.154,0.636,1.652,0.979c0.497,0.343,0.894,0.693,1.187,1.052c0.178,0.196,0.282,0.392,0.306,0.588
			c0.024,0.196-0.005,0.408-0.086,0.636c-0.065,0.229-0.151,0.425-0.257,0.588c-0.107,0.163-0.225,0.318-0.355,0.464
			c-0.228,0.229-0.473,0.319-0.735,0.269c-0.261-0.049-0.448-0.228-0.562-0.538c-0.18-0.506-0.413-1.048-0.698-1.628
			S131.412,9.354,130.988,8.669z M138.502,27.073c-0.115-0.31-0.01-0.489,0.317-0.539l0.954-0.122
			c0.343-0.065,0.588-0.192,0.735-0.379c0.147-0.188,0.22-0.494,0.22-0.918v-1.958h-6.901v4.993c0,0.196-0.065,0.359-0.196,0.489
			c-0.131,0.131-0.285,0.196-0.465,0.196h-1.125c-0.164,0-0.315-0.065-0.454-0.196c-0.139-0.131-0.207-0.293-0.207-0.489V13.612
			c0-0.179,0.065-0.334,0.196-0.464c0.131-0.131,0.285-0.196,0.465-0.196h1.125c0.147,0,0.282,0.049,0.405,0.147
			c0.121,0.098,0.199,0.221,0.233,0.367h2.178V7.738c0-0.179,0.069-0.334,0.207-0.464c0.139-0.131,0.29-0.196,0.453-0.196h1.101
			c0.164,0,0.315,0.065,0.454,0.196s0.207,0.285,0.207,0.464v5.727h2.325c0.033-0.147,0.115-0.273,0.245-0.379
			c0.131-0.106,0.269-0.159,0.416-0.159h1.127c0.178,0,0.333,0.069,0.465,0.208c0.129,0.139,0.194,0.298,0.194,0.477v12.36
			c0,0.668-0.113,1.224-0.343,1.664c-0.228,0.441-0.628,0.75-1.198,0.93c-0.229,0.065-0.489,0.123-0.784,0.171
			c-0.293,0.049-0.596,0.081-0.905,0.098c-0.196,0.033-0.347,0.012-0.453-0.061c-0.107-0.073-0.217-0.208-0.331-0.404
			c-0.032-0.049-0.081-0.131-0.147-0.245c-0.065-0.114-0.131-0.237-0.196-0.367c-0.065-0.131-0.131-0.257-0.196-0.379
			C138.558,27.257,138.518,27.155,138.502,27.073z M133.827,17.774h6.901v-3.231h-6.901V17.774z M133.827,22.105h6.901V18.85h-6.901
			V22.105z M139.431,12.609c0.277-0.604,0.543-1.232,0.797-1.885c0.252-0.652,0.492-1.346,0.722-2.08
			c0.064-0.228,0.178-0.383,0.343-0.465c0.163-0.081,0.343-0.081,0.539,0c0.194,0.082,0.398,0.176,0.612,0.282
			c0.212,0.106,0.44,0.224,0.685,0.355c0.228,0.131,0.346,0.281,0.354,0.453c0.008,0.172-0.045,0.347-0.158,0.527
			c-0.18,0.261-0.392,0.535-0.637,0.82c-0.244,0.286-0.505,0.571-0.782,0.856c-0.279,0.286-0.567,0.563-0.87,0.833
			c-0.301,0.269-0.607,0.51-0.918,0.722c-0.081,0.065-0.167,0.09-0.257,0.073c-0.089-0.016-0.171-0.053-0.244-0.11
			c-0.075-0.057-0.127-0.123-0.159-0.196C139.423,12.719,139.415,12.658,139.431,12.609z"/>
		<path fill="#333333" d="M147.679,13.76c-0.065-0.114-0.094-0.209-0.086-0.282c0.008-0.073,0.053-0.159,0.135-0.257
			c0.081-0.131,0.155-0.2,0.221-0.208c0.065-0.008,0.155,0.004,0.269,0.037c0.701,0.195,1.334,0.437,1.896,0.722
			c0.563,0.286,0.992,0.559,1.285,0.82c0.196,0.18,0.314,0.379,0.355,0.6c0.041,0.22-0.013,0.501-0.159,0.844
			c-0.065,0.147-0.147,0.31-0.245,0.489c-0.098,0.18-0.229,0.359-0.392,0.539c-0.212,0.229-0.441,0.339-0.685,0.331
			c-0.245-0.009-0.465-0.209-0.66-0.6c-0.278-0.539-0.571-1.048-0.881-1.53C148.421,14.784,148.07,14.282,147.679,13.76z
			 M148.12,22.301c-0.065-0.196-0.017-0.367,0.147-0.514c0.179-0.179,0.367-0.196,0.563-0.049c0.147,0.131,0.297,0.269,0.453,0.417
			c0.155,0.147,0.322,0.31,0.502,0.489l2.741-6.73c0.033-0.065,0.098-0.102,0.196-0.11s0.196,0,0.294,0.024
			c0.098,0.025,0.183,0.066,0.257,0.123c0.073,0.057,0.102,0.127,0.086,0.208l-1.86,8.297c0.163,0.196,0.306,0.379,0.429,0.551
			c0.122,0.171,0.224,0.323,0.306,0.453c0.179,0.293,0.289,0.562,0.33,0.808c0.041,0.245-0.004,0.514-0.135,0.807
			c-0.081,0.179-0.195,0.375-0.343,0.588c-0.147,0.211-0.335,0.399-0.562,0.562c-0.327,0.229-0.608,0.318-0.844,0.269
			c-0.237-0.049-0.421-0.302-0.551-0.758c-0.213-0.751-0.498-1.599-0.856-2.545C148.911,24.243,148.527,23.28,148.12,22.301z
			 M149.539,8.008c-0.131-0.163-0.123-0.343,0.024-0.538c0.098-0.098,0.184-0.155,0.257-0.171c0.073-0.017,0.175-0.009,0.306,0.024
			c0.718,0.229,1.338,0.482,1.86,0.759c0.522,0.277,0.921,0.547,1.199,0.807c0.212,0.18,0.343,0.371,0.391,0.575
			c0.049,0.205,0,0.494-0.147,0.869c-0.049,0.163-0.119,0.335-0.208,0.514c-0.09,0.18-0.217,0.359-0.379,0.539
			c-0.229,0.229-0.474,0.33-0.735,0.306c-0.261-0.025-0.481-0.241-0.66-0.649c-0.278-0.523-0.575-1.04-0.894-1.554
			C150.237,8.975,149.898,8.482,149.539,8.008z M153.038,14.396c0.979-1.174,1.799-2.341,2.46-3.5c0.66-1.158,1.203-2.3,1.628-3.426
			c0.163-0.392,0.424-0.539,0.783-0.441l1.37,0.366c0.179,0.065,0.302,0.176,0.367,0.331c0.065,0.155,0.065,0.306,0,0.453
			l-0.514,0.979h10.108c0.098,0,0.187,0.041,0.269,0.123c0.081,0.082,0.123,0.171,0.123,0.269v0.343
			c0,0.098-0.041,0.183-0.123,0.257c-0.082,0.074-0.171,0.111-0.269,0.111h-10.793c-0.261,0.375-0.531,0.726-0.808,1.052
			c-0.278,0.327-0.555,0.652-0.833,0.978h0.245l0.832,0.049c0.179,0.033,0.335,0.094,0.465,0.183c0.13,0.09,0.212,0.225,0.245,0.404
			h6.779v-0.025c0-0.179,0.065-0.334,0.196-0.464c0.131-0.131,0.285-0.196,0.465-0.196l1.126,0.049c0.179,0,0.334,0.065,0.465,0.196
			c0.13,0.131,0.195,0.286,0.195,0.465c-0.033,0.962-0.065,1.889-0.098,2.778s-0.065,1.75-0.097,2.582h1.859
			c0.114,0,0.208,0.041,0.282,0.122c0.073,0.082,0.11,0.163,0.11,0.245v0.367c0,0.098-0.041,0.184-0.123,0.257
			c-0.081,0.073-0.163,0.11-0.245,0.11h-1.934c-0.033,0.8-0.069,1.558-0.11,2.276s-0.086,1.395-0.135,2.032h1.934
			c0.114,0,0.208,0.041,0.281,0.122c0.073,0.082,0.11,0.163,0.11,0.245v0.343c0,0.097-0.041,0.187-0.122,0.268
			c-0.082,0.082-0.163,0.123-0.245,0.123h-2.032c-0.017,0.098-0.029,0.192-0.037,0.281c-0.009,0.09-0.013,0.176-0.013,0.257
			c-0.081,0.963-0.261,1.697-0.538,2.203c-0.278,0.505-0.8,0.856-1.567,1.052c-0.473,0.114-1.068,0.195-1.786,0.245
			c-0.229,0-0.392-0.029-0.49-0.086c-0.097-0.057-0.195-0.167-0.293-0.33c-0.082-0.147-0.188-0.351-0.319-0.612
			c-0.131-0.261-0.229-0.482-0.293-0.661c-0.082-0.196-0.086-0.331-0.013-0.404c0.074-0.073,0.184-0.119,0.331-0.135l1.199-0.147
			c0.425-0.081,0.739-0.2,0.942-0.355c0.204-0.155,0.322-0.469,0.355-0.942c0-0.065,0.003-0.127,0.012-0.184
			c0.008-0.057,0.012-0.118,0.012-0.183h-7.635l-0.025,0.318c-0.017,0.245-0.102,0.417-0.257,0.515
			c-0.155,0.097-0.347,0.131-0.574,0.097l-0.833-0.073c-0.212-0.033-0.391-0.114-0.539-0.245c-0.147-0.131-0.204-0.318-0.171-0.563
			l0.661-5.457h-1.469c-0.097,0-0.183-0.037-0.257-0.11c-0.073-0.073-0.11-0.159-0.11-0.257v-0.367c0-0.081,0.037-0.163,0.11-0.245
			c0.073-0.081,0.159-0.122,0.257-0.122h1.616l0.66-5.409c-0.441,0.425-0.881,0.812-1.322,1.163
			c-0.44,0.351-0.864,0.656-1.272,0.918c-0.082,0.065-0.163,0.081-0.245,0.049c-0.082-0.033-0.151-0.085-0.208-0.159
			c-0.057-0.073-0.102-0.159-0.135-0.257C152.981,14.518,152.99,14.445,153.038,14.396z M164.86,23.721
			c0.049-0.686,0.098-1.379,0.147-2.081c0.049-0.701,0.089-1.444,0.122-2.227h-7.318l-0.539,4.308H164.86z M165.325,14.029h-6.828
			l-0.539,4.283h7.22L165.325,14.029z M159.818,20.245c-0.065-0.114-0.037-0.241,0.085-0.379c0.123-0.139,0.257-0.175,0.404-0.11
			c0.604,0.261,1.093,0.514,1.469,0.758c0.374,0.245,0.685,0.482,0.93,0.71c0.196,0.196,0.31,0.388,0.343,0.575
			c0.033,0.188,0.008,0.379-0.073,0.575c-0.082,0.196-0.176,0.359-0.281,0.489c-0.107,0.131-0.209,0.245-0.306,0.343
			c-0.196,0.179-0.425,0.277-0.686,0.293c-0.261,0.017-0.449-0.139-0.562-0.465c-0.098-0.277-0.192-0.526-0.281-0.746
			c-0.09-0.221-0.184-0.437-0.282-0.649c-0.098-0.211-0.208-0.428-0.33-0.649C160.124,20.771,159.981,20.523,159.818,20.245z
			 M160.088,14.934c-0.065-0.098-0.037-0.208,0.085-0.331c0.123-0.122,0.265-0.159,0.429-0.11c0.571,0.229,1.044,0.453,1.42,0.673
			c0.375,0.22,0.693,0.445,0.954,0.673c0.196,0.179,0.31,0.367,0.343,0.562c0.033,0.196,0.008,0.384-0.073,0.563
			c-0.082,0.196-0.171,0.359-0.269,0.489c-0.098,0.131-0.196,0.237-0.294,0.319c-0.196,0.179-0.425,0.277-0.685,0.293
			c-0.261,0.017-0.449-0.138-0.563-0.464c-0.195-0.523-0.387-0.967-0.574-1.334C160.671,15.901,160.413,15.457,160.088,14.934z"/>
		<path fill="#333333" d="M173.23,28.077c1.306-1.061,2.472-2.141,3.5-3.243c1.029-1.101,1.938-2.279,2.729-3.536
			c0.791-1.256,1.464-2.627,2.019-4.112c0.554-1.484,1.012-3.141,1.37-4.968h-3.793c-0.555,1.273-1.191,2.456-1.909,3.549
			c0.62,0.327,1.13,0.636,1.53,0.93c0.399,0.294,0.722,0.579,0.966,0.856c0.179,0.18,0.285,0.367,0.318,0.563
			c0.033,0.196,0.009,0.441-0.073,0.734c-0.081,0.229-0.167,0.429-0.257,0.6c-0.09,0.171-0.208,0.339-0.355,0.502
			c-0.179,0.179-0.387,0.277-0.624,0.293c-0.237,0.017-0.421-0.138-0.551-0.464c-0.147-0.343-0.278-0.652-0.392-0.931
			c-0.114-0.277-0.233-0.534-0.355-0.77c-0.123-0.237-0.249-0.469-0.379-0.698c-0.131-0.228-0.278-0.473-0.441-0.734
			c-0.392,0.554-0.808,1.076-1.248,1.566c-0.441,0.489-0.914,0.97-1.42,1.444c-0.049,0.049-0.119,0.061-0.208,0.037
			c-0.09-0.025-0.171-0.073-0.245-0.147c-0.073-0.073-0.131-0.159-0.171-0.257c-0.041-0.098-0.037-0.187,0.012-0.269
			c0.456-0.685,0.906-1.464,1.346-2.337c0.441-0.873,0.852-1.799,1.236-2.778c0.383-0.979,0.726-2.003,1.028-3.071
			c0.302-1.069,0.551-2.15,0.746-3.243c0.033-0.179,0.119-0.326,0.257-0.441c0.139-0.114,0.297-0.155,0.477-0.122l1.738,0.343
			c0.163,0.033,0.289,0.118,0.379,0.257s0.11,0.298,0.061,0.477c-0.163,0.523-0.327,1.029-0.489,1.518
			c-0.163,0.489-0.335,0.963-0.514,1.42h3.548l0.049-0.245c0.033-0.163,0.123-0.301,0.269-0.416c0.147-0.114,0.31-0.155,0.49-0.122
			l1.493,0.269c0.179,0.033,0.314,0.122,0.403,0.268c0.09,0.147,0.119,0.311,0.086,0.49c-0.441,2.251-0.971,4.242-1.591,5.972
			c-0.62,1.73-1.399,3.279-2.337,4.649c-0.938,1.371-2.076,2.619-3.414,3.745c-1.338,1.126-2.937,2.218-4.797,3.279
			c-0.082,0.033-0.167,0.02-0.257-0.037c-0.089-0.057-0.167-0.135-0.233-0.233c-0.065-0.098-0.102-0.204-0.11-0.318
			C173.112,28.232,173.148,28.142,173.23,28.077z M187.67,7.788c0-0.179,0.065-0.335,0.196-0.465
			c0.131-0.13,0.285-0.196,0.465-0.196h1.37c0.179,0,0.335,0.066,0.465,0.196c0.13,0.131,0.195,0.286,0.195,0.465v6.534
			c1.322,0.685,2.382,1.314,3.182,1.885c0.799,0.571,1.387,1.068,1.762,1.493c0.163,0.179,0.261,0.408,0.294,0.685
			c0.032,0.277,0.008,0.571-0.074,0.881c-0.081,0.245-0.167,0.457-0.257,0.636c-0.09,0.18-0.208,0.359-0.355,0.539
			c-0.179,0.213-0.408,0.327-0.685,0.343c-0.277,0.017-0.506-0.147-0.685-0.489c-0.425-0.767-0.906-1.538-1.444-2.313
			c-0.539-0.775-1.118-1.554-1.738-2.337V28.15c0,0.179-0.065,0.334-0.195,0.465c-0.131,0.13-0.286,0.195-0.465,0.195h-1.37
			c-0.18,0-0.335-0.065-0.465-0.195c-0.131-0.131-0.196-0.286-0.196-0.465V7.788z"/>
		<path fill="#333333" d="M199.026,28.126c0.686-0.685,1.273-1.326,1.762-1.921c0.49-0.596,0.893-1.175,1.212-1.738
			c0.318-0.563,0.566-1.13,0.747-1.701c0.179-0.571,0.314-1.183,0.404-1.836c0.089-0.652,0.147-1.366,0.171-2.141
			c0.024-0.775,0.037-1.644,0.037-2.607l-0.025-4.112c0-0.179,0.057-0.339,0.171-0.477s0.294-0.208,0.539-0.208h0.71
			c0.245,0,0.424,0.073,0.539,0.22c0.114,0.147,0.171,0.311,0.171,0.49v4.087c0,1.272-0.037,2.415-0.111,3.427
			c-0.073,1.012-0.224,1.934-0.453,2.765c0.897,0.489,1.717,0.979,2.46,1.468c0.742,0.49,1.3,0.923,1.676,1.297
			c0.261,0.261,0.391,0.519,0.391,0.771c0,0.253-0.049,0.518-0.147,0.795c-0.082,0.196-0.18,0.392-0.294,0.588
			c-0.114,0.196-0.237,0.359-0.366,0.489c-0.196,0.179-0.404,0.257-0.625,0.233c-0.22-0.025-0.42-0.217-0.599-0.575
			c-0.376-0.669-0.783-1.334-1.224-1.995c-0.441-0.66-0.963-1.382-1.566-2.165c-0.392,1.06-0.984,2.023-1.775,2.888
			c-0.791,0.864-1.888,1.746-3.292,2.643c-0.081,0.049-0.163,0.053-0.245,0.013c-0.081-0.041-0.155-0.102-0.22-0.184
			c-0.065-0.081-0.107-0.171-0.123-0.269C198.936,28.273,198.96,28.191,199.026,28.126z M214.591,26.951
			c-0.131-0.311-0.049-0.481,0.245-0.514c0.327-0.049,0.669-0.098,1.029-0.147c0.359-0.049,0.645-0.098,0.856-0.147
			c0.408-0.081,0.677-0.233,0.808-0.453c0.13-0.221,0.212-0.567,0.245-1.04c0.016-0.424,0.033-0.975,0.049-1.652
			c0.016-0.676,0.033-1.423,0.049-2.239c0.016-0.816,0.028-1.673,0.037-2.57c0.008-0.897,0.02-1.77,0.037-2.619
			c0.016-0.848,0.028-1.652,0.037-2.411c0.008-0.758,0.012-1.407,0.012-1.946h-5.286c-0.473,0.864-1.012,1.688-1.616,2.471
			c-0.604,0.783-1.256,1.461-1.957,2.032c-0.065,0.049-0.139,0.053-0.221,0.013c-0.081-0.041-0.155-0.102-0.22-0.184v5.678
			c0,0.196-0.065,0.359-0.196,0.49c-0.131,0.131-0.277,0.195-0.441,0.195h-0.906c-0.163,0-0.31-0.065-0.441-0.195
			c-0.131-0.131-0.195-0.294-0.195-0.49V9.623h-4.234v12.262c0,0.195-0.061,0.359-0.183,0.489c-0.123,0.131-0.273,0.196-0.453,0.196
			h-0.856c-0.163,0-0.31-0.065-0.441-0.196c-0.131-0.131-0.196-0.294-0.196-0.489V8.498c0-0.179,0.065-0.335,0.196-0.465
			c0.131-0.131,0.277-0.196,0.441-0.196h0.856c0.163,0,0.306,0.057,0.429,0.171c0.123,0.115,0.191,0.261,0.208,0.441h4.234
			c0-0.179,0.065-0.33,0.195-0.453c0.131-0.123,0.277-0.183,0.441-0.183h0.906c0.163,0,0.31,0.065,0.441,0.195
			c0.131,0.131,0.196,0.286,0.196,0.465v6.511c0.668-1.273,1.244-2.505,1.726-3.696c0.48-1.191,0.884-2.423,1.211-3.696
			c0.049-0.196,0.143-0.347,0.281-0.453c0.139-0.106,0.339-0.127,0.6-0.061l1.175,0.367c0.228,0.082,0.359,0.204,0.391,0.367
			c0.033,0.163,0.008,0.351-0.073,0.562c-0.115,0.278-0.233,0.567-0.355,0.869c-0.123,0.302-0.257,0.599-0.404,0.893h4.747V9.843
			c-0.033-0.457,0.204-0.676,0.71-0.66l1.077,0.049c0.277,0.017,0.465,0.086,0.562,0.209c0.098,0.122,0.147,0.289,0.147,0.501
			c0,0.115-0.004,0.514-0.013,1.2c-0.008,0.685-0.02,1.53-0.037,2.533c-0.016,1.004-0.033,2.097-0.049,3.28
			c-0.017,1.183-0.037,2.333-0.061,3.45c-0.025,1.118-0.049,2.134-0.073,3.047s-0.053,1.599-0.086,2.055
			c-0.033,0.719-0.167,1.322-0.403,1.811c-0.237,0.49-0.641,0.848-1.212,1.077c-0.294,0.114-0.592,0.204-0.893,0.269
			c-0.303,0.065-0.731,0.123-1.285,0.171c-0.278,0.033-0.477,0.025-0.6-0.025c-0.122-0.049-0.249-0.171-0.379-0.366
			c-0.098-0.147-0.229-0.376-0.391-0.686C214.845,27.448,214.705,27.179,214.591,26.951z M209.109,22.057
			c-0.065-0.473,0.114-0.726,0.539-0.759h0.049c0.555-1.19,1.052-2.402,1.493-3.634c0.441-1.232,0.808-2.394,1.102-3.487
			c0.065-0.229,0.174-0.367,0.33-0.416c0.155-0.049,0.355-0.033,0.6,0.049l1.003,0.392c0.375,0.179,0.473,0.464,0.294,0.856
			c-0.179,0.457-0.404,0.958-0.673,1.505c-0.269,0.547-0.554,1.098-0.856,1.652c-0.302,0.554-0.624,1.093-0.966,1.615
			c-0.343,0.523-0.677,0.988-1.004,1.395l3.794-0.269c-0.131-0.375-0.286-0.783-0.465-1.224c-0.18-0.441-0.383-0.922-0.612-1.444
			c-0.033-0.065-0.033-0.135,0-0.208c0.033-0.073,0.077-0.135,0.135-0.184c0.057-0.049,0.126-0.081,0.208-0.098
			c0.081-0.016,0.147,0,0.196,0.049c0.783,0.685,1.428,1.338,1.934,1.957c0.505,0.621,0.848,1.134,1.028,1.542
			c0.179,0.391,0.163,0.824-0.049,1.297c-0.082,0.147-0.188,0.315-0.319,0.502c-0.131,0.187-0.277,0.347-0.441,0.477
			c-0.179,0.131-0.375,0.163-0.587,0.098s-0.359-0.261-0.441-0.588l-0.269-1.15c-0.31,0.131-0.66,0.268-1.052,0.416
			c-0.391,0.147-0.808,0.293-1.248,0.441c-0.441,0.147-0.889,0.293-1.346,0.441c-0.457,0.147-0.906,0.277-1.346,0.391
			c-0.229,0.065-0.4,0.07-0.514,0.013s-0.212-0.217-0.294-0.477L209.109,22.057z"/>
	</g>
</g>
</svg>
