<?xml version="1.0" encoding="UTF-8" standalone="no"?>
<svg width="13px" height="11px" viewBox="0 0 13 11" version="1.1" xmlns="http://www.w3.org/2000/svg" xmlns:xlink="http://www.w3.org/1999/xlink" xmlns:sketch="http://www.bohemiancoding.com/sketch/ns">
    <!-- Generator: Sketch 3.4 (15575) - http://www.bohemiancoding.com/sketch -->
    <title>Imported Layers</title>
    <desc>Created with Sketch.</desc>
    <defs></defs>
    <g id="Page-1" stroke="none" stroke-width="1" fill="none" fill-rule="evenodd" sketch:type="MSPage">
        <g id="美妆首页-copy-2" sketch:type="MSArtboardGroup" transform="translate(-389.000000, -504.000000)" fill="#FFFFFF">
            <g id="Group" sketch:type="MSLayerGroup" transform="translate(388.000000, 259.000000)">
                <path d="M4.39142986,249.17348 L6.62980065,255.107647 L1.15294671,249.17348 L4.39142986,249.17348 L4.39142986,249.17348 Z M8.54811525,245.67348 L10.063958,248.506814 L5.00036245,248.506814 L6.24586806,245.67348 L8.54811525,245.67348 L8.54811525,245.67348 Z M9.98828379,249.17348 L7.53232874,255.627147 L5.10401413,249.17348 L9.98828379,249.17348 L9.98828379,249.17348 Z M10.7079467,249.17348 L13.8001377,249.17348 L8.45895795,255.056814 L10.7079467,249.17348 L10.7079467,249.17348 Z M13.7644074,248.506814 L10.8265984,248.506814 L9.31092424,245.67348 L10.4369355,245.67348 L13.7644074,248.506814 L13.7644074,248.506814 Z M4.06614896,245.67348 L5.50901413,245.67348 L4.26165458,248.506814 L1.1104748,248.506814 L4.06614896,245.67348 L4.06614896,245.67348 Z" id="Imported-Layers" sketch:type="MSShapeGroup"></path>
            </g>
        </g>
    </g>
</svg>