<?xml version="1.0" encoding="UTF-8" standalone="no"?>
<svg width="27px" height="33px" viewBox="0 0 27 33" version="1.1" xmlns="http://www.w3.org/2000/svg" xmlns:xlink="http://www.w3.org/1999/xlink" xmlns:sketch="http://www.bohemiancoding.com/sketch/ns">
    <!-- Generator: Sketch 3.4 (15575) - http://www.bohemiancoding.com/sketch -->
    <title>icon-footer3</title>
    <desc>Created with Sketch.</desc>
    <defs></defs>
    <g id="Page-1" stroke="none" stroke-width="1" fill="none" fill-rule="evenodd" sketch:type="MSPage">
        <g id="美妆首页-copy-2" sketch:type="MSArtboardGroup" transform="translate(-887.000000, -4561.000000)" fill="#FFFFFF">
            <g id="icon-footer3" sketch:type="MSLayerGroup" transform="translate(887.000000, 4561.000000)">
                <path d="M25.8496597,5.45923529 L21.3355895,1.01394118 C21.0110274,0.694941176 20.5808691,0.518941176 20.1247977,0.518941176 L2.25314813,0.518941176 C1.30213563,0.518941176 0.528628197,1.29152941 0.528628197,2.24141176 L0.528628197,31.0167647 C0.528628197,31.9672941 1.30213563,32.7405294 2.25314813,32.7405294 L24.6382201,32.7405294 C25.5892326,32.7405294 26.3640357,31.9672941 26.3640357,31.0167647 L26.3640357,6.68541176 C26.3640357,6.22729412 26.1761654,5.78017647 25.8496597,5.45923529 L25.8496597,5.45923529 Z M24.5928721,6.039 L20.7771612,6.039 L20.7732742,2.27829412 L24.5928721,6.039 L24.5928721,6.039 Z M24.6382201,31.4464118 L2.25314813,31.4464118 C2.01669066,31.4464118 1.82428554,31.2535882 1.82428554,31.0167647 L1.82428554,2.24141176 C1.82428554,2.00523529 2.01669066,1.81305882 2.25314813,1.81305882 L19.4769691,1.81305882 L19.4821517,6.68670588 C19.4827995,7.04388235 19.7730268,7.33311765 20.1299804,7.33311765 L25.0683783,7.33311765 L25.0683783,31.0167647 C25.0683783,31.2535882 24.8753254,31.4464118 24.6382201,31.4464118 L24.6382201,31.4464118 Z" id="Fill-1" sketch:type="MSShapeGroup"></path>
                <path d="M21.5195729,23.1815294 L10.9340523,23.1815294 C10.5764509,23.1815294 10.2862237,23.4707647 10.2862237,23.8285882 C10.2862237,24.1864118 10.5764509,24.4756471 10.9340523,24.4756471 L21.5195729,24.4756471 C21.8771743,24.4756471 22.1674015,24.1864118 22.1674015,23.8285882 C22.1674015,23.4707647 21.8771743,23.1815294 21.5195729,23.1815294" id="Fill-2" sketch:type="MSShapeGroup"></path>
                <path d="M21.5195729,17.5521176 L10.9340523,17.5521176 C10.5764509,17.5521176 10.2862237,17.8413529 10.2862237,18.1991765 C10.2862237,18.557 10.5764509,18.8462353 10.9340523,18.8462353 L21.5195729,18.8462353 C21.8771743,18.8462353 22.1674015,18.557 22.1674015,18.1991765 C22.1674015,17.8413529 21.8771743,17.5521176 21.5195729,17.5521176" id="Fill-3" sketch:type="MSShapeGroup"></path>
                <path d="M21.5195729,11.9227059 L10.9340523,11.9227059 C10.5764509,11.9227059 10.2862237,12.2119412 10.2862237,12.5697647 C10.2862237,12.9269412 10.5764509,13.2168235 10.9340523,13.2168235 L21.5195729,13.2168235 C21.8771743,13.2168235 22.1674015,12.9269412 22.1674015,12.5697647 C22.1674015,12.2119412 21.8771743,11.9227059 21.5195729,11.9227059" id="Fill-4" sketch:type="MSShapeGroup"></path>
                <path d="M7.52906484,11.0232941 L5.72810113,11.0232941 C5.3704997,11.0232941 5.08027246,11.3125294 5.08027246,11.6703529 L5.08027246,13.4691765 C5.08027246,13.827 5.3704997,14.1162353 5.72810113,14.1162353 L7.52906484,14.1162353 C7.88666627,14.1162353 8.17689352,13.827 8.17689352,13.4691765 L8.17689352,11.6703529 C8.17689352,11.3125294 7.88666627,11.0232941 7.52906484,11.0232941" id="Fill-5" sketch:type="MSShapeGroup"></path>
                <path d="M7.52906484,16.6527059 L5.72810113,16.6527059 C5.3704997,16.6527059 5.08027246,16.9419412 5.08027246,17.2997647 L5.08027246,19.0992353 C5.08027246,19.4564118 5.3704997,19.7462941 5.72810113,19.7462941 L7.52906484,19.7462941 C7.88666627,19.7462941 8.17689352,19.4564118 8.17689352,19.0992353 L8.17689352,17.2997647 C8.17689352,16.9419412 7.88666627,16.6527059 7.52906484,16.6527059" id="Fill-6" sketch:type="MSShapeGroup"></path>
                <path d="M7.52906484,22.2821176 L5.72810113,22.2821176 C5.3704997,22.2821176 5.08027246,22.572 5.08027246,22.9291765 L5.08027246,24.7286471 C5.08027246,25.0858235 5.3704997,25.3757059 5.72810113,25.3757059 L7.52906484,25.3757059 C7.88666627,25.3757059 8.17689352,25.0858235 8.17689352,24.7286471 L8.17689352,22.9291765 C8.17689352,22.572 7.88666627,22.2821176 7.52906484,22.2821176" id="Fill-7" sketch:type="MSShapeGroup"></path>
            </g>
        </g>
    </g>
</svg>