<svg xmlns="http://www.w3.org/2000/svg" xmlns:xlink="http://www.w3.org/1999/xlink" width="40" height="80" viewBox="0 0 40 80"><svg width="40" height="40" viewBox="-10 -10 40 40" id="alipay" y="0"><title>Clip 5 Copy + Path</title><defs><path id="aaa" d="M10 20c5.523 0 10-4.477 10-10S15.523 0 10 0 0 4.477 0 10s4.477 10 10 10z"/></defs><g fill="none" fill-rule="evenodd"><use fill="#0AE" xlink:href="#aaa"/><path d="M8.97 6.05V4.443h1.775V6.05h3.622v.704l-3.622.024v.997l2.99.024s-.054.558-.433 1.575c-.38 1.017-.734 1.536-.734 1.536l5.803 1.905s-.208.544-.458 1.022c-.25.477-.6.99-.6.99L11.765 12.2s-1.05 1.16-2.12 1.67-2.297.828-3.627.514c-1.33-.313-2.275-1.164-2.113-2.734.163-1.57 1.84-2.112 3.222-2.112 1.38 0 4 .894 4 .894s.22-.493.434-1.057c.214-.563.274-1.017.274-1.017H6.26v-.56h2.71V6.73l-3.38.026V6.05h3.38zm1.492 5.5s-1.66 1.974-3.618 1.974c-1.957 0-2.368-.937-2.368-1.61 0-.676.407-1.408 2.072-1.514 1.665-.106 3.914 1.15 3.914 1.15z" fill="#FFF"/></g></svg>
<svg width="40" height="40" viewBox="-10 -10 40 40" id="wechat" y="40"><title>Imported Layers Copy 3</title><g fill="none" fill-rule="evenodd"><path d="M10 0C4.48 0 0 4.478 0 10s4.48 10 10 10 9.998-4.478 9.998-10S15.52 0 10 0z" fill="#64B406"/><path d="M16.06 15.14l.43 1.427-1.565-.857c-.57.143-1.144.286-1.712.286-2.715 0-4.853-1.855-4.853-4.14 0-2.282 2.138-4.14 4.853-4.14 2.563 0 4.846 1.858 4.846 4.14 0 1.286-.853 2.426-2 3.284z" fill="#FFF"/><path d="M7.645 13.142c-.713 0-1.285-.145-2-.286l-1.994 1 .572-1.717c-1.428-1-2.284-2.285-2.284-3.852 0-2.715 2.57-4.853 5.707-4.853 2.804 0 5.262 1.707 5.756 4.007-.18-.02-.363-.034-.548-.034-2.71 0-4.85 2.023-4.85 4.516 0 .414.064.814.175 1.196-.176.014-.353.022-.532.022z" fill="#FFF"/><path d="M11.528 9.585c-.273 0-.547.275-.547.547 0 .277.275.548.548.548.414 0 .685-.27.685-.548 0-.272-.27-.547-.685-.547M14.538 9.585c-.27 0-.544.275-.544.547 0 .277.273.548.544.548.41 0 .685-.27.685-.548 0-.272-.275-.547-.685-.547M5.918 5.616c-.41 0-.824.27-.824.683 0 .41.414.684.824.684S6.6 6.71 6.6 6.3c0-.413-.272-.684-.682-.684M9.748 6.984c.412 0 .685-.275.685-.685 0-.413-.273-.684-.685-.684-.41 0-.822.27-.822.683 0 .41.412.684.822.684" fill="#64B406"/></g></svg>
</svg>