<svg xmlns="http://www.w3.org/2000/svg" xmlns:xlink="http://www.w3.org/1999/xlink" width="167" height="515" viewBox="0 0 167 515"><svg width="60" height="51" viewBox="-10 -10 60 51" id="car" y="0"><title>icon-footer4</title><g fill="#FFF" fill-rule="evenodd"><path d="M38.718 19.158v-5.694c0-4.595-3.025-6.972-3.154-7.07-.137-.106-.305-.163-.478-.163H27.91V1.49c0-.435-.35-.787-.784-.787H1.356c-.433 0-.784.352-.784.786v18.45c0 .433.35.785.785.785h.828v3.303c0 .435.35.786.784.786h2.505c-.088.355-.14.724-.14 1.106 0 2.512 2.04 4.556 4.548 4.556s4.548-2.044 4.548-4.556c0-.382-.05-.75-.14-1.106h13.334c-.088.355-.14.724-.14 1.106 0 2.512 2.04 4.556 4.548 4.556s4.548-2.044 4.548-4.556c0-.382-.052-.75-.142-1.106h2.195c.434 0 .784-.35.784-.786v-4.09c0-.404-.306-.737-.7-.78zm-1.568-5.694v.257H34.1V7.804h.695c.586.543 2.355 2.45 2.355 5.66zm-9.24-5.66h4.62v5.917h-4.62V7.804zM2.14 2.273h24.2v16.88H2.14V2.273zm7.743 26.63c-1.644 0-2.98-1.337-2.98-2.984 0-1.646 1.336-2.984 2.98-2.984 1.642 0 2.98 1.338 2.98 2.984 0 1.647-1.338 2.985-2.98 2.985zm22.15 0c-1.645 0-2.98-1.337-2.98-2.984 0-1.646 1.335-2.984 2.98-2.984 1.642 0 2.98 1.338 2.98 2.984 0 1.647-1.338 2.985-2.98 2.985zm5.816-5.66h-2.146c-.83-1.137-2.164-1.88-3.672-1.88-1.51 0-2.845.743-3.672 1.88H13.555c-.83-1.137-2.164-1.88-3.672-1.88-1.51 0-2.845.743-3.672 1.88H3.755v-2.52h23.372c.434 0 .785-.35.785-.785V15.29h9.24v4.647c0 .404.306.737.7.78v2.523z"/><path d="M32.03 24.894c-.563 0-1.023.46-1.023 1.026 0 .566.46 1.027 1.024 1.027.566 0 1.026-.46 1.026-1.027 0-.566-.46-1.026-1.025-1.026M9.882 24.894c-.564 0-1.025.46-1.025 1.026 0 .566.46 1.027 1.025 1.027.566 0 1.025-.46 1.025-1.027 0-.566-.46-1.026-1.025-1.026M29.68 2.606h.005c1.998 0 3.8 2.387 3.818 2.412.153.207.39.316.63.316.163 0 .326-.05.466-.155.347-.26.42-.75.162-1.098-.09-.125-2.284-3.047-5.077-3.047h-.007c-.433 0-.783.352-.782.787 0 .433.35.784.784.784"/></g></svg>
<svg width="56" height="60" viewBox="-10 -10 56 60" id="cart" y="51"><title>icon-footer2</title><g fill="#FFF" fill-rule="evenodd"><path d="M31.428 30.155L20.915 33.07c-.77-1.598-2.402-2.707-4.293-2.707-.22 0-.436.02-.65.05L7.762.813c-.12-.42-.555-.667-.976-.55-.422.115-.668.552-.552.974L7.29 5.044H1.113c-.438 0-.79.354-.79.792 0 .438.352.792.79.792H7.57c.055 0 .1-.02.152-.03l6.737 24.29c-1.544.79-2.606 2.392-2.606 4.24 0 2.63 2.14 4.768 4.768 4.768 2.628 0 4.767-2.138 4.767-4.767 0-.182-.013-.36-.033-.536l10.495-2.912c.422-.117.668-.554.55-.976-.116-.42-.553-.665-.974-.55zm-14.806 8.157c-1.756 0-3.184-1.428-3.184-3.183s1.428-3.183 3.184-3.183c1.755 0 3.183 1.428 3.183 3.182s-1.428 3.182-3.183 3.182z"/><path d="M35.744 25.244l-4.26-15.358c-.058-.202-.19-.375-.374-.478-.184-.104-.4-.13-.602-.074l-15.358 4.26c-.42.118-.668.555-.55.976l4.26 15.358c.097.35.416.58.762.58.07 0 .142-.01.213-.03l15.357-4.26c.202-.056.375-.19.478-.372.104-.183.13-.4.074-.602zm-15.57 3.497l-3.837-13.83 13.83-3.838 3.84 13.832-13.833 3.837z"/><path d="M25.238 18.422c.09.035.183.05.275.05.32 0 .624-.197.742-.516l.125-.336 1.218 4.35c.1.35.417.58.763.58.072 0 .144-.01.215-.03.42-.118.667-.555.55-.976l-1.22-4.35.28.222c.345.272.843.213 1.113-.13.272-.343.214-.84-.128-1.112l-2.192-1.736c-.198-.157-.46-.21-.706-.14-.244.067-.44.248-.53.486l-.972 2.62c-.152.41.057.866.468 1.018"/><path d="M22.865 23.298c.098.35.416.58.76.58.073 0 .145-.01.216-.03.422-.118.668-.556.55-.977l-1.22-4.35.282.222c.343.272.842.213 1.113-.13.27-.343.213-.842-.13-1.113l-2.192-1.736c-.198-.158-.46-.21-.705-.142-.244.068-.44.25-.53.488l-.97 2.62c-.153.41.056.866.466 1.02.09.032.184.048.275.048.322 0 .623-.197.742-.516l.124-.335 1.22 4.35M22.726 24.726c-.422.118-.668.555-.55.976.098.35.416.58.762.58.072 0 .144-.01.214-.03l7.26-2.033c.422-.118.667-.556.55-.977-.12-.42-.56-.666-.977-.55l-7.26 2.033M16.622 33.77c-.75 0-1.36.61-1.36 1.36 0 .75.61 1.36 1.36 1.36.75 0 1.36-.61 1.36-1.36 0-.75-.61-1.36-1.36-1.36"/></g></svg>
<svg width="57" height="56" viewBox="-10 -10 57 56" id="earth" y="111"><title>icon-footer1</title><path d="M36.223 18c0-9.858-8.017-17.887-17.91-17.995-.037 0-.072-.005-.11-.005v.002L18.114 0h-.05l-.06.003C8.066.06 0 8.11 0 18c0 9.89 8.066 17.938 18.003 17.997l.06.003h.05l.09-.002V36c.038 0 .073-.004.11-.005 9.893-.108 17.91-8.137 17.91-17.995zm-34.736.73h7.16c.047 2.35.32 4.57.78 6.588H3.19c-1-2.003-1.6-4.232-1.705-6.59zm33.25-1.46h-7.12c-.045-2.306-.307-4.487-.75-6.474h6.224c.965 1.973 1.544 4.162 1.646 6.474zm-8.587 0h-7.304v-6.474h6.488c.476 1.983.764 4.175.816 6.474zm-7.304-7.933V1.52c2.537.446 4.78 3.49 6.092 7.817h-6.092zm-1.468-7.81v7.81h-6.05c1.305-4.302 3.53-7.338 6.05-7.81zm0 9.27v6.473h-7.262c.05-2.3.34-4.49.815-6.474h6.448zm-8.73 6.473h-7.16c.1-2.312.68-4.5 1.644-6.474h6.266c-.442 1.987-.704 4.168-.75 6.474zm1.468 1.46h7.262v6.588H10.96c-.492-2.013-.792-4.246-.844-6.59zm7.262 8.047v7.695c-2.497-.467-4.705-3.453-6.015-7.695h6.015zm1.468 7.702v-7.703h6.056c-1.317 4.265-3.54 7.262-6.056 7.702zm0-9.162v-6.59h7.304c-.052 2.344-.353 4.577-.845 6.59h-6.46zm8.77-6.59h7.12c-.103 2.358-.706 4.587-1.704 6.59H26.84c.46-2.018.73-4.238.777-6.59zm4.666-9.39h-5.78c-.87-3.084-2.194-5.598-3.814-7.238 4.03 1.148 7.44 3.767 9.594 7.237zM13.595 2.082c-1.628 1.64-2.96 4.16-3.83 7.254H3.94c2.167-3.487 5.6-6.115 9.655-7.254zm-9.58 24.694H9.8c.87 3.04 2.188 5.52 3.795 7.14-4.01-1.126-7.41-3.71-9.58-7.14zM22.688 33.9c1.6-1.62 2.91-4.093 3.78-7.123h5.74c-2.16 3.413-5.535 5.988-9.52 7.123z" fill="#FFF" fill-rule="evenodd"/></svg>
<svg width="47" height="53" viewBox="-10 -10 47 53" id="list" y="167"><title>icon-footer3</title><g fill="#FFF" fill-rule="evenodd"><path d="M25.85 5.46l-4.514-4.446C21.01.694 20.58.52 20.126.52H2.252C1.303.52.53 1.29.53 2.24v28.777c0 .95.772 1.724 1.723 1.724h22.385c.95 0 1.726-.773 1.726-1.723V6.685c0-.458-.188-.905-.514-1.226zm-1.257.58h-3.816l-.004-3.762 3.82 3.76zm.045 25.406H2.253c-.236 0-.43-.192-.43-.43V2.242c0-.235.194-.427.43-.427h17.224l.005 4.874c0 .357.29.646.648.646h4.938v23.684c0 .237-.193.43-.43.43z"/><path d="M21.52 23.182H10.934c-.358 0-.648.29-.648.647 0 .356.29.646.648.646H21.52c.357 0 .647-.29.647-.647 0-.36-.29-.648-.647-.648M21.52 17.552H10.934c-.358 0-.648.29-.648.647 0 .357.29.646.648.646H21.52c.357 0 .647-.29.647-.647 0-.36-.29-.648-.647-.648M21.52 11.923H10.934c-.358 0-.648.29-.648.647 0 .357.29.647.648.647H21.52c.357 0 .647-.29.647-.647 0-.358-.29-.647-.647-.647M7.53 11.023H5.727c-.358 0-.648.29-.648.647v1.8c0 .357.29.646.648.646h1.8c.36 0 .65-.29.65-.647v-1.8c0-.357-.29-.647-.65-.647M7.53 16.653H5.727c-.358 0-.648.29-.648.647v1.8c0 .356.29.646.648.646h1.8c.36 0 .65-.29.65-.647v-1.8c0-.358-.29-.647-.65-.647M7.53 22.282H5.727c-.358 0-.648.29-.648.647v1.8c0 .356.29.646.648.646h1.8c.36 0 .65-.29.65-.647v-1.8c0-.358-.29-.648-.65-.648"/></g></svg>
<svg width="167" height="61" viewBox="-10 -10 167 61" id="logo" y="220"><title>Imported Layers Copy</title><g transform="translate(0 .182)" fill="none" fill-rule="evenodd"><path d="M73.213 15.545h1.713v6.677h-1.713v-6.677zM88.412 22.667v-2.11c4.903-4.245 4.903-10.243 4.903-12.5 0-1.074-.673-1.27-.856-1.303h-3.747V5.04l3.905.004c.833.096 2.41.85 2.41 3.012 0 2.473.062 9.783-6.616 14.61M82.16 9.358h4.654v1.716H82.16V9.358zM82.16 14.18h4.654v1.715H82.16V14.18zM75.94 4.65h1.712v19.99H75.94V4.65z" fill="#3E3A39"/><path d="M81.393 5.937h1.712V20.03h-1.712V5.936zM136.343 23.846l-1.712-.008.054-12.387 1.713.008-.054 12.388" fill="#3E3A39"/><path d="M145.114 22.413h-1.71V9.14c-.12-.76-.777-1.328-1.55-1.328H130.86V6.096h10.993c1.65 0 3.05 1.237 3.255 2.878l.006.106v13.333M141.83 25.724V24.01c.866 0 1.57-.707 1.57-1.575h1.713c0 1.814-1.473 3.29-3.283 3.29M76.496 25.51c-1.81 0-3.283-1.475-3.283-3.288h1.713c0 .868.704 1.574 1.57 1.574v1.715" fill="#3E3A39"/><path d="M71.915 25.24v-1.715c.717 0 1.3-.585 1.3-1.303h1.713c0 1.664-1.352 3.018-3.013 3.018M116.383 25.43h-9.172c-1.652-.015-2.99-1.37-2.992-3.017v-9.147c.002-1.664 1.353-3.02 3.013-3.02h9.13c1.66 0 3.012 1.356 3.012 3.02v9.147c0 1.648-1.34 3.002-2.985 3.017h-.004zm-9.152-13.467c-.716 0-1.3.584-1.3 1.303v9.147c0 .71.58 1.296 1.29 1.302h9.155c.71-.008 1.285-.592 1.285-1.302v-9.147c0-.72-.583-1.303-1.3-1.303h-9.13zM95.437 22.286c-3.297-1.938-4.995-5.153-5.776-8.856-.58-2.756-.44-4.957-.435-5.05l1.708.113c-.005.082-.503 7.613 4.504 11.882v1.91M138.536 24.414h-6.498c-1.215 0-2.204-.99-2.204-2.21v-3.158h1.712v3.16c0 .272.22.492.492.492h6.498c.27 0 .492-.22.492-.493v-3.16h1.71v3.16c0 1.218-.987 2.21-2.202 2.21M130.71 4.65c0 1.3-.66 2.444-1.664 3.117v1.935c1.98-.82 3.377-2.775 3.377-5.05h-1.712M105.883 4.65c0 1.3-.662 2.444-1.665 3.117v1.935c1.98-.82 3.377-2.775 3.377-5.05h-1.712M130.976 9.68c0 1.104-.667 2.053-1.618 2.468v1.806c1.91-.48 3.33-2.213 3.33-4.273h-1.712M69.758 6.83c0-.323-.26-.585-.582-.585H46.933V7.96h22.825V6.83M80.218 6.83c0-.323-.26-.585-.583-.585h-7.202V7.96h7.787V6.845l-.002-.015M69.758 13.878c0-.316-.25-.57-.564-.582h-22.26v1.716h22.824v-1.134M69.758 20.925c0-.298-.223-.54-.51-.577H46.933v1.715h22.825v-1.138" fill="#3E3A39"/><path d="M112.65 20.654V13.55h-1.71v7.687h1.128c.322 0 .583-.26.583-.583M119.71 6.29c-.01 0-.02-.002-.026-.005l-13.5-.04-.006 1.716 14.11.042.004-1.144c-.01-.315-.264-.568-.58-.568" fill="#3E3A39"/><path d="M120.277 17.12c0-.322-.26-.583-.582-.583h-16.382v1.715h16.964V17.12M102.316 5.896c0-.322-.26-.584-.583-.584-.022 0-.033-.007-.034-.02h-4.17V7.01h4.786V5.896M102.316 14.41c0-.323-.26-.584-.583-.584H97.53v1.715h4.786v-1.13M102.316 23.846c0-.268-.18-.49-.427-.56h-4.36V25h4.786v-1.154M127.742 5.896c0-.322-.26-.584-.583-.584-.022 0-.033-.007-.038-.02h-4.168V7.01h4.788V5.896M141.532 11.145c0-.254-.163-.468-.39-.548h-9.692v1.715h10.082v-1.166M141.532 16.422c0-.323-.26-.584-.582-.584h-11.402v1.715h11.984v-1.13M127.742 14.41c0-.323-.26-.584-.583-.584h-4.206v1.715h4.788v-1.13M127.742 23.846c0-.268-.182-.49-.427-.56h-4.36V25h4.787v-1.154M95.437 24.417c0-.322-.26-.583-.583-.583-.03 0-.043-.016-.05-.038H76.496v1.715h18.94v-1.093M87.67 22.083V5.937h-1.712v16.73h1.13c.32 0 .582-.262.582-.584" fill="#3E3A39"/><path d="M88.412 19.725c0-.323-.26-.584-.583-.584h-7.205v1.716h7.787v-1.13M80.22 12.043c0-.322-.26-.583-.583-.583-.01 0-.02-.003-.027-.005h-7.177v1.715h7.787v-1.127M80.22 17.5c0-.32-.26-.582-.583-.582h-2.84v1.715h3.423V17.5M88.412 5.622c0-.322-.26-.583-.583-.583h-7.205v1.714h7.787V5.622M59.2 24.942V4.652h-1.71v20.873h1.13c.32 0 .58-.26.58-.583" fill="#3E3A39"/><path d="M40.293 20.163c0 11.107-8.988 20.112-20.074 20.112C9.13 40.275.143 31.27.143 20.163.144 9.053 9.132.05 20.22.05c11.085 0 20.073 9.004 20.073 20.113" fill="#E73736"/><path d="M26.204 35.043c-1.048 0-1.9-.854-1.9-1.905v-3.37c0-.27.216-.487.484-.487s.486.218.486.487v3.37c0 .515.417.934.93.934.513 0 .93-.418.93-.932 0-.268.218-.486.486-.486s.485.218.485.486c0 1.05-.852 1.905-1.9 1.905M28.706 19.633c-.268 0-.485-.217-.485-.486 0-.613-.497-1.113-1.11-1.113-.612 0-1.11.5-1.11 1.113 0 .27-.218.486-.486.486s-.485-.217-.485-.486c0-1.15.932-2.085 2.08-2.085 1.147 0 2.08.936 2.08 2.085 0 .27-.216.486-.484.486M14.95 19.633c-.267 0-.484-.217-.484-.486 0-.613-.498-1.113-1.11-1.113-.614 0-1.112.5-1.112 1.113 0 .27-.217.486-.485.486-.27 0-.486-.217-.486-.486 0-1.15.933-2.085 2.08-2.085 1.15 0 2.083.936 2.083 2.085 0 .27-.218.486-.486.486M18.695 35.05c-.268 0-.485-.22-.485-.487v-3.97c0-.27.217-.488.485-.488s.485.218.485.487v3.97c0 .27-.217.487-.485.487M21.74 35.05c-.266 0-.484-.22-.484-.487v-3.97c0-.27.218-.488.485-.488.27 0 .487.218.487.487v3.97c0 .27-.218.487-.486.487M14.28 35.043c-1.02 0-1.852-.833-1.852-1.856 0-.27.218-.486.486-.486s.485.218.485.487c0 .487.394.884.88.884.487 0 .883-.396.883-.883v-3.42c0-.27.217-.486.485-.486s.485.218.485.487v3.42c0 1.023-.83 1.856-1.852 1.856M20.233 26.022c-1.615 0-2.928-1.316-2.928-2.933 0-1.618 1.313-2.933 2.928-2.933 1.614 0 2.926 1.315 2.926 2.932 0 1.616-1.313 2.932-2.927 2.932zm0-4.893c-1.08 0-1.957.88-1.957 1.96s.878 1.96 1.957 1.96c1.078 0 1.956-.88 1.956-1.96s-.88-1.96-1.957-1.96z" fill="#FFF"/><path d="M24.967 30.22l-.357-.905c4.578-1.817 7.537-6.18 7.537-11.115 0-6.59-5.35-11.95-11.928-11.95-6.58 0-11.93 5.36-11.93 11.95 0 4.935 2.958 9.298 7.537 11.115l-.358.904c-2.378-.944-4.405-2.56-5.866-4.675C8.11 23.382 7.32 20.84 7.32 18.2c0-7.127 5.786-12.924 12.9-12.924 7.11 0 12.898 5.797 12.898 12.924 0 2.64-.79 5.182-2.286 7.346-1.46 2.114-3.488 3.73-5.865 4.673" fill="#FFF"/><path d="M46.974 31.006h.662l1.534 3.64 1.597-3.64h.116l1.608 3.64 1.564-3.64h.67L52.55 36.02h-.12l-1.6-3.59-1.598 3.59h-.12l-2.138-5.014M57.74 31.006h.663l1.534 3.64 1.596-3.64h.117l1.607 3.64 1.564-3.64h.67l-2.173 5.013h-.12l-1.6-3.59-1.6 3.59h-.12l-2.136-5.014M68.507 31.006h.663l1.533 3.64 1.597-3.64h.117l1.607 3.64 1.563-3.64h.67l-2.174 5.013h-.12l-1.6-3.59-1.598 3.59h-.12l-2.138-5.014M80.658 35.005c.157 0 .29.056.4.166.11.112.166.247.166.407 0 .156-.055.29-.166.403-.11.112-.243.168-.4.168-.156 0-.29-.056-.4-.168-.11-.112-.165-.247-.165-.403 0-.16.055-.295.165-.406.11-.11.244-.165.4-.165M87.557 29.07v.63c-.236-.1-.438-.15-.607-.15-.126 0-.23.025-.313.076-.083.05-.135.11-.156.175-.02.067-.03.243-.03.528l-.002.678h1.045v.557h-1.045l-.004 4.456H85.8v-4.457h-.657v-.557h.657v-.784c0-.36.033-.616.1-.77.065-.153.177-.277.335-.37.158-.094.35-.14.572-.14.21 0 .46.042.75.128M96.374 31.006v6.847h-.635v-2.696c-.27.33-.574.576-.91.742-.335.165-.702.248-1.1.248-.71 0-1.314-.257-1.816-.772-.5-.514-.752-1.14-.752-1.878 0-.72.254-1.34.76-1.852.506-.513 1.114-.77 1.825-.77.41 0 .783.088 1.116.263.332.175.625.437.876.787v-.92h.634zM93.8 31.5c-.358 0-.69.087-.992.263-.303.177-.544.425-.724.743-.18.32-.268.657-.268 1.013 0 .352.09.69.27 1.012.18.322.424.573.73.753.303.18.63.27.98.27.352 0 .686-.09 1-.268.316-.178.56-.42.73-.723.17-.304.254-.646.254-1.026 0-.58-.19-1.065-.572-1.455-.38-.39-.85-.584-1.408-.584zM100.757 29.07h.643v2.834c.26-.344.548-.6.86-.772.313-.17.652-.255 1.017-.255.374 0 .706.095.995.285.29.19.504.447.642.768.138.32.207.824.207 1.51v2.58h-.643v-2.392c0-.578-.023-.963-.07-1.157-.08-.33-.224-.58-.433-.748-.21-.168-.486-.25-.826-.25-.39 0-.738.128-1.046.386-.308.258-.51.578-.61.96-.06.245-.092.7-.092 1.362v1.84h-.643v-6.95M110 29.144h.645v1.862h1.02v.557h-1.02v4.456H110v-4.457h-.878v-.557h.88v-1.862M116.28 35.005c.155 0 .29.056.4.166.11.112.164.247.164.407 0 .156-.055.29-.165.403-.11.112-.245.168-.4.168-.158 0-.29-.056-.402-.168-.11-.112-.165-.247-.165-.403 0-.16.055-.295.165-.406.11-.11.244-.165.4-.165M125.974 32.047l-.51.318c-.442-.587-1.044-.88-1.806-.88-.61 0-1.116.196-1.52.59-.4.392-.602.87-.602 1.43 0 .366.092.71.277 1.032.186.32.44.572.763.75.323.178.685.267 1.086.267.735 0 1.336-.294 1.8-.88l.512.336c-.24.36-.56.64-.964.84-.403.2-.862.298-1.377.298-.79 0-1.448-.252-1.97-.755-.52-.504-.78-1.117-.78-1.84 0-.485.12-.935.365-1.352.244-.415.58-.74 1.005-.973.426-.234.903-.35 1.43-.35.33 0 .65.05.96.152.307.1.57.232.783.395.215.163.397.37.548.622M132.52 30.877c.77 0 1.408.28 1.915.838.46.51.69 1.114.69 1.81 0 .7-.242 1.314-.73 1.837-.486.524-1.112.786-1.876.786-.77 0-1.397-.262-1.884-.786-.486-.523-.73-1.136-.73-1.836 0-.694.23-1.296.69-1.806.508-.562 1.148-.843 1.923-.843zm-.004.63c-.535 0-.996.2-1.38.595-.385.397-.577.876-.577 1.438 0 .363.087.7.262 1.014.176.313.412.555.71.725.3.17.627.255.984.255s.685-.085.983-.256c.298-.17.534-.413.71-.726.175-.314.263-.65.263-1.014 0-.562-.193-1.04-.58-1.438-.386-.396-.845-.594-1.377-.594zM139.25 31.006h.646v.866c.223-.32.453-.553.69-.7.325-.197.668-.295 1.027-.295.242 0 .472.047.69.142.218.095.396.22.535.38.138.158.258.384.36.68.213-.394.48-.692.802-.897.32-.204.667-.306 1.037-.306.345 0 .65.087.915.262.265.175.46.42.59.732.128.313.193.783.193 1.41v2.737h-.658V33.28c0-.538-.04-.907-.115-1.108-.076-.2-.207-.364-.392-.486-.185-.123-.405-.185-.662-.185-.312 0-.597.093-.855.277-.26.184-.447.43-.566.737-.12.307-.18.82-.18 1.54v1.962h-.643v-2.567c0-.606-.038-1.017-.113-1.233-.074-.217-.205-.39-.392-.52-.187-.13-.41-.197-.667-.197-.296 0-.574.09-.833.27-.26.18-.45.422-.575.726-.124.303-.186.768-.186 1.395v2.124h-.645v-5.014" fill="#8A8C8C"/></g></svg>
<svg width="166" height="77" viewBox="-10 -10 166 77" id="logo-big" y="281"><title>Page 1</title><defs><path id="aea" d="M0 56.944h145.546V0H0v56.944z"/></defs><g fill="none" fill-rule="evenodd"><path d="M145.202 7.303c-.2-1.61-1.574-2.823-3.195-2.823h-9.45c.124-.452.193-.926.193-1.417h-1.68c0 1.273-.65 2.396-1.634 3.056v1.897c.938-.388 1.74-1.037 2.32-1.854h10.25c.76 0 1.405.556 1.522 1.302v13.02c0 .85-.694 1.564-1.543 1.564v1.68c1.776 0 3.22-1.468 3.22-3.246h.003V7.407l-.006-.104z" fill="#3E3A39"/><mask id="aeb" fill="#fff"><use xlink:href="#aea"/></mask><path d="M84.34 17.274h2.8V14.09h-2.8v3.184zm0-9.594h2.8V5.126h-2.8V7.68zm0 4.73h2.8V9.36h-2.8v3.047zm9.72 3.196c2.008-3.757 1.982-7.564 1.982-9.203 0-2.12-1.547-2.86-2.364-2.955l-3.833-.005v1.683h3.677c.18.032.84.224.84 1.277 0 1.404-.002 4.283-1.23 7.263-1.33-3.45-1.112-6.78-1.108-6.834l-1.677-.11c-.006.09-.14 2.248.428 4.95.298 1.416.735 2.755 1.346 3.978-.65 1.05-1.488 2.076-2.57 3.013v-.816c0-.316-.258-.573-.573-.573h-.157V5.126h.73v-1.11c0-.316-.258-.573-.573-.573h-7.07v1.683h.752v12.148h-.754v1.683h5.234v1.776h1.108c.316 0 .572-.257.572-.573v-1.203h.73v1.776c1.48-1.07 2.623-2.267 3.506-3.504.87 1.237 1.98 2.302 3.39 3.13v-1.875c-1.005-.856-1.78-1.846-2.385-2.88zM70.666 4.627h-9.79V3.063h-1.68v1.564H48.83V6.31h10.363v5.233H48.832v1.682h10.363v5.234H48.832v1.68h10.363v3.396h1.108c.316 0 .572-.256.572-.572V20.14h10.363v-1.116c0-.292-.22-.53-.5-.565h-9.863v-5.235h10.363v-1.112c0-.31-.246-.56-.553-.57h-9.81V6.31h10.363V5.2c0-.316-.256-.573-.572-.573M120.273 4.67c-.012 0-.02 0-.027-.004l-12.1-.036c.15-.496.234-1.02.234-1.567h-1.68c0 1.273-.65 2.396-1.635 3.056v1.897c.88-.365 1.64-.96 2.213-1.707l13.56.04.005-1.122c-.01-.31-.26-.557-.57-.557M118.26 20.484c0 .696-.567 1.27-1.262 1.277h-8.988c-.697-.005-1.265-.58-1.265-1.276v-4.08h4.917v2.926h1.108c.316 0 .572-.255.572-.57v-2.357h4.917v4.08zm-11.515-8.972c0-.704.573-1.277 1.277-1.277h8.96c.704 0 1.277.573 1.277 1.278v3.207h-4.918v-2.928h-1.68v2.928h-4.917v-3.208zm13.51 3.208h-.315v-3.207c0-1.633-1.327-2.96-2.957-2.96h-8.96c-1.63 0-2.957 1.327-2.958 2.96v3.207h-.89v1.683h.89v4.08c0 1.618 1.315 2.945 2.938 2.96h9.006c1.615-.015 2.93-1.343 2.93-2.96v-4.08h.888v-1.11c0-.316-.256-.573-.572-.573zM102.625 3.712c-.022 0-.032-.007-.034-.02H98.5v1.683h4.7v-1.09c0-.316-.257-.573-.573-.573M102.625 12.06h-4.127v1.684h4.7v-1.11c0-.316-.257-.573-.573-.573M102.778 21.34h-4.28v1.682h4.7V21.89c0-.264-.178-.482-.42-.55M127.583 3.712c-.02 0-.032-.007-.036-.02h-4.09v1.683h4.698v-1.09c0-.316-.256-.573-.572-.573M141.31 8.895h-8.397c.062-.29.098-.59.098-.9h-1.68c0 1.083-.655 2.014-1.588 2.42v1.773c.977-.245 1.82-.826 2.408-1.61h2.817l-.016 3.457h-5.02v1.682h5.014l-.022 5.047h-2.55c-.266 0-.482-.217-.482-.484v-3.1h-1.68v3.1c0 1.194.97 2.166 2.163 2.166h6.377c1.193 0 2.164-.972 2.164-2.166v-3.1h-1.68v3.1c0 .267-.217.484-.484.484h-2.147l.022-5.047h5.067v-1.11c0-.316-.256-.572-.572-.572h-4.488l.015-3.458h5.045V9.433c0-.25-.16-.46-.383-.538M127.583 12.06h-4.127v1.684h4.7v-1.11c0-.316-.257-.573-.573-.573M127.736 21.34h-4.28v1.682h4.7V21.89c0-.264-.18-.482-.42-.55" fill="#3E3A39" mask="url(#aeb)"/><path d="M95.873 21.877c-.03 0-.043-.015-.05-.037H78.987v-5.063h2.52v-1.11c0-.316-.255-.573-.572-.573h-1.948v-3.676h2.52v-1.104c0-.317-.255-.573-.572-.573-.01 0-.018 0-.026-.004h-1.923V6.31h2.52V5.213 5.2c0-.317-.257-.573-.574-.573h-1.946V3.063h-1.68v1.564h-3.443V6.31h3.442v3.426h-3.442v1.682h3.442v10.317c-.576-.22-.99-.773-.994-1.425v-6.563H74.63v6.564c-.007.7-.576 1.265-1.275 1.265v1.682c.804 0 1.534-.324 2.068-.848.59.68 1.46 1.112 2.43 1.112h18.592V22.45c0-.316-.257-.573-.572-.573" fill="#3E3A39" mask="url(#aeb)"/><path d="M42.605 21.325c0 11.777-9.537 21.324-21.302 21.324C9.538 42.65 0 33.1 0 21.324 0 9.545 9.538 0 21.303 0s21.302 9.546 21.302 21.325M52.272 27.122v1.083c-.405-.174-.753-.26-1.042-.26-.216 0-.395.042-.537.13-.14.087-.23.186-.268.3-.037.113-.055.415-.055.904v1.16h1.79v.957H50.37l-.006 7.64h-1.105v-7.64h-1.13v-.956h1.13v-1.343c0-.616.056-1.055.17-1.32.113-.262.305-.474.576-.635.27-.16.598-.24.982-.24.358 0 .787.073 1.287.22M61.04 33.87c-.147-.59-.362-1.062-.643-1.415-.282-.352-.655-.637-1.12-.852-.462-.217-.95-.325-1.46-.325-.844 0-1.568.27-2.174.814-.442.395-.777.987-1.003 1.778h6.4zm0 2.315l.932.49c-.306.6-.658 1.085-1.06 1.453-.4.37-.85.65-1.35.842-.5.192-1.066.288-1.698.288-1.4 0-2.496-.46-3.286-1.38-.79-.917-1.185-1.957-1.185-3.116 0-1.09.334-2.06 1.003-2.915.848-1.085 1.983-1.627 3.405-1.627 1.465 0 2.634.555 3.508 1.667.622.785.938 1.764.948 2.938H54.53c.02 1 .34 1.817.955 2.456.617.64 1.378.96 2.284.96.437 0 .862-.077 1.275-.23.414-.15.766-.354 1.055-.605.29-.252.604-.66.94-1.22zM64.316 30.44h1.105v1.54c.443-.59.933-1.03 1.47-1.323.536-.29 1.12-.437 1.75-.437.643 0 1.213.163 1.71.49.497.326.864.766 1.1 1.32.238.552.356 1.413.356 2.582v4.425H70.7v-4.1c0-.99-.04-1.652-.122-1.984-.128-.57-.373-.997-.736-1.284-.364-.287-.837-.43-1.42-.43-.67 0-1.27.22-1.797.662-.53.442-.878.99-1.046 1.643-.107.428-.16 1.207-.16 2.34v3.152h-1.104V30.44zM78.318 31.286c-.627 0-1.208.152-1.745.455-.536.303-.958.722-1.263 1.256-.305.535-.457 1.114-.457 1.735 0 .944.315 1.723.947 2.34.63.616 1.45.924 2.454.924 1.016 0 1.833-.306 2.45-.916.62-.61.93-1.415.93-2.41 0-.648-.143-1.226-.427-1.734-.285-.51-.688-.91-1.208-1.205-.522-.296-1.083-.444-1.682-.444zm3.26-.845h1.104v6.85c0 1.207-.105 2.09-.316 2.648-.29.79-.792 1.398-1.507 1.825-.717.426-1.577.64-2.582.64-.737 0-1.398-.104-1.985-.313-.587-.21-1.064-.49-1.433-.84-.368-.352-.707-.865-1.018-1.542h1.2c.326.57.748.99 1.264 1.265.517.273 1.157.41 1.92.41.754 0 1.39-.14 1.91-.42.518-.282.888-.635 1.11-1.06.22-.425.33-1.112.33-2.06V37.4c-.415.528-.923.933-1.524 1.214-.6.282-1.237.423-1.91.423-.792 0-1.534-.196-2.23-.59-.695-.39-1.232-.92-1.61-1.583-.38-.664-.57-1.393-.57-2.188 0-.796.197-1.537.593-2.225.394-.686.94-1.23 1.64-1.63.697-.4 1.432-.6 2.207-.6.643 0 1.242.132 1.797.4.555.264 1.09.703 1.607 1.313V30.44zM89.182 31.286c-.616 0-1.183.152-1.703.454-.52.302-.936.727-1.243 1.274-.307.548-.46 1.126-.46 1.737 0 .606.154 1.185.464 1.737.31.553.728.982 1.25 1.29.524.308 1.085.462 1.684.462.604 0 1.177-.154 1.72-.458.54-.306.956-.72 1.248-1.24.292-.52.438-1.107.438-1.76 0-.994-.328-1.825-.982-2.493-.654-.67-1.46-1.004-2.416-1.004zm4.416-.845v11.74h-1.09v-4.62c-.462.563-.982.986-1.558 1.27-.577.285-1.207.428-1.89.428-1.216 0-2.254-.44-3.114-1.323-.86-.882-1.29-1.956-1.29-3.22 0-1.238.433-2.296 1.3-3.176.87-.88 1.915-1.32 3.135-1.32.706 0 1.344.15 1.915.45.57.3 1.072.75 1.503 1.35v-1.58h1.09zM95.934 30.44h1.105v4.014c0 .98.052 1.655.157 2.023.158.527.46.943.905 1.248.445.306.976.458 1.593.458.616 0 1.14-.148 1.57-.446.428-.297.725-.688.888-1.174.11-.33.166-1.034.166-2.11v-4.012h1.128v4.22c0 1.185-.138 2.078-.414 2.678-.277.6-.692 1.07-1.248 1.41-.555.34-1.25.51-2.088.51-.836 0-1.534-.17-2.095-.51-.56-.34-.978-.813-1.254-1.42-.278-.61-.416-1.526-.416-2.747v-4.14zM107.118 37.298c.27 0 .497.095.687.285.19.19.284.42.284.695 0 .27-.096.5-.285.692-.19.192-.418.288-.687.288-.268 0-.497-.096-.687-.288-.188-.192-.282-.423-.282-.692 0-.274.094-.505.283-.695.19-.19.42-.285.688-.285M118.712 32.227l-.876.545c-.756-1.007-1.79-1.51-3.098-1.51-1.046 0-1.915.338-2.605 1.01-.69.674-1.037 1.492-1.037 2.455 0 .626.16 1.215.477 1.768.317.552.754.98 1.31 1.286.553.306 1.174.46 1.863.46 1.26 0 2.29-.504 3.09-1.51l.876.577c-.41.618-.962 1.098-1.653 1.44-.693.34-1.48.512-2.365.512-1.358 0-2.483-.434-3.378-1.298-.894-.864-1.342-1.914-1.342-3.152 0-.832.21-1.605.628-2.32.418-.713.993-1.27 1.724-1.67.73-.4 1.55-.6 2.455-.6.568 0 1.116.087 1.646.26.53.173.976.4 1.345.68.368.28.68.634.94 1.067M124.896 31.302c-.92 0-1.708.34-2.368 1.02-.66.678-.99 1.5-.99 2.464 0 .622.15 1.2.45 1.74.302.535.71.95 1.22 1.243.513.29 1.075.437 1.688.437s1.175-.146 1.687-.438c.512-.294.92-.71 1.22-1.245.3-.538.45-1.117.45-1.74 0-.963-.33-1.785-.993-2.464-.663-.68-1.45-1.018-2.364-1.018m.004-1.082c1.323 0 2.42.48 3.29 1.437.79.875 1.185 1.91 1.185 3.106 0 1.2-.418 2.25-1.253 3.148-.836.9-1.91 1.348-3.222 1.348-1.318 0-2.395-.45-3.23-1.347-.836-.897-1.253-1.947-1.253-3.147 0-1.19.395-2.223 1.186-3.098.87-.963 1.968-1.445 3.297-1.445M131.41 30.44h1.107v1.486c.384-.548.78-.948 1.185-1.2.558-.338 1.146-.506 1.762-.506.416 0 .81.08 1.185.244.373.164.678.38.916.652.237.27.442.66.616 1.166.367-.675.826-1.187 1.378-1.537.55-.35 1.144-.525 1.78-.525.593 0 1.116.15 1.57.45.454.3.792.718 1.012 1.256.22.537.33 1.344.33 2.418v4.693h-1.128v-4.693c0-.922-.065-1.555-.197-1.9-.13-.345-.355-.624-.672-.834-.318-.21-.696-.316-1.137-.316-.535 0-1.024.158-1.467.474-.442.316-.766.737-.97 1.264-.205.527-.307 1.407-.307 2.64v3.365h-1.106v-4.4c0-1.04-.064-1.743-.192-2.115-.13-.37-.355-.67-.675-.892-.322-.224-.703-.336-1.144-.336-.51 0-.99.154-1.433.462-.445.308-.774.723-.987 1.244-.213.522-.32 1.32-.32 2.394v3.643h-1.105V30.44z" fill="#E73836" mask="url(#aeb)"/><path d="M4.17 50.753h1.274l.21-1.05H3.886v-.567h4.42v.567h-1.99l-.24 1.05h1.865v4.207h-.6v-3.64H4.77v3.64h-.6v-4.207zm1.615 1.083h.6c0 1.316-.038 2.138-.116 2.467-.03.166-.068.324-.118.474.82.523 1.568 1.036 2.24 1.543l-.434.54c-.627-.516-1.31-1.03-2.047-1.54-.377.683-1.018 1.224-1.922 1.624-.112-.16-.247-.338-.41-.533 1.234-.52 1.93-1.263 2.09-2.224.08-.306.117-1.09.117-2.35zm-2.88 4.675h.583v-7.64h-.583v7.64zm-1.15-.383h.584v-6.974h-.584v6.974zm-1.13-7.225h.582v3.184c0 2.255-.24 3.84-.724 4.758-.16-.16-.322-.314-.483-.458.416-.8.624-2.106.624-3.917V48.9zM19.756 53.953h3.705V52.57h-2.92v-.617h2.92v-1.367h-3.454v-.617h3.455v-1.343h.7v1.342h3.455v.616H24.16v1.367h2.914v.616H24.16v1.383h3.705v.616H24.16v2.29h-.7v-2.29h-3.704v-.617zM45.365 55.594l.383-.434c.583.38 1.155.776 1.715 1.193l-.416.5c-.583-.48-1.143-.897-1.682-1.26zm-1.473-1.008h2.056v-.667h-2.056v.666zm0-1.167h2.056v-.66h-2.056v.66zm0-1.176h2.056v-.658h-2.056v.658zm-1.465-1.858c.388-.478.713-1.08.974-1.81l.6.16c-.105.244-.21.474-.316.69h3.788v.568h-4.084c-.183.328-.367.614-.553.86-.14-.18-.275-.335-.408-.468zm-.017 4.2h.883v-3h-.817v-.55h.817v-.66h.6v.66h2.055v-.667h.6v.666h.8v.55h-.8v3h.957v.55H42.41v-.55zm1.656.59l.425.443c-.665.516-1.272.93-1.822 1.24-.11-.177-.244-.35-.4-.516.583-.278 1.183-.667 1.798-1.167zm-4.703-5.2h1.453c-.175-.416-.354-.796-.537-1.14l.507-.25c.2.333.405.716.616 1.15l-.52.24h1.394v.568H40.74c-.005.43-.012.836-.02 1.216h1.474c-.034 1.434-.075 2.68-.125 3.734-.04.723-.32 1.086-.842 1.092-.267.005-.544.003-.833-.01-.033-.182-.074-.393-.125-.632.31.033.542.05.69.05.33 0 .5-.19.518-.575.05-.796.088-1.83.116-3.1h-.89c0 2.154-.35 3.63-1.05 4.424-.11-.15-.25-.317-.416-.5.528-.655.813-1.76.858-3.317.013-.43.03-1.224.054-2.383h-.787v-.567zM58.978 49.32h8.092v.683h-4.047v1.816l.383-.534c1.27.75 2.337 1.424 3.197 2.025l-.49.676c-.86-.662-1.89-1.36-3.09-2.092v4.892h-.757v-6.783h-3.288v-.684zM82.65 51.536h2.753c-.383-.376-.706-.825-.97-1.35h-.77c-.278.494-.615.944-1.012 1.35zm-.96 1.258h4.795v.55h-3.3l-.296.742h2.98c-.035.533-.073 1.024-.118 1.475-.07.734-.474 1.1-1.207 1.1-.455 0-.97-.004-1.548-.016-.028-.205-.067-.428-.117-.667.583.045 1.094.067 1.532.067.433 0 .67-.188.716-.567.033-.277.058-.563.075-.858h-2.94v-.543l.288-.733h-.86v-.55zm-.475-.85c.725-.475 1.306-1.06 1.745-1.758h-1.27v-.55h1.573c.16-.33.295-.684.4-1.06l.624.15c-.097.318-.21.62-.34.91h2.646v.55h-1.557c.488.78 1.094 1.288 1.815 1.524-.15.212-.282.41-.398.593-.372-.198-.708-.44-1.007-.726v.492h-2.93v-.397c-.273.264-.57.507-.892.73-.11-.146-.246-.298-.408-.46zm-1.723-.775h1.357v-1.584H79.49v1.583zm-1.057 4.616c.138-.028.28-.055.425-.08v-3.22h.532v3.117l.716-.154v-3.797h-.616v.29h-.533v-2.84h2.422v2.55h-.74v1.483h.83v.5h-.83v1.69c.318-.07.643-.15.973-.232.01.222.028.426.05.61-.766.16-1.776.412-3.03.757l-.2-.674zM101.663 54.26h3.404v-.616h-3.404v.617zm0-1.083h3.404v-.6h-3.404v.6zm-.675-3.724h2.198c-.1-.2-.21-.403-.333-.61l.583-.24c.17.297.313.58.433.85h2.08v.5h-4.962v-.5zm-.2 1.574h1.5c-.154-.24-.323-.483-.51-.724l.492-.31c.228.28.44.554.633.826l-.313.207h1.258c.224-.344.434-.69.628-1.04l.6.332c-.19.24-.376.477-.562.707h1.72v.5h-5.445v-.5zm.3 1.067h4.554v2.842h-.575v-.192h-.782v.9c0 .306.144.46.433.46h.524c.272 0 .428-.14.466-.418.033-.217.056-.472.067-.767.21.094.416.177.616.25-.038.344-.08.604-.124.783-.094.47-.408.707-.94.707h-.758c-.583 0-.874-.277-.874-.833v-1.083h-.778c-.073.61-.31 1.06-.712 1.36-.34.27-.933.53-1.782.773-.117-.188-.244-.38-.383-.574.865-.184 1.46-.406 1.78-.667.267-.21.428-.506.484-.892h-.64v.192h-.576v-2.842zm-2.972 2.725c.297-.07.64-.156 1.033-.255v-3.188h-.95v-.59h.95V48.7h.606v2.084h.857v.59h-.857v3.027c.31-.083.647-.176 1.007-.276.006.24.014.447.026.626-.856.233-1.705.486-2.55.758l-.124-.69zM121.885 53.786h2.39V52.36h-2.39v1.426zm0-2.017h2.39V50.35h-2.39v1.417zm-3.072 2.016h2.38V52.36h-2.38v1.426zm0-2.017h2.38V50.35h-2.38v1.417zm-.69-2.043h3.07V48.66h.692v1.067h3.08v4.684h-3.08v.976c0 .34.178.508.533.508h1.948c.377 0 .608-.125.69-.375.09-.273.154-.664.192-1.176.16.072.39.16.69.26-.066.443-.14.823-.224 1.14-.138.522-.516.783-1.132.783h-2.214c-.783 0-1.174-.383-1.174-1.15v-.966h-2.38v.576h-.692v-5.26zM141.89 52.436l.368-.46c.82.518 1.443.932 1.864 1.243l-.416.524c-.55-.444-1.154-.88-1.815-1.308zm-1.505 2.6h2.14V53.86h-2.14v1.176zm-.6.974v-2.683h3.34v2.243h-2.74v.44h-.6zm.64-4.033l.45.434c-.648.557-1.256 1.046-1.822 1.467-.167-.227-.297-.39-.392-.49.612-.407 1.2-.876 1.766-1.41zm-2.438-.666h2.023c-.19-.28-.4-.557-.624-.833l.508-.34c.266.31.507.6.724.866l-.45.308h1.89c.28-.36.538-.74.774-1.14l.633.366c-.263.314-.486.57-.666.775h2.072v4.367c0 .7-.32 1.053-.957 1.06-.345.004-.733.002-1.166-.01-.046-.32-.087-.555-.126-.7.438.045.8.067 1.082.067.36 0 .54-.2.54-.6v-3.608h-5.635v4.95h-.623V51.31zm-.607-1.783h3.8c-.106-.197-.235-.416-.387-.658l.64-.293c.167.287.342.603.525.95h3.588v.592h-8.166v-.593z" fill="#3E3A39" mask="url(#aeb)"/><path d="M27.67 37.214c-1.156 0-2.096-.94-2.096-2.098v-3.584c0-.326.264-.59.59-.59.326 0 .59.264.59.59v3.584c0 .506.41.917.916.917.505 0 .916-.41.916-.917 0-.326.264-.59.59-.59.326 0 .59.264.59.59 0 1.157-.94 2.098-2.096 2.098M30.33 20.836c-.324 0-.588-.264-.588-.59 0-.612-.497-1.11-1.108-1.11-.61 0-1.108.498-1.108 1.11 0 .326-.264.59-.59.59-.326 0-.59-.264-.59-.59 0-1.264 1.026-2.29 2.288-2.29 1.26 0 2.287 1.026 2.287 2.29 0 .326-.263.59-.59.59M15.7 20.836c-.327 0-.59-.264-.59-.59 0-.612-.498-1.11-1.108-1.11-.61 0-1.108.498-1.108 1.11 0 .326-.264.59-.59.59-.326 0-.59-.264-.59-.59 0-1.264 1.026-2.29 2.288-2.29 1.26 0 2.287 1.026 2.287 2.29 0 .326-.265.59-.59.59M19.682 37.22c-.326 0-.59-.264-.59-.59v-4.22c0-.327.264-.592.59-.592.325 0 .59.265.59.59v4.222c0 .326-.265.59-.59.59M22.923 37.22c-.326 0-.59-.264-.59-.59v-4.22c0-.327.264-.592.59-.592.326 0 .59.265.59.59v4.222c0 .326-.264.59-.59.59M14.987 37.214c-1.128 0-2.045-.918-2.045-2.046 0-.326.264-.59.59-.59.326 0 .59.264.59.59 0 .477.388.865.865.865.476 0 .864-.388.864-.865v-3.635c0-.326.265-.59.59-.59.327 0 .59.264.59.59v3.635c0 1.128-.916 2.046-2.043 2.046M21.318 22.426c-1.107 0-2.008.9-2.008 2.01 0 1.108.9 2.01 2.008 2.01 1.106 0 2.007-.902 2.007-2.01 0-1.11-.9-2.01-2.007-2.01m0 5.2c-1.758 0-3.188-1.43-3.188-3.19s1.43-3.19 3.188-3.19c1.757 0 3.187 1.43 3.187 3.19s-1.43 3.19-3.187 3.19" fill="#FEFEFE" mask="url(#aeb)"/><path d="M26.38 32.082l-.433-1.098c4.842-1.92 7.97-6.53 7.97-11.745 0-6.965-5.658-12.63-12.615-12.63-6.956 0-12.615 5.665-12.615 12.63 0 5.213 3.13 9.823 7.97 11.744l-.433 1.098c-2.542-1.008-4.71-2.735-6.273-4.994-1.598-2.313-2.443-5.027-2.443-7.85 0-7.614 6.19-13.81 13.795-13.81 7.607 0 13.796 6.196 13.796 13.81 0 2.823-.845 5.537-2.444 7.85-1.562 2.26-3.73 3.986-6.273 4.994" fill="#FEFEFE" mask="url(#aeb)"/></g></svg>
<svg width="56" height="53" viewBox="-10 -10 56 53" id="package" y="358"><title>icon-footer5</title><path d="M35.397 4.874c-.062-.197-.208-.358-.4-.44L24.82.06c-.327-.144-.71-.022-.897.278L20.4 5.974 10.644 7.09l-.56-1.296c-.068-.16-.193-.29-.35-.364L1.03 1.308c-.27-.128-.592-.078-.808.13-.216.205-.282.52-.164.794l2.826 6.552v16.7c0 .243.123.468.328.6l9.225 5.92c.028.018.06.027.09.04.024.012.046.024.07.033.076.025.153.042.232.042.026 0 .054-.003.08-.006l17.226-1.974c.363-.04.638-.346.638-.708V12.765l4.55-7.303c.11-.176.136-.39.073-.588zm-15.29 2.568v5.566l-6.587.754-2.287-5.303 8.875-1.018zm1.44.51l6.466 4.15-6.465.74v-4.89zm-12.68-1.35l2.722 6.312L4.18 8.16 2.132 3.41 8.867 6.6zM4.324 9.95l7.785 4.997v15.147l-7.786-4.997V9.95zm9.225 20.656V15.194l15.784-1.808v15.41l-15.785 1.81zm16.277-19.04l-8.015-5.142 3.007-4.81 8.84 3.8-3.833 6.153z" fill="#FFF" fill-rule="evenodd"/></svg>
<svg width="52" height="52" viewBox="-10 -10 52 52" id="webchat" y="411"><title>Group 4</title><g fill="none" fill-rule="evenodd"><circle fill="#28B836" cx="16" cy="16" r="16"/><g transform="translate(5.053 6.737)" fill="#FFF"><path d="M5.645 5.846c-.54 0-1.084-.376-1.084-.938 0-.564.545-.936 1.085-.936.54 0 .898.372.898.936 0 .562-.36.938-.898.938m5.038-1.874c.542 0 .9.372.9.936 0 .562-.358.938-.9.938-.54 0-1.08-.376-1.08-.938 0-.564.54-.936 1.08-.936m3.87 2.033c.234 0 .465.018.694.044C14.624 3.027 11.523.784 7.983.784c-3.957 0-7.2 2.808-7.2 6.375 0 2.06 1.08 3.75 2.882 5.062l-.72 2.255 2.517-1.314c.9.186 1.623.376 2.52.376.227 0 .45-.012.674-.03-.14-.502-.223-1.027-.223-1.57 0-3.277 2.7-5.935 6.12-5.935"/><path d="M16.984 10.91c-.356 0-.715-.37-.715-.75 0-.373.358-.75.714-.75.54 0 .9.377.9.75 0 .38-.36.75-.9.75m-3.96 0c-.358 0-.72-.37-.72-.75 0-.373.362-.75.72-.75.545 0 .9.377.9.75 0 .38-.355.75-.9.75m8.1.94c0-3-2.88-5.442-6.115-5.442-3.426 0-6.124 2.443-6.124 5.44 0 3.003 2.698 5.44 6.123 5.44.716 0 1.44-.187 2.16-.375l1.974 1.126-.54-1.874c1.444-1.13 2.52-2.627 2.52-4.317"/></g></g></svg>
<svg width="52" height="52" viewBox="-10 -10 52 52" id="weibo" y="463"><title>Group 2</title><g fill="none" fill-rule="evenodd"><circle fill="#E73736" cx="16" cy="16" r="16"/><path d="M13.424 16.464c-1.24.25-2.078 1.3-1.87 2.343.207 1.043 1.382 1.685 2.623 1.433 1.24-.252 2.078-1.302 1.87-2.344-.208-1.042-1.382-1.683-2.623-1.432zm10.11-4.052c-.306-1.503-1.483-2.69-2.973-2.997-.36-.073-.714.16-.788.525-.074.364.16.72.52.796.97.2 1.733.97 1.93 1.947.075.365.43.6.79.525.362-.075.595-.432.52-.796zm2.656.098c-.003-3.188-2.567-5.773-5.73-5.773-.37 0-.667.3-.667.674 0 .373.298.674.668.674 2.425 0 4.393 1.983 4.393 4.43 0 .372.3.674.668.674.37 0 .67-.302.67-.675v-.003zm-11.186 9.372c-3.08.307-5.74-1.104-5.94-3.154-.2-2.05 2.136-3.963 5.216-4.272 3.082-.31 5.74 1.103 5.94 3.152.2 2.05-2.136 3.964-5.216 4.274zm6.16-6.8c-.26-.08-.442-.135-.304-.488.297-.768.328-1.43.006-1.902-.604-.886-2.256-.84-4.15-.024 0 0-.595.267-.443-.218.29-.96.247-1.766-.206-2.23-1.028-1.056-3.76.04-6.105 2.445-1.755 1.8-2.774 3.71-2.774 5.36 0 3.16 3.945 5.272 7.805 5.272 5.06 0 8.427-3.21 8.427-5.605 0-1.448-1.188-2.27-2.256-2.61z" fill="#FFF"/></g></svg>
</svg>