<svg xmlns="http://www.w3.org/2000/svg" xmlns:xlink="http://www.w3.org/1999/xlink" preserveAspectRatio="xMidYMid" width="70" height="59" viewBox="0 0 70 59">
  <path d="M69.494,58.662 C69.236,58.882 68.911,59.000 68.580,59.000 C68.500,59.000 68.418,58.993 68.337,58.979 C58.347,57.225 45.233,57.225 35.243,58.979 C35.161,58.994 35.082,58.968 35.000,58.968 C34.918,58.968 34.839,58.994 34.757,58.979 C24.770,57.225 11.653,57.225 1.663,58.979 C1.582,58.993 1.500,59.000 1.420,59.000 C1.088,59.000 0.764,58.882 0.506,58.662 C0.184,58.388 0.000,57.985 0.000,57.560 L0.000,13.120 C0.000,8.700 9.438,6.687 18.208,6.687 C24.940,6.687 32.051,7.879 35.000,10.429 C36.589,9.055 39.387,8.077 42.682,7.466 L42.682,2.515 C42.682,1.128 43.795,0.000 45.162,0.000 L58.654,0.000 C59.308,0.000 59.949,0.269 60.409,0.738 C60.875,1.208 61.133,1.841 61.133,2.516 L61.133,7.511 C66.173,8.475 70.000,10.308 70.000,13.120 L70.000,57.560 C70.000,57.985 69.816,58.388 69.494,58.662 ZM33.580,13.120 C33.580,12.088 28.194,9.566 18.208,9.566 C8.225,9.566 2.840,12.088 2.840,13.120 L2.840,55.869 C7.578,55.141 12.854,54.758 18.208,54.758 C23.564,54.758 28.840,55.141 33.580,55.869 L33.580,13.120 ZM58.293,2.879 L45.523,2.879 L45.523,36.991 L51.907,30.530 L58.293,36.991 L58.293,2.879 ZM67.160,13.120 C67.160,12.481 65.077,11.275 61.133,10.446 L61.133,37.869 C61.133,38.542 60.875,39.173 60.406,39.648 C60.174,39.885 59.902,40.069 59.598,40.195 C58.706,40.570 57.590,40.349 56.898,39.648 L51.907,34.598 L46.915,39.649 C46.448,40.123 45.825,40.385 45.162,40.385 C44.835,40.385 44.516,40.320 44.212,40.193 C43.279,39.798 42.680,38.884 42.682,37.864 L42.682,10.402 C38.590,11.231 36.420,12.469 36.420,13.120 L36.420,55.869 C45.898,54.414 57.679,54.414 67.160,55.869 L67.160,13.120 ZM8.143,40.578 C8.143,39.783 8.778,39.138 9.563,39.138 L26.509,39.138 C27.294,39.138 27.929,39.783 27.929,40.578 C27.929,41.373 27.294,42.017 26.509,42.017 L9.563,42.017 C8.778,42.017 8.143,41.373 8.143,40.578 ZM26.509,33.642 L9.563,33.642 C8.778,33.642 8.143,32.998 8.143,32.203 C8.143,31.408 8.778,30.763 9.563,30.763 L26.509,30.763 C27.294,30.763 27.929,31.408 27.929,32.203 C27.929,32.998 27.294,33.642 26.509,33.642 ZM26.509,25.267 L9.563,25.267 C8.778,25.267 8.143,24.622 8.143,23.827 C8.143,23.032 8.778,22.388 9.563,22.388 L26.509,22.388 C27.294,22.388 27.929,23.032 27.929,23.827 C27.929,24.622 27.294,25.267 26.509,25.267 Z" />
</svg>
