<svg xmlns="http://www.w3.org/2000/svg" xmlns:xlink="http://www.w3.org/1999/xlink" preserveAspectRatio="xMidYMid" width="55" height="52" viewBox="0 0 55 52">
  <path d="M54.977,14.451 L54.977,50.906 C54.977,51.510 54.483,52.000 53.874,52.000 L1.104,52.000 C0.494,52.000 0.000,51.510 0.000,50.906 L0.000,14.339 C0.000,14.338 0.001,14.336 0.001,14.335 C0.002,14.208 0.032,14.085 0.076,13.965 C0.089,13.930 0.103,13.898 0.119,13.865 C0.132,13.838 0.139,13.808 0.155,13.782 L8.073,0.537 C8.272,0.204 8.633,0.000 9.023,0.000 L45.955,0.000 C46.345,0.000 46.706,0.204 46.905,0.537 L54.725,13.618 C54.897,13.810 55.000,14.063 55.000,14.340 C55.000,14.380 54.981,14.413 54.977,14.451 ZM9.652,2.189 L3.043,13.244 L21.011,13.244 L21.011,12.411 C21.011,12.341 21.018,12.269 21.032,12.199 L23.022,2.189 L9.652,2.189 ZM32.038,13.244 L32.038,12.518 L30.170,3.122 L25.087,3.121 L23.219,12.518 L23.219,13.244 L23.219,27.586 L32.038,27.586 L32.038,13.244 ZM45.326,2.189 L32.235,2.189 L34.225,12.199 C34.239,12.269 34.246,12.340 34.246,12.411 L34.246,13.244 L51.935,13.244 L45.326,2.189 ZM52.770,15.435 L34.246,15.435 L34.246,28.681 C34.246,29.286 33.752,29.776 33.142,29.776 L22.115,29.776 C21.505,29.776 21.011,29.286 21.011,28.681 L21.011,15.435 L2.208,15.435 L2.208,49.811 L52.770,49.811 L52.770,15.435 ZM9.612,31.996 L14.190,31.996 C14.799,31.996 15.294,32.486 15.294,33.091 C15.294,33.696 14.799,34.186 14.190,34.186 L9.612,34.186 C9.002,34.186 8.508,33.696 8.508,33.091 C8.508,32.486 9.002,31.996 9.612,31.996 ZM9.612,36.755 L23.037,36.755 C23.647,36.755 24.141,37.245 24.141,37.850 C24.141,38.455 23.647,38.945 23.037,38.945 L9.612,38.945 C9.002,38.945 8.508,38.455 8.508,37.850 C8.508,37.245 9.002,36.755 9.612,36.755 ZM9.612,41.515 L23.037,41.515 C23.647,41.515 24.141,42.004 24.141,42.609 C24.141,43.215 23.647,43.704 23.037,43.704 L9.612,43.704 C9.002,43.704 8.508,43.215 8.508,42.609 C8.508,42.004 9.002,41.515 9.612,41.515 Z" />
</svg>
