<?xml version="1.0" encoding="UTF-8" standalone="no"?>
<svg width="130px" height="36px" viewBox="0 0 130 36" version="1.1" xmlns="http://www.w3.org/2000/svg" xmlns:xlink="http://www.w3.org/1999/xlink" xmlns:sketch="http://www.bohemiancoding.com/sketch/ns">
    <!-- Generator: Sketch 3.4.4 (17249) - http://www.bohemiancoding.com/sketch -->
    <title>Group</title>
    <desc>Created with Sketch.</desc>
    <defs></defs>
    <g id="Page-1" stroke="none" stroke-width="1" fill="none" fill-rule="evenodd" sketch:type="MSPage">
        <g id="Group" sketch:type="MSLayerGroup">
            <path d="M14.4051647,22.4776763 C14.2263208,22.5682254 14.0245578,22.6200751 13.810396,22.6200751 C13.3159451,22.6200751 12.8853671,22.3476763 12.6588064,21.9449017 L12.5727659,21.7547861 L8.96733237,13.843948 C8.92825723,13.7582832 8.90383526,13.6609711 8.90383526,13.5659133 C8.90383526,13.2022139 9.1995289,12.9057688 9.56473121,12.9057688 C9.71314162,12.9057688 9.84915318,12.9546127 9.95923988,13.0372717 L14.2135462,16.0659711 C14.5246445,16.2696127 14.8954827,16.3887168 15.2952514,16.3887168 C15.5338353,16.3887168 15.7607717,16.3443815 15.9723035,16.2673584 L35.9806561,7.36235838 C32.3943844,3.13585549 26.4876503,0.373543353 19.803922,0.373543353 C8.86626301,0.373543353 -3.75722543e-05,7.76212717 -3.75722543e-05,16.8767803 C-3.75722543e-05,21.8494682 2.66796821,26.3254509 6.84224566,29.3507688 C7.1777659,29.5897283 7.39756358,29.9823584 7.39756358,30.4253353 C7.39756358,30.5718671 7.36562717,30.7063757 7.32767919,30.8465202 C6.99403757,32.0905376 6.46013584,34.0822428 6.43458671,34.175422 C6.39400867,34.3313468 6.32900867,34.4944104 6.32900867,34.6582254 C6.32900867,35.0223006 6.62432659,35.3179942 6.98915318,35.3179942 C7.13230347,35.3179942 7.24915318,35.2646416 7.36976012,35.1947572 L11.7055983,32.6924451 C12.0321012,32.5038324 12.3766387,32.3873584 12.7572457,32.3873584 C12.9593844,32.3873584 13.1547601,32.4185434 13.3392399,32.4749017 C15.3621301,33.0565202 17.5439509,33.3800173 19.803922,33.3800173 C30.740078,33.3800173 39.6075058,25.9910578 39.6075058,16.8767803 C39.6075058,14.1159711 38.7895578,11.5159711 37.3516676,9.22894798 L14.5498179,22.3942659 L14.4051647,22.4776763 Z" id="Fill-1" fill="#00C800" sketch:type="MSShapeGroup"></path>
            <path d="M76.7071387,14.5460983 L87.8116185,14.5460983 L87.8116185,15.4842775 L76.7071387,15.4842775 L76.7071387,14.5460983 Z" id="Fill-4" fill="#020202" sketch:type="MSShapeGroup"></path>
            <path d="M76.7071387,17.6743642 L87.8116185,17.6743642 L87.8116185,18.6910694 L76.7071387,18.6910694 L76.7071387,17.6743642 Z" id="Fill-6" fill="#020202" sketch:type="MSShapeGroup"></path>
            <path d="M86.5127457,26.4843064 L78.0075145,26.4843064 L78.0075145,22.380289 L86.5127457,22.380289 L86.5127457,26.4843064 Z M76.9904335,27.4224855 L87.5283237,27.4224855 L87.5283237,21.4413584 L76.9904335,21.4413584 L76.9904335,27.4224855 Z" id="Fill-7" fill="#020202" sketch:type="MSShapeGroup"></path>
            <path d="M74.2826387,8.76162428 C73.2911069,12.2539653 71.8844017,15.3288786 70.0606445,17.9871156 C70.0610202,17.9882428 70.0617717,17.9893699 70.0625231,17.9904971 L70.6170896,18.9523468 C71.2648353,17.9942543 71.9137081,16.9166821 72.5625809,15.7196301 L72.5625809,27.4902659 L73.5789104,27.4902659 L73.5789104,13.6080694 C74.2225231,12.2224046 74.7699509,10.7863931 75.2257023,9.30567052 L74.2826387,8.76162428 Z" id="Fill-8" fill="#020202" sketch:type="MSShapeGroup"></path>
            <path d="M82.3379046,11.3399451 L83.1355636,10.8804364 C82.9788873,10.516737 82.3123555,9.15286416 82.1045809,8.68433815 L81.1667775,9.22613006 C81.4996676,9.85245954 81.8141474,10.4791647 82.1038295,11.1054942 C82.1549277,11.2103208 82.1812283,11.2884711 82.1812283,11.3399451 L75.6124711,11.3399451 L75.6124711,12.3562746 L88.9848121,12.3562746 L88.9848121,11.3399451 L82.3379046,11.3399451 Z" id="Fill-9" fill="#020202" sketch:type="MSShapeGroup"></path>
            <path d="M57.2610173,9.03421098 L58.1991965,9.03421098 L58.1991965,14.0395867 L60.1544566,14.0395867 L60.1544566,10.5201936 L61.0926358,10.5201936 L61.0926358,14.9781416 L54.2894277,14.9781416 L54.2894277,10.5201936 L55.2279827,10.5201936 L55.2279827,14.0395867 L57.2610173,14.0395867 L57.2610173,9.03421098 Z" id="Fill-10" fill="#020202" sketch:type="MSShapeGroup"></path>
            <path d="M54.6022543,17.0108382 L60.6239595,17.0108382 L60.6239595,17.9490173 L54.6022543,17.9490173 L54.6022543,17.0108382 Z" id="Fill-11" fill="#020202" sketch:type="MSShapeGroup"></path>
            <path d="M61.4798179,22.4552832 L59.9201936,23.7932312 L59.9201936,19.9830289 L54.8366676,19.9830289 L54.8366676,21.4686358 C54.9835751,23.5726821 54.4647023,25.0560347 53.2808006,25.9201965 L53.8237197,26.8617572 C55.280396,25.6616994 55.9578237,23.9964971 55.8533728,21.8593873 L55.8533728,20.9212081 L58.9820145,20.9212081 L58.9820145,23.1890694 C58.9436908,23.9585491 58.9053671,24.2147919 58.6307139,24.5953988 L59.2179682,25.6117283 C59.7379682,25.1939249 60.6494711,24.4146763 61.9498468,23.2702254 L61.4798179,22.4552832 Z" id="Fill-12" fill="#020202" sketch:type="MSShapeGroup"></path>
            <path d="M52.8605925,8.84086416 C51.8901012,10.8228006 50.7197254,12.4564422 49.3502168,13.7402861 L49.9224422,14.7314422 C51.4798121,13.1699393 52.7531358,11.3766156 53.7409104,9.34884104 L52.8605925,8.84086416 Z" id="Fill-13" fill="#020202" sketch:type="MSShapeGroup"></path>
            <path d="M52.7255578,13.9615491 C51.7930145,16.293659 50.574922,18.3161734 49.075789,20.0302197 L49.6194595,20.9725318 C50.2371474,20.2511445 50.8285347,19.5042081 51.3962514,18.7317225 L51.3962514,27.4901908 L52.3344306,27.4901908 L52.3344306,17.1672139 C52.7946908,16.3503931 53.2282746,15.4557977 53.6396908,14.4868092 L52.7255578,13.9615491 Z" id="Fill-14" fill="#020202" sketch:type="MSShapeGroup"></path>
            <path d="M64.7637081,21.3105318 C64.0859046,19.5900983 63.591078,17.270763 63.2781012,14.3510231 C63.3821763,14.0380462 63.5129277,13.7254451 63.6692283,13.4124682 L66.4063671,13.4124682 C66.1967139,16.7492601 65.6496618,19.3826994 64.7637081,21.3105318 L64.7637081,21.3105318 Z M68.439026,13.4124682 L68.439026,12.4739133 L63.9818295,12.4739133 C64.3605578,11.3328439 64.8155578,9.96934682 64.966974,8.79972254 L63.9818295,8.79859538 C63.3273208,11.8667457 62.3575809,14.4483353 61.0729855,16.5456185 L61.6662514,17.5743468 C61.7699509,17.3676994 61.914604,17.0780173 62.1047197,16.6970347 C62.3124942,16.3325838 62.4695462,16.0451561 62.5747486,15.8370058 C62.8873497,18.6004451 63.4347775,20.7897803 64.2166561,22.4053873 C63.4708468,23.6982486 62.3410491,25.0136532 60.8385347,26.3527283 L61.4028699,27.3303584 C63.016974,25.8184509 64.1114538,24.5165723 64.6855578,23.4220925 C65.3633613,24.6461965 66.5138237,26.0942312 67.7886503,27.3889711 L68.3605,26.397815 C67.0255578,25.1229884 65.8694595,23.7110231 65.2333613,22.4835376 C66.3789393,20.3994046 67.0830434,17.3744624 67.3445462,13.4124682 L68.439026,13.4124682 Z" id="Fill-15" fill="#020202" sketch:type="MSShapeGroup"></path>
            <path d="M121.946575,22.6160173 C121.263136,21.266422 119.856431,18.9260462 118.716864,17.2180116 L119.565997,16.7964509 C120.725101,18.5044855 122.153598,20.7813642 122.836662,22.0467977 L121.946575,22.6160173 Z" id="Fill-16" fill="#000000" sketch:type="MSShapeGroup"></path>
            <path d="M95.4739162,17.576789 L105.575968,17.576789 C104.416488,19.9171647 102.616026,21.7093613 100.400766,23.1224538 C98.2681647,21.6676561 96.591315,19.8330029 95.4739162,17.576789 M109.299754,27.313263 L109.567645,26.4280607 C106.380766,25.9508931 103.620708,25.0416445 101.310766,23.6912977 C103.795795,22.0467601 105.803656,19.8747081 107.045043,16.9865289 L106.38302,16.5431763 L106.175997,16.5856329 L100.814436,16.5856329 L100.814436,12.8738699 L108.950332,12.8738699 L108.950332,11.8620491 L100.814436,11.8620491 L100.814436,8.38285838 L99.8214017,8.38285838 L99.8214017,11.8620491 L91.7061705,11.8620491 L91.7061705,12.8738699 L99.8214017,12.8738699 L99.8214017,16.5856329 L94.2997832,16.5856329 L94.2997832,17.576789 C95.479552,20.0648237 97.2957948,22.1098815 99.4693497,23.6495925 C97.0275289,25.0266156 94.1517486,25.9204595 91.189552,26.472396 L91.4777312,27.416211 C91.4841185,27.4316156 91.4938873,27.4522803 91.4991474,27.4658064 C94.6668642,26.8334653 97.7515462,25.8216445 100.379725,24.282685 C102.842962,25.8216445 105.823945,26.8548815 109.260303,27.3820202 C109.272327,27.3617312 109.28698,27.3354306 109.299754,27.313263" id="Fill-17" fill="#000000" sketch:type="MSShapeGroup"></path>
            <path d="M116.584827,8.53006647 C115.358844,11.8469451 113.390058,15.036078 111.267977,17.187841 L111.69104,18.2597775 C111.699306,18.276685 111.71396,18.299604 111.720723,18.3142572 C112.610058,17.4290549 113.43815,16.3744017 114.224538,15.2145462 L114.224538,27.4454422 L115.218324,27.4454422 L115.218324,13.6545462 C116.108786,12.1362514 116.895549,10.5123786 117.536908,8.82500867 L116.584827,8.53006647 Z" id="Fill-18" fill="#000000" sketch:type="MSShapeGroup"></path>
            <path d="M126.8735,13.148448 L126.8735,8.63564451 L125.879714,8.63564451 L125.879714,13.148448 L117.206535,13.148448 L117.206535,14.1606445 L125.879714,14.1606445 L125.879714,25.8846908 C125.879714,26.3693728 125.71402,26.4959913 125.23798,26.5380723 C124.860379,26.5553555 124.453095,26.6455289 123.375523,26.6515405 L123.378529,27.5371185 C124.846477,27.5457601 125.341679,27.5205867 125.900379,27.3605289 C126.563153,27.1918295 126.8735,26.8548064 126.8735,25.8636503 L126.8735,14.1606445 L129.667749,14.1606445 L129.667749,13.148448 L126.8735,13.148448 Z" id="Fill-19" fill="#000000" sketch:type="MSShapeGroup"></path>
        </g>
    </g>
</svg>