<svg xmlns="http://www.w3.org/2000/svg" xmlns:xlink="http://www.w3.org/1999/xlink" preserveAspectRatio="xMidYMid" width="58" height="58" viewBox="0 0 58 58">
  <defs>
    <style>
      .cls-1 {
        fill: #fceded;
      }

      .cls-2 {
        fill: #e60012;
        fill-rule: evenodd;
      }
    </style>
  </defs>
  <g>
    <circle cx="29" cy="29" r="29" class="cls-1"/>
    <path d="M44.947,19.310 C44.894,19.139 44.771,18.999 44.609,18.928 L36.015,15.125 C35.737,15.000 35.415,15.106 35.256,15.367 L32.280,20.266 L24.040,21.238 L23.568,20.110 C23.510,19.972 23.405,19.860 23.271,19.794 L15.921,16.210 C15.692,16.098 15.420,16.143 15.238,16.322 C15.055,16.500 15.000,16.775 15.099,17.013 L17.486,22.711 L17.486,37.232 C17.486,37.442 17.591,37.638 17.764,37.752 L25.555,42.900 C25.579,42.916 25.606,42.924 25.631,42.936 C25.651,42.945 25.669,42.956 25.690,42.963 C25.754,42.986 25.819,43.000 25.886,43.000 C25.909,43.000 25.932,42.999 25.955,42.996 L40.504,41.280 C40.810,41.243 41.042,40.979 41.042,40.664 L41.042,26.171 L44.884,19.822 C44.977,19.669 45.000,19.482 44.947,19.310 ZM32.034,21.544 L32.034,26.383 L26.470,27.039 L24.538,22.427 L32.034,21.544 ZM33.250,21.988 L38.710,25.595 L33.250,26.239 L33.250,21.988 ZM22.540,20.812 L24.839,26.302 L18.581,22.167 L16.851,18.038 L22.540,20.812 ZM18.702,23.724 L25.278,28.069 L25.278,41.239 L18.702,36.895 L18.702,23.724 ZM26.494,41.684 L26.494,28.284 L39.826,26.712 L39.826,40.112 L26.494,41.684 ZM40.243,25.131 L33.473,20.658 L36.013,16.475 L43.481,19.780 L40.243,25.131 Z" class="cls-2"/>
  </g>
</svg>
