<?xml version="1.0" encoding="UTF-8" standalone="no"?>
<svg width="149px" height="36px" viewBox="0 0 149 36" version="1.1" xmlns="http://www.w3.org/2000/svg" xmlns:xlink="http://www.w3.org/1999/xlink" xmlns:sketch="http://www.bohemiancoding.com/sketch/ns">
    <!-- Generator: Sketch 3.4 (15575) - http://www.bohemiancoding.com/sketch -->
    <title>svg-header-logo</title>
    <desc>Created with Sketch.</desc>
    <defs></defs>
    <g id="Page-1" stroke="none" stroke-width="1" fill="none" fill-rule="evenodd" sketch:type="MSPage">
        <g id="Group" sketch:type="MSLayerGroup" transform="translate(-367.000000, -6.000000)">
            <g id="svg-header-logo" transform="translate(367.640000, 6.000000)" sketch:type="MSShapeGroup">
                <g id="Group" transform="translate(43.475000, 5.014474)" fill="#3E3A39">
                    <path d="M28.1443176,12.3424679 L29.9567976,12.3424679 L29.9567976,19.4100203 L28.1443176,19.4100203 L28.1443176,12.3424679 Z" id="Fill-1"></path>
                    <path d="M44.2326958,19.8813519 L44.2326958,17.6473694 C49.422833,13.1535779 49.422833,6.80472546 49.422833,4.41457398 C49.422833,3.27861646 48.7103269,3.07119828 48.5169957,3.03649408 L44.5516922,3.03649408 L44.5516922,1.22057619 L48.685355,1.22622571 C49.5670258,1.32832065 51.2349102,2.12571037 51.2349102,4.41457398 C51.2349102,7.0323205 51.3017706,14.7705519 44.2326958,19.8813519" id="Fill-2"></path>
                    <path d="M37.6163381,5.79346096 L42.5410477,5.79346096 L42.5410477,7.60897531 L37.6163381,7.60897531 L37.6163381,5.79346096 Z" id="Fill-3"></path>
                    <path d="M37.6163381,10.8974008 L42.5410477,10.8974008 L42.5410477,12.7129152 L37.6163381,12.7129152 L37.6163381,10.8974008 Z" id="Fill-4"></path>
                    <path d="M31.0309941,0.810178749 L32.8430713,0.810178749 L32.8430713,21.9712716 L31.0309941,21.9712716 L31.0309941,0.810178749 Z" id="Fill-5"></path>
                    <path d="M36.802736,2.17211716 L38.6148133,2.17211716 L38.6148133,17.0884702 L36.802736,17.0884702 L36.802736,2.17211716 Z" id="Fill-6"></path>
                    <path d="M94.970053,21.1290893 L93.157573,21.1210185 L93.2143641,8.00847725 L95.0268441,8.01614445 L94.970053,21.1290893" id="Fill-7"></path>
                    <path d="M104.254784,19.6121925 L102.44311,19.6121925 L102.44311,5.56142701 C102.317444,4.75677362 101.621855,4.15590657 100.803017,4.15590657 L89.1672976,4.15590657 L89.1672976,2.33998868 L100.803017,2.33998868 C102.550247,2.33998868 104.031245,3.64987078 104.247937,5.38629182 L104.254784,5.49887873 L104.254784,19.6121925" id="Fill-8"></path>
                    <path d="M100.77885,23.116914 L100.77885,21.3013997 C101.695562,21.3013997 102.441498,20.5548557 102.441498,19.6355977 L104.253173,19.6355977 C104.253173,21.5556282 102.69444,23.116914 100.77885,23.116914" id="Fill-9"></path>
                    <path d="M31.6194459,22.8913367 C29.7034532,22.8913367 28.1443176,21.3296473 28.1443176,19.4100203 L29.9567976,19.4100203 C29.9567976,20.3288748 30.7027338,21.0758223 31.6194459,21.0758223 L31.6194459,22.8913367" id="Fill-10"></path>
                    <path d="M26.7696522,22.6052287 L26.7696522,20.7897144 C27.5288799,20.7897144 28.1467342,20.1706882 28.1467342,19.4100203 L29.9588115,19.4100203 C29.9588115,21.1718642 28.5281606,22.6052287 26.7696522,22.6052287" id="Fill-11"></path>
                    <path d="M73.8413693,22.8057868 L64.1329208,22.8057868 C62.3828707,22.7896453 60.9659141,21.3570879 60.9647057,19.6121925 L60.9647057,9.92931483 C60.9659141,8.16787448 62.3961622,6.73450996 64.153865,6.73450996 L73.8168002,6.73450996 C75.5753085,6.73450996 77.0055567,8.16787448 77.0055567,9.92971837 L77.0055567,19.6121925 C77.0055567,21.3570879 75.5877945,22.7896453 73.8457998,22.8057868 L73.8413693,22.8057868 L73.8413693,22.8057868 Z M64.153865,8.55042785 C63.3946373,8.55042785 62.7771858,9.16905054 62.7771858,9.92931483 L62.7771858,19.6121925 C62.7771858,20.3651931 63.3894012,20.9838158 64.141379,20.9902724 L73.8329111,20.9902724 C74.5832778,20.9817982 75.1934794,20.3639825 75.1934794,19.6121925 L75.1934794,9.92971837 C75.1934794,9.16905054 74.5760279,8.55042785 73.8168002,8.55042785 L64.153865,8.55042785 L64.153865,8.55042785 Z" id="Fill-12"></path>
                    <path d="M51.6690999,19.4774111 C48.1790689,17.4266345 46.3814915,14.0236044 45.5554034,10.1032394 C44.9411741,7.18566467 45.0873808,4.85564026 45.0934224,4.75798423 L46.9018747,4.87743127 C46.8962358,4.96378826 46.3694083,12.9364748 51.6690999,17.4544785 L51.6690999,19.4774111" id="Fill-13"></path>
                    <path d="M97.2912358,21.7299563 L90.4134783,21.7299563 C89.127423,21.7299563 88.0806151,20.6811629 88.0806151,19.3922647 L88.0806151,16.0477475 L89.8926924,16.0477475 L89.8926924,19.3922647 C89.8926924,19.6807939 90.1258981,19.914442 90.4134783,19.914442 L97.2912358,19.914442 C97.5784132,19.914442 97.8120217,19.6807939 97.8120217,19.3922647 L97.8120217,16.0477475 L99.624099,16.0477475 L99.624099,19.3918612 C99.624099,20.6811629 98.5772911,21.7299563 97.2912358,21.7299563" id="Fill-14"></path>
                    <path d="M89.0086049,0.810178749 C89.0086049,2.18381974 88.3081821,3.39604582 87.2464715,4.10828917 L87.2464715,6.15664454 C89.3421012,5.28823225 90.8206821,3.21970001 90.8206821,0.810178749 L89.0086049,0.810178749" id="Fill-15"></path>
                    <path d="M62.7272419,0.810178749 C62.7272419,2.18381974 62.0264162,3.39604582 60.9647057,4.10828917 L60.9647057,6.15664454 C63.0603354,5.28823225 64.5393191,3.21970001 64.5393191,0.810178749 L62.7272419,0.810178749" id="Fill-16"></path>
                    <path d="M89.2893379,6.13444999 C89.2893379,7.30269049 88.5828735,8.30709485 87.5767457,8.74614344 L87.5767457,10.6581032 C89.5990706,10.1508568 91.1014151,8.31556914 91.1014151,6.13444999 L89.2893379,6.13444999" id="Fill-17"></path>
                    <path d="M24.4867329,3.11599093 C24.4867329,2.77459836 24.2104304,2.49777177 23.8700869,2.49777177 L0.324763174,2.49777177 L0.324763174,4.31368966 L24.4867329,4.31368966 L24.4867329,3.11599093" id="Fill-18"></path>
                    <path d="M35.5589719,3.11599093 C35.5589719,2.77459836 35.2830722,2.49777177 34.942326,2.49777177 L27.3186322,2.49777177 L27.3186322,4.31368966 L35.5609858,4.31368966 L35.5609858,3.13132534 C35.5601803,3.12607936 35.5589719,3.12204399 35.5589719,3.11599093" id="Fill-19"></path>
                    <path d="M24.4867329,10.5777993 C24.4867329,10.2432669 24.2209025,9.9733004 23.8898228,9.96200135 L0.324763174,9.96200135 L0.324763174,11.7779192 L24.4867329,11.7779192 L24.4867329,10.5777993" id="Fill-20"></path>
                    <path d="M24.4867329,18.0367829 C24.4867329,17.7216202 24.2507077,17.4649705 23.9466139,17.4266345 L0.324763174,17.4266345 L0.324763174,19.2421488 L24.4867329,19.2421488 L24.4867329,18.0367829" id="Fill-21"></path>
                    <path d="M69.8913712,17.7502714 L69.8913712,10.2307572 L68.079294,10.2307572 L68.079294,18.3676835 L69.2743225,18.3676835 C69.6150687,18.3676835 69.8913712,18.0912604 69.8913712,17.7502714" id="Fill-22"></path>
                    <path d="M77.3648305,2.54538917 C77.3519417,2.54538917 77.3434835,2.54337149 77.3358308,2.53973965 L63.0446272,2.49777177 L63.0393912,4.31368966 L77.9762404,4.35767522 L77.9798654,3.14665976 C77.9701988,2.81333794 77.6995351,2.54538917 77.3648305,2.54538917" id="Fill-23"></path>
                    <path d="M77.9637544,14.009077 C77.9637544,13.6684915 77.6882575,13.3920685 77.3475112,13.3920685 L60.006508,13.3920685 L60.006508,15.2071793 L77.9637544,15.2071793 L77.9637544,14.009077" id="Fill-24"></path>
                    <path d="M58.950839,2.12853513 C58.950839,1.78714257 58.6749393,1.51031598 58.3341931,1.51031598 C58.3100267,1.51031598 58.298749,1.50264877 58.2975407,1.48973558 L53.8839505,1.48973558 L53.8839505,3.30484639 L58.950839,3.30484639 L58.950839,2.12853513" id="Fill-25"></path>
                    <path d="M58.950839,11.1403303 C58.950839,10.7989377 58.6749393,10.5221111 58.3341931,10.5221111 L53.8839505,10.5221111 L53.8839505,12.338029 L58.950839,12.338029 L58.950839,11.1403303" id="Fill-26"></path>
                    <path d="M58.950839,21.1290893 C58.950839,20.8454025 58.7595217,20.6093332 58.4993301,20.536293 L53.8839505,20.536293 L53.8839505,22.3518073 L58.950839,22.3518073 L58.950839,21.1290893" id="Fill-27"></path>
                    <path d="M85.8653618,2.12853513 C85.8653618,1.78714257 85.589462,1.51031598 85.2487158,1.51031598 C85.2261605,1.51031598 85.2140773,1.50264877 85.2096468,1.48973558 L80.7976676,1.48973558 L80.7976676,3.30484639 L85.8653618,3.30484639 L85.8653618,2.12853513" id="Fill-28"></path>
                    <path d="M100.463479,7.68484032 C100.463479,7.41608448 100.290286,7.18929651 100.04983,7.10415014 L89.7903879,7.10415014 L89.7903879,8.92006802 L100.463479,8.92006802 L100.463479,7.68524386 L100.463479,7.68484032" id="Fill-29"></path>
                    <path d="M100.463479,13.2702002 C100.463479,12.9288076 100.186773,12.651981 99.8468326,12.651981 L87.7777296,12.651981 L87.7777296,14.4674954 L100.463479,14.4674954 L100.463479,13.2702002" id="Fill-30"></path>
                    <path d="M85.8653618,11.1403303 C85.8653618,10.7989377 85.589462,10.5221111 85.2487158,10.5221111 L80.7976676,10.5221111 L80.7976676,12.338029 L85.8653618,12.338029 L85.8653618,11.1403303" id="Fill-31"></path>
                    <path d="M85.8653618,21.1290893 C85.8653618,20.8454025 85.6732389,20.6093332 85.4134501,20.536293 L80.7976676,20.536293 L80.7976676,22.3518073 L85.8653618,22.3518073 L85.8653618,21.1290893" id="Fill-32"></path>
                    <path d="M51.6690999,21.7339917 C51.6690999,21.3925991 51.3927974,21.1161761 51.0524539,21.1161761 C51.0206348,21.1161761 51.006135,21.099631 50.9988851,21.0758223 L31.6190432,21.0758223 L31.6190432,22.8913367 L51.6690999,22.8913367 L51.6690999,21.7339917" id="Fill-33"></path>
                    <path d="M43.4472878,19.2631328 L43.4472878,2.17211716 L41.6352105,2.17211716 L41.6352105,19.8813519 L42.830239,19.8813519 C43.1709852,19.8813519 43.4472878,19.6041218 43.4472878,19.2631328" id="Fill-34"></path>
                    <path d="M44.2326958,16.766851 C44.2326958,16.4254584 43.9563932,16.1486318 43.615647,16.1486318 L35.9903422,16.1486318 L35.9903422,17.9645497 L44.2326958,17.9645497 L44.2326958,16.766851" id="Fill-35"></path>
                    <path d="M35.5609858,8.63476715 C35.5609858,8.29377812 35.2850861,8.0177586 34.9443398,8.0177586 C34.9330622,8.0177586 34.9242012,8.01533738 34.9157429,8.01251262 L27.3186322,8.01251262 L27.3186322,9.82802697 L35.5609858,9.82802697 L35.5609858,8.63557422 C35.5609858,8.63557422 35.5609858,8.63557422 35.5609858,8.63476715" id="Fill-36"></path>
                    <path d="M35.5609858,14.4130179 C35.5609858,14.0720288 35.2850861,13.7952022 34.9443398,13.7952022 L31.9368313,13.7952022 L31.9368313,15.6111201 L35.5609858,15.6111201 L35.5609858,14.4130179" id="Fill-37"></path>
                    <path d="M44.2326958,1.83798827 C44.2326958,1.49699925 43.9563932,1.22057619 43.615647,1.22057619 L35.9903422,1.22057619 L35.9903422,3.03649408 L44.2326958,3.03649408 L44.2326958,1.83798827" id="Fill-38"></path>
                    <path d="M13.3117867,22.2888555 L13.3117867,0.810178749 L11.4997094,0.810178749 L11.4997094,22.9062676 L12.6951407,22.9062676 C13.0354842,22.9062676 13.3117867,22.6302481 13.3117867,22.2888555" id="Fill-39"></path>
                </g>
                <g id="Group">
                    <path d="M17.587402,35.0336071 C7.9430927,35.0336071 0.125108923,27.2007943 0.125108923,17.5385236 C0.125108923,7.87592123 7.9430927,0.0437716981 17.587402,0.0437716981 C27.2310493,0.0437716981 35.0490331,7.87592123 35.0490331,17.5385236 C35.0490331,27.2007943 27.2310493,35.0336071 17.587402,35.0336071 Z" id="Fill-40" fill="#E73736"></path>
                    <path d="M22.7936542,30.4826769 C21.8818154,30.4826769 21.1400982,29.7395528 21.1400982,28.8256528 L21.1400982,25.8929491 C21.1400982,25.6591684 21.3290855,25.4698226 21.5620926,25.4698226 C21.7954307,25.4698226 21.9844179,25.6591684 21.9844179,25.8929491 L21.9844179,28.8256528 C21.9844179,29.2726547 22.3471676,29.6367557 22.7936542,29.6367557 C23.2401408,29.6367557 23.6035525,29.2726547 23.6035525,28.8256528 C23.6035525,28.5918722 23.7922088,28.402858 24.0255469,28.402858 C24.258554,28.402858 24.4475412,28.5918722 24.4475412,28.8256528 C24.4475412,29.7395528 23.7058241,30.4826769 22.7936542,30.4826769" id="Fill-41" fill="#FFFFFF"></path>
                    <path d="M24.9701523,17.0782575 C24.7371452,17.0782575 24.547827,16.8892434 24.547827,16.6554627 C24.547827,16.1219123 24.1145794,15.6871797 23.5817081,15.6871797 C23.0491677,15.6871797 22.6159201,16.1219123 22.6159201,16.6554627 C22.6159201,16.8892434 22.4262709,17.0782575 22.1935948,17.0782575 C21.9602567,17.0782575 21.7712694,16.8892434 21.7712694,16.6554627 C21.7712694,15.6553458 22.5834845,14.8412585 23.5817081,14.8412585 C24.5799316,14.8412585 25.3921467,15.6553458 25.3921467,16.6554627 C25.3921467,16.8892434 25.2031594,17.0782575 24.9701523,17.0782575" id="Fill-42" fill="#FFFFFF"></path>
                    <path d="M13.0053704,17.0782575 C12.7723633,17.0782575 12.583376,16.8892434 12.583376,16.6554627 C12.583376,16.1219123 12.1501285,15.6871797 11.6172571,15.6871797 C11.0840548,15.6871797 10.6508072,16.1219123 10.6508072,16.6554627 C10.6508072,16.8892434 10.461489,17.0782575 10.2284819,17.0782575 C9.99547479,17.0782575 9.8064875,16.8892434 9.8064875,16.6554627 C9.8064875,15.6553458 10.6183716,14.8412585 11.6172571,14.8412585 C12.6154807,14.8412585 13.4276958,15.6553458 13.4276958,16.6554627 C13.4276958,16.8892434 13.2387085,17.0782575 13.0053704,17.0782575" id="Fill-43" fill="#FFFFFF"></path>
                    <path d="M16.2618431,30.4873193 C16.0285051,30.4873193 15.8398488,30.2979736 15.8398488,30.0648561 L15.8398488,26.610208 C15.8398488,26.3764274 16.0285051,26.1870816 16.2618431,26.1870816 C16.4948502,26.1870816 16.6838375,26.3764274 16.6838375,26.610208 L16.6838375,30.0648561 C16.6838375,30.2979736 16.4948502,30.4873193 16.2618431,30.4873193" id="Fill-44" fill="#FFFFFF"></path>
                    <path d="M18.9119679,30.4873193 C18.6789608,30.4873193 18.4896425,30.2979736 18.4896425,30.0648561 L18.4896425,26.610208 C18.4896425,26.3764274 18.6789608,26.1870816 18.9119679,26.1870816 C19.144975,26.1870816 19.3339622,26.3764274 19.3339622,26.610208 L19.3339622,30.0648561 C19.3339622,30.2979736 19.144975,30.4873193 18.9119679,30.4873193" id="Fill-45" fill="#FFFFFF"></path>
                    <path d="M12.4221907,30.4826769 C11.5338512,30.4826769 10.8109996,29.7581226 10.8109996,28.8680981 C10.8109996,28.6343175 10.9999869,28.4453033 11.233325,28.4453033 C11.4663321,28.4453033 11.6549884,28.6343175 11.6549884,28.8680981 C11.6549884,29.2915561 11.9992034,29.6367557 12.4221907,29.6367557 C12.845509,29.6367557 13.189724,29.2915561 13.189724,28.8680981 L13.189724,25.8929491 C13.189724,25.6591684 13.3783803,25.4701542 13.6117184,25.4701542 C13.8447255,25.4701542 14.0337128,25.6591684 14.0337128,25.8929491 L14.0337128,28.8680981 C14.0337128,29.7581226 13.3108612,30.4826769 12.4221907,30.4826769" id="Fill-46" fill="#FFFFFF"></path>
                    <path d="M17.5996481,22.6352736 C16.195317,22.6352736 15.0531188,21.490909 15.0531188,20.0842458 C15.0531188,18.6779142 16.195317,17.5335495 17.5996481,17.5335495 C19.0033172,17.5335495 20.1451844,18.6779142 20.1451844,20.0842458 C20.1451844,21.490909 19.0033172,22.6352736 17.5996481,22.6352736 L17.5996481,22.6352736 Z M17.5996481,18.3794708 C16.6610002,18.3794708 15.8974386,19.1444807 15.8974386,20.0842458 C15.8974386,21.0246741 16.6610002,21.7890208 17.5996481,21.7890208 C18.537634,21.7890208 19.3008646,21.0246741 19.3008646,20.0842458 C19.3008646,19.1444807 18.537634,18.3794708 17.5996481,18.3794708 L17.5996481,18.3794708 Z" id="Fill-47" fill="#FFFFFF"></path>
                    <path d="M21.7176513,26.2865627 L21.4068649,25.4999986 C25.3894989,23.9192434 27.9631682,20.1240382 27.9631682,15.8314274 C27.9631682,10.0986613 23.3086529,5.43531745 17.587402,5.43531745 C11.8658201,5.43531745 7.21130479,10.0986613 7.21130479,15.8314274 C7.21130479,20.1240382 9.78431211,23.9189118 13.7669462,25.4999986 L13.4561597,26.2862311 C11.3885527,25.4655118 9.62478169,24.0598434 8.35449585,22.2207689 C7.05376022,20.3385858 6.36665408,18.1287783 6.36665408,15.8314274 C6.36665408,9.63209481 11.4004679,4.58972783 17.587402,4.58972783 C23.7740051,4.58972783 28.8074879,9.63209481 28.8074879,15.8314274 C28.8074879,18.1287783 28.1200508,20.3385858 26.8196461,22.2211005 C25.5493603,24.0598434 23.7852583,25.4658434 21.7176513,26.2865627" id="Fill-48" fill="#FFFFFF"></path>
                </g>
            </g>
        </g>
    </g>
</svg>