<?xml version="1.0" encoding="UTF-8" standalone="no"?>
<svg width="193px" height="57px" viewBox="0 0 193 57" version="1.1" xmlns="http://www.w3.org/2000/svg" xmlns:xlink="http://www.w3.org/1999/xlink">
    <!-- Generator: Sketch 3.6.1 (26313) - http://www.bohemiancoding.com/sketch -->
    <title>Page 1</title>
    <desc>Created with Sketch.</desc>
    <defs>
        <path id="path-1" d="M0,75.9252991 L193.39666,75.9252991 L193.39666,0 L0,0 L0,75.9252991 Z"></path>
    </defs>
    <g id="Page-1" stroke="none" stroke-width="1" fill="none" fill-rule="evenodd">
        <g id="头部添加关注我们" transform="translate(-364.000000, -53.000000)">
            <g id="Rectangle-630-+-Group-Copy" transform="translate(-1.000000, 0.000000)">
                <g id="Group-Copy">
                    <g id="Group-Copy-2">
                        <g id="Page-1" transform="translate(365.000000, 53.000000)">
                            <path d="M192.939143,9.73748376 C192.67207,7.59259487 190.847823,5.97385983 188.694423,5.97385983 L176.136803,5.97385983 C176.301703,5.37105641 176.394177,4.73902222 176.394177,4.08425299 L174.161883,4.08425299 C174.161883,5.78093675 173.298583,7.27885128 171.990377,8.15837265 L171.990377,10.6891077 C173.236503,10.1713983 174.30221,9.30616752 175.074977,8.21748376 L188.694423,8.21748376 C189.703223,8.21748376 190.560057,8.95929573 190.715257,9.95379145 L190.715257,27.3116718 L190.713317,27.3116718 C190.713317,28.4471248 189.793757,29.3987487 188.664677,29.3987487 L188.664677,31.6417231 C191.02501,31.6417231 192.94561,29.6832615 192.94561,27.3116718 L192.94755,27.3116718 L192.94755,9.87649231 L192.939143,9.73748376 L192.939143,9.73748376 Z" id="Fill-1" fill="#3E3A39"></path>
                            <mask id="mask-2" fill="white">
                                <use xlink:href="#path-1"></use>
                            </mask>
                            <g id="Clip-4"></g>
                            <path d="M112.067333,23.032547 L115.7889,23.032547 L115.7889,18.7882393 L112.067333,18.7882393 L112.067333,23.032547 Z M112.067333,10.2405128 L115.7889,10.2405128 L115.7889,6.83480342 L112.067333,6.83480342 L112.067333,10.2405128 Z M112.067333,16.545265 L115.7889,16.545265 L115.7889,12.4828376 L112.067333,12.4828376 L112.067333,16.545265 Z M124.985793,20.8084103 C127.651353,15.7982564 127.617727,10.7224957 127.617727,8.53668376 C127.617727,5.70974359 125.561973,4.72434188 124.47622,4.59767521 L119.382427,4.59052991 L119.382427,6.83415385 L124.26864,6.83415385 C124.506613,6.87702564 125.384787,7.13360684 125.384787,8.53668376 C125.384787,10.4087521 125.3822,14.2477265 123.751953,18.2211624 C121.984613,13.6195897 122.273673,9.18041026 122.2782,9.10895726 L120.049787,8.96150427 C120.042673,9.08232479 119.862253,11.9599316 120.6195,15.5644103 C121.01526,17.4501197 121.595967,19.2357949 122.407533,20.8668718 C121.54294,22.2673504 120.42938,23.6340513 118.989253,24.8838291 L118.989253,23.7964444 C118.989253,23.3748718 118.64846,23.032547 118.22942,23.032547 L118.021193,23.032547 L118.021193,6.83415385 L118.989253,6.83415385 L118.989253,5.35442735 L118.989253,5.35377778 C118.989253,4.9328547 118.64846,4.59052991 118.22942,4.59052991 L108.833353,4.59052991 L108.833353,6.83415385 L109.834393,6.83415385 L109.834393,23.032547 L108.833353,23.032547 L108.833353,25.2761709 L115.7889,25.2761709 L115.7889,27.6445128 L117.26136,27.6445128 C117.681047,27.6445128 118.021193,27.3015385 118.021193,26.8806154 L118.021193,25.2761709 L118.989253,25.2761709 L118.989253,27.6445128 C120.959647,26.2161026 122.47608,24.6214017 123.64978,22.9714872 C124.804727,24.6227009 126.28042,26.0420171 128.15252,27.1449915 L128.15252,24.6460855 C126.818447,23.5054359 125.78766,22.1855043 124.985793,20.8084103 L124.985793,20.8084103 Z" id="Fill-3" fill="#3E3A39" mask="url(#mask-2)"></path>
                            <path d="M93.898716,6.16912137 L80.889076,6.16912137 L80.889076,4.08399316 L78.656136,4.08399316 L78.656136,6.16912137 L64.8866627,6.16912137 L64.8866627,8.4127453 L78.656136,8.4127453 L78.656136,15.3904547 L64.8866627,15.3904547 L64.8866627,17.6334291 L78.656136,17.6334291 L78.656136,24.611788 L64.8866627,24.611788 L64.8866627,26.8547624 L78.656136,26.8547624 L78.656136,31.3809846 L80.1292427,31.3809846 C80.5489293,31.3809846 80.889076,31.039959 80.889076,30.6183863 L80.889076,26.8547624 L94.659196,26.8547624 L94.659196,25.3652923 C94.659196,24.9761983 94.3675493,24.6592068 93.9931293,24.611788 L80.889076,24.611788 L80.889076,17.6334291 L94.659196,17.6334291 L94.659196,16.1517538 L94.659196,16.1504547 C94.659196,15.7373265 94.331336,15.4040957 93.9232893,15.3904547 L80.889076,15.3904547 L80.889076,8.4127453 L94.659196,8.4127453 L94.659196,6.9330188 L94.659196,6.93236923 C94.659196,6.51144615 94.3184027,6.16912137 93.898716,6.16912137" id="Fill-5" fill="#3E3A39" mask="url(#mask-2)"></path>
                            <path d="M159.814549,6.22751795 C159.798382,6.22751795 159.788035,6.22556923 159.778982,6.22102222 L143.698969,6.17360342 C143.900729,5.51233846 144.011309,4.81144957 144.011309,4.08457778 L141.778369,4.08457778 C141.778369,5.78126154 140.914422,7.2785265 139.606862,8.15804786 L139.606862,10.6887829 C140.776682,10.2029026 141.788069,9.40977436 142.547255,8.41332991 L160.567269,8.46659487 L160.571795,6.97062906 C160.560155,6.5588 160.226475,6.22751795 159.814549,6.22751795" id="Fill-6" fill="#3E3A39" mask="url(#mask-2)"></path>
                            <path d="M157.138836,27.3114769 C157.138836,28.2403658 156.386763,29.0036137 155.462676,29.0140068 L143.520683,29.0140068 C142.594009,29.006212 141.839349,28.241665 141.839349,27.3121265 L141.839349,21.8700068 L148.372623,21.8700068 L148.372623,25.7739385 L149.845083,25.7739385 C150.264769,25.7739385 150.605563,25.4329128 150.605563,25.0113402 L150.605563,21.8700068 L157.138836,21.8700068 L157.138836,27.3114769 Z M141.839349,15.3495966 C141.839349,14.4103145 142.600476,13.6464171 143.536203,13.6464171 L155.442629,13.6464171 C156.377709,13.6464171 157.138836,14.4103145 157.138836,15.3502462 L157.138836,19.6270325 L150.605563,19.6270325 L150.605563,15.7224513 L148.372623,15.7224513 L148.372623,19.6270325 L141.839349,19.6270325 L141.839349,15.3495966 Z M159.792756,19.6270325 L159.371776,19.6270325 L159.371776,15.3502462 C159.371776,13.1735282 157.608963,11.4034427 155.442629,11.4034427 L143.536203,11.4034427 C141.369869,11.4034427 139.607703,13.1735282 139.606409,15.3495966 L139.606409,19.6270325 L138.425596,19.6270325 L138.425596,21.8700068 L139.606409,21.8700068 L139.606409,27.3121265 C139.607703,29.4674085 141.353703,31.237494 143.510336,31.2569812 L155.473023,31.2569812 L155.478196,31.2569812 C157.624483,31.237494 159.371776,29.466759 159.371776,27.3114769 L159.371776,21.8700068 L160.552589,21.8700068 L160.552589,20.3896308 C160.552589,19.9687077 160.212443,19.6270325 159.792756,19.6270325 L159.792756,19.6270325 Z" id="Fill-7" fill="#3E3A39" mask="url(#mask-2)"></path>
                            <path d="M136.365057,4.94909402 C136.335311,4.94909402 136.321731,4.93935043 136.319791,4.92376068 L130.881324,4.92376068 L130.881324,7.16608547 L137.124891,7.16608547 L137.124891,5.71299145 L137.124891,5.71234188 C137.124891,5.2914188 136.784744,4.94909402 136.365057,4.94909402" id="Fill-8" fill="#3E3A39" mask="url(#mask-2)"></path>
                            <path d="M136.365057,16.0817949 L130.881324,16.0817949 L130.881324,18.3254188 L137.124891,18.3254188 L137.124891,16.8456923 C137.124891,16.4241197 136.784744,16.0817949 136.365057,16.0817949" id="Fill-9" fill="#3E3A39" mask="url(#mask-2)"></path>
                            <path d="M136.568563,28.4533607 L130.881777,28.4533607 L130.881777,30.696335 L137.124697,30.696335 L137.124697,29.1854291 C137.124697,28.8353094 136.88931,28.5436513 136.568563,28.4533607" id="Fill-10" fill="#3E3A39" mask="url(#mask-2)"></path>
                            <path d="M169.528517,4.94909402 C169.50071,4.94909402 169.485837,4.93935043 169.480663,4.92376068 L164.044137,4.92376068 L164.044137,7.16608547 L170.28835,7.16608547 L170.28835,5.71299145 L170.28835,5.71234188 C170.28835,5.2914188 169.948203,4.94909402 169.528517,4.94909402" id="Fill-11" fill="#3E3A39" mask="url(#mask-2)"></path>
                            <path d="M187.766457,11.8597026 L176.61081,11.8597026 C176.69229,11.4725573 176.740143,11.0730701 176.740143,10.6618906 L174.507203,10.6618906 C174.507203,12.1045915 173.63679,13.3459248 172.39713,13.8876684 L172.39713,16.2501641 C173.695637,15.9234291 174.816957,15.1491385 175.59619,14.1033265 L179.339097,14.1033265 L179.31905,18.7133436 L172.644803,18.7133436 L172.644803,20.9563179 L179.30935,20.9563179 L179.28025,27.685241 L175.892363,27.685241 C175.53799,27.685241 175.25087,27.3961812 175.25087,27.0402154 L175.25087,22.9082838 L173.01793,22.9082838 L173.01793,27.0402154 C173.01793,28.6323179 174.30803,29.9282154 175.892363,29.9282154 L184.36693,29.9282154 C185.95191,29.9282154 187.24201,28.6323179 187.24201,27.0395658 L187.24201,22.9082838 L185.00907,22.9082838 L185.00907,27.0402154 C185.00907,27.3961812 184.720657,27.685241 184.36693,27.685241 L181.51319,27.685241 L181.54229,20.9563179 L188.27603,20.9563179 L188.27603,19.477241 C188.27603,19.0550188 187.935237,18.7133436 187.516197,18.7133436 L181.55199,18.7133436 L181.572037,14.1033265 L188.27603,14.1033265 L188.27603,12.5774803 L188.27603,12.5768308 C188.27603,12.2448991 188.06263,11.9649333 187.766457,11.8597026" id="Fill-12" fill="#3E3A39" mask="url(#mask-2)"></path>
                            <path d="M169.528517,16.0817949 L164.044137,16.0817949 L164.044137,18.3254188 L170.28835,18.3254188 L170.28835,16.8456923 C170.28835,16.4241197 169.948203,16.0817949 169.528517,16.0817949" id="Fill-13" fill="#3E3A39" mask="url(#mask-2)"></path>
                            <path d="M169.731441,28.4533607 L164.044007,28.4533607 L164.044007,30.696335 L170.288221,30.696335 L170.288221,29.1854291 C170.288221,28.8353094 170.051541,28.5436513 169.731441,28.4533607" id="Fill-14" fill="#3E3A39" mask="url(#mask-2)"></path>
                            <path d="M127.392299,29.1699043 C127.352852,29.1699043 127.335392,29.1491179 127.326985,29.1198872 L104.954905,29.1198872 L104.954905,22.3688786 L108.303992,22.3688786 L108.303992,20.8885026 C108.303992,20.4675795 107.964492,20.1252547 107.544159,20.1252547 L104.954905,20.1252547 L104.954905,15.2242291 L108.303992,15.2242291 L108.303992,13.7516479 L108.303992,13.7503487 C108.303992,13.3294256 107.964492,12.9877504 107.544159,12.9877504 C107.530579,12.9877504 107.519585,12.9851521 107.509239,12.9819043 L104.954905,12.9819043 L104.954905,8.41281026 L108.303992,8.41281026 L108.303992,6.95127179 C108.303345,6.94542564 108.302052,6.94022906 108.302052,6.93243419 C108.302052,6.51086154 107.961905,6.16918632 107.541572,6.16918632 L104.954905,6.16918632 L104.954905,4.08405812 L102.721965,4.08405812 L102.721965,6.16918632 L98.148092,6.16918632 L98.148092,8.41281026 L102.721965,8.41281026 L102.721965,12.9819043 L98.148092,12.9819043 L98.148092,15.2242291 L102.721965,15.2242291 L102.721965,28.9802291 C101.956312,28.6872718 101.407939,27.9493573 101.400825,27.0795795 C101.400825,27.0737333 101.401472,27.0678872 101.401472,27.062041 L101.398885,27.062041 L101.398885,18.331135 L99.1659453,18.331135 L99.1659453,27.062041 C99.1659453,27.0685368 99.166592,27.0743829 99.166592,27.0808786 C99.1562453,28.0117162 98.4009387,28.7665197 97.4716787,28.7665197 L97.4716787,31.009494 C98.5406187,31.009494 99.5106187,30.5768786 100.219365,29.878588 C101.005065,30.7853915 102.159365,31.362212 103.446879,31.3628615 L103.446879,31.3628615 L128.152779,31.3628615 L128.152779,29.9331521 C128.152779,29.5115795 127.811985,29.1699043 127.392299,29.1699043" id="Fill-15" fill="#3E3A39" mask="url(#mask-2)"></path>
                            <path d="M56.612498,28.4327043 C56.612498,44.1361231 43.9391247,56.8657983 28.3066047,56.8657983 C12.673438,56.8657983 6.46666692e-05,44.1361231 6.46666692e-05,28.4327043 C6.46666692e-05,12.7286359 12.673438,0.000259829064 28.3066047,0.000259829064 C43.9391247,0.000259829064 56.612498,12.7286359 56.612498,28.4327043" id="Fill-16" fill="#E73836" mask="url(#mask-2)"></path>
                            <path d="M69.457238,33.1632034 L69.457238,34.6065538 C68.9185647,34.3746564 68.4568447,34.2590325 68.0727247,34.2590325 C67.7862513,34.2590325 67.548278,34.3161949 67.3594513,34.4324684 C67.1712713,34.5487419 67.051638,34.6819043 67.003138,34.8326051 C66.9539913,34.9839556 66.9300647,35.386041 66.9300647,36.0388615 L66.9281247,37.5874427 L69.3104447,37.5874427 L69.3104447,38.8625538 L66.927478,38.8625538 L66.9190713,49.0491521 L65.451138,49.0491521 L65.451138,38.8625538 L63.9508713,38.8625538 L63.9508713,37.5874427 L65.451138,37.5874427 L65.451138,35.7965709 C65.451138,34.9748615 65.5261513,34.388947 65.676178,34.0375282 C65.8268513,33.686759 66.081638,33.4035453 66.4418313,33.1891863 C66.8020247,32.9754769 67.2372313,32.8682974 67.7474513,32.8682974 C68.223398,32.8682974 68.7931113,32.9663829 69.457238,33.1632034" id="Fill-17" fill="#E73836" mask="url(#mask-2)"></path>
                            <path d="M81.1086193,42.1598496 C80.9126793,41.3732171 80.6274993,40.7437812 80.2530793,40.2734906 C79.8786593,39.8038496 79.3833127,39.4244991 78.7670393,39.1367385 C78.1514127,38.8483282 77.5040993,38.7041231 76.8244527,38.7041231 C75.704426,38.7041231 74.7415393,39.0652855 73.937086,39.7889094 C73.349266,40.3163624 72.9043593,41.1055932 72.6036593,42.1598496 L81.1086193,42.1598496 Z M81.1086193,45.2466188 L82.3463393,45.9000889 C81.9402327,46.7003624 81.4713993,47.3460376 80.9398393,47.8371145 C80.4076327,48.3294906 79.809466,48.7036444 79.1446927,48.9602256 C78.4792727,49.2161573 77.7271993,49.3441231 76.887826,49.3441231 C75.0267193,49.3441231 73.5710727,48.7315761 72.5215327,47.5058325 C71.471346,46.2807385 70.9462527,44.8952 70.9462527,43.3498667 C70.9462527,41.8961231 71.3911593,40.6008752 72.2796793,39.4628239 C73.4061727,38.0162256 74.9141993,37.2932513 76.8037593,37.2932513 C78.7495793,37.2932513 80.3028727,38.0337641 81.464286,39.5160889 C82.2900793,40.5625504 82.7104127,41.8681915 82.7239927,43.4336615 L72.456866,43.4336615 C72.4846727,44.765935 72.9082393,45.8565675 73.7269193,46.7081573 C74.546246,47.559747 75.5576327,47.9858667 76.761726,47.9858667 C77.3430793,47.9858667 77.908266,47.8845333 78.457286,47.6812171 C79.0069527,47.4785504 79.4744927,47.2076786 79.8592593,46.8731487 C80.244026,46.5366701 80.661126,45.9949265 81.1086193,45.2466188 L81.1086193,45.2466188 Z" id="Fill-18" fill="#E73836" mask="url(#mask-2)"></path>
                            <path d="M85.4609447,37.5874427 L86.9295247,37.5874427 L86.9295247,39.6413915 C87.516698,38.854759 88.1672447,38.2675453 88.8798713,37.8765026 C89.5931447,37.4874085 90.3691447,37.2931863 91.208518,37.2931863 C92.0608247,37.2931863 92.8180713,37.5101436 93.478318,37.9453573 C94.1392113,38.3818701 94.626798,38.9677846 94.9417247,39.7050496 C95.2566513,40.4423145 95.4137913,41.5901094 95.4137913,43.1497333 L95.4137913,49.0491521 L93.9452113,49.0491521 L93.9452113,43.5823487 C93.9452113,42.2611179 93.8908913,41.3796479 93.7816047,40.9379385 C93.612178,40.1792376 93.2856113,39.6082632 92.803198,39.2250154 C92.320138,38.8437162 91.691578,38.6520923 90.915578,38.6520923 C90.027058,38.6520923 89.2310113,38.9463487 88.5287313,39.5361607 C87.8258047,40.1259726 87.3627913,40.8567419 87.1390447,41.7271692 C86.998718,42.2968444 86.9295247,43.3361607 86.9295247,44.8457675 L86.9295247,49.0491521 L85.4609447,49.0491521 L85.4609447,37.5874427 Z" id="Fill-19" fill="#E73836" mask="url(#mask-2)"></path>
                            <path d="M104.065933,38.7152957 C103.233673,38.7152957 102.461553,38.9173128 101.747633,39.3206974 C101.035006,39.7240821 100.474993,40.282065 100.069533,40.9952957 C99.6640727,41.7078769 99.461666,42.4795692 99.461666,43.3077744 C99.461666,44.565347 99.880706,45.6040137 100.720079,46.4263726 C101.559453,47.2474325 102.646499,47.658612 103.981866,47.658612 C105.330813,47.658612 106.416566,47.2513299 107.237833,46.4367658 C108.059746,45.6222017 108.471026,44.5510564 108.471026,43.2226803 C108.471026,42.3600479 108.282199,41.5890051 107.904546,40.9115009 C107.526893,40.2339966 106.991453,39.6987487 106.299519,39.3051077 C105.607586,38.9121162 104.862626,38.7152957 104.065933,38.7152957 L104.065933,38.7152957 Z M108.396659,37.5876376 L109.865239,37.5876376 L109.865239,46.7206291 C109.865239,48.3296205 109.725559,49.505347 109.445553,50.2504068 C109.061433,51.3033641 108.393426,52.1153299 107.442826,52.683706 C106.491579,53.2520821 105.348273,53.5372444 104.013553,53.5372444 C103.033853,53.5372444 102.155033,53.3982359 101.375799,53.1202188 C100.595919,52.8409026 99.9615393,52.4680479 99.4720127,51.999706 C98.9831327,51.5307145 98.5317593,50.8467145 98.119186,49.9444581 L99.713866,49.9444581 C100.147133,50.703159 100.707793,51.2650393 101.393259,51.6307487 C102.079373,51.9945094 102.929739,52.1776889 103.945006,52.1776889 C104.945399,52.1776889 105.791239,51.990612 106.480586,51.6164581 C107.170579,51.2410051 107.662046,50.7707145 107.956279,50.2042872 C108.249866,49.6372103 108.396659,48.7213128 108.396659,47.457894 L108.396659,46.8680821 C107.844406,47.5709197 107.168639,48.110065 106.370653,48.4855179 C105.572666,48.8609709 104.726179,49.0486974 103.830546,49.0486974 C102.780359,49.0486974 101.793546,48.7875692 100.870106,48.2646632 C99.9460193,47.7411077 99.2320993,47.0369709 98.728346,46.152253 C98.2245927,45.2668855 97.9723927,44.2951248 97.9723927,43.2343726 C97.9723927,42.1736205 98.2342927,41.1856205 98.7600327,40.2684239 C99.2844793,39.3518769 100.010686,38.6263043 100.938006,38.0936547 C101.865326,37.559706 102.843086,37.2933812 103.871933,37.2933812 C104.726179,37.2933812 105.522226,37.4694154 106.260719,37.8247316 C106.999213,38.1787487 107.711193,38.7633641 108.396659,39.5779282 L108.396659,37.5876376 Z" id="Fill-20" fill="#E73836" mask="url(#mask-2)"></path>
                            <path d="M118.501602,38.7152957 C117.684215,38.7152957 116.930202,38.9173128 116.238915,39.3193983 C115.547629,39.7227829 114.997315,40.2898598 114.588622,41.0193299 C114.180575,41.7488 113.976229,42.5198427 113.976229,43.3344068 C113.976229,44.1418256 114.181869,44.9128684 114.594442,45.6488342 C115.006369,46.3860991 115.559915,46.9590222 116.254435,47.3689026 C116.949602,47.7800821 117.695209,47.985347 118.491255,47.985347 C119.294415,47.985347 120.055542,47.7813812 120.775282,47.3753983 C121.494375,46.9681162 122.047275,46.4172786 122.435275,45.7222359 C122.823275,45.0284923 123.016629,44.2470564 123.016629,43.3766291 C123.016629,42.0508513 122.582069,40.9420308 121.712302,40.0514667 C120.843182,39.1609026 119.772949,38.7152957 118.501602,38.7152957 L118.501602,38.7152957 Z M124.369455,37.5876376 L124.369455,53.2416889 L122.922215,53.2416889 L122.922215,47.0785436 C122.307235,47.8307487 121.616595,48.3952274 120.850942,48.7745778 C120.085289,49.1539282 119.247855,49.344253 118.339289,49.344253 C116.723915,49.344253 115.344575,48.7557402 114.201915,47.5793641 C113.058609,46.4036376 112.486955,44.9726291 112.486955,43.2863385 C112.486955,41.6357744 113.063782,40.2249026 114.217435,39.0517744 C115.371089,37.8792957 116.759482,37.2933812 118.381322,37.2933812 C119.318342,37.2933812 120.165475,37.4921504 120.924662,37.8929368 C121.683202,38.2930735 122.348622,38.8939282 122.922215,39.6948513 L122.922215,37.5876376 L124.369455,37.5876376 Z" id="Fill-21" fill="#E73836" mask="url(#mask-2)"></path>
                            <path d="M127.474102,37.5874427 L128.942682,37.5874427 L128.942682,42.9386222 C128.942682,44.2455624 129.012522,45.1452205 129.152202,45.6362974 C129.362369,46.339135 129.763302,46.8932205 130.355002,47.3005026 C130.946055,47.7077846 131.652215,47.9111009 132.471542,47.9111009 C133.290222,47.9111009 133.985389,47.7129812 134.555749,47.3160923 C135.126755,46.919853 135.520575,46.3982462 135.737855,45.7512718 C135.884649,45.310212 135.958369,44.3722291 135.958369,42.9386222 L135.958369,37.5874427 L137.457989,37.5874427 L137.457989,43.2127419 C137.457989,44.7938017 137.274335,45.9838188 136.907675,46.7840923 C136.540369,47.5850154 135.988115,48.2112034 135.250269,48.6646051 C134.513069,49.1173573 133.588335,49.3447077 132.476069,49.3447077 C131.365095,49.3447077 130.436482,49.1173573 129.692169,48.6646051 C128.947209,48.2112034 128.391722,47.5798188 128.025062,46.7691521 C127.657109,45.9571863 127.474102,44.7366393 127.474102,43.1075111 L127.474102,37.5874427 Z" id="Fill-22" fill="#E73836" mask="url(#mask-2)"></path>
                            <path d="M142.334825,46.7309573 C142.691785,46.7309573 142.995072,46.8576239 143.247272,47.1103077 C143.499472,47.3642906 143.624925,47.672188 143.624925,48.0378974 C143.624925,48.395812 143.499472,48.7037094 143.247272,48.9602906 C142.995072,49.2162222 142.691785,49.344188 142.334825,49.344188 C141.978512,49.344188 141.674579,49.2162222 141.422379,48.9602906 C141.170825,48.7037094 141.045372,48.395812 141.045372,48.0378974 C141.045372,47.672188 141.170825,47.3642906 141.422379,47.1103077 C141.674579,46.8576239 141.978512,46.7309573 142.334825,46.7309573" id="Fill-23" fill="#E73836" mask="url(#mask-2)"></path>
                            <path d="M157.741141,39.9687761 L156.576495,40.6956479 C155.571575,39.3536308 154.198701,38.6832718 152.459815,38.6832718 C151.070775,38.6832718 149.915828,39.1327761 148.998208,40.0298359 C148.079941,40.9281949 147.620808,42.0188274 147.620808,43.3030325 C147.620808,44.1377333 147.831621,44.9230667 148.253895,45.6603316 C148.676168,46.3962974 149.256228,46.9679214 149.993428,47.3752034 C150.729981,47.7811863 151.555775,47.9858017 152.470808,47.9858017 C154.146321,47.9858017 155.515315,47.3147932 156.576495,45.9734256 L157.741141,46.7425197 C157.195355,47.5668274 156.462681,48.2066564 155.543768,48.6620068 C154.624855,49.1160581 153.577901,49.3447077 152.402908,49.3447077 C150.598708,49.3447077 149.102968,48.7685368 147.914395,47.6161949 C146.725821,46.4645026 146.131535,45.0640239 146.131535,43.4134598 C146.131535,42.3033402 146.409601,41.2731179 146.965088,40.321494 C147.520575,39.3698701 148.284935,38.626759 149.256875,38.0934598 C150.228168,37.5595111 151.315861,37.2931863 152.518015,37.2931863 C153.273321,37.2931863 154.002115,37.4088103 154.705041,37.6407077 C155.407968,37.871306 156.002901,38.1733573 156.492428,38.5468615 C156.981955,38.9184171 157.398408,39.3926051 157.741141,39.9687761" id="Fill-24" fill="#E73836" mask="url(#mask-2)"></path>
                            <path d="M165.957688,38.7356274 C164.736781,38.7356274 163.687888,39.1883795 162.811008,40.0945333 C161.933481,41.0000376 161.495688,42.0965162 161.495688,43.3813709 C161.495688,44.2102256 161.694861,44.9825675 162.095148,45.6996957 C162.495435,46.4148752 163.035401,46.9683111 163.715695,47.3587043 C164.396635,47.7484479 165.143535,47.9426701 165.957688,47.9426701 C166.771841,47.9426701 167.518741,47.7484479 168.199681,47.3587043 C168.879975,46.9683111 169.420588,46.4148752 169.820228,45.6996957 C170.219868,44.9825675 170.419688,44.2102256 170.419688,43.3813709 C170.419688,42.0965162 169.979955,41.0000376 169.099195,40.0945333 C168.218435,39.1883795 167.171481,38.7356274 165.957688,38.7356274 M170.333681,39.2098154 C171.384515,40.3757983 171.908961,41.7561402 171.908961,43.3501915 C171.908961,44.9507385 171.354121,46.3505675 170.244441,47.5477299 C169.134115,48.7455419 167.706921,49.3444479 165.962861,49.3444479 C164.211688,49.3444479 162.781261,48.7455419 161.670935,47.5477299 C160.560608,46.3505675 160.006415,44.9507385 160.006415,43.3501915 C160.006415,41.7626359 160.530861,40.3861915 161.581695,39.2202085 C162.737935,37.9353538 164.197461,37.2929265 165.962861,37.2929265 C167.721148,37.2929265 169.178088,37.9314564 170.333681,39.2098154 Z" id="Fill-25" fill="#E73836" mask="url(#mask-2)"></path>
                            <path d="M174.615067,37.5874427 L176.083647,37.5874427 L176.083647,39.5679897 C176.594514,38.8372205 177.118961,38.3045709 177.658281,37.9667932 C178.400654,37.5179385 179.181181,37.2931863 179.999861,37.2931863 C180.552761,37.2931863 181.077207,37.4010154 181.574494,37.6192718 C182.071134,37.8375282 182.477241,38.126588 182.792814,38.4884 C183.107741,38.8495624 183.380634,39.3672718 183.611494,40.0421778 C184.099727,39.1431692 184.709534,38.4604684 185.442207,37.9934256 C186.174881,37.5263829 186.963167,37.2931863 187.807067,37.2931863 C188.595354,37.2931863 189.290521,37.4926051 189.894507,37.8933915 C190.497847,38.2928786 190.945987,38.8508615 191.238927,39.5679897 C191.531867,40.2844684 191.678661,41.3595111 191.678661,42.7918188 L191.678661,49.0491521 L190.178394,49.0491521 L190.178394,42.7918188 C190.178394,41.5621778 190.091741,40.7183829 189.917141,40.2578359 C189.743187,39.798588 189.445074,39.4270325 189.023447,39.1464171 C188.601821,38.8664513 188.098714,38.725494 187.512834,38.725494 C186.802147,38.725494 186.152894,38.9359556 185.563781,39.3575282 C184.974667,39.7784513 184.544634,40.3403316 184.273034,41.0431692 C184.001434,41.7447077 183.864987,42.9184855 183.864987,44.5612547 L183.864987,49.0491521 L182.396407,49.0491521 L182.396407,43.1809128 C182.396407,41.7979726 182.311047,40.858041 182.140327,40.3630667 C181.968314,39.8687419 181.669554,39.4712034 181.243401,39.1730496 C180.816601,38.8748957 180.310261,38.725494 179.723087,38.725494 C179.044734,38.725494 178.409707,38.930759 177.819301,39.3419385 C177.228247,39.7518188 176.791101,40.3052547 176.508507,41.0002974 C176.224621,41.6953402 176.083647,42.7599897 176.083647,44.1922974 L176.083647,49.0491521 L174.615067,49.0491521 L174.615067,37.5874427 Z" id="Fill-26" fill="#E73836" mask="url(#mask-2)"></path>
                            <path d="M36.7666213,49.6192308 C35.230788,49.6192308 33.981428,48.3642564 33.981428,46.8215214 L33.981428,42.043265 C33.981428,41.6080513 34.332568,41.2559829 34.7658347,41.2559829 C35.1984547,41.2559829 35.5495947,41.6080513 35.5495947,42.043265 L35.5495947,46.8215214 C35.5495947,47.4957778 36.0953813,48.0440171 36.7666213,48.0440171 C37.4378613,48.0440171 37.9842947,47.4957778 37.9842947,46.8215214 C37.9842947,46.3863077 38.3354347,46.0335897 38.7680547,46.0335897 C39.2013213,46.0335897 39.5524613,46.3863077 39.5524613,46.8215214 C39.5524613,48.3642564 38.3024547,49.6192308 36.7666213,49.6192308" id="Fill-35" fill="#FEFEFE" mask="url(#mask-2)"></path>
                            <path d="M40.3033707,27.7815726 C39.8707507,27.7815726 39.5196107,27.4288547 39.5196107,26.9942906 C39.5196107,26.1784274 38.859364,25.5152137 38.0477973,25.5152137 C37.235584,25.5152137 36.5753373,26.1784274 36.5753373,26.9942906 C36.5753373,27.4288547 36.2241973,27.7815726 35.7915773,27.7815726 C35.3583107,27.7815726 35.0071707,27.4288547 35.0071707,26.9942906 C35.0071707,25.3099487 36.3709907,23.94 38.0477973,23.94 C39.7239573,23.94 41.0871307,25.3099487 41.0871307,26.9942906 C41.0871307,27.4288547 40.7366373,27.7815726 40.3033707,27.7815726" id="Fill-36" fill="#FEFEFE" mask="url(#mask-2)"></path>
                            <path d="M20.861014,27.7815726 C20.4277473,27.7815726 20.077254,27.4288547 20.077254,26.9942906 C20.077254,26.1784274 19.4163607,25.5152137 18.604794,25.5152137 C17.7932273,25.5152137 17.1329807,26.1784274 17.1329807,26.9942906 C17.1329807,27.4288547 16.7818407,27.7815726 16.348574,27.7815726 C15.915954,27.7815726 15.564814,27.4288547 15.564814,26.9942906 C15.564814,25.3099487 16.928634,23.94 18.604794,23.94 C20.2816007,23.94 21.644774,25.3099487 21.644774,26.9942906 C21.644774,27.4288547 21.293634,27.7815726 20.861014,27.7815726" id="Fill-37" fill="#FEFEFE" mask="url(#mask-2)"></path>
                            <path d="M26.152558,49.6277402 C25.7192913,49.6277402 25.368798,49.2750222 25.368798,48.8404581 L25.368798,43.2119111 C25.368798,42.7766974 25.7192913,42.4246291 26.152558,42.4246291 C26.585178,42.4246291 26.936318,42.7766974 26.936318,43.2119111 L26.936318,48.8404581 C26.936318,49.2750222 26.585178,49.6277402 26.152558,49.6277402" id="Fill-38" fill="#FEFEFE" mask="url(#mask-2)"></path>
                            <path d="M30.4590993,49.6277402 C30.0264793,49.6277402 29.6753393,49.2750222 29.6753393,48.8404581 L29.6753393,43.2119111 C29.6753393,42.7766974 30.0264793,42.4246291 30.4590993,42.4246291 C30.892366,42.4246291 31.2428593,42.7766974 31.2428593,43.2119111 L31.2428593,48.8404581 C31.2428593,49.2750222 30.892366,49.6277402 30.4590993,49.6277402" id="Fill-39" fill="#FEFEFE" mask="url(#mask-2)"></path>
                            <path d="M19.9135827,49.6192308 C18.4159027,49.6192308 17.196936,48.3947863 17.196936,46.8903761 C17.196936,46.455812 17.548076,46.103094 17.9813427,46.103094 C18.4139627,46.103094 18.7651027,46.455812 18.7651027,46.8903761 C18.7651027,47.5263077 19.280496,48.0440171 19.9135827,48.0440171 C20.547316,48.0440171 21.0627093,47.5263077 21.0627093,46.8903761 L21.0627093,42.0439145 C21.0627093,41.6087009 21.4132027,41.2559829 21.8464693,41.2559829 C22.2790893,41.2559829 22.6302293,41.6087009 22.6302293,42.0439145 L22.6302293,46.8903761 C22.6302293,48.3947863 21.4119093,49.6192308 19.9135827,49.6192308" id="Fill-40" fill="#FEFEFE" mask="url(#mask-2)"></path>
                            <path d="M28.326134,29.901453 C26.855614,29.901453 25.658634,31.1031624 25.658634,32.5802906 C25.658634,34.0580684 26.855614,35.2597778 28.326134,35.2597778 C29.796654,35.2597778 30.9929873,34.0580684 30.9929873,32.5802906 C30.9929873,31.1031624 29.796654,29.901453 28.326134,29.901453 M28.326134,36.8349915 C25.9910207,36.8349915 24.0904673,34.926547 24.0904673,32.5802906 C24.0904673,30.2346838 25.9910207,28.3262393 28.326134,28.3262393 C30.6612473,28.3262393 32.561154,30.2346838 32.561154,32.5802906 C32.561154,34.926547 30.6612473,36.8349915 28.326134,36.8349915" id="Fill-41" fill="#FEFEFE" mask="url(#mask-2)"></path>
                            <path d="M35.0545067,42.7761778 L34.4770333,41.312041 C40.9113667,38.7514256 45.0687867,32.6038701 45.0687867,25.651494 C45.0687867,16.3665026 37.5493467,8.81327179 28.3058933,8.81327179 C19.0630867,8.81327179 11.5436467,16.3665026 11.5436467,25.651494 C11.5436467,32.6038701 15.70042,38.7507761 22.1347533,41.3113915 L21.55728,42.7755282 C18.17974,41.4315624 15.2975467,39.1294769 13.22304,36.1174085 C11.0980933,33.0338872 9.97548,29.4144684 9.97548,25.651494 C9.97548,15.4980239 18.1984933,7.23805812 28.3058933,7.23805812 C38.41394,7.23805812 46.6369533,15.4980239 46.6369533,25.651494 C46.6369533,29.4151179 45.5136933,33.0338872 43.3893933,36.1174085 C41.31424,39.1294769 38.4320467,41.432212 35.0545067,42.7761778" id="Fill-42" fill="#FEFEFE" mask="url(#mask-2)"></path>
                        </g>
                    </g>
                </g>
            </g>
        </g>
    </g>
</svg>