<?xml version="1.0" encoding="UTF-8" standalone="no"?>
<svg width="14px" height="12px" viewBox="0 0 14 12" version="1.1" xmlns="http://www.w3.org/2000/svg" xmlns:xlink="http://www.w3.org/1999/xlink">
    <!-- Generator: Sketch 3.6.1 (26313) - http://www.bohemiancoding.com/sketch -->
    <title>Group</title>
    <desc>Created with Sketch.</desc>
    <defs></defs>
    <g id="Page-1" stroke="none" stroke-width="1" fill="none" fill-rule="evenodd">
        <g id="头部添加关注我们" transform="translate(-1467.000000, -64.000000)" fill="#FFFFFF">
            <g id="Group" transform="translate(1467.000000, 64.000000)">
                <g id="Group-3" transform="translate(0.500000, 0.500000)">
                    <path d="M3.09842812,3.22701923 C2.75433437,3.22701923 2.40739687,2.98713462 2.40739687,2.62878846 C2.40739687,2.26917308 2.75433437,2.03225 3.09842812,2.03225 C3.44252187,2.03225 3.67124062,2.26917308 3.67124062,2.62878846 C3.67124062,2.98713462 3.44252187,3.22701923 3.09842812,3.22701923 M6.31024062,2.03225 C6.65595937,2.03225 6.88467812,2.26917308 6.88467812,2.62878846 C6.88467812,2.98713462 6.65595937,3.22701923 6.31024062,3.22701923 C5.96655312,3.22701923 5.62124062,2.98713462 5.62124062,2.62878846 C5.62124062,2.26917308 5.96655312,2.03225 6.31024062,2.03225 M8.77780312,3.32813462 C8.92689687,3.32813462 9.07395937,3.33955769 9.21980312,3.35648077 C8.82289687,1.43063462 6.84608437,0.000211538459 4.58936562,0.000211538459 C2.06655312,0.000211538459 -4.06250019e-05,1.79067308 -4.06250019e-05,4.06471154 C-4.06250019e-05,5.37751923 0.687334375,6.45551923 1.83661562,7.29151923 L1.37755312,8.72913462 L2.98183437,7.89144231 C3.55586562,8.00990385 4.01655312,8.13132692 4.58936562,8.13132692 C4.73317812,8.13132692 4.87617812,8.12413462 5.01795937,8.11228846 C4.92817812,7.79286538 4.87617812,7.45821154 4.87617812,7.11086538 C4.87617812,5.02298077 6.59786562,3.32813462 8.77780312,3.32813462" id="Fill-1"></path>
                </g>
                <g id="Group-6" transform="translate(5.375000, 3.884615)">
                    <path d="M5.45224062,3.07081923 C5.22514687,3.07081923 4.99642812,2.83389615 4.99642812,2.59274231 C4.99642812,2.35455 5.22514687,2.11466538 5.45224062,2.11466538 C5.79633437,2.11466538 6.02667812,2.35455 6.02667812,2.59274231 C6.02667812,2.83389615 5.79633437,3.07081923 5.45224062,3.07081923 M2.92780312,3.07081923 C2.69949062,3.07081923 2.46874062,2.83389615 2.46874062,2.59274231 C2.46874062,2.35455 2.69949062,2.11466538 2.92780312,2.11466538 C3.27514687,2.11466538 3.50224062,2.35455 3.50224062,2.59274231 C3.50224062,2.83389615 3.27514687,3.07081923 2.92780312,3.07081923 M8.09164687,3.66905 C8.09164687,1.75801154 6.25539687,0.200242308 4.19327187,0.200242308 C2.00967812,0.200242308 0.290021875,1.75801154 0.290021875,3.66905 C0.290021875,5.58305 2.00967812,7.13743462 4.19327187,7.13743462 C4.65030312,7.13743462 5.11139687,7.01728077 5.57045937,6.89755 L6.82942812,7.61551154 L6.48411562,6.42116538 C7.40549062,5.70108846 8.09164687,4.74662692 8.09164687,3.66905" id="Fill-4"></path>
                </g>
            </g>
        </g>
    </g>
</svg>