<?xml version="1.0" encoding="UTF-8" standalone="no"?>
<svg width="12px" height="10px" viewBox="0 0 12 10" version="1.1" xmlns="http://www.w3.org/2000/svg" xmlns:xlink="http://www.w3.org/1999/xlink">
    <!-- Generator: Sketch 3.6.1 (26313) - http://www.bohemiancoding.com/sketch -->
    <title>Page 1</title>
    <desc>Created with Sketch.</desc>
    <defs></defs>
    <g id="Page-1" stroke="none" stroke-width="1" fill="none" fill-rule="evenodd">
        <g id="头部添加关注我们" transform="translate(-1468.000000, -40.000000)" fill="#FFFFFF">
            <g id="Page-1" transform="translate(1468.000000, 40.000000)">
                <path d="M3.97032783,5.7755966 C3.23381645,5.92456335 2.73669771,6.54780608 2.86009598,7.16678246 C2.98314168,7.78611437 3.68087075,8.16688617 4.41738213,8.01720836 C5.15389351,7.86788609 5.65136481,7.24464336 5.52761398,6.62566698 C5.40456827,6.00704613 4.70754434,5.62627433 3.97032783,5.7755966 L3.97032783,5.7755966 Z M9.97277217,3.36973034 C9.791553,2.47699646 9.09276623,1.77304859 8.20817693,1.59030657 C7.99381651,1.54657648 7.78333432,1.68523287 7.73961608,1.9021057 C7.69554527,2.11791194 7.83375133,2.32945183 8.04811175,2.37424851 C8.62420538,2.49299527 9.07760587,2.95056139 9.19501051,3.53078508 C9.23908132,3.74730238 9.44885838,3.8863143 9.66357137,3.84222868 C9.87828435,3.79778753 10.016843,3.58589211 9.97277217,3.36973034 L9.97277217,3.36973034 Z M11.5501546,3.42803713 C11.5487443,1.53484401 10.0263623,2.43506391e-05 8.1485932,2.43506391e-05 C7.92929685,2.43506391e-05 7.75195591,0.178855551 7.75195591,0.399994728 C7.75195591,0.621133906 7.92929685,0.799609577 8.1485932,0.799609577 C9.58812214,0.799609577 10.7561749,1.97712237 10.7561749,3.42981478 C10.7561749,3.65095396 10.9338684,3.83014069 11.1531647,3.83014069 C11.3724611,3.83014069 11.5501546,3.65095396 11.5501546,3.42981478 L11.5501546,3.42803713 Z M4.90850724,8.99242503 C3.0797449,9.17481152 1.50130476,8.33718467 1.38248986,7.11949707 C1.26367496,5.90216501 2.64996636,4.76696019 4.4787287,4.58350711 C6.30854873,4.40005403 7.8866363,5.23803642 8.00509864,6.45501295 C8.12356098,7.67234502 6.73762214,8.80861642 4.90850724,8.99242503 L4.90850724,8.99242503 Z M8.56638448,4.95503515 C8.41125522,4.90774977 8.30372245,4.87468555 8.38587044,4.66492331 C8.56215368,4.20913484 8.58048714,3.81627505 8.3893961,3.53576249 C8.03083599,3.00993477 7.04964348,3.03766605 5.9249564,3.52189685 C5.9249564,3.52118579 5.57203735,3.68010735 5.66194181,3.39212868 C5.83505195,2.82150428 5.80896203,2.343673 5.53960124,2.06742679 C4.92966122,1.44133983 3.30715028,2.09231384 1.91486525,3.51976367 C0.872678728,4.58919558 0.268027213,5.72297828 0.268027213,6.70317235 C0.268027213,8.57858901 2.61047891,9.83254058 4.90216104,9.83254058 C7.90708516,9.83254058 9.90543197,7.92690394 9.90543197,6.50443151 C9.90543197,5.64476185 9.20029901,5.15697575 8.56638448,4.95503515 L8.56638448,4.95503515 Z" id="Fill-1"></path>
            </g>
        </g>
    </g>
</svg>