<svg xmlns="http://www.w3.org/2000/svg" xmlns:xlink="http://www.w3.org/1999/xlink" width="213" height="589" viewBox="0 0 213 589"><svg width="25" height="24" viewBox="-10 -10 25 24" id="arrow-down" y="0"><title>Triangle 1</title><path d="M0 0h5L2.5 3.41 0 0z" fill="#FFF" fill-rule="evenodd"/></svg>
<svg width="28" height="33" viewBox="-10 -10 28 33" id="arrow-right" y="24"><title>Shape</title><path d="M1.293 2.964l4.163 4.163-.013-1.4L1.28 10.05l-.694.72 1.44 1.387.694-.72 4.163-4.323.68-.707-.693-.694L2.707 1.55 2 .843.586 2.257l.707.707z" fill="#CCC" fill-rule="evenodd"/></svg>
<svg width="36" height="36" viewBox="-10 -10 36 36" id="ashbin" y="57"><title>Imported Layers</title><g fill="#1A1918" fill-rule="evenodd"><path d="M15.492 2.196h-4.997L9.85.488C9.8.358 9.675.272 9.536.272H6.432c-.14 0-.263.086-.312.216l-.645 1.708H.477c-.184 0-.333.15-.333.334 0 .184.15.333.333.333h1.11l.935 12.81c.013.174.158.31.332.31h10.26c.175 0 .32-.136.333-.31l.934-12.81h1.112c.184 0 .333-.15.333-.333 0-.184-.15-.334-.333-.334zM6.662.94h2.645l.437 1.155H6.226L6.662.94zm6.143 14.376h-9.64l-.91-12.453h11.458l-.908 12.453z"/><path d="M7.984 13.984c.185 0 .334-.15.334-.333V4.46c0-.183-.15-.333-.334-.333-.184 0-.333.15-.333.334v9.19c0 .185.15.334.334.334M10.45 13.984h.022c.175 0 .32-.136.332-.312l.575-9.19c.01-.184-.13-.342-.313-.354-.184-.013-.342.128-.354.312l-.574 9.19c-.012.184.127.342.31.354M5.497 13.984h.02c.185-.012.324-.17.313-.354l-.574-9.19c-.012-.184-.165-.324-.354-.312-.183.01-.323.17-.31.354l.572 9.19c.01.176.158.312.333.312"/></g></svg>
<svg width="43" height="44" viewBox="-10 -10 43 44" id="bubble" y="93"><title>Oval 1</title><path d="M11.508 23.41c4.018-1.51 11-6.15 11-12.224 0-6.075-4.925-11-11-11-6.076 0-11 4.925-11 11s7.66 10.714 11 12.224z" fill="#E73736" fill-rule="evenodd"/></svg>
<svg width="42" height="39" viewBox="-10 -10 42 39" id="cart-black" y="137"><title>Fill 1</title><path d="M20.89 1.092c-.23-.063-.466.073-.53.3l-.302 1.11H3.932L4.25 1.13c.013-.06.014-.125 0-.186C4.136.397 3.645 0 3.086 0H.43C.193 0 0 .192 0 .43c0 .237.193.43.43.43h2.655c.13 0 .246.076.3.19l-.412 1.786v.01c-.012.058-.014.118 0 .18v.002l1.832 8.018-.468 1.498-.01.043c-.065.314.015.636.217.883.203.25.502.39.823.39h12.788c.237 0 .43-.19.43-.43 0-.237-.193-.43-.43-.43H5.367c-.06 0-.118-.026-.157-.074-.035-.043-.05-.097-.044-.152l.41-1.314 12.414-1.35c.546-.01 1.01-.385 1.13-.904l2.07-7.586c.063-.23-.072-.466-.3-.528zM6.095 14.938c-.957 0-1.735.778-1.735 1.734 0 .957.78 1.735 1.736 1.735.955 0 1.733-.778 1.733-1.735 0-.956-.78-1.734-1.734-1.734zm10.26 0c-.956 0-1.734.778-1.734 1.734 0 .957.778 1.735 1.734 1.735.957 0 1.735-.778 1.735-1.735 0-.956-.777-1.734-1.734-1.734z" fill="#323232" fill-rule="evenodd"/></svg>
<svg width="45" height="42" viewBox="-10 -10 45 42" id="cart-red" y="176"><title>icon-header5</title><path d="M24.47 1.57c-.265-.074-.54.084-.614.35l-.352 1.29H4.75l.368-1.597c.016-.07.017-.145.002-.216C4.985.76 4.415.3 3.764.3H.677C.4.3.177.522.177.8c0 .275.223.5.5.5h3.087c.15 0 .287.088.35.22l-.48 2.077v.012c-.014.066-.016.136 0 .206v.007l2.13 9.323-.544 1.743c-.004.016-.01.033-.012.05-.075.364.018.74.253 1.027.237.29.585.454.958.454H21.29c.276 0 .5-.225.5-.5 0-.278-.224-.5-.5-.5H6.418c-.07 0-.137-.032-.182-.088-.04-.05-.06-.113-.05-.177l.476-1.53L21.1 12.06c.634-.013 1.174-.45 1.315-1.053l2.406-8.823c.073-.266-.084-.54-.35-.613zm-3.025 9.19c-.04.176-.196.298-.376.298-.02 0-.037.002-.055.003L6.67 12.62 4.748 4.21h18.484l-1.787 6.55zm-14.18 6.91c-1.112 0-2.017.906-2.017 2.02 0 1.11.905 2.015 2.017 2.015 1.112 0 2.017-.904 2.017-2.016 0-1.114-.905-2.02-2.017-2.02zm0 3.035c-.56 0-1.017-.456-1.017-1.016 0-.563.457-1.02 1.017-1.02.56 0 1.017.457 1.017 1.02 0 .56-.457 1.015-1.017 1.015zm11.933-3.034c-1.112 0-2.017.906-2.017 2.02 0 1.11.906 2.015 2.018 2.015 1.113 0 2.018-.904 2.018-2.016 0-1.114-.905-2.02-2.018-2.02zm0 3.035c-.56 0-1.017-.456-1.017-1.016 0-.563.458-1.02 1.018-1.02s1.018.457 1.018 1.02c0 .56-.457 1.015-1.018 1.015z" fill="#E73736" fill-rule="evenodd"/></svg>
<svg width="40" height="44" viewBox="-10 -10 40 44" id="kuai" y="218"><title>icon-header4</title><g fill="#999" fill-rule="evenodd"><path d="M19.206 4.14c-.284-.214-.668-.287-1.012-.188-.005.002-.506.14-1.268.14-1.668 0-4.09-.626-6.146-3.61C10.572.18 10.218 0 9.833 0c-.384 0-.738.18-.946.48C6.83 3.467 4.41 4.093 2.74 4.093c-.76 0-1.26-.137-1.26-.137C1.14 3.85.753 3.92.463 4.138c-.29.218-.462.566-.462.93v6.417c0 9.257 9.432 12.018 9.53 12.046.1.028.2.04.303.04.102 0 .204-.012.305-.04.095-.026 9.528-2.77 9.528-12.045V5.07c0-.364-.172-.71-.46-.93zm-.492 7.345c0 8.534-8.742 11.095-8.828 11.12-.035.01-.075.008-.103 0-.088-.024-8.83-2.593-8.83-11.12V5.07c0-.066.03-.125.078-.162.037-.026.08-.04.123-.04l.04.002c.107.037.72.182 1.547.182 1.896 0 4.637-.698 6.93-4.024.07-.1.258-.1.327 0 2.293 3.326 5.033 4.024 6.93 4.024.932 0 1.528-.176 1.528-.176.06-.018.127-.006.178.032.05.038.08.1.08.16v6.417z"/><text font-family="Heiti SC" font-size="12" font-weight="bold"><tspan x="3.8" y="16.2">快</tspan></text></g></svg>
<svg width="169" height="56" viewBox="-10 -10 169 56" id="logo" y="262"><title>svg-header-logo</title><g transform="translate(.64)" fill="none" fill-rule="evenodd"><g transform="translate(43.475 5.014)" fill="#3E3A39"><path d="M28.144 12.342h1.813v7.068h-1.813v-7.068zM44.233 19.88v-2.233c5.19-4.493 5.19-10.842 5.19-13.232 0-1.136-.713-1.344-.906-1.38h-3.965V1.222l4.133.006c.882.102 2.55.9 2.55 3.19 0 2.616.067 10.355-7.002 15.465M37.616 5.793h4.925V7.61h-4.924V5.792zM37.616 10.897h4.925v1.816h-4.924v-1.816zM31.03.81h1.813v21.16H31.03V.81z"/><path d="M36.803 2.172h1.812v14.916h-1.812V2.172zM94.97 21.13l-1.812-.01.056-13.112 1.813.008-.057 13.113"/><path d="M104.255 19.612h-1.812V5.562c-.126-.805-.82-1.406-1.64-1.406H89.167V2.34h11.636c1.747 0 3.228 1.31 3.445 3.046l.007.113V19.61M100.78 23.117V21.3c.916 0 1.66-.745 1.66-1.664h1.813c0 1.92-1.56 3.48-3.474 3.48M31.62 22.89c-1.917 0-3.476-1.56-3.476-3.48h1.813c0 .92.746 1.666 1.662 1.666v1.815"/><path d="M26.77 22.605V20.79c.76 0 1.377-.62 1.377-1.38h1.812c0 1.762-1.432 3.195-3.19 3.195M73.84 22.806h-9.707c-1.75-.016-3.167-1.45-3.168-3.194V9.93c0-1.762 1.43-3.195 3.19-3.195h9.662c1.758 0 3.19 1.433 3.19 3.195v9.682c0 1.745-1.42 3.178-3.16 3.194h-.006zM64.155 8.55c-.76 0-1.377.62-1.377 1.38v9.682c0 .753.612 1.372 1.364 1.378h9.693c.75-.008 1.36-.626 1.36-1.378V9.93c0-.76-.617-1.38-1.376-1.38h-9.663zM51.67 19.477c-3.49-2.05-5.29-5.453-6.115-9.374-.614-2.917-.468-5.247-.462-5.345l1.81.12c-.007.086-.534 8.058 4.766 12.576v2.023M97.29 21.73h-6.877c-1.286 0-2.332-1.05-2.332-2.338v-3.344h1.813v3.344c0 .29.233.522.52.522h6.878c.288 0 .522-.233.522-.522v-3.344h1.812v3.344c0 1.29-1.047 2.338-2.333 2.338M89.01.81c0 1.374-.702 2.586-1.764 3.298v2.05C89.342 5.287 90.82 3.22 90.82.81h-1.81M62.727.81c0 1.374-.7 2.586-1.762 3.298v2.05C63.06 5.287 64.54 3.22 64.54.81h-1.813M89.29 6.134c0 1.17-.707 2.173-1.713 2.612v1.912C89.6 10.15 91.1 8.316 91.1 6.134h-1.81M24.487 3.116c0-.34-.277-.618-.617-.618H.325v1.816h24.162V3.116M35.56 3.116c0-.34-.277-.618-.618-.618H27.32v1.816h8.24V3.13v-.014M24.487 10.578c0-.335-.266-.605-.597-.616H.325v1.816h24.162v-1.2M24.487 18.037c0-.315-.236-.572-.54-.61H.325v1.815h24.162v-1.205"/><path d="M69.89 17.75v-7.52h-1.81v8.138h1.194c.34 0 .617-.277.617-.618M77.365 2.545c-.013 0-.022-.002-.03-.005l-14.29-.042-.006 1.816 14.936.044.004-1.21c-.01-.335-.28-.603-.615-.603"/><path d="M77.964 14.01c0-.342-.276-.618-.616-.618h-17.34v1.815h17.956V14.01M58.95 2.13c0-.343-.275-.62-.616-.62-.024 0-.035-.007-.036-.02h-4.414v1.815h5.067V2.13M58.95 11.14c0-.34-.275-.618-.616-.618h-4.45v1.816h5.067V11.14M58.95 21.13c0-.285-.19-.52-.45-.594h-4.616v1.816h5.067V21.13M85.865 2.13c0-.343-.276-.62-.616-.62-.024 0-.036-.007-.04-.02h-4.412v1.815h5.067V2.13M100.463 7.685c0-.27-.173-.496-.413-.58H89.79V8.92h10.673V7.685M100.463 13.27c0-.34-.276-.618-.616-.618h-12.07v1.815h12.686V13.27M85.865 11.14c0-.34-.276-.618-.616-.618h-4.452v1.816h5.067V11.14M85.865 21.13c0-.285-.192-.52-.452-.594h-4.615v1.816h5.067V21.13M51.67 21.734c0-.34-.277-.618-.618-.618-.03 0-.046-.016-.053-.04H31.62v1.815h20.05v-1.156M43.447 19.263V2.173h-1.812V19.88h1.195c.34 0 .617-.276.617-.617"/><path d="M44.233 16.767c0-.342-.277-.618-.617-.618H35.99v1.815h8.243v-1.198M35.56 8.635c0-.34-.275-.617-.616-.617-.01 0-.02-.003-.028-.005H27.32v1.815h8.24V8.636M35.56 14.413c0-.34-.275-.618-.616-.618h-3.007v1.816h3.624v-1.197M44.233 1.838c0-.34-.277-.617-.617-.617H35.99v1.816h8.243V1.838M13.312 22.29V.81H11.5v22.096h1.195c.34 0 .617-.276.617-.617"/></g><path d="M17.587 35.034C7.943 35.034.125 27.2.125 17.54.125 7.875 7.943.043 17.587.043S35.05 7.876 35.05 17.54c0 9.66-7.82 17.494-17.463 17.494z" fill="#E73736"/><path d="M22.794 30.483c-.912 0-1.654-.743-1.654-1.657v-2.933c0-.234.19-.423.422-.423.233 0 .422.19.422.423v2.933c0 .447.363.81.81.81.446 0 .81-.363.81-.81 0-.234.188-.423.422-.423.233 0 .422.19.422.423 0 .914-.742 1.657-1.654 1.657M24.97 17.078c-.233 0-.422-.19-.422-.423 0-.533-.433-.968-.966-.968-.533 0-.966.435-.966.968 0 .234-.19.423-.422.423-.234 0-.423-.19-.423-.423 0-1 .813-1.814 1.812-1.814.998 0 1.81.815 1.81 1.815 0 .234-.19.423-.422.423M13.005 17.078c-.233 0-.422-.19-.422-.423 0-.533-.433-.968-.966-.968-.533 0-.966.435-.966.968 0 .234-.19.423-.422.423-.233 0-.422-.19-.422-.423 0-1 .812-1.814 1.81-1.814 1 0 1.812.815 1.812 1.815 0 .234-.19.423-.423.423M16.262 30.487c-.233 0-.422-.19-.422-.422V26.61c0-.234.19-.423.422-.423.233 0 .422.19.422.423v3.455c0 .233-.19.422-.422.422M18.912 30.487c-.233 0-.422-.19-.422-.422V26.61c0-.234.19-.423.422-.423.233 0 .422.19.422.423v3.455c0 .233-.19.422-.422.422M12.422 30.483c-.888 0-1.61-.725-1.61-1.615 0-.234.188-.423.42-.423.234 0 .423.19.423.423 0 .424.344.77.767.77.424 0 .768-.346.768-.77v-2.975c0-.234.188-.423.422-.423.233 0 .422.19.422.423v2.975c0 .89-.723 1.615-1.612 1.615M17.6 22.635c-1.405 0-2.547-1.144-2.547-2.55 0-1.407 1.142-2.55 2.547-2.55 1.403 0 2.545 1.143 2.545 2.55 0 1.406-1.142 2.55-2.545 2.55zm0-4.256c-.94 0-1.703.764-1.703 1.704s.764 1.705 1.703 1.705c.938 0 1.7-.765 1.7-1.706 0-.94-.762-1.705-1.7-1.705z" fill="#FFF"/><path d="M21.718 26.287l-.31-.787c3.98-1.58 6.555-5.376 6.555-9.67 0-5.73-4.654-10.395-10.376-10.395-5.72 0-10.376 4.664-10.376 10.396 0 4.294 2.574 8.09 6.557 9.67l-.31.786c-2.068-.82-3.832-2.226-5.103-4.065-1.3-1.88-1.987-4.09-1.987-6.39 0-6.198 5.033-11.24 11.22-11.24s11.22 5.042 11.22 11.24c0 2.3-.687 4.51-1.987 6.39-1.27 1.84-3.035 3.246-5.102 4.067" fill="#FFF"/></g></svg>
<svg width="213" height="77" viewBox="-10 -10 213 77" id="logo-big" y="318"><title>Page 1</title><defs><path id="aha" d="M0 75.925h193.397V0H0v75.925z"/></defs><g fill="none" fill-rule="evenodd"><path d="M192.94 9.737c-.268-2.144-2.092-3.763-4.246-3.763h-12.557c.165-.603.257-1.235.257-1.89h-2.232c0 1.697-.863 3.195-2.172 4.074v2.53c1.247-.517 2.312-1.382 3.085-2.47h13.62c1.008 0 1.865.74 2.02 1.736v17.358h-.002c0 1.135-.92 2.087-2.048 2.087v2.242c2.36 0 4.28-1.96 4.28-4.33h.003V9.876l-.01-.14z" fill="#3E3A39"/><mask id="ahb" fill="#fff"><use xlink:href="#aha"/></mask><path d="M112.067 23.033h3.722v-4.245h-3.723v4.245zm0-12.792h3.722V6.836h-3.723v3.406zm0 6.305h3.722v-4.062h-3.723v4.062zm12.92 4.263c2.664-5.01 2.63-10.086 2.63-12.27 0-2.828-2.055-3.814-3.14-3.94l-5.095-.007v2.244h4.887c.237.043 1.115.3 1.115 1.703 0 1.872-.003 5.71-1.633 9.684-1.767-4.6-1.478-9.04-1.474-9.11l-2.228-.148c-.007.12-.188 2.998.57 6.602.395 1.886.976 3.672 1.788 5.303-.865 1.4-1.98 2.767-3.42 4.017v-1.088c0-.42-.34-.763-.76-.763h-.207v-16.2h.97v-1.48c0-.42-.342-.762-.76-.762h-9.397v2.244h1v16.2h-1v2.242h6.956v2.37h1.47c.42 0 .76-.344.76-.765v-1.604h.97v2.37c1.97-1.43 3.486-3.025 4.66-4.675 1.155 1.653 2.63 3.072 4.503 4.175v-2.5c-1.335-1.14-2.365-2.46-3.167-3.837zM93.9 6.17H80.89V4.083h-2.234V6.17h-13.77v2.243h13.77v6.977h-13.77v2.243h13.77v6.98h-13.77v2.242h13.77v4.526h1.473c.42 0 .76-.34.76-.762v-3.763h13.77v-1.49c0-.39-.292-.706-.667-.753H80.89v-6.98h13.77V16.15c0-.413-.33-.746-.737-.76H80.89V8.413h13.77v-1.48c0-.422-.342-.764-.76-.764M159.815 6.228c-.017 0-.027-.002-.036-.007l-16.08-.046c.2-.662.31-1.363.31-2.09h-2.232c0 1.697-.864 3.195-2.17 4.074v2.53c1.17-.485 2.18-1.278 2.94-2.275l18.02.054.004-1.496c-.012-.41-.346-.742-.757-.742M157.14 27.31c0 .93-.753 1.694-1.677 1.704H143.52c-.926-.008-1.68-.772-1.68-1.702V21.87h6.533v3.904h1.472c.42 0 .76-.34.76-.763v-3.14h6.534v5.44zm-15.3-11.96c0-.94.76-1.704 1.696-1.704h11.907c.935 0 1.696.764 1.696 1.704v4.277h-6.534v-3.905h-2.233v3.905h-6.534V15.35zm17.953 4.277h-.42V15.35c0-2.176-1.764-3.947-3.93-3.947h-11.907c-2.166 0-3.928 1.77-3.93 3.947v4.277h-1.18v2.243h1.18v5.442c.002 2.155 1.748 3.925 3.904 3.945h11.968c2.146-.02 3.894-1.79 3.894-3.946v-5.44h1.18v-1.48c0-.42-.34-.763-.76-.763zM136.365 4.95c-.03 0-.043-.01-.045-.026h-5.44v2.242h6.245V5.713c0-.422-.34-.764-.76-.764M136.365 16.082h-5.484v2.243h6.245v-1.48c0-.42-.34-.763-.76-.763M136.57 28.453h-5.688v2.243h6.243v-1.51c0-.35-.236-.642-.556-.733M169.53 4.95c-.03 0-.044-.01-.05-.026h-5.436v2.242h6.244V5.713c0-.422-.34-.764-.76-.764M187.766 11.86H176.61c.082-.387.13-.787.13-1.198h-2.233c0 1.443-.87 2.684-2.11 3.226v2.362c1.3-.327 2.42-1.1 3.2-2.147h3.742l-.02 4.61h-6.675v2.243h6.664l-.03 6.73h-3.388c-.354 0-.64-.29-.64-.646v-4.132h-2.234v4.132c0 1.592 1.29 2.888 2.874 2.888h8.475c1.585 0 2.875-1.296 2.875-2.888v-4.132h-2.233v4.132c0 .356-.29.645-.643.645h-2.854l.03-6.73h6.733v-1.478c0-.422-.34-.764-.76-.764h-5.964l.02-4.61h6.704v-1.526c0-.332-.213-.612-.51-.717M169.53 16.082h-5.486v2.243h6.244v-1.48c0-.42-.34-.763-.76-.763M169.73 28.453h-5.686v2.243h6.244v-1.51c0-.35-.236-.642-.557-.733" fill="#3E3A39" mask="url(#ahb)"/><path d="M127.392 29.17c-.04 0-.057-.02-.065-.05h-22.372v-6.75h3.35v-1.48c0-.422-.34-.765-.76-.765h-2.59v-4.9h3.35V13.75c0-.42-.34-.762-.76-.762-.014 0-.025-.003-.036-.006h-2.555v-4.57h3.35v-1.46c-.002-.007-.003-.012-.003-.02 0-.42-.34-.763-.76-.763h-2.587V4.083h-2.233V6.17h-4.574v2.243h4.574v4.57h-4.574v2.24h4.574V28.98c-.766-.293-1.314-1.03-1.32-1.9v-.018h-.003v-8.73h-2.234v8.75c-.01.93-.765 1.685-1.694 1.685v2.242c1.07 0 2.04-.433 2.747-1.13.785.905 1.94 1.482 3.227 1.483h24.706v-1.43c0-.42-.34-.763-.76-.763" fill="#3E3A39" mask="url(#ahb)"/><path d="M56.612 28.433c0 15.703-12.673 28.433-28.305 28.433C12.673 56.866 0 44.136 0 28.433 0 12.73 12.673 0 28.307 0 43.94 0 56.612 12.73 56.612 28.433M69.457 33.163v1.444c-.538-.232-1-.348-1.384-.348-.287 0-.525.056-.714.172-.19.117-.308.25-.357.4-.05.152-.073.554-.073 1.207l-.002 1.547h2.382v1.276h-2.383L66.92 49.05h-1.47V38.862h-1.5v-1.276h1.5v-1.79c0-.822.076-1.408.226-1.76.15-.35.406-.633.766-.848.36-.215.795-.322 1.305-.322.476 0 1.046.098 1.71.295M81.11 42.16c-.197-.787-.483-1.416-.857-1.887-.374-.47-.87-.85-1.486-1.136-.616-.29-1.263-.433-1.943-.433-1.12 0-2.082.36-2.887 1.085-.588.526-1.033 1.316-1.333 2.37h8.505zm0 3.087l1.236.653c-.406.8-.875 1.446-1.406 1.937-.532.492-1.13.867-1.795 1.123-.666.256-1.418.384-2.257.384-1.86 0-3.317-.612-4.366-1.838-1.05-1.225-1.576-2.61-1.576-4.156 0-1.454.445-2.75 1.334-3.887 1.126-1.447 2.634-2.17 4.524-2.17 1.946 0 3.5.74 4.66 2.223.826 1.047 1.246 2.352 1.26 3.918H72.457c.028 1.332.45 2.423 1.27 3.274.82.852 1.83 1.278 3.035 1.278.58 0 1.146-.1 1.695-.305.55-.2 1.017-.472 1.402-.807.384-.336.8-.878 1.25-1.626zM85.46 37.587h1.47v2.054c.587-.785 1.237-1.372 1.95-1.763.713-.39 1.49-.584 2.33-.584.85 0 1.608.217 2.268.652.66.437 1.15 1.023 1.464 1.76.315.737.472 1.885.472 3.445v5.9h-1.47V43.58c0-1.32-.053-2.202-.162-2.644-.17-.76-.496-1.33-.98-1.713-.482-.38-1.11-.573-1.886-.573-.89 0-1.685.294-2.387.884-.704.59-1.167 1.32-1.39 2.19-.14.57-.21 1.61-.21 3.12v4.203h-1.47V37.586zM104.066 38.715c-.832 0-1.604.202-2.318.606-.713.404-1.273.962-1.678 1.675-.406.713-.608 1.485-.608 2.313 0 1.257.42 2.296 1.258 3.118.84.82 1.926 1.233 3.262 1.233 1.35 0 2.435-.41 3.256-1.223.822-.815 1.233-1.886 1.233-3.214 0-.863-.188-1.634-.565-2.31-.378-.68-.914-1.214-1.605-1.608-.692-.393-1.437-.59-2.234-.59zm4.33-1.127h1.47v9.133c0 1.61-.14 2.785-.42 3.53-.385 1.053-1.053 1.865-2.003 2.434-.95.568-2.095.853-3.43.853-.98 0-1.858-.14-2.637-.417-.78-.28-1.414-.652-1.904-1.12-.49-.47-.94-1.153-1.353-2.056h1.594c.433.76.994 1.32 1.68 1.687.685.365 1.536.548 2.55.548 1 0 1.847-.187 2.537-.562.69-.375 1.182-.845 1.476-1.412.294-.567.44-1.483.44-2.746v-.59c-.552.703-1.227 1.242-2.025 1.618-.797.375-1.644.563-2.54.563-1.05 0-2.036-.262-2.96-.785-.924-.524-1.638-1.228-2.142-2.113-.503-.885-.756-1.857-.756-2.918 0-1.06.262-2.048.788-2.966.524-.916 1.25-1.642 2.178-2.174.927-.534 1.905-.8 2.934-.8.854 0 1.65.175 2.39.53.737.355 1.45.94 2.135 1.754v-1.99zM118.502 38.715c-.818 0-1.572.202-2.263.604-.692.403-1.243.97-1.65 1.7-.41.73-.614 1.5-.614 2.314 0 .808.206 1.58.618 2.315.412.736.966 1.31 1.66 1.72.696.41 1.44.615 2.237.615.804 0 1.566-.204 2.285-.61.72-.407 1.272-.958 1.66-1.653.388-.694.582-1.475.582-2.345 0-1.326-.435-2.435-1.305-3.326-.87-.89-1.94-1.335-3.21-1.335zm5.867-1.127v15.654h-1.448V47.08c-.615.75-1.305 1.315-2.07 1.695-.767.38-1.604.57-2.513.57-1.616 0-2.995-.59-4.138-1.766-1.143-1.176-1.715-2.607-1.715-4.294 0-1.65.577-3.06 1.73-4.234 1.154-1.173 2.542-1.76 4.164-1.76.938 0 1.785.2 2.545.6.758.4 1.424 1.002 1.997 1.803v-2.107h1.447zM127.474 37.587h1.47v5.352c0 1.306.07 2.205.208 2.696.21.703.61 1.257 1.203 1.665.59.408 1.297.61 2.117.61.818 0 1.513-.197 2.084-.594.57-.396.965-.918 1.182-1.565.147-.44.22-1.378.22-2.81v-5.353h1.5v5.626c0 1.58-.184 2.77-.55 3.57-.368.802-.92 1.428-1.658 1.882-.737.452-1.662.68-2.774.68-1.11 0-2.04-.228-2.784-.68-.745-.454-1.3-1.085-1.667-1.896-.368-.813-.55-2.033-.55-3.662v-5.52zM142.335 46.73c.357 0 .66.128.912.38.252.254.378.562.378.928 0 .358-.126.666-.378.922s-.555.384-.912.384c-.356 0-.66-.128-.913-.384-.25-.256-.377-.564-.377-.922 0-.366.126-.674.377-.928.253-.252.557-.38.913-.38M157.74 39.97l-1.164.726c-1.004-1.342-2.377-2.013-4.116-2.013-1.39 0-2.544.45-3.462 1.347-.918.898-1.377 1.99-1.377 3.273 0 .835.212 1.62.634 2.357.422.736 1.002 1.308 1.74 1.715.736.406 1.562.61 2.477.61 1.676 0 3.045-.67 4.106-2.012l1.165.77c-.545.824-1.277 1.464-2.196 1.92-.92.453-1.966.682-3.14.682-1.805 0-3.3-.576-4.49-1.73-1.188-1.15-1.782-2.55-1.782-4.202 0-1.11.278-2.14.833-3.092.556-.95 1.32-1.693 2.292-2.227.97-.533 2.06-.8 3.26-.8.756 0 1.485.116 2.188.348.703.23 1.298.533 1.787.907.49.37.906.846 1.25 1.422M165.958 38.736c-1.22 0-2.27.452-3.147 1.36-.877.904-1.314 2-1.314 3.285 0 .83.2 1.603.6 2.32.4.715.94 1.268 1.62 1.66.68.388 1.428.583 2.242.583.814 0 1.56-.195 2.242-.584.68-.392 1.22-.945 1.62-1.66.4-.717.6-1.49.6-2.32 0-1.283-.44-2.38-1.32-3.285-.882-.907-1.93-1.36-3.142-1.36m4.376.475c1.05 1.166 1.575 2.546 1.575 4.14 0 1.6-.556 3-1.666 4.198-1.11 1.198-2.537 1.796-4.28 1.796-1.752 0-3.183-.598-4.293-1.796-1.11-1.197-1.664-2.597-1.664-4.198 0-1.587.525-2.964 1.576-4.13 1.156-1.285 2.615-1.927 4.38-1.927 1.76 0 3.216.638 4.372 1.917zM174.615 37.587h1.47v1.98c.51-.73 1.034-1.262 1.573-1.6.743-.45 1.523-.674 2.342-.674.553 0 1.077.108 1.574.326.497.218.903.507 1.22.868.314.362.587.88.817 1.554.49-.9 1.1-1.582 1.832-2.05.733-.466 1.52-.7 2.365-.7.788 0 1.484.2 2.088.6.603.4 1.05.96 1.344 1.676.292.716.44 1.792.44 3.224v6.257h-1.502V42.79c0-1.23-.086-2.074-.26-2.534-.175-.46-.473-.83-.895-1.112-.42-.28-.924-.42-1.51-.42-.71 0-1.36.21-1.95.632-.588.42-1.018.982-1.29 1.685-.272.702-.408 1.875-.408 3.518v4.49h-1.47v-5.87c0-1.382-.084-2.322-.255-2.817-.172-.494-.47-.892-.897-1.19-.426-.298-.933-.448-1.52-.448-.678 0-1.313.206-1.904.617-.592.41-1.03.963-1.31 1.658-.285.695-.426 1.76-.426 3.192v4.857h-1.47V37.586z" fill="#E73836" mask="url(#ahb)"/><path d="M36.767 49.62c-1.536 0-2.786-1.256-2.786-2.798v-4.78c0-.434.353-.786.786-.786.432 0 .784.352.784.787v4.78c0 .673.545 1.22 1.217 1.22.67 0 1.217-.547 1.217-1.22 0-.437.35-.79.784-.79.433 0 .784.353.784.79 0 1.54-1.25 2.796-2.785 2.796M40.303 27.782c-.432 0-.783-.353-.783-.788 0-.816-.66-1.48-1.472-1.48-.812 0-1.473.664-1.473 1.48 0 .435-.35.788-.783.788-.434 0-.785-.353-.785-.788 0-1.684 1.364-3.054 3.04-3.054 1.677 0 3.04 1.37 3.04 3.054 0 .435-.35.788-.784.788M20.86 27.782c-.432 0-.783-.353-.783-.788 0-.816-.66-1.48-1.472-1.48-.812 0-1.472.664-1.472 1.48 0 .435-.35.788-.784.788-.434 0-.785-.353-.785-.788 0-1.684 1.364-3.054 3.04-3.054 1.677 0 3.04 1.37 3.04 3.054 0 .435-.35.788-.784.788M26.153 49.628c-.434 0-.784-.353-.784-.788v-5.628c0-.435.35-.787.783-.787.432 0 .783.352.783.787v5.628c0 .435-.35.788-.783.788M30.46 49.628c-.434 0-.785-.353-.785-.788v-5.628c0-.435.35-.787.784-.787.432 0 .783.352.783.787v5.628c0 .435-.35.788-.784.788M19.914 49.62c-1.498 0-2.717-1.225-2.717-2.73 0-.434.35-.787.784-.787.434 0 .785.353.785.787 0 .636.515 1.154 1.15 1.154.632 0 1.148-.518 1.148-1.154v-4.846c0-.435.35-.788.783-.788.433 0 .784.353.784.788v4.846c0 1.505-1.218 2.73-2.716 2.73M28.326 29.9c-1.47 0-2.667 1.203-2.667 2.68 0 1.478 1.196 2.68 2.666 2.68s2.667-1.202 2.667-2.68c0-1.477-1.196-2.68-2.667-2.68m0 6.935c-2.335 0-4.236-1.908-4.236-4.255 0-2.345 1.9-4.254 4.236-4.254 2.335 0 4.235 1.91 4.235 4.254 0 2.347-1.9 4.255-4.234 4.255" fill="#FEFEFE" mask="url(#ahb)"/><path d="M35.055 42.776l-.578-1.464c6.434-2.56 10.592-8.708 10.592-15.66 0-9.285-7.52-16.84-16.764-16.84-9.243 0-16.762 7.555-16.762 16.84 0 6.952 4.156 13.1 10.59 15.66l-.577 1.464c-3.377-1.344-6.26-3.647-8.334-6.66-2.125-3.082-3.248-6.702-3.248-10.465 0-10.152 8.223-18.412 18.33-18.412 10.11 0 18.332 8.26 18.332 18.413 0 3.765-1.123 7.384-3.248 10.467-2.076 3.012-4.958 5.315-8.335 6.66" fill="#FEFEFE" mask="url(#ahb)"/></g></svg>
<svg width="40" height="44" viewBox="-10 -10 40 44" id="mian" y="395"><title>icon-header3</title><g transform="translate(0 -1)" fill="#999" fill-rule="evenodd"><path d="M19.206 5.14c-.284-.214-.668-.287-1.012-.188-.005.002-.506.14-1.268.14-1.668 0-4.09-.626-6.146-3.61C10.572 1.18 10.218 1 9.833 1c-.384 0-.738.18-.946.48C6.83 4.467 4.41 5.093 2.74 5.093c-.76 0-1.26-.137-1.26-.137C1.14 4.85.753 4.92.463 5.138c-.29.218-.462.566-.462.93v6.417c0 9.257 9.432 12.018 9.53 12.046.1.028.2.04.303.04.102 0 .204-.012.305-.04.095-.026 9.528-2.77 9.528-12.045V6.07c0-.364-.172-.71-.46-.93zm-.492 7.345c0 8.534-8.742 11.095-8.828 11.12-.035.01-.075.008-.103 0-.088-.024-8.83-2.593-8.83-11.12V6.07c0-.066.03-.125.078-.162.037-.026.08-.04.123-.04l.04.002c.107.037.72.182 1.547.182 1.896 0 4.637-.698 6.93-4.024.07-.1.258-.1.327 0 2.293 3.326 5.033 4.024 6.93 4.024.932 0 1.528-.176 1.528-.176.06-.018.127-.006.178.032.05.038.08.1.08.16v6.417z"/><text font-family="Heiti SC" font-size="12" font-weight="bold"><tspan x="3.8" y="17.2">免</tspan></text></g></svg>
<svg width="43" height="44" viewBox="-10 -10 43 44" id="num" y="439"><title>Oval 1 + 1</title><path d="M11.508 23.41c4.018-1.51 11-6.15 11-12.224 0-6.075-4.925-11-11-11-6.076 0-11 4.925-11 11s7.66 10.714 11 12.224z" fill="#E73736" fill-rule="evenodd"/></svg>
<svg width="34" height="32" viewBox="-10 -10 34 32" id="webchat" y="483"><title>Group</title><g fill="#FFF" fill-rule="evenodd"><path d="M3.598 3.727c-.344 0-.69-.24-.69-.598 0-.36.346-.598.69-.598.345 0 .573.237.573.597 0 .357-.227.597-.572.597M6.81 2.532c.346 0 .575.237.575.597 0 .357-.23.597-.575.597-.343 0-.69-.24-.69-.598 0-.36.347-.598.69-.598m2.468 1.296c.15 0 .296.012.442.028C9.323 1.93 7.346.5 5.09.5 2.566.5.5 2.29.5 4.565c0 1.313.687 2.39 1.837 3.227l-.46 1.437 1.605-.84c.574.12 1.035.24 1.607.24.143 0 .286-.006.428-.018-.09-.32-.142-.654-.142-1 0-2.09 1.722-3.784 3.902-3.784"/><path d="M10.827 6.955c-.227 0-.456-.236-.456-.478 0-.238.23-.478.457-.478.344 0 .575.24.575.477 0 .242-.23.478-.575.478m-2.524 0c-.23 0-.46-.236-.46-.478 0-.238.23-.478.46-.478.347 0 .574.24.574.477 0 .242-.227.478-.574.478m5.164.6c0-1.912-1.837-3.47-3.9-3.47-2.182 0-3.902 1.558-3.902 3.47 0 1.913 1.72 3.467 3.903 3.467.457 0 .918-.12 1.377-.24l1.26.718-.346-1.194c.92-.72 1.607-1.675 1.607-2.752"/></g></svg>
<svg width="32" height="30" viewBox="-10 -10 32 30" id="weibo" y="515"><title>Page 1</title><path d="M3.97 5.776c-.736.15-1.233.772-1.11 1.39.123.62.82 1 1.557.85.737-.148 1.234-.77 1.11-1.39-.122-.62-.82-1-1.557-.85zM9.973 3.37c-.18-.893-.88-1.597-1.765-1.78-.214-.043-.425.095-.468.312-.044.216.094.427.308.472.576.12 1.03.577 1.147 1.157.044.217.254.356.47.312.213-.044.352-.256.308-.472zm1.577.058C11.55 1.535 10.026 0 8.15 0c-.22 0-.398.18-.398.4 0 .22.177.4.397.4 1.438 0 2.606 1.177 2.606 2.63 0 .22.178.4.397.4.22 0 .397-.18.397-.4v-.002zM4.91 8.992C3.08 9.175 1.5 8.337 1.38 7.12 1.264 5.9 2.65 4.766 4.48 4.583c1.83-.184 3.407.654 3.525 1.87.12 1.218-1.267 2.355-3.096 2.538zm3.656-4.037c-.155-.047-.262-.08-.18-.29.176-.456.194-.85.003-1.13-.36-.525-1.34-.497-2.465-.013 0 0-.353.158-.263-.13.173-.57.147-1.048-.122-1.325-.61-.626-2.233.025-3.625 1.453C.873 4.59.268 5.723.268 6.703c0 1.876 2.342 3.13 4.634 3.13 3.005 0 5.003-1.906 5.003-3.33 0-.858-.705-1.346-1.34-1.548z" fill="#FFF" fill-rule="evenodd"/></svg>
<svg width="40" height="44" viewBox="-10 -10 40 44" id="zheng" y="545"><title>icon-header2</title><g fill="#999" fill-rule="evenodd"><path d="M19.206 4.14c-.284-.214-.668-.287-1.012-.188-.005.002-.506.14-1.268.14-1.668 0-4.09-.626-6.146-3.61C10.572.18 10.218 0 9.833 0c-.384 0-.738.18-.946.48C6.83 3.467 4.41 4.093 2.74 4.093c-.76 0-1.26-.137-1.26-.137C1.14 3.85.753 3.92.463 4.138c-.29.218-.462.566-.462.93v6.417c0 9.257 9.432 12.018 9.53 12.046.1.028.2.04.303.04.102 0 .204-.012.305-.04.095-.026 9.528-2.77 9.528-12.045V5.07c0-.364-.172-.71-.46-.93zm-.492 7.345c0 8.534-8.742 11.095-8.828 11.12-.035.01-.075.008-.103 0-.088-.024-8.83-2.593-8.83-11.12V5.07c0-.066.03-.125.078-.162.037-.026.08-.04.123-.04l.04.002c.107.037.72.182 1.547.182 1.896 0 4.637-.698 6.93-4.024.07-.1.258-.1.327 0 2.293 3.326 5.033 4.024 6.93 4.024.932 0 1.528-.176 1.528-.176.06-.018.127-.006.178.032.05.038.08.1.08.16v6.417z"/><text font-family="Heiti SC" font-size="12" font-weight="bold"><tspan x="3.8" y="16.2">正</tspan></text></g></svg>
</svg>