<?xml version="1.0" encoding="utf-8"?>
<!-- Generated by IcoMoon.io -->
<!DOCTYPE svg PUBLIC "-//W3C//DTD SVG 1.1//EN" "http://www.w3.org/Graphics/SVG/1.1/DTD/svg11.dtd">
<svg version="1.1" xmlns="http://www.w3.org/2000/svg" xmlns:xlink="http://www.w3.org/1999/xlink" width="32" height="32" viewBox="0 0 32 32">
<path fill="#444444" d="M31.328 16c0-8.526-6.933-15.469-15.49-15.563-0.032-0.001-0.062-0.004-0.094-0.004v0.002c-0.027 0-0.053-0.002-0.080-0.002-0.015 0-0.029 0.001-0.043 0.001v-0.001c-0.017 0-0.034 0.002-0.051 0.003-8.594 0.050-15.57 7.012-15.57 15.565s6.976 15.514 15.57 15.565c0.017 0 0.034 0.003 0.051 0.003v-0.001c0.015 0 0.029 0.001 0.043 0.001 0.027 0 0.053-0.002 0.080-0.002v0.002c0.032 0 0.062-0.004 0.094-0.004 8.556-0.093 15.49-7.037 15.49-15.563v0zM1.286 16.631h6.193c0.041 2.033 0.276 3.953 0.673 5.698h-5.392c-0.864-1.732-1.384-3.66-1.474-5.698v0zM30.042 15.369h-6.157c-0.039-1.994-0.266-3.88-0.649-5.599h5.383c0.834 1.706 1.335 3.6 1.423 5.599v0zM22.616 15.369h-6.317v-5.599h5.611c0.411 1.715 0.661 3.611 0.705 5.599v0zM16.299 8.508v-6.76c2.194 0.385 4.134 3.018 5.268 6.76h-5.268zM15.029 1.753v6.754h-5.232c1.128-3.721 3.053-6.347 5.232-6.754v0zM15.029 9.77v5.599h-6.281c0.044-1.988 0.294-3.884 0.705-5.599h5.575zM7.479 15.369h-6.193c0.088-1.999 0.589-3.893 1.423-5.599h5.42c-0.383 1.718-0.61 3.605-0.65 5.599v0zM8.749 16.631h6.281v5.698h-5.55c-0.425-1.741-0.685-3.672-0.73-5.698v0zM15.029 23.591v6.655c-2.16-0.404-4.069-2.987-5.202-6.655h5.202zM16.299 30.252v-6.662h5.238c-1.139 3.689-3.063 6.28-5.238 6.662v0zM16.299 22.329v-5.698h6.317c-0.045 2.026-0.305 3.957-0.73 5.698h-5.587zM23.885 16.631h6.157c-0.090 2.038-0.611 3.966-1.474 5.698h-5.355c0.397-1.745 0.632-3.665 0.672-5.698v0zM27.919 8.508h-5c-0.751-2.666-1.897-4.84-3.297-6.259 3.485 0.993 6.434 3.258 8.297 6.259v0zM11.758 2.234c-1.408 1.418-2.56 3.598-3.313 6.273h-5.036c1.873-3.016 4.842-5.289 8.349-6.273v0zM3.472 23.591h5.002c0.754 2.63 1.893 4.775 3.283 6.174-3.469-0.973-6.409-3.208-8.286-6.174v0zM19.622 29.751c1.384-1.401 2.517-3.54 3.268-6.16h4.966c-1.867 2.952-4.788 5.179-8.234 6.16v0z"></path>
</svg>
