<?xml version="1.0" encoding="utf-8"?>
<!-- Generated by IcoMoon.io -->
<!DOCTYPE svg PUBLIC "-//W3C//DTD SVG 1.1//EN" "http://www.w3.org/Graphics/SVG/1.1/DTD/svg11.dtd">
<svg version="1.1" xmlns="http://www.w3.org/2000/svg" xmlns:xlink="http://www.w3.org/1999/xlink" width="32" height="32" viewBox="0 0 32 32">
<path fill="#444444" d="M31.464 5.666c-0.056-0.176-0.186-0.318-0.356-0.391l-9.045-3.888c-0.292-0.128-0.632-0.020-0.799 0.247l-3.132 5.009-8.672 0.993-0.497-1.153c-0.061-0.142-0.172-0.257-0.312-0.323l-7.736-3.664c-0.241-0.114-0.527-0.069-0.719 0.114s-0.25 0.464-0.146 0.707l2.512 5.825v14.845c0 0.215 0.11 0.415 0.292 0.532l8.2 5.263c0.025 0.016 0.053 0.024 0.080 0.036 0.021 0.010 0.040 0.021 0.062 0.029 0.067 0.023 0.136 0.037 0.206 0.037 0.024 0 0.049-0.001 0.073-0.004l15.311-1.754c0.323-0.037 0.566-0.307 0.566-0.629v-14.815l4.044-6.491c0.097-0.157 0.122-0.347 0.066-0.523v0zM17.874 7.948v4.948l-5.856 0.671-2.033-4.714 7.889-0.904zM19.154 8.403l5.747 3.688-5.747 0.658v-4.346zM7.882 7.201l2.42 5.612-6.586-4.227-1.82-4.221 5.987 2.836zM3.843 10.178l6.92 4.441v13.464l-6.92-4.441v-13.464zM12.044 28.538v-13.699l14.031-1.607v13.699l-14.031 1.608zM26.513 11.616l-7.125-4.572 2.673-4.276 7.859 3.379-3.407 5.469z"></path>
</svg>
