<?xml version="1.0" encoding="utf-8"?>
<!-- Generated by IcoMoon.io -->
<!DOCTYPE svg PUBLIC "-//W3C//DTD SVG 1.1//EN" "http://www.w3.org/Graphics/SVG/1.1/DTD/svg11.dtd">
<svg version="1.1" xmlns="http://www.w3.org/2000/svg" xmlns:xlink="http://www.w3.org/1999/xlink" width="32" height="32" viewBox="0 0 32 32">
<path fill="#444444" d="M30.975 18.927v-4.555c0-3.677-2.421-5.578-2.524-5.657-0.11-0.084-0.244-0.129-0.382-0.129h-5.741v-3.794c0-0.347-0.28-0.628-0.627-0.628h-20.616c-0.347 0-0.628 0.282-0.628 0.628v14.76c0 0.347 0.281 0.628 0.628 0.628h0.663v2.643c0 0.348 0.28 0.628 0.627 0.628h2.005c-0.071 0.284-0.113 0.579-0.113 0.885 0 2.010 1.632 3.645 3.639 3.645 2.006 0 3.638-1.635 3.638-3.645 0-0.305-0.041-0.601-0.113-0.885h10.668c-0.071 0.284-0.113 0.579-0.113 0.885 0 2.010 1.633 3.645 3.639 3.645s3.639-1.635 3.639-3.645c0-0.305-0.042-0.601-0.114-0.885h1.756c0.347 0 0.627-0.281 0.627-0.628v-3.271c0-0.324-0.245-0.591-0.559-0.625v0zM29.72 14.371v0.206h-2.441v-4.735h0.557c0.469 0.435 1.884 1.961 1.884 4.529v0zM22.328 9.842h3.696v4.735h-3.696v-4.735zM1.712 5.419h19.361v13.503h-19.361v-13.503zM7.907 26.724c-1.315 0-2.384-1.071-2.384-2.388s1.069-2.388 2.384-2.388c1.314 0 2.383 1.071 2.383 2.388s-1.069 2.388-2.383 2.388v0zM25.626 26.724c-1.315 0-2.384-1.071-2.384-2.388s1.069-2.388 2.384-2.388c1.314 0 2.384 1.071 2.384 2.388s-1.069 2.388-2.384 2.388v0zM30.279 22.194h-1.716c-0.663-0.909-1.73-1.503-2.937-1.503s-2.276 0.594-2.938 1.503h-11.844c-0.663-0.909-1.73-1.503-2.937-1.503s-2.276 0.594-2.938 1.503h-1.966v-2.014h18.698c0.347 0 0.627-0.282 0.627-0.628v-3.717h7.391v3.717c0 0.324 0.245 0.59 0.559 0.625v2.018z"></path>
<path fill="#444444" d="M25.625 23.515c-0.452 0-0.819 0.368-0.819 0.821s0.368 0.821 0.819 0.821 0.82-0.368 0.82-0.821c0-0.453-0.368-0.821-0.82-0.821z"></path>
<path fill="#444444" d="M7.906 23.515c-0.452 0-0.82 0.368-0.82 0.821s0.368 0.821 0.82 0.821c0.452 0 0.819-0.368 0.819-0.821s-0.367-0.821-0.819-0.821z"></path>
<path fill="#444444" d="M23.744 5.685h0.004c1.598 0 3.039 1.91 3.054 1.93 0.123 0.165 0.312 0.253 0.504 0.253 0.131 0 0.261-0.040 0.373-0.124 0.279-0.207 0.336-0.599 0.131-0.878-0.073-0.1-1.828-2.438-4.061-2.438h-0.006c-0.346 0.001-0.627 0.282-0.626 0.63s0.281 0.627 0.627 0.627z"></path>
</svg>
