<?xml version="1.0" encoding="utf-8"?>
<!-- Generated by IcoMoon.io -->
<!DOCTYPE svg PUBLIC "-//W3C//DTD SVG 1.1//EN" "http://www.w3.org/Graphics/SVG/1.1/DTD/svg11.dtd">
<svg version="1.1" xmlns="http://www.w3.org/2000/svg" xmlns:xlink="http://www.w3.org/1999/xlink" width="32" height="32" viewBox="0 0 32 32">
<path fill="#444444" d="M26.742 24.124l-8.41 2.333c-0.616-1.279-1.922-2.166-3.434-2.166-0.177 0-0.349 0.016-0.52 0.040l-6.569-23.679c-0.094-0.337-0.443-0.534-0.78-0.442-0.337 0.093-0.534 0.443-0.441 0.78l0.845 3.046h-4.942c-0.35 0-0.633 0.284-0.633 0.634s0.283 0.634 0.633 0.634h5.167c0.043 0 0.080-0.016 0.12-0.024l5.39 19.432c-1.235 0.632-2.084 1.914-2.084 3.393 0 2.103 1.711 3.814 3.814 3.814s3.813-1.711 3.813-3.814c0-0.145-0.010-0.287-0.026-0.428l8.396-2.33c0.337-0.093 0.534-0.443 0.441-0.78s-0.444-0.532-0.78-0.441v0zM14.898 30.65c-1.405 0-2.547-1.142-2.547-2.547 0-1.403 1.142-2.545 2.547-2.545 1.404 0 2.546 1.142 2.546 2.545 0 1.404-1.142 2.547-2.546 2.547v0z"></path>
<path fill="#444444" d="M30.195 20.195l-3.409-12.287c-0.045-0.161-0.152-0.3-0.299-0.382s-0.32-0.104-0.481-0.059l-12.286 3.409c-0.337 0.093-0.534 0.443-0.441 0.78l3.409 12.286c0.077 0.28 0.333 0.464 0.61 0.464 0.056 0 0.113-0.008 0.17-0.023l12.285-3.408c0.162-0.045 0.3-0.152 0.382-0.299 0.083-0.146 0.104-0.319 0.060-0.481v0zM17.74 22.993l-3.070-11.065 11.065-3.070 3.070 11.066-11.065 3.069z"></path>
<path fill="#444444" d="M21.79 14.738c0.072 0.028 0.147 0.040 0.22 0.040 0.257 0 0.499-0.157 0.594-0.413l0.1-0.269 0.975 3.481c0.079 0.28 0.333 0.463 0.61 0.463 0.057 0 0.115-0.007 0.172-0.023 0.337-0.095 0.534-0.445 0.439-0.781l-0.975-3.48 0.224 0.178c0.275 0.218 0.674 0.17 0.89-0.104 0.218-0.275 0.171-0.673-0.103-0.89l-1.754-1.389c-0.158-0.125-0.368-0.168-0.564-0.113-0.195 0.054-0.353 0.199-0.423 0.39l-0.778 2.097c-0.122 0.328 0.045 0.692 0.374 0.814z"></path>
<path fill="#444444" d="M19.892 18.639c0.079 0.28 0.333 0.463 0.609 0.463 0.057 0 0.115-0.007 0.172-0.023 0.337-0.094 0.534-0.445 0.439-0.781l-0.975-3.482 0.225 0.178c0.275 0.218 0.673 0.171 0.89-0.104s0.171-0.673-0.104-0.89l-1.754-1.388c-0.159-0.127-0.367-0.168-0.564-0.113s-0.353 0.2-0.424 0.39l-0.778 2.097c-0.122 0.328 0.046 0.692 0.374 0.815 0.072 0.027 0.147 0.039 0.22 0.039 0.258 0 0.499-0.157 0.594-0.413l0.099-0.268 0.975 3.481z"></path>
<path fill="#444444" d="M19.78 19.781c-0.337 0.094-0.534 0.444-0.44 0.781 0.079 0.28 0.333 0.463 0.61 0.463 0.057 0 0.115-0.008 0.171-0.024l5.808-1.626c0.337-0.094 0.534-0.444 0.439-0.781s-0.447-0.533-0.781-0.44l-5.807 1.626z"></path>
<path fill="#444444" d="M14.897 27.016c-0.6 0-1.087 0.487-1.087 1.087s0.487 1.087 1.087 1.087 1.088-0.486 1.088-1.087c0-0.6-0.488-1.087-1.088-1.087z"></path>
</svg>
