<?xml version="1.0" encoding="utf-8"?>
<!-- Generated by IcoMoon.io -->
<!DOCTYPE svg PUBLIC "-//W3C//DTD SVG 1.1//EN" "http://www.w3.org/Graphics/SVG/1.1/DTD/svg11.dtd">
<svg version="1.1" xmlns="http://www.w3.org/2000/svg" xmlns:xlink="http://www.w3.org/1999/xlink" width="32" height="32" viewBox="0 0 32 32">
<path fill="#444444" d="M27.975 5.294l-4.377-4.311c-0.315-0.309-0.732-0.48-1.174-0.48h-17.33c-0.922 0-1.672 0.749-1.672 1.67v27.903c0 0.922 0.75 1.672 1.672 1.672h21.707c0.922 0 1.674-0.75 1.674-1.672v-23.594c0-0.444-0.182-0.878-0.499-1.189v0zM26.757 5.856h-3.7l-0.004-3.647 3.704 3.647zM26.801 30.494h-21.707c-0.229 0-0.416-0.187-0.416-0.417v-27.903c0-0.229 0.187-0.415 0.416-0.415h16.702l0.005 4.726c0.001 0.346 0.282 0.627 0.628 0.627h4.789v22.966c0 0.23-0.187 0.417-0.417 0.417v0z"></path>
<path fill="#444444" d="M23.777 22.479h-10.265c-0.347 0-0.628 0.28-0.628 0.627s0.281 0.627 0.628 0.627h10.265c0.347 0 0.628-0.28 0.628-0.627s-0.281-0.627-0.628-0.627z"></path>
<path fill="#444444" d="M23.777 17.020h-10.265c-0.347 0-0.628 0.28-0.628 0.627s0.281 0.627 0.628 0.627h10.265c0.347 0 0.628-0.28 0.628-0.627s-0.281-0.627-0.628-0.627z"></path>
<path fill="#444444" d="M23.777 11.561h-10.265c-0.347 0-0.628 0.28-0.628 0.627s0.281 0.627 0.628 0.627h10.265c0.347 0 0.628-0.281 0.628-0.627s-0.281-0.627-0.628-0.627z"></path>
<path fill="#444444" d="M10.21 10.689h-1.746c-0.347 0-0.628 0.28-0.628 0.627v1.744c0 0.347 0.281 0.627 0.628 0.627h1.746c0.347 0 0.628-0.28 0.628-0.627v-1.744c0-0.347-0.281-0.627-0.628-0.627z"></path>
<path fill="#444444" d="M10.21 16.148h-1.746c-0.347 0-0.628 0.28-0.628 0.627v1.745c0 0.346 0.281 0.627 0.628 0.627h1.746c0.347 0 0.628-0.281 0.628-0.627v-1.745c0-0.347-0.281-0.627-0.628-0.627z"></path>
<path fill="#444444" d="M10.21 21.607h-1.746c-0.347 0-0.628 0.281-0.628 0.627v1.745c0 0.346 0.281 0.627 0.628 0.627h1.746c0.347 0 0.628-0.281 0.628-0.627v-1.745c0-0.346-0.281-0.627-0.628-0.627z"></path>
</svg>
