<?xml version="1.0" encoding="utf-8"?>
<!-- Generator: Adobe Illustrator 17.0.0, SVG Export Plug-In . SVG Version: 6.00 Build 0)  -->
<!DOCTYPE svg PUBLIC "-//W3C//DTD SVG 1.1//EN" "http://www.w3.org/Graphics/SVG/1.1/DTD/svg11.dtd">
<svg version="1.1" id="_x33_15274262343_1" xmlns="http://www.w3.org/2000/svg" xmlns:xlink="http://www.w3.org/1999/xlink" x="0px"
	 y="0px" width="222.308px" height="60px" viewBox="0 0 222.308 60" enable-background="new 0 0 222.308 60" xml:space="preserve">
<g>
	<g>
		<path fill-rule="evenodd" clip-rule="evenodd" fill="#FFF462" d="M59.129,27.848l-8.202-8.197v-0.007
			c-1.4-1.246-3.251-2.002-5.278-2.002c-2.21,0-4.208,0.901-5.647,2.362c0-0.005,0-0.005,0-0.005
			c1.454-1.443,2.355-3.441,2.355-5.651c0-2.022-0.758-3.874-2.001-5.279c-0.006,0-0.006,0-0.006,0l-8.203-8.204
			C31.598,0.326,30.839,0,30,0c-0.834,0-1.584,0.322-2.14,0.86l-4.224,4.225l-3.99,3.985c0,0,0,0-0.002,0.005
			c-1.246,1.405-2.001,3.252-2.001,5.274c0,2.211,0.9,4.209,2.359,5.651c0,0-0.005,0-0.005,0.005
			c-1.439-1.462-3.438-2.362-5.648-2.362c-2.025,0-3.875,0.756-5.278,2.002v0.007l-8.198,8.197C0.334,28.411,0,29.16,0,29.999
			c0,0.832,0.332,1.59,0.86,2.14l4.227,4.222l3.987,3.992c1.403,1.244,3.253,2.009,5.276,2.009c2.21,0,4.209-0.905,5.648-2.363
			h0.005c-1.459,1.443-2.359,3.438-2.359,5.655c0,2.02,0.754,3.87,2.001,5.267c0.002,0,0.002,0,0.002,0.007l3.99,3.986l4.224,4.22
			C28.416,59.675,29.166,60,30,60c0.839,0,1.598-0.325,2.149-0.868l8.203-8.202c0,0,0,0,0.006,0
			c1.242-1.404,2.001-3.254,2.001-5.274c0-2.217-0.901-4.212-2.355-5.655c1.439,1.458,3.437,2.363,5.647,2.363
			c2.024,0,3.869-0.765,5.276-2.009c0.002,0,0.002,0,0.002,0l3.987-3.992l4.219-4.222c0.538-0.55,0.866-1.308,0.866-2.14
			C60,29.16,59.672,28.411,59.129,27.848z"/>
		<rect x="21.147" y="15.86" fill-rule="evenodd" clip-rule="evenodd" fill="#009944" width="17.743" height="5.284"/>
		<rect x="38.858" y="21.144" fill-rule="evenodd" clip-rule="evenodd" fill="#009944" width="5.282" height="17.71"/>
		<rect x="21.147" y="38.854" fill-rule="evenodd" clip-rule="evenodd" fill="#009944" width="17.711" height="5.292"/>
		<rect x="15.862" y="21.144" fill-rule="evenodd" clip-rule="evenodd" fill="#009944" width="5.286" height="17.71"/>
		<path fill-rule="evenodd" clip-rule="evenodd" fill="#009944" d="M30,33.304c-1.817,0-3.297-1.484-3.297-3.305
			c0-1.822,1.48-3.303,3.297-3.303c1.823,0,3.297,1.481,3.297,3.303C33.297,31.82,31.823,33.304,30,33.304L30,33.304z M30,22.248
			c-4.28,0-7.753,3.469-7.753,7.751c0,4.284,3.472,7.755,7.753,7.755c4.282,0,7.753-3.471,7.753-7.755
			C37.753,25.717,34.282,22.248,30,22.248z"/>
		<path fill-rule="evenodd" clip-rule="evenodd" fill="#009944" d="M58.231,31.29c0.324-0.332,0.525-0.789,0.525-1.291
			c0-0.499-0.201-0.954-0.525-1.294l-2.84-2.837l-5.343-5.342c-0.53-0.533-1.259-0.856-2.066-0.856c-1.613,0-2.92,1.306-2.92,2.926
			c0,0.803,0.323,1.535,0.853,2.064l5.343,5.339l-5.343,5.346c-0.53,0.525-0.853,1.262-0.853,2.062c0,1.617,1.307,2.928,2.92,2.928
			c0.811,0,1.538-0.335,2.07-0.861L58.231,31.29z"/>
		<path fill-rule="evenodd" clip-rule="evenodd" fill="#009944" d="M1.776,31.29c-0.328-0.332-0.532-0.789-0.532-1.291
			c0-0.499,0.203-0.954,0.532-1.294l2.836-2.837l5.342-5.342c0.532-0.533,1.259-0.856,2.066-0.856c1.613,0,2.925,1.306,2.925,2.926
			c0,0.803-0.332,1.535-0.86,2.064l-5.343,5.339l5.343,5.346c0.528,0.525,0.86,1.262,0.86,2.062c0,1.617-1.312,2.928-2.925,2.928
			c-0.808,0-1.536-0.335-2.066-0.861L1.776,31.29z"/>
		<path fill-rule="evenodd" clip-rule="evenodd" fill="#009944" d="M28.713,58.23c0.328,0.324,0.79,0.526,1.287,0.526
			c0.504,0,0.955-0.202,1.293-0.526l2.843-2.839l5.344-5.353c0.523-0.522,0.849-1.253,0.849-2.055c0-1.613-1.301-2.922-2.918-2.922
			c-0.809,0-1.538,0.326-2.068,0.856L30,51.256l-5.338-5.34c-0.531-0.53-1.265-0.856-2.068-0.856c-1.617,0-2.92,1.309-2.92,2.922
			c0,0.802,0.325,1.535,0.853,2.065L28.713,58.23z"/>
		<path fill-rule="evenodd" clip-rule="evenodd" fill="#009944" d="M28.713,1.768c0.328-0.323,0.79-0.523,1.287-0.523
			c0.504,0,0.955,0.2,1.293,0.523l2.843,2.841L39.48,9.95c0.523,0.531,0.849,1.263,0.849,2.071c0,1.611-1.301,2.917-2.918,2.917
			c-0.809,0-1.538-0.323-2.068-0.855L30,8.745l-5.338,5.339c-0.531,0.532-1.265,0.855-2.068,0.855c-1.617,0-2.92-1.306-2.92-2.917
			c0-0.812,0.325-1.542,0.853-2.071L28.713,1.768z"/>
	</g>
	<g>
		<path fill="#333333" d="M86.158,17.548c0-0.155,0.056-0.293,0.169-0.413s0.247-0.18,0.403-0.18h1.186
			c0.141,0,0.272,0.06,0.392,0.18c0.119,0.12,0.18,0.258,0.18,0.413v8.555c0,0.155-0.057,0.29-0.17,0.402
			c-0.113,0.114-0.247,0.17-0.403,0.17h-1.186c-0.156,0-0.29-0.056-0.403-0.17c-0.113-0.112-0.169-0.247-0.169-0.402v-0.72h-4.913
			v6.48c0,0.155-0.057,0.292-0.17,0.413c-0.113,0.119-0.247,0.18-0.403,0.18h-1.249c-0.141,0-0.272-0.057-0.392-0.17
			c-0.12-0.113-0.18-0.254-0.18-0.423v-6.48h-4.913v0.869c0,0.155-0.057,0.293-0.17,0.413c-0.113,0.12-0.247,0.18-0.402,0.18h-1.186
			c-0.141,0-0.272-0.06-0.392-0.18c-0.12-0.12-0.18-0.258-0.18-0.413v-8.64c0-0.155,0.057-0.293,0.17-0.413
			c0.112-0.12,0.247-0.18,0.402-0.18h1.186c0.155,0,0.289,0.06,0.402,0.18c0.113,0.12,0.17,0.258,0.17,0.413v0.17h4.913v-3.516
			c0-0.155,0.057-0.293,0.17-0.413c0.113-0.12,0.247-0.18,0.403-0.18h1.249c0.141,0,0.272,0.06,0.392,0.18
			c0.12,0.12,0.181,0.258,0.181,0.413v3.516h4.913V17.548z M73.938,24.367h4.913v-5.57h-4.913V24.367z M81.245,24.367h4.913v-5.57
			h-4.913V24.367z"/>
		<path fill="#333333" d="M93.718,14.858c0-0.155,0.06-0.292,0.18-0.413c0.12-0.119,0.25-0.18,0.392-0.18h1.102
			c0.141,0,0.265,0.05,0.37,0.148c0.106,0.099,0.173,0.226,0.201,0.381h12.642c0-0.155,0.056-0.289,0.17-0.402
			c0.112-0.113,0.247-0.17,0.402-0.17h1.08c0.155,0,0.289,0.06,0.403,0.18c0.112,0.12,0.169,0.258,0.169,0.413v17.026
			c0,0.155-0.057,0.293-0.169,0.413c-0.114,0.12-0.247,0.18-0.403,0.18h-1.08c-0.155,0-0.29-0.06-0.402-0.18
			c-0.114-0.12-0.17-0.258-0.17-0.413v-0.593H95.962v0.571c0,0.155-0.057,0.29-0.17,0.403c-0.113,0.112-0.247,0.17-0.402,0.17
			h-1.102c-0.141,0-0.272-0.057-0.392-0.17c-0.12-0.113-0.18-0.247-0.18-0.403V14.858z M95.962,30.338h12.642V15.726H95.962V30.338z
			 M97.423,22.439c0-0.07,0.032-0.141,0.095-0.212c0.063-0.07,0.138-0.106,0.222-0.106h3.283V18.84h-3.791
			c-0.226,0-0.338-0.113-0.338-0.339v-0.233c0-0.07,0.032-0.141,0.095-0.212c0.063-0.07,0.145-0.106,0.243-0.106h10.102
			c0.084,0,0.162,0.036,0.233,0.106c0.07,0.071,0.105,0.141,0.105,0.212V18.5c0,0.099-0.035,0.18-0.105,0.243
			c-0.071,0.064-0.149,0.096-0.233,0.096h-4.151v3.282h3.579c0.085,0,0.162,0.036,0.233,0.106c0.07,0.071,0.106,0.141,0.106,0.212
			v0.254c0,0.085-0.036,0.159-0.106,0.222c-0.071,0.063-0.148,0.096-0.233,0.096h-3.579v4.151h4.448
			c0.085,0,0.162,0.035,0.233,0.105c0.07,0.071,0.105,0.148,0.105,0.233v0.233c0,0.085-0.035,0.159-0.105,0.223
			c-0.071,0.063-0.148,0.095-0.233,0.095H96.915c-0.099,0-0.18-0.032-0.243-0.095c-0.063-0.063-0.095-0.138-0.095-0.223V27.5
			c0-0.085,0.032-0.162,0.095-0.233c0.063-0.07,0.145-0.105,0.243-0.105h4.108v-4.151H97.74c-0.084,0-0.159-0.032-0.222-0.096
			c-0.063-0.063-0.095-0.137-0.095-0.222V22.439z M104.03,24.091c-0.042-0.07-0.01-0.165,0.096-0.285
			c0.105-0.12,0.215-0.159,0.328-0.116c0.494,0.198,0.913,0.409,1.26,0.635c0.345,0.226,0.617,0.431,0.815,0.614
			c0.155,0.156,0.247,0.318,0.276,0.487c0.028,0.169-0.014,0.388-0.128,0.656c-0.042,0.113-0.105,0.226-0.19,0.338
			c-0.085,0.114-0.191,0.219-0.318,0.318c-0.156,0.128-0.328,0.166-0.519,0.116c-0.19-0.049-0.342-0.222-0.455-0.518
			C104.899,25.56,104.51,24.811,104.03,24.091z"/>
		<path fill="#333333" d="M114.724,23.583c0.522-0.974,0.981-1.881,1.377-2.722c0.395-0.84,0.741-1.641,1.037-2.403
			c0.296-0.762,0.558-1.503,0.784-2.224c0.225-0.72,0.43-1.447,0.614-2.181c0.028-0.17,0.113-0.29,0.254-0.36
			c0.141-0.07,0.303-0.085,0.487-0.043l1.292,0.424c0.338,0.155,0.452,0.402,0.338,0.741c-0.296,0.804-0.6,1.56-0.911,2.266
			c-0.311,0.706-0.635,1.377-0.974,2.011c0.225,0.099,0.339,0.283,0.339,0.551v12.24c0,0.155-0.057,0.293-0.17,0.413
			c-0.113,0.12-0.247,0.18-0.403,0.18h-1.101c-0.156,0-0.29-0.06-0.403-0.18c-0.113-0.12-0.17-0.258-0.17-0.413v-9.889
			c-0.607,0.777-1.249,1.482-1.927,2.118c-0.043,0.042-0.103,0.057-0.18,0.042c-0.078-0.014-0.145-0.049-0.201-0.105
			c-0.057-0.057-0.099-0.127-0.128-0.212C114.653,23.752,114.668,23.668,114.724,23.583z M119.679,31.969
			c0.494-0.48,0.942-0.935,1.345-1.366c0.403-0.431,0.769-0.854,1.102-1.271c0.331-0.416,0.628-0.829,0.889-1.239
			c0.261-0.409,0.505-0.826,0.731-1.249c0.112-0.225,0.247-0.349,0.402-0.371c0.155-0.021,0.346,0.025,0.572,0.138
			c0.099,0.057,0.25,0.138,0.455,0.243c0.205,0.106,0.363,0.209,0.476,0.307c0.226,0.155,0.353,0.31,0.381,0.466
			c0.028,0.155-0.057,0.36-0.254,0.614c-0.226,0.296-0.537,0.646-0.932,1.048c-0.396,0.403-0.844,0.809-1.345,1.217
			c-0.501,0.409-1.045,0.802-1.63,1.175c-0.586,0.374-1.19,0.689-1.811,0.942c-0.057,0.028-0.117,0.018-0.18-0.032
			c-0.063-0.05-0.12-0.11-0.17-0.18c-0.05-0.07-0.081-0.148-0.095-0.233S119.623,32.025,119.679,31.969z M120.082,24.853
			c0-0.099,0.035-0.183,0.106-0.254c0.07-0.071,0.155-0.106,0.254-0.106h2.943v-5.612h-2.138c-0.099,0-0.184-0.035-0.254-0.105
			c-0.071-0.071-0.106-0.163-0.106-0.276v-0.318c0-0.099,0.035-0.183,0.106-0.254c0.07-0.07,0.155-0.106,0.254-0.106h2.138v-3.579
			c0-0.155,0.057-0.289,0.17-0.402s0.24-0.17,0.381-0.17h1.102c0.141,0,0.267,0.057,0.381,0.17s0.17,0.247,0.17,0.402v3.579h3.113
			v-3.558c0-0.155,0.057-0.293,0.17-0.413c0.113-0.12,0.24-0.18,0.381-0.18h1.101c0.141,0,0.268,0.06,0.381,0.18
			c0.113,0.12,0.17,0.258,0.17,0.413v3.558h2.287c0.099,0,0.183,0.036,0.254,0.106c0.071,0.07,0.106,0.155,0.106,0.254V18.5
			c0,0.113-0.035,0.205-0.106,0.276c-0.07,0.07-0.155,0.105-0.254,0.105h-2.287v5.612h2.795c0.113,0,0.201,0.035,0.265,0.106
			c0.063,0.07,0.095,0.155,0.095,0.254v0.381c0,0.113-0.032,0.205-0.095,0.276c-0.063,0.07-0.152,0.105-0.265,0.105h-13.257
			c-0.099,0-0.183-0.035-0.254-0.105c-0.071-0.071-0.106-0.163-0.106-0.276V24.853z M125.588,24.493h3.113v-5.612h-3.113V24.493z
			 M128.32,27.331c-0.042-0.042-0.057-0.102-0.042-0.18c0.014-0.077,0.045-0.155,0.095-0.233c0.049-0.077,0.113-0.137,0.19-0.18
			c0.078-0.042,0.159-0.042,0.244,0c0.494,0.226,0.971,0.469,1.429,0.731c0.459,0.261,0.882,0.523,1.27,0.784
			c0.389,0.261,0.734,0.511,1.038,0.751c0.303,0.241,0.554,0.459,0.751,0.657c0.353,0.338,0.473,0.798,0.361,1.376
			c-0.043,0.198-0.11,0.396-0.201,0.594c-0.092,0.197-0.194,0.36-0.307,0.487c-0.24,0.283-0.483,0.427-0.731,0.434
			c-0.247,0.007-0.469-0.166-0.667-0.519c-0.452-0.776-0.957-1.553-1.514-2.329C129.678,28.927,129.04,28.136,128.32,27.331z"/>
		<path fill="#333333" d="M136.896,21.888c0.352-0.776,0.66-1.499,0.921-2.17c0.261-0.671,0.49-1.313,0.688-1.927
			s0.367-1.217,0.509-1.81c0.141-0.594,0.268-1.208,0.381-1.843c0.042-0.212,0.123-0.353,0.243-0.424
			c0.12-0.07,0.314-0.084,0.582-0.042c0.225,0.042,0.42,0.088,0.582,0.138c0.162,0.05,0.307,0.088,0.434,0.116
			c0.226,0.07,0.361,0.169,0.403,0.296c0.042,0.127,0.028,0.303-0.042,0.529c-0.085,0.283-0.177,0.561-0.276,0.836
			c-0.099,0.276-0.205,0.554-0.318,0.837h3.219c0.113,0,0.208,0.035,0.285,0.105c0.079,0.071,0.117,0.156,0.117,0.254v0.212
			c0,0.099-0.039,0.18-0.117,0.243c-0.077,0.064-0.172,0.096-0.285,0.096h-3.579c-0.212,0.48-0.434,0.949-0.667,1.408
			c-0.232,0.459-0.483,0.893-0.751,1.303h4.638c0.113,0,0.204,0.035,0.276,0.105c0.07,0.071,0.105,0.148,0.105,0.233v0.233
			c0,0.099-0.039,0.18-0.116,0.243c-0.077,0.064-0.167,0.096-0.265,0.096h-2.097v3.176h2.541c0.113,0,0.208,0.035,0.287,0.105
			c0.077,0.071,0.116,0.148,0.116,0.233v0.276c0,0.099-0.039,0.18-0.116,0.243c-0.079,0.063-0.167,0.095-0.265,0.095h-2.563v3.833
			l2.373-1.101c0.055-0.028,0.119-0.021,0.19,0.021c0.07,0.042,0.134,0.095,0.19,0.159c0.057,0.063,0.092,0.134,0.106,0.212
			c0.014,0.078,0,0.145-0.043,0.201c-0.226,0.254-0.487,0.533-0.783,0.837c-0.296,0.303-0.611,0.607-0.943,0.911
			c-0.332,0.303-0.674,0.61-1.027,0.921c-0.353,0.31-0.698,0.607-1.037,0.889c-0.409,0.325-0.741,0.303-0.995-0.063
			c-0.113-0.17-0.236-0.367-0.37-0.593c-0.134-0.226-0.223-0.403-0.265-0.529c-0.156-0.395-0.043-0.671,0.338-0.826l0.233-0.106
			v-4.765h-2.033c-0.099,0-0.188-0.032-0.265-0.095c-0.078-0.063-0.116-0.145-0.116-0.243v-0.276c0-0.085,0.039-0.162,0.116-0.233
			c0.077-0.07,0.166-0.105,0.265-0.105h2.033v-3.176h-1.122c-0.396,0.536-0.791,0.988-1.186,1.355
			c-0.043,0.042-0.099,0.053-0.17,0.032c-0.071-0.021-0.138-0.057-0.201-0.106c-0.063-0.049-0.113-0.109-0.148-0.18
			C136.871,21.988,136.867,21.931,136.896,21.888z M144.816,15.049c-0.029-0.043-0.032-0.095-0.011-0.159
			c0.022-0.063,0.061-0.123,0.117-0.18c0.057-0.056,0.12-0.099,0.19-0.127s0.149-0.021,0.233,0.021
			c0.523,0.268,0.998,0.55,1.43,0.847c0.43,0.296,0.773,0.6,1.027,0.91c0.154,0.17,0.244,0.339,0.265,0.509s-0.004,0.353-0.074,0.55
			c-0.057,0.199-0.131,0.367-0.222,0.509c-0.092,0.141-0.194,0.275-0.307,0.402c-0.197,0.198-0.409,0.276-0.636,0.233
			c-0.226-0.042-0.387-0.197-0.487-0.465c-0.156-0.438-0.357-0.907-0.604-1.408C145.49,16.189,145.183,15.642,144.816,15.049z
			 M151.318,30.973c-0.099-0.268-0.008-0.423,0.274-0.466l0.826-0.105c0.296-0.057,0.509-0.166,0.636-0.328
			c0.127-0.163,0.19-0.427,0.19-0.794v-1.694h-5.971v4.32c0,0.17-0.057,0.31-0.17,0.423s-0.247,0.17-0.403,0.17h-0.973
			c-0.142,0-0.273-0.057-0.393-0.17c-0.12-0.113-0.179-0.254-0.179-0.423V19.326c0-0.155,0.057-0.289,0.17-0.402
			c0.113-0.113,0.247-0.17,0.403-0.17h0.973c0.127,0,0.244,0.042,0.35,0.127c0.105,0.085,0.172,0.191,0.201,0.318h1.885v-4.956
			c0-0.155,0.059-0.289,0.179-0.402c0.12-0.113,0.251-0.17,0.392-0.17h0.953c0.142,0,0.273,0.057,0.393,0.17
			c0.12,0.113,0.179,0.247,0.179,0.402v4.956h2.011c0.029-0.127,0.099-0.236,0.212-0.328s0.233-0.138,0.36-0.138h0.975
			c0.154,0,0.288,0.06,0.403,0.18c0.112,0.12,0.168,0.258,0.168,0.413v10.694c0,0.578-0.098,1.059-0.296,1.44
			c-0.197,0.381-0.543,0.649-1.037,0.804c-0.199,0.057-0.423,0.106-0.678,0.148c-0.254,0.043-0.516,0.07-0.783,0.085
			c-0.17,0.028-0.301,0.01-0.392-0.053c-0.092-0.063-0.188-0.18-0.287-0.349c-0.028-0.042-0.07-0.113-0.127-0.212
			c-0.057-0.099-0.113-0.205-0.17-0.318c-0.057-0.113-0.113-0.222-0.17-0.328C151.366,31.132,151.332,31.044,151.318,30.973z
			 M147.273,22.927h5.971v-2.795h-5.971V22.927z M147.273,26.675h5.971v-2.817h-5.971V26.675z M152.122,18.458
			c0.24-0.523,0.47-1.066,0.689-1.631c0.218-0.565,0.426-1.164,0.625-1.8c0.055-0.197,0.154-0.332,0.296-0.403
			c0.141-0.07,0.296-0.07,0.466,0c0.168,0.071,0.345,0.152,0.529,0.244c0.183,0.092,0.381,0.194,0.593,0.307
			c0.197,0.113,0.299,0.243,0.306,0.392c0.007,0.149-0.039,0.301-0.136,0.456c-0.156,0.226-0.339,0.463-0.551,0.709
			c-0.211,0.247-0.437,0.494-0.677,0.741c-0.241,0.247-0.491,0.487-0.753,0.72c-0.261,0.233-0.525,0.441-0.794,0.625
			c-0.07,0.057-0.145,0.078-0.222,0.063c-0.077-0.014-0.148-0.045-0.211-0.095c-0.065-0.05-0.11-0.106-0.138-0.17
			C152.115,18.553,152.108,18.5,152.122,18.458z"/>
		<path fill="#333333" d="M159.258,19.454c-0.057-0.099-0.081-0.181-0.074-0.244s0.046-0.137,0.117-0.222
			c0.07-0.113,0.134-0.173,0.191-0.18c0.056-0.007,0.134,0.003,0.233,0.032c0.607,0.169,1.154,0.378,1.641,0.625
			c0.487,0.247,0.858,0.484,1.112,0.709c0.17,0.156,0.272,0.328,0.307,0.519c0.035,0.19-0.011,0.434-0.138,0.731
			c-0.057,0.127-0.127,0.268-0.212,0.423c-0.085,0.156-0.198,0.311-0.339,0.466c-0.183,0.198-0.381,0.293-0.593,0.286
			c-0.212-0.008-0.403-0.181-0.571-0.519c-0.241-0.466-0.494-0.907-0.762-1.324C159.9,20.34,159.597,19.905,159.258,19.454z
			 M159.64,26.844c-0.057-0.17-0.014-0.318,0.127-0.445c0.155-0.155,0.318-0.17,0.487-0.043c0.127,0.113,0.257,0.233,0.392,0.361
			c0.134,0.127,0.278,0.268,0.434,0.423l2.371-5.824c0.028-0.057,0.085-0.088,0.17-0.095c0.085-0.007,0.17,0,0.254,0.021
			c0.085,0.021,0.159,0.057,0.222,0.106c0.063,0.05,0.088,0.11,0.074,0.18l-1.61,7.179c0.141,0.17,0.265,0.328,0.371,0.476
			c0.105,0.148,0.194,0.279,0.265,0.392c0.155,0.254,0.25,0.487,0.285,0.699c0.035,0.212-0.003,0.445-0.116,0.698
			c-0.07,0.155-0.169,0.325-0.296,0.509c-0.127,0.183-0.29,0.345-0.487,0.487c-0.283,0.198-0.526,0.275-0.731,0.233
			s-0.364-0.261-0.476-0.656c-0.184-0.65-0.431-1.384-0.741-2.202C160.324,28.524,159.992,27.691,159.64,26.844z M160.868,14.477
			c-0.114-0.141-0.106-0.296,0.021-0.465c0.085-0.085,0.159-0.134,0.223-0.148c0.063-0.014,0.152-0.008,0.265,0.021
			c0.621,0.198,1.157,0.417,1.61,0.657c0.452,0.24,0.797,0.473,1.037,0.698c0.183,0.156,0.296,0.321,0.338,0.498
			c0.043,0.177,0,0.427-0.127,0.752c-0.042,0.141-0.103,0.29-0.18,0.445c-0.078,0.156-0.188,0.311-0.328,0.466
			c-0.198,0.198-0.41,0.285-0.636,0.265c-0.226-0.021-0.416-0.208-0.571-0.561c-0.241-0.452-0.498-0.9-0.773-1.345
			C161.471,15.314,161.178,14.887,160.868,14.477z M163.896,20.004c0.847-1.016,1.557-2.025,2.129-3.028
			c0.571-1.002,1.041-1.99,1.408-2.964c0.141-0.339,0.367-0.466,0.678-0.381l1.186,0.317c0.155,0.057,0.261,0.152,0.318,0.286
			c0.056,0.134,0.056,0.265,0,0.392l-0.445,0.847h8.746c0.085,0,0.162,0.036,0.233,0.106c0.07,0.071,0.106,0.148,0.106,0.233v0.296
			c0,0.085-0.036,0.159-0.106,0.222c-0.071,0.064-0.148,0.096-0.233,0.096h-9.338c-0.226,0.325-0.459,0.628-0.699,0.911
			c-0.241,0.283-0.48,0.565-0.72,0.847h0.212l0.72,0.043c0.155,0.028,0.29,0.081,0.403,0.159c0.112,0.078,0.183,0.194,0.212,0.349
			h5.866v-0.021c0-0.155,0.057-0.289,0.17-0.402s0.247-0.17,0.403-0.17l0.974,0.042c0.155,0,0.289,0.057,0.403,0.17
			c0.112,0.113,0.169,0.247,0.169,0.403c-0.028,0.833-0.057,1.634-0.085,2.404c-0.028,0.769-0.057,1.514-0.084,2.234h1.609
			c0.099,0,0.18,0.035,0.244,0.105c0.063,0.071,0.095,0.141,0.095,0.212v0.318c0,0.085-0.036,0.159-0.106,0.223
			s-0.141,0.095-0.212,0.095h-1.673c-0.028,0.692-0.06,1.348-0.095,1.969s-0.074,1.207-0.117,1.758h1.673
			c0.099,0,0.18,0.035,0.243,0.105c0.063,0.071,0.095,0.141,0.095,0.212v0.297c0,0.084-0.035,0.162-0.105,0.232
			c-0.071,0.071-0.141,0.106-0.212,0.106H176.2c-0.014,0.085-0.025,0.166-0.032,0.243c-0.008,0.078-0.011,0.152-0.011,0.223
			c-0.07,0.833-0.225,1.468-0.465,1.906c-0.241,0.437-0.692,0.741-1.356,0.911c-0.409,0.099-0.924,0.169-1.546,0.212
			c-0.198,0-0.339-0.025-0.424-0.074c-0.084-0.05-0.169-0.145-0.254-0.285c-0.071-0.128-0.163-0.304-0.276-0.529
			c-0.113-0.226-0.198-0.417-0.254-0.572c-0.071-0.17-0.074-0.286-0.011-0.349c0.064-0.063,0.159-0.103,0.286-0.116l1.037-0.127
			c0.367-0.07,0.639-0.173,0.815-0.307c0.176-0.134,0.278-0.406,0.307-0.815c0-0.057,0.003-0.11,0.01-0.159
			c0.007-0.049,0.01-0.102,0.01-0.159h-6.607l-0.021,0.275c-0.014,0.212-0.088,0.361-0.223,0.445
			c-0.134,0.084-0.3,0.113-0.497,0.084l-0.72-0.063c-0.183-0.028-0.338-0.099-0.466-0.212c-0.127-0.113-0.176-0.275-0.148-0.487
			l0.572-4.722h-1.271c-0.084,0-0.159-0.032-0.222-0.095c-0.063-0.063-0.095-0.138-0.095-0.223V23.71
			c0-0.07,0.032-0.141,0.095-0.212c0.063-0.07,0.138-0.105,0.222-0.105h1.398l0.571-4.681c-0.381,0.367-0.762,0.702-1.144,1.006
			c-0.381,0.303-0.748,0.568-1.101,0.794c-0.071,0.057-0.141,0.07-0.212,0.042c-0.071-0.028-0.131-0.074-0.18-0.138
			c-0.05-0.063-0.088-0.137-0.117-0.222C163.846,20.11,163.854,20.047,163.896,20.004z M174.124,28.073
			c0.043-0.594,0.085-1.193,0.128-1.801c0.042-0.607,0.077-1.249,0.105-1.927h-6.332l-0.466,3.727H174.124z M174.527,19.687h-5.908
			l-0.466,3.706h6.247L174.527,19.687z M169.762,25.065c-0.057-0.099-0.032-0.208,0.074-0.328c0.106-0.12,0.223-0.152,0.349-0.095
			c0.523,0.226,0.946,0.445,1.271,0.656c0.324,0.212,0.593,0.417,0.804,0.614c0.17,0.17,0.268,0.336,0.296,0.498
			c0.028,0.163,0.007,0.328-0.063,0.498c-0.071,0.17-0.152,0.311-0.243,0.423c-0.092,0.114-0.181,0.212-0.265,0.297
			c-0.17,0.155-0.367,0.24-0.594,0.254c-0.225,0.014-0.388-0.12-0.487-0.403c-0.085-0.24-0.166-0.455-0.243-0.645
			c-0.078-0.191-0.159-0.378-0.244-0.562c-0.085-0.183-0.18-0.37-0.285-0.561C170.027,25.521,169.902,25.306,169.762,25.065z
			 M169.995,20.47c-0.057-0.085-0.032-0.18,0.074-0.286c0.106-0.105,0.23-0.137,0.371-0.095c0.494,0.198,0.903,0.392,1.228,0.582
			c0.325,0.19,0.6,0.385,0.826,0.582c0.17,0.155,0.268,0.318,0.296,0.487c0.028,0.17,0.007,0.332-0.063,0.487
			c-0.071,0.17-0.148,0.311-0.233,0.423c-0.085,0.113-0.17,0.205-0.254,0.276c-0.17,0.155-0.367,0.24-0.593,0.254
			c-0.226,0.014-0.389-0.119-0.487-0.402c-0.169-0.452-0.335-0.837-0.497-1.155C170.499,21.307,170.277,20.922,169.995,20.47z"/>
		<path fill="#333333" d="M181.366,31.842c1.13-0.918,2.139-1.853,3.028-2.806c0.89-0.953,1.676-1.972,2.362-3.06
			c0.685-1.086,1.267-2.273,1.747-3.558c0.48-1.284,0.875-2.717,1.186-4.299h-3.282c-0.48,1.102-1.031,2.125-1.652,3.071
			c0.536,0.283,0.977,0.55,1.324,0.804c0.345,0.254,0.625,0.501,0.836,0.741c0.155,0.156,0.247,0.318,0.275,0.487
			c0.028,0.17,0.008,0.381-0.063,0.635c-0.07,0.198-0.145,0.371-0.222,0.519c-0.078,0.148-0.18,0.293-0.307,0.434
			c-0.155,0.155-0.335,0.24-0.54,0.254c-0.205,0.014-0.364-0.119-0.476-0.402c-0.128-0.296-0.241-0.565-0.339-0.805
			c-0.099-0.24-0.201-0.462-0.307-0.667c-0.106-0.205-0.216-0.406-0.328-0.604c-0.114-0.197-0.241-0.409-0.381-0.635
			c-0.339,0.48-0.699,0.931-1.08,1.355c-0.381,0.423-0.791,0.84-1.228,1.249c-0.042,0.043-0.103,0.053-0.18,0.032
			c-0.078-0.021-0.148-0.063-0.212-0.127c-0.063-0.063-0.113-0.138-0.148-0.223c-0.036-0.085-0.032-0.162,0.01-0.233
			c0.395-0.593,0.784-1.267,1.165-2.022c0.381-0.756,0.738-1.557,1.069-2.404s0.628-1.733,0.889-2.657
			c0.261-0.925,0.477-1.861,0.646-2.806c0.028-0.155,0.103-0.282,0.223-0.381c0.12-0.099,0.257-0.134,0.413-0.105l1.503,0.296
			c0.141,0.028,0.25,0.102,0.328,0.222c0.078,0.12,0.095,0.258,0.053,0.413c-0.141,0.452-0.283,0.89-0.423,1.313
			c-0.141,0.423-0.29,0.833-0.445,1.228h3.07l0.042-0.212c0.028-0.141,0.106-0.261,0.233-0.36c0.128-0.099,0.268-0.134,0.424-0.105
			l1.292,0.233c0.155,0.028,0.272,0.105,0.349,0.232c0.078,0.128,0.103,0.269,0.074,0.424c-0.381,1.948-0.84,3.671-1.377,5.167
			c-0.536,1.497-1.21,2.837-2.023,4.023c-0.811,1.186-1.796,2.266-2.954,3.241c-1.158,0.974-2.541,1.919-4.151,2.837
			c-0.071,0.028-0.145,0.017-0.223-0.032c-0.077-0.05-0.145-0.116-0.201-0.201c-0.057-0.085-0.088-0.176-0.095-0.275
			C181.264,31.976,181.296,31.898,181.366,31.842z M193.86,14.286c0-0.155,0.057-0.29,0.17-0.403c0.113-0.112,0.247-0.17,0.403-0.17
			h1.186c0.155,0,0.29,0.057,0.403,0.17c0.112,0.113,0.169,0.247,0.169,0.403v5.654c1.144,0.593,2.061,1.137,2.753,1.631
			c0.691,0.494,1.2,0.924,1.525,1.292c0.141,0.155,0.225,0.353,0.254,0.593c0.028,0.24,0.007,0.494-0.064,0.762
			c-0.07,0.212-0.145,0.395-0.222,0.55c-0.078,0.156-0.18,0.311-0.307,0.466c-0.155,0.184-0.353,0.283-0.593,0.296
			c-0.24,0.014-0.438-0.127-0.593-0.423c-0.367-0.664-0.784-1.33-1.249-2.001c-0.466-0.671-0.967-1.345-1.504-2.023v10.821
			c0,0.155-0.057,0.289-0.169,0.403c-0.113,0.112-0.247,0.169-0.403,0.169h-1.186c-0.156,0-0.29-0.057-0.403-0.169
			c-0.113-0.114-0.17-0.247-0.17-0.403V14.286z"/>
		<path fill="#333333" d="M203.686,31.884c0.594-0.593,1.102-1.147,1.525-1.662c0.424-0.516,0.773-1.017,1.048-1.503
			c0.275-0.487,0.49-0.977,0.646-1.472c0.155-0.494,0.272-1.024,0.349-1.588c0.077-0.565,0.127-1.182,0.148-1.853
			c0.021-0.671,0.032-1.422,0.032-2.256l-0.021-3.558c0-0.155,0.05-0.293,0.148-0.413c0.099-0.12,0.254-0.18,0.466-0.18h0.614
			c0.212,0,0.367,0.063,0.466,0.19c0.099,0.128,0.148,0.269,0.148,0.424v3.536c0,1.101-0.032,2.089-0.096,2.965
			c-0.063,0.875-0.194,1.673-0.392,2.393c0.776,0.423,1.486,0.847,2.129,1.27c0.642,0.424,1.125,0.798,1.45,1.122
			c0.225,0.226,0.338,0.449,0.338,0.667c0,0.219-0.042,0.448-0.127,0.688c-0.071,0.17-0.156,0.339-0.254,0.509
			s-0.205,0.31-0.317,0.423c-0.17,0.155-0.35,0.223-0.54,0.201c-0.19-0.021-0.363-0.188-0.518-0.498
			c-0.325-0.579-0.678-1.154-1.059-1.726c-0.381-0.571-0.833-1.196-1.355-1.874c-0.339,0.918-0.851,1.75-1.536,2.499
			c-0.685,0.748-1.634,1.51-2.848,2.287c-0.07,0.043-0.141,0.046-0.212,0.011c-0.07-0.036-0.134-0.088-0.19-0.159
			c-0.057-0.07-0.092-0.148-0.106-0.233C203.609,32.011,203.63,31.94,203.686,31.884z M217.155,30.868
			c-0.113-0.269-0.042-0.416,0.212-0.445c0.283-0.043,0.579-0.085,0.89-0.128c0.31-0.042,0.558-0.085,0.741-0.127
			c0.353-0.07,0.586-0.201,0.699-0.392c0.112-0.191,0.183-0.491,0.212-0.9c0.014-0.367,0.028-0.844,0.042-1.43
			c0.014-0.585,0.028-1.231,0.043-1.937c0.014-0.706,0.024-1.448,0.032-2.224c0.007-0.776,0.017-1.532,0.032-2.266
			c0.014-0.734,0.024-1.43,0.032-2.086c0.007-0.656,0.01-1.217,0.01-1.683h-4.574c-0.409,0.748-0.875,1.461-1.398,2.138
			s-1.087,1.264-1.694,1.758c-0.057,0.043-0.121,0.046-0.191,0.011s-0.134-0.088-0.19-0.159v4.913c0,0.17-0.057,0.311-0.17,0.424
			c-0.113,0.113-0.24,0.169-0.381,0.169h-0.784c-0.141,0-0.268-0.056-0.381-0.169c-0.113-0.113-0.169-0.254-0.169-0.424V15.875
			h-3.664v10.61c0,0.169-0.053,0.31-0.159,0.423c-0.106,0.113-0.236,0.17-0.392,0.17h-0.741c-0.141,0-0.268-0.057-0.381-0.17
			c-0.113-0.113-0.17-0.254-0.17-0.423V14.901c0-0.155,0.057-0.29,0.17-0.403s0.24-0.17,0.381-0.17h0.741
			c0.141,0,0.265,0.05,0.371,0.148c0.106,0.099,0.165,0.226,0.18,0.381h3.664c0-0.155,0.056-0.285,0.169-0.392
			s0.24-0.159,0.381-0.159h0.784c0.141,0,0.268,0.057,0.381,0.169c0.113,0.114,0.17,0.247,0.17,0.403v5.633
			c0.578-1.102,1.076-2.167,1.493-3.198c0.416-1.031,0.765-2.096,1.048-3.198c0.043-0.17,0.123-0.3,0.243-0.392
			c0.12-0.092,0.293-0.11,0.519-0.053l1.017,0.318c0.197,0.071,0.31,0.176,0.338,0.318c0.028,0.141,0.007,0.303-0.063,0.487
			c-0.099,0.241-0.201,0.491-0.307,0.752c-0.106,0.261-0.223,0.518-0.35,0.773h4.108v-0.254c-0.028-0.395,0.176-0.585,0.614-0.571
			l0.932,0.042c0.24,0.014,0.403,0.074,0.487,0.181c0.085,0.105,0.128,0.25,0.128,0.434c0,0.099-0.003,0.445-0.011,1.038
			c-0.007,0.593-0.017,1.324-0.032,2.191c-0.014,0.869-0.028,1.814-0.042,2.838c-0.014,1.024-0.032,2.019-0.053,2.986
			c-0.021,0.967-0.042,1.846-0.063,2.637c-0.021,0.791-0.046,1.384-0.074,1.778c-0.028,0.622-0.145,1.144-0.349,1.567
			c-0.205,0.424-0.554,0.734-1.048,0.932c-0.254,0.099-0.512,0.176-0.773,0.233c-0.262,0.057-0.632,0.106-1.112,0.148
			c-0.241,0.028-0.413,0.021-0.519-0.021c-0.105-0.042-0.215-0.148-0.328-0.317c-0.085-0.128-0.198-0.325-0.338-0.594
			C217.374,31.298,217.253,31.065,217.155,30.868z M212.411,26.632c-0.057-0.409,0.099-0.628,0.466-0.657h0.042
			c0.48-1.03,0.911-2.078,1.292-3.145c0.381-1.066,0.699-2.071,0.953-3.017c0.056-0.198,0.151-0.318,0.285-0.36
			c0.134-0.043,0.307-0.028,0.519,0.042l0.868,0.339c0.325,0.155,0.409,0.402,0.254,0.741c-0.155,0.395-0.349,0.829-0.582,1.302
			c-0.233,0.473-0.48,0.95-0.741,1.43c-0.261,0.48-0.54,0.946-0.836,1.397c-0.296,0.452-0.586,0.855-0.869,1.207l3.283-0.233
			c-0.113-0.325-0.247-0.678-0.403-1.059c-0.156-0.381-0.332-0.798-0.529-1.249c-0.028-0.057-0.028-0.116,0-0.18
			c0.028-0.063,0.067-0.116,0.116-0.159c0.05-0.042,0.109-0.07,0.18-0.085c0.07-0.014,0.127,0,0.17,0.043
			c0.678,0.593,1.235,1.157,1.673,1.694c0.437,0.537,0.733,0.982,0.889,1.335c0.155,0.338,0.141,0.713-0.042,1.122
			c-0.071,0.127-0.163,0.272-0.276,0.434c-0.113,0.162-0.24,0.3-0.381,0.413c-0.155,0.113-0.325,0.141-0.508,0.085
			c-0.183-0.057-0.311-0.226-0.381-0.509l-0.233-0.995c-0.268,0.113-0.571,0.232-0.911,0.36c-0.338,0.127-0.699,0.254-1.08,0.381
			c-0.381,0.127-0.769,0.254-1.164,0.381c-0.396,0.127-0.784,0.24-1.165,0.338c-0.198,0.057-0.346,0.061-0.445,0.011
			c-0.099-0.05-0.183-0.188-0.254-0.413L212.411,26.632z"/>
	</g>
	<g>
		<path fill="#333333" d="M76.874,50.599c-0.594,0.27-1.246,0.405-1.958,0.405c-1.074,0-1.931-0.326-2.571-0.979
			c-0.64-0.652-0.96-1.52-0.96-2.603c0-1.083,0.322-1.95,0.966-2.603c0.645-0.653,1.49-0.979,2.538-0.979
			c0.685,0,1.338,0.12,1.958,0.36l-0.268,0.845c-0.62-0.214-1.179-0.321-1.676-0.321c-0.751,0-1.346,0.243-1.785,0.727
			c-0.439,0.485-0.658,1.142-0.658,1.972c0,0.76,0.227,1.398,0.681,1.916c0.454,0.517,1.046,0.776,1.775,0.776
			c0.576,0,1.17-0.111,1.781-0.334L76.874,50.599z"/>
		<path fill="#333333" d="M82.303,43.841c0.938,0,1.685,0.327,2.24,0.982c0.554,0.655,0.831,1.517,0.831,2.587
			c0,1.078-0.277,1.947-0.831,2.606c-0.555,0.659-1.301,0.989-2.24,0.989c-0.943,0-1.691-0.328-2.243-0.985
			c-0.552-0.657-0.829-1.527-0.829-2.61c0-1.074,0.277-1.937,0.832-2.59C80.617,44.167,81.364,43.841,82.303,43.841z M82.303,50.114
			c0.62,0,1.108-0.262,1.467-0.786c0.358-0.524,0.537-1.159,0.537-1.905c0-0.786-0.177-1.432-0.531-1.938
			c-0.354-0.507-0.844-0.76-1.473-0.76c-0.634,0-1.124,0.25-1.474,0.75c-0.349,0.5-0.524,1.149-0.524,1.948
			c0,0.76,0.177,1.398,0.531,1.916C81.189,49.856,81.678,50.114,82.303,50.114z"/>
		<path fill="#333333" d="M90.351,43.841c0.939,0,1.685,0.327,2.24,0.982s0.832,1.517,0.832,2.587c0,1.078-0.278,1.947-0.832,2.606
			s-1.301,0.989-2.24,0.989c-0.943,0-1.69-0.328-2.243-0.985c-0.552-0.657-0.828-1.527-0.828-2.61c0-1.074,0.277-1.937,0.831-2.59
			C88.665,44.167,89.412,43.841,90.351,43.841z M90.351,50.114c0.62,0,1.109-0.262,1.467-0.786c0.358-0.524,0.537-1.159,0.537-1.905
			c0-0.786-0.176-1.432-0.53-1.938c-0.354-0.507-0.845-0.76-1.474-0.76c-0.633,0-1.124,0.25-1.473,0.75
			c-0.349,0.5-0.524,1.149-0.524,1.948c0,0.76,0.176,1.398,0.53,1.916C89.237,49.856,89.726,50.114,90.351,50.114z"/>
		<path fill="#333333" d="M96.808,44.889c0.227-0.314,0.534-0.568,0.92-0.76c0.387-0.192,0.793-0.288,1.222-0.288
			c0.786,0,1.402,0.324,1.85,0.972c0.447,0.649,0.671,1.492,0.671,2.531c0,1.048-0.234,1.92-0.704,2.616
			c-0.469,0.697-1.102,1.044-1.896,1.044c-0.424,0-0.82-0.105-1.188-0.317c-0.369-0.212-0.661-0.492-0.875-0.842v3.68h-1.022v-9.522
			h1.022V44.889z M96.808,45.904v2.836c0.192,0.384,0.452,0.705,0.78,0.962c0.327,0.258,0.665,0.386,1.015,0.386
			c0.55,0,0.988-0.257,1.313-0.772c0.325-0.516,0.488-1.155,0.488-1.919c0-0.786-0.155-1.428-0.465-1.925
			c-0.31-0.498-0.742-0.747-1.297-0.747C97.921,44.725,97.31,45.118,96.808,45.904z"/>
		<path fill="#333333" d="M106.448,43.841c0.939,0,1.685,0.327,2.24,0.982c0.554,0.655,0.832,1.517,0.832,2.587
			c0,1.078-0.278,1.947-0.832,2.606c-0.554,0.659-1.301,0.989-2.24,0.989c-0.943,0-1.69-0.328-2.243-0.985
			c-0.552-0.657-0.828-1.527-0.828-2.61c0-1.074,0.277-1.937,0.831-2.59C104.762,44.167,105.509,43.841,106.448,43.841z
			 M106.448,50.114c0.62,0,1.109-0.262,1.467-0.786c0.358-0.524,0.537-1.159,0.537-1.905c0-0.786-0.176-1.432-0.53-1.938
			c-0.354-0.507-0.845-0.76-1.474-0.76c-0.633,0-1.124,0.25-1.473,0.75c-0.349,0.5-0.524,1.149-0.524,1.948
			c0,0.76,0.176,1.398,0.53,1.916C105.334,49.856,105.823,50.114,106.448,50.114z"/>
		<path fill="#333333" d="M117.449,44.005l-2.586,6.824h-0.93l-2.574-6.824h1.113l1.932,5.429l1.932-5.429H117.449z"/>
		<path fill="#333333" d="M125.393,47.449h-4.683c0,0.773,0.224,1.41,0.671,1.912c0.447,0.502,0.996,0.753,1.647,0.753
			c0.62,0,1.259-0.111,1.919-0.334l0.176,0.819c-0.602,0.27-1.306,0.405-2.109,0.405c-1.013,0-1.83-0.325-2.449-0.975
			c-0.62-0.651-0.93-1.528-0.93-2.633c0-1.083,0.278-1.946,0.835-2.59c0.557-0.644,1.276-0.966,2.158-0.966
			c0.786,0,1.443,0.298,1.971,0.897s0.793,1.395,0.793,2.39V47.449z M124.28,46.618c0-0.533-0.166-0.982-0.498-1.346
			c-0.332-0.364-0.703-0.547-1.113-0.547c-0.529,0-0.966,0.174-1.313,0.524c-0.347,0.349-0.54,0.805-0.58,1.369H124.28z"/>
		<path fill="#333333" d="M133.343,44.188l-0.413,0.982c-0.449-0.196-0.838-0.295-1.166-0.295c-0.301,0-0.596,0.087-0.884,0.259
			c-0.288,0.172-0.554,0.419-0.795,0.74c-0.243,0.321-0.364,0.501-0.364,0.54v4.414h-1.015v-6.824h1.015v1.382
			c0.546-1.031,1.253-1.545,2.122-1.545C132.358,43.841,132.859,43.956,133.343,44.188z"/>
		<path fill="#333333" d="M140.573,44.98c-0.572-0.188-1.111-0.281-1.618-0.281c-0.554,0-0.993,0.093-1.316,0.278
			c-0.323,0.185-0.485,0.433-0.485,0.743c0,0.196,0.074,0.368,0.223,0.514c0.148,0.146,0.445,0.283,0.891,0.409l0.975,0.281
			c0.449,0.127,0.816,0.278,1.1,0.455c0.284,0.177,0.497,0.391,0.638,0.642c0.142,0.252,0.213,0.543,0.213,0.875
			c0,0.65-0.273,1.164-0.818,1.542c-0.546,0.378-1.24,0.566-2.082,0.566c-0.838,0-1.53-0.126-2.076-0.379l0.196-0.884
			c0.572,0.271,1.186,0.406,1.841,0.406c0.567,0,1.029-0.105,1.385-0.318c0.356-0.212,0.534-0.492,0.534-0.842
			c0-0.236-0.088-0.446-0.265-0.631c-0.176-0.185-0.592-0.379-1.247-0.58c-0.529-0.161-0.917-0.283-1.166-0.363
			c-0.249-0.081-0.48-0.2-0.694-0.357c-0.214-0.157-0.377-0.345-0.488-0.563c-0.112-0.219-0.167-0.463-0.167-0.733
			c0-0.589,0.257-1.057,0.773-1.401c0.515-0.345,1.198-0.517,2.049-0.517c0.55,0,1.162,0.094,1.834,0.281L140.573,44.98z"/>
		<path fill="#333333" d="M149.539,47.449h-4.683c0,0.773,0.223,1.41,0.671,1.912c0.447,0.502,0.996,0.753,1.647,0.753
			c0.62,0,1.259-0.111,1.919-0.334l0.176,0.819c-0.602,0.27-1.306,0.405-2.109,0.405c-1.013,0-1.829-0.325-2.449-0.975
			c-0.62-0.651-0.93-1.528-0.93-2.633c0-1.083,0.278-1.946,0.835-2.59c0.557-0.644,1.276-0.966,2.158-0.966
			c0.786,0,1.443,0.298,1.972,0.897s0.793,1.395,0.793,2.39V47.449z M148.425,46.618c0-0.533-0.165-0.982-0.498-1.346
			c-0.332-0.364-0.702-0.547-1.113-0.547c-0.529,0-0.966,0.174-1.313,0.524c-0.347,0.349-0.54,0.805-0.58,1.369H148.425z"/>
		<path fill="#333333" d="M157.554,50.828h-1.015c-0.083-0.275-0.125-0.642-0.125-1.1c-0.58,0.851-1.371,1.277-2.371,1.277
			c-0.507,0-0.953-0.18-1.339-0.54c-0.386-0.361-0.58-0.824-0.58-1.392c0-0.336,0.068-0.633,0.203-0.891
			c0.135-0.258,0.334-0.475,0.596-0.651c0.262-0.177,0.58-0.316,0.955-0.419c0.376-0.103,0.821-0.174,1.336-0.213l1.146-0.092V46.48
			c0-1.17-0.546-1.755-1.637-1.755c-0.258,0-0.584,0.056-0.979,0.167c-0.396,0.112-0.735,0.243-1.019,0.396l-0.268-0.733
			c0.93-0.476,1.794-0.713,2.593-0.713c1.554,0,2.331,0.822,2.331,2.469v2.934C157.384,49.837,157.441,50.366,157.554,50.828z
			 M156.363,48.804v-1.237c-0.921,0.083-1.553,0.161-1.896,0.232c-0.343,0.072-0.64,0.207-0.891,0.403
			c-0.252,0.197-0.377,0.463-0.377,0.8c0,0.305,0.108,0.552,0.321,0.74s0.487,0.282,0.819,0.282c0.362,0,0.722-0.108,1.08-0.325
			C155.777,49.483,156.092,49.185,156.363,48.804z"/>
		<path fill="#333333" d="M164.719,44.98c-0.572-0.188-1.111-0.281-1.618-0.281c-0.554,0-0.993,0.093-1.316,0.278
			c-0.323,0.185-0.485,0.433-0.485,0.743c0,0.196,0.074,0.368,0.223,0.514c0.148,0.146,0.445,0.283,0.891,0.409l0.975,0.281
			c0.449,0.127,0.816,0.278,1.1,0.455c0.284,0.177,0.496,0.391,0.638,0.642c0.142,0.252,0.213,0.543,0.213,0.875
			c0,0.65-0.273,1.164-0.819,1.542c-0.545,0.378-1.239,0.566-2.082,0.566c-0.838,0-1.53-0.126-2.076-0.379l0.196-0.884
			c0.572,0.271,1.185,0.406,1.84,0.406c0.568,0,1.029-0.105,1.386-0.318c0.356-0.212,0.534-0.492,0.534-0.842
			c0-0.236-0.088-0.446-0.265-0.631c-0.176-0.185-0.592-0.379-1.247-0.58c-0.529-0.161-0.917-0.283-1.166-0.363
			c-0.248-0.081-0.48-0.2-0.693-0.357c-0.214-0.157-0.377-0.345-0.488-0.563c-0.112-0.219-0.167-0.463-0.167-0.733
			c0-0.589,0.257-1.057,0.772-1.401c0.516-0.345,1.199-0.517,2.05-0.517c0.55,0,1.162,0.094,1.834,0.281L164.719,44.98z"/>
		<path fill="#333333" d="M169.243,44.889c0.227-0.314,0.534-0.568,0.92-0.76c0.387-0.192,0.793-0.288,1.221-0.288
			c0.795,0,1.413,0.318,1.856,0.955c0.443,0.638,0.665,1.476,0.665,2.515c0,1.053-0.236,1.932-0.707,2.636
			c-0.472,0.705-1.102,1.057-1.892,1.057c-0.423,0-0.82-0.105-1.188-0.317c-0.369-0.212-0.66-0.492-0.875-0.842v0.982h-1.022v-9.24
			h1.022V44.889z M169.243,45.904v2.836c0.192,0.384,0.452,0.705,0.78,0.962c0.327,0.258,0.666,0.386,1.015,0.386
			c0.55,0,0.987-0.262,1.312-0.786c0.325-0.524,0.488-1.168,0.488-1.932c0-0.786-0.155-1.423-0.465-1.912
			c-0.31-0.489-0.742-0.733-1.297-0.733C170.357,44.725,169.745,45.118,169.243,45.904z"/>
		<path fill="#333333" d="M181.516,50.828h-1.022V49.82c-0.733,0.782-1.506,1.173-2.318,1.173c-1.279,0-1.918-0.776-1.918-2.325
			v-4.663h1.022v4.368c0,0.58,0.091,1.014,0.274,1.299c0.183,0.286,0.494,0.429,0.931,0.429c0.624,0,1.294-0.389,2.01-1.166v-4.931
			h1.022V50.828z"/>
		<path fill="#333333" d="M189.886,44.005l-2.587,6.824c-0.376,1.004-0.748,1.705-1.117,2.102c-0.369,0.397-0.789,0.596-1.261,0.596
			c-0.419,0-0.833-0.077-1.244-0.229l0.17-0.819c0.332,0.105,0.629,0.157,0.891,0.157c0.367,0,0.669-0.142,0.904-0.426
			c0.236-0.283,0.474-0.749,0.713-1.395l-2.561-6.811h1.114l1.932,5.442l1.932-5.442H189.886z"/>
		<path fill="#333333" d="M194.941,49.328c0.232,0,0.426,0.079,0.583,0.236s0.236,0.352,0.236,0.583c0,0.236-0.08,0.438-0.239,0.606
			c-0.16,0.168-0.353,0.252-0.58,0.252c-0.223,0-0.412-0.084-0.569-0.252c-0.157-0.168-0.236-0.37-0.236-0.606
			c0-0.236,0.077-0.431,0.232-0.586C194.522,49.406,194.714,49.328,194.941,49.328z"/>
		<path fill="#333333" d="M205.647,50.599c-0.594,0.27-1.246,0.405-1.958,0.405c-1.074,0-1.931-0.326-2.57-0.979
			c-0.64-0.652-0.96-1.52-0.96-2.603c0-1.083,0.322-1.95,0.966-2.603c0.644-0.653,1.49-0.979,2.537-0.979
			c0.686,0,1.339,0.12,1.958,0.36l-0.268,0.845c-0.62-0.214-1.179-0.321-1.676-0.321c-0.751,0-1.346,0.243-1.785,0.727
			c-0.439,0.485-0.658,1.142-0.658,1.972c0,0.76,0.227,1.398,0.681,1.916c0.454,0.517,1.046,0.776,1.774,0.776
			c0.576,0,1.171-0.111,1.781-0.334L205.647,50.599z"/>
		<path fill="#333333" d="M211.077,43.841c0.939,0,1.685,0.327,2.24,0.982s0.831,1.517,0.831,2.587c0,1.078-0.277,1.947-0.831,2.606
			s-1.301,0.989-2.24,0.989c-0.943,0-1.691-0.328-2.243-0.985c-0.552-0.657-0.828-1.527-0.828-2.61c0-1.074,0.277-1.937,0.831-2.59
			C209.391,44.167,210.138,43.841,211.077,43.841z M211.077,50.114c0.62,0,1.109-0.262,1.467-0.786
			c0.358-0.524,0.537-1.159,0.537-1.905c0-0.786-0.176-1.432-0.531-1.938c-0.353-0.507-0.844-0.76-1.473-0.76
			c-0.633,0-1.124,0.25-1.473,0.75c-0.349,0.5-0.524,1.149-0.524,1.948c0,0.76,0.176,1.398,0.53,1.916
			C209.963,49.856,210.452,50.114,211.077,50.114z"/>
		<path fill="#333333" d="M222.308,50.828h-1.022v-4.479c0-1.083-0.201-1.624-0.602-1.624c-0.205,0-0.432,0.187-0.678,0.56
			c-0.247,0.374-0.37,0.58-0.37,0.619v4.925h-1.015v-4.479c0-1.083-0.203-1.624-0.609-1.624c-0.201,0-0.425,0.187-0.671,0.56
			c-0.247,0.374-0.369,0.58-0.369,0.619v4.925h-1.022v-6.824h0.982v1.028c0.192-0.362,0.421-0.651,0.685-0.867
			c0.264-0.216,0.527-0.324,0.789-0.324c0.275,0,0.522,0.108,0.74,0.324c0.218,0.216,0.369,0.505,0.452,0.867
			c0.192-0.362,0.421-0.651,0.687-0.867c0.267-0.216,0.529-0.324,0.786-0.324c0.826,0,1.238,0.738,1.238,2.213V50.828z"/>
	</g>
</g>
</svg>
