<?xml version="1.0" encoding="UTF-8" standalone="no"?>
<svg width="477px" height="100px" viewBox="0 0 477 100" version="1.1" xmlns="http://www.w3.org/2000/svg" xmlns:xlink="http://www.w3.org/1999/xlink" xmlns:sketch="http://www.bohemiancoding.com/sketch/ns">
    <!-- Generator: Sketch 3.4.4 (17249) - http://www.bohemiancoding.com/sketch -->
    <title>Page 1</title>
    <desc>Created with Sketch.</desc>
    <defs>
        <path id="path-1" d="M0,2.556 L476.424,2.556 L476.424,102 L0,102 L0,2.556 Z"></path>
        <path id="path-3" d="M0,2.556 L476.424,2.556 L476.424,102 L0,102 L0,2.556 Z"></path>
    </defs>
    <g id="Page-1" stroke="none" stroke-width="1" fill="none" fill-rule="evenodd" sketch:type="MSPage">
        <g sketch:type="MSLayerGroup" transform="translate(0.000000, -2.000000)">
            <path d="M181.956,29.268 L167.496,29.268 L167.496,41.232 L181.956,41.232 L181.956,29.268 Z M149.172,41.238 L163.446,41.238 L163.446,29.274 L149.172,29.274 L149.172,41.238 Z M145.302,25.782 L163.44,25.782 L163.44,15.516 L167.496,15.516 L167.496,25.782 L185.826,25.782 L185.826,47.268 L181.956,47.268 L181.956,44.724 L167.496,44.724 L167.496,62.256 L163.44,62.256 L163.44,44.724 L149.172,44.724 L149.172,47.268 L145.302,47.268 L145.302,25.782 Z" id="Fill-1" fill="#444344" sketch:type="MSShapeGroup"></path>
            <g id="Group-80">
                <path d="M217.8588,41.8038 L220.4988,39.8238 C222.2328,41.6178 223.7088,43.2978 224.9328,44.8698 L222.1488,46.9818 C220.6428,44.9418 219.2148,43.2138 217.8588,41.8038 L217.8588,41.8038 Z M198.9228,48.1158 L211.9248,48.1158 L211.9248,38.7858 L200.5728,38.7858 L200.5728,35.5878 L211.9248,35.5878 L211.9248,29.2698 L199.6788,29.2698 L199.6788,26.0658 L227.7528,26.0658 L227.7528,29.2698 L215.4108,29.2698 L215.4108,35.5878 L226.8108,35.5878 L226.8108,38.7858 L215.4108,38.7858 L215.4108,48.1158 L228.5088,48.1158 L228.5088,51.3198 L198.9228,51.3198 L198.9228,48.1158 Z M230.7288,21.4038 L196.7568,21.4038 L196.7568,56.3178 L230.7288,56.3178 L230.7288,21.4038 Z M193.1268,18.0558 L234.3528,18.0558 L234.3528,62.0118 L230.7288,62.0118 L230.7288,59.6598 L196.7508,59.6598 L196.7508,62.0598 L193.1268,62.0598 L193.1268,18.0558 Z" id="Fill-2" fill="#444344" sketch:type="MSShapeGroup"></path>
                <path d="M270.7752,49.9542 L273.5532,47.5962 C278.5152,52.1862 282.3972,56.0202 285.1872,59.0922 L282.0792,61.9662 C278.8812,58.1682 275.1072,54.1602 270.7752,49.9542 L270.7752,49.9542 Z M262.8612,42.8382 L273.0312,42.8382 L273.0312,29.8362 L262.8612,29.8362 L262.8612,42.8382 Z M273.0312,16.0782 L276.9012,16.0782 L276.9012,26.4462 L283.6392,26.4462 L283.6392,29.8362 L276.9012,29.8362 L276.9012,42.8382 L285.2832,42.8382 L285.2832,46.2342 L251.0292,46.2342 L251.0292,42.8382 L258.9912,42.8382 L258.9912,29.8362 L252.9132,29.8362 L252.9132,26.4462 L258.9912,26.4462 L258.9912,16.1262 L262.8612,16.1262 L262.8612,26.4462 L273.0312,26.4462 L273.0312,16.0782 Z M265.1652,50.0502 C261.4572,54.5742 257.5992,58.6062 253.5792,62.1582 C252.7272,61.1802 251.7672,60.2742 250.6992,59.4222 C254.6892,56.4102 258.4272,52.5342 261.9132,47.7882 L265.1652,50.0502 Z M238.0272,38.3202 C242.9592,31.6902 246.8412,24.1362 249.6612,15.6522 L253.4352,17.0202 C251.8152,21.2142 250.1412,25.0662 248.3952,28.5642 L248.3952,62.0622 L244.6272,62.0622 L244.6272,35.4162 C243.0072,38.0622 241.3452,40.4382 239.6352,42.5622 C239.1852,41.2722 238.6512,39.8562 238.0272,38.3202 L238.0272,38.3202 Z" id="Fill-4" fill="#444344" sketch:type="MSShapeGroup"></path>
                <path d="M322.449,25.269 C324.681,22.851 326.847,20.175 328.953,17.259 L332.067,19.617 C330.147,21.933 327.795,24.561 324.999,27.483 L322.449,25.269 Z M308.553,47.643 L327.357,47.643 L327.357,41.799 L308.553,41.799 L308.553,47.643 Z M327.351,32.619 L308.547,32.619 L308.547,38.415 L327.351,38.415 L327.351,32.619 Z M308.553,62.061 L305.109,62.061 L305.109,29.085 L315.903,29.085 L315.903,15.699 L319.533,15.699 L319.533,29.085 L330.795,29.085 L330.795,56.409 C330.795,60.051 329.079,61.875 325.653,61.875 C323.895,61.875 321.399,61.827 318.165,61.731 C317.979,60.573 317.757,59.283 317.505,57.873 C320.457,58.059 322.701,58.149 324.243,58.149 C326.319,58.149 327.351,57.273 327.351,55.515 L327.351,51.039 L308.553,51.039 L308.553,62.061 Z M303.561,19.095 L306.147,17.121 C308.409,19.347 310.641,21.861 312.837,24.651 L309.873,27.057 C307.707,24.009 305.601,21.357 303.561,19.095 L303.561,19.095 Z M303.231,51.645 C303.231,53.031 303.309,54.339 303.465,55.563 C301.455,56.535 299.115,57.825 296.445,59.421 C295.875,59.739 295.221,60.273 294.465,61.029 L291.969,57.777 C292.977,56.865 293.475,55.683 293.475,54.243 L293.475,43.971 L287.163,43.971 L287.163,40.719 L293.475,40.719 L293.475,34.365 L290.415,34.365 L290.415,31.113 L302.427,31.113 L302.427,34.365 L296.913,34.365 L296.913,40.719 L303.513,40.719 L303.513,43.971 L296.913,43.971 L296.913,55.185 C299.211,53.955 301.317,52.779 303.231,51.645 L303.231,51.645 Z M286.743,30.213 C289.791,25.851 292.221,20.997 294.045,15.651 L297.573,16.833 C296.727,18.939 295.821,20.961 294.843,22.911 L303.561,22.911 L303.561,26.157 L293.193,26.157 C291.813,28.707 290.325,31.125 288.717,33.417 C288.117,32.289 287.463,31.215 286.743,30.213 L286.743,30.213 Z" id="Fill-6" fill="#444344" sketch:type="MSShapeGroup"></path>
                <path d="M359.7204,33.3258 L361.8444,31.2018 C363.8484,32.7378 365.8344,34.3458 367.7784,36.0078 L365.3724,38.4558 C363.4584,36.5718 361.5744,34.8618 359.7204,33.3258 L359.7204,33.3258 Z M359.1024,45.3858 L361.2744,43.2618 C363.3744,44.8698 365.3424,46.4838 367.1604,48.1158 L364.7124,50.5698 C362.8584,48.7758 360.9924,47.0478 359.1024,45.3858 L359.1024,45.3858 Z M373.7124,30.6378 L355.0584,30.6378 L353.9004,39.2118 L373.5024,39.2118 C373.5804,36.5418 373.6464,33.6858 373.7124,30.6378 L373.7124,30.6378 Z M373.4064,42.5118 L353.4804,42.5118 L352.3284,51.1818 L373.0824,51.1818 C373.2024,48.6078 373.3164,45.7098 373.4064,42.5118 L373.4064,42.5118 Z M345.4464,39.2118 L350.2764,39.2118 L351.9444,27.4398 L377.3424,27.4398 C377.2464,31.8018 377.1504,35.7258 377.0604,39.2118 L382.0044,39.2118 L382.0044,42.5118 L376.9404,42.5118 C376.8444,45.9018 376.7544,48.7938 376.6584,51.1818 L380.4984,51.1818 L380.4984,54.3858 L376.4424,54.3858 C376.1784,56.6958 375.5544,58.4238 374.5644,59.5638 C373.4304,60.8538 371.4204,61.4958 368.5344,61.4958 C366.8964,61.4958 364.7964,61.4358 362.2164,61.3098 C362.0604,60.2418 361.8444,58.9638 361.5624,57.4938 C364.6044,57.7758 366.9444,57.9198 368.5824,57.9198 C370.9464,57.9198 372.3624,56.7378 372.8184,54.3858 L348.5964,54.3858 L348.5964,50.8998 L349.8024,42.5118 L345.4464,42.5118 L345.4464,39.2118 Z M345.0684,28.9458 C348.9624,25.2678 352.1004,20.7558 354.4884,15.4218 L358.4964,15.4218 C357.7404,17.0538 356.9484,18.6078 356.1144,20.0838 L381.0144,20.0838 L381.0144,23.3838 L354.1344,23.3838 C352.1064,26.5398 349.8864,29.3178 347.4684,31.7178 C346.7484,30.7758 345.9444,29.8518 345.0684,28.9458 L345.0684,28.9458 Z M336.7764,18.6738 L339.1764,16.1778 C341.0664,17.6178 343.6824,19.8018 347.0484,22.7178 C345.9804,23.7558 345.0564,24.6918 344.2704,25.5018 C340.8744,22.2678 338.3784,19.9878 336.7764,18.6738 L336.7764,18.6738 Z M336.3984,60.6498 C338.2524,55.1538 339.8484,49.1418 341.2044,42.6078 C342.5904,43.2018 343.8564,43.6938 345.0204,44.0658 C343.4184,50.2218 341.9244,56.1738 340.5444,61.9218 L336.3984,60.6498 Z M334.9884,31.2018 L337.3464,28.5138 C340.2324,30.5298 342.9144,32.5518 345.3984,34.5978 C344.2704,35.8878 343.3524,36.8898 342.6624,37.6098 C339.8664,35.1018 337.3104,32.9598 334.9884,31.2018 L334.9884,31.2018 Z" id="Fill-8" fill="#444344" sketch:type="MSShapeGroup"></path>
                <path d="M412.6308,16.0344 L416.5848,16.0344 L416.5848,32.2404 L418.4748,30.1224 C422.9688,33.6084 426.9708,36.7944 430.4868,39.6804 L427.7988,43.1664 C424.4748,40.0944 420.7368,36.8124 416.5848,33.3264 L416.5848,62.2044 L412.6308,62.2044 L412.6308,16.0344 Z M382.8528,40.0104 C387.5328,32.8884 391.0488,24.7644 393.4068,15.6564 L397.2708,16.7364 C396.5148,19.2804 395.7348,21.7344 394.9188,24.0924 L408.0108,24.0924 L408.0108,27.5784 C406.3488,43.1844 399.2928,54.6384 386.8608,61.9164 C386.2008,60.8844 385.3848,59.7684 384.4128,58.5744 C390.5028,54.9624 395.1828,50.4384 398.4528,45.0084 C396.2508,43.1544 393.7848,41.2704 391.0488,39.3564 L393.4548,36.4764 C396.1248,38.4264 398.4048,40.1424 400.2828,41.6184 C402.2388,37.5624 403.4928,32.9124 404.0568,27.6684 L393.5508,27.6684 C391.3488,33.2304 388.5048,38.6784 385.0188,44.0184 C384.3948,42.7284 383.6748,41.3964 382.8528,40.0104 L382.8528,40.0104 Z" id="Fill-10" fill="#444344" sketch:type="MSShapeGroup"></path>
                <path d="M462.57,37.7964 L465.822,36.8604 C467.268,41.3844 468.666,46.1244 470.016,51.0864 L466.482,52.1244 C466.23,51.1764 465.996,50.2224 465.774,49.2444 C462.444,49.4664 459.462,49.7364 456.828,50.0484 C455.448,50.2044 454.044,50.4564 452.634,50.8044 L451.176,47.7384 C452.268,47.0484 453.09,46.1064 453.624,44.9184 C455.352,40.7364 456.978,35.7084 458.52,29.8404 L462.102,30.6804 C460.212,36.4944 458.346,41.8524 456.492,46.7484 C459.168,46.5924 461.988,46.4064 464.976,46.1844 C464.22,43.4184 463.422,40.6284 462.57,37.7964 L462.57,37.7964 Z M434.118,18.3924 L450.042,18.3924 L450.042,31.9104 C453.186,27.1044 455.52,21.6864 457.062,15.6564 L460.782,16.5024 C460.026,18.7644 459.24,20.9184 458.43,22.9584 L476.424,22.9584 C476.232,38.2224 476.046,48.3864 475.86,53.4384 C475.578,58.5264 472.968,61.0764 468.036,61.0764 C465.336,61.0764 462.462,61.0104 459.42,60.8844 C459.228,59.6304 458.976,58.3404 458.664,57.0204 C461.706,57.3684 464.502,57.5544 467.046,57.5904 C470.346,57.5544 472.092,55.9224 472.278,52.6824 C472.494,47.3484 472.656,38.5884 472.746,26.4024 L457.014,26.4024 C455.85,29.1324 454.644,31.6284 453.39,33.8904 C452.472,33.2904 451.362,32.7084 450.042,32.1504 L450.042,47.6004 L446.652,47.6004 L446.652,21.8304 L437.508,21.8304 L437.508,47.8824 L434.118,47.8824 L434.118,18.3924 Z M440.382,25.9224 L443.772,25.9224 L443.772,35.3964 C443.772,41.4864 443.352,46.2144 442.5,49.5804 L443.868,48.3084 C447.072,51.6384 449.886,54.6684 452.304,57.3984 L449.334,59.9004 C447.102,57.0384 444.654,54.1344 441.984,51.1764 C440.856,54.7584 438.138,58.4244 433.836,62.1624 C433.146,61.1784 432.312,60.2244 431.334,59.2824 C435.012,56.5524 437.448,53.6304 438.642,50.5164 C439.8,47.8224 440.382,43.2324 440.382,36.7644 L440.382,25.9224 Z" id="Fill-12" fill="#444344" sketch:type="MSShapeGroup"></path>
                <g id="Group-16">
                    <mask id="mask-2" sketch:name="Clip 15" fill="white">
                        <use xlink:href="#path-1"></use>
                    </mask>
                    <g id="Clip-15"></g>
                    <path d="M10.0716,90.0114 C9.1536,90.3174 7.4496,90.1014 7.4496,90.1014 L7.4496,82.6734 L10.8516,82.6734 L10.8516,88.6974 C10.8516,89.4054 10.9296,89.7294 10.0716,90.0114 L10.0716,90.0114 Z M5.4096,90.1254 L2.0076,90.1254 C2.0076,90.1254 2.0856,84.8214 2.0856,84.1134 C2.0856,83.3994 2.2476,83.2614 3.0576,82.8534 C3.8676,82.4514 5.4096,82.8534 5.4096,82.8534 L5.4096,90.1254 Z M12.9036,81.2934 L7.6176,81.2934 L7.6176,80.1594 L5.5716,80.1594 L5.5716,81.3174 L2.0076,81.3174 C2.0076,81.3174 0.3456,81.5154 -0.0024,82.8774 L-0.0024,91.8894 L5.4096,91.8894 L5.4096,92.8854 L7.5396,92.8854 L7.5396,91.8294 L11.0016,91.8294 C11.0016,91.8294 12.8436,91.2414 12.9036,89.9454 C12.9696,88.6494 12.9036,81.2934 12.9036,81.2934 L12.9036,81.2934 Z" id="Fill-14" fill="#444344" sketch:type="MSShapeGroup" mask="url(#mask-2)"></path>
                </g>
                <path d="M17.37,84.375 L20.052,84.375 C20.052,84.375 20.286,84.375 20.286,84.609 L20.286,86.037 L17.442,86.037 L17.442,87.549 L20.286,87.549 L20.286,88.953 L17.37,88.953 L17.37,90.669 L23.88,90.669 C23.88,90.669 24.81,90.525 24.978,90.231 C25.14,89.937 24.978,88.665 24.978,88.665 L23.064,88.665 C23.064,88.665 22.968,89.079 22.716,89.043 C22.458,89.007 22.278,89.043 22.278,89.043 L22.278,87.519 L25.05,87.519 L25.05,85.965 L22.332,85.965 L22.332,84.375 L25.122,84.375 L25.122,82.695 L17.37,82.695 L17.37,84.375 Z M14.922,80.301 L14.922,93.045 C14.922,93.045 23.46,93.069 25.194,93.045 C26.928,93.021 27.834,91.071 27.834,91.071 L27.834,80.301 L14.922,80.301 Z M24.93,91.071 L17.184,91.071 L17.184,82.395 L25.74,82.395 L25.74,90.261 C25.74,90.999 24.93,91.071 24.93,91.071 L24.93,91.071 Z" id="Fill-17" fill="#444344" sketch:type="MSShapeGroup"></path>
                <path d="M33.0522,80.3022 L33.0522,81.7362 C32.9322,81.8202 32.6982,82.4682 32.6982,82.4682 L32.6982,93.0522 L30.5202,93.0522 L30.5202,84.6822 L29.7522,84.6822 L29.7522,82.9122 C31.2822,81.7362 31.2822,80.3022 31.2822,80.3022 L33.0522,80.3022 Z" id="Fill-19" fill="#444344" sketch:type="MSShapeGroup"></path>
                <mask id="mask-4" sketch:name="Clip 22" fill="white">
                    <use xlink:href="#path-3"></use>
                </mask>
                <g id="Clip-22"></g>
                <path d="M39,86.676 L36.288,86.676 L36.288,83.502 L39,83.502 L39,86.676 Z M42.48,83.412 L42.48,81.708 L41.094,81.708 L41.094,80.304 L39,80.304 L39,81.708 L36.294,81.708 L36.294,80.304 L34.35,80.304 L34.35,81.648 L33.318,81.648 L33.318,83.412 L34.35,83.412 L34.35,86.676 L33.054,86.676 L33.054,88.392 L42.48,88.392 L42.48,86.676 L41.184,86.676 L41.184,83.412 L42.48,83.412 Z" id="Fill-21" fill="#444344" sketch:type="MSShapeGroup" mask="url(#mask-4)"></path>
                <path d="M34.4952,88.6266 C34.4952,88.6266 34.5492,90.3666 33.0492,91.0146 L33.0492,93.0546 C33.0492,93.0546 36.1692,92.3106 36.8172,88.6266 L34.4952,88.6266 Z" id="Fill-23" fill="#444344" sketch:type="MSShapeGroup" mask="url(#mask-4)"></path>
                <path d="M38.8332,88.6266 C39.4812,92.3106 42.6012,93.0546 42.6012,93.0546 L42.6012,91.0146 C41.1072,90.3666 41.1552,88.6266 41.1552,88.6266 L38.8332,88.6266 Z" id="Fill-24" fill="#444344" sketch:type="MSShapeGroup" mask="url(#mask-4)"></path>
                <path d="M47.2824,80.2692 C47.2824,80.9892 47.7384,81.2472 47.7384,81.2472 L49.4244,81.2472 L49.4244,82.7592 L46.7244,82.7592 L45.4944,83.8272 L44.2044,83.8272 L44.2044,82.0812 C45.3564,82.0032 45.3564,80.3052 45.3564,80.3052 L47.2824,80.2692 Z" id="Fill-25" fill="#444344" sketch:type="MSShapeGroup" mask="url(#mask-4)"></path>
                <path d="M44.2074,84.444 L44.2074,85.902 L45.6234,85.902 L45.6234,87.318 L44.2074,87.318 L44.2074,89.016 L45.6234,89.016 L45.6234,91.446 C45.6234,91.446 45.5574,92.838 46.8174,92.904 C48.0714,92.97 49.0674,92.904 49.0674,92.904 L49.0674,91.182 L47.9874,91.182 C47.9874,91.182 47.6994,91.404 47.6754,90.63 C47.6514,89.856 47.6754,89.04 47.6754,89.04 L49.4274,89.04 L49.4274,87.336 L47.6754,87.336 L47.6754,85.968 L49.4274,85.968 L49.4274,84.444 L44.2074,84.444 Z" id="Fill-26" fill="#444344" sketch:type="MSShapeGroup" mask="url(#mask-4)"></path>
                <path d="M55.2684,86.6148 L52.3824,86.6148 L51.9024,86.1108 L52.5024,85.4988 L55.2864,85.4988 L55.6944,86.1588 L55.2684,86.6148 Z M55.2684,89.0628 L52.3824,89.0628 L51.9024,88.5588 L52.5024,87.9408 L55.2864,87.9408 L55.6944,88.6068 L55.2684,89.0628 Z M55.7184,83.6508 C57.6624,82.6968 57.6624,80.7768 57.6624,80.7768 L55.9404,80.7768 C55.6944,81.5688 54.9684,82.4088 54.9684,82.4088 L54.9684,83.6508 L54.6804,83.6508 L54.6804,80.0268 L52.8684,80.0268 L52.8684,83.6508 L52.6224,83.6508 L52.6224,82.1928 C51.8304,81.7248 51.6984,80.6868 51.6984,80.6868 L50.1264,80.6868 C49.9464,80.9148 49.9944,81.1548 49.9944,81.1548 C50.2824,82.5408 51.3204,83.4708 51.6084,83.4948 C51.8964,83.5128 51.7404,83.7168 51.7404,83.7168 C51.4164,83.8548 51.0324,83.9988 50.7804,84.2028 C50.3424,84.5508 50.1264,84.9528 50.1264,84.9528 L50.1264,92.9328 L51.9384,92.9328 L51.9384,90.7848 L55.6044,90.7848 L55.6044,91.2048 L54.1704,91.2048 L54.1704,92.9328 L56.5104,92.9328 C57.0624,92.8068 57.4644,91.9788 57.4644,91.9788 C57.4644,91.9788 57.5484,85.8108 57.4644,84.9708 C57.3744,84.1368 55.7184,83.6508 55.7184,83.6508 L55.7184,83.6508 Z" id="Fill-27" fill="#444344" sketch:type="MSShapeGroup" mask="url(#mask-4)"></path>
                <path d="M60.9036,84.4626 L71.2236,84.4626 C68.9916,83.5746 67.6056,82.1466 67.6056,82.1466 L64.4016,82.1466 C62.8596,83.8266 60.9036,84.2826 60.9036,84.2826 L60.9036,84.4626 Z M62.7456,80.6226 L69.4056,80.6226 C69.4056,80.6226 70.0836,82.2126 72.4056,83.0526 L72.4056,84.5526 L71.4276,84.5526 L71.4276,86.2806 L60.4716,86.2806 L60.4716,84.5766 L59.8596,84.5766 L59.8596,82.8966 C59.8596,82.8966 61.9476,81.9366 62.7456,80.6226 L62.7456,80.6226 Z" id="Fill-28" fill="#444344" sketch:type="MSShapeGroup" mask="url(#mask-4)"></path>
                <path d="M69.3354,90.6204 C69.3354,91.2324 68.7654,91.3224 68.7654,91.3224 L62.4714,91.3224 L62.4714,88.6224 L69.3354,88.6224 L69.3354,90.6204 Z M71.4234,86.9604 L60.3114,86.9604 L60.3114,92.9364 L69.5394,92.9364 C69.5394,92.9364 71.3814,92.5284 71.4234,91.1004 C71.4714,89.6664 71.4234,86.9604 71.4234,86.9604 L71.4234,86.9604 Z" id="Fill-29" fill="#444344" sketch:type="MSShapeGroup" mask="url(#mask-4)"></path>
                <path d="M80.3976,80.16 C80.3976,80.16 79.9236,81.594 78.2976,83.022 L78.2976,85.014 L79.6596,84.372 L80.0916,84.372 L80.0916,92.934 L82.1976,92.934 L82.1976,90.174 L87.0336,90.174 L87.0336,88.692 L82.1976,88.692 L82.1976,86.55 L87.0336,86.55 L87.0336,84.936 L82.1256,84.936 L82.1256,83.286 L87.0336,83.286 L87.0336,81.66 L82.1436,81.66 C82.1436,81.66 82.0656,81.258 82.2156,80.88 C82.3716,80.502 82.5396,80.16 82.5396,80.16 L80.3976,80.16 Z M78.2976,80.316 C77.8656,81.846 76.9656,82.77 76.9656,82.77 L76.9656,92.934 L75.0576,92.934 L75.0576,84.24 C75.0576,84.24 74.7216,84.546 74.5056,84.678 C74.2896,84.816 73.9656,84.924 73.9656,84.924 L73.9656,82.986 C75.8736,81.558 76.1316,80.316 76.1316,80.316 L78.2976,80.316 Z" id="Fill-30" fill="#444344" sketch:type="MSShapeGroup" mask="url(#mask-4)"></path>
                <path d="M95.3154,92.9244 L102.0954,92.9244 L102.0954,91.2864 L99.9774,91.2864 L99.9774,84.4404 L102.0954,84.4404 L102.0954,82.9884 L99.9054,82.9884 L99.9054,80.6124 L97.8774,80.6124 L97.8774,82.9764 L95.4534,82.9764 L95.4534,84.4404 L97.8774,84.4404 L97.8774,91.2684 L95.3154,91.2684 L95.3154,92.9244 Z M88.7934,81.6324 L90.8574,81.6324 L90.8574,80.6124 L92.6214,80.6124 L92.6214,81.6444 L95.0094,81.6444 L95.0094,82.9404 C94.5114,83.9304 93.0354,85.2804 93.0354,85.2804 L93.0354,85.4904 L93.9054,85.6224 L94.9074,86.7264 L94.9074,88.9524 C94.1994,88.6284 92.7594,87.2424 92.7594,87.2424 L92.7594,93.3264 L90.8814,93.3264 L90.8814,87.4164 C90.4854,87.6924 88.7934,88.2924 88.7934,88.2924 L88.7934,86.5464 C90.7614,85.3404 92.2554,83.7264 92.2554,83.7264 L92.2554,83.2764 L88.7934,83.3124 L88.7934,81.6324 Z" id="Fill-31" fill="#444344" sketch:type="MSShapeGroup" mask="url(#mask-4)"></path>
                <path d="M26.8086,99.7278 L28.1346,99.7278 C28.1346,99.7278 27.7326,101.8098 24.9726,101.9958 C23.7306,102.0798 22.3626,100.7298 22.2126,99.7278 C22.0926,98.9418 22.1166,96.9978 23.4906,96.2898 C24.8646,95.5758 27.7986,95.8938 28.0566,98.1198 L26.7726,98.1198 C26.7726,98.1198 25.9626,96.9378 25.1526,97.0878 C24.3426,97.2438 23.5206,97.6458 23.5686,98.9658 C23.5986,99.8898 23.7246,100.3158 24.6306,100.6518 C25.1946,100.8618 25.8846,100.9758 26.8086,99.7278" id="Fill-32" fill="#444344" sketch:type="MSShapeGroup" mask="url(#mask-4)"></path>
                <path d="M56.532,99.7278 L57.858,99.7278 C57.858,99.7278 57.456,101.8098 54.696,101.9958 C53.454,102.0798 52.086,100.7298 51.936,99.7278 C51.816,98.9418 51.84,96.9978 53.214,96.2898 C54.588,95.5758 57.522,95.8938 57.78,98.1198 L56.496,98.1198 C56.496,98.1198 55.686,96.9378 54.876,97.0878 C54.066,97.2438 53.244,97.6458 53.292,98.9658 C53.322,99.8898 53.448,100.3158 54.354,100.6518 C54.918,100.8618 55.608,100.9758 56.532,99.7278" id="Fill-33" fill="#444344" sketch:type="MSShapeGroup" mask="url(#mask-4)"></path>
                <path d="M28.8108,96.0858 L28.8108,101.6958 L30.2268,101.6958 L30.2268,99.5958 L32.3028,99.5958 L32.3028,101.6958 L33.6948,101.6958 L33.6948,96.0858 L32.3208,96.0858 L32.3208,98.1858 L30.1788,98.1858 L30.1788,96.0858 L28.8108,96.0858 Z" id="Fill-34" fill="#444344" sketch:type="MSShapeGroup" mask="url(#mask-4)"></path>
                <path d="M36.174,101.694 L34.794,101.694 L34.794,96.018 L36.174,96.018 L36.174,101.694 Z" id="Fill-35" fill="#444344" sketch:type="MSShapeGroup" mask="url(#mask-4)"></path>
                <path d="M37.3596,96.0192 L37.3596,101.6952 L38.8836,101.6952 L38.8836,98.7132 L40.7376,101.6952 L42.4836,101.6952 L42.4836,96.0852 L41.0736,96.0852 L41.0736,99.2232 L40.7856,99.2232 L38.7276,96.0192 L37.3596,96.0192 Z" id="Fill-36" fill="#444344" sketch:type="MSShapeGroup" mask="url(#mask-4)"></path>
                <path d="M46.1232,98.0958 L45.4452,99.5958 L46.8792,99.5958 L46.1232,98.0958 Z M46.8792,96.0198 L49.3752,101.6958 L47.7192,101.6958 L47.2332,100.6578 L44.9592,100.6578 L44.5152,101.6958 L43.0572,101.6958 L45.4452,96.0198 L46.8792,96.0198 Z" id="Fill-37" fill="#444344" sketch:type="MSShapeGroup" mask="url(#mask-4)"></path>
                <path d="M61.5102,95.8854 C59.8662,95.8854 58.5402,97.2174 58.5402,98.8554 C58.5402,100.4994 59.8662,101.8314 61.5102,101.8314 C63.1542,101.8314 64.4862,100.4994 64.4862,98.8554 C64.4862,97.2174 63.1542,95.8854 61.5102,95.8854 M63.2682,98.8554 C63.2682,99.8274 62.4822,100.6194 61.5102,100.6194 C60.5382,100.6194 59.7522,99.8274 59.7522,98.8554 C59.7522,97.8894 60.5382,97.0974 61.5102,97.0974 C62.4822,97.0974 63.2682,97.8894 63.2682,98.8554" id="Fill-38" fill="#444344" sketch:type="MSShapeGroup" mask="url(#mask-4)"></path>
                <path d="M70.9932,95.8854 C69.3492,95.8854 68.0172,97.2174 68.0172,98.8554 C68.0172,100.4994 69.3492,101.8314 70.9932,101.8314 C72.6372,101.8314 73.9632,100.4994 73.9632,98.8554 C73.9632,97.2174 72.6372,95.8854 70.9932,95.8854 M72.7512,98.8554 C72.7512,99.8274 71.9652,100.6194 70.9932,100.6194 C70.0212,100.6194 69.2352,99.8274 69.2352,98.8554 C69.2352,97.8894 70.0212,97.0974 70.9932,97.0974 C71.9652,97.0974 72.7512,97.8894 72.7512,98.8554" id="Fill-39" fill="#444344" sketch:type="MSShapeGroup" mask="url(#mask-4)"></path>
                <path d="M67.542,99.528 L65.01,99.528 L65.01,98.202 L67.542,98.202 L67.542,99.528 Z" id="Fill-40" fill="#444344" sketch:type="MSShapeGroup" mask="url(#mask-4)"></path>
                <path d="M76.1928,97.0824 L76.1928,98.8584 L77.5008,98.8584 C77.5008,98.8584 78.2148,98.7204 78.2148,97.9704 C78.2148,97.2204 77.5008,97.0824 77.5008,97.0824 L76.1928,97.0824 Z M78.4728,96.1224 C78.4728,96.1224 79.7568,96.4344 79.7568,97.8804 C79.7568,99.5004 78.4728,99.5904 78.4728,99.5904 L76.1688,99.5904 L76.1688,101.7144 L74.7768,101.7144 L74.7768,96.1224 L78.4728,96.1224 Z" id="Fill-41" fill="#444344" sketch:type="MSShapeGroup" mask="url(#mask-4)"></path>
                <path d="M30.96,25.788 L44.562,25.788 L44.562,53.982 L30.96,53.982 L30.96,25.788 Z" id="Fill-42" fill="#FFF000" sketch:type="MSShapeGroup" mask="url(#mask-4)"></path>
                <path d="M57.834,25.788 L71.436,25.788 L71.436,53.982 L57.834,53.982 L57.834,25.788 Z" id="Fill-43" fill="#FFF000" sketch:type="MSShapeGroup" mask="url(#mask-4)"></path>
                <path d="M36.9,19.848 L65.484,19.848 L65.484,33.45 L36.9,33.45 L36.9,19.848 Z" id="Fill-44" fill="#FFF000" sketch:type="MSShapeGroup" mask="url(#mask-4)"></path>
                <path d="M36.9,46.326 L65.484,46.326 L65.484,59.928 L36.9,59.928 L36.9,46.326 Z" id="Fill-45" fill="#FFF000" sketch:type="MSShapeGroup" mask="url(#mask-4)"></path>
                <path d="M51.1956,39.765 C51.1296,39.765 51.0756,39.819 51.0756,39.885 C51.0756,39.957 51.1296,40.011 51.1956,40.011 C51.2616,40.011 51.3156,39.957 51.3156,39.885 C51.3156,39.819 51.2616,39.765 51.1956,39.765 M51.1956,52.617 C44.1756,52.617 38.4696,46.905 38.4696,39.885 C38.4696,32.871 44.1756,27.159 51.1956,27.159 C58.2156,27.159 63.9216,32.871 63.9216,39.885 C63.9216,46.905 58.2156,52.617 51.1956,52.617" id="Fill-46" fill="#FFF000" sketch:type="MSShapeGroup" mask="url(#mask-4)"></path>
                <path d="M50.97,77.133 C49.662,77.133 48.474,76.689 47.538,75.843 C46.758,75.141 39.534,67.641 36.468,64.449 L35.43,63.375 L35.4,61.881 C35.382,60.867 35.49,57.393 37.794,55.335 C39.036,54.225 40.716,53.667 42.786,53.667 C43.74,53.667 44.484,53.787 44.628,53.817 L45.762,54.015 L51.138,59.145 L55.824,54.471 L56.322,54.207 C56.664,54.021 57.918,53.427 59.628,53.427 C61.494,53.427 63.258,54.123 64.722,55.437 C67.722,58.137 67.44,62.037 65.904,64.521 L65.76,64.755 L65.586,64.959 C64.254,66.555 56.388,74.223 54.822,75.747 L54.432,76.125 L53.946,76.383 C53.52,76.611 52.38,77.133 50.97,77.133" id="Fill-47" fill="#FFF000" sketch:type="MSShapeGroup" mask="url(#mask-4)"></path>
                <path d="M59.628,26.265 C57.918,26.265 56.664,25.665 56.322,25.485 L55.824,25.215 L51.138,20.547 L45.762,25.671 L44.628,25.875 C44.49,25.899 43.74,26.025 42.786,26.025 C40.716,26.025 39.036,25.461 37.794,24.357 C35.49,22.293 35.382,18.825 35.4,17.811 L35.43,16.317 L36.468,15.237 C39.534,12.045 46.758,4.551 47.538,3.843 C48.474,3.003 49.662,2.559 50.97,2.559 C52.38,2.559 53.52,3.081 53.946,3.309 L54.432,3.561 L54.822,3.945 C56.388,5.469 64.254,13.131 65.586,14.733 L65.76,14.937 L65.904,15.165 C67.44,17.649 67.722,21.555 64.722,24.255 C63.258,25.569 61.494,26.265 59.628,26.265" id="Fill-48" fill="#FFF000" sketch:type="MSShapeGroup" mask="url(#mask-4)"></path>
                <path d="M73.1112,55.656 C71.8272,55.656 68.6352,55.422 66.7032,53.256 C64.5792,50.88 64.9992,47.43 65.1792,46.428 L65.3832,45.294 L70.5072,39.918 L65.8392,35.232 L65.5692,34.734 C64.6932,33.096 63.9732,29.484 66.7992,26.334 C68.1312,24.852 69.9432,24.036 71.8992,24.036 C73.9212,24.036 75.4632,24.888 75.8892,25.152 L76.1172,25.296 L76.3272,25.47 C77.9232,26.802 85.5912,34.668 87.1092,36.234 L87.4932,36.624 L87.7452,37.11 C88.6392,38.796 89.0352,41.49 87.2112,43.518 C86.5092,44.298 79.0092,51.516 75.8172,54.588 L74.7492,55.614 L73.2432,55.656 L73.1112,55.656 Z" id="Fill-49" fill="#FFF000" sketch:type="MSShapeGroup" mask="url(#mask-4)"></path>
                <path d="M29.1768,55.6548 L27.6948,55.6128 L26.6028,54.5868 C23.4108,51.5208 15.9108,44.2968 15.2088,43.5168 C13.3848,41.4888 13.7808,38.7948 14.6748,37.1088 L14.9268,36.6228 L15.3108,36.2328 C16.8288,34.6668 24.4968,26.8008 26.0988,25.4688 L26.3028,25.2948 L26.5308,25.1508 C26.9568,24.8928 28.4988,24.0348 30.5208,24.0348 C32.4768,24.0348 34.2888,24.8508 35.6208,26.3328 C38.4528,29.4828 37.7268,33.0948 36.8508,34.7328 L36.5808,35.2308 L31.9128,39.9168 L37.0368,45.2928 L37.2408,46.4268 C37.4208,47.4288 37.8408,50.8848 35.7168,53.2608 C33.7908,55.4208 30.5928,55.6548 29.3088,55.6548 L29.1768,55.6548 Z" id="Fill-50" fill="#FFF000" sketch:type="MSShapeGroup" mask="url(#mask-4)"></path>
                <path d="M39.69,50.922 L33.18,50.922 L33.18,28.434 L39.69,28.434 L39.69,50.922 Z" id="Fill-51" fill="#009944" sketch:type="MSShapeGroup" mask="url(#mask-4)"></path>
                <path d="M69.12,50.922 L62.61,50.922 L62.61,28.434 L69.12,28.434 L69.12,50.922 Z" id="Fill-52" fill="#009944" sketch:type="MSShapeGroup" mask="url(#mask-4)"></path>
                <path d="M62.61,28.428 L39.69,28.428 L39.69,21.918 L62.61,21.918 L62.61,28.428 Z" id="Fill-53" fill="#009944" sketch:type="MSShapeGroup" mask="url(#mask-4)"></path>
                <path d="M62.61,57.432 L39.69,57.432 L39.69,50.922 L62.61,50.922 L62.61,57.432 Z" id="Fill-54" fill="#009944" sketch:type="MSShapeGroup" mask="url(#mask-4)"></path>
                <path d="M51.1518,29.9286 C45.7698,29.9286 41.4078,34.2906 41.4078,39.6726 C41.4078,45.0606 45.7698,49.4226 51.1518,49.4226 C56.5338,49.4226 60.8958,45.0606 60.8958,39.6726 C60.8958,34.2906 56.5338,29.9286 51.1518,29.9286 M55.4778,39.6726 C55.4778,42.0666 53.5398,43.9986 51.1518,43.9986 C48.7638,43.9986 46.8258,42.0666 46.8258,39.6726 C46.8258,37.2846 48.7638,35.3466 51.1518,35.3466 C53.5398,35.3466 55.4778,37.2846 55.4778,39.6726" id="Fill-55" fill="#009944" sketch:type="MSShapeGroup" mask="url(#mask-4)"></path>
                <path d="M63.1596,59.817 C60.9756,57.855 58.7376,59.049 58.7376,59.049 L51.1536,66.615 L43.2216,59.049 C43.2216,59.049 40.5516,58.575 39.2676,59.721 C37.9896,60.861 38.0496,63.669 38.0496,63.669 C38.0496,63.669 49.1136,75.183 49.9476,75.933 C50.7876,76.683 52.2036,75.933 52.2036,75.933 C52.2036,75.933 62.3016,66.117 63.6876,64.449 C63.6876,64.449 65.3436,61.779 63.1596,59.817" id="Fill-56" fill="#009944" sketch:type="MSShapeGroup" mask="url(#mask-4)"></path>
                <path d="M63.1596,19.44 C60.9756,21.402 58.7376,20.208 58.7376,20.208 L51.1536,12.642 L43.2216,20.208 C43.2216,20.208 40.5516,20.682 39.2676,19.536 C37.9896,18.396 38.0496,15.588 38.0496,15.588 C38.0496,15.588 49.1136,4.074 49.9476,3.324 C50.7876,2.574 52.2036,3.324 52.2036,3.324 C52.2036,3.324 62.3016,13.14 63.6876,14.808 C63.6876,14.808 65.3436,17.478 63.1596,19.44" id="Fill-57" fill="#009944" sketch:type="MSShapeGroup" mask="url(#mask-4)"></path>
                <path d="M71.3568,27.6372 C69.3948,29.8152 70.5888,32.0532 70.5888,32.0532 L78.1548,39.6432 L70.5888,47.5752 C70.5888,47.5752 70.1148,50.2452 71.2608,51.5232 C72.4008,52.8072 75.2088,52.7472 75.2088,52.7472 C75.2088,52.7472 86.7228,41.6772 87.4728,40.8432 C88.2228,40.0092 87.4728,38.5932 87.4728,38.5932 C87.4728,38.5932 77.6568,28.4952 75.9888,27.1032 C75.9888,27.1032 73.3188,25.4532 71.3568,27.6372" id="Fill-58" fill="#009944" sketch:type="MSShapeGroup" mask="url(#mask-4)"></path>
                <path d="M30.9798,27.6372 C32.9418,29.8152 31.7478,32.0532 31.7478,32.0532 L24.1818,39.6432 L31.7478,47.5752 C31.7478,47.5752 32.2218,50.2452 31.0758,51.5232 C29.9358,52.8072 27.1278,52.7472 27.1278,52.7472 C27.1278,52.7472 15.6138,41.6772 14.8638,40.8432 C14.1138,40.0092 14.8638,38.5932 14.8638,38.5932 C14.8638,38.5932 24.6798,28.4952 26.3478,27.1032 C26.3478,27.1032 29.0178,25.4532 30.9798,27.6372" id="Fill-59" fill="#009944" sketch:type="MSShapeGroup" mask="url(#mask-4)"></path>
                <path d="M158.5092,81.144 L157.1352,82.002 C155.9472,80.424 154.3332,79.632 152.2752,79.632 C150.6372,79.632 149.2752,80.166 148.1892,81.222 C147.1092,82.272 146.5632,83.556 146.5632,85.062 C146.5632,86.046 146.8152,86.97 147.3132,87.834 C147.8112,88.704 148.4952,89.37 149.3652,89.85 C150.2352,90.33 151.2072,90.57 152.2872,90.57 C154.2672,90.57 155.8872,89.778 157.1352,88.206 L158.5092,89.106 C157.8672,90.078 157.0032,90.828 155.9172,91.362 C154.8312,91.902 153.5952,92.166 152.2092,92.166 C150.0792,92.166 148.3152,91.494 146.9052,90.138 C145.5072,88.782 144.8052,87.132 144.8052,85.194 C144.8052,83.892 145.1352,82.68 145.7892,81.558 C146.4432,80.442 147.3492,79.566 148.4952,78.942 C149.6352,78.312 150.9252,78.006 152.3472,78.006 C153.2352,78.006 154.0992,78.138 154.9272,78.408 C155.7552,78.684 156.4572,79.032 157.0392,79.476 C157.6152,79.914 158.1072,80.472 158.5092,81.144" id="Fill-60" fill="#939394" sketch:type="MSShapeGroup" mask="url(#mask-4)"></path>
                <path d="M170.7498,79.6968 C169.3098,79.6968 168.0738,80.2308 167.0358,81.2988 C165.9978,82.3548 165.4818,83.6448 165.4818,85.1568 C165.4818,86.1288 165.7158,87.0408 166.1898,87.8808 C166.6578,88.7268 167.2998,89.3748 168.1038,89.8308 C168.9018,90.2928 169.7898,90.5208 170.7498,90.5208 C171.7098,90.5208 172.5978,90.2928 173.3958,89.8308 C174.1998,89.3748 174.8418,88.7268 175.3098,87.8808 C175.7838,87.0408 176.0178,86.1288 176.0178,85.1568 C176.0178,83.6448 175.4958,82.3548 174.4578,81.2988 C173.4198,80.2308 172.1838,79.6968 170.7498,79.6968 M170.7558,78.0048 C172.8318,78.0048 174.5538,78.7548 175.9158,80.2548 C177.1518,81.6228 177.7758,83.2488 177.7758,85.1208 C177.7758,87.0048 177.1218,88.6488 175.8138,90.0588 C174.4998,91.4628 172.8138,92.1648 170.7558,92.1648 C168.6858,92.1648 166.9998,91.4628 165.6858,90.0588 C164.3778,88.6488 163.7238,87.0048 163.7238,85.1208 C163.7238,83.2548 164.3478,81.6348 165.5838,80.2668 C166.9458,78.7548 168.6678,78.0048 170.7558,78.0048" id="Fill-61" fill="#939394" sketch:type="MSShapeGroup" mask="url(#mask-4)"></path>
                <path d="M189.8922,79.6968 C188.4522,79.6968 187.2162,80.2308 186.1782,81.2988 C185.1402,82.3548 184.6242,83.6448 184.6242,85.1568 C184.6242,86.1288 184.8582,87.0408 185.3322,87.8808 C185.8002,88.7268 186.4422,89.3748 187.2462,89.8308 C188.0442,90.2928 188.9322,90.5208 189.8922,90.5208 C190.8522,90.5208 191.7402,90.2928 192.5382,89.8308 C193.3422,89.3748 193.9842,88.7268 194.4522,87.8808 C194.9262,87.0408 195.1602,86.1288 195.1602,85.1568 C195.1602,83.6448 194.6382,82.3548 193.6002,81.2988 C192.5622,80.2308 191.3262,79.6968 189.8922,79.6968 M189.8982,78.0048 C191.9742,78.0048 193.6962,78.7548 195.0582,80.2548 C196.2942,81.6228 196.9182,83.2488 196.9182,85.1208 C196.9182,87.0048 196.2642,88.6488 194.9562,90.0588 C193.6422,91.4628 191.9562,92.1648 189.8982,92.1648 C187.8282,92.1648 186.1422,91.4628 184.8282,90.0588 C183.5202,88.6488 182.8662,87.0048 182.8662,85.1208 C182.8662,83.2548 183.4902,81.6348 184.7262,80.2668 C186.0882,78.7548 187.8102,78.0048 189.8982,78.0048" id="Fill-62" fill="#939394" sketch:type="MSShapeGroup" mask="url(#mask-4)"></path>
                <path d="M209.6208,79.6734 C208.1268,79.6734 206.8608,80.1954 205.8348,81.2454 C204.8088,82.2954 204.2988,83.5914 204.2988,85.1514 C204.2988,86.1714 204.5268,87.0894 204.9888,87.9114 C205.4448,88.7274 206.0928,89.3694 206.9508,89.8494 C207.7968,90.3294 208.7028,90.5694 209.6508,90.5694 C210.5748,90.5694 211.4568,90.3234 212.2728,89.8434 C213.0888,89.3634 213.7428,88.6914 214.2348,87.8214 C214.7208,86.9574 214.9608,86.0454 214.9608,85.1034 C214.9608,84.1434 214.7208,83.2374 214.2408,82.3794 C213.7548,81.5274 213.1068,80.8554 212.2908,80.3814 C211.4808,79.9074 210.5868,79.6734 209.6208,79.6734 L209.6208,79.6734 Z M202.6908,78.3474 L204.4248,78.3474 L204.4248,80.8194 C205.1088,79.8834 205.8948,79.1754 206.7828,78.7074 C207.6768,78.2394 208.6728,78.0054 209.7648,78.0054 C211.6788,78.0054 213.3168,78.6894 214.6788,80.0634 C216.0348,81.4494 216.7188,83.1054 216.7188,85.0494 C216.7188,87.0294 216.0408,88.7094 214.6968,90.0894 C213.3468,91.4754 211.7208,92.1654 209.8128,92.1654 C208.7448,92.1654 207.7548,91.9434 206.8608,91.4994 C205.9608,91.0494 205.1508,90.3894 204.4248,89.5074 L204.4248,96.7494 L202.6908,96.7494 L202.6908,78.3474 Z" id="Fill-63" fill="#939394" sketch:type="MSShapeGroup" mask="url(#mask-4)"></path>
                <path d="M228.8688,79.6968 C227.4288,79.6968 226.1928,80.2308 225.1548,81.2988 C224.1168,82.3548 223.6008,83.6448 223.6008,85.1568 C223.6008,86.1288 223.8348,87.0408 224.3088,87.8808 C224.7768,88.7268 225.4188,89.3748 226.2228,89.8308 C227.0208,90.2928 227.9088,90.5208 228.8688,90.5208 C229.8288,90.5208 230.7168,90.2928 231.5148,89.8308 C232.3188,89.3748 232.9608,88.7268 233.4288,87.8808 C233.9028,87.0408 234.1368,86.1288 234.1368,85.1568 C234.1368,83.6448 233.6148,82.3548 232.5768,81.2988 C231.5388,80.2308 230.3028,79.6968 228.8688,79.6968 M228.8748,78.0048 C230.9508,78.0048 232.6728,78.7548 234.0348,80.2548 C235.2708,81.6228 235.8948,83.2488 235.8948,85.1208 C235.8948,87.0048 235.2408,88.6488 233.9328,90.0588 C232.6188,91.4628 230.9328,92.1648 228.8748,92.1648 C226.8048,92.1648 225.1188,91.4628 223.8048,90.0588 C222.4968,88.6488 221.8428,87.0048 221.8428,85.1208 C221.8428,83.2548 222.4668,81.6348 223.7028,80.2668 C225.0648,78.7548 226.7868,78.0048 228.8748,78.0048" id="Fill-64" fill="#939394" sketch:type="MSShapeGroup" mask="url(#mask-4)"></path>
                <path d="M240.3588,78.3492 L242.2068,78.3492 L246.7308,88.1712 L251.1948,78.3492 L253.0488,78.3492 L246.8868,91.8192 L246.5628,91.8192 L240.3588,78.3492 Z" id="Fill-65" fill="#939394" sketch:type="MSShapeGroup" mask="url(#mask-4)"></path>
                <path d="M269.568,83.7222 C269.34,82.7982 269.004,82.0602 268.56,81.5082 C268.122,80.9502 267.534,80.5062 266.808,80.1642 C266.076,79.8342 265.314,79.6602 264.51,79.6602 C263.19,79.6602 262.056,80.0862 261.102,80.9322 C260.412,81.5562 259.884,82.4862 259.53,83.7222 L269.568,83.7222 Z M269.568,87.3462 L271.032,88.1142 C270.552,89.0622 270,89.8182 269.37,90.3942 C268.74,90.9762 268.038,91.4142 267.252,91.7142 C266.466,92.0142 265.578,92.1642 264.588,92.1642 C262.392,92.1642 260.676,91.4442 259.434,90.0042 C258.192,88.5702 257.574,86.9382 257.574,85.1202 C257.574,83.4102 258.096,81.8862 259.146,80.5542 C260.472,78.8502 262.254,78.0042 264.486,78.0042 C266.784,78.0042 268.62,78.8682 269.988,80.6082 C270.966,81.8442 271.458,83.3742 271.476,85.2222 L259.356,85.2222 C259.392,86.7882 259.89,88.0722 260.856,89.0682 C261.822,90.0702 263.016,90.5742 264.444,90.5742 C265.128,90.5742 265.788,90.4482 266.442,90.2082 C267.09,89.9742 267.642,89.6562 268.098,89.2602 C268.548,88.8642 269.04,88.2282 269.568,87.3462 L269.568,87.3462 Z" id="Fill-66" fill="#939394" sketch:type="MSShapeGroup" mask="url(#mask-4)"></path>
                <path d="M276.5874,78.3492 L278.3574,78.3492 L278.3574,80.3172 C278.8854,79.5372 279.4434,78.9612 280.0254,78.5772 C280.6134,78.1932 281.2194,78.0012 281.8614,78.0012 C282.3414,78.0012 282.8514,78.1572 283.3974,78.4632 L282.4914,79.9212 C282.1314,79.7592 281.8254,79.6872 281.5734,79.6872 C280.9974,79.6872 280.4454,79.9212 279.9054,80.3952 C279.3654,80.8692 278.9634,81.6072 278.6814,82.6092 C278.4594,83.3772 278.3574,84.9312 278.3574,87.2592 L278.3574,91.8192 L276.5874,91.8192 L276.5874,78.3492 Z" id="Fill-67" fill="#939394" sketch:type="MSShapeGroup" mask="url(#mask-4)"></path>
                <path d="M294.183,79.8198 L293.061,80.9718 C292.137,80.0718 291.237,79.6218 290.343,79.6218 C289.785,79.6218 289.305,79.8078 288.903,80.1798 C288.501,80.5518 288.303,80.9838 288.303,81.4758 C288.303,81.9198 288.465,82.3338 288.801,82.7298 C289.125,83.1378 289.821,83.6118 290.877,84.1578 C292.173,84.8238 293.049,85.4658 293.511,86.0898 C293.967,86.7138 294.195,87.4218 294.195,88.2018 C294.195,89.3118 293.805,90.2478 293.031,91.0158 C292.251,91.7838 291.279,92.1678 290.109,92.1678 C289.335,92.1678 288.591,91.9938 287.889,91.6638 C287.181,91.3218 286.593,90.8538 286.131,90.2598 L287.223,89.0178 C288.105,90.0198 289.047,90.5178 290.043,90.5178 C290.733,90.5178 291.321,90.2958 291.813,89.8518 C292.305,89.4078 292.551,88.8798 292.551,88.2798 C292.551,87.7818 292.383,87.3438 292.059,86.9478 C291.741,86.5758 291.015,86.0958 289.875,85.5138 C288.663,84.8898 287.835,84.2718 287.397,83.6598 C286.959,83.0478 286.743,82.3518 286.743,81.5658 C286.743,80.5398 287.085,79.6938 287.787,79.0158 C288.489,78.3378 289.365,78.0018 290.433,78.0018 C291.675,78.0018 292.923,78.6078 294.183,79.8198" id="Fill-68" fill="#939394" sketch:type="MSShapeGroup" mask="url(#mask-4)"></path>
                <path d="M311.1288,83.7222 C310.9008,82.7982 310.5648,82.0602 310.1208,81.5082 C309.6828,80.9502 309.0948,80.5062 308.3688,80.1642 C307.6368,79.8342 306.8748,79.6602 306.0708,79.6602 C304.7508,79.6602 303.6168,80.0862 302.6628,80.9322 C301.9728,81.5562 301.4448,82.4862 301.0908,83.7222 L311.1288,83.7222 Z M311.1288,87.3462 L312.5928,88.1142 C312.1128,89.0622 311.5608,89.8182 310.9308,90.3942 C310.3008,90.9762 309.5988,91.4142 308.8128,91.7142 C308.0268,92.0142 307.1388,92.1642 306.1488,92.1642 C303.9528,92.1642 302.2368,91.4442 300.9948,90.0042 C299.7528,88.5702 299.1348,86.9382 299.1348,85.1202 C299.1348,83.4102 299.6568,81.8862 300.7068,80.5542 C302.0328,78.8502 303.8148,78.0042 306.0468,78.0042 C308.3448,78.0042 310.1808,78.8682 311.5488,80.6082 C312.5268,81.8442 313.0188,83.3742 313.0368,85.2222 L300.9168,85.2222 C300.9528,86.7882 301.4508,88.0722 302.4168,89.0682 C303.3828,90.0702 304.5768,90.5742 306.0048,90.5742 C306.6888,90.5742 307.3488,90.4482 308.0028,90.2082 C308.6508,89.9742 309.2028,89.6562 309.6588,89.2602 C310.1088,88.8642 310.6008,88.2282 311.1288,87.3462 L311.1288,87.3462 Z" id="Fill-69" fill="#939394" sketch:type="MSShapeGroup" mask="url(#mask-4)"></path>
                <path d="M325.3026,79.6734 C324.3366,79.6734 323.4426,79.9074 322.6326,80.3814 C321.8166,80.8554 321.1686,81.5274 320.6826,82.3794 C320.1966,83.2374 319.9566,84.1434 319.9566,85.1034 C319.9566,86.0454 320.2026,86.9574 320.6886,87.8214 C321.1806,88.6914 321.8286,89.3634 322.6506,89.8434 C323.4666,90.3234 324.3546,90.5694 325.2906,90.5694 C326.2386,90.5694 327.1386,90.3294 327.9846,89.8494 C328.8366,89.3694 329.4906,88.7274 329.9466,87.9114 C330.4086,87.0894 330.6366,86.1714 330.6366,85.1514 C330.6366,83.5914 330.1206,82.2954 329.0946,81.2454 C328.0686,80.1954 326.8026,79.6734 325.3026,79.6734 L325.3026,79.6734 Z M332.2326,78.3474 L332.2326,91.8174 L330.5226,91.8174 L330.5226,89.5074 C329.7966,90.3894 328.9806,91.0494 328.0806,91.4994 C327.1746,91.9434 326.1786,92.1654 325.1106,92.1654 C323.2026,92.1654 321.5766,91.4754 320.2266,90.0894 C318.8766,88.7094 318.1986,87.0294 318.1986,85.0494 C318.1986,83.1054 318.8826,81.4494 320.2446,80.0634 C321.6066,78.6894 323.2446,78.0054 325.1646,78.0054 C326.2686,78.0054 327.2646,78.2394 328.1646,78.7074 C329.0586,79.1754 329.8446,79.8834 330.5226,80.8194 L330.5226,78.3474 L332.2326,78.3474 Z" id="Fill-70" fill="#939394" sketch:type="MSShapeGroup" mask="url(#mask-4)"></path>
                <path d="M345.441,79.8198 L344.319,80.9718 C343.395,80.0718 342.495,79.6218 341.601,79.6218 C341.043,79.6218 340.563,79.8078 340.161,80.1798 C339.759,80.5518 339.561,80.9838 339.561,81.4758 C339.561,81.9198 339.723,82.3338 340.059,82.7298 C340.383,83.1378 341.079,83.6118 342.135,84.1578 C343.431,84.8238 344.307,85.4658 344.769,86.0898 C345.225,86.7138 345.453,87.4218 345.453,88.2018 C345.453,89.3118 345.063,90.2478 344.289,91.0158 C343.509,91.7838 342.537,92.1678 341.367,92.1678 C340.593,92.1678 339.849,91.9938 339.147,91.6638 C338.439,91.3218 337.851,90.8538 337.389,90.2598 L338.481,89.0178 C339.363,90.0198 340.305,90.5178 341.301,90.5178 C341.991,90.5178 342.579,90.2958 343.071,89.8518 C343.563,89.4078 343.809,88.8798 343.809,88.2798 C343.809,87.7818 343.641,87.3438 343.317,86.9478 C342.999,86.5758 342.273,86.0958 341.133,85.5138 C339.921,84.8898 339.093,84.2718 338.655,83.6598 C338.217,83.0478 338.001,82.3518 338.001,81.5658 C338.001,80.5398 338.343,79.6938 339.045,79.0158 C339.747,78.3378 340.623,78.0018 341.691,78.0018 C342.933,78.0018 344.181,78.6078 345.441,79.8198" id="Fill-71" fill="#939394" sketch:type="MSShapeGroup" mask="url(#mask-4)"></path>
                <path d="M358.0914,90.4956 C359.0574,90.4956 359.9454,90.2556 360.7614,89.7816 C361.5774,89.3076 362.2194,88.6416 362.7114,87.7836 C363.1914,86.9256 363.4314,86.0196 363.4314,85.0596 C363.4314,84.1056 363.1914,83.1876 362.7054,82.3236 C362.2134,81.4536 361.5594,80.7816 360.7374,80.3016 C359.9274,79.8156 359.0454,79.5756 358.1154,79.5756 C357.1734,79.5756 356.2674,79.8156 355.4214,80.3016 C354.5634,80.7816 353.9094,81.4296 353.4534,82.2456 C352.9914,83.0676 352.7634,83.9856 352.7634,85.0116 C352.7634,86.5716 353.2794,87.8736 354.3054,88.9176 C355.3314,89.9676 356.5914,90.4956 358.0914,90.4956 L358.0914,90.4956 Z M351.1614,91.8216 L351.1614,73.1436 L352.8954,73.1436 L352.8954,80.6616 C353.6154,79.7736 354.4314,79.1076 355.3254,78.6636 C356.2254,78.2196 357.2154,78.0036 358.2834,78.0036 C360.1914,78.0036 361.8174,78.6936 363.1674,80.0796 C364.5114,81.4596 365.1894,83.1336 365.1894,85.1136 C365.1894,87.0576 364.5054,88.7196 363.1494,90.0996 C361.7814,91.4796 360.1494,92.1636 358.2354,92.1636 C357.1374,92.1636 356.1474,91.9296 355.2534,91.4616 C354.3654,90.9876 353.5734,90.2856 352.8954,89.3436 L352.8954,91.8216 L351.1614,91.8216 Z" id="Fill-72" fill="#939394" sketch:type="MSShapeGroup" mask="url(#mask-4)"></path>
                <path d="M370.6596,78.3492 L372.3936,78.3492 L372.3936,84.6372 C372.3936,86.1732 372.4776,87.2292 372.6396,87.8052 C372.8856,88.6332 373.3596,89.2812 374.0556,89.7612 C374.7576,90.2412 375.5916,90.4812 376.5576,90.4812 C377.5296,90.4812 378.3456,90.2472 379.0236,89.7792 C379.6956,89.3172 380.1576,88.7052 380.4156,87.9492 C380.5836,87.4272 380.6736,86.3232 380.6736,84.6372 L380.6736,78.3492 L382.4496,78.3492 L382.4496,84.9612 C382.4496,86.8152 382.2336,88.2192 381.7956,89.1612 C381.3636,90.0972 380.7096,90.8352 379.8396,91.3692 C378.9696,91.9032 377.8776,92.1672 376.5636,92.1672 C375.2556,92.1672 374.1576,91.9032 373.2816,91.3692 C372.3996,90.8352 371.7456,90.0912 371.3076,89.1372 C370.8756,88.1892 370.6596,86.7492 370.6596,84.8352 L370.6596,78.3492 Z" id="Fill-73" fill="#939394" sketch:type="MSShapeGroup" mask="url(#mask-4)"></path>
                <path d="M387.3828,78.3492 L389.2188,78.3492 L393.8448,88.7232 L398.3448,78.3492 L400.1928,78.3492 L392.1528,96.7452 L390.3228,96.7452 L392.9148,90.7992 L387.3828,78.3492 Z" id="Fill-74" fill="#939394" sketch:type="MSShapeGroup" mask="url(#mask-4)"></path>
                <path d="M406.8708,89.0952 C407.2908,89.0952 407.6508,89.2392 407.9508,89.5392 C408.2448,89.8392 408.3948,90.2052 408.3948,90.6312 C408.3948,91.0512 408.2448,91.4172 407.9508,91.7172 C407.6508,92.0112 407.2908,92.1672 406.8708,92.1672 C406.4508,92.1672 406.0908,92.0112 405.7908,91.7172 C405.4968,91.4172 405.3468,91.0512 405.3468,90.6312 C405.3468,90.2052 405.4968,89.8392 405.7908,89.5392 C406.0908,89.2392 406.4508,89.0952 406.8708,89.0952" id="Fill-75" fill="#939394" sketch:type="MSShapeGroup" mask="url(#mask-4)"></path>
                <path d="M427.5954,81.144 L426.2214,82.002 C425.0334,80.424 423.4194,79.632 421.3614,79.632 C419.7234,79.632 418.3614,80.166 417.2754,81.222 C416.1954,82.272 415.6494,83.556 415.6494,85.062 C415.6494,86.046 415.9014,86.97 416.3994,87.834 C416.8974,88.704 417.5814,89.37 418.4514,89.85 C419.3214,90.33 420.2934,90.57 421.3734,90.57 C423.3534,90.57 424.9734,89.778 426.2214,88.206 L427.5954,89.106 C426.9534,90.078 426.0894,90.828 425.0034,91.362 C423.9174,91.902 422.6814,92.166 421.2954,92.166 C419.1654,92.166 417.4014,91.494 415.9914,90.138 C414.5934,88.782 413.8914,87.132 413.8914,85.194 C413.8914,83.892 414.2214,82.68 414.8754,81.558 C415.5294,80.442 416.4354,79.566 417.5814,78.942 C418.7214,78.312 420.0114,78.006 421.4334,78.006 C422.3214,78.006 423.1854,78.138 424.0134,78.408 C424.8414,78.684 425.5434,79.032 426.1254,79.476 C426.7014,79.914 427.1934,80.472 427.5954,81.144" id="Fill-76" fill="#939394" sketch:type="MSShapeGroup" mask="url(#mask-4)"></path>
                <path d="M439.8354,79.6968 C438.3954,79.6968 437.1594,80.2308 436.1214,81.2988 C435.0834,82.3548 434.5674,83.6448 434.5674,85.1568 C434.5674,86.1288 434.8014,87.0408 435.2754,87.8808 C435.7434,88.7268 436.3854,89.3748 437.1894,89.8308 C437.9874,90.2928 438.8754,90.5208 439.8354,90.5208 C440.7954,90.5208 441.6834,90.2928 442.4814,89.8308 C443.2854,89.3748 443.9274,88.7268 444.3954,87.8808 C444.8694,87.0408 445.1034,86.1288 445.1034,85.1568 C445.1034,83.6448 444.5814,82.3548 443.5434,81.2988 C442.5054,80.2308 441.2694,79.6968 439.8354,79.6968 M439.8414,78.0048 C441.9174,78.0048 443.6394,78.7548 445.0014,80.2548 C446.2374,81.6228 446.8614,83.2488 446.8614,85.1208 C446.8614,87.0048 446.2074,88.6488 444.8994,90.0588 C443.5854,91.4628 441.8994,92.1648 439.8414,92.1648 C437.7714,92.1648 436.0854,91.4628 434.7714,90.0588 C433.4634,88.6488 432.8094,87.0048 432.8094,85.1208 C432.8094,83.2548 433.4334,81.6348 434.6694,80.2668 C436.0314,78.7548 437.7534,78.0048 439.8414,78.0048" id="Fill-77" fill="#939394" sketch:type="MSShapeGroup" mask="url(#mask-4)"></path>
                <path d="M452.5974,78.3492 L454.3254,78.3492 L454.3254,80.6772 C454.9314,79.8132 455.5494,79.1892 456.1914,78.7932 C457.0614,78.2652 457.9854,78.0012 458.9574,78.0012 C459.6054,78.0012 460.2234,78.1272 460.8114,78.3852 C461.3994,78.6432 461.8794,78.9792 462.2454,79.4052 C462.6234,79.8312 462.9474,80.4432 463.2174,81.2292 C463.7934,80.1792 464.5134,79.3752 465.3774,78.8232 C466.2414,78.2712 467.1774,78.0012 468.1734,78.0012 C469.1034,78.0012 469.9254,78.2352 470.6334,78.7092 C471.3474,79.1772 471.8754,79.8312 472.2234,80.6772 C472.5654,81.5172 472.7394,82.7772 472.7394,84.4692 L472.7394,91.8192 L470.9754,91.8192 L470.9754,84.4692 C470.9754,83.0172 470.8674,82.0272 470.6634,81.4812 C470.4594,80.9472 470.1054,80.5092 469.6074,80.1792 C469.1094,79.8492 468.5154,79.6872 467.8254,79.6872 C466.9794,79.6872 466.2174,79.9332 465.5214,80.4312 C464.8254,80.9232 464.3154,81.5832 463.9974,82.4112 C463.6794,83.2332 463.5174,84.6132 463.5174,86.5452 L463.5174,91.8192 L461.7834,91.8192 L461.7834,84.9252 C461.7834,83.2932 461.6814,82.1952 461.4774,81.6132 C461.2734,81.0252 460.9254,80.5632 460.4214,80.2152 C459.9174,79.8612 459.3174,79.6872 458.6274,79.6872 C457.8234,79.6872 457.0734,79.9272 456.3774,80.4132 C455.6814,80.8932 455.1654,81.5412 454.8294,82.3572 C454.4934,83.1792 454.3254,84.4272 454.3254,86.1132 L454.3254,91.8192 L452.5974,91.8192 L452.5974,78.3492 Z" id="Fill-78" fill="#939394" sketch:type="MSShapeGroup" mask="url(#mask-4)"></path>
                <path d="M117.7842,17.7894 L117.7842,93.6654" id="Stroke-79" stroke="#CBCCCC" stroke-width="0.25" sketch:type="MSShapeGroup" mask="url(#mask-4)"></path>
            </g>
        </g>
    </g>
</svg>