<?xml version="1.0" encoding="UTF-8" standalone="no"?>
<svg width="480px" height="102px" viewBox="0 0 80 17" version="1.1" xmlns="http://www.w3.org/2000/svg" xmlns:xlink="http://www.w3.org/1999/xlink" xmlns:sketch="http://www.bohemiancoding.com/sketch/ns">
    <!-- Generator: Sketch 3.4.4 (17249) - http://www.bohemiancoding.com/sketch -->
    <title>Page 1</title>
    <desc>Created with Sketch.</desc>
    <defs>
        <path id="path-1" d="M0,0.426 L79.404,0.426 L79.404,17 L0,17 L0,0.426 Z"></path>
        <path id="path-3" d="M0,0.426 L79.404,0.426 L79.404,17 L0,17 L0,0.426 Z"></path>
    </defs>
    <g id="Page-1" stroke="none" stroke-width="1" fill="none" fill-rule="evenodd" sketch:type="MSPage">
        <g sketch:type="MSLayerGroup">
            <path d="M30.326,4.878 L27.916,4.878 L27.916,6.872 L30.326,6.872 L30.326,4.878 Z M24.862,6.873 L27.241,6.873 L27.241,4.879 L24.862,4.879 L24.862,6.873 Z M24.217,4.297 L27.24,4.297 L27.24,2.586 L27.916,2.586 L27.916,4.297 L30.971,4.297 L30.971,7.878 L30.326,7.878 L30.326,7.454 L27.916,7.454 L27.916,10.376 L27.24,10.376 L27.24,7.454 L24.862,7.454 L24.862,7.878 L24.217,7.878 L24.217,4.297 Z" id="Fill-1" fill="#444344" sketch:type="MSShapeGroup"></path>
            <g id="Group-80">
                <path d="M36.3098,6.9673 L36.7498,6.6373 C37.0388,6.9363 37.2848,7.2163 37.4888,7.4783 L37.0248,7.8303 C36.7738,7.4903 36.5358,7.2023 36.3098,6.9673 L36.3098,6.9673 Z M33.1538,8.0193 L35.3208,8.0193 L35.3208,6.4643 L33.4288,6.4643 L33.4288,5.9313 L35.3208,5.9313 L35.3208,4.8783 L33.2798,4.8783 L33.2798,4.3443 L37.9588,4.3443 L37.9588,4.8783 L35.9018,4.8783 L35.9018,5.9313 L37.8018,5.9313 L37.8018,6.4643 L35.9018,6.4643 L35.9018,8.0193 L38.0848,8.0193 L38.0848,8.5533 L33.1538,8.5533 L33.1538,8.0193 Z M38.4548,3.5673 L32.7928,3.5673 L32.7928,9.3863 L38.4548,9.3863 L38.4548,3.5673 Z M32.1878,3.0093 L39.0588,3.0093 L39.0588,10.3353 L38.4548,10.3353 L38.4548,9.9433 L32.7918,9.9433 L32.7918,10.3433 L32.1878,10.3433 L32.1878,3.0093 Z" id="Fill-2" fill="#444344" sketch:type="MSShapeGroup"></path>
                <path d="M45.1292,8.3257 L45.5922,7.9327 C46.4192,8.6977 47.0662,9.3367 47.5312,9.8487 L47.0132,10.3277 C46.4802,9.6947 45.8512,9.0267 45.1292,8.3257 L45.1292,8.3257 Z M43.8102,7.1397 L45.5052,7.1397 L45.5052,4.9727 L43.8102,4.9727 L43.8102,7.1397 Z M45.5052,2.6797 L46.1502,2.6797 L46.1502,4.4077 L47.2732,4.4077 L47.2732,4.9727 L46.1502,4.9727 L46.1502,7.1397 L47.5472,7.1397 L47.5472,7.7057 L41.8382,7.7057 L41.8382,7.1397 L43.1652,7.1397 L43.1652,4.9727 L42.1522,4.9727 L42.1522,4.4077 L43.1652,4.4077 L43.1652,2.6877 L43.8102,2.6877 L43.8102,4.4077 L45.5052,4.4077 L45.5052,2.6797 Z M44.1942,8.3417 C43.5762,9.0957 42.9332,9.7677 42.2632,10.3597 C42.1212,10.1967 41.9612,10.0457 41.7832,9.9037 C42.4482,9.4017 43.0712,8.7557 43.6522,7.9647 L44.1942,8.3417 Z M39.6712,6.3867 C40.4932,5.2817 41.1402,4.0227 41.6102,2.6087 L42.2392,2.8367 C41.9692,3.5357 41.6902,4.1777 41.3992,4.7607 L41.3992,10.3437 L40.7712,10.3437 L40.7712,5.9027 C40.5012,6.3437 40.2242,6.7397 39.9392,7.0937 C39.8642,6.8787 39.7752,6.6427 39.6712,6.3867 L39.6712,6.3867 Z" id="Fill-4" fill="#444344" sketch:type="MSShapeGroup"></path>
                <path d="M53.7415,4.2115 C54.1135,3.8085 54.4745,3.3625 54.8255,2.8765 L55.3445,3.2695 C55.0245,3.6555 54.6325,4.0935 54.1665,4.5805 L53.7415,4.2115 Z M51.4255,7.9405 L54.5595,7.9405 L54.5595,6.9665 L51.4255,6.9665 L51.4255,7.9405 Z M54.5585,5.4365 L51.4245,5.4365 L51.4245,6.4025 L54.5585,6.4025 L54.5585,5.4365 Z M51.4255,10.3435 L50.8515,10.3435 L50.8515,4.8475 L52.6505,4.8475 L52.6505,2.6165 L53.2555,2.6165 L53.2555,4.8475 L55.1325,4.8475 L55.1325,9.4015 C55.1325,10.0085 54.8465,10.3125 54.2755,10.3125 C53.9825,10.3125 53.5665,10.3045 53.0275,10.2885 C52.9965,10.0955 52.9595,9.8805 52.9175,9.6455 C53.4095,9.6765 53.7835,9.6915 54.0405,9.6915 C54.3865,9.6915 54.5585,9.5455 54.5585,9.2525 L54.5585,8.5065 L51.4255,8.5065 L51.4255,10.3435 Z M50.5935,3.1825 L51.0245,2.8535 C51.4015,3.2245 51.7735,3.6435 52.1395,4.1085 L51.6455,4.5095 C51.2845,4.0015 50.9335,3.5595 50.5935,3.1825 L50.5935,3.1825 Z M50.5385,8.6075 C50.5385,8.8385 50.5515,9.0565 50.5775,9.2605 C50.2425,9.4225 49.8525,9.6375 49.4075,9.9035 C49.3125,9.9565 49.2035,10.0455 49.0775,10.1715 L48.6615,9.6295 C48.8295,9.4775 48.9125,9.2805 48.9125,9.0405 L48.9125,7.3285 L47.8605,7.3285 L47.8605,6.7865 L48.9125,6.7865 L48.9125,5.7275 L48.4025,5.7275 L48.4025,5.1855 L50.4045,5.1855 L50.4045,5.7275 L49.4855,5.7275 L49.4855,6.7865 L50.5855,6.7865 L50.5855,7.3285 L49.4855,7.3285 L49.4855,9.1975 C49.8685,8.9925 50.2195,8.7965 50.5385,8.6075 L50.5385,8.6075 Z M47.7905,5.0355 C48.2985,4.3085 48.7035,3.4995 49.0075,2.6085 L49.5955,2.8055 C49.4545,3.1565 49.3035,3.4935 49.1405,3.8185 L50.5935,3.8185 L50.5935,4.3595 L48.8655,4.3595 C48.6355,4.7845 48.3875,5.1875 48.1195,5.5695 C48.0195,5.3815 47.9105,5.2025 47.7905,5.0355 L47.7905,5.0355 Z" id="Fill-6" fill="#444344" sketch:type="MSShapeGroup"></path>
                <path d="M59.9534,5.5543 L60.3074,5.2003 C60.6414,5.4563 60.9724,5.7243 61.2964,6.0013 L60.8954,6.4093 C60.5764,6.0953 60.2624,5.8103 59.9534,5.5543 L59.9534,5.5543 Z M59.8504,7.5643 L60.2124,7.2103 C60.5624,7.4783 60.8904,7.7473 61.1934,8.0193 L60.7854,8.4283 C60.4764,8.1293 60.1654,7.8413 59.8504,7.5643 L59.8504,7.5643 Z M62.2854,5.1063 L59.1764,5.1063 L58.9834,6.5353 L62.2504,6.5353 C62.2634,6.0903 62.2744,5.6143 62.2854,5.1063 L62.2854,5.1063 Z M62.2344,7.0853 L58.9134,7.0853 L58.7214,8.5303 L62.1804,8.5303 C62.2004,8.1013 62.2194,7.6183 62.2344,7.0853 L62.2344,7.0853 Z M57.5744,6.5353 L58.3794,6.5353 L58.6574,4.5733 L62.8904,4.5733 C62.8744,5.3003 62.8584,5.9543 62.8434,6.5353 L63.6674,6.5353 L63.6674,7.0853 L62.8234,7.0853 C62.8074,7.6503 62.7924,8.1323 62.7764,8.5303 L63.4164,8.5303 L63.4164,9.0643 L62.7404,9.0643 C62.6964,9.4493 62.5924,9.7373 62.4274,9.9273 C62.2384,10.1423 61.9034,10.2493 61.4224,10.2493 C61.1494,10.2493 60.7994,10.2393 60.3694,10.2183 C60.3434,10.0403 60.3074,9.8273 60.2604,9.5823 C60.7674,9.6293 61.1574,9.6533 61.4304,9.6533 C61.8244,9.6533 62.0604,9.4563 62.1364,9.0643 L58.0994,9.0643 L58.0994,8.4833 L58.3004,7.0853 L57.5744,7.0853 L57.5744,6.5353 Z M57.5114,4.8243 C58.1604,4.2113 58.6834,3.4593 59.0814,2.5703 L59.7494,2.5703 C59.6234,2.8423 59.4914,3.1013 59.3524,3.3473 L63.5024,3.3473 L63.5024,3.8973 L59.0224,3.8973 C58.6844,4.4233 58.3144,4.8863 57.9114,5.2863 C57.7914,5.1293 57.6574,4.9753 57.5114,4.8243 L57.5114,4.8243 Z M56.1294,3.1123 L56.5294,2.6963 C56.8444,2.9363 57.2804,3.3003 57.8414,3.7863 C57.6634,3.9593 57.5094,4.1153 57.3784,4.2503 C56.8124,3.7113 56.3964,3.3313 56.1294,3.1123 L56.1294,3.1123 Z M56.0664,10.1083 C56.3754,9.1923 56.6414,8.1903 56.8674,7.1013 C57.0984,7.2003 57.3094,7.2823 57.5034,7.3443 C57.2364,8.3703 56.9874,9.3623 56.7574,10.3203 L56.0664,10.1083 Z M55.8314,5.2003 L56.2244,4.7523 C56.7054,5.0883 57.1524,5.4253 57.5664,5.7663 C57.3784,5.9813 57.2254,6.1483 57.1104,6.2683 C56.6444,5.8503 56.2184,5.4933 55.8314,5.2003 L55.8314,5.2003 Z" id="Fill-8" fill="#444344" sketch:type="MSShapeGroup"></path>
                <path d="M68.7718,2.6724 L69.4308,2.6724 L69.4308,5.3734 L69.7458,5.0204 C70.4948,5.6014 71.1618,6.1324 71.7478,6.6134 L71.2998,7.1944 C70.7458,6.6824 70.1228,6.1354 69.4308,5.5544 L69.4308,10.3674 L68.7718,10.3674 L68.7718,2.6724 Z M63.8088,6.6684 C64.5888,5.4814 65.1748,4.1274 65.5678,2.6094 L66.2118,2.7894 C66.0858,3.2134 65.9558,3.6224 65.8198,4.0154 L68.0018,4.0154 L68.0018,4.5964 C67.7248,7.1974 66.5488,9.1064 64.4768,10.3194 C64.3668,10.1474 64.2308,9.9614 64.0688,9.7624 C65.0838,9.1604 65.8638,8.4064 66.4088,7.5014 C66.0418,7.1924 65.6308,6.8784 65.1748,6.5594 L65.5758,6.0794 C66.0208,6.4044 66.4008,6.6904 66.7138,6.9364 C67.0398,6.2604 67.2488,5.4854 67.3428,4.6114 L65.5918,4.6114 C65.2248,5.5384 64.7508,6.4464 64.1698,7.3364 C64.0658,7.1214 63.9458,6.8994 63.8088,6.6684 L63.8088,6.6684 Z" id="Fill-10" fill="#444344" sketch:type="MSShapeGroup"></path>
                <path d="M77.095,6.2994 L77.637,6.1434 C77.878,6.8974 78.111,7.6874 78.336,8.5144 L77.747,8.6874 C77.705,8.5294 77.666,8.3704 77.629,8.2074 C77.074,8.2444 76.577,8.2894 76.138,8.3414 C75.908,8.3674 75.674,8.4094 75.439,8.4674 L75.196,7.9564 C75.378,7.8414 75.515,7.6844 75.604,7.4864 C75.892,6.7894 76.163,5.9514 76.42,4.9734 L77.017,5.1134 C76.702,6.0824 76.391,6.9754 76.082,7.7914 C76.528,7.7654 76.998,7.7344 77.496,7.6974 C77.37,7.2364 77.237,6.7714 77.095,6.2994 L77.095,6.2994 Z M72.353,3.0654 L75.007,3.0654 L75.007,5.3184 C75.531,4.5174 75.92,3.6144 76.177,2.6094 L76.797,2.7504 C76.671,3.1274 76.54,3.4864 76.405,3.8264 L79.404,3.8264 C79.372,6.3704 79.341,8.0644 79.31,8.9064 C79.263,9.7544 78.828,10.1794 78.006,10.1794 C77.556,10.1794 77.077,10.1684 76.57,10.1474 C76.538,9.9384 76.496,9.7234 76.444,9.5034 C76.951,9.5614 77.417,9.5924 77.841,9.5984 C78.391,9.5924 78.682,9.3204 78.713,8.7804 C78.749,7.8914 78.776,6.4314 78.791,4.4004 L76.169,4.4004 C75.975,4.8554 75.774,5.2714 75.565,5.6484 C75.412,5.5484 75.227,5.4514 75.007,5.3584 L75.007,7.9334 L74.442,7.9334 L74.442,3.6384 L72.918,3.6384 L72.918,7.9804 L72.353,7.9804 L72.353,3.0654 Z M73.397,4.3204 L73.962,4.3204 L73.962,5.8994 C73.962,6.9144 73.892,7.7024 73.75,8.2634 L73.978,8.0514 C74.512,8.6064 74.981,9.1114 75.384,9.5664 L74.889,9.9834 C74.517,9.5064 74.109,9.0224 73.664,8.5294 C73.476,9.1264 73.023,9.7374 72.306,10.3604 C72.191,10.1964 72.052,10.0374 71.889,9.8804 C72.502,9.4254 72.908,8.9384 73.107,8.4194 C73.3,7.9704 73.397,7.2054 73.397,6.1274 L73.397,4.3204 Z" id="Fill-12" fill="#444344" sketch:type="MSShapeGroup"></path>
                <g id="Group-16">
                    <mask id="mask-2" sketch:name="Clip 15" fill="white">
                        <use xlink:href="#path-1"></use>
                    </mask>
                    <g id="Clip-15"></g>
                    <path d="M1.6786,15.0019 C1.5256,15.0529 1.2416,15.0169 1.2416,15.0169 L1.2416,13.7789 L1.8086,13.7789 L1.8086,14.7829 C1.8086,14.9009 1.8216,14.9549 1.6786,15.0019 L1.6786,15.0019 Z M0.9016,15.0209 L0.3346,15.0209 C0.3346,15.0209 0.3476,14.1369 0.3476,14.0189 C0.3476,13.8999 0.3746,13.8769 0.5096,13.8089 C0.6446,13.7419 0.9016,13.8089 0.9016,13.8089 L0.9016,15.0209 Z M2.1506,13.5489 L1.2696,13.5489 L1.2696,13.3599 L0.9286,13.3599 L0.9286,13.5529 L0.3346,13.5529 C0.3346,13.5529 0.0576,13.5859 -0.0004,13.8129 L-0.0004,15.3149 L0.9016,15.3149 L0.9016,15.4809 L1.2566,15.4809 L1.2566,15.3049 L1.8336,15.3049 C1.8336,15.3049 2.1406,15.2069 2.1506,14.9909 C2.1616,14.7749 2.1506,13.5489 2.1506,13.5489 L2.1506,13.5489 Z" id="Fill-14" fill="#444344" sketch:type="MSShapeGroup" mask="url(#mask-2)"></path>
                </g>
                <path d="M2.895,14.0625 L3.342,14.0625 C3.342,14.0625 3.381,14.0625 3.381,14.1015 L3.381,14.3395 L2.907,14.3395 L2.907,14.5915 L3.381,14.5915 L3.381,14.8255 L2.895,14.8255 L2.895,15.1115 L3.98,15.1115 C3.98,15.1115 4.135,15.0875 4.163,15.0385 C4.19,14.9895 4.163,14.7775 4.163,14.7775 L3.844,14.7775 C3.844,14.7775 3.828,14.8465 3.786,14.8405 C3.743,14.8345 3.713,14.8405 3.713,14.8405 L3.713,14.5865 L4.175,14.5865 L4.175,14.3275 L3.722,14.3275 L3.722,14.0625 L4.187,14.0625 L4.187,13.7825 L2.895,13.7825 L2.895,14.0625 Z M2.487,13.3835 L2.487,15.5075 C2.487,15.5075 3.91,15.5115 4.199,15.5075 C4.488,15.5035 4.639,15.1785 4.639,15.1785 L4.639,13.3835 L2.487,13.3835 Z M4.155,15.1785 L2.864,15.1785 L2.864,13.7325 L4.29,13.7325 L4.29,15.0435 C4.29,15.1665 4.155,15.1785 4.155,15.1785 L4.155,15.1785 Z" id="Fill-17" fill="#444344" sketch:type="MSShapeGroup"></path>
                <path d="M5.5087,13.3837 L5.5087,13.6227 C5.4887,13.6367 5.4497,13.7447 5.4497,13.7447 L5.4497,15.5087 L5.0867,15.5087 L5.0867,14.1137 L4.9587,14.1137 L4.9587,13.8187 C5.2137,13.6227 5.2137,13.3837 5.2137,13.3837 L5.5087,13.3837 Z" id="Fill-19" fill="#444344" sketch:type="MSShapeGroup"></path>
                <mask id="mask-4" sketch:name="Clip 22" fill="white">
                    <use xlink:href="#path-3"></use>
                </mask>
                <g id="Clip-22"></g>
                <path d="M6.5,14.446 L6.048,14.446 L6.048,13.917 L6.5,13.917 L6.5,14.446 Z M7.08,13.902 L7.08,13.618 L6.849,13.618 L6.849,13.384 L6.5,13.384 L6.5,13.618 L6.049,13.618 L6.049,13.384 L5.725,13.384 L5.725,13.608 L5.553,13.608 L5.553,13.902 L5.725,13.902 L5.725,14.446 L5.509,14.446 L5.509,14.732 L7.08,14.732 L7.08,14.446 L6.864,14.446 L6.864,13.902 L7.08,13.902 Z" id="Fill-21" fill="#444344" sketch:type="MSShapeGroup" mask="url(#mask-4)"></path>
                <path d="M5.7492,14.7711 C5.7492,14.7711 5.7582,15.0611 5.5082,15.1691 L5.5082,15.5091 C5.5082,15.5091 6.0282,15.3851 6.1362,14.7711 L5.7492,14.7711 Z" id="Fill-23" fill="#444344" sketch:type="MSShapeGroup" mask="url(#mask-4)"></path>
                <path d="M6.4722,14.7711 C6.5802,15.3851 7.1002,15.5091 7.1002,15.5091 L7.1002,15.1691 C6.8512,15.0611 6.8592,14.7711 6.8592,14.7711 L6.4722,14.7711 Z" id="Fill-24" fill="#444344" sketch:type="MSShapeGroup" mask="url(#mask-4)"></path>
                <path d="M7.8804,13.3782 C7.8804,13.4982 7.9564,13.5412 7.9564,13.5412 L8.2374,13.5412 L8.2374,13.7932 L7.7874,13.7932 L7.5824,13.9712 L7.3674,13.9712 L7.3674,13.6802 C7.5594,13.6672 7.5594,13.3842 7.5594,13.3842 L7.8804,13.3782 Z" id="Fill-25" fill="#444344" sketch:type="MSShapeGroup" mask="url(#mask-4)"></path>
                <path d="M7.3679,14.074 L7.3679,14.317 L7.6039,14.317 L7.6039,14.553 L7.3679,14.553 L7.3679,14.836 L7.6039,14.836 L7.6039,15.241 C7.6039,15.241 7.5929,15.473 7.8029,15.484 C8.0119,15.495 8.1779,15.484 8.1779,15.484 L8.1779,15.197 L7.9979,15.197 C7.9979,15.197 7.9499,15.234 7.9459,15.105 C7.9419,14.976 7.9459,14.84 7.9459,14.84 L8.2379,14.84 L8.2379,14.556 L7.9459,14.556 L7.9459,14.328 L8.2379,14.328 L8.2379,14.074 L7.3679,14.074 Z" id="Fill-26" fill="#444344" sketch:type="MSShapeGroup" mask="url(#mask-4)"></path>
                <path d="M9.2114,14.4358 L8.7304,14.4358 L8.6504,14.3518 L8.7504,14.2498 L9.2144,14.2498 L9.2824,14.3598 L9.2114,14.4358 Z M9.2114,14.8438 L8.7304,14.8438 L8.6504,14.7598 L8.7504,14.6568 L9.2144,14.6568 L9.2824,14.7678 L9.2114,14.8438 Z M9.2864,13.9418 C9.6104,13.7828 9.6104,13.4628 9.6104,13.4628 L9.3234,13.4628 C9.2824,13.5948 9.1614,13.7348 9.1614,13.7348 L9.1614,13.9418 L9.1134,13.9418 L9.1134,13.3378 L8.8114,13.3378 L8.8114,13.9418 L8.7704,13.9418 L8.7704,13.6988 C8.6384,13.6208 8.6164,13.4478 8.6164,13.4478 L8.3544,13.4478 C8.3244,13.4858 8.3324,13.5258 8.3324,13.5258 C8.3804,13.7568 8.5534,13.9118 8.6014,13.9158 C8.6494,13.9188 8.6234,13.9528 8.6234,13.9528 C8.5694,13.9758 8.5054,13.9998 8.4634,14.0338 C8.3904,14.0918 8.3544,14.1588 8.3544,14.1588 L8.3544,15.4888 L8.6564,15.4888 L8.6564,15.1308 L9.2674,15.1308 L9.2674,15.2008 L9.0284,15.2008 L9.0284,15.4888 L9.4184,15.4888 C9.5104,15.4678 9.5774,15.3298 9.5774,15.3298 C9.5774,15.3298 9.5914,14.3018 9.5774,14.1618 C9.5624,14.0228 9.2864,13.9418 9.2864,13.9418 L9.2864,13.9418 Z" id="Fill-27" fill="#444344" sketch:type="MSShapeGroup" mask="url(#mask-4)"></path>
                <path d="M10.1506,14.0771 L11.8706,14.0771 C11.4986,13.9291 11.2676,13.6911 11.2676,13.6911 L10.7336,13.6911 C10.4766,13.9711 10.1506,14.0471 10.1506,14.0471 L10.1506,14.0771 Z M10.4576,13.4371 L11.5676,13.4371 C11.5676,13.4371 11.6806,13.7021 12.0676,13.8421 L12.0676,14.0921 L11.9046,14.0921 L11.9046,14.3801 L10.0786,14.3801 L10.0786,14.0961 L9.9766,14.0961 L9.9766,13.8161 C9.9766,13.8161 10.3246,13.6561 10.4576,13.4371 L10.4576,13.4371 Z" id="Fill-28" fill="#444344" sketch:type="MSShapeGroup" mask="url(#mask-4)"></path>
                <path d="M11.5559,15.1034 C11.5559,15.2054 11.4609,15.2204 11.4609,15.2204 L10.4119,15.2204 L10.4119,14.7704 L11.5559,14.7704 L11.5559,15.1034 Z M11.9039,14.4934 L10.0519,14.4934 L10.0519,15.4894 L11.5899,15.4894 C11.5899,15.4894 11.8969,15.4214 11.9039,15.1834 C11.9119,14.9444 11.9039,14.4934 11.9039,14.4934 L11.9039,14.4934 Z" id="Fill-29" fill="#444344" sketch:type="MSShapeGroup" mask="url(#mask-4)"></path>
                <path d="M13.3996,13.36 C13.3996,13.36 13.3206,13.599 13.0496,13.837 L13.0496,14.169 L13.2766,14.062 L13.3486,14.062 L13.3486,15.489 L13.6996,15.489 L13.6996,15.029 L14.5056,15.029 L14.5056,14.782 L13.6996,14.782 L13.6996,14.425 L14.5056,14.425 L14.5056,14.156 L13.6876,14.156 L13.6876,13.881 L14.5056,13.881 L14.5056,13.61 L13.6906,13.61 C13.6906,13.61 13.6776,13.543 13.7026,13.48 C13.7286,13.417 13.7566,13.36 13.7566,13.36 L13.3996,13.36 Z M13.0496,13.386 C12.9776,13.641 12.8276,13.795 12.8276,13.795 L12.8276,15.489 L12.5096,15.489 L12.5096,14.04 C12.5096,14.04 12.4536,14.091 12.4176,14.113 C12.3816,14.136 12.3276,14.154 12.3276,14.154 L12.3276,13.831 C12.6456,13.593 12.6886,13.386 12.6886,13.386 L13.0496,13.386 Z" id="Fill-30" fill="#444344" sketch:type="MSShapeGroup" mask="url(#mask-4)"></path>
                <path d="M15.8859,15.4874 L17.0159,15.4874 L17.0159,15.2144 L16.6629,15.2144 L16.6629,14.0734 L17.0159,14.0734 L17.0159,13.8314 L16.6509,13.8314 L16.6509,13.4354 L16.3129,13.4354 L16.3129,13.8294 L15.9089,13.8294 L15.9089,14.0734 L16.3129,14.0734 L16.3129,15.2114 L15.8859,15.2114 L15.8859,15.4874 Z M14.7989,13.6054 L15.1429,13.6054 L15.1429,13.4354 L15.4369,13.4354 L15.4369,13.6074 L15.8349,13.6074 L15.8349,13.8234 C15.7519,13.9884 15.5059,14.2134 15.5059,14.2134 L15.5059,14.2484 L15.6509,14.2704 L15.8179,14.4544 L15.8179,14.8254 C15.6999,14.7714 15.4599,14.5404 15.4599,14.5404 L15.4599,15.5544 L15.1469,15.5544 L15.1469,14.5694 C15.0809,14.6154 14.7989,14.7154 14.7989,14.7154 L14.7989,14.4244 C15.1269,14.2234 15.3759,13.9544 15.3759,13.9544 L15.3759,13.8794 L14.7989,13.8854 L14.7989,13.6054 Z" id="Fill-31" fill="#444344" sketch:type="MSShapeGroup" mask="url(#mask-4)"></path>
                <path d="M4.4681,16.6213 L4.6891,16.6213 C4.6891,16.6213 4.6221,16.9683 4.1621,16.9993 C3.9551,17.0133 3.7271,16.7883 3.7021,16.6213 C3.6821,16.4903 3.6861,16.1663 3.9151,16.0483 C4.1441,15.9293 4.6331,15.9823 4.6761,16.3533 L4.4621,16.3533 C4.4621,16.3533 4.3271,16.1563 4.1921,16.1813 C4.0571,16.2073 3.9201,16.2743 3.9281,16.4943 C3.9331,16.6483 3.9541,16.7193 4.1051,16.7753 C4.1991,16.8103 4.3141,16.8293 4.4681,16.6213" id="Fill-32" fill="#444344" sketch:type="MSShapeGroup" mask="url(#mask-4)"></path>
                <path d="M9.422,16.6213 L9.643,16.6213 C9.643,16.6213 9.576,16.9683 9.116,16.9993 C8.909,17.0133 8.681,16.7883 8.656,16.6213 C8.636,16.4903 8.64,16.1663 8.869,16.0483 C9.098,15.9293 9.587,15.9823 9.63,16.3533 L9.416,16.3533 C9.416,16.3533 9.281,16.1563 9.146,16.1813 C9.011,16.2073 8.874,16.2743 8.882,16.4943 C8.887,16.6483 8.908,16.7193 9.059,16.7753 C9.153,16.8103 9.268,16.8293 9.422,16.6213" id="Fill-33" fill="#444344" sketch:type="MSShapeGroup" mask="url(#mask-4)"></path>
                <path d="M4.8018,16.0143 L4.8018,16.9493 L5.0378,16.9493 L5.0378,16.5993 L5.3838,16.5993 L5.3838,16.9493 L5.6158,16.9493 L5.6158,16.0143 L5.3868,16.0143 L5.3868,16.3643 L5.0298,16.3643 L5.0298,16.0143 L4.8018,16.0143 Z" id="Fill-34" fill="#444344" sketch:type="MSShapeGroup" mask="url(#mask-4)"></path>
                <path d="M6.029,16.949 L5.799,16.949 L5.799,16.003 L6.029,16.003 L6.029,16.949 Z" id="Fill-35" fill="#444344" sketch:type="MSShapeGroup" mask="url(#mask-4)"></path>
                <path d="M6.2266,16.0032 L6.2266,16.9492 L6.4806,16.9492 L6.4806,16.4522 L6.7896,16.9492 L7.0806,16.9492 L7.0806,16.0142 L6.8456,16.0142 L6.8456,16.5372 L6.7976,16.5372 L6.4546,16.0032 L6.2266,16.0032 Z" id="Fill-36" fill="#444344" sketch:type="MSShapeGroup" mask="url(#mask-4)"></path>
                <path d="M7.6872,16.3493 L7.5742,16.5993 L7.8132,16.5993 L7.6872,16.3493 Z M7.8132,16.0033 L8.2292,16.9493 L7.9532,16.9493 L7.8722,16.7763 L7.4932,16.7763 L7.4192,16.9493 L7.1762,16.9493 L7.5742,16.0033 L7.8132,16.0033 Z" id="Fill-37" fill="#444344" sketch:type="MSShapeGroup" mask="url(#mask-4)"></path>
                <path d="M10.2517,15.9809 C9.9777,15.9809 9.7567,16.2029 9.7567,16.4759 C9.7567,16.7499 9.9777,16.9719 10.2517,16.9719 C10.5257,16.9719 10.7477,16.7499 10.7477,16.4759 C10.7477,16.2029 10.5257,15.9809 10.2517,15.9809 M10.5447,16.4759 C10.5447,16.6379 10.4137,16.7699 10.2517,16.7699 C10.0897,16.7699 9.9587,16.6379 9.9587,16.4759 C9.9587,16.3149 10.0897,16.1829 10.2517,16.1829 C10.4137,16.1829 10.5447,16.3149 10.5447,16.4759" id="Fill-38" fill="#444344" sketch:type="MSShapeGroup" mask="url(#mask-4)"></path>
                <path d="M11.8322,15.9809 C11.5582,15.9809 11.3362,16.2029 11.3362,16.4759 C11.3362,16.7499 11.5582,16.9719 11.8322,16.9719 C12.1062,16.9719 12.3272,16.7499 12.3272,16.4759 C12.3272,16.2029 12.1062,15.9809 11.8322,15.9809 M12.1252,16.4759 C12.1252,16.6379 11.9942,16.7699 11.8322,16.7699 C11.6702,16.7699 11.5392,16.6379 11.5392,16.4759 C11.5392,16.3149 11.6702,16.1829 11.8322,16.1829 C11.9942,16.1829 12.1252,16.3149 12.1252,16.4759" id="Fill-39" fill="#444344" sketch:type="MSShapeGroup" mask="url(#mask-4)"></path>
                <path d="M11.257,16.588 L10.835,16.588 L10.835,16.367 L11.257,16.367 L11.257,16.588 Z" id="Fill-40" fill="#444344" sketch:type="MSShapeGroup" mask="url(#mask-4)"></path>
                <path d="M12.6988,16.1804 L12.6988,16.4764 L12.9168,16.4764 C12.9168,16.4764 13.0358,16.4534 13.0358,16.3284 C13.0358,16.2034 12.9168,16.1804 12.9168,16.1804 L12.6988,16.1804 Z M13.0788,16.0204 C13.0788,16.0204 13.2928,16.0724 13.2928,16.3134 C13.2928,16.5834 13.0788,16.5984 13.0788,16.5984 L12.6948,16.5984 L12.6948,16.9524 L12.4628,16.9524 L12.4628,16.0204 L13.0788,16.0204 Z" id="Fill-41" fill="#444344" sketch:type="MSShapeGroup" mask="url(#mask-4)"></path>
                <path d="M5.16,4.298 L7.427,4.298 L7.427,8.997 L5.16,8.997 L5.16,4.298 Z" id="Fill-42" fill="#FFF000" sketch:type="MSShapeGroup" mask="url(#mask-4)"></path>
                <path d="M9.639,4.298 L11.906,4.298 L11.906,8.997 L9.639,8.997 L9.639,4.298 Z" id="Fill-43" fill="#FFF000" sketch:type="MSShapeGroup" mask="url(#mask-4)"></path>
                <path d="M6.15,3.308 L10.914,3.308 L10.914,5.575 L6.15,5.575 L6.15,3.308 Z" id="Fill-44" fill="#FFF000" sketch:type="MSShapeGroup" mask="url(#mask-4)"></path>
                <path d="M6.15,7.721 L10.914,7.721 L10.914,9.988 L6.15,9.988 L6.15,7.721 Z" id="Fill-45" fill="#FFF000" sketch:type="MSShapeGroup" mask="url(#mask-4)"></path>
                <path d="M8.5326,6.6275 C8.5216,6.6275 8.5126,6.6365 8.5126,6.6475 C8.5126,6.6595 8.5216,6.6685 8.5326,6.6685 C8.5436,6.6685 8.5526,6.6595 8.5526,6.6475 C8.5526,6.6365 8.5436,6.6275 8.5326,6.6275 M8.5326,8.7695 C7.3626,8.7695 6.4116,7.8175 6.4116,6.6475 C6.4116,5.4785 7.3626,4.5265 8.5326,4.5265 C9.7026,4.5265 10.6536,5.4785 10.6536,6.6475 C10.6536,7.8175 9.7026,8.7695 8.5326,8.7695" id="Fill-46" fill="#FFF000" sketch:type="MSShapeGroup" mask="url(#mask-4)"></path>
                <path d="M8.495,12.8555 C8.277,12.8555 8.079,12.7815 7.923,12.6405 C7.793,12.5235 6.589,11.2735 6.078,10.7415 L5.905,10.5625 L5.9,10.3135 C5.897,10.1445 5.915,9.5655 6.299,9.2225 C6.506,9.0375 6.786,8.9445 7.131,8.9445 C7.29,8.9445 7.414,8.9645 7.438,8.9695 L7.627,9.0025 L8.523,9.8575 L9.304,9.0785 L9.387,9.0345 C9.444,9.0035 9.653,8.9045 9.938,8.9045 C10.249,8.9045 10.543,9.0205 10.787,9.2395 C11.287,9.6895 11.24,10.3395 10.984,10.7535 L10.96,10.7925 L10.931,10.8265 C10.709,11.0925 9.398,12.3705 9.137,12.6245 L9.072,12.6875 L8.991,12.7305 C8.92,12.7685 8.73,12.8555 8.495,12.8555" id="Fill-47" fill="#FFF000" sketch:type="MSShapeGroup" mask="url(#mask-4)"></path>
                <path d="M9.938,4.3775 C9.653,4.3775 9.444,4.2775 9.387,4.2475 L9.304,4.2025 L8.523,3.4245 L7.627,4.2785 L7.438,4.3125 C7.415,4.3165 7.29,4.3375 7.131,4.3375 C6.786,4.3375 6.506,4.2435 6.299,4.0595 C5.915,3.7155 5.897,3.1375 5.9,2.9685 L5.905,2.7195 L6.078,2.5395 C6.589,2.0075 7.793,0.7585 7.923,0.6405 C8.079,0.5005 8.277,0.4265 8.495,0.4265 C8.73,0.4265 8.92,0.5135 8.991,0.5515 L9.072,0.5935 L9.137,0.6575 C9.398,0.9115 10.709,2.1885 10.931,2.4555 L10.96,2.4895 L10.984,2.5275 C11.24,2.9415 11.287,3.5925 10.787,4.0425 C10.543,4.2615 10.249,4.3775 9.938,4.3775" id="Fill-48" fill="#FFF000" sketch:type="MSShapeGroup" mask="url(#mask-4)"></path>
                <path d="M12.1852,9.276 C11.9712,9.276 11.4392,9.237 11.1172,8.876 C10.7632,8.48 10.8332,7.905 10.8632,7.738 L10.8972,7.549 L11.7512,6.653 L10.9732,5.872 L10.9282,5.789 C10.7822,5.516 10.6622,4.914 11.1332,4.389 C11.3552,4.142 11.6572,4.006 11.9832,4.006 C12.3202,4.006 12.5772,4.148 12.6482,4.192 L12.6862,4.216 L12.7212,4.245 C12.9872,4.467 14.2652,5.778 14.5182,6.039 L14.5822,6.104 L14.6242,6.185 C14.7732,6.466 14.8392,6.915 14.5352,7.253 C14.4182,7.383 13.1682,8.586 12.6362,9.098 L12.4582,9.269 L12.2072,9.276 L12.1852,9.276 Z" id="Fill-49" fill="#FFF000" sketch:type="MSShapeGroup" mask="url(#mask-4)"></path>
                <path d="M4.8628,9.2758 L4.6158,9.2688 L4.4338,9.0978 C3.9018,8.5868 2.6518,7.3828 2.5348,7.2528 C2.2308,6.9148 2.2968,6.4658 2.4458,6.1848 L2.4878,6.1038 L2.5518,6.0388 C2.8048,5.7778 4.0828,4.4668 4.3498,4.2448 L4.3838,4.2158 L4.4218,4.1918 C4.4928,4.1488 4.7498,4.0058 5.0868,4.0058 C5.4128,4.0058 5.7148,4.1418 5.9368,4.3888 C6.4088,4.9138 6.2878,5.5158 6.1418,5.7888 L6.0968,5.8718 L5.3188,6.6528 L6.1728,7.5488 L6.2068,7.7378 C6.2368,7.9048 6.3068,8.4808 5.9528,8.8768 C5.6318,9.2368 5.0988,9.2758 4.8848,9.2758 L4.8628,9.2758 Z" id="Fill-50" fill="#FFF000" sketch:type="MSShapeGroup" mask="url(#mask-4)"></path>
                <path d="M6.615,8.487 L5.53,8.487 L5.53,4.739 L6.615,4.739 L6.615,8.487 Z" id="Fill-51" fill="#009944" sketch:type="MSShapeGroup" mask="url(#mask-4)"></path>
                <path d="M11.52,8.487 L10.435,8.487 L10.435,4.739 L11.52,4.739 L11.52,8.487 Z" id="Fill-52" fill="#009944" sketch:type="MSShapeGroup" mask="url(#mask-4)"></path>
                <path d="M10.435,4.738 L6.615,4.738 L6.615,3.653 L10.435,3.653 L10.435,4.738 Z" id="Fill-53" fill="#009944" sketch:type="MSShapeGroup" mask="url(#mask-4)"></path>
                <path d="M10.435,9.572 L6.615,9.572 L6.615,8.487 L10.435,8.487 L10.435,9.572 Z" id="Fill-54" fill="#009944" sketch:type="MSShapeGroup" mask="url(#mask-4)"></path>
                <path d="M8.5253,4.9881 C7.6283,4.9881 6.9013,5.7151 6.9013,6.6121 C6.9013,7.5101 7.6283,8.2371 8.5253,8.2371 C9.4223,8.2371 10.1493,7.5101 10.1493,6.6121 C10.1493,5.7151 9.4223,4.9881 8.5253,4.9881 M9.2463,6.6121 C9.2463,7.0111 8.9233,7.3331 8.5253,7.3331 C8.1273,7.3331 7.8043,7.0111 7.8043,6.6121 C7.8043,6.2141 8.1273,5.8911 8.5253,5.8911 C8.9233,5.8911 9.2463,6.2141 9.2463,6.6121" id="Fill-55" fill="#009944" sketch:type="MSShapeGroup" mask="url(#mask-4)"></path>
                <path d="M10.5266,9.9695 C10.1626,9.6425 9.7896,9.8415 9.7896,9.8415 L8.5256,11.1025 L7.2036,9.8415 C7.2036,9.8415 6.7586,9.7625 6.5446,9.9535 C6.3316,10.1435 6.3416,10.6115 6.3416,10.6115 C6.3416,10.6115 8.1856,12.5305 8.3246,12.6555 C8.4646,12.7805 8.7006,12.6555 8.7006,12.6555 C8.7006,12.6555 10.3836,11.0195 10.6146,10.7415 C10.6146,10.7415 10.8906,10.2965 10.5266,9.9695" id="Fill-56" fill="#009944" sketch:type="MSShapeGroup" mask="url(#mask-4)"></path>
                <path d="M10.5266,3.24 C10.1626,3.567 9.7896,3.368 9.7896,3.368 L8.5256,2.107 L7.2036,3.368 C7.2036,3.368 6.7586,3.447 6.5446,3.256 C6.3316,3.066 6.3416,2.598 6.3416,2.598 C6.3416,2.598 8.1856,0.679 8.3246,0.554 C8.4646,0.429 8.7006,0.554 8.7006,0.554 C8.7006,0.554 10.3836,2.19 10.6146,2.468 C10.6146,2.468 10.8906,2.913 10.5266,3.24" id="Fill-57" fill="#009944" sketch:type="MSShapeGroup" mask="url(#mask-4)"></path>
                <path d="M11.8928,4.6062 C11.5658,4.9692 11.7648,5.3422 11.7648,5.3422 L13.0258,6.6072 L11.7648,7.9292 C11.7648,7.9292 11.6858,8.3742 11.8768,8.5872 C12.0668,8.8012 12.5348,8.7912 12.5348,8.7912 C12.5348,8.7912 14.4538,6.9462 14.5788,6.8072 C14.7038,6.6682 14.5788,6.4322 14.5788,6.4322 C14.5788,6.4322 12.9428,4.7492 12.6648,4.5172 C12.6648,4.5172 12.2198,4.2422 11.8928,4.6062" id="Fill-58" fill="#009944" sketch:type="MSShapeGroup" mask="url(#mask-4)"></path>
                <path d="M5.1633,4.6062 C5.4903,4.9692 5.2913,5.3422 5.2913,5.3422 L4.0303,6.6072 L5.2913,7.9292 C5.2913,7.9292 5.3703,8.3742 5.1793,8.5872 C4.9893,8.8012 4.5213,8.7912 4.5213,8.7912 C4.5213,8.7912 2.6023,6.9462 2.4773,6.8072 C2.3523,6.6682 2.4773,6.4322 2.4773,6.4322 C2.4773,6.4322 4.1133,4.7492 4.3913,4.5172 C4.3913,4.5172 4.8363,4.2422 5.1633,4.6062" id="Fill-59" fill="#009944" sketch:type="MSShapeGroup" mask="url(#mask-4)"></path>
                <path d="M26.4182,13.524 L26.1892,13.667 C25.9912,13.404 25.7222,13.272 25.3792,13.272 C25.1062,13.272 24.8792,13.361 24.6982,13.537 C24.5182,13.712 24.4272,13.926 24.4272,14.177 C24.4272,14.341 24.4692,14.495 24.5522,14.639 C24.6352,14.784 24.7492,14.895 24.8942,14.975 C25.0392,15.055 25.2012,15.095 25.3812,15.095 C25.7112,15.095 25.9812,14.963 26.1892,14.701 L26.4182,14.851 C26.3112,15.013 26.1672,15.138 25.9862,15.227 C25.8052,15.317 25.5992,15.361 25.3682,15.361 C25.0132,15.361 24.7192,15.249 24.4842,15.023 C24.2512,14.797 24.1342,14.522 24.1342,14.199 C24.1342,13.982 24.1892,13.78 24.2982,13.593 C24.4072,13.407 24.5582,13.261 24.7492,13.157 C24.9392,13.052 25.1542,13.001 25.3912,13.001 C25.5392,13.001 25.6832,13.023 25.8212,13.068 C25.9592,13.114 26.0762,13.172 26.1732,13.246 C26.2692,13.319 26.3512,13.412 26.4182,13.524" id="Fill-60" fill="#939394" sketch:type="MSShapeGroup" mask="url(#mask-4)"></path>
                <path d="M28.4583,13.2828 C28.2183,13.2828 28.0123,13.3718 27.8393,13.5498 C27.6663,13.7258 27.5803,13.9408 27.5803,14.1928 C27.5803,14.3548 27.6193,14.5068 27.6983,14.6468 C27.7763,14.7878 27.8833,14.8958 28.0173,14.9718 C28.1503,15.0488 28.2983,15.0868 28.4583,15.0868 C28.6183,15.0868 28.7663,15.0488 28.8993,14.9718 C29.0333,14.8958 29.1403,14.7878 29.2183,14.6468 C29.2973,14.5068 29.3363,14.3548 29.3363,14.1928 C29.3363,13.9408 29.2493,13.7258 29.0763,13.5498 C28.9033,13.3718 28.6973,13.2828 28.4583,13.2828 M28.4593,13.0008 C28.8053,13.0008 29.0923,13.1258 29.3193,13.3758 C29.5253,13.6038 29.6293,13.8748 29.6293,14.1868 C29.6293,14.5008 29.5203,14.7748 29.3023,15.0098 C29.0833,15.2438 28.8023,15.3608 28.4593,15.3608 C28.1143,15.3608 27.8333,15.2438 27.6143,15.0098 C27.3963,14.7748 27.2873,14.5008 27.2873,14.1868 C27.2873,13.8758 27.3913,13.6058 27.5973,13.3778 C27.8243,13.1258 28.1113,13.0008 28.4593,13.0008" id="Fill-61" fill="#939394" sketch:type="MSShapeGroup" mask="url(#mask-4)"></path>
                <path d="M31.6487,13.2828 C31.4087,13.2828 31.2027,13.3718 31.0297,13.5498 C30.8567,13.7258 30.7707,13.9408 30.7707,14.1928 C30.7707,14.3548 30.8097,14.5068 30.8887,14.6468 C30.9667,14.7878 31.0737,14.8958 31.2077,14.9718 C31.3407,15.0488 31.4887,15.0868 31.6487,15.0868 C31.8087,15.0868 31.9567,15.0488 32.0897,14.9718 C32.2237,14.8958 32.3307,14.7878 32.4087,14.6468 C32.4877,14.5068 32.5267,14.3548 32.5267,14.1928 C32.5267,13.9408 32.4397,13.7258 32.2667,13.5498 C32.0937,13.3718 31.8877,13.2828 31.6487,13.2828 M31.6497,13.0008 C31.9957,13.0008 32.2827,13.1258 32.5097,13.3758 C32.7157,13.6038 32.8197,13.8748 32.8197,14.1868 C32.8197,14.5008 32.7107,14.7748 32.4927,15.0098 C32.2737,15.2438 31.9927,15.3608 31.6497,15.3608 C31.3047,15.3608 31.0237,15.2438 30.8047,15.0098 C30.5867,14.7748 30.4777,14.5008 30.4777,14.1868 C30.4777,13.8758 30.5817,13.6058 30.7877,13.3778 C31.0147,13.1258 31.3017,13.0008 31.6497,13.0008" id="Fill-62" fill="#939394" sketch:type="MSShapeGroup" mask="url(#mask-4)"></path>
                <path d="M34.9368,13.2789 C34.6878,13.2789 34.4768,13.3659 34.3058,13.5409 C34.1348,13.7159 34.0498,13.9319 34.0498,14.1919 C34.0498,14.3619 34.0878,14.5149 34.1648,14.6519 C34.2408,14.7879 34.3488,14.8949 34.4918,14.9749 C34.6328,15.0549 34.7838,15.0949 34.9418,15.0949 C35.0958,15.0949 35.2428,15.0539 35.3788,14.9739 C35.5148,14.8939 35.6238,14.7819 35.7058,14.6369 C35.7868,14.4929 35.8268,14.3409 35.8268,14.1839 C35.8268,14.0239 35.7868,13.8729 35.7068,13.7299 C35.6258,13.5879 35.5178,13.4759 35.3818,13.3969 C35.2468,13.3179 35.0978,13.2789 34.9368,13.2789 L34.9368,13.2789 Z M33.7818,13.0579 L34.0708,13.0579 L34.0708,13.4699 C34.1848,13.3139 34.3158,13.1959 34.4638,13.1179 C34.6128,13.0399 34.7788,13.0009 34.9608,13.0009 C35.2798,13.0009 35.5528,13.1149 35.7798,13.3439 C36.0058,13.5749 36.1198,13.8509 36.1198,14.1749 C36.1198,14.5049 36.0068,14.7849 35.7828,15.0149 C35.5578,15.2459 35.2868,15.3609 34.9688,15.3609 C34.7908,15.3609 34.6258,15.3239 34.4768,15.2499 C34.3268,15.1749 34.1918,15.0649 34.0708,14.9179 L34.0708,16.1249 L33.7818,16.1249 L33.7818,13.0579 Z" id="Fill-63" fill="#939394" sketch:type="MSShapeGroup" mask="url(#mask-4)"></path>
                <path d="M38.1448,13.2828 C37.9048,13.2828 37.6988,13.3718 37.5258,13.5498 C37.3528,13.7258 37.2668,13.9408 37.2668,14.1928 C37.2668,14.3548 37.3058,14.5068 37.3848,14.6468 C37.4628,14.7878 37.5698,14.8958 37.7038,14.9718 C37.8368,15.0488 37.9848,15.0868 38.1448,15.0868 C38.3048,15.0868 38.4528,15.0488 38.5858,14.9718 C38.7198,14.8958 38.8268,14.7878 38.9048,14.6468 C38.9838,14.5068 39.0228,14.3548 39.0228,14.1928 C39.0228,13.9408 38.9358,13.7258 38.7628,13.5498 C38.5898,13.3718 38.3838,13.2828 38.1448,13.2828 M38.1458,13.0008 C38.4918,13.0008 38.7788,13.1258 39.0058,13.3758 C39.2118,13.6038 39.3158,13.8748 39.3158,14.1868 C39.3158,14.5008 39.2068,14.7748 38.9888,15.0098 C38.7698,15.2438 38.4888,15.3608 38.1458,15.3608 C37.8008,15.3608 37.5198,15.2438 37.3008,15.0098 C37.0828,14.7748 36.9738,14.5008 36.9738,14.1868 C36.9738,13.8758 37.0778,13.6058 37.2838,13.3778 C37.5108,13.1258 37.7978,13.0008 38.1458,13.0008" id="Fill-64" fill="#939394" sketch:type="MSShapeGroup" mask="url(#mask-4)"></path>
                <path d="M40.0598,13.0582 L40.3678,13.0582 L41.1218,14.6952 L41.8658,13.0582 L42.1748,13.0582 L41.1478,15.3032 L41.0938,15.3032 L40.0598,13.0582 Z" id="Fill-65" fill="#939394" sketch:type="MSShapeGroup" mask="url(#mask-4)"></path>
                <path d="M44.928,13.9537 C44.89,13.7997 44.834,13.6767 44.76,13.5847 C44.687,13.4917 44.589,13.4177 44.468,13.3607 C44.346,13.3057 44.219,13.2767 44.085,13.2767 C43.865,13.2767 43.676,13.3477 43.517,13.4887 C43.402,13.5927 43.314,13.7477 43.255,13.9537 L44.928,13.9537 Z M44.928,14.5577 L45.172,14.6857 C45.092,14.8437 45,14.9697 44.895,15.0657 C44.79,15.1627 44.673,15.2357 44.542,15.2857 C44.411,15.3357 44.263,15.3607 44.098,15.3607 C43.732,15.3607 43.446,15.2407 43.239,15.0007 C43.032,14.7617 42.929,14.4897 42.929,14.1867 C42.929,13.9017 43.016,13.6477 43.191,13.4257 C43.412,13.1417 43.709,13.0007 44.081,13.0007 C44.464,13.0007 44.77,13.1447 44.998,13.4347 C45.161,13.6407 45.243,13.8957 45.246,14.2037 L43.226,14.2037 C43.232,14.4647 43.315,14.6787 43.476,14.8447 C43.637,15.0117 43.836,15.0957 44.074,15.0957 C44.188,15.0957 44.298,15.0747 44.407,15.0347 C44.515,14.9957 44.607,14.9427 44.683,14.8767 C44.758,14.8107 44.84,14.7047 44.928,14.5577 L44.928,14.5577 Z" id="Fill-66" fill="#939394" sketch:type="MSShapeGroup" mask="url(#mask-4)"></path>
                <path d="M46.0979,13.0582 L46.3929,13.0582 L46.3929,13.3862 C46.4809,13.2562 46.5739,13.1602 46.6709,13.0962 C46.7689,13.0322 46.8699,13.0002 46.9769,13.0002 C47.0569,13.0002 47.1419,13.0262 47.2329,13.0772 L47.0819,13.3202 C47.0219,13.2932 46.9709,13.2812 46.9289,13.2812 C46.8329,13.2812 46.7409,13.3202 46.6509,13.3992 C46.5609,13.4782 46.4939,13.6012 46.4469,13.7682 C46.4099,13.8962 46.3929,14.1552 46.3929,14.5432 L46.3929,15.3032 L46.0979,15.3032 L46.0979,13.0582 Z" id="Fill-67" fill="#939394" sketch:type="MSShapeGroup" mask="url(#mask-4)"></path>
                <path d="M49.0305,13.3033 L48.8435,13.4953 C48.6895,13.3453 48.5395,13.2703 48.3905,13.2703 C48.2975,13.2703 48.2175,13.3013 48.1505,13.3633 C48.0835,13.4253 48.0505,13.4973 48.0505,13.5793 C48.0505,13.6533 48.0775,13.7223 48.1335,13.7883 C48.1875,13.8563 48.3035,13.9353 48.4795,14.0263 C48.6955,14.1373 48.8415,14.2443 48.9185,14.3483 C48.9945,14.4523 49.0325,14.5703 49.0325,14.7003 C49.0325,14.8853 48.9675,15.0413 48.8385,15.1693 C48.7085,15.2973 48.5465,15.3613 48.3515,15.3613 C48.2225,15.3613 48.0985,15.3323 47.9815,15.2773 C47.8635,15.2203 47.7655,15.1423 47.6885,15.0433 L47.8705,14.8363 C48.0175,15.0033 48.1745,15.0863 48.3405,15.0863 C48.4555,15.0863 48.5535,15.0493 48.6355,14.9753 C48.7175,14.9013 48.7585,14.8133 48.7585,14.7133 C48.7585,14.6303 48.7305,14.5573 48.6765,14.4913 C48.6235,14.4293 48.5025,14.3493 48.3125,14.2523 C48.1105,14.1483 47.9725,14.0453 47.8995,13.9433 C47.8265,13.8413 47.7905,13.7253 47.7905,13.5943 C47.7905,13.4233 47.8475,13.2823 47.9645,13.1693 C48.0815,13.0563 48.2275,13.0003 48.4055,13.0003 C48.6125,13.0003 48.8205,13.1013 49.0305,13.3033" id="Fill-68" fill="#939394" sketch:type="MSShapeGroup" mask="url(#mask-4)"></path>
                <path d="M51.8548,13.9537 C51.8168,13.7997 51.7608,13.6767 51.6868,13.5847 C51.6138,13.4917 51.5158,13.4177 51.3948,13.3607 C51.2728,13.3057 51.1458,13.2767 51.0118,13.2767 C50.7918,13.2767 50.6028,13.3477 50.4438,13.4887 C50.3288,13.5927 50.2408,13.7477 50.1818,13.9537 L51.8548,13.9537 Z M51.8548,14.5577 L52.0988,14.6857 C52.0188,14.8437 51.9268,14.9697 51.8218,15.0657 C51.7168,15.1627 51.5998,15.2357 51.4688,15.2857 C51.3378,15.3357 51.1898,15.3607 51.0248,15.3607 C50.6588,15.3607 50.3728,15.2407 50.1658,15.0007 C49.9588,14.7617 49.8558,14.4897 49.8558,14.1867 C49.8558,13.9017 49.9428,13.6477 50.1178,13.4257 C50.3388,13.1417 50.6358,13.0007 51.0078,13.0007 C51.3908,13.0007 51.6968,13.1447 51.9248,13.4347 C52.0878,13.6407 52.1698,13.8957 52.1728,14.2037 L50.1528,14.2037 C50.1588,14.4647 50.2418,14.6787 50.4028,14.8447 C50.5638,15.0117 50.7628,15.0957 51.0008,15.0957 C51.1148,15.0957 51.2248,15.0747 51.3338,15.0347 C51.4418,14.9957 51.5338,14.9427 51.6098,14.8767 C51.6848,14.8107 51.7668,14.7047 51.8548,14.5577 L51.8548,14.5577 Z" id="Fill-69" fill="#939394" sketch:type="MSShapeGroup" mask="url(#mask-4)"></path>
                <path d="M54.2171,13.2789 C54.0561,13.2789 53.9071,13.3179 53.7721,13.3969 C53.6361,13.4759 53.5281,13.5879 53.4471,13.7299 C53.3661,13.8729 53.3261,14.0239 53.3261,14.1839 C53.3261,14.3409 53.3671,14.4929 53.4481,14.6369 C53.5301,14.7819 53.6381,14.8939 53.7751,14.9739 C53.9111,15.0539 54.0591,15.0949 54.2151,15.0949 C54.3731,15.0949 54.5231,15.0549 54.6641,14.9749 C54.8061,14.8949 54.9151,14.7879 54.9911,14.6519 C55.0681,14.5149 55.1061,14.3619 55.1061,14.1919 C55.1061,13.9319 55.0201,13.7159 54.8491,13.5409 C54.6781,13.3659 54.4671,13.2789 54.2171,13.2789 L54.2171,13.2789 Z M55.3721,13.0579 L55.3721,15.3029 L55.0871,15.3029 L55.0871,14.9179 C54.9661,15.0649 54.8301,15.1749 54.6801,15.2499 C54.5291,15.3239 54.3631,15.3609 54.1851,15.3609 C53.8671,15.3609 53.5961,15.2459 53.3711,15.0149 C53.1461,14.7849 53.0331,14.5049 53.0331,14.1749 C53.0331,13.8509 53.1471,13.5749 53.3741,13.3439 C53.6011,13.1149 53.8741,13.0009 54.1941,13.0009 C54.3781,13.0009 54.5441,13.0399 54.6941,13.1179 C54.8431,13.1959 54.9741,13.3139 55.0871,13.4699 L55.0871,13.0579 L55.3721,13.0579 Z" id="Fill-70" fill="#939394" sketch:type="MSShapeGroup" mask="url(#mask-4)"></path>
                <path d="M57.5735,13.3033 L57.3865,13.4953 C57.2325,13.3453 57.0825,13.2703 56.9335,13.2703 C56.8405,13.2703 56.7605,13.3013 56.6935,13.3633 C56.6265,13.4253 56.5935,13.4973 56.5935,13.5793 C56.5935,13.6533 56.6205,13.7223 56.6765,13.7883 C56.7305,13.8563 56.8465,13.9353 57.0225,14.0263 C57.2385,14.1373 57.3845,14.2443 57.4615,14.3483 C57.5375,14.4523 57.5755,14.5703 57.5755,14.7003 C57.5755,14.8853 57.5105,15.0413 57.3815,15.1693 C57.2515,15.2973 57.0895,15.3613 56.8945,15.3613 C56.7655,15.3613 56.6415,15.3323 56.5245,15.2773 C56.4065,15.2203 56.3085,15.1423 56.2315,15.0433 L56.4135,14.8363 C56.5605,15.0033 56.7175,15.0863 56.8835,15.0863 C56.9985,15.0863 57.0965,15.0493 57.1785,14.9753 C57.2605,14.9013 57.3015,14.8133 57.3015,14.7133 C57.3015,14.6303 57.2735,14.5573 57.2195,14.4913 C57.1665,14.4293 57.0455,14.3493 56.8555,14.2523 C56.6535,14.1483 56.5155,14.0453 56.4425,13.9433 C56.3695,13.8413 56.3335,13.7253 56.3335,13.5943 C56.3335,13.4233 56.3905,13.2823 56.5075,13.1693 C56.6245,13.0563 56.7705,13.0003 56.9485,13.0003 C57.1555,13.0003 57.3635,13.1013 57.5735,13.3033" id="Fill-71" fill="#939394" sketch:type="MSShapeGroup" mask="url(#mask-4)"></path>
                <path d="M59.6819,15.0826 C59.8429,15.0826 59.9909,15.0426 60.1269,14.9636 C60.2629,14.8846 60.3699,14.7736 60.4519,14.6306 C60.5319,14.4876 60.5719,14.3366 60.5719,14.1766 C60.5719,14.0176 60.5319,13.8646 60.4509,13.7206 C60.3689,13.5756 60.2599,13.4636 60.1229,13.3836 C59.9879,13.3026 59.8409,13.2626 59.6859,13.2626 C59.5289,13.2626 59.3779,13.3026 59.2369,13.3836 C59.0939,13.4636 58.9849,13.5716 58.9089,13.7076 C58.8319,13.8446 58.7939,13.9976 58.7939,14.1686 C58.7939,14.4286 58.8799,14.6456 59.0509,14.8196 C59.2219,14.9946 59.4319,15.0826 59.6819,15.0826 L59.6819,15.0826 Z M58.5269,15.3036 L58.5269,12.1906 L58.8159,12.1906 L58.8159,13.4436 C58.9359,13.2956 59.0719,13.1846 59.2209,13.1106 C59.3709,13.0366 59.5359,13.0006 59.7139,13.0006 C60.0319,13.0006 60.3029,13.1156 60.5279,13.3466 C60.7519,13.5766 60.8649,13.8556 60.8649,14.1856 C60.8649,14.5096 60.7509,14.7866 60.5249,15.0166 C60.2969,15.2466 60.0249,15.3606 59.7059,15.3606 C59.5229,15.3606 59.3579,15.3216 59.2089,15.2436 C59.0609,15.1646 58.9289,15.0476 58.8159,14.8906 L58.8159,15.3036 L58.5269,15.3036 Z" id="Fill-72" fill="#939394" sketch:type="MSShapeGroup" mask="url(#mask-4)"></path>
                <path d="M61.7766,13.0582 L62.0656,13.0582 L62.0656,14.1062 C62.0656,14.3622 62.0796,14.5382 62.1066,14.6342 C62.1476,14.7722 62.2266,14.8802 62.3426,14.9602 C62.4596,15.0402 62.5986,15.0802 62.7596,15.0802 C62.9216,15.0802 63.0576,15.0412 63.1706,14.9632 C63.2826,14.8862 63.3596,14.7842 63.4026,14.6582 C63.4306,14.5712 63.4456,14.3872 63.4456,14.1062 L63.4456,13.0582 L63.7416,13.0582 L63.7416,14.1602 C63.7416,14.4692 63.7056,14.7032 63.6326,14.8602 C63.5606,15.0162 63.4516,15.1392 63.3066,15.2282 C63.1616,15.3172 62.9796,15.3612 62.7606,15.3612 C62.5426,15.3612 62.3596,15.3172 62.2136,15.2282 C62.0666,15.1392 61.9576,15.0152 61.8846,14.8562 C61.8126,14.6982 61.7766,14.4582 61.7766,14.1392 L61.7766,13.0582 Z" id="Fill-73" fill="#939394" sketch:type="MSShapeGroup" mask="url(#mask-4)"></path>
                <path d="M64.5638,13.0582 L64.8698,13.0582 L65.6408,14.7872 L66.3908,13.0582 L66.6988,13.0582 L65.3588,16.1242 L65.0538,16.1242 L65.4858,15.1332 L64.5638,13.0582 Z" id="Fill-74" fill="#939394" sketch:type="MSShapeGroup" mask="url(#mask-4)"></path>
                <path d="M67.8118,14.8492 C67.8818,14.8492 67.9418,14.8732 67.9918,14.9232 C68.0408,14.9732 68.0658,15.0342 68.0658,15.1052 C68.0658,15.1752 68.0408,15.2362 67.9918,15.2862 C67.9418,15.3352 67.8818,15.3612 67.8118,15.3612 C67.7418,15.3612 67.6818,15.3352 67.6318,15.2862 C67.5828,15.2362 67.5578,15.1752 67.5578,15.1052 C67.5578,15.0342 67.5828,14.9732 67.6318,14.9232 C67.6818,14.8732 67.7418,14.8492 67.8118,14.8492" id="Fill-75" fill="#939394" sketch:type="MSShapeGroup" mask="url(#mask-4)"></path>
                <path d="M71.2659,13.524 L71.0369,13.667 C70.8389,13.404 70.5699,13.272 70.2269,13.272 C69.9539,13.272 69.7269,13.361 69.5459,13.537 C69.3659,13.712 69.2749,13.926 69.2749,14.177 C69.2749,14.341 69.3169,14.495 69.3999,14.639 C69.4829,14.784 69.5969,14.895 69.7419,14.975 C69.8869,15.055 70.0489,15.095 70.2289,15.095 C70.5589,15.095 70.8289,14.963 71.0369,14.701 L71.2659,14.851 C71.1589,15.013 71.0149,15.138 70.8339,15.227 C70.6529,15.317 70.4469,15.361 70.2159,15.361 C69.8609,15.361 69.5669,15.249 69.3319,15.023 C69.0989,14.797 68.9819,14.522 68.9819,14.199 C68.9819,13.982 69.0369,13.78 69.1459,13.593 C69.2549,13.407 69.4059,13.261 69.5969,13.157 C69.7869,13.052 70.0019,13.001 70.2389,13.001 C70.3869,13.001 70.5309,13.023 70.6689,13.068 C70.8069,13.114 70.9239,13.172 71.0209,13.246 C71.1169,13.319 71.1989,13.412 71.2659,13.524" id="Fill-76" fill="#939394" sketch:type="MSShapeGroup" mask="url(#mask-4)"></path>
                <path d="M73.3059,13.2828 C73.0659,13.2828 72.8599,13.3718 72.6869,13.5498 C72.5139,13.7258 72.4279,13.9408 72.4279,14.1928 C72.4279,14.3548 72.4669,14.5068 72.5459,14.6468 C72.6239,14.7878 72.7309,14.8958 72.8649,14.9718 C72.9979,15.0488 73.1459,15.0868 73.3059,15.0868 C73.4659,15.0868 73.6139,15.0488 73.7469,14.9718 C73.8809,14.8958 73.9879,14.7878 74.0659,14.6468 C74.1449,14.5068 74.1839,14.3548 74.1839,14.1928 C74.1839,13.9408 74.0969,13.7258 73.9239,13.5498 C73.7509,13.3718 73.5449,13.2828 73.3059,13.2828 M73.3069,13.0008 C73.6529,13.0008 73.9399,13.1258 74.1669,13.3758 C74.3729,13.6038 74.4769,13.8748 74.4769,14.1868 C74.4769,14.5008 74.3679,14.7748 74.1499,15.0098 C73.9309,15.2438 73.6499,15.3608 73.3069,15.3608 C72.9619,15.3608 72.6809,15.2438 72.4619,15.0098 C72.2439,14.7748 72.1349,14.5008 72.1349,14.1868 C72.1349,13.8758 72.2389,13.6058 72.4449,13.3778 C72.6719,13.1258 72.9589,13.0008 73.3069,13.0008" id="Fill-77" fill="#939394" sketch:type="MSShapeGroup" mask="url(#mask-4)"></path>
                <path d="M75.4329,13.0582 L75.7209,13.0582 L75.7209,13.4462 C75.8219,13.3022 75.9249,13.1982 76.0319,13.1322 C76.1769,13.0442 76.3309,13.0002 76.4929,13.0002 C76.6009,13.0002 76.7039,13.0212 76.8019,13.0642 C76.8999,13.1072 76.9799,13.1632 77.0409,13.2342 C77.1039,13.3052 77.1579,13.4072 77.2029,13.5382 C77.2989,13.3632 77.4189,13.2292 77.5629,13.1372 C77.7069,13.0452 77.8629,13.0002 78.0289,13.0002 C78.1839,13.0002 78.3209,13.0392 78.4389,13.1182 C78.5579,13.1962 78.6459,13.3052 78.7039,13.4462 C78.7609,13.5862 78.7899,13.7962 78.7899,14.0782 L78.7899,15.3032 L78.4959,15.3032 L78.4959,14.0782 C78.4959,13.8362 78.4779,13.6712 78.4439,13.5802 C78.4099,13.4912 78.3509,13.4182 78.2679,13.3632 C78.1849,13.3082 78.0859,13.2812 77.9709,13.2812 C77.8299,13.2812 77.7029,13.3222 77.5869,13.4052 C77.4709,13.4872 77.3859,13.5972 77.3329,13.7352 C77.2799,13.8722 77.2529,14.1022 77.2529,14.4242 L77.2529,15.3032 L76.9639,15.3032 L76.9639,14.1542 C76.9639,13.8822 76.9469,13.6992 76.9129,13.6022 C76.8789,13.5042 76.8209,13.4272 76.7369,13.3692 C76.6529,13.3102 76.5529,13.2812 76.4379,13.2812 C76.3039,13.2812 76.1789,13.3212 76.0629,13.4022 C75.9469,13.4822 75.8609,13.5902 75.8049,13.7262 C75.7489,13.8632 75.7209,14.0712 75.7209,14.3522 L75.7209,15.3032 L75.4329,15.3032 L75.4329,13.0582 Z" id="Fill-78" fill="#939394" sketch:type="MSShapeGroup" mask="url(#mask-4)"></path>
                <path d="M19.6307,2.9649 L19.6307,15.6109" id="Stroke-79" stroke="#CBCCCC" stroke-width="0.25" sketch:type="MSShapeGroup" mask="url(#mask-4)"></path>
            </g>
        </g>
    </g>
</svg>