<?xml version="1.0" encoding="UTF-8" standalone="no"?>
<svg width="330px" height="60px" viewBox="0 0 55 10" version="1.1" xmlns="http://www.w3.org/2000/svg" xmlns:xlink="http://www.w3.org/1999/xlink" xmlns:sketch="http://www.bohemiancoding.com/sketch/ns">
    <!-- Generator: Sketch 3.4.4 (17249) - http://www.bohemiancoding.com/sketch -->
    <title>Page 1</title>
    <desc>Created with Sketch.</desc>
    <defs>
        <path id="path-1" d="M0,0.439230769 L54.7769444,0.439230769 L54.7769444,10 L0,10 L0,0.439230769 Z"></path>
        <path id="path-3" d="M0,0.439230769 L54.7769444,0.439230769 L54.7769444,10 L0,10 L0,0.439230769 Z"></path>
    </defs>
    <g id="Page-1" stroke="none" stroke-width="1" fill="none" fill-rule="evenodd" sketch:type="MSPage">
        <g sketch:type="MSLayerGroup">
            <path d="M17.2875694,3.86384615 L15.4465972,3.86384615 L15.4465972,5.39769231 L17.2875694,5.39769231 L17.2875694,3.86384615 Z M13.1129167,5.39769231 L14.9302083,5.39769231 L14.9302083,3.86384615 L13.1129167,3.86384615 L13.1129167,5.39769231 Z M12.6209722,3.41692308 L14.9302083,3.41692308 L14.9302083,2.1 L15.4465972,2.1 L15.4465972,3.41692308 L17.7802778,3.41692308 L17.7802778,6.17153846 L17.2875694,6.17153846 L17.2875694,5.84461538 L15.4465972,5.84461538 L15.4465972,8.09230769 L14.9302083,8.09230769 L14.9302083,5.84461538 L13.1129167,5.84461538 L13.1129167,6.17153846 L12.6209722,6.17153846 L12.6209722,3.41692308 Z" id="Fill-1" fill="#444344" sketch:type="MSShapeGroup"></path>
            <g id="Group-34">
                <path d="M21.8584514,5.47076923 L22.1945625,5.21692308 C22.4153264,5.44692308 22.6032431,5.66230769 22.7590764,5.86384615 L22.4046319,6.13461538 C22.2128958,5.87307692 22.0310903,5.65153846 21.8584514,5.47076923 L21.8584514,5.47076923 Z M19.4476181,6.28 L21.1029653,6.28 L21.1029653,5.08384615 L19.6576875,5.08384615 L19.6576875,4.67384615 L21.1029653,4.67384615 L21.1029653,3.86384615 L19.5438681,3.86384615 L19.5438681,3.45307692 L23.1181042,3.45307692 L23.1181042,3.86384615 L21.5467847,3.86384615 L21.5467847,4.67384615 L22.9981736,4.67384615 L22.9981736,5.08384615 L21.5467847,5.08384615 L21.5467847,6.28 L23.2143542,6.28 L23.2143542,6.69076923 L19.4476181,6.69076923 L19.4476181,6.28 Z M23.4969931,2.85538462 L19.1718542,2.85538462 L19.1718542,7.33153846 L23.4969931,7.33153846 L23.4969931,2.85538462 Z M18.7097014,2.42615385 L23.9583819,2.42615385 L23.9583819,8.06153846 L23.4969931,8.06153846 L23.4969931,7.76 L19.1710903,7.76 L19.1710903,8.06769231 L18.7097014,8.06769231 L18.7097014,2.42615385 Z" id="Fill-2" fill="#444344" sketch:type="MSShapeGroup"></path>
                <path d="M28.5954931,6.51569231 L28.9491736,6.21338462 C29.5809097,6.80184615 30.0751458,7.29338462 30.4303542,7.68723077 L30.0346597,8.05569231 C29.6275069,7.56876923 29.1470208,7.05492308 28.5954931,6.51569231 L28.5954931,6.51569231 Z M27.5879236,5.60338462 L28.8827153,5.60338462 L28.8827153,3.93646154 L27.5879236,3.93646154 L27.5879236,5.60338462 Z M28.8827153,2.17261538 L29.3754236,2.17261538 L29.3754236,3.50184615 L30.2332708,3.50184615 L30.2332708,3.93646154 L29.3754236,3.93646154 L29.3754236,5.60338462 L30.4425764,5.60338462 L30.4425764,6.03876923 L26.0815347,6.03876923 L26.0815347,5.60338462 L27.0952153,5.60338462 L27.0952153,3.93646154 L26.3213958,3.93646154 L26.3213958,3.50184615 L27.0952153,3.50184615 L27.0952153,2.17876923 L27.5879236,2.17876923 L27.5879236,3.50184615 L28.8827153,3.50184615 L28.8827153,2.17261538 Z M27.8812569,6.528 C27.4091736,7.108 26.9179931,7.62492308 26.4061875,8.08030769 C26.2977153,7.95492308 26.1754931,7.83876923 26.0395208,7.72953846 C26.5475069,7.34338462 27.0234097,6.84646154 27.4672292,6.238 L27.8812569,6.528 Z M24.4261875,5.02415385 C25.0541042,4.17415385 25.5483403,3.20569231 25.9073681,2.118 L26.3878542,2.29338462 C26.1816042,2.83107692 25.9684792,3.32492308 25.7461875,3.77338462 L25.7461875,8.068 L25.2664653,8.068 L25.2664653,4.65184615 C25.0602153,4.99107692 24.8486181,5.29569231 24.6309097,5.568 C24.5736181,5.40261538 24.5056319,5.22107692 24.4261875,5.02415385 L24.4261875,5.02415385 Z" id="Fill-4" fill="#444344" sketch:type="MSShapeGroup"></path>
                <path d="M35.1743333,3.35084615 C35.4585,3.04084615 35.7342639,2.69776923 36.0023889,2.32392308 L36.3988472,2.62623077 C36.1544028,2.92315385 35.8549583,3.26007692 35.4989861,3.63469231 L35.1743333,3.35084615 Z M33.4051667,6.21930769 L35.7991944,6.21930769 L35.7991944,5.47007692 L33.4051667,5.47007692 L33.4051667,6.21930769 Z M35.7984306,4.29315385 L33.4044028,4.29315385 L33.4044028,5.03623077 L35.7984306,5.03623077 L35.7984306,4.29315385 Z M33.4051667,8.06776923 L32.9666944,8.06776923 L32.9666944,3.84007692 L34.3409306,3.84007692 L34.3409306,2.12392308 L34.8030833,2.12392308 L34.8030833,3.84007692 L36.2369028,3.84007692 L36.2369028,7.34315385 C36.2369028,7.81007692 36.0184306,8.04392308 35.58225,8.04392308 C35.3584306,8.04392308 35.0406528,8.03776923 34.6289167,8.02546154 C34.6052361,7.877 34.5769722,7.71161538 34.5448889,7.53084615 C34.9207222,7.55469231 35.2064167,7.56623077 35.4027361,7.56623077 C35.6670417,7.56623077 35.7984306,7.45392308 35.7984306,7.22853846 L35.7984306,6.65469231 L33.4051667,6.65469231 L33.4051667,8.06776923 Z M32.7696111,2.55930769 L33.0988472,2.30623077 C33.3868333,2.59161538 33.671,2.91392308 33.9505833,3.27161538 L33.5732222,3.58007692 C33.2974583,3.18930769 33.0293333,2.84930769 32.7696111,2.55930769 L32.7696111,2.55930769 Z M32.7275972,6.73238462 C32.7275972,6.91007692 32.7375278,7.07776923 32.7573889,7.23469231 C32.5014861,7.35930769 32.2035694,7.52469231 31.8636389,7.72930769 C31.7910694,7.77007692 31.7078056,7.83853846 31.6115556,7.93546154 L31.2937778,7.51853846 C31.4221111,7.40161538 31.4855139,7.25007692 31.4855139,7.06546154 L31.4855139,5.74853846 L30.6819028,5.74853846 L30.6819028,5.33161538 L31.4855139,5.33161538 L31.4855139,4.517 L31.0959306,4.517 L31.0959306,4.10007692 L32.6252361,4.10007692 L32.6252361,4.517 L31.9232222,4.517 L31.9232222,5.33161538 L32.7635,5.33161538 L32.7635,5.74853846 L31.9232222,5.74853846 L31.9232222,7.18623077 C32.2157917,7.02853846 32.4839167,6.87776923 32.7275972,6.73238462 L32.7275972,6.73238462 Z M30.6284306,3.98469231 C31.0164861,3.42546154 31.3258611,2.80315385 31.5580833,2.11776923 L32.00725,2.26930769 C31.8995417,2.53930769 31.7841944,2.79853846 31.6596806,3.04853846 L32.7696111,3.04853846 L32.7696111,3.46469231 L31.4496111,3.46469231 C31.2739167,3.79161538 31.0844722,4.10161538 30.87975,4.39546154 C30.8033611,4.25084615 30.7200972,4.11315385 30.6284306,3.98469231 L30.6284306,3.98469231 Z" id="Fill-6" fill="#444344" sketch:type="MSShapeGroup"></path>
                <path d="M39.9195347,4.38376923 L40.1899514,4.11146154 C40.4450903,4.30838462 40.6979375,4.51453846 40.9454375,4.72761538 L40.6391181,5.04146154 C40.3954375,4.79992308 40.1555764,4.58069231 39.9195347,4.38376923 L39.9195347,4.38376923 Z M39.8408542,5.92992308 L40.1173819,5.65761538 C40.3847431,5.86376923 40.6352986,6.07069231 40.8667569,6.27992308 L40.5550903,6.59453846 C40.3190486,6.36453846 40.0814792,6.143 39.8408542,5.92992308 L39.8408542,5.92992308 Z M41.7009236,4.03915385 L39.3259931,4.03915385 L39.1785625,5.13838462 L41.6741875,5.13838462 C41.6841181,4.79607692 41.6925208,4.42992308 41.7009236,4.03915385 L41.7009236,4.03915385 Z M41.6619653,5.56146154 L39.1250903,5.56146154 L38.9784236,6.673 L41.6207153,6.673 C41.6359931,6.343 41.6505069,5.97146154 41.6619653,5.56146154 L41.6619653,5.56146154 Z M38.1022431,5.13838462 L38.7171736,5.13838462 L38.9295347,3.62915385 L42.1630764,3.62915385 C42.1508542,4.18838462 42.1386319,4.69146154 42.1271736,5.13838462 L42.7566181,5.13838462 L42.7566181,5.56146154 L42.1118958,5.56146154 C42.0996736,5.99607692 42.0882153,6.36684615 42.0759931,6.673 L42.5648819,6.673 L42.5648819,7.08376923 L42.0484931,7.08376923 C42.0148819,7.37992308 41.9354375,7.60146154 41.8093958,7.74761538 C41.6650208,7.913 41.4091181,7.99530769 41.0416875,7.99530769 C40.8331458,7.99530769 40.5657847,7.98761538 40.2373125,7.97146154 C40.2174514,7.83453846 40.1899514,7.67069231 40.1540486,7.48223077 C40.5413403,7.51838462 40.8392569,7.53684615 41.0477986,7.53684615 C41.3487708,7.53684615 41.5290486,7.38530769 41.5871042,7.08376923 L38.5032847,7.08376923 L38.5032847,6.63684615 L38.6568264,5.56146154 L38.1022431,5.56146154 L38.1022431,5.13838462 Z M38.0541181,3.82223077 C38.5498819,3.35069231 38.9493958,2.77223077 39.2534236,2.08838462 L39.7637014,2.08838462 C39.6674514,2.29761538 39.5666181,2.49684615 39.4604375,2.68607692 L42.6305764,2.68607692 L42.6305764,3.10915385 L39.2083542,3.10915385 C38.9501597,3.51376923 38.6675208,3.86992308 38.3596736,4.17761538 C38.2680069,4.05684615 38.1656458,3.93838462 38.0541181,3.82223077 L38.0541181,3.82223077 Z M36.9984236,2.50530769 L37.3039792,2.18530769 C37.5446042,2.36992308 37.8776597,2.64992308 38.3062014,3.02376923 C38.1702292,3.15684615 38.0525903,3.27684615 37.9525208,3.38069231 C37.5201597,2.96607692 37.2023819,2.67376923 36.9984236,2.50530769 L36.9984236,2.50530769 Z M36.9502986,7.88684615 C37.1863403,7.18223077 37.3895347,6.41146154 37.5621736,5.57376923 C37.7386319,5.64992308 37.8998125,5.713 38.0480069,5.76069231 C37.8440486,6.54992308 37.6538403,7.313 37.4781458,8.04992308 L36.9502986,7.88684615 Z M36.7707847,4.11146154 L37.0709931,3.76684615 C37.4384236,4.02530769 37.7798819,4.28453846 38.0961319,4.54684615 C37.9525208,4.71223077 37.8356458,4.84069231 37.7477986,4.933 C37.3918264,4.61146154 37.0664097,4.33684615 36.7707847,4.11146154 L36.7707847,4.11146154 Z" id="Fill-8" fill="#444344" sketch:type="MSShapeGroup"></path>
                <path d="M46.6557361,2.167 L47.1591389,2.167 L47.1591389,4.24469231 L47.3997639,3.97315385 C47.9719167,4.42007692 48.4814306,4.82853846 48.9290694,5.19853846 L48.5868472,5.64546154 C48.1636528,5.25161538 47.68775,4.83084615 47.1591389,4.38392308 L47.1591389,8.08623077 L46.6557361,8.08623077 L46.6557361,2.167 Z M42.8645556,5.24084615 C43.4603889,4.32776923 43.9080278,3.28623077 44.2082361,2.11853846 L44.7001806,2.257 C44.6039306,2.58315385 44.504625,2.89776923 44.4007361,3.20007692 L46.0675417,3.20007692 L46.0675417,3.647 C45.8559444,5.64776923 44.9576111,7.11623077 43.3748333,8.04930769 C43.2908056,7.917 43.1869167,7.77392308 43.0631667,7.62084615 C43.8385139,7.15776923 44.4343472,6.57776923 44.8506667,5.88161538 C44.5703194,5.64392308 44.2563611,5.40238462 43.9080278,5.157 L44.2143472,4.78776923 C44.5542778,5.03776923 44.8445556,5.25776923 45.0836528,5.447 C45.3326806,4.927 45.4923333,4.33084615 45.5641389,3.65853846 L44.2265694,3.65853846 C43.9462222,4.37161538 43.5841389,5.07007692 43.1403194,5.75469231 C43.060875,5.58930769 42.9692083,5.41853846 42.8645556,5.24084615 L42.8645556,5.24084615 Z" id="Fill-10" fill="#444344" sketch:type="MSShapeGroup"></path>
                <g id="Group-14">
                    <mask id="mask-2" sketch:name="Clip 13" fill="white">
                        <use xlink:href="#path-1"></use>
                    </mask>
                    <g id="Clip-13"></g>
                    <path d="M53.0138125,4.95692308 L53.4278403,4.83692308 C53.6119375,5.41692308 53.7899236,6.02461538 53.9617986,6.66076923 L53.5118681,6.79384615 C53.4797847,6.67230769 53.4499931,6.55 53.4217292,6.42461538 C52.9977708,6.45307692 52.6181181,6.48769231 52.2827708,6.52769231 C52.1070764,6.54769231 51.9283264,6.58 51.7488125,6.62461538 L51.5631875,6.23153846 C51.7022153,6.14307692 51.8068681,6.02230769 51.8748542,5.87 C52.0948542,5.33384615 52.3018681,4.68923077 52.4981875,3.93692308 L52.9542292,4.04461538 C52.7136042,4.79 52.4760347,5.47692308 52.2399931,6.10461538 C52.5806875,6.08461538 52.9397153,6.06076923 53.3201319,6.03230769 C53.2238819,5.67769231 53.1222847,5.32 53.0138125,4.95692308 L53.0138125,4.95692308 Z M49.3914514,2.46923077 L51.4188125,2.46923077 L51.4188125,4.20230769 C51.8190903,3.58615385 52.1162431,2.89153846 52.3125625,2.11846154 L52.7861736,2.22692308 C52.6899236,2.51692308 52.5898542,2.79307692 52.4867292,3.05461538 L54.7776319,3.05461538 C54.7531875,5.01153846 54.7295069,6.31461538 54.7058264,6.96230769 C54.6699236,7.61461538 54.3376319,7.94153846 53.7097153,7.94153846 C53.3659653,7.94153846 53.0000625,7.93307692 52.6127708,7.91692308 C52.5883264,7.75615385 52.5562431,7.59076923 52.5165208,7.42153846 C52.9038125,7.46615385 53.2597847,7.49 53.5836736,7.49461538 C54.0038125,7.49 54.2261042,7.28076923 54.2497847,6.86538462 C54.2772847,6.18153846 54.2979097,5.05846154 54.3093681,3.49615385 L52.3064514,3.49615385 C52.1582569,3.84615385 52.0047153,4.16615385 51.8450625,4.45615385 C51.7281875,4.37923077 51.5868681,4.30461538 51.4188125,4.23307692 L51.4188125,6.21384615 L50.9872153,6.21384615 L50.9872153,2.91 L49.8230486,2.91 L49.8230486,6.25 L49.3914514,6.25 L49.3914514,2.46923077 Z M50.1889514,3.43461538 L50.6205486,3.43461538 L50.6205486,4.64923077 C50.6205486,5.43 50.5670764,6.03615385 50.4586042,6.46769231 L50.6327708,6.30461538 C51.0406875,6.73153846 51.3989514,7.12 51.7067986,7.47 L51.3286736,7.79076923 C51.0445069,7.42384615 50.7328403,7.05153846 50.3929097,6.67230769 C50.2492986,7.13153846 49.9032569,7.60153846 49.3555486,8.08076923 C49.2677014,7.95461538 49.1615208,7.83230769 49.0370069,7.71153846 C49.5052708,7.36153846 49.8154097,6.98692308 49.9674236,6.58769231 C50.1148542,6.24230769 50.1889514,5.65384615 50.1889514,4.82461538 L50.1889514,3.43461538 Z" id="Fill-12" fill="#444344" sketch:type="MSShapeGroup" mask="url(#mask-2)"></path>
                </g>
                <mask id="mask-4" sketch:name="Clip 16" fill="white">
                    <use xlink:href="#path-3"></use>
                </mask>
                <g id="Clip-16"></g>
                <path d="M2.16944444,3.41769231 L3.90118056,3.41769231 L3.90118056,7.03230769 L2.16944444,7.03230769 L2.16944444,3.41769231 Z" id="Fill-15" fill="#FFF000" sketch:type="MSShapeGroup" mask="url(#mask-4)"></path>
                <path d="M5.59090278,3.41769231 L7.32263889,3.41769231 L7.32263889,7.03230769 L5.59090278,7.03230769 L5.59090278,3.41769231 Z" id="Fill-17" fill="#FFF000" sketch:type="MSShapeGroup" mask="url(#mask-4)"></path>
                <path d="M2.92569444,2.65538462 L6.56486111,2.65538462 L6.56486111,4.39923077 L2.92569444,4.39923077 L2.92569444,2.65538462 Z" id="Fill-18" fill="#FFF000" sketch:type="MSShapeGroup" mask="url(#mask-4)"></path>
                <path d="M2.92569444,6.05076923 L6.56486111,6.05076923 L6.56486111,7.79461538 L2.92569444,7.79461538 L2.92569444,6.05076923 Z" id="Fill-19" fill="#FFF000" sketch:type="MSShapeGroup" mask="url(#mask-4)"></path>
                <path d="M4.74565972,5.20923077 C4.73725694,5.20923077 4.73038194,5.21615385 4.73038194,5.22461538 C4.73038194,5.23384615 4.73725694,5.24076923 4.74565972,5.24076923 C4.7540625,5.24076923 4.7609375,5.23384615 4.7609375,5.22461538 C4.7609375,5.21615385 4.7540625,5.20923077 4.74565972,5.20923077 M4.74565972,6.85692308 C3.85190972,6.85692308 3.12545139,6.12461538 3.12545139,5.22461538 C3.12545139,4.32538462 3.85190972,3.59307692 4.74565972,3.59307692 C5.63940972,3.59307692 6.36586806,4.32538462 6.36586806,5.22461538 C6.36586806,6.12461538 5.63940972,6.85692308 4.74565972,6.85692308" id="Fill-20" fill="#FFF000" sketch:type="MSShapeGroup" mask="url(#mask-4)"></path>
                <path d="M4.7169375,10 C4.55040972,10 4.39915972,9.94307692 4.27999306,9.83461538 C4.1806875,9.74461538 3.26096528,8.78307692 2.87061806,8.37384615 L2.73846528,8.23615385 L2.73464583,8.04461538 C2.73235417,7.91461538 2.74610417,7.46923077 3.0394375,7.20538462 C3.1975625,7.06307692 3.41145139,6.99153846 3.67499306,6.99153846 C3.79645139,6.99153846 3.89117361,7.00692308 3.90950694,7.01076923 L4.05388194,7.03615385 L4.73832639,7.69384615 L5.33492361,7.09461538 L5.39832639,7.06076923 C5.44186806,7.03692308 5.60152083,6.96076923 5.81922917,6.96076923 C6.05679861,6.96076923 6.28138194,7.05 6.46777083,7.21846154 C6.84971528,7.56461538 6.8138125,8.06461538 6.61825694,8.38307692 L6.59992361,8.41307692 L6.57777083,8.43923077 C6.4081875,8.64384615 5.40672917,9.62692308 5.20735417,9.82230769 L5.15770139,9.87076923 L5.09582639,9.90384615 C5.04159028,9.93307692 4.89645139,10 4.7169375,10" id="Fill-21" fill="#FFF000" sketch:type="MSShapeGroup" mask="url(#mask-4)"></path>
                <path d="M5.81922917,3.47846154 C5.60152083,3.47846154 5.44186806,3.40153846 5.39832639,3.37846154 L5.33492361,3.34384615 L4.73832639,2.74538462 L4.05388194,3.40230769 L3.90950694,3.42846154 C3.8919375,3.43153846 3.79645139,3.44769231 3.67499306,3.44769231 C3.41145139,3.44769231 3.1975625,3.37538462 3.0394375,3.23384615 C2.74610417,2.96923077 2.73235417,2.52461538 2.73464583,2.39461538 L2.73846528,2.20307692 L2.87061806,2.06461538 C3.26096528,1.65538462 4.1806875,0.693846154 4.27999306,0.603846154 C4.39915972,0.496153846 4.55040972,0.439230769 4.7169375,0.439230769 C4.89645139,0.439230769 5.04159028,0.506153846 5.09582639,0.535384615 L5.15770139,0.567692308 L5.20735417,0.616923077 C5.40672917,0.812307692 6.4081875,1.79461538 6.57777083,1.99923077 L6.59992361,2.02615385 L6.61825694,2.05538462 C6.8138125,2.37384615 6.84971528,2.87461538 6.46777083,3.22076923 C6.28138194,3.38923077 6.05679861,3.47846154 5.81922917,3.47846154" id="Fill-22" fill="#FFF000" sketch:type="MSShapeGroup" mask="url(#mask-4)"></path>
                <path d="M7.53584028,7.24653846 C7.37236806,7.24653846 6.96597917,7.21653846 6.72000694,6.93884615 C6.44959028,6.63423077 6.5030625,6.19192308 6.52597917,6.06346154 L6.55195139,5.91807692 L7.2043125,5.22884615 L6.61000694,4.62807692 L6.57563194,4.56423077 C6.46410417,4.35423077 6.3724375,3.89115385 6.73222917,3.48730769 C6.9018125,3.29730769 7.13250694,3.19269231 7.38153472,3.19269231 C7.63896528,3.19269231 7.83528472,3.30192308 7.88952083,3.33576923 L7.91854861,3.35423077 L7.94528472,3.37653846 C8.14847917,3.54730769 9.12472917,4.55576923 9.31799306,4.75653846 L9.36688194,4.80653846 L9.39896528,4.86884615 C9.51278472,5.085 9.56320139,5.43038462 9.33097917,5.69038462 C9.24160417,5.79038462 8.28674306,6.71576923 7.88035417,7.10961538 L7.74438194,7.24115385 L7.55264583,7.24653846 L7.53584028,7.24653846 Z" id="Fill-23" fill="#FFF000" sketch:type="MSShapeGroup" mask="url(#mask-4)"></path>
                <path d="M1.94234028,7.24638462 L1.75365972,7.241 L1.61463194,7.10946154 C1.20824306,6.71638462 0.253381944,5.79023077 0.164006944,5.69023077 C-0.0682152778,5.43023077 -0.0177986111,5.08484615 0.0960208333,4.86869231 L0.128104167,4.80638462 L0.176993056,4.75638462 C0.370256944,4.55561538 1.34650694,3.54715385 1.55046528,3.37638462 L1.5764375,3.35407692 L1.60546528,3.33561538 C1.65970139,3.30253846 1.85602083,3.19253846 2.11345139,3.19253846 C2.36247917,3.19253846 2.59317361,3.29715385 2.76275694,3.48715385 C3.1233125,3.891 3.03088194,4.35407692 2.91935417,4.56407692 L2.88497917,4.62792308 L2.29067361,5.22869231 L2.94303472,5.91792308 L2.96900694,6.06330769 C2.99192361,6.19176923 3.04539583,6.63484615 2.77497917,6.93946154 C2.52977083,7.21638462 2.12261806,7.24638462 1.95914583,7.24638462 L1.94234028,7.24638462 Z" id="Fill-24" fill="#FFF000" sketch:type="MSShapeGroup" mask="url(#mask-4)"></path>
                <path d="M3.28090278,6.63923077 L2.45208333,6.63923077 L2.45208333,3.75615385 L3.28090278,3.75615385 L3.28090278,6.63923077 Z" id="Fill-25" fill="#009944" sketch:type="MSShapeGroup" mask="url(#mask-4)"></path>
                <path d="M7.02777778,6.63923077 L6.19895833,6.63923077 L6.19895833,3.75615385 L7.02777778,3.75615385 L7.02777778,6.63923077 Z" id="Fill-26" fill="#009944" sketch:type="MSShapeGroup" mask="url(#mask-4)"></path>
                <path d="M6.19895833,3.75615385 L3.28090278,3.75615385 L3.28090278,2.92153846 L6.19895833,2.92153846 L6.19895833,3.75615385 Z" id="Fill-27" fill="#009944" sketch:type="MSShapeGroup" mask="url(#mask-4)"></path>
                <path d="M6.19895833,7.47384615 L3.28090278,7.47384615 L3.28090278,6.63923077 L6.19895833,6.63923077 L6.19895833,7.47384615 Z" id="Fill-28" fill="#009944" sketch:type="MSShapeGroup" mask="url(#mask-4)"></path>
                <path d="M4.74015972,3.94815385 C4.05495139,3.94815385 3.49960417,4.50738462 3.49960417,5.19738462 C3.49960417,5.88815385 4.05495139,6.44738462 4.74015972,6.44738462 C5.42536806,6.44738462 5.98071528,5.88815385 5.98071528,5.19738462 C5.98071528,4.50738462 5.42536806,3.94815385 4.74015972,3.94815385 M5.29092361,5.19738462 C5.29092361,5.50430769 5.0441875,5.752 4.74015972,5.752 C4.43613194,5.752 4.18939583,5.50430769 4.18939583,5.19738462 C4.18939583,4.89123077 4.43613194,4.64276923 4.74015972,4.64276923 C5.0441875,4.64276923 5.29092361,4.89123077 5.29092361,5.19738462" id="Fill-29" fill="#009944" sketch:type="MSShapeGroup" mask="url(#mask-4)"></path>
                <path d="M6.26893056,7.78 C5.990875,7.52846154 5.70594444,7.68153846 5.70594444,7.68153846 L4.74038889,8.65153846 L3.73052778,7.68153846 C3.73052778,7.68153846 3.39059722,7.62076923 3.227125,7.76769231 C3.06441667,7.91384615 3.07205556,8.27384615 3.07205556,8.27384615 C3.07205556,8.27384615 4.48066667,9.75 4.58684722,9.84615385 C4.69379167,9.94230769 4.87406944,9.84615385 4.87406944,9.84615385 C4.87406944,9.84615385 6.15969444,8.58769231 6.33615278,8.37384615 C6.33615278,8.37384615 6.54698611,8.03153846 6.26893056,7.78" id="Fill-30" fill="#009944" sketch:type="MSShapeGroup" mask="url(#mask-4)"></path>
                <path d="M6.26893056,2.60346154 C5.990875,2.855 5.70594444,2.70192308 5.70594444,2.70192308 L4.74038889,1.73192308 L3.73052778,2.70192308 C3.73052778,2.70192308 3.39059722,2.76269231 3.227125,2.61576923 C3.06441667,2.46961538 3.07205556,2.10961538 3.07205556,2.10961538 C3.07205556,2.10961538 4.48066667,0.633461538 4.58684722,0.537307692 C4.69379167,0.441153846 4.87406944,0.537307692 4.87406944,0.537307692 C4.87406944,0.537307692 6.15969444,1.79576923 6.33615278,2.00961538 C6.33615278,2.00961538 6.54698611,2.35192308 6.26893056,2.60346154" id="Fill-31" fill="#009944" sketch:type="MSShapeGroup" mask="url(#mask-4)"></path>
                <path d="M7.31247917,3.65438462 C7.0626875,3.93361538 7.21470139,4.22053846 7.21470139,4.22053846 L8.17796528,5.19361538 L7.21470139,6.21053846 C7.21470139,6.21053846 7.15435417,6.55284615 7.30025694,6.71669231 C7.44539583,6.88130769 7.80289583,6.87361538 7.80289583,6.87361538 C7.80289583,6.87361538 9.26879861,5.45438462 9.36428472,5.34746154 C9.45977083,5.24053846 9.36428472,5.059 9.36428472,5.059 C9.36428472,5.059 8.1145625,3.76438462 7.90220139,3.58592308 C7.90220139,3.58592308 7.56227083,3.37438462 7.31247917,3.65438462" id="Fill-32" fill="#009944" sketch:type="MSShapeGroup" mask="url(#mask-4)"></path>
                <path d="M2.17188889,3.65438462 C2.42168056,3.93361538 2.26966667,4.22053846 2.26966667,4.22053846 L1.30640278,5.19361538 L2.26966667,6.21053846 C2.26966667,6.21053846 2.33001389,6.55284615 2.18411111,6.71669231 C2.03897222,6.88130769 1.68147222,6.87361538 1.68147222,6.87361538 C1.68147222,6.87361538 0.215569444,5.45438462 0.120083333,5.34746154 C0.0245972222,5.24053846 0.120083333,5.059 0.120083333,5.059 C0.120083333,5.059 1.36980556,3.76438462 1.58216667,3.58592308 C1.58216667,3.58592308 1.92209722,3.37438462 2.17188889,3.65438462" id="Fill-33" fill="#009944" sketch:type="MSShapeGroup" mask="url(#mask-4)"></path>
            </g>
        </g>
    </g>
</svg>