<?xml version="1.0" encoding="UTF-8" standalone="no"?>
<svg width="329px" height="58px" viewBox="0 0 329 58" version="1.1" xmlns="http://www.w3.org/2000/svg" xmlns:xlink="http://www.w3.org/1999/xlink" xmlns:sketch="http://www.bohemiancoding.com/sketch/ns">
    <!-- Generator: Sketch 3.4.4 (17249) - http://www.bohemiancoding.com/sketch -->
    <title>Page 1</title>
    <desc>Created with Sketch.</desc>
    <defs>
        <path id="path-1" d="M0,2.61708333 L328.661667,2.61708333 L328.661667,59.5833333 L0,59.5833333 L0,2.61708333 Z"></path>
        <path id="path-3" d="M0,2.61708333 L328.661667,2.61708333 L328.661667,59.5833333 L0,59.5833333 L0,2.61708333 Z"></path>
    </defs>
    <g id="Page-1" stroke="none" stroke-width="1" fill="none" fill-rule="evenodd" sketch:type="MSPage">
        <g sketch:type="MSLayerGroup" transform="translate(0.000000, -2.000000)">
            <path d="M103.725417,23.0220833 L92.6795833,23.0220833 L92.6795833,32.16125 L103.725417,32.16125 L103.725417,23.0220833 Z M78.6775,32.16125 L89.58125,32.16125 L89.58125,23.0220833 L78.6775,23.0220833 L78.6775,32.16125 Z M75.7258333,20.3591667 L89.58125,20.3591667 L89.58125,12.5125 L92.6795833,12.5125 L92.6795833,20.3591667 L106.681667,20.3591667 L106.681667,36.7720833 L103.725417,36.7720833 L103.725417,34.8241667 L92.6795833,34.8241667 L92.6795833,48.2166667 L89.58125,48.2166667 L89.58125,34.8241667 L78.6775,34.8241667 L78.6775,36.7720833 L75.7258333,36.7720833 L75.7258333,20.3591667 Z" id="Fill-1" fill="#444344" sketch:type="MSShapeGroup"></path>
            <g id="Group-34">
                <path d="M131.150708,32.5966667 L133.167375,31.0841667 C134.491958,32.4545833 135.619458,33.7379167 136.554458,34.93875 L134.427792,36.5520833 C133.277375,34.99375 132.186542,33.67375 131.150708,32.5966667 L131.150708,32.5966667 Z M116.685708,37.4183333 L126.617792,37.4183333 L126.617792,30.29125 L117.946125,30.29125 L117.946125,27.8483333 L126.617792,27.8483333 L126.617792,23.0220833 L117.263208,23.0220833 L117.263208,20.5745833 L138.708625,20.5745833 L138.708625,23.0220833 L129.280708,23.0220833 L129.280708,27.8483333 L137.989042,27.8483333 L137.989042,30.29125 L129.280708,30.29125 L129.280708,37.4183333 L139.286125,37.4183333 L139.286125,39.8658333 L116.685708,39.8658333 L116.685708,37.4183333 Z M140.981958,17.0133333 L115.031125,17.0133333 L115.031125,43.68375 L140.981958,43.68375 L140.981958,17.0133333 Z M112.258208,14.4558333 L143.750292,14.4558333 L143.750292,48.0333333 L140.981958,48.0333333 L140.981958,46.2366667 L115.026542,46.2366667 L115.026542,48.07 L112.258208,48.07 L112.258208,14.4558333 Z" id="Fill-2" fill="#444344" sketch:type="MSShapeGroup"></path>
                <path d="M171.572958,38.8226667 L173.695042,37.0214167 C177.485458,40.5276667 180.450875,43.4564167 182.582125,45.8030833 L180.207958,47.9985 C177.765042,45.09725 174.882125,42.0355833 171.572958,38.8226667 L171.572958,38.8226667 Z M165.527542,33.3868333 L173.296292,33.3868333 L173.296292,23.45475 L165.527542,23.45475 L165.527542,33.3868333 Z M173.296292,12.9451667 L176.252542,12.9451667 L176.252542,20.8651667 L181.399625,20.8651667 L181.399625,23.45475 L176.252542,23.45475 L176.252542,33.3868333 L182.655458,33.3868333 L182.655458,35.981 L156.489208,35.981 L156.489208,33.3868333 L162.571292,33.3868333 L162.571292,23.45475 L157.928375,23.45475 L157.928375,20.8651667 L162.571292,20.8651667 L162.571292,12.9818333 L165.527542,12.9818333 L165.527542,20.8651667 L173.296292,20.8651667 L173.296292,12.9451667 Z M167.287542,38.896 C164.455042,42.3518333 161.507958,45.4318333 158.437125,48.1451667 C157.786292,47.3980833 157.052958,46.706 156.237125,46.0551667 C159.285042,43.7543333 162.140458,40.7935 164.803375,37.1680833 L167.287542,38.896 Z M146.557125,29.9355833 C150.324625,24.871 153.290042,19.1005833 155.444208,12.61975 L158.327125,13.66475 C157.089625,16.8685 155.810875,19.811 154.477125,22.4830833 L154.477125,48.0718333 L151.598792,48.0718333 L151.598792,27.71725 C150.361292,29.7385 149.091708,31.5535 147.785458,33.176 C147.441708,32.1905833 147.033792,31.1089167 146.557125,29.9355833 L146.557125,29.9355833 Z" id="Fill-4" fill="#444344" sketch:type="MSShapeGroup"></path>
                <path d="M211.046,19.9654583 C212.751,18.118375 214.405583,16.0742083 216.014333,13.8467083 L218.393083,15.6479583 C216.926417,17.417125 215.12975,19.424625 212.993917,21.6567083 L211.046,19.9654583 Z M200.431,37.0567083 L214.795167,37.0567083 L214.795167,32.5925417 L200.431,32.5925417 L200.431,37.0567083 Z M214.790583,25.5800417 L200.426417,25.5800417 L200.426417,30.0075417 L214.790583,30.0075417 L214.790583,25.5800417 Z M200.431,48.0704583 L197.800167,48.0704583 L197.800167,22.8804583 L206.045583,22.8804583 L206.045583,12.6550417 L208.8185,12.6550417 L208.8185,22.8804583 L217.421417,22.8804583 L217.421417,43.7529583 C217.421417,46.5350417 216.110583,47.928375 213.4935,47.928375 C212.150583,47.928375 210.243917,47.8917083 207.7735,47.818375 C207.631417,46.9337917 207.461833,45.948375 207.269333,44.8712917 C209.524333,45.013375 211.2385,45.082125 212.416417,45.082125 C214.00225,45.082125 214.790583,44.4129583 214.790583,43.0700417 L214.790583,39.650875 L200.431,39.650875 L200.431,48.0704583 Z M196.617667,15.2492083 L198.593083,13.7412917 C200.321,15.4417083 202.026,17.362125 203.7035,19.493375 L201.439333,21.3312917 C199.78475,19.0029583 198.176,16.977125 196.617667,15.2492083 L196.617667,15.2492083 Z M196.365583,40.1137917 C196.365583,41.1725417 196.425167,42.1717083 196.544333,43.1067083 C195.008917,43.8492083 193.221417,44.834625 191.181833,46.0537917 C190.746417,46.2967083 190.246833,46.704625 189.669333,47.282125 L187.762667,44.7979583 C188.532667,44.1012917 188.913083,43.198375 188.913083,42.098375 L188.913083,34.2517083 L184.091417,34.2517083 L184.091417,31.7675417 L188.913083,31.7675417 L188.913083,26.9137917 L186.575583,26.9137917 L186.575583,24.429625 L195.751417,24.429625 L195.751417,26.9137917 L191.539333,26.9137917 L191.539333,31.7675417 L196.581,31.7675417 L196.581,34.2517083 L191.539333,34.2517083 L191.539333,42.8179583 C193.29475,41.878375 194.9035,40.9800417 196.365583,40.1137917 L196.365583,40.1137917 Z M183.770583,23.742125 C186.098917,20.4100417 187.955167,16.702125 189.3485,12.618375 L192.0435,13.5212917 C191.39725,15.1300417 190.705167,16.674625 189.958083,18.1642083 L196.617667,18.1642083 L196.617667,20.6437917 L188.697667,20.6437917 C187.6435,22.5917083 186.506833,24.4387917 185.2785,26.189625 C184.820167,25.3279583 184.320583,24.5075417 183.770583,23.742125 L183.770583,23.742125 Z" id="Fill-6" fill="#444344" sketch:type="MSShapeGroup"></path>
                <path d="M239.517208,26.1199583 L241.139708,24.4974583 C242.670542,25.6707917 244.187625,26.899125 245.672625,28.1687083 L243.834708,30.0387083 C242.372625,28.5995417 240.933458,27.2932917 239.517208,26.1199583 L239.517208,26.1199583 Z M239.045125,35.3324583 L240.704292,33.7099583 C242.308458,34.9382917 243.811792,36.1712083 245.200542,37.417875 L243.330542,39.2924583 C241.914292,37.9220417 240.488875,36.6020417 239.045125,35.3324583 L239.045125,35.3324583 Z M250.205542,24.066625 L235.955958,24.066625 L235.071375,30.6162083 L250.045125,30.6162083 C250.104708,28.576625 250.155125,26.3949583 250.205542,24.066625 L250.205542,24.066625 Z M249.971792,33.1370417 L234.750542,33.1370417 L233.870542,39.7599583 L249.724292,39.7599583 C249.815958,37.7937083 249.903042,35.5799583 249.971792,33.1370417 L249.971792,33.1370417 Z M228.613458,30.6162083 L232.303042,30.6162083 L233.577208,21.6237083 L252.978458,21.6237083 C252.905125,24.9557917 252.831792,27.9532917 252.763042,30.6162083 L256.539708,30.6162083 L256.539708,33.1370417 L252.671375,33.1370417 C252.598042,35.726625 252.529292,37.9357917 252.455958,39.7599583 L255.389292,39.7599583 L255.389292,42.2074583 L252.290958,42.2074583 C252.089292,43.9720417 251.612625,45.2920417 250.856375,46.162875 C249.990125,47.1482917 248.454708,47.6387083 246.250125,47.6387083 C244.998875,47.6387083 243.394708,47.592875 241.423875,47.496625 C241.304708,46.6807917 241.139708,45.7045417 240.924292,44.581625 C243.248042,44.7970417 245.035542,44.9070417 246.286792,44.9070417 C248.092625,44.9070417 249.174292,44.004125 249.522625,42.2074583 L231.019708,42.2074583 L231.019708,39.5445417 L231.940958,33.1370417 L228.613458,33.1370417 L228.613458,30.6162083 Z M228.324708,22.774125 C231.299292,19.9645417 233.696375,16.517875 235.520542,12.4432917 L238.582208,12.4432917 C238.004708,13.6899583 237.399708,14.8770417 236.762625,16.0045417 L255.783458,16.0045417 L255.783458,18.525375 L235.250125,18.525375 C233.700958,20.9362083 232.005125,23.0582917 230.158042,24.891625 C229.608042,24.1720417 228.993875,23.4662083 228.324708,22.774125 L228.324708,22.774125 Z M221.990542,14.9274583 L223.823875,13.0207917 C225.267625,14.1207917 227.265958,15.789125 229.837208,18.016625 C229.021375,18.8095417 228.315542,19.5245417 227.715125,20.1432917 C225.120958,17.672875 223.214292,15.9312083 221.990542,14.9274583 L221.990542,14.9274583 Z M221.701792,46.9924583 C223.118042,42.794125 224.337208,38.201625 225.373042,33.210375 C226.431792,33.664125 227.398875,34.0399583 228.288042,34.324125 C227.064292,39.026625 225.923042,43.5732917 224.868875,47.964125 L221.701792,46.9924583 Z M220.624708,24.4974583 L222.425958,22.444125 C224.630542,23.984125 226.679292,25.5287083 228.576792,27.091625 C227.715125,28.0770417 227.013875,28.8424583 226.486792,29.3924583 C224.350958,27.476625 222.398458,25.840375 220.624708,24.4974583 L220.624708,24.4974583 Z" id="Fill-8" fill="#444344" sketch:type="MSShapeGroup"></path>
                <path d="M279.934417,12.9117083 L282.954833,12.9117083 L282.954833,25.2912917 L284.398583,23.673375 C287.8315,26.3362917 290.888583,28.7700417 293.574417,30.974625 L291.521083,33.6375417 C288.981917,31.290875 286.1265,28.7837917 282.954833,26.120875 L282.954833,48.1804583 L279.934417,48.1804583 L279.934417,12.9117083 Z M257.187333,31.2267083 C260.762333,25.7862917 263.448167,19.5804583 265.249417,12.6229583 L268.201083,13.4479583 C267.623583,15.3912917 267.02775,17.265875 266.404417,19.067125 L276.40525,19.067125 L276.40525,21.7300417 C275.135667,33.6512917 269.745667,42.400875 260.249,47.9604583 C259.744833,47.172125 259.1215,46.319625 258.379,45.4075417 C263.031083,42.648375 266.606083,39.1925417 269.104,35.044625 C267.421917,33.628375 265.538167,32.1892083 263.448167,30.727125 L265.286083,28.527125 C267.325667,30.0167083 269.067333,31.3275417 270.501917,32.4550417 C271.996083,29.3567083 272.954,25.804625 273.384833,21.7987917 L265.359417,21.7987917 C263.677333,26.0475417 261.504833,30.2092083 258.841917,34.288375 C258.36525,33.3029583 257.81525,32.2854583 257.187333,31.2267083 L257.187333,31.2267083 Z" id="Fill-10" fill="#444344" sketch:type="MSShapeGroup"></path>
                <g id="Group-14">
                    <mask id="mask-2" sketch:name="Clip 13" fill="white">
                        <use xlink:href="#path-1"></use>
                    </mask>
                    <g id="Clip-13"></g>
                    <path d="M318.082875,29.535 L320.567042,28.82 C321.671625,32.2758333 322.739542,35.8966667 323.770792,39.6870833 L321.071208,40.48 C320.878708,39.7558333 320.699958,39.0270833 320.530375,38.28 C317.986625,38.4495833 315.708708,38.6558333 313.696625,38.8941667 C312.642458,39.0133333 311.569958,39.2058333 310.492875,39.4716667 L309.379125,37.1295833 C310.213292,36.6025 310.841208,35.8829167 311.249125,34.9754167 C312.569125,31.7808333 313.811208,27.94 314.989125,23.4575 L317.725375,24.0991667 C316.281625,28.5404167 314.856208,32.6333333 313.439958,36.3733333 C315.484125,36.2541667 317.638292,36.1120833 319.920792,35.9425 C319.343292,33.8295833 318.733708,31.6983333 318.082875,29.535 L318.082875,29.535 Z M296.348708,14.7125 L308.512875,14.7125 L308.512875,25.03875 C310.914542,21.3675 312.697458,17.22875 313.875375,12.6225 L316.717042,13.26875 C316.139542,14.9966667 315.539125,16.6420833 314.920375,18.2004167 L328.665792,18.2004167 C328.519125,29.8604167 328.377042,37.6245833 328.234958,41.48375 C328.019542,45.3704167 326.025792,47.3183333 322.258292,47.3183333 C320.195792,47.3183333 318.000375,47.2679167 315.676625,47.1716667 C315.529958,46.21375 315.337458,45.2283333 315.099125,44.22 C317.422875,44.4858333 319.558708,44.6279167 321.502042,44.6554167 C324.022875,44.6279167 325.356625,43.38125 325.498708,40.90625 C325.663708,36.8316667 325.787458,30.14 325.856208,20.83125 L313.838708,20.83125 C312.949542,22.9166667 312.028292,24.8233333 311.070375,26.55125 C310.369125,26.0929167 309.521208,25.6483333 308.512875,25.2220833 L308.512875,37.0241667 L305.923292,37.0241667 L305.923292,17.33875 L298.938292,17.33875 L298.938292,37.2395833 L296.348708,37.2395833 L296.348708,14.7125 Z M301.133708,20.4645833 L303.723292,20.4645833 L303.723292,27.7016667 C303.723292,32.35375 303.402458,35.9654167 302.751625,38.5366667 L303.796625,37.565 C306.244125,40.10875 308.393708,42.4233333 310.240792,44.50875 L307.972042,46.42 C306.267042,44.23375 304.397042,42.0154167 302.357458,39.7558333 C301.495792,42.4920833 299.419542,45.2925 296.133292,48.1479167 C295.606208,47.39625 294.969125,46.6675 294.222042,45.9479167 C297.031625,43.8625 298.892458,41.6304167 299.804542,39.2516667 C300.689125,37.19375 301.133708,33.6875 301.133708,28.7466667 L301.133708,20.4645833 Z" id="Fill-12" fill="#444344" sketch:type="MSShapeGroup" mask="url(#mask-2)"></path>
                </g>
                <mask id="mask-4" sketch:name="Clip 16" fill="white">
                    <use xlink:href="#path-3"></use>
                </mask>
                <g id="Clip-16"></g>
                <path d="M13.0166667,20.36375 L23.4070833,20.36375 L23.4070833,41.9008333 L13.0166667,41.9008333 L13.0166667,20.36375 Z" id="Fill-15" fill="#FFF000" sketch:type="MSShapeGroup" mask="url(#mask-4)"></path>
                <path d="M33.5454167,20.36375 L43.9358333,20.36375 L43.9358333,41.9008333 L33.5454167,41.9008333 L33.5454167,20.36375 Z" id="Fill-17" fill="#FFF000" sketch:type="MSShapeGroup" mask="url(#mask-4)"></path>
                <path d="M17.5541667,15.8216667 L39.3891667,15.8216667 L39.3891667,26.2120833 L17.5541667,26.2120833 L17.5541667,15.8216667 Z" id="Fill-18" fill="#FFF000" sketch:type="MSShapeGroup" mask="url(#mask-4)"></path>
                <path d="M17.5541667,36.0525 L39.3891667,36.0525 L39.3891667,46.4429167 L17.5541667,46.4429167 L17.5541667,36.0525 Z" id="Fill-19" fill="#FFF000" sketch:type="MSShapeGroup" mask="url(#mask-4)"></path>
                <path d="M28.4739583,31.0383333 C28.4235417,31.0383333 28.3822917,31.0795833 28.3822917,31.13 C28.3822917,31.185 28.4235417,31.22625 28.4739583,31.22625 C28.524375,31.22625 28.565625,31.185 28.565625,31.13 C28.565625,31.0795833 28.524375,31.0383333 28.4739583,31.0383333 M28.4739583,40.8558333 C23.1114583,40.8558333 18.7527083,36.4925 18.7527083,31.13 C18.7527083,25.7720833 23.1114583,21.40875 28.4739583,21.40875 C33.8364583,21.40875 38.1952083,25.7720833 38.1952083,31.13 C38.1952083,36.4925 33.8364583,40.8558333 28.4739583,40.8558333" id="Fill-20" fill="#FFF000" sketch:type="MSShapeGroup" mask="url(#mask-4)"></path>
                <path d="M28.301625,59.5833333 C27.3024583,59.5833333 26.3949583,59.2441667 25.6799583,58.5979167 C25.084125,58.0616667 19.5657917,52.3325 17.2237083,49.8941667 L16.4307917,49.07375 L16.407875,47.9325 C16.394125,47.1579167 16.476625,44.5041667 18.236625,42.9320833 C19.185375,42.0841667 20.4687083,41.6579167 22.0499583,41.6579167 C22.7787083,41.6579167 23.3470417,41.7495833 23.4570417,41.7725 L24.3232917,41.92375 L28.4299583,45.8425 L32.0095417,42.2720833 L32.3899583,42.0704167 C32.6512083,41.9283333 33.609125,41.4745833 34.915375,41.4745833 C36.3407917,41.4745833 37.6882917,42.00625 38.806625,43.01 C41.0982917,45.0725 40.882875,48.0516667 39.7095417,49.9491667 L39.5995417,50.1279167 L39.466625,50.28375 C38.449125,51.5029167 32.440375,57.3604167 31.244125,58.5245833 L30.9462083,58.8133333 L30.5749583,59.0104167 C30.2495417,59.1845833 29.3787083,59.5833333 28.301625,59.5833333" id="Fill-21" fill="#FFF000" sketch:type="MSShapeGroup" mask="url(#mask-4)"></path>
                <path d="M34.915375,20.7258333 C33.609125,20.7258333 32.6512083,20.2675 32.3899583,20.13 L32.0095417,19.92375 L28.4299583,16.3579167 L24.3232917,20.2720833 L23.4570417,20.4279167 C23.351625,20.44625 22.7787083,20.5425 22.0499583,20.5425 C20.4687083,20.5425 19.185375,20.1116667 18.236625,19.2683333 C16.476625,17.6916667 16.394125,15.0425 16.407875,14.2679167 L16.4307917,13.1266667 L17.2237083,12.3016667 C19.5657917,9.86333333 25.084125,4.13416667 25.6799583,3.59791667 C26.3949583,2.95625 27.3024583,2.61708333 28.301625,2.61708333 C29.3787083,2.61708333 30.2495417,3.01583333 30.5749583,3.19 L30.9462083,3.3825 L31.244125,3.67583333 C32.440375,4.84 38.449125,10.6929167 39.466625,11.9120833 L39.5995417,12.0725 L39.7095417,12.2466667 C40.882875,14.1441667 41.0982917,17.1279167 38.806625,19.1904167 C37.6882917,20.1941667 36.3407917,20.7258333 34.915375,20.7258333" id="Fill-22" fill="#FFF000" sketch:type="MSShapeGroup" mask="url(#mask-4)"></path>
                <path d="M45.2150417,43.1772917 C44.2342083,43.1772917 41.795875,42.9985417 40.3200417,41.3439583 C38.6975417,39.5289583 39.018375,36.8935417 39.155875,36.128125 L39.3117083,35.261875 L43.225875,31.1552083 L39.6600417,27.575625 L39.4537917,27.1952083 C38.784625,25.9439583 38.234625,23.1847917 40.393375,20.7785417 C41.410875,19.6464583 42.7950417,19.023125 44.2892083,19.023125 C45.8337917,19.023125 47.0117083,19.6739583 47.337125,19.875625 L47.5112917,19.985625 L47.6717083,20.1185417 C48.890875,21.1360417 54.748375,27.1447917 55.9079583,28.3410417 L56.2012917,28.6389583 L56.3937917,29.0102083 C57.0767083,30.298125 57.3792083,32.3560417 55.985875,33.9052083 C55.449625,34.5010417 49.7204583,40.0147917 47.282125,42.3614583 L46.4662917,43.1452083 L45.315875,43.1772917 L45.2150417,43.1772917 Z" id="Fill-23" fill="#FFF000" sketch:type="MSShapeGroup" mask="url(#mask-4)"></path>
                <path d="M11.6540417,43.176375 L10.5219583,43.1442917 L9.68779167,42.3605417 C7.24945833,40.0184583 1.52029167,34.500125 0.984041667,33.9042917 C-0.409291667,32.355125 -0.106791667,30.2972083 0.576125,29.0092917 L0.768625,28.6380417 L1.06195833,28.340125 C2.22154167,27.143875 8.07904167,21.135125 9.30279167,20.117625 L9.458625,19.9847083 L9.63279167,19.8747083 C9.95820833,19.677625 11.136125,19.0222083 12.6807083,19.0222083 C14.174875,19.0222083 15.5590417,19.6455417 16.5765417,20.777625 C18.739875,23.183875 18.1852917,25.9430417 17.516125,27.1942917 L17.309875,27.5747083 L13.7440417,31.1542917 L17.6582083,35.2609583 L17.8140417,36.1272083 C17.9515417,36.892625 18.272375,39.532625 16.649875,41.347625 C15.178625,42.997625 12.7357083,43.176375 11.754875,43.176375 L11.6540417,43.176375 Z" id="Fill-24" fill="#FFF000" sketch:type="MSShapeGroup" mask="url(#mask-4)"></path>
                <path d="M19.6854167,39.55875 L14.7125,39.55875 L14.7125,22.3804167 L19.6854167,22.3804167 L19.6854167,39.55875 Z" id="Fill-25" fill="#009944" sketch:type="MSShapeGroup" mask="url(#mask-4)"></path>
                <path d="M42.1666667,39.55875 L37.19375,39.55875 L37.19375,22.3804167 L42.1666667,22.3804167 L42.1666667,39.55875 Z" id="Fill-26" fill="#009944" sketch:type="MSShapeGroup" mask="url(#mask-4)"></path>
                <path d="M37.19375,22.3804167 L19.6854167,22.3804167 L19.6854167,17.4075 L37.19375,17.4075 L37.19375,22.3804167 Z" id="Fill-27" fill="#009944" sketch:type="MSShapeGroup" mask="url(#mask-4)"></path>
                <path d="M37.19375,44.5316667 L19.6854167,44.5316667 L19.6854167,39.55875 L37.19375,39.55875 L37.19375,44.5316667 Z" id="Fill-28" fill="#009944" sketch:type="MSShapeGroup" mask="url(#mask-4)"></path>
                <path d="M28.4409583,23.5244167 C24.3297083,23.5244167 20.997625,26.8565 20.997625,30.96775 C20.997625,35.0835833 24.3297083,38.4156667 28.4409583,38.4156667 C32.5522083,38.4156667 35.8842917,35.0835833 35.8842917,30.96775 C35.8842917,26.8565 32.5522083,23.5244167 28.4409583,23.5244167 M31.7455417,30.96775 C31.7455417,32.7965 30.265125,34.2723333 28.4409583,34.2723333 C26.6167917,34.2723333 25.136375,32.7965 25.136375,30.96775 C25.136375,29.1435833 26.6167917,27.6631667 28.4409583,27.6631667 C30.265125,27.6631667 31.7455417,29.1435833 31.7455417,30.96775" id="Fill-29" fill="#009944" sketch:type="MSShapeGroup" mask="url(#mask-4)"></path>
                <path d="M37.6135833,46.3558333 C35.94525,44.8570833 34.2356667,45.7691667 34.2356667,45.7691667 L28.4423333,51.54875 L22.3831667,45.7691667 C22.3831667,45.7691667 20.3435833,45.4070833 19.36275,46.2825 C18.3865,47.1533333 18.4323333,49.2983333 18.4323333,49.2983333 C18.4323333,49.2983333 26.884,58.09375 27.5210833,58.6666667 C28.16275,59.2395833 29.2444167,58.6666667 29.2444167,58.6666667 C29.2444167,58.6666667 36.9581667,51.1683333 38.0169167,49.8941667 C38.0169167,49.8941667 39.2819167,47.8545833 37.6135833,46.3558333" id="Fill-30" fill="#009944" sketch:type="MSShapeGroup" mask="url(#mask-4)"></path>
                <path d="M37.6135833,15.5122917 C35.94525,17.0110417 34.2356667,16.0989583 34.2356667,16.0989583 L28.4423333,10.319375 L22.3831667,16.0989583 C22.3831667,16.0989583 20.3435833,16.4610417 19.36275,15.585625 C18.3865,14.7147917 18.4323333,12.5697917 18.4323333,12.5697917 C18.4323333,12.5697917 26.884,3.774375 27.5210833,3.20145833 C28.16275,2.62854167 29.2444167,3.20145833 29.2444167,3.20145833 C29.2444167,3.20145833 36.9581667,10.6997917 38.0169167,11.9739583 C38.0169167,11.9739583 39.2819167,14.0135417 37.6135833,15.5122917" id="Fill-31" fill="#009944" sketch:type="MSShapeGroup" mask="url(#mask-4)"></path>
                <path d="M43.874875,21.7740417 C42.376125,23.4377917 43.2882083,25.147375 43.2882083,25.147375 L49.0677917,30.9452917 L43.2882083,37.0044583 C43.2882083,37.0044583 42.926125,39.0440417 43.8015417,40.0202917 C44.672375,41.001125 46.817375,40.9552917 46.817375,40.9552917 C46.817375,40.9552917 55.6127917,32.4990417 56.1857083,31.8619583 C56.758625,31.224875 56.1857083,30.1432083 56.1857083,30.1432083 C56.1857083,30.1432083 48.687375,22.4294583 47.4132083,21.366125 C47.4132083,21.366125 45.373625,20.1057083 43.874875,21.7740417" id="Fill-32" fill="#009944" sketch:type="MSShapeGroup" mask="url(#mask-4)"></path>
                <path d="M13.0313333,21.7740417 C14.5300833,23.4377917 13.618,25.147375 13.618,25.147375 L7.83841667,30.9452917 L13.618,37.0044583 C13.618,37.0044583 13.9800833,39.0440417 13.1046667,40.0202917 C12.2338333,41.001125 10.0888333,40.9552917 10.0888333,40.9552917 C10.0888333,40.9552917 1.29341667,32.4990417 0.7205,31.8619583 C0.147583333,31.224875 0.7205,30.1432083 0.7205,30.1432083 C0.7205,30.1432083 8.21883333,22.4294583 9.493,21.366125 C9.493,21.366125 11.5325833,20.1057083 13.0313333,21.7740417" id="Fill-33" fill="#009944" sketch:type="MSShapeGroup" mask="url(#mask-4)"></path>
            </g>
        </g>
    </g>
</svg>