<?xml version="1.0" encoding="UTF-8" standalone="no"?>
<svg width="228px" height="48px" viewBox="0 0 228 48" version="1.1" xmlns="http://www.w3.org/2000/svg" xmlns:xlink="http://www.w3.org/1999/xlink" xmlns:sketch="http://www.bohemiancoding.com/sketch/ns">
    <!-- Generator: Sketch 3.4.4 (17249) - http://www.bohemiancoding.com/sketch -->
    <title>Page 1</title>
    <desc>Created with Sketch.</desc>
    <defs>
        <path id="path-1" d="M0,1.22788235 L227.29395,1.22788235 L227.29395,49 L0,49 L0,1.22788235 Z"></path>
        <path id="path-3" d="M0,1.22788235 L227.29395,1.22788235 L227.29395,49 L0,49 L0,1.22788235 Z"></path>
    </defs>
    <g id="Page-1" stroke="none" stroke-width="1" fill="none" fill-rule="evenodd" sketch:type="MSPage">
        <g sketch:type="MSLayerGroup" transform="translate(0.000000, -1.000000)">
            <path d="M86.808175,14.0601176 L79.90955,14.0601176 L79.90955,19.8075294 L86.808175,19.8075294 L86.808175,14.0601176 Z M71.167475,19.8104118 L77.9773625,19.8104118 L77.9773625,14.063 L71.167475,14.063 L71.167475,19.8104118 Z M69.3211625,12.3854706 L77.9745,12.3854706 L77.9745,7.45376471 L79.90955,7.45376471 L79.90955,12.3854706 L88.6544875,12.3854706 L88.6544875,22.7071765 L86.808175,22.7071765 L86.808175,21.4850588 L79.90955,21.4850588 L79.90955,29.9072941 L77.9745,29.9072941 L77.9745,21.4850588 L71.167475,21.4850588 L71.167475,22.7071765 L69.3211625,22.7071765 L69.3211625,12.3854706 Z" id="Fill-1" fill="#444344" sketch:type="MSShapeGroup"></path>
            <g id="Group-80">
                <path d="M103.936802,20.0822176 L105.196303,19.1310412 C106.023565,19.9928647 106.72774,20.7999235 107.31169,21.5551 L105.98349,22.5696882 C105.265003,21.5896882 104.583728,20.7595706 103.936802,20.0822176 L103.936802,20.0822176 Z M94.9027525,23.1144529 L101.10579,23.1144529 L101.10579,18.6323941 L95.68994,18.6323941 L95.68994,17.0961 L101.10579,17.0961 L101.10579,14.0609824 L95.2634275,14.0609824 L95.2634275,12.5218059 L108.657065,12.5218059 L108.657065,14.0609824 L102.768902,14.0609824 L102.768902,17.0961 L108.207652,17.0961 L108.207652,18.6323941 L102.768902,18.6323941 L102.768902,23.1144529 L109.01774,23.1144529 L109.01774,24.6536294 L94.9027525,24.6536294 L94.9027525,23.1144529 Z M110.076865,10.2822176 L93.86939,10.2822176 L93.86939,27.0546294 L110.076865,27.0546294 L110.076865,10.2822176 Z M92.1375775,8.67386471 L111.805815,8.67386471 L111.805815,29.7899824 L110.076865,29.7899824 L110.076865,28.6601 L93.8665275,28.6601 L93.8665275,29.8130412 L92.1375775,29.8130412 L92.1375775,8.67386471 Z" id="Fill-2" fill="#444344" sketch:type="MSShapeGroup"></path>
                <path d="M129.182335,23.9976059 L130.507673,22.8648412 C132.87496,25.0698412 134.726997,26.9116647 136.05806,28.3874294 L134.575285,29.7680765 C133.049573,27.9435471 131.24906,26.0181353 129.182335,23.9976059 L129.182335,23.9976059 Z M125.406697,20.5791353 L130.258635,20.5791353 L130.258635,14.3330765 L125.406697,14.3330765 L125.406697,20.5791353 Z M130.258635,7.72384118 L132.104948,7.72384118 L132.104948,12.7045471 L135.319535,12.7045471 L135.319535,14.3330765 L132.104948,14.3330765 L132.104948,20.5791353 L136.10386,20.5791353 L136.10386,22.2105471 L119.761848,22.2105471 L119.761848,20.5791353 L123.560385,20.5791353 L123.560385,14.3330765 L120.660673,14.3330765 L120.660673,12.7045471 L123.560385,12.7045471 L123.560385,7.7469 L125.406697,7.7469 L125.406697,12.7045471 L130.258635,12.7045471 L130.258635,7.72384118 Z M126.505898,24.0437235 C124.736873,26.2170176 122.896285,28.1539588 120.97841,29.8603118 C120.571935,29.3904882 120.113935,28.9552529 119.60441,28.5459588 C121.507973,27.0990176 123.29131,25.2370176 124.954423,22.9570765 L126.505898,24.0437235 Z M113.55881,18.4087235 C115.911785,15.2237235 117.763823,11.5948412 119.109198,7.51919412 L120.90971,8.17637059 C120.136835,10.1911353 119.338198,12.0416059 118.50521,13.7220176 L118.50521,29.8141941 L116.70756,29.8141941 L116.70756,17.0136647 C115.934685,18.2847824 115.141773,19.4261941 114.32596,20.4465471 C114.111272,19.8268412 113.85651,19.1466059 113.55881,18.4087235 L113.55881,18.4087235 Z" id="Fill-4" fill="#444344" sketch:type="MSShapeGroup"></path>
                <path d="M153.835044,12.1390294 C154.899894,10.9774412 155.933256,9.69191176 156.937994,8.29108824 L158.423631,9.42385294 C157.507631,10.5364412 156.385531,11.7989118 155.051606,13.2026176 L153.835044,12.1390294 Z M147.205494,22.8873235 L156.176569,22.8873235 L156.176569,20.0799118 L147.205494,20.0799118 L147.205494,22.8873235 Z M156.173706,15.6699118 L147.202631,15.6699118 L147.202631,18.4542647 L156.173706,18.4542647 L156.173706,15.6699118 Z M147.205494,29.8136176 L145.562419,29.8136176 L145.562419,13.9722059 L150.712056,13.9722059 L150.712056,7.54167647 L152.443869,7.54167647 L152.443869,13.9722059 L157.816781,13.9722059 L157.816781,27.0984412 C157.816781,28.8480294 156.998106,29.7242647 155.363619,29.7242647 C154.524906,29.7242647 153.334106,29.7012059 151.791219,29.6550882 C151.702481,29.0987941 151.596569,28.4790882 151.476344,27.8017353 C152.884694,27.8910882 153.955269,27.9343235 154.690931,27.9343235 C155.681356,27.9343235 156.173706,27.5135 156.173706,26.6689706 L156.173706,24.5187353 L147.205494,24.5187353 L147.205494,29.8136176 Z M144.823894,9.17308824 L146.057631,8.22479412 C147.136794,9.29414706 148.201644,10.5018529 149.249319,11.8421471 L147.835244,12.9979706 C146.801881,11.5337353 145.797144,10.2597353 144.823894,9.17308824 L144.823894,9.17308824 Z M144.666456,24.8098529 C144.666456,25.4756765 144.703669,26.1040294 144.778094,26.6920294 C143.819156,27.1589706 142.702781,27.7786765 141.428969,28.5453824 C141.157031,28.6981471 140.845019,28.9546765 140.484344,29.3178529 L139.293544,27.7556176 C139.774444,27.3175 140.012031,26.7496765 140.012031,26.0579118 L140.012031,21.1233235 L137.000681,21.1233235 L137.000681,19.5610882 L140.012031,19.5610882 L140.012031,16.5086765 L138.552156,16.5086765 L138.552156,14.9464412 L144.282881,14.9464412 L144.282881,16.5086765 L141.652244,16.5086765 L141.652244,19.5610882 L144.800994,19.5610882 L144.800994,21.1233235 L141.652244,21.1233235 L141.652244,26.5104412 C142.748581,25.9195588 143.753319,25.3546176 144.666456,24.8098529 L144.666456,24.8098529 Z M136.800306,14.5140882 C138.254456,12.4186176 139.413769,10.0867941 140.283969,7.51861765 L141.967119,8.08644118 C141.563506,9.09814706 141.131269,10.0695 140.664681,11.0062647 L144.823894,11.0062647 L144.823894,12.5656176 L139.877494,12.5656176 C139.219119,13.7906176 138.509219,14.9522059 137.742069,16.0532647 C137.455819,15.5113824 137.143806,14.9954412 136.800306,14.5140882 L136.800306,14.5140882 Z" id="Fill-6" fill="#444344" sketch:type="MSShapeGroup"></path>
                <path d="M171.616608,16.0094529 L172.629932,14.9891 C173.586008,15.7269824 174.533495,16.4994529 175.460945,17.2978647 L174.313083,18.4738647 C173.399945,17.5688059 172.50112,16.7473353 171.616608,16.0094529 L171.616608,16.0094529 Z M171.32177,21.8029824 L172.357995,20.7826294 C173.35987,21.5551 174.29877,22.3304529 175.166108,23.1144529 L173.998208,24.2933353 C173.113695,23.4315118 172.223458,22.6013941 171.32177,21.8029824 L171.32177,21.8029824 Z M178.291958,14.7181588 L169.392445,14.7181588 L168.839983,18.8370412 L178.19177,18.8370412 C178.228983,17.5543941 178.26047,16.1823941 178.291958,14.7181588 L178.291958,14.7181588 Z M178.14597,20.4223353 L168.639608,20.4223353 L168.090008,24.5873353 L177.991395,24.5873353 C178.048645,23.3508059 178.103032,21.9586294 178.14597,20.4223353 L178.14597,20.4223353 Z M164.80672,18.8370412 L167.111033,18.8370412 L167.906808,13.1818647 L180.02377,13.1818647 C179.97797,15.2773353 179.93217,17.1623941 179.889232,18.8370412 L182.247932,18.8370412 L182.247932,20.4223353 L179.831983,20.4223353 C179.786182,22.0508647 179.743245,23.4401588 179.697445,24.5873353 L181.529445,24.5873353 L181.529445,26.1265118 L179.594395,26.1265118 C179.468445,27.2362176 179.170745,28.0663353 178.698433,28.6139824 C178.15742,29.2336882 177.198483,29.5421 175.82162,29.5421 C175.040157,29.5421 174.038283,29.5132765 172.807408,29.4527471 C172.732983,28.9396882 172.629932,28.3257471 172.495395,27.6195706 C173.946683,27.7550412 175.063058,27.8242176 175.84452,27.8242176 C176.972345,27.8242176 177.647895,27.2563941 177.865445,26.1265118 L166.309533,26.1265118 L166.309533,24.4518647 L166.884895,20.4223353 L164.80672,20.4223353 L164.80672,18.8370412 Z M164.626383,13.9053353 C166.484145,12.1384529 167.981233,9.97092353 169.120508,7.40851176 L171.032657,7.40851176 C170.671983,8.19251176 170.294132,8.93904118 169.896245,9.6481 L181.77562,9.6481 L181.77562,11.2333941 L168.95162,11.2333941 C167.984095,12.7495118 166.92497,14.0840412 165.771383,15.2369824 C165.427883,14.7844529 165.044308,14.3405706 164.626383,13.9053353 L164.626383,13.9053353 Z M160.670408,8.97074706 L161.815408,7.77168824 C162.717095,8.46345294 163.965145,9.51262941 165.571008,10.9134529 C165.061483,11.4121 164.620657,11.8617471 164.24567,12.2508647 C162.625495,10.6972765 161.434695,9.60198235 160.670408,8.97074706 L160.670408,8.97074706 Z M160.49007,29.1356882 C161.374583,26.4954529 162.136008,23.6073353 162.782933,20.4684529 C163.44417,20.7538059 164.048158,20.9901588 164.603482,21.1688647 C163.839195,24.1261588 163.126432,26.9854529 162.468058,29.7467471 L160.49007,29.1356882 Z M159.817383,14.9891 L160.942345,13.6978059 C162.319208,14.6662765 163.598745,15.6376294 164.78382,16.6205118 C164.24567,17.2402176 163.807707,17.7215706 163.47852,18.0674529 C162.144595,16.8626294 160.92517,15.8336294 159.817383,14.9891 L159.817383,14.9891 Z" id="Fill-8" fill="#444344" sketch:type="MSShapeGroup"></path>
                <path d="M196.859277,7.7028 L198.745665,7.7028 L198.745665,15.4880353 L199.647352,14.4705647 C201.791365,16.1452118 203.700652,17.6757412 205.378077,19.0621529 L204.095677,20.7368 C202.509852,19.2610353 200.726515,17.6843882 198.745665,16.0097412 L198.745665,29.8825059 L196.859277,29.8825059 L196.859277,7.7028 Z M182.65269,19.2206824 C184.88544,15.7993294 186.562865,11.8966235 187.687827,7.52121176 L189.531277,8.04003529 C189.170603,9.26215294 188.798477,10.4410353 188.409177,11.5738 L194.655152,11.5738 L194.655152,13.2484471 C193.86224,20.7454471 190.49594,26.2478588 184.56484,29.7441529 C184.249965,29.2483882 183.860665,28.7122706 183.39694,28.1386824 C186.302377,26.4035059 188.535127,24.2302118 190.09519,21.6216824 C189.044652,20.7310353 187.868165,19.8259765 186.562865,18.9065059 L187.710727,17.5229765 C188.98454,18.4597412 190.07229,19.2840941 190.968252,19.9931529 C191.901427,18.0446824 192.49969,15.8108588 192.768765,13.2916824 L187.756527,13.2916824 C186.70599,15.9636235 185.349165,18.5808 183.686052,21.1460941 C183.388352,20.5263882 183.044852,19.8865059 182.65269,19.2206824 L182.65269,19.2206824 Z" id="Fill-10" fill="#444344" sketch:type="MSShapeGroup"></path>
                <path d="M220.684437,18.1570941 L222.235912,17.7074471 C222.925775,19.8807412 223.592737,22.1578 224.2368,24.5415059 L222.550787,25.0401529 C222.430562,24.5847412 222.318925,24.1264471 222.213012,23.6566235 C220.624325,23.7632706 219.201662,23.8929765 217.945025,24.0428588 C217.28665,24.1178 216.616825,24.2388588 215.944137,24.4060353 L215.24855,22.9331529 C215.769525,22.6016824 216.161687,22.1491529 216.41645,21.5784471 C217.24085,19.5694471 218.016587,17.1540353 218.75225,14.3350941 L220.461162,14.7386235 C219.559475,17.5316235 218.669238,20.1055647 217.784725,22.4575647 C219.0614,22.3826235 220.406775,22.2932706 221.8323,22.1866235 C221.471625,20.8578588 221.090912,19.5175647 220.684437,18.1570941 L220.684437,18.1570941 Z M207.110462,8.83556471 L214.707538,8.83556471 L214.707538,15.3295059 C216.207488,13.0207412 217.321,10.4179765 218.056662,7.52121176 L219.831412,7.92762353 C219.470737,9.01427059 219.09575,10.0490353 218.709312,11.0290353 L227.29395,11.0290353 C227.20235,18.3617412 227.113612,23.2444471 227.024875,25.6713882 C226.890337,28.1156235 225.64515,29.3406235 223.292175,29.3406235 C222.00405,29.3406235 220.632912,29.3089176 219.181625,29.2483882 C219.090025,28.6459765 218.9698,28.0262706 218.82095,27.3921529 C220.272237,27.5593294 221.606162,27.6486824 222.819862,27.6659765 C224.394238,27.6486824 225.227225,26.8646824 225.315962,25.3082118 C225.419012,22.7458 225.4963,18.5375647 225.539237,12.6835059 L218.033762,12.6835059 C217.478437,13.9949765 216.903075,15.1940353 216.304812,16.2806824 C215.86685,15.9924471 215.337288,15.7128588 214.707538,15.4448 L214.707538,22.8668588 L213.090225,22.8668588 L213.090225,10.4871529 L208.727775,10.4871529 L208.727775,23.0023294 L207.110462,23.0023294 L207.110462,8.83556471 Z M210.098913,12.4529176 L211.716225,12.4529176 L211.716225,17.0041529 C211.716225,19.9297412 211.51585,22.2010353 211.109375,23.8180353 L211.762025,23.2069765 C213.2906,24.8066824 214.633112,26.2622706 215.7867,27.5737412 L214.369762,28.7756824 C213.304912,27.4008 212.137012,26.0057412 210.8632,24.5847412 C210.32505,26.3055059 209.028337,28.0666235 206.975925,29.8623294 C206.646738,29.3896235 206.24885,28.9313294 205.782262,28.4788 C207.536975,27.1673294 208.69915,25.7636235 209.268787,24.2676824 C209.82125,22.9735059 210.098913,20.7685059 210.098913,17.6613294 L210.098913,12.4529176 Z" id="Fill-12" fill="#444344" sketch:type="MSShapeGroup"></path>
                <g id="Group-16">
                    <mask id="mask-2" sketch:name="Clip 15" fill="white">
                        <use xlink:href="#path-1"></use>
                    </mask>
                    <g id="Clip-15"></g>
                    <path d="M4.8049925,43.2407706 C4.36703,43.3877706 3.55408,43.2840059 3.55408,43.2840059 L3.55408,39.7156529 L5.1771175,39.7156529 L5.1771175,42.6095353 C5.1771175,42.9496529 5.21433,43.1053 4.8049925,43.2407706 L4.8049925,43.2407706 Z M2.58083,43.2955353 L0.9577925,43.2955353 C0.9577925,43.2955353 0.995005,40.7475353 0.995005,40.4074176 C0.995005,40.0644176 1.0722925,39.9981235 1.45873,39.8021235 C1.8451675,39.6090059 2.58083,39.8021235 2.58083,39.8021235 L2.58083,43.2955353 Z M6.1560925,39.0527118 L3.63423,39.0527118 L3.63423,38.5079471 L2.6581175,38.5079471 L2.6581175,39.0642412 L0.9577925,39.0642412 C0.9577925,39.0642412 0.16488,39.1593588 -0.001145,39.8136529 L-0.001145,44.1429471 L2.58083,44.1429471 L2.58083,44.6214176 L3.5970175,44.6214176 L3.5970175,44.1141235 L5.24868,44.1141235 C5.24868,44.1141235 6.1274675,43.8316529 6.1560925,43.2090647 C6.18758,42.5864765 6.1560925,39.0527118 6.1560925,39.0527118 L6.1560925,39.0527118 Z" id="Fill-14" fill="#444344" sketch:type="MSShapeGroup" mask="url(#mask-2)"></path>
                </g>
                <path d="M8.2869375,40.5330882 L9.566475,40.5330882 C9.566475,40.5330882 9.6781125,40.5330882 9.6781125,40.6455 L9.6781125,41.3315 L8.3212875,41.3315 L8.3212875,42.0578529 L9.6781125,42.0578529 L9.6781125,42.7323235 L8.2869375,42.7323235 L8.2869375,43.5566765 L11.39275,43.5566765 C11.39275,43.5566765 11.8364375,43.4875 11.9165875,43.3462647 C11.993875,43.2050294 11.9165875,42.5939706 11.9165875,42.5939706 L11.00345,42.5939706 C11.00345,42.5939706 10.95765,42.7928529 10.837425,42.7755588 C10.7143375,42.7582647 10.6284625,42.7755588 10.6284625,42.7755588 L10.6284625,42.0434412 L11.9509375,42.0434412 L11.9509375,41.2969118 L10.654225,41.2969118 L10.654225,40.5330882 L11.9852875,40.5330882 L11.9852875,39.7260294 L8.2869375,39.7260294 L8.2869375,40.5330882 Z M7.1190375,38.5759706 L7.1190375,44.6980882 C7.1190375,44.6980882 11.192375,44.7096176 12.0196375,44.6980882 C12.8469,44.6865588 13.2791375,43.7497941 13.2791375,43.7497941 L13.2791375,38.5759706 L7.1190375,38.5759706 Z M11.8936875,43.7497941 L8.1982,43.7497941 L8.1982,39.5819118 L12.280125,39.5819118 L12.280125,43.3606765 C12.280125,43.7152059 11.8936875,43.7497941 11.8936875,43.7497941 L11.8936875,43.7497941 Z" id="Fill-17" fill="#444344" sketch:type="MSShapeGroup"></path>
                <path d="M15.7686538,38.5765471 L15.7686538,39.2654294 C15.7114038,39.3057824 15.5997663,39.6170765 15.5997663,39.6170765 L15.5997663,44.7015471 L14.5606788,44.7015471 L14.5606788,40.6806647 L14.1942788,40.6806647 L14.1942788,39.8303706 C14.9242163,39.2654294 14.9242163,38.5765471 14.9242163,38.5765471 L15.7686538,38.5765471 Z" id="Fill-19" fill="#444344" sketch:type="MSShapeGroup"></path>
                <mask id="mask-4" sketch:name="Clip 22" fill="white">
                    <use xlink:href="#path-3"></use>
                </mask>
                <g id="Clip-22"></g>
                <path d="M18.60625,41.6384706 L17.3124,41.6384706 L17.3124,40.1137059 L18.60625,40.1137059 L18.60625,41.6384706 Z M20.2665,40.0704706 L20.2665,39.2518824 L19.6052625,39.2518824 L19.6052625,38.5774118 L18.60625,38.5774118 L18.60625,39.2518824 L17.3152625,39.2518824 L17.3152625,38.5774118 L16.3878125,38.5774118 L16.3878125,39.2230588 L15.8954625,39.2230588 L15.8954625,40.0704706 L16.3878125,40.0704706 L16.3878125,41.6384706 L15.7695125,41.6384706 L15.7695125,42.4628235 L20.2665,42.4628235 L20.2665,41.6384706 L19.6482,41.6384706 L19.6482,40.0704706 L20.2665,40.0704706 Z" id="Fill-21" fill="#444344" sketch:type="MSShapeGroup" mask="url(#mask-4)"></path>
                <path d="M16.457085,42.5755235 C16.457085,42.5755235 16.4828475,43.4114059 15.7672225,43.7227 L15.7672225,44.7027 C15.7672225,44.7027 17.2557225,44.3452882 17.5648725,42.5755235 L16.457085,42.5755235 Z" id="Fill-23" fill="#444344" sketch:type="MSShapeGroup" mask="url(#mask-4)"></path>
                <path d="M18.5266725,42.5755235 C18.8358225,44.3452882 20.3243225,44.7027 20.3243225,44.7027 L20.3243225,43.7227 C19.61156,43.4114059 19.63446,42.5755235 19.63446,42.5755235 L18.5266725,42.5755235 Z" id="Fill-24" fill="#444344" sketch:type="MSShapeGroup" mask="url(#mask-4)"></path>
                <path d="M22.557645,38.5606941 C22.557645,38.9065765 22.775195,39.0305176 22.775195,39.0305176 L23.5795575,39.0305176 L23.5795575,39.7568706 L22.2914325,39.7568706 L21.70462,40.2699294 L21.0891825,40.2699294 L21.0891825,39.4311647 C21.6387825,39.3936941 21.6387825,38.5779882 21.6387825,38.5779882 L22.557645,38.5606941 Z" id="Fill-25" fill="#444344" sketch:type="MSShapeGroup" mask="url(#mask-4)"></path>
                <path d="M21.0906138,40.5662353 L21.0906138,41.2666471 L21.7661638,41.2666471 L21.7661638,41.9468824 L21.0906138,41.9468824 L21.0906138,42.7625882 L21.7661638,42.7625882 L21.7661638,43.9299412 C21.7661638,43.9299412 21.7346763,44.5986471 22.3358013,44.6303529 C22.9340638,44.6620588 23.4092388,44.6303529 23.4092388,44.6303529 L23.4092388,43.8031176 L22.8939888,43.8031176 C22.8939888,43.8031176 22.7565888,43.9097647 22.7451388,43.5379412 C22.7336888,43.1661176 22.7451388,42.7741176 22.7451388,42.7741176 L23.5809887,42.7741176 L23.5809887,41.9555294 L22.7451388,41.9555294 L22.7451388,41.2983529 L23.5809887,41.2983529 L23.5809887,40.5662353 L21.0906138,40.5662353 Z" id="Fill-26" fill="#444344" sketch:type="MSShapeGroup" mask="url(#mask-4)"></path>
                <path d="M26.3676325,41.6090706 L24.99077,41.6090706 L24.76177,41.3669529 L25.04802,41.0729529 L26.37622,41.0729529 L26.57087,41.3900118 L26.3676325,41.6090706 Z M26.3676325,42.7850706 L24.99077,42.7850706 L24.76177,42.5429529 L25.04802,42.2460706 L26.37622,42.2460706 L26.57087,42.5660118 L26.3676325,42.7850706 Z M26.58232,40.1851882 C27.50977,39.7268941 27.50977,38.8045412 27.50977,38.8045412 L26.6882325,38.8045412 C26.57087,39.1850118 26.2245075,39.5885412 26.2245075,39.5885412 L26.2245075,40.1851882 L26.0871075,40.1851882 L26.0871075,38.4442471 L25.2226325,38.4442471 L25.2226325,40.1851882 L25.10527,40.1851882 L25.10527,39.4847765 C24.72742,39.2599529 24.664445,38.7613059 24.664445,38.7613059 L23.91447,38.7613059 C23.828595,38.8708353 23.851495,38.9861294 23.851495,38.9861294 C23.988895,39.6519529 24.4841075,40.0987176 24.6215075,40.1102471 C24.7589075,40.1188941 24.6844825,40.2168941 24.6844825,40.2168941 C24.5299075,40.2831882 24.3467075,40.3523647 24.2264825,40.4503647 C24.01752,40.6175412 23.91447,40.8106588 23.91447,40.8106588 L23.91447,44.6441882 L24.778945,44.6441882 L24.778945,43.6123059 L26.5279325,43.6123059 L26.5279325,43.8140706 L25.843795,43.8140706 L25.843795,44.6441882 L26.96017,44.6441882 C27.22352,44.5836588 27.4153075,44.1858941 27.4153075,44.1858941 C27.4153075,44.1858941 27.4553825,41.2228353 27.4153075,40.8193059 C27.37237,40.4186588 26.58232,40.1851882 26.58232,40.1851882 L26.58232,40.1851882 Z" id="Fill-27" fill="#444344" sketch:type="MSShapeGroup" mask="url(#mask-4)"></path>
                <path d="M29.0560925,40.5751706 L33.9795925,40.5751706 C32.9147425,40.1485824 32.253505,39.4625824 32.253505,39.4625824 L30.72493,39.4625824 C29.9892675,40.2696412 29.0560925,40.4887 29.0560925,40.4887 L29.0560925,40.5751706 Z M29.93488,38.7304647 L33.112255,38.7304647 C33.112255,38.7304647 33.4357175,39.4942882 34.543505,39.8978176 L34.543505,40.6184059 L34.0769175,40.6184059 L34.0769175,41.4485235 L28.8499925,41.4485235 L28.8499925,40.6299353 L28.5580175,40.6299353 L28.5580175,39.8228765 C28.5580175,39.8228765 29.5541675,39.3617 29.93488,38.7304647 L29.93488,38.7304647 Z" id="Fill-28" fill="#444344" sketch:type="MSShapeGroup" mask="url(#mask-4)"></path>
                <path d="M33.0787638,43.5333294 C33.0787638,43.8273294 32.8068263,43.8705647 32.8068263,43.8705647 L29.8040638,43.8705647 L29.8040638,42.5735059 L33.0787638,42.5735059 L33.0787638,43.5333294 Z M34.0749138,41.7750941 L28.7735638,41.7750941 L28.7735638,44.6459176 L33.1760888,44.6459176 C33.1760888,44.6459176 34.0548763,44.4499176 34.0749138,43.7639176 C34.0978138,43.0750353 34.0749138,41.7750941 34.0749138,41.7750941 L34.0749138,41.7750941 Z" id="Fill-29" fill="#444344" sketch:type="MSShapeGroup" mask="url(#mask-4)"></path>
                <path d="M38.356355,38.5082353 C38.356355,38.5082353 38.1302175,39.1971176 37.35448,39.8831176 L37.35448,40.8400588 L38.0042675,40.5316471 L38.2103675,40.5316471 L38.2103675,44.6447647 L39.215105,44.6447647 L39.215105,43.3188824 L41.52228,43.3188824 L41.52228,42.6069412 L39.215105,42.6069412 L39.215105,41.5779412 L41.52228,41.5779412 L41.52228,40.8025882 L39.180755,40.8025882 L39.180755,40.0099412 L41.52228,40.0099412 L41.52228,39.2288235 L39.1893425,39.2288235 C39.1893425,39.2288235 39.15213,39.0357059 39.2236925,38.8541176 C39.2981175,38.6725294 39.3782675,38.5082353 39.3782675,38.5082353 L38.356355,38.5082353 Z M37.35448,38.5831765 C37.14838,39.3181765 36.719005,39.7620588 36.719005,39.7620588 L36.719005,44.6447647 L35.80873,44.6447647 L35.80873,40.4682353 C35.80873,40.4682353 35.64843,40.6152353 35.54538,40.6786471 C35.44233,40.7449412 35.287755,40.7968235 35.287755,40.7968235 L35.287755,39.8658235 C36.19803,39.1798235 36.3211175,38.5831765 36.3211175,38.5831765 L37.35448,38.5831765 Z" id="Fill-30" fill="#444344" sketch:type="MSShapeGroup" mask="url(#mask-4)"></path>
                <path d="M45.4733887,44.6401529 L48.7080138,44.6401529 L48.7080138,43.8532706 L47.6975512,43.8532706 L47.6975512,40.5645059 L48.7080138,40.5645059 L48.7080138,39.8669765 L47.6632013,39.8669765 L47.6632013,38.7255647 L46.6956763,38.7255647 L46.6956763,39.8612118 L45.5392262,39.8612118 L45.5392262,40.5645059 L46.6956763,40.5645059 L46.6956763,43.8446235 L45.4733887,43.8446235 L45.4733887,44.6401529 Z M42.3618513,39.2155647 L43.3465512,39.2155647 L43.3465512,38.7255647 L44.1881263,38.7255647 L44.1881263,39.2213294 L45.3274013,39.2213294 L45.3274013,39.8439176 C45.0898137,40.3195059 44.3856387,40.9680353 44.3856387,40.9680353 L44.3856387,41.0689176 L44.8007013,41.1323294 L45.2787388,41.6626824 L45.2787388,42.7320353 C44.9409638,42.5763882 44.2539637,41.9105647 44.2539637,41.9105647 L44.2539637,44.8332706 L43.3580013,44.8332706 L43.3580013,41.9941529 C43.1690763,42.1267412 42.3618513,42.4149765 42.3618513,42.4149765 L42.3618513,41.5762118 C43.3007512,40.9968588 44.0135138,40.2215059 44.0135138,40.2215059 L44.0135138,40.0053294 L42.3618513,40.0226235 L42.3618513,39.2155647 Z" id="Fill-31" fill="#444344" sketch:type="MSShapeGroup" mask="url(#mask-4)"></path>
                <path d="M12.7899363,47.9084529 L13.4225488,47.9084529 C13.4225488,47.9084529 13.2307613,48.9086294 11.9140113,48.9979824 C11.3214738,49.0383353 10.6688238,48.3898059 10.5972613,47.9084529 C10.5400113,47.5308647 10.5514613,46.5969824 11.2069738,46.2568647 C11.8624863,45.9138647 13.2622488,46.0666294 13.3853363,47.1359824 L12.7727613,47.1359824 C12.7727613,47.1359824 12.3863238,46.5681588 11.9998863,46.6402176 C11.6134487,46.7151588 11.2212863,46.9082765 11.2441863,47.5423941 C11.2584988,47.9862765 11.3186113,48.1909235 11.7508488,48.3523353 C12.0199238,48.4532176 12.3491113,48.5079824 12.7899363,47.9084529" id="Fill-32" fill="#444344" sketch:type="MSShapeGroup" mask="url(#mask-4)"></path>
                <path d="M26.970475,47.9084529 L27.6030875,47.9084529 C27.6030875,47.9084529 27.4113,48.9086294 26.09455,48.9979824 C25.5020125,49.0383353 24.8493625,48.3898059 24.7778,47.9084529 C24.72055,47.5308647 24.732,46.5969824 25.3875125,46.2568647 C26.043025,45.9138647 27.4427875,46.0666294 27.565875,47.1359824 L26.9533,47.1359824 C26.9533,47.1359824 26.5668625,46.5681588 26.180425,46.6402176 C25.7939875,46.7151588 25.401825,46.9082765 25.424725,47.5423941 C25.4390375,47.9862765 25.49915,48.1909235 25.9313875,48.3523353 C26.2004625,48.4532176 26.52965,48.5079824 26.970475,47.9084529" id="Fill-33" fill="#444344" sketch:type="MSShapeGroup" mask="url(#mask-4)"></path>
                <path d="M13.7451525,46.1588647 L13.7451525,48.8538647 L14.4207025,48.8538647 L14.4207025,47.8450412 L15.4111275,47.8450412 L15.4111275,48.8538647 L16.0752275,48.8538647 L16.0752275,46.1588647 L15.419715,46.1588647 L15.419715,47.1676882 L14.3978025,47.1676882 L14.3978025,46.1588647 L13.7451525,46.1588647 Z" id="Fill-34" fill="#444344" sketch:type="MSShapeGroup" mask="url(#mask-4)"></path>
                <path d="M17.2580125,48.853 L16.5996375,48.853 L16.5996375,46.1262941 L17.2580125,46.1262941 L17.2580125,48.853 Z" id="Fill-35" fill="#444344" sketch:type="MSShapeGroup" mask="url(#mask-4)"></path>
                <path d="M17.8236425,46.1268706 L17.8236425,48.8535765 L18.5507175,48.8535765 L18.5507175,47.4210471 L19.43523,48.8535765 L20.2682175,48.8535765 L20.2682175,46.1585765 L19.59553,46.1585765 L19.59553,47.6660471 L19.45813,47.6660471 L18.4762925,46.1268706 L17.8236425,46.1268706 Z" id="Fill-36" fill="#444344" sketch:type="MSShapeGroup" mask="url(#mask-4)"></path>
                <path d="M22.00461,47.1244529 L21.6811475,47.8450412 L22.365285,47.8450412 L22.00461,47.1244529 Z M22.365285,46.1271588 L23.556085,48.8538647 L22.766035,48.8538647 L22.5341725,48.3552176 L21.449285,48.3552176 L21.23746,48.8538647 L20.5418725,48.8538647 L21.6811475,46.1271588 L22.365285,46.1271588 Z" id="Fill-37" fill="#444344" sketch:type="MSShapeGroup" mask="url(#mask-4)"></path>
                <path d="M29.3454913,46.0625941 C28.5611663,46.0625941 27.9285538,46.7024765 27.9285538,47.4893588 C27.9285538,48.2791235 28.5611663,48.9190059 29.3454913,48.9190059 C30.1298163,48.9190059 30.7652913,48.2791235 30.7652913,47.4893588 C30.7652913,46.7024765 30.1298163,46.0625941 29.3454913,46.0625941 M30.1842038,47.4893588 C30.1842038,47.9563 29.8092163,48.3367706 29.3454913,48.3367706 C28.8817663,48.3367706 28.5067788,47.9563 28.5067788,47.4893588 C28.5067788,47.0253 28.8817663,46.6448294 29.3454913,46.6448294 C29.8092163,46.6448294 30.1842038,47.0253 30.1842038,47.4893588" id="Fill-38" fill="#444344" sketch:type="MSShapeGroup" mask="url(#mask-4)"></path>
                <path d="M33.8696725,46.0625941 C33.0853475,46.0625941 32.4498725,46.7024765 32.4498725,47.4893588 C32.4498725,48.2791235 33.0853475,48.9190059 33.8696725,48.9190059 C34.6539975,48.9190059 35.28661,48.2791235 35.28661,47.4893588 C35.28661,46.7024765 34.6539975,46.0625941 33.8696725,46.0625941 M34.708385,47.4893588 C34.708385,47.9563 34.3333975,48.3367706 33.8696725,48.3367706 C33.4059475,48.3367706 33.03096,47.9563 33.03096,47.4893588 C33.03096,47.0253 33.4059475,46.6448294 33.8696725,46.6448294 C34.3333975,46.6448294 34.708385,47.0253 34.708385,47.4893588" id="Fill-39" fill="#444344" sketch:type="MSShapeGroup" mask="url(#mask-4)"></path>
                <path d="M32.2231625,47.8124706 L31.0151875,47.8124706 L31.0151875,47.1754706 L32.2231625,47.1754706 L32.2231625,47.8124706 Z" id="Fill-40" fill="#444344" sketch:type="MSShapeGroup" mask="url(#mask-4)"></path>
                <path d="M36.350315,46.6376235 L36.350315,47.4908 L36.97434,47.4908 C36.97434,47.4908 37.3149775,47.4245059 37.3149775,47.0642118 C37.3149775,46.7039176 36.97434,46.6376235 36.97434,46.6376235 L36.350315,46.6376235 Z M37.438065,46.1764471 C37.438065,46.1764471 38.05064,46.3263294 38.05064,47.0209765 C38.05064,47.7992118 37.438065,47.8424471 37.438065,47.8424471 L36.338865,47.8424471 L36.338865,48.8628 L35.674765,48.8628 L35.674765,46.1764471 L37.438065,46.1764471 Z" id="Fill-41" fill="#444344" sketch:type="MSShapeGroup" mask="url(#mask-4)"></path>
                <path d="M14.7705,12.3883529 L21.2597875,12.3883529 L21.2597875,25.9325294 L14.7705,25.9325294 L14.7705,12.3883529 Z" id="Fill-42" fill="#FFF000" sketch:type="MSShapeGroup" mask="url(#mask-4)"></path>
                <path d="M27.5916375,12.3883529 L34.080925,12.3883529 L34.080925,25.9325294 L27.5916375,25.9325294 L27.5916375,12.3883529 Z" id="Fill-43" fill="#FFF000" sketch:type="MSShapeGroup" mask="url(#mask-4)"></path>
                <path d="M17.604375,9.53482353 L31.241325,9.53482353 L31.241325,16.0691176 L17.604375,16.0691176 L17.604375,9.53482353 Z" id="Fill-44" fill="#FFF000" sketch:type="MSShapeGroup" mask="url(#mask-4)"></path>
                <path d="M17.604375,22.2546471 L31.241325,22.2546471 L31.241325,28.7889412 L17.604375,28.7889412 L17.604375,22.2546471 Z" id="Fill-45" fill="#FFF000" sketch:type="MSShapeGroup" mask="url(#mask-4)"></path>
                <path d="M24.4245675,19.1027941 C24.39308,19.1027941 24.3673175,19.1287353 24.3673175,19.1604412 C24.3673175,19.1950294 24.39308,19.2209706 24.4245675,19.2209706 C24.456055,19.2209706 24.4818175,19.1950294 24.4818175,19.1604412 C24.4818175,19.1287353 24.456055,19.1027941 24.4245675,19.1027941 M24.4245675,25.2767941 C21.0754425,25.2767941 18.353205,22.5327941 18.353205,19.1604412 C18.353205,15.7909706 21.0754425,13.0469706 24.4245675,13.0469706 C27.7736925,13.0469706 30.49593,15.7909706 30.49593,19.1604412 C30.49593,22.5327941 27.7736925,25.2767941 24.4245675,25.2767941" id="Fill-46" fill="#FFF000" sketch:type="MSShapeGroup" mask="url(#mask-4)"></path>
                <path d="M24.3169375,37.0540882 C23.6929125,37.0540882 23.1261375,36.8407941 22.6795875,36.4343824 C22.3074625,36.0971471 18.8610125,32.4942059 17.398275,30.9607941 L16.9030625,30.4448529 L16.88875,29.7271471 C16.8801625,29.2400294 16.9316875,27.5711471 18.0308875,26.5825 C18.623425,26.0492647 19.424925,25.7812059 20.4124875,25.7812059 C20.867625,25.7812059 21.222575,25.8388529 21.291275,25.8532647 L21.8322875,25.9483824 L24.3970875,28.4127941 L26.6327,26.1674412 L26.8702875,26.0406176 C27.03345,25.9512647 27.6317125,25.6659118 28.447525,25.6659118 C29.3377625,25.6659118 30.1793375,26.0002647 30.8777875,26.6315 C32.3090375,27.9285588 32.1745,29.8020882 31.4417,30.9953824 L31.373,31.1077941 L31.2899875,31.2057941 C30.6545125,31.9725 26.901775,35.6561471 26.1546625,36.3882647 L25.9686,36.5698529 L25.7367375,36.6937941 C25.5335,36.8033235 24.989625,37.0540882 24.3169375,37.0540882" id="Fill-47" fill="#FFF000" sketch:type="MSShapeGroup" mask="url(#mask-4)"></path>
                <path d="M28.447525,12.6175 C27.6317125,12.6175 27.03345,12.3292647 26.8702875,12.2427941 L26.6327,12.1130882 L24.3970875,9.87061765 L21.8322875,12.3321471 L21.291275,12.4301471 C21.2254375,12.4416765 20.867625,12.5022059 20.4124875,12.5022059 C19.424925,12.5022059 18.623425,12.2312647 18.0308875,11.7009118 C16.9316875,10.7093824 16.8801625,9.04338235 16.88875,8.55626471 L16.9030625,7.83855882 L17.398275,7.31973529 C18.8610125,5.78632353 22.3074625,2.18626471 22.6795875,1.84614706 C23.1261375,1.44261765 23.6929125,1.22932353 24.3169375,1.22932353 C24.989625,1.22932353 25.5335,1.48008824 25.7367375,1.58961765 L25.9686,1.71067647 L26.1546625,1.89514706 C26.901775,2.62726471 30.6545125,6.30802941 31.2899875,7.07761765 L31.373,7.17561765 L31.4417,7.28514706 C32.1745,8.47844118 32.3090375,10.3548529 30.8777875,11.6519118 C30.1793375,12.2831471 29.3377625,12.6175 28.447525,12.6175" id="Fill-48" fill="#FFF000" sketch:type="MSShapeGroup" mask="url(#mask-4)"></path>
                <path d="M34.880135,26.7367059 C34.26756,26.7367059 32.74471,26.6242941 31.822985,25.5837647 C30.80966,24.4423529 31.010035,22.785 31.09591,22.3036471 L31.193235,21.7588824 L33.63781,19.1762941 L31.410785,16.9251765 L31.2819725,16.6859412 C30.8640475,15.8990588 30.5205475,14.1638824 31.868785,12.6506471 C32.50426,11.9387059 33.368735,11.5467059 34.30191,11.5467059 C35.2665725,11.5467059 36.002235,11.956 36.2054725,12.0828235 L36.3142475,12.152 L36.414435,12.2355882 C37.17586,12.8754706 40.834135,16.6542353 41.5583475,17.4065294 L41.7415475,17.5938824 L41.8617725,17.8273529 C42.288285,18.6372941 42.47721,19.9314706 41.60701,20.9057059 C41.2720975,21.2804118 37.6939725,24.7478824 36.1711225,26.2236471 L35.6615975,26.7165294 L34.94311,26.7367059 L34.880135,26.7367059 Z" id="Fill-49" fill="#FFF000" sketch:type="MSShapeGroup" mask="url(#mask-4)"></path>
                <path d="M13.919765,26.7361294 L13.2127275,26.7159529 L12.6917525,26.2230706 C11.1689025,24.7501882 7.5907775,21.2798353 7.255865,20.9051294 C6.385665,19.9308941 6.57459,18.6367176 7.0011025,17.8267765 L7.1213275,17.5933059 L7.3045275,17.4059529 C8.02874,16.6536588 11.687015,12.8748941 12.4513025,12.2350118 L12.5486275,12.1514235 L12.6574025,12.0822471 C12.86064,11.9583059 13.5963025,11.5461294 14.560965,11.5461294 C15.49414,11.5461294 16.358615,11.9381294 16.99409,12.6500706 C18.34519,14.1633059 17.9988275,15.8984824 17.5809025,16.6853647 L17.45209,16.9246 L15.225065,19.1757176 L17.66964,21.7583059 L17.766965,22.3030706 C17.85284,22.7844235 18.053215,24.4446588 17.03989,25.5860706 C16.1210275,26.6237176 14.595315,26.7361294 13.98274,26.7361294 L13.919765,26.7361294 Z" id="Fill-50" fill="#FFF000" sketch:type="MSShapeGroup" mask="url(#mask-4)"></path>
                <path d="M18.9354375,24.4625294 L15.829625,24.4625294 L15.829625,13.6594706 L18.9354375,13.6594706 L18.9354375,24.4625294 Z" id="Fill-51" fill="#009944" sketch:type="MSShapeGroup" mask="url(#mask-4)"></path>
                <path d="M32.976,24.4625294 L29.8701875,24.4625294 L29.8701875,13.6594706 L32.976,13.6594706 L32.976,24.4625294 Z" id="Fill-52" fill="#009944" sketch:type="MSShapeGroup" mask="url(#mask-4)"></path>
                <path d="M29.8701875,13.6565882 L18.9354375,13.6565882 L18.9354375,10.5292353 L29.8701875,10.5292353 L29.8701875,13.6565882 Z" id="Fill-53" fill="#009944" sketch:type="MSShapeGroup" mask="url(#mask-4)"></path>
                <path d="M29.8701875,27.5898824 L18.9354375,27.5898824 L18.9354375,24.4625294 L29.8701875,24.4625294 L29.8701875,27.5898824 Z" id="Fill-54" fill="#009944" sketch:type="MSShapeGroup" mask="url(#mask-4)"></path>
                <path d="M24.4036712,14.3774647 C21.8360087,14.3774647 19.7549712,16.4729353 19.7549712,19.0584059 C19.7549712,21.6467588 21.8360087,23.7422294 24.4036712,23.7422294 C26.9713337,23.7422294 29.0523713,21.6467588 29.0523713,19.0584059 C29.0523713,16.4729353 26.9713337,14.3774647 24.4036712,14.3774647 M26.4675338,19.0584059 C26.4675338,20.2084647 25.5429462,21.1365824 24.4036712,21.1365824 C23.2643963,21.1365824 22.3398087,20.2084647 22.3398087,19.0584059 C22.3398087,17.9112294 23.2643963,16.9802294 24.4036712,16.9802294 C25.5429462,16.9802294 26.4675338,17.9112294 26.4675338,19.0584059" id="Fill-55" fill="#009944" sketch:type="MSShapeGroup" mask="url(#mask-4)"></path>
                <path d="M30.1323925,28.7356176 C29.0904425,27.7930882 28.02273,28.3666765 28.02273,28.3666765 L24.40453,32.0013235 L20.620305,28.3666765 C20.620305,28.3666765 19.3464925,28.1389706 18.7339175,28.6895 C18.124205,29.2371471 18.15283,30.5860882 18.15283,30.5860882 C18.15283,30.5860882 23.43128,36.1173235 23.8291675,36.4776176 C24.2299175,36.8379118 24.9054675,36.4776176 24.9054675,36.4776176 C24.9054675,36.4776176 29.723055,31.7620882 30.3842925,30.9607941 C30.3842925,30.9607941 31.1743425,29.6781471 30.1323925,28.7356176" id="Fill-56" fill="#009944" sketch:type="MSShapeGroup" mask="url(#mask-4)"></path>
                <path d="M30.1323925,9.33882353 C29.0904425,10.2813529 28.02273,9.70776471 28.02273,9.70776471 L24.40453,6.07311765 L20.620305,9.70776471 C20.620305,9.70776471 19.3464925,9.93547059 18.7339175,9.38494118 C18.124205,8.83729412 18.15283,7.48835294 18.15283,7.48835294 C18.15283,7.48835294 23.43128,1.95711765 23.8291675,1.59682353 C24.2299175,1.23652941 24.9054675,1.59682353 24.9054675,1.59682353 C24.9054675,1.59682353 29.723055,6.31235294 30.3842925,7.11364706 C30.3842925,7.11364706 31.1743425,8.39629412 30.1323925,9.33882353" id="Fill-57" fill="#009944" sketch:type="MSShapeGroup" mask="url(#mask-4)"></path>
                <path d="M34.04314,13.2766941 C33.1071025,14.3229882 33.67674,15.3981059 33.67674,15.3981059 L37.2863525,19.0442824 L33.67674,22.8547529 C33.67674,22.8547529 33.4506025,24.1374 33.99734,24.7513412 C34.541215,25.3681647 35.880865,25.3393412 35.880865,25.3393412 C35.880865,25.3393412 41.3740025,20.0214 41.731815,19.6207529 C42.0896275,19.2201059 41.731815,18.5398706 41.731815,18.5398706 C41.731815,18.5398706 37.048765,13.6888706 36.25299,13.0201647 C36.25299,13.0201647 34.9791775,12.2275176 34.04314,13.2766941" id="Fill-58" fill="#009944" sketch:type="MSShapeGroup" mask="url(#mask-4)"></path>
                <path d="M14.7799463,13.2766941 C15.7159838,14.3229882 15.1463463,15.3981059 15.1463463,15.3981059 L11.5367338,19.0442824 L15.1463463,22.8547529 C15.1463463,22.8547529 15.3724838,24.1374 14.8257463,24.7513412 C14.2818713,25.3681647 12.9422213,25.3393412 12.9422213,25.3393412 C12.9422213,25.3393412 7.44908375,20.0214 7.09127125,19.6207529 C6.73345875,19.2201059 7.09127125,18.5398706 7.09127125,18.5398706 C7.09127125,18.5398706 11.7743213,13.6888706 12.5700963,13.0201647 C12.5700963,13.0201647 13.8439088,12.2275176 14.7799463,13.2766941" id="Fill-59" fill="#009944" sketch:type="MSShapeGroup" mask="url(#mask-4)"></path>
                <path d="M75.6220975,38.9809412 L74.966585,39.3931176 C74.39981,38.6350588 73.6297975,38.2545882 72.64796,38.2545882 C71.8664975,38.2545882 71.21671,38.5111176 70.6985975,39.0184118 C70.1833475,39.5228235 69.92286,40.1396471 69.92286,40.8631176 C69.92286,41.3358235 70.043085,41.7797059 70.2806725,42.1947647 C70.51826,42.6127059 70.844585,42.9326471 71.2596475,43.1632353 C71.67471,43.3938235 72.138435,43.5091176 72.653685,43.5091176 C73.59831,43.5091176 74.371185,43.1286471 74.966585,42.3734706 L75.6220975,42.8058235 C75.31581,43.2727647 74.90361,43.6330588 74.3854975,43.8895882 C73.867385,44.149 73.27771,44.2758235 72.6164725,44.2758235 C71.600285,44.2758235 70.75871,43.953 70.0860225,43.3015882 C69.41906,42.6501765 69.0841475,41.8575294 69.0841475,40.9265294 C69.0841475,40.3010588 69.241585,39.7188235 69.5535975,39.1798235 C69.86561,38.6437059 70.2978475,38.2228824 70.844585,37.9231176 C71.38846,37.6204706 72.0038975,37.4734706 72.68231,37.4734706 C73.10596,37.4734706 73.51816,37.5368824 73.913185,37.6665882 C74.30821,37.7991765 74.6431225,37.9663529 74.920785,38.1796471 C75.195585,38.3900588 75.43031,38.6581176 75.6220975,38.9809412" id="Fill-60" fill="#939394" sketch:type="MSShapeGroup" mask="url(#mask-4)"></path>
                <path d="M81.4618837,38.2857176 C80.7748838,38.2857176 80.1852088,38.5422471 79.6899963,39.0553059 C79.1947837,39.5626 78.9486088,40.1823059 78.9486088,40.9086588 C78.9486088,41.3756 79.0602463,41.8137176 79.2863837,42.2172471 C79.5096588,42.6236588 79.8159463,42.9349529 80.1995213,43.1540118 C80.5802338,43.3759529 81.0038837,43.4854824 81.4618837,43.4854824 C81.9198838,43.4854824 82.3435338,43.3759529 82.7242463,43.1540118 C83.1078213,42.9349529 83.4141087,42.6236588 83.6373838,42.2172471 C83.8635213,41.8137176 83.9751588,41.3756 83.9751588,40.9086588 C83.9751588,40.1823059 83.7261213,39.5626 83.2309087,39.0553059 C82.7356963,38.5422471 82.1460213,38.2857176 81.4618837,38.2857176 M81.4647463,37.4728941 C82.4551713,37.4728941 83.2767088,37.8331882 83.9264962,38.5537765 C84.5161712,39.2109529 84.8138713,39.9920706 84.8138713,40.8913647 C84.8138713,41.7964235 84.5018588,42.5861882 83.8778338,43.2635412 C83.2509462,43.9380118 82.4465838,44.2752471 81.4647463,44.2752471 C80.4771837,44.2752471 79.6728212,43.9380118 79.0459338,43.2635412 C78.4219088,42.5861882 78.1098963,41.7964235 78.1098963,40.8913647 C78.1098963,39.9949529 78.4075962,39.2167176 78.9972712,38.5595412 C79.6470587,37.8331882 80.4685963,37.4728941 81.4647463,37.4728941" id="Fill-61" fill="#939394" sketch:type="MSShapeGroup" mask="url(#mask-4)"></path>
                <path d="M90.5944037,38.2857176 C89.9074038,38.2857176 89.3177288,38.5422471 88.8225163,39.0553059 C88.3273037,39.5626 88.0811288,40.1823059 88.0811288,40.9086588 C88.0811288,41.3756 88.1927663,41.8137176 88.4189037,42.2172471 C88.6421788,42.6236588 88.9484663,42.9349529 89.3320413,43.1540118 C89.7127538,43.3759529 90.1364037,43.4854824 90.5944037,43.4854824 C91.0524038,43.4854824 91.4760538,43.3759529 91.8567663,43.1540118 C92.2403413,42.9349529 92.5466287,42.6236588 92.7699038,42.2172471 C92.9960413,41.8137176 93.1076787,41.3756 93.1076787,40.9086588 C93.1076787,40.1823059 92.8586413,39.5626 92.3634287,39.0553059 C91.8682162,38.5422471 91.2785413,38.2857176 90.5944037,38.2857176 M90.5972663,37.4728941 C91.5876913,37.4728941 92.4092287,37.8331882 93.0590162,38.5537765 C93.6486912,39.2109529 93.9463913,39.9920706 93.9463913,40.8913647 C93.9463913,41.7964235 93.6343788,42.5861882 93.0103537,43.2635412 C92.3834663,43.9380118 91.5791038,44.2752471 90.5972663,44.2752471 C89.6097037,44.2752471 88.8053412,43.9380118 88.1784538,43.2635412 C87.5544287,42.5861882 87.2424163,41.7964235 87.2424163,40.8913647 C87.2424163,39.9949529 87.5401162,39.2167176 88.1297912,38.5595412 C88.7795787,37.8331882 89.6011163,37.4728941 90.5972663,37.4728941" id="Fill-62" fill="#939394" sketch:type="MSShapeGroup" mask="url(#mask-4)"></path>
                <path d="M100.00659,38.2744765 C99.2938275,38.2744765 98.68984,38.5252412 98.2003525,39.0296529 C97.710865,39.5340647 97.4675525,40.1566529 97.4675525,40.9060647 C97.4675525,41.3960647 97.5763275,41.8370647 97.79674,42.2319471 C98.01429,42.6239471 98.32344,42.9323588 98.7327775,43.1629471 C99.13639,43.3935353 99.5686275,43.5088294 100.020903,43.5088294 C100.461728,43.5088294 100.882515,43.3906529 101.271815,43.1600647 C101.661115,42.9294765 101.973128,42.6066529 102.207853,42.1887118 C102.439715,41.7736529 102.554215,41.3355353 102.554215,40.8830059 C102.554215,40.4218294 102.439715,39.9865941 102.210715,39.5744176 C101.978853,39.1651235 101.669703,38.8423 101.280403,38.6145941 C100.893965,38.3868882 100.467453,38.2744765 100.00659,38.2744765 L100.00659,38.2744765 Z M96.7004025,37.6374765 L97.527665,37.6374765 L97.527665,38.8250059 C97.85399,38.3753588 98.2289775,38.0352412 98.6526275,37.8104176 C99.07914,37.5855941 99.554315,37.4731824 100.07529,37.4731824 C100.988428,37.4731824 101.76989,37.8017706 102.419678,38.4618294 C103.066603,39.1276529 103.392928,39.9231824 103.392928,40.8570647 C103.392928,41.8082412 103.069465,42.6153 102.428265,43.2782412 C101.784203,43.9440647 101.008465,44.2755353 100.09819,44.2755353 C99.588665,44.2755353 99.1163525,44.1688882 98.68984,43.9555941 C98.260465,43.7394176 97.8740275,43.4223588 97.527665,42.9986529 L97.527665,46.4776529 L96.7004025,46.4776529 L96.7004025,37.6374765 Z" id="Fill-63" fill="#939394" sketch:type="MSShapeGroup" mask="url(#mask-4)"></path>
                <path d="M109.18949,38.2857176 C108.50249,38.2857176 107.912815,38.5422471 107.417603,39.0553059 C106.92239,39.5626 106.676215,40.1823059 106.676215,40.9086588 C106.676215,41.3756 106.787853,41.8137176 107.01399,42.2172471 C107.237265,42.6236588 107.543553,42.9349529 107.927128,43.1540118 C108.30784,43.3759529 108.73149,43.4854824 109.18949,43.4854824 C109.64749,43.4854824 110.07114,43.3759529 110.451853,43.1540118 C110.835428,42.9349529 111.141715,42.6236588 111.36499,42.2172471 C111.591128,41.8137176 111.702765,41.3756 111.702765,40.9086588 C111.702765,40.1823059 111.453727,39.5626 110.958515,39.0553059 C110.463303,38.5422471 109.873627,38.2857176 109.18949,38.2857176 M109.192352,37.4728941 C110.182778,37.4728941 111.004315,37.8331882 111.654103,38.5537765 C112.243778,39.2109529 112.541478,39.9920706 112.541478,40.8913647 C112.541478,41.7964235 112.229465,42.5861882 111.60544,43.2635412 C110.978553,43.9380118 110.17419,44.2752471 109.192352,44.2752471 C108.20479,44.2752471 107.400428,43.9380118 106.77354,43.2635412 C106.149515,42.5861882 105.837503,41.7964235 105.837503,40.8913647 C105.837503,39.9949529 106.135203,39.2167176 106.724878,38.5595412 C107.374665,37.8331882 108.196203,37.4728941 109.192352,37.4728941" id="Fill-64" fill="#939394" sketch:type="MSShapeGroup" mask="url(#mask-4)"></path>
                <path d="M114.671177,37.6383412 L115.552827,37.6383412 L117.711152,42.3567529 L119.840852,37.6383412 L120.725365,37.6383412 L117.785578,44.1092235 L117.631002,44.1092235 L114.671177,37.6383412 Z" id="Fill-65" fill="#939394" sketch:type="MSShapeGroup" mask="url(#mask-4)"></path>
                <path d="M128.6064,40.2194882 C128.497625,39.7756059 128.337325,39.4210765 128.1255,39.1559 C127.916538,38.8878412 127.636013,38.6745471 127.28965,38.5102529 C126.940425,38.3517235 126.576887,38.2681353 126.193313,38.2681353 C125.563563,38.2681353 125.02255,38.4727824 124.567413,38.8791941 C124.238225,39.1789588 123.986325,39.6257235 123.817438,40.2194882 L128.6064,40.2194882 Z M128.6064,41.9604294 L129.30485,42.3293706 C129.07585,42.7847824 128.8125,43.1479588 128.511938,43.4246647 C128.211375,43.7042529 127.876463,43.9146647 127.501475,44.0587824 C127.126488,44.2029 126.702838,44.2749588 126.230525,44.2749588 C125.18285,44.2749588 124.364175,43.9290765 123.771638,43.2373118 C123.1791,42.5484294 122.884263,41.7644294 122.884263,40.8910765 C122.884263,40.0696059 123.1333,39.3374882 123.634238,38.6976059 C124.26685,37.8790176 125.117013,37.4726059 126.181863,37.4726059 C127.2782,37.4726059 128.154125,37.8876647 128.806775,38.7235471 C129.273363,39.3173118 129.508088,40.0523118 129.516675,40.9400765 L123.734425,40.9400765 C123.7516,41.6923706 123.989188,42.3091941 124.45005,42.7876647 C124.910913,43.2690176 125.48055,43.5111353 126.161825,43.5111353 C126.48815,43.5111353 126.803025,43.4506059 127.115038,43.3353118 C127.424188,43.2229 127.687538,43.0701353 127.905088,42.8799 C128.119775,42.6896647 128.3545,42.3841353 128.6064,41.9604294 L128.6064,41.9604294 Z" id="Fill-66" fill="#939394" sketch:type="MSShapeGroup" mask="url(#mask-4)"></path>
                <path d="M131.955239,37.6383412 L132.799676,37.6383412 L132.799676,38.5837529 C133.051576,38.2090471 133.317789,37.9323412 133.595451,37.7478706 C133.875976,37.5634 134.165089,37.4711647 134.471376,37.4711647 C134.700376,37.4711647 134.943689,37.5461059 135.204176,37.6931059 L134.771939,38.3935176 C134.600189,38.3156941 134.454201,38.2811059 134.333976,38.2811059 C134.059176,38.2811059 133.795826,38.3935176 133.538201,38.6212235 C133.280576,38.8489294 133.088789,39.2034588 132.954251,39.6848118 C132.848339,40.0537529 132.799676,40.8002824 132.799676,41.9186353 L132.799676,44.1092235 L131.955239,44.1092235 L131.955239,37.6383412 Z" id="Fill-67" fill="#939394" sketch:type="MSShapeGroup" mask="url(#mask-4)"></path>
                <path d="M140.349806,38.3448059 L139.814519,38.8982176 C139.373694,38.4658647 138.944319,38.2496882 138.517806,38.2496882 C138.251594,38.2496882 138.022594,38.3390412 137.830806,38.5177471 C137.639019,38.6964529 137.544556,38.9039824 137.544556,39.1403353 C137.544556,39.3536294 137.621844,39.5525118 137.782144,39.7427471 C137.936719,39.9387471 138.268769,40.1664529 138.772569,40.4287471 C139.390869,40.7486882 139.808794,41.0571 140.029206,41.3568647 C140.246756,41.6566294 140.355531,41.9967471 140.355531,42.3714529 C140.355531,42.9046882 140.169469,43.3543353 139.800206,43.7232765 C139.428081,44.0922176 138.964356,44.2766882 138.406169,44.2766882 C138.036906,44.2766882 137.681956,44.1931 137.347044,44.0345706 C137.009269,43.8702765 136.728744,43.6454529 136.508331,43.3601 L137.029306,42.7634529 C137.450094,43.2448059 137.899506,43.4840412 138.374681,43.4840412 C138.703869,43.4840412 138.984394,43.3773941 139.219119,43.1641 C139.453844,42.9508059 139.571206,42.6971588 139.571206,42.4089235 C139.571206,42.1696882 139.491056,41.9592765 139.336481,41.7690412 C139.184769,41.5903353 138.838406,41.3597471 138.294531,41.0801588 C137.716306,40.7803941 137.321281,40.4835118 137.112319,40.1895118 C136.903356,39.8955118 136.800306,39.5611588 136.800306,39.1835706 C136.800306,38.6906882 136.963469,38.2842765 137.298381,37.9585706 C137.633294,37.6328647 138.051219,37.4714529 138.560744,37.4714529 C139.153281,37.4714529 139.748681,37.7625706 140.349806,38.3448059" id="Fill-68" fill="#939394" sketch:type="MSShapeGroup" mask="url(#mask-4)"></path>
                <path d="M148.434365,40.2194882 C148.32559,39.7756059 148.16529,39.4210765 147.953465,39.1559 C147.744503,38.8878412 147.463978,38.6745471 147.117615,38.5102529 C146.76839,38.3517235 146.404853,38.2681353 146.021278,38.2681353 C145.391528,38.2681353 144.850515,38.4727824 144.395378,38.8791941 C144.06619,39.1789588 143.81429,39.6257235 143.645403,40.2194882 L148.434365,40.2194882 Z M148.434365,41.9604294 L149.132815,42.3293706 C148.903815,42.7847824 148.640465,43.1479588 148.339903,43.4246647 C148.03934,43.7042529 147.704428,43.9146647 147.32944,44.0587824 C146.954453,44.2029 146.530803,44.2749588 146.05849,44.2749588 C145.010815,44.2749588 144.19214,43.9290765 143.599603,43.2373118 C143.007065,42.5484294 142.712228,41.7644294 142.712228,40.8910765 C142.712228,40.0696059 142.961265,39.3374882 143.462203,38.6976059 C144.094815,37.8790176 144.944978,37.4726059 146.009828,37.4726059 C147.106165,37.4726059 147.98209,37.8876647 148.63474,38.7235471 C149.101328,39.3173118 149.336053,40.0523118 149.34464,40.9400765 L143.56239,40.9400765 C143.579565,41.6923706 143.817153,42.3091941 144.278015,42.7876647 C144.738878,43.2690176 145.308515,43.5111353 145.98979,43.5111353 C146.316115,43.5111353 146.63099,43.4506059 146.943003,43.3353118 C147.252153,43.2229 147.515503,43.0701353 147.733053,42.8799 C147.94774,42.6896647 148.182465,42.3841353 148.434365,41.9604294 L148.434365,41.9604294 Z" id="Fill-69" fill="#939394" sketch:type="MSShapeGroup" mask="url(#mask-4)"></path>
                <path d="M155.196449,38.2744765 C154.735586,38.2744765 154.309074,38.3868882 153.922636,38.6145941 C153.533336,38.8423 153.224186,39.1651235 152.992324,39.5744176 C152.760461,39.9865941 152.645961,40.4218294 152.645961,40.8830059 C152.645961,41.3355353 152.763324,41.7736529 152.995186,42.1887118 C153.229911,42.6066529 153.539061,42.9294765 153.931224,43.1600647 C154.320524,43.3906529 154.744174,43.5088294 155.190724,43.5088294 C155.642999,43.5088294 156.072374,43.3935353 156.475986,43.1629471 C156.882461,42.9323588 157.194474,42.6239471 157.412024,42.2319471 C157.632436,41.8370647 157.741211,41.3960647 157.741211,40.9060647 C157.741211,40.1566529 157.495036,39.5340647 157.005549,39.0296529 C156.516061,38.5252412 155.912074,38.2744765 155.196449,38.2744765 L155.196449,38.2744765 Z M158.502636,37.6374765 L158.502636,44.1083588 L157.686824,44.1083588 L157.686824,42.9986529 C157.340461,43.4223588 156.951161,43.7394176 156.521786,43.9555941 C156.089549,44.1688882 155.614374,44.2755353 155.104849,44.2755353 C154.194574,44.2755353 153.418836,43.9440647 152.774774,43.2782412 C152.130711,42.6153 151.807249,41.8082412 151.807249,40.8570647 C151.807249,39.9231824 152.133574,39.1276529 152.783361,38.4618294 C153.433149,37.8017706 154.214611,37.4731824 155.130611,37.4731824 C155.657311,37.4731824 156.132486,37.5855941 156.561861,37.8104176 C156.988374,38.0352412 157.363361,38.3753588 157.686824,38.8250059 L157.686824,37.6374765 L158.502636,37.6374765 Z" id="Fill-70" fill="#939394" sketch:type="MSShapeGroup" mask="url(#mask-4)"></path>
                <path d="M164.804144,38.3448059 L164.268856,38.8982176 C163.828031,38.4658647 163.398656,38.2496882 162.972144,38.2496882 C162.705931,38.2496882 162.476931,38.3390412 162.285144,38.5177471 C162.093356,38.6964529 161.998894,38.9039824 161.998894,39.1403353 C161.998894,39.3536294 162.076181,39.5525118 162.236481,39.7427471 C162.391056,39.9387471 162.723106,40.1664529 163.226906,40.4287471 C163.845206,40.7486882 164.263131,41.0571 164.483544,41.3568647 C164.701094,41.6566294 164.809869,41.9967471 164.809869,42.3714529 C164.809869,42.9046882 164.623806,43.3543353 164.254544,43.7232765 C163.882419,44.0922176 163.418694,44.2766882 162.860506,44.2766882 C162.491244,44.2766882 162.136294,44.1931 161.801381,44.0345706 C161.463606,43.8702765 161.183081,43.6454529 160.962669,43.3601 L161.483644,42.7634529 C161.904431,43.2448059 162.353844,43.4840412 162.829019,43.4840412 C163.158206,43.4840412 163.438731,43.3773941 163.673456,43.1641 C163.908181,42.9508059 164.025544,42.6971588 164.025544,42.4089235 C164.025544,42.1696882 163.945394,41.9592765 163.790819,41.7690412 C163.639106,41.5903353 163.292744,41.3597471 162.748869,41.0801588 C162.170644,40.7803941 161.775619,40.4835118 161.566656,40.1895118 C161.357694,39.8955118 161.254644,39.5611588 161.254644,39.1835706 C161.254644,38.6906882 161.417806,38.2842765 161.752719,37.9585706 C162.087631,37.6328647 162.505556,37.4714529 163.015081,37.4714529 C163.607619,37.4714529 164.203019,37.7625706 164.804144,38.3448059" id="Fill-71" fill="#939394" sketch:type="MSShapeGroup" mask="url(#mask-4)"></path>
                <path d="M170.839439,43.4733765 C171.300301,43.4733765 171.723951,43.3580824 172.113251,43.1303765 C172.502551,42.9026706 172.808839,42.5827294 173.043564,42.1705529 C173.272564,41.7583765 173.387064,41.3231412 173.387064,40.8619647 C173.387064,40.4036706 173.272564,39.9626706 173.040701,39.5476118 C172.805976,39.1296706 172.493964,38.8068471 172.101801,38.5762588 C171.715364,38.3427882 171.294576,38.2274941 170.850889,38.2274941 C170.401476,38.2274941 169.969239,38.3427882 169.565626,38.5762588 C169.156289,38.8068471 168.844276,39.1181412 168.626726,39.5101412 C168.406314,39.9050235 168.297539,40.3460235 168.297539,40.8389059 C168.297539,41.5883176 168.543714,42.2137882 169.033201,42.7153176 C169.522689,43.2197294 170.123814,43.4733765 170.839439,43.4733765 L170.839439,43.4733765 Z M167.533251,44.1103765 L167.533251,35.1376118 L168.360514,35.1376118 L168.360514,38.7492 C168.704014,38.3226118 169.093314,38.0026706 169.519826,37.7893765 C169.949201,37.5760824 170.421514,37.4723176 170.931039,37.4723176 C171.841314,37.4723176 172.617051,37.8037882 173.261114,38.4696118 C173.902314,39.1325529 174.225776,39.9367294 174.225776,40.8879059 C174.225776,41.8217882 173.899451,42.6202 173.252526,43.2831412 C172.599876,43.9460824 171.821276,44.2746706 170.908139,44.2746706 C170.384301,44.2746706 169.911989,44.1622588 169.485476,43.9374353 C169.061826,43.7097294 168.683976,43.3724941 168.360514,42.9199647 L168.360514,44.1103765 L167.533251,44.1103765 Z" id="Fill-72" fill="#939394" sketch:type="MSShapeGroup" mask="url(#mask-4)"></path>
                <path d="M176.835518,37.6383412 L177.66278,37.6383412 L177.66278,40.6590471 C177.66278,41.3969294 177.702855,41.9042235 177.780143,42.1809294 C177.897505,42.5786941 178.123643,42.8899882 178.455693,43.1205765 C178.790605,43.3511647 179.188493,43.4664588 179.649355,43.4664588 C180.11308,43.4664588 180.50238,43.3540471 180.825842,43.1292235 C181.146443,42.9072824 181.366855,42.6132824 181.489943,42.2501059 C181.570093,41.9993412 181.61303,41.4689882 181.61303,40.6590471 L181.61303,37.6383412 L182.46033,37.6383412 L182.46033,40.8146941 C182.46033,41.7053412 182.35728,42.3798118 182.148318,42.8323412 C181.942217,43.2819882 181.630205,43.6365176 181.215143,43.8930471 C180.80008,44.1495765 180.279105,44.2764 179.652218,44.2764 C179.028193,44.2764 178.504355,44.1495765 178.08643,43.8930471 C177.665643,43.6365176 177.35363,43.2791059 177.144667,42.8208118 C176.938568,42.3654 176.835518,41.6736353 176.835518,40.7541647 L176.835518,37.6383412 Z" id="Fill-73" fill="#939394" sketch:type="MSShapeGroup" mask="url(#mask-4)"></path>
                <path d="M184.813878,37.6383412 L185.689803,37.6383412 L187.89679,42.6219294 L190.043665,37.6383412 L190.925315,37.6383412 L187.089565,46.4756353 L186.216502,46.4756353 L187.453102,43.6192235 L184.813878,37.6383412 Z" id="Fill-74" fill="#939394" sketch:type="MSShapeGroup" mask="url(#mask-4)"></path>
                <path d="M194.111277,42.8006353 C194.311652,42.8006353 194.483402,42.8698118 194.626528,43.0139294 C194.76679,43.1580471 194.838353,43.3338706 194.838353,43.5385176 C194.838353,43.7402824 194.76679,43.9161059 194.626528,44.0602235 C194.483402,44.2014588 194.311652,44.2764 194.111277,44.2764 C193.910903,44.2764 193.739153,44.2014588 193.596027,44.0602235 C193.455765,43.9161059 193.384202,43.7402824 193.384202,43.5385176 C193.384202,43.3338706 193.455765,43.1580471 193.596027,43.0139294 C193.739153,42.8698118 193.910903,42.8006353 194.111277,42.8006353" id="Fill-75" fill="#939394" sketch:type="MSShapeGroup" mask="url(#mask-4)"></path>
                <path d="M203.998639,38.9809412 L203.343126,39.3931176 C202.776351,38.6350588 202.006339,38.2545882 201.024501,38.2545882 C200.243039,38.2545882 199.593251,38.5111176 199.075139,39.0184118 C198.559889,39.5228235 198.299401,40.1396471 198.299401,40.8631176 C198.299401,41.3358235 198.419626,41.7797059 198.657214,42.1947647 C198.894801,42.6127059 199.221126,42.9326471 199.636189,43.1632353 C200.051251,43.3938235 200.514976,43.5091176 201.030226,43.5091176 C201.974851,43.5091176 202.747726,43.1286471 203.343126,42.3734706 L203.998639,42.8058235 C203.692351,43.2727647 203.280151,43.6330588 202.762039,43.8895882 C202.243926,44.149 201.654251,44.2758235 200.993014,44.2758235 C199.976826,44.2758235 199.135251,43.953 198.462564,43.3015882 C197.795601,42.6501765 197.460689,41.8575294 197.460689,40.9265294 C197.460689,40.3010588 197.618126,39.7188235 197.930139,39.1798235 C198.242151,38.6437059 198.674389,38.2228824 199.221126,37.9231176 C199.765001,37.6204706 200.380439,37.4734706 201.058851,37.4734706 C201.482501,37.4734706 201.894701,37.5368824 202.289726,37.6665882 C202.684751,37.7991765 203.019664,37.9663529 203.297326,38.1796471 C203.572126,38.3900588 203.806851,38.6581176 203.998639,38.9809412" id="Fill-76" fill="#939394" sketch:type="MSShapeGroup" mask="url(#mask-4)"></path>
                <path d="M209.838139,38.2857176 C209.151139,38.2857176 208.561464,38.5422471 208.066251,39.0553059 C207.571039,39.5626 207.324864,40.1823059 207.324864,40.9086588 C207.324864,41.3756 207.436501,41.8137176 207.662639,42.2172471 C207.885914,42.6236588 208.192201,42.9349529 208.575776,43.1540118 C208.956489,43.3759529 209.380139,43.4854824 209.838139,43.4854824 C210.296139,43.4854824 210.719789,43.3759529 211.100501,43.1540118 C211.484076,42.9349529 211.790364,42.6236588 212.013639,42.2172471 C212.239776,41.8137176 212.351414,41.3756 212.351414,40.9086588 C212.351414,40.1823059 212.102376,39.5626 211.607164,39.0553059 C211.111951,38.5422471 210.522276,38.2857176 209.838139,38.2857176 M209.841001,37.4728941 C210.831426,37.4728941 211.652964,37.8331882 212.302751,38.5537765 C212.892426,39.2109529 213.190126,39.9920706 213.190126,40.8913647 C213.190126,41.7964235 212.878114,42.5861882 212.254089,43.2635412 C211.627201,43.9380118 210.822839,44.2752471 209.841001,44.2752471 C208.853439,44.2752471 208.049076,43.9380118 207.422189,43.2635412 C206.798164,42.5861882 206.486151,41.7964235 206.486151,40.8913647 C206.486151,39.9949529 206.783851,39.2167176 207.373526,38.5595412 C208.023314,37.8331882 208.844851,37.4728941 209.841001,37.4728941" id="Fill-77" fill="#939394" sketch:type="MSShapeGroup" mask="url(#mask-4)"></path>
                <path d="M215.926676,37.6383412 L216.751076,37.6383412 L216.751076,38.7566941 C217.040189,38.3416353 217.335026,38.0418706 217.641314,37.8516353 C218.056376,37.5979882 218.497201,37.4711647 218.960926,37.4711647 C219.270076,37.4711647 219.564914,37.5316941 219.845439,37.6556353 C220.125964,37.7795765 220.354964,37.9409882 220.529576,38.1456353 C220.709914,38.3502824 220.864489,38.6442824 220.993301,39.0218706 C221.268101,38.5174588 221.611601,38.1312235 222.023801,37.8660471 C222.436001,37.6008706 222.882551,37.4711647 223.357726,37.4711647 C223.801414,37.4711647 224.193576,37.5835765 224.531351,37.8112824 C224.871989,38.0361059 225.123889,38.3502824 225.289914,38.7566941 C225.453076,39.1602235 225.536089,39.7655176 225.536089,40.5783412 L225.536089,44.1092235 L224.694514,44.1092235 L224.694514,40.5783412 C224.694514,39.8808118 224.642989,39.4052235 224.545664,39.1429294 C224.448339,38.8864 224.279451,38.6759882 224.041864,38.5174588 C223.804276,38.3589294 223.520889,38.2811059 223.191701,38.2811059 C222.788089,38.2811059 222.424551,38.3992824 222.092501,38.6385176 C221.760451,38.8748706 221.517139,39.1919294 221.365426,39.5896941 C221.213714,39.9845765 221.136426,40.6475176 221.136426,41.5756353 L221.136426,44.1092235 L220.309164,44.1092235 L220.309164,40.7974 C220.309164,40.0134 220.260501,39.4859294 220.163176,39.2063412 C220.065851,38.9238706 219.899826,38.7019294 219.659376,38.5347529 C219.418926,38.3646941 219.132676,38.2811059 218.803489,38.2811059 C218.419914,38.2811059 218.062101,38.3964 217.730051,38.6298706 C217.398001,38.8604588 217.151826,39.1717529 216.991526,39.5637529 C216.831226,39.9586353 216.751076,40.5581647 216.751076,41.3681059 L216.751076,44.1092235 L215.926676,44.1092235 L215.926676,37.6383412 Z" id="Fill-78" fill="#939394" sketch:type="MSShapeGroup" mask="url(#mask-4)"></path>
                <path d="M56.1928788,8.54588824 L56.1928788,44.9961235" id="Stroke-79" stroke="#CBCCCC" stroke-width="0.25" sketch:type="MSShapeGroup" mask="url(#mask-4)"></path>
            </g>
        </g>
    </g>
</svg>