<?xml version="1.0" encoding="UTF-8" standalone="no"?>
<svg width="190px" height="33px" viewBox="0 0 190 33" version="1.1" xmlns="http://www.w3.org/2000/svg" xmlns:xlink="http://www.w3.org/1999/xlink" xmlns:sketch="http://www.bohemiancoding.com/sketch/ns">
    <!-- Generator: Sketch 3.4.4 (17249) - http://www.bohemiancoding.com/sketch -->
    <title>Page 1</title>
    <desc>Created with Sketch.</desc>
    <defs>
        <path id="path-1" d="M0,1.49338462 L189.229444,1.49338462 L189.229444,34 L0,34 L0,1.49338462 Z"></path>
        <path id="path-3" d="M0,1.49338462 L189.229444,1.49338462 L189.229444,34 L0,34 L0,1.49338462 Z"></path>
    </defs>
    <g id="Page-1" stroke="none" stroke-width="1" fill="none" fill-rule="evenodd" sketch:type="MSPage">
        <g sketch:type="MSLayerGroup" transform="translate(0.000000, -1.000000)">
            <path d="M59.7206944,13.1370769 L53.3609722,13.1370769 L53.3609722,18.3521538 L59.7206944,18.3521538 L59.7206944,13.1370769 Z M45.2991667,18.3521538 L51.5770833,18.3521538 L51.5770833,13.1370769 L45.2991667,13.1370769 L45.2991667,18.3521538 Z M43.5997222,11.6175385 L51.5770833,11.6175385 L51.5770833,7.14 L53.3609722,7.14 L53.3609722,11.6175385 L61.4227778,11.6175385 L61.4227778,20.9832308 L59.7206944,20.9832308 L59.7206944,19.8716923 L53.3609722,19.8716923 L53.3609722,27.5138462 L51.5770833,27.5138462 L51.5770833,19.8716923 L45.2991667,19.8716923 L45.2991667,20.9832308 L43.5997222,20.9832308 L43.5997222,11.6175385 Z" id="Fill-1" fill="#444344" sketch:type="MSShapeGroup"></path>
            <g id="Group-34">
                <path d="M75.5110139,18.6006154 L76.672125,17.7375385 C77.4347639,18.5195385 78.0839306,19.2518462 78.6222639,19.9370769 L77.3978194,20.8576923 C76.7354583,19.9684615 76.1074028,19.2152308 75.5110139,18.6006154 L75.5110139,18.6006154 Z M67.1826806,21.352 L72.9011528,21.352 L72.9011528,17.2850769 L67.908375,17.2850769 L67.908375,15.8910769 L72.9011528,15.8910769 L72.9011528,13.1370769 L67.5151806,13.1370769 L67.5151806,11.7404615 L79.8625417,11.7404615 L79.8625417,13.1370769 L74.4343472,13.1370769 L74.4343472,15.8910769 L79.4482361,15.8910769 L79.4482361,17.2850769 L74.4343472,17.2850769 L74.4343472,21.352 L80.1950417,21.352 L80.1950417,22.7486154 L67.1826806,22.7486154 L67.1826806,21.352 Z M81.1714306,9.70830769 L66.2300417,9.70830769 L66.2300417,24.9272308 L81.1714306,24.9272308 L81.1714306,9.70830769 Z M64.6335139,8.24892308 L82.7653194,8.24892308 L82.7653194,27.4092308 L81.1714306,27.4092308 L81.1714306,26.384 L66.2274028,26.384 L66.2274028,27.4301538 L64.6335139,27.4301538 L64.6335139,8.24892308 Z" id="Fill-2" fill="#444344" sketch:type="MSShapeGroup"></path>
                <path d="M98.7844306,22.1533538 L100.006236,21.1255077 C102.188597,23.1262769 103.895958,24.7975077 105.123042,26.1365846 L103.756097,27.3893538 C102.349569,25.7338154 100.689708,23.9867385 98.7844306,22.1533538 L98.7844306,22.1533538 Z M95.3037361,19.0515077 L99.7766528,19.0515077 L99.7766528,13.3839692 L95.3037361,13.3839692 L95.3037361,19.0515077 Z M99.7766528,7.38689231 L101.478736,7.38689231 L101.478736,11.9062769 L104.442208,11.9062769 L104.442208,13.3839692 L101.478736,13.3839692 L101.478736,19.0515077 L105.165264,19.0515077 L105.165264,20.5318154 L90.0998472,20.5318154 L90.0998472,19.0515077 L93.6016528,19.0515077 L93.6016528,13.3839692 L90.9284583,13.3839692 L90.9284583,11.9062769 L93.6016528,11.9062769 L93.6016528,7.40781538 L95.3037361,7.40781538 L95.3037361,11.9062769 L99.7766528,11.9062769 L99.7766528,7.38689231 Z M96.3170694,22.1952 C94.6862361,24.1672 92.9894306,25.9247385 91.221375,27.4730462 C90.8466528,27.0467385 90.4244306,26.6518154 89.9547083,26.2804308 C91.7095694,24.9675077 93.3535972,23.2779692 94.8867917,21.2092 L96.3170694,22.1952 Z M84.381375,17.0821231 C86.5505417,14.1921231 88.2579028,10.8993538 89.4981806,7.2012 L91.1580417,7.79750769 C90.4455417,9.62566154 89.7092917,11.3047385 88.941375,12.8295077 L88.941375,27.4312 L87.2841528,27.4312 L87.2841528,15.8162769 C86.5716528,16.9696615 85.8406806,18.0053538 85.0885972,18.9312 C84.8906806,18.3688923 84.6558194,17.7516615 84.381375,17.0821231 L84.381375,17.0821231 Z" id="Fill-4" fill="#444344" sketch:type="MSShapeGroup"></path>
                <path d="M121.511333,11.3928769 C122.493,10.3388769 123.445639,9.17241538 124.371889,7.90133846 L125.741472,8.92918462 C124.897028,9.93872308 123.862583,11.0842615 122.632861,12.3579538 L121.511333,11.3928769 Z M115.399667,21.1456462 L123.669944,21.1456462 L123.669944,18.5982615 L115.399667,18.5982615 L115.399667,21.1456462 Z M123.667306,14.5967231 L115.397028,14.5967231 L115.397028,17.1231846 L123.667306,17.1231846 L123.667306,14.5967231 Z M115.399667,27.4304154 L113.884944,27.4304154 L113.884944,13.0562615 L118.632306,13.0562615 L118.632306,7.22133846 L120.228833,7.22133846 L120.228833,13.0562615 L125.182028,13.0562615 L125.182028,24.9667231 C125.182028,26.5542615 124.427306,27.3493385 122.9205,27.3493385 C122.147306,27.3493385 121.049528,27.3284154 119.627167,27.2865692 C119.545361,26.7818 119.447722,26.2194923 119.336889,25.6048769 C120.635222,25.6859538 121.622167,25.7251846 122.300361,25.7251846 C123.213417,25.7251846 123.667306,25.3433385 123.667306,24.5770308 L123.667306,22.6259538 L115.399667,22.6259538 L115.399667,27.4304154 Z M113.204111,8.70164615 L114.341472,7.84118462 C115.336333,8.81149231 116.318,9.90733846 117.283833,11.1234923 L115.980222,12.1722615 C115.027583,10.8436462 114.101333,9.68764615 113.204111,8.70164615 L113.204111,8.70164615 Z M113.058972,22.8901077 C113.058972,23.4942615 113.093278,24.0644154 113.161889,24.5979538 C112.277861,25.0216462 111.248694,25.5839538 110.074389,26.2796462 C109.823694,26.4182615 109.536056,26.6510308 109.203556,26.9805692 L108.105778,25.5630308 C108.549111,25.1654923 108.768139,24.6502615 108.768139,24.0225692 L108.768139,19.5450308 L105.992028,19.5450308 L105.992028,18.1274923 L108.768139,18.1274923 L108.768139,15.3578 L107.422306,15.3578 L107.422306,13.9402615 L112.705361,13.9402615 L112.705361,15.3578 L110.280222,15.3578 L110.280222,18.1274923 L113.183,18.1274923 L113.183,19.5450308 L110.280222,19.5450308 L110.280222,24.4331846 C111.290917,23.8970308 112.217167,23.3844154 113.058972,22.8901077 L113.058972,22.8901077 Z M105.807306,13.5479538 C107.147861,11.6465692 108.216611,9.53072308 109.018833,7.20041538 L110.5705,7.71564615 C110.198417,8.63364615 109.799944,9.51503077 109.369806,10.3650308 L113.204111,10.3650308 L113.204111,11.7799538 L108.644111,11.7799538 C108.037167,12.8914923 107.382722,13.9454923 106.6755,14.9445692 C106.411611,14.4528769 106.123972,13.9847231 105.807306,13.5479538 L105.807306,13.5479538 Z" id="Fill-6" fill="#444344" sketch:type="MSShapeGroup"></path>
                <path d="M137.903847,14.9048154 L138.838014,13.9789692 C139.719403,14.6485077 140.592875,15.3494308 141.447875,16.0738923 L140.389681,17.1409692 C139.547875,16.3197385 138.719264,15.5743538 137.903847,14.9048154 L137.903847,14.9048154 Z M137.632042,20.1617385 L138.587319,19.2358923 C139.510931,19.9368154 140.376486,20.6403538 141.176069,21.3517385 L140.099403,22.4214308 C139.283986,21.6394308 138.463292,20.8862 137.632042,20.1617385 L137.632042,20.1617385 Z M144.057736,13.7331231 L135.853431,13.7331231 L135.344125,17.4705077 L143.965375,17.4705077 C143.999681,16.3066615 144.028708,15.0617385 144.057736,13.7331231 L144.057736,13.7331231 Z M143.923153,18.9089692 L135.159403,18.9089692 L134.652736,22.6882 L143.780653,22.6882 C143.833431,21.5662 143.883569,20.3029692 143.923153,18.9089692 L143.923153,18.9089692 Z M131.625931,17.4705077 L133.750236,17.4705077 L134.483847,12.3391231 L145.654264,12.3391231 C145.612042,14.2405077 145.569819,15.9509692 145.530236,17.4705077 L147.704681,17.4705077 L147.704681,18.9089692 L145.477458,18.9089692 C145.435236,20.3866615 145.395653,21.6472769 145.353431,22.6882 L147.042319,22.6882 L147.042319,24.0848154 L145.258431,24.0848154 C145.142319,25.0917385 144.867875,25.8449692 144.432458,26.3418923 C143.933708,26.9042 143.049681,27.1840462 141.780375,27.1840462 C141.059958,27.1840462 140.136347,27.1578923 139.001625,27.1029692 C138.933014,26.6374308 138.838014,26.0803538 138.713986,25.4395846 C140.051903,25.5625077 141.081069,25.6252769 141.801486,25.6252769 C142.841208,25.6252769 143.463986,25.1100462 143.664542,24.0848154 L133.011347,24.0848154 L133.011347,22.5652769 L133.541764,18.9089692 L131.625931,18.9089692 L131.625931,17.4705077 Z M131.459681,12.9955846 C133.172319,11.3923538 134.552458,9.42558462 135.602736,7.10050769 L137.365514,7.10050769 C137.033014,7.81189231 136.684681,8.48927692 136.317875,9.13266154 L147.269264,9.13266154 L147.269264,10.5711231 L135.447042,10.5711231 C134.555097,11.9468154 133.578708,13.1577385 132.515236,14.2038923 C132.198569,13.7932769 131.844958,13.3905077 131.459681,12.9955846 L131.459681,12.9955846 Z M127.812736,8.51804615 L128.868292,7.43004615 C129.699542,8.05773846 130.850097,9.00973846 132.330514,10.2808154 C131.860792,10.7332769 131.454403,11.1412769 131.108708,11.4943538 C129.615097,10.0846615 128.517319,9.09081538 127.812736,8.51804615 L127.812736,8.51804615 Z M127.646486,26.8152769 C128.461903,24.4195846 129.163847,21.7989692 129.760236,18.9508154 C130.369819,19.2097385 130.926625,19.4242 131.438569,19.5863538 C130.733986,22.2697385 130.076903,24.8642 129.469958,27.3697385 L127.646486,26.8152769 Z M127.026347,13.9789692 L128.063431,12.8072769 C129.332736,13.6860462 130.512319,14.5674308 131.604819,15.4592769 C131.108708,16.0215846 130.704958,16.4583538 130.401486,16.7722 C129.171764,15.6789692 128.047597,14.7452769 127.026347,13.9789692 L127.026347,13.9789692 Z" id="Fill-8" fill="#444344" sketch:type="MSShapeGroup"></path>
                <path d="M161.174361,7.3678 L162.913389,7.3678 L162.913389,14.4319538 L163.744639,13.5087231 C165.721167,15.0282615 167.481306,16.4170308 169.027694,17.6750308 L167.845472,19.1945692 C166.383528,17.8554923 164.7395,16.4248769 162.913389,14.9053385 L162.913389,27.4931846 L161.174361,27.4931846 L161.174361,7.3678 Z M148.077556,17.8188769 C150.135889,14.7144154 151.682278,11.1731846 152.719361,7.20303077 L154.418806,7.6738 C154.086306,8.78272308 153.74325,9.85241538 153.384361,10.8802615 L159.142417,10.8802615 L159.142417,12.3998 C158.411444,19.2024154 155.308111,24.1951846 149.840333,27.3676462 C149.550056,26.9178 149.191167,26.4313385 148.763667,25.9108769 C151.442139,24.3364154 153.500472,22.3644154 154.938667,19.9974923 C153.970194,19.1893385 152.885611,18.3681077 151.682278,17.5338 L152.740472,16.2784154 C153.914778,17.1284154 154.917556,17.8764154 155.743528,18.5198 C156.603806,16.7518 157.155333,14.7248769 157.403389,12.4390308 L152.782694,12.4390308 C151.814222,14.8634923 150.563389,17.2382615 149.030194,19.5659538 C148.75575,19.0036462 148.439083,18.4230308 148.077556,17.8188769 L148.077556,17.8188769 Z" id="Fill-10" fill="#444344" sketch:type="MSShapeGroup"></path>
                <g id="Group-14">
                    <mask id="mask-2" sketch:name="Clip 13" fill="white">
                        <use xlink:href="#path-1"></use>
                    </mask>
                    <g id="Clip-13"></g>
                    <path d="M183.138625,16.8535385 L184.568903,16.4455385 C185.204875,18.4175385 185.819736,20.4836923 186.413486,22.6466154 L184.859181,23.0990769 C184.748347,22.6858462 184.645431,22.27 184.547792,21.8436923 C183.083208,21.9404615 181.771681,22.0581538 180.613208,22.1941538 C180.006264,22.2621538 179.388764,22.372 178.768625,22.5236923 L178.127375,21.1872308 C178.607653,20.8864615 178.969181,20.4758462 179.204042,19.958 C179.964042,18.1350769 180.679181,15.9433846 181.357375,13.3855385 L182.932792,13.7516923 C182.101542,16.286 181.280847,18.6215385 180.465431,20.7556923 C181.642375,20.6876923 182.882653,20.6066154 184.196819,20.5098462 C183.864319,19.3041538 183.513347,18.088 183.138625,16.8535385 L183.138625,16.8535385 Z M170.625014,8.39538462 L177.628625,8.39538462 L177.628625,14.2878462 C179.011403,12.1929231 180.037931,9.83123077 180.716125,7.20276923 L182.352236,7.57153846 C182.019736,8.55753846 181.674042,9.49646154 181.317792,10.3856923 L189.231819,10.3856923 C189.147375,17.0392308 189.065569,21.4696923 188.983764,23.6718462 C188.859736,25.8896923 187.711819,27.0012308 185.542653,27.0012308 C184.355153,27.0012308 183.091125,26.9724615 181.753208,26.9175385 C181.668764,26.3709231 181.557931,25.8086154 181.420708,25.2332308 C182.758625,25.3849231 183.988347,25.466 185.107236,25.4816923 C186.558625,25.466 187.326542,24.7546154 187.408347,23.3423077 C187.503347,21.0172308 187.574597,17.1987692 187.614181,11.8869231 L180.695014,11.8869231 C180.183069,13.0769231 179.652653,14.1649231 179.101125,15.1509231 C178.697375,14.8893846 178.209181,14.6356923 177.628625,14.3924615 L177.628625,21.1270769 L176.137653,21.1270769 L176.137653,9.894 L172.115986,9.894 L172.115986,21.25 L170.625014,21.25 L170.625014,8.39538462 Z M173.380014,11.6776923 L174.870986,11.6776923 L174.870986,15.8073846 C174.870986,18.462 174.686264,20.5229231 174.311542,21.9901538 L174.913208,21.4356923 C176.322375,22.8872308 177.560014,24.208 178.623486,25.398 L177.317236,26.4886154 C176.335569,25.2410769 175.258903,23.9752308 174.084597,22.6858462 C173.588486,24.2472308 172.393069,25.8452308 170.500986,27.4746154 C170.197514,27.0456923 169.830708,26.6298462 169.400569,26.2192308 C171.018208,25.0292308 172.089597,23.7555385 172.614736,22.3981538 C173.124042,21.2238462 173.380014,19.2230769 173.380014,16.4036923 L173.380014,11.6776923 Z" id="Fill-12" fill="#444344" sketch:type="MSShapeGroup" mask="url(#mask-2)"></path>
                </g>
                <mask id="mask-4" sketch:name="Clip 16" fill="white">
                    <use xlink:href="#path-3"></use>
                </mask>
                <g id="Clip-16"></g>
                <path d="M7.49444444,11.6201538 L13.4768056,11.6201538 L13.4768056,23.9098462 L7.49444444,23.9098462 L7.49444444,11.6201538 Z" id="Fill-15" fill="#FFF000" sketch:type="MSShapeGroup" mask="url(#mask-4)"></path>
                <path d="M19.3140278,11.6201538 L25.2963889,11.6201538 L25.2963889,23.9098462 L19.3140278,23.9098462 L19.3140278,11.6201538 Z" id="Fill-17" fill="#FFF000" sketch:type="MSShapeGroup" mask="url(#mask-4)"></path>
                <path d="M10.1069444,9.02830769 L22.6786111,9.02830769 L22.6786111,14.9573846 L10.1069444,14.9573846 L10.1069444,9.02830769 Z" id="Fill-18" fill="#FFF000" sketch:type="MSShapeGroup" mask="url(#mask-4)"></path>
                <path d="M10.1069444,20.5726154 L22.6786111,20.5726154 L22.6786111,26.5016923 L10.1069444,26.5016923 L10.1069444,20.5726154 Z" id="Fill-19" fill="#FFF000" sketch:type="MSShapeGroup" mask="url(#mask-4)"></path>
                <path d="M16.3940972,17.7113846 C16.3650694,17.7113846 16.3413194,17.7349231 16.3413194,17.7636923 C16.3413194,17.7950769 16.3650694,17.8186154 16.3940972,17.8186154 C16.423125,17.8186154 16.446875,17.7950769 16.446875,17.7636923 C16.446875,17.7349231 16.423125,17.7113846 16.3940972,17.7113846 M16.3940972,23.3135385 C13.3065972,23.3135385 10.7970139,20.8236923 10.7970139,17.7636923 C10.7970139,14.7063077 13.3065972,12.2164615 16.3940972,12.2164615 C19.4815972,12.2164615 21.9911806,14.7063077 21.9911806,17.7636923 C21.9911806,20.8236923 19.4815972,23.3135385 16.3940972,23.3135385" id="Fill-20" fill="#FFF000" sketch:type="MSShapeGroup" mask="url(#mask-4)"></path>
                <path d="M16.294875,34 C15.7195972,34 15.1970972,33.8064615 14.7854306,33.4376923 C14.442375,33.1316923 11.2651528,29.8624615 9.91668056,28.4710769 L9.46015278,28.0029231 L9.44695833,27.3516923 C9.43904167,26.9096923 9.48654167,25.3953846 10.499875,24.4983077 C11.046125,24.0144615 11.7850139,23.7712308 12.6954306,23.7712308 C13.1150139,23.7712308 13.4422361,23.8235385 13.5055694,23.8366154 L14.0043194,23.9229231 L16.3687639,26.1590769 L18.4297361,24.1216923 L18.6487639,24.0066154 C18.7991806,23.9255385 19.3507083,23.6666154 20.1027917,23.6666154 C20.9234861,23.6666154 21.6993194,23.97 22.3432083,24.5427692 C23.6626528,25.7196923 23.538625,27.4196923 22.8630694,28.5024615 L22.7997361,28.6044615 L22.7232083,28.6933846 C22.137375,29.3890769 18.6777917,32.7315385 17.9890417,33.3958462 L17.8175139,33.5606154 L17.6037639,33.6730769 C17.4164028,33.7724615 16.9150139,34 16.294875,34" id="Fill-21" fill="#FFF000" sketch:type="MSShapeGroup" mask="url(#mask-4)"></path>
                <path d="M20.1027917,11.8267692 C19.3507083,11.8267692 18.7991806,11.5652308 18.6487639,11.4867692 L18.4297361,11.3690769 L16.3687639,9.33430769 L14.0043194,11.5678462 L13.5055694,11.6567692 C13.444875,11.6672308 13.1150139,11.7221538 12.6954306,11.7221538 C11.7850139,11.7221538 11.046125,11.4763077 10.499875,10.9950769 C9.48654167,10.0953846 9.43904167,8.58369231 9.44695833,8.14169231 L9.46015278,7.49046154 L9.91668056,7.01969231 C11.2651528,5.62830769 14.442375,2.35907692 14.7854306,2.05307692 C15.1970972,1.68692308 15.7195972,1.49338462 16.294875,1.49338462 C16.9150139,1.49338462 17.4164028,1.72092308 17.6037639,1.82030769 L17.8175139,1.93015385 L17.9890417,2.09753846 C18.6777917,2.76184615 22.137375,6.10169231 22.7232083,6.79738462 L22.7997361,6.88892308 L22.8630694,6.98830769 C23.538625,8.07107692 23.6626528,9.77369231 22.3432083,10.9506154 C21.6993194,11.5233846 20.9234861,11.8267692 20.1027917,11.8267692" id="Fill-22" fill="#FFF000" sketch:type="MSShapeGroup" mask="url(#mask-4)"></path>
                <path d="M26.0329028,24.6382308 C25.4681806,24.6382308 24.0642917,24.5362308 23.2145694,23.5920769 C22.2804028,22.5563846 22.465125,21.0525385 22.5442917,20.6157692 L22.6340139,20.1214615 L24.887625,17.7780769 L22.8345694,15.7354615 L22.7158194,15.5183846 C22.3305417,14.8043846 22.013875,13.2299231 23.2567917,11.8568462 C23.842625,11.2108462 24.6395694,10.8551538 25.4998472,10.8551538 C26.3891528,10.8551538 27.0673472,11.2265385 27.2547083,11.3416154 L27.3549861,11.4043846 L27.4473472,11.4802308 C28.1492917,12.0608462 31.5217917,15.4896154 32.1894306,16.1722308 L32.3583194,16.3422308 L32.4691528,16.5540769 C32.8623472,17.289 33.0365139,18.4633077 32.2342917,19.3473077 C31.9255417,19.6873077 28.6269306,22.8336154 27.2230417,24.1726923 L26.7533194,24.6199231 L26.0909583,24.6382308 L26.0329028,24.6382308 Z" id="Fill-23" fill="#FFF000" sketch:type="MSShapeGroup" mask="url(#mask-4)"></path>
                <path d="M6.70990278,24.6377077 L6.05809722,24.6194 L5.57781944,24.1721692 C4.17393056,22.8357077 0.875319444,19.6867846 0.566569444,19.3467846 C-0.235652778,18.4627846 -0.0614861111,17.2884769 0.331708333,16.5535538 L0.442541667,16.3417077 L0.611430556,16.1717077 C1.27906944,15.4890923 4.65156944,12.0603231 5.35615278,11.4797077 L5.445875,11.4038615 L5.54615278,11.3410923 C5.73351389,11.2286308 6.41170833,10.8546308 7.30101389,10.8546308 C8.16129167,10.8546308 8.95823611,11.2103231 9.54406944,11.8563231 C10.789625,13.2294 10.4703194,14.8038615 10.0850417,15.5178615 L9.96629167,15.7349385 L7.91323611,17.7775538 L10.1668472,20.1209385 L10.2565694,20.6152462 C10.3357361,21.0520154 10.5204583,22.5584769 9.58629167,23.5941692 C8.73920833,24.5357077 7.33268056,24.6377077 6.76795833,24.6377077 L6.70990278,24.6377077 Z" id="Fill-24" fill="#FFF000" sketch:type="MSShapeGroup" mask="url(#mask-4)"></path>
                <path d="M11.3340278,22.5733846 L8.47083333,22.5733846 L8.47083333,12.7709231 L11.3340278,12.7709231 L11.3340278,22.5733846 Z" id="Fill-25" fill="#009944" sketch:type="MSShapeGroup" mask="url(#mask-4)"></path>
                <path d="M24.2777778,22.5733846 L21.4145833,22.5733846 L21.4145833,12.7709231 L24.2777778,12.7709231 L24.2777778,22.5733846 Z" id="Fill-26" fill="#009944" sketch:type="MSShapeGroup" mask="url(#mask-4)"></path>
                <path d="M21.4145833,12.7709231 L11.3340278,12.7709231 L11.3340278,9.93323077 L21.4145833,9.93323077 L21.4145833,12.7709231 Z" id="Fill-27" fill="#009944" sketch:type="MSShapeGroup" mask="url(#mask-4)"></path>
                <path d="M21.4145833,25.4110769 L11.3340278,25.4110769 L11.3340278,22.5733846 L21.4145833,22.5733846 L21.4145833,25.4110769 Z" id="Fill-28" fill="#009944" sketch:type="MSShapeGroup" mask="url(#mask-4)"></path>
                <path d="M16.3750972,13.4237231 C14.0080139,13.4237231 12.0895417,15.3251077 12.0895417,17.6711077 C12.0895417,20.0197231 14.0080139,21.9211077 16.3750972,21.9211077 C18.7421806,21.9211077 20.6606528,20.0197231 20.6606528,17.6711077 C20.6606528,15.3251077 18.7421806,13.4237231 16.3750972,13.4237231 M18.2777361,17.6711077 C18.2777361,18.7146462 17.425375,19.5568 16.3750972,19.5568 C15.3248194,19.5568 14.4724583,18.7146462 14.4724583,17.6711077 C14.4724583,16.6301846 15.3248194,15.7854154 16.3750972,15.7854154 C17.425375,15.7854154 18.2777361,16.6301846 18.2777361,17.6711077" id="Fill-29" fill="#009944" sketch:type="MSShapeGroup" mask="url(#mask-4)"></path>
                <path d="M21.6563056,26.452 C20.69575,25.5967692 19.7114444,26.1172308 19.7114444,26.1172308 L16.3758889,29.4152308 L12.8872778,26.1172308 C12.8872778,26.1172308 11.7129722,25.9106154 11.14825,26.4101538 C10.5861667,26.9070769 10.6125556,28.1310769 10.6125556,28.1310769 C10.6125556,28.1310769 15.4786667,33.15 15.8454722,33.4769231 C16.2149167,33.8038462 16.8376944,33.4769231 16.8376944,33.4769231 C16.8376944,33.4769231 21.2789444,29.1981538 21.8885278,28.4710769 C21.8885278,28.4710769 22.6168611,27.3072308 21.6563056,26.452" id="Fill-30" fill="#009944" sketch:type="MSShapeGroup" mask="url(#mask-4)"></path>
                <path d="M21.6563056,8.85176923 C20.69575,9.707 19.7114444,9.18653846 19.7114444,9.18653846 L16.3758889,5.88853846 L12.8872778,9.18653846 C12.8872778,9.18653846 11.7129722,9.39315385 11.14825,8.89361538 C10.5861667,8.39669231 10.6125556,7.17269231 10.6125556,7.17269231 C10.6125556,7.17269231 15.4786667,2.15376923 15.8454722,1.82684615 C16.2149167,1.49992308 16.8376944,1.82684615 16.8376944,1.82684615 C16.8376944,1.82684615 21.2789444,6.10561538 21.8885278,6.83269231 C21.8885278,6.83269231 22.6168611,7.99653846 21.6563056,8.85176923" id="Fill-31" fill="#009944" sketch:type="MSShapeGroup" mask="url(#mask-4)"></path>
                <path d="M25.2612917,12.4249077 C24.398375,13.3742923 24.9235139,14.3498308 24.9235139,14.3498308 L28.2511528,17.6582923 L24.9235139,21.1158308 C24.9235139,21.1158308 24.7150417,22.2796769 25.2190694,22.8367538 C25.7204583,23.3964462 26.9554583,23.3702923 26.9554583,23.3702923 C26.9554583,23.3702923 32.0194861,18.5449077 32.3493472,18.1813692 C32.6792083,17.8178308 32.3493472,17.2006 32.3493472,17.2006 C32.3493472,17.2006 28.032125,12.7989077 27.2985139,12.1921385 C27.2985139,12.1921385 26.1242083,11.4729077 25.2612917,12.4249077" id="Fill-32" fill="#009944" sketch:type="MSShapeGroup" mask="url(#mask-4)"></path>
                <path d="M7.50288889,12.4249077 C8.36580556,13.3742923 7.84066667,14.3498308 7.84066667,14.3498308 L4.51302778,17.6582923 L7.84066667,21.1158308 C7.84066667,21.1158308 8.04913889,22.2796769 7.54511111,22.8367538 C7.04372222,23.3964462 5.80872222,23.3702923 5.80872222,23.3702923 C5.80872222,23.3702923 0.744694444,18.5449077 0.414833333,18.1813692 C0.0849722222,17.8178308 0.414833333,17.2006 0.414833333,17.2006 C0.414833333,17.2006 4.73205556,12.7989077 5.46566667,12.1921385 C5.46566667,12.1921385 6.63997222,11.4729077 7.50288889,12.4249077" id="Fill-33" fill="#009944" sketch:type="MSShapeGroup" mask="url(#mask-4)"></path>
            </g>
        </g>
    </g>
</svg>