<?xml version="1.0" encoding="UTF-8" standalone="no"?>
<svg width="47px" height="47px" viewBox="0 0 47 47" version="1.1" xmlns="http://www.w3.org/2000/svg" xmlns:xlink="http://www.w3.org/1999/xlink" xmlns:sketch="http://www.bohemiancoding.com/sketch/ns">
    <!-- Generator: Sketch 3.4.4 (17249) - http://www.bohemiancoding.com/sketch -->
    <title>Oval 1 + 订 Copy 3 + Page 1</title>
    <desc>Created with Sketch.</desc>
    <defs></defs>
    <g id="Page-1" stroke="none" stroke-width="1" fill="none" fill-rule="evenodd" sketch:type="MSPage">
        <g id="预售-商品详情页" sketch:type="MSArtboardGroup" transform="translate(-1246.000000, -846.000000)">
            <g id="Group-Copy" sketch:type="MSLayerGroup" transform="translate(310.000000, 826.000000)">
                <g id="Oval-1-+-订-Copy-3-+-Page-1" transform="translate(937.000000, 21.000000)" sketch:type="MSShapeGroup">
                    <g id="Oval-1-+-订-Copy-3" transform="translate(0.000000, 0.343146)" stroke="#969696">
                        <circle id="Oval-1" cx="22.5" cy="22.5" r="22.5"></circle>
                    </g>
                    <g id="Page-1" transform="translate(8.000000, 11.343146)" fill="#969696">
                        <path d="M28.692952,17.3821672 L27.041791,17.3821672 C26.4048715,16.509195 25.3767446,15.9386842 24.2158003,15.9386842 C23.054856,15.9386842 22.0267291,16.509195 21.3892059,17.3821672 L9.99287461,17.3821672 C9.35535139,16.509195 8.32782817,15.9386842 7.1668839,15.9386842 C6.00533591,15.9386842 4.97720898,16.509195 4.34028947,17.3821672 L2.44884985,17.3821672 L2.44884985,15.4472601 L20.4395619,15.4472601 C20.7734164,15.4472601 21.0432771,15.1773994 21.0432771,14.8435449 L21.0432771,11.2725697 L25.2028746,11.2725697 L28.1550418,11.2725697 L28.1550418,14.8435449 C28.1550418,15.1550619 28.3904907,15.4104334 28.692952,15.4436378 L28.692952,17.3821672 Z M24.2158003,21.7337461 C22.9504133,21.7337461 21.9216827,20.7050155 21.9216827,19.4396285 C21.9216827,18.1754489 22.9504133,17.1461146 24.2158003,17.1461146 C25.4805836,17.1461146 26.5093142,18.1754489 26.5093142,19.4396285 C26.5093142,20.7050155 25.4805836,21.7337461 24.2158003,21.7337461 L24.2158003,21.7337461 Z M7.1668839,21.7337461 C5.9014969,21.7337461 4.87276625,20.7050155 4.87276625,19.4396285 C4.87276625,18.1754489 5.9014969,17.1461146 7.1668839,17.1461146 C8.43166718,17.1461146 9.46039783,18.1754489 9.46039783,19.4396285 C9.46039783,20.7050155 8.43166718,21.7337461 7.1668839,21.7337461 L7.1668839,21.7337461 Z M1.20761146,1.26900929 L19.8358467,1.26900929 L19.8358467,4.91303406 L19.8358467,14.2398297 L1.84513467,14.2398297 L1.20761146,14.2398297 L1.20761146,1.26900929 Z M24.5991594,10.0651393 L21.0432771,10.0651393 L21.0432771,5.51674923 L24.5991594,5.51674923 L24.5991594,10.0651393 Z M28.1550418,9.86772446 L28.1550418,10.0651393 L25.8065898,10.0651393 L25.8065898,5.51674923 L26.3426889,5.51674923 C26.7942678,5.93452012 28.1550418,7.40034056 28.1550418,9.86772446 L28.1550418,9.86772446 Z M29.3624721,14.243452 L29.3624721,9.86772446 C29.3624721,6.33599071 27.033339,4.50975232 26.9343297,4.43368421 C26.8286796,4.35278638 26.6994845,4.30931889 26.5672709,4.30931889 L21.0432771,4.30931889 L21.0432771,0.665294118 C21.0432771,0.331439628 20.7734164,0.0615789474 20.4395619,0.0615789474 L0.603896285,0.0615789474 C0.270041796,0.0615789474 0.000181114551,0.331439628 0.000181114551,0.665294118 L0.000181114551,14.8435449 C0.000181114551,15.1773994 0.270041796,15.4472601 0.603896285,15.4472601 L1.2414195,15.4472601 L1.2414195,17.9858824 C1.2414195,18.3197368 1.5118839,18.5895975 1.84513467,18.5895975 L3.77400464,18.5895975 C3.70578483,18.8624768 3.66533591,19.1462229 3.66533591,19.4396285 C3.66533591,21.3703096 5.23620279,22.9411765 7.1668839,22.9411765 C9.0969613,22.9411765 10.6678282,21.3703096 10.6678282,19.4396285 C10.6678282,19.1462229 10.6273793,18.8624768 10.5585557,18.5895975 L20.8229211,18.5895975 C20.7547012,18.8624768 20.7142523,19.1462229 20.7142523,19.4396285 C20.7142523,21.3703096 22.2851192,22.9411765 24.2158003,22.9411765 C26.1458777,22.9411765 27.7167446,21.3703096 27.7167446,19.4396285 C27.7167446,19.1462229 27.6762957,18.8624768 27.6080759,18.5895975 L29.2966672,18.5895975 C29.6305217,18.5895975 29.9003824,18.3197368 29.9003824,17.9858824 L29.9003824,14.8435449 C29.9003824,14.5320279 29.6649334,14.2760526 29.3624721,14.243452 L29.3624721,14.243452 Z" id="Fill-1"></path>
                        <path d="M24.2155588,18.6513576 C23.7802802,18.6513576 23.4265031,19.0051347 23.4265031,19.4398096 C23.4265031,19.8750882 23.7802802,20.2288653 24.2155588,20.2288653 C24.6502337,20.2288653 25.0046146,19.8750882 25.0046146,19.4398096 C25.0046146,19.0051347 24.6502337,18.6513576 24.2155588,18.6513576" id="Fill-4"></path>
                        <path d="M7.16640093,18.6513576 C6.73112229,18.6513576 6.3773452,19.0051347 6.3773452,19.4398096 C6.3773452,19.8750882 6.73112229,20.2288653 7.16640093,20.2288653 C7.60107585,20.2288653 7.95485294,19.8750882 7.95485294,19.4398096 C7.95485294,19.0051347 7.60107585,18.6513576 7.16640093,18.6513576" id="Fill-6"></path>
                        <path d="M22.4052585,1.52341486 L22.4094845,1.52341486 C23.9477508,1.52341486 25.3344845,3.35810526 25.3477663,3.37682043 C25.4660944,3.53620124 25.6484164,3.62011765 25.8331533,3.62011765 C25.9581223,3.62011765 26.0842988,3.58087616 26.1917601,3.50058204 C26.4598096,3.30195975 26.5159551,2.92524149 26.3173328,2.65779567 C26.2466981,2.56180495 24.5587105,0.31598452 22.4094845,0.31598452 L22.4040511,0.31598452 C22.0708003,0.316588235 21.8009396,0.587052632 21.8015433,0.920907121 C21.8021471,1.25415789 22.0720077,1.52341486 22.4052585,1.52341486" id="Fill-8"></path>
                    </g>
                </g>
            </g>
        </g>
    </g>
</svg>