<svg xmlns="http://www.w3.org/2000/svg" xmlns:xlink="http://www.w3.org/1999/xlink" width="39" height="37" viewBox="0 0 39 37"><svg width="39" height="37" viewBox="-10 -10 39 37" id="voise" y="0"><title>公告</title><path d="M17.404 4.53c-.253-.22-.64-.195-.86.056-.223.25-.197.63.056.85.75.65 1.18 1.585 1.18 2.564 0 .98-.43 1.914-1.18 2.564-.253.22-.278.6-.056.852.12.136.29.205.46.205.14 0 .285-.048.4-.148C18.42 10.592 19 9.327 19 8c0-1.326-.582-2.592-1.596-3.47M10.18 0c-.284 0-.586.108-.92.328-.95.625-3.203 2.58-4.972 4.152H.94c-.518 0-.94.433-.94.966v6.195c0 .534.422.968.94.968h3.445c1.73 1.536 3.935 3.445 4.874 4.064.334.22.636.328.92.328.78 0 1.078-.788 1.126-1.205.002-.017.003-.033.003-.05V1.255c0-.016-.002-.033-.004-.05C11.258.79 10.96 0 10.18 0" fill="#F4953E" fill-rule="evenodd"/></svg>
</svg>