<svg xmlns="http://www.w3.org/2000/svg" xmlns:xlink="http://www.w3.org/1999/xlink" preserveAspectRatio="xMidYMid" width="56.938" height="63" viewBox="0 0 56.938 63">
  <defs>
    <style>
      .cls-1 {
        fill: #000;
        fill-rule: evenodd;
      }
    </style>
  </defs>
  <path d="M46.589,25.166 L43.876,24.974 L25.358,3.330 C23.622,1.123 21.837,0.004 20.049,0.000 L17.424,0.002 C16.993,0.002 16.592,0.223 16.360,0.587 C16.129,0.950 16.099,1.407 16.282,1.796 L27.483,25.675 L13.315,26.725 L7.238,19.937 C6.999,19.670 6.656,19.517 6.297,19.517 L1.268,19.517 C0.805,19.517 0.379,19.770 0.159,20.177 C-0.062,20.583 -0.042,21.079 0.212,21.466 L6.436,30.971 L0.193,41.451 C-0.039,41.840 -0.043,42.323 0.181,42.717 C0.405,43.110 0.824,43.354 1.277,43.354 L6.299,43.356 L6.299,43.356 C6.659,43.356 7.001,43.204 7.240,42.936 L13.316,36.148 L27.488,37.200 L16.284,61.209 C16.102,61.598 16.132,62.054 16.364,62.417 C16.595,62.779 16.997,63.000 17.428,63.000 L20.049,63.000 C21.839,63.000 23.625,61.879 25.323,59.710 L43.874,38.029 L46.668,37.829 C47.429,37.727 48.130,37.636 48.768,37.561 C49.464,37.477 50.334,37.305 51.425,37.033 C52.625,36.735 53.817,36.108 54.968,35.168 C56.276,34.100 56.938,32.866 56.936,31.499 C56.934,27.873 53.459,25.742 46.589,25.166 ZM53.370,33.219 C52.510,33.919 51.651,34.381 50.814,34.589 C49.840,34.831 49.051,34.990 48.470,35.059 C47.821,35.136 47.106,35.227 46.411,35.325 L43.169,35.554 C42.831,35.577 42.517,35.734 42.298,35.991 L23.370,58.116 C22.158,59.662 21.009,60.480 20.049,60.480 L19.408,60.480 L30.547,36.611 C30.723,36.236 30.702,35.799 30.492,35.443 C30.282,35.086 29.911,34.855 29.497,34.824 L12.883,33.590 C12.483,33.558 12.109,33.714 11.848,34.007 L5.735,40.837 L3.496,40.836 L9.008,31.582 C9.254,31.169 9.243,30.652 8.979,30.250 L3.601,22.036 L5.732,22.036 L11.847,28.866 C12.108,29.159 12.484,29.321 12.881,29.283 L29.496,28.052 C29.909,28.021 30.282,27.790 30.492,27.432 C30.701,27.073 30.721,26.637 30.545,26.262 L19.409,2.519 L20.048,2.519 C21.006,2.521 22.156,3.339 23.405,4.925 L42.301,27.011 C42.520,27.268 42.834,27.425 43.171,27.449 L46.394,27.676 C50.051,27.985 54.411,28.898 54.412,31.500 C54.412,31.714 54.413,32.366 53.370,33.219 Z" class="cls-1"/>
</svg>
