<?xml version="1.0" encoding="UTF-8" standalone="no"?>
<svg width="80px" height="98px" viewBox="0 0 80 98" version="1.1" xmlns="http://www.w3.org/2000/svg" xmlns:xlink="http://www.w3.org/1999/xlink">
    <!-- Generator: Sketch 3.7.2 (28276) - http://www.bohemiancoding.com/sketch -->
    <title>Group</title>
    <desc>Created with Sketch.</desc>
    <defs>
        <polygon id="path-1" points="70.4225672 0.331270073 0.000239548023 0.331270073 0.000239548023 68.8048545 70.4225672 68.8048545 70.4225672 0.331270073"></polygon>
    </defs>
    <g id="Page-1" stroke="none" stroke-width="1" fill="none" fill-rule="evenodd">
        <g id="出错小章鱼" transform="translate(0.000000, -2.000000)">
            <g id="Group" transform="translate(0.000000, 2.000000)">
                <g id="Group-2" transform="translate(10.666667, 93.000000)" fill="#F0F0F0">
                    <ellipse id="Oval-135" cx="34.6304348" cy="2.33744856" rx="34.6304348" ry="2.33744856"></ellipse>
                </g>
                <g id="Page-1" transform="translate(9.333333, 5.333333)">
                    <path d="M51.5501955,82.3200701 C48.6893932,82.3200701 46.3615853,79.9734229 46.3615853,77.0909509 L46.3615853,67.8346978 C46.3615853,67.0979387 46.9544667,66.4993596 47.6862859,66.4993596 C48.4181051,66.4993596 49.0109864,67.0979387 49.0109864,67.8346978 L49.0109864,77.0909509 C49.0109864,78.5017148 50.1500373,79.6493937 51.5501955,79.6493937 C52.9509525,79.6493937 54.0912011,78.5017148 54.0912011,77.0909509 C54.0912011,76.3529849 54.6840825,75.7556127 55.4159017,75.7556127 C56.1477209,75.7556127 56.7406023,76.3529849 56.7406023,77.0909509 C56.7406023,79.9734229 54.4121955,82.3200701 51.5501955,82.3200701" id="Fill-1" fill="#CCCCCC"></path>
                    <path d="M31.0523706,82.3353966 C30.3205514,82.3353966 29.7270712,81.7392311 29.7270712,81.0012652 L29.7270712,70.0989197 C29.7270712,69.3609538 30.3205514,68.7635815 31.0523706,68.7635815 C31.783591,68.7635815 32.3770712,69.3609538 32.3770712,70.0989197 L32.3770712,81.0012652 C32.3770712,81.7392311 31.783591,82.3353966 31.0523706,82.3353966" id="Fill-3" fill="#CCCCCC"></path>
                    <path d="M39.3692983,82.3353966 C38.6374791,82.3353966 38.0439989,81.7392311 38.0439989,81.0012652 L38.0439989,70.0989197 C38.0439989,69.3609538 38.6374791,68.7635815 39.3692983,68.7635815 C40.1005186,68.7635815 40.6939989,69.3609538 40.6939989,70.0989197 L40.6939989,81.0012652 C40.6939989,81.7392311 40.1005186,82.3353966 39.3692983,82.3353966" id="Fill-5" fill="#CCCCCC"></path>
                    <path d="M19.0035842,82.3200701 C16.2152452,82.3200701 13.9473243,80.0337635 13.9473243,77.2255105 C13.9473243,76.4875445 14.5402056,75.8901723 15.271426,75.8901723 C16.0032452,75.8901723 16.5961266,76.4875445 16.5961266,77.2255105 C16.5961266,78.5614521 17.6758893,79.6493937 19.0035842,79.6493937 C20.3312791,79.6493937 21.4116407,78.5614521 21.4116407,77.2255105 L21.4116407,67.8359046 C21.4116407,67.0979387 22.0051209,66.5005664 22.7357424,66.5005664 C23.4675616,66.5005664 24.0610418,67.0979387 24.0610418,67.8359046 L24.0610418,77.2255105 C24.0610418,80.0337635 21.7919232,82.3200701 19.0035842,82.3200701" id="Fill-7" fill="#CCCCCC"></path>
                    <g id="Group-11" transform="translate(0.000000, 0.272136)">
                        <mask id="mask-2" fill="white">
                            <use xlink:href="#path-1"></use>
                        </mask>
                        <g id="Clip-10"></g>
                        <path d="M48.1739458,68.8048545 L47.1977876,66.3230443 C59.6962056,61.3340808 67.7731661,49.3570686 67.7731661,35.808183 C67.7731661,17.7192681 53.1661266,3.00037762 35.2114034,3.00037762 C17.2566802,3.00037762 2.64964068,17.7192681 2.64964068,35.808183 C2.64964068,49.3558618 10.7254034,61.3340808 23.2238215,66.3218375 L22.2470644,68.8036477 C15.760104,66.215638 10.2241492,61.7781878 6.23807006,55.9752292 C2.15677062,50.0346939 0.000239548023,43.0599202 0.000239548023,35.808183 C0.000239548023,16.2457499 15.796635,0.330908029 35.2114034,0.330908029 C54.6267706,0.330908029 70.4225672,16.2457499 70.4225672,35.808183 C70.4225672,43.061127 68.2654373,50.0346939 64.1841379,55.9752292 C60.1986576,61.7793946 54.662104,66.215638 48.1739458,68.8048545" id="Fill-9" fill="#CCCCCC" mask="url(#mask-2)"></path>
                    </g>
                    <path d="M59.2208825,43.614873 C54.429922,43.614873 50.8331085,39.8109995 50.8331085,34.9837489 L53.8274588,34.9837489 C53.8274588,38.0007805 56.2265322,40.5978414 59.2208825,40.5978414 L59.2208825,43.614873 Z" id="Fill-12" fill="#CCCCCC"></path>
                    <path d="M11.311278,43.6154764 L11.311278,40.5984448 C14.3056282,40.5984448 16.7005096,38.0007805 16.7005096,34.9837489 L19.6948599,34.9837489 C19.6948599,39.8109995 16.1022384,43.6154764 11.311278,43.6154764" id="Fill-14" fill="#CCCCCC"></path>
                    <path d="M45.7843345,56.9693411 C43.6026508,56.9693411 42.4917469,55.6038326 41.680278,54.6070054 C40.9227073,53.6747426 40.5945266,53.3489032 39.8926508,53.3489032 C39.1925718,53.3489032 38.8649898,53.6747426 38.1074192,54.6064019 C37.2965492,55.6032292 36.1862441,56.9693411 34.0051593,56.9693411 C31.8240746,56.9693411 30.7137695,55.6038326 29.9023006,54.6070054 C29.1447299,53.6747426 28.817148,53.3489032 28.1158712,53.3489032 C27.4157921,53.3489032 27.0882102,53.6747426 26.3306395,54.6064019 C25.5197695,55.6032292 24.4094644,56.9693411 22.2283797,56.9693411 C20.0478938,56.9693411 18.8172158,55.6032292 18.0069446,54.6064019 C17.2499729,53.6747426 17.300278,53.3489032 16.1025379,53.3489032 L16.1025379,50.3318715 C18.4980181,50.3318715 19.5131028,51.6979835 20.3239729,52.6948107 C21.0803458,53.6264701 21.4684136,53.9523095 22.1684927,53.9523095 C22.8691706,53.9523095 23.226696,53.6264701 23.9842667,52.6942073 C24.7951367,51.69738 25.9204136,50.3318715 28.1008994,50.3318715 C30.2819842,50.3318715 31.4000746,51.69738 32.2109446,52.6942073 C32.9691141,53.6264701 33.3002893,53.9523095 34.0015661,53.9523095 C34.7022441,53.9523095 35.0316226,53.6264701 35.7891932,52.6942073 C36.6000633,51.69738 37.7115661,50.3318715 39.892052,50.3318715 C42.0731367,50.3318715 43.1846395,51.69738 43.9961085,52.6942073 C44.7536791,53.6264701 45.0824588,53.9523095 45.7843345,53.9523095 C46.4856113,53.9523095 46.6940181,53.6264701 47.4515887,52.6942073 C48.2630576,51.69738 49.639261,50.3318715 51.4358712,50.3318715 L51.4358712,53.3489032 C50.8370011,53.3489032 50.5255887,53.6747426 49.7680181,54.6070054 C48.9565492,55.6038326 47.9660181,56.9693411 45.7843345,56.9693411" id="Fill-16" fill="#CCCCCC"></path>
                </g>
                <g id="Page-1" fill="#CCCCCC">
                    <path d="M3.87623077,9.93864691 L7.69230769e-05,9.93864691 L7.69230769e-05,7.56827654 L3.87623077,7.56827654 C5.37776923,7.56827654 6.59930769,6.31435062 6.59930769,4.77202963 L6.59930769,0.789807407 L8.907,0.789807407 L8.907,4.77202963 C8.907,7.62042469 6.65007692,9.93864691 3.87623077,9.93864691" id="Fill-1"></path>
                    <path d="M19.8561538,9.93864691 L15.98,9.93864691 C13.2061538,9.93864691 10.9492308,7.62042469 10.9492308,4.77202963 L10.9492308,0.789807407 L13.2569231,0.789807407 L13.2569231,4.77202963 C13.2569231,6.31435062 14.4784615,7.56827654 15.98,7.56827654 L19.8561538,7.56827654 L19.8561538,9.93864691 Z" id="Fill-4"></path>
                    <path d="M13.2572308,21.3029136 L10.9495385,21.3029136 L10.9495385,17.3214815 C10.9495385,14.4722963 13.2064615,12.1540741 15.9803077,12.1540741 L19.8564615,12.1540741 L19.8564615,14.5244444 L15.9803077,14.5244444 C14.4787692,14.5244444 13.2572308,15.7791605 13.2572308,17.3214815 L13.2572308,21.3029136 Z" id="Fill-7"></path>
                    <path d="M8.90661538,21.3029136 L6.59892308,21.3029136 L6.59892308,17.3214815 C6.59892308,15.7791605 5.37738462,14.5244444 3.87584615,14.5244444 L-0.000307692308,14.5244444 L-0.000307692308,12.1540741 L3.87584615,12.1540741 C6.64969231,12.1540741 8.90661538,14.4722963 8.90661538,17.3214815 L8.90661538,21.3029136 Z" id="Fill-10"></path>
                </g>
            </g>
        </g>
    </g>
</svg>