<svg xmlns="http://www.w3.org/2000/svg" xmlns:xlink="http://www.w3.org/1999/xlink" width="75" height="275" viewBox="0 0 75 275"><svg width="67" height="67" viewBox="-10 -10 67 67" id="icon-presell01" y="0"><title>Oval 1 + 订</title><g transform="translate(1 1.343)" fill="none" fill-rule="evenodd"><circle stroke="#969696" cx="22.5" cy="22.5" r="22.5"/><text font-family=".PingFang SC" font-size="18.286" fill="#969696"><tspan x="13" y="29">订</tspan></text></g></svg>
<svg width="75" height="74" viewBox="-10 -10 75 74" id="icon-presell02" y="67"><title>Oval 1 + 订 Copy + Fill 1</title><g transform="translate(5 2)" fill="none" fill-rule="evenodd"><circle cx="22.5" cy="22.5" r="22.5" transform="translate(0 .343)" stroke="#969696"/><path d="M31.888 19.873l-5.882-3.793 2.207-3.547 6.49 2.803-2.815 4.537zm-11.945 14.04V22.548l11.583-1.334V32.58l-11.583 1.333zm-6.77-15.232l5.713 3.685v11.17l-5.713-3.684V18.68zm3.334-2.47l1.998 4.656-5.438-3.506-1.502-3.502 4.942 2.353zm9.306.998l4.744 3.06-4.744.545v-3.605zm-1.057-.377v4.105l-4.834.557-1.678-3.91 6.512-.75zm10.926-2.217l-7.467-3.226c-.24-.105-.52-.016-.66.206l-2.585 4.155-7.16.824-.41-.956c-.05-.118-.142-.213-.257-.27l-6.387-3.038c-.2-.095-.434-.058-.593.095-.16.15-.207.384-.12.586l2.073 4.83v12.317c0 .178.09.344.24.44l6.77 4.367c.084.038.1.047.12.053.054.02.11.03.168.03.02 0 12.7-1.457 12.7-1.457.268-.03.47-.256.47-.523v-12.29l3.337-5.386c.082-.13.102-.287.056-.433-.046-.145-.154-.264-.294-.324z" fill="#969696"/></g></svg>
<svg width="67" height="67" viewBox="-10 -10 67 67" id="icon-presell03" y="141"><title>Oval 1 + 订 Copy 2</title><g transform="translate(1 1.343)" fill="none" fill-rule="evenodd"><circle stroke="#969669" cx="22.5" cy="22.5" r="22.5"/><text font-family=".PingFang SC" font-size="18.286" fill="#969696"><tspan x="13.429" y="27">付</tspan></text></g></svg>
<svg width="67" height="67" viewBox="-10 -10 67 67" id="icon-presell04" y="208"><title>Oval 1 + 订 Copy 3 + Page 1</title><g transform="translate(1 1)" fill="none" fill-rule="evenodd"><circle cx="22.5" cy="22.5" r="22.5" transform="translate(0 .343)" stroke="#969696"/><g transform="translate(8 11.343)" fill="#969696"><path d="M28.693 17.382h-1.65c-.638-.873-1.666-1.443-2.827-1.443-1.16 0-2.19.57-2.827 1.442H9.992c-.638-.873-1.665-1.443-2.826-1.443-1.162 0-2.19.57-2.827 1.442H2.45v-1.935h17.99c.333 0 .603-.27.603-.603v-3.57h7.112v3.57c0 .31.235.566.538.6v1.938zm-4.477 4.352c-1.266 0-2.294-1.03-2.294-2.294 0-1.265 1.028-2.294 2.294-2.294 1.265 0 2.293 1.03 2.293 2.294 0 1.265-1.03 2.294-2.294 2.294zm-17.05 0c-1.265 0-2.293-1.03-2.293-2.294 0-1.265 1.028-2.294 2.294-2.294 1.265 0 2.293 1.03 2.293 2.294 0 1.265-1.028 2.294-2.293 2.294zM1.21 1.27h18.628V14.24H1.208V1.27zm23.39 8.795h-3.555V5.517H24.6v4.548zm3.557-.197v.197h-2.348V5.517h.536c.45.418 1.812 1.883 1.812 4.35zm1.207 4.375V9.868c0-3.532-2.33-5.358-2.428-5.434-.105-.08-.235-.125-.367-.125h-5.524V.664c0-.334-.27-.603-.603-.603H.604C.27.062 0 .332 0 .665v14.18c0 .332.27.602.604.602h.637v2.54c0 .333.272.603.605.603h1.93c-.07.272-.11.556-.11.85 0 1.93 1.57 3.5 3.502 3.5 1.93 0 3.5-1.57 3.5-3.5 0-.294-.04-.578-.108-.85h10.263c-.068.272-.11.556-.11.85 0 1.93 1.572 3.5 3.503 3.5 1.93 0 3.5-1.57 3.5-3.5 0-.294-.04-.578-.108-.85h1.69c.333 0 .602-.27.602-.604v-3.142c0-.312-.235-.568-.538-.6z"/><path d="M24.216 18.65c-.436 0-.79.355-.79.79 0 .435.354.79.79.79.434 0 .79-.355.79-.79 0-.435-.356-.79-.79-.79M7.166 18.65c-.435 0-.79.355-.79.79 0 .435.355.79.79.79.435 0 .79-.355.79-.79 0-.435-.355-.79-.79-.79M22.405 1.523h.004c1.538 0 2.924 1.835 2.938 1.854.118.16.3.243.485.243.125 0 .25-.04.36-.12.267-.198.323-.575.124-.842-.07-.096-1.758-2.342-3.908-2.342h-.006c-.333 0-.603.27-.602.605 0 .334.27.603.603.603"/></g></g></svg>
</svg>