<svg xmlns="http://www.w3.org/2000/svg" xmlns:xlink="http://www.w3.org/1999/xlink" preserveAspectRatio="xMidYMid" width="39" height="35" viewBox="0 0 39 35">
  <defs>
    <style>
      .cls-1 {
        fill: #f29545;
        fill-rule: evenodd;
      }
    </style>
  </defs>
  <path d="M35.726,23.618 C35.488,23.824 35.193,23.925 34.900,23.925 C34.553,23.925 34.206,23.783 33.958,23.503 C33.503,22.987 33.554,22.203 34.074,21.750 C35.613,20.412 36.496,18.487 36.496,16.471 C36.496,14.455 35.613,12.531 34.074,11.193 C33.554,10.741 33.502,9.957 33.958,9.441 C34.413,8.924 35.203,8.874 35.725,9.326 C37.806,11.135 39.000,13.740 39.000,16.471 C39.000,19.202 37.807,21.807 35.726,23.618 ZM20.896,35.000 C20.312,35.000 19.693,34.779 19.005,34.325 C17.078,33.051 12.553,29.118 9.001,25.957 L1.930,25.957 C0.866,25.957 -0.000,25.064 -0.000,23.967 L-0.000,11.213 C-0.000,10.116 0.866,9.223 1.930,9.223 L8.800,9.223 C12.433,5.986 17.057,1.963 19.005,0.676 C19.693,0.222 20.312,0.000 20.897,0.000 C22.499,0.000 23.109,1.623 23.207,2.482 C23.211,2.516 23.213,2.551 23.213,2.585 L23.213,32.416 C23.213,32.451 23.211,32.485 23.207,32.519 C23.109,33.378 22.499,35.000 20.896,35.000 Z" class="cls-1"/>
</svg>
