<?xml version="1.0" encoding="UTF-8" standalone="no"?>
<svg width="19px" height="17px" viewBox="0 0 19 17" version="1.1" xmlns="http://www.w3.org/2000/svg" xmlns:xlink="http://www.w3.org/1999/xlink" xmlns:sketch="http://www.bohemiancoding.com/sketch/ns">
    <!-- Generator: Sketch 3.4.4 (17249) - http://www.bohemiancoding.com/sketch -->
    <title>公告</title>
    <desc>Created with Sketch.</desc>
    <defs></defs>
    <g id="Page-1" stroke="none" stroke-width="1" fill="none" fill-rule="evenodd" sketch:type="MSPage">
        <path d="M17.4044872,4.52977143 C17.1506667,4.31022857 16.7653077,4.33451429 16.543641,4.58562857 C16.3214872,4.83625714 16.3468205,5.21705714 16.6001538,5.4366 C17.3499231,6.08648571 17.7801026,7.021 17.7801026,8.0002 C17.7801026,8.9794 17.3499231,9.9144 16.6001538,10.5642857 C16.3468205,10.7843143 16.3219744,11.1651143 16.543641,11.4157429 C16.6644615,11.5517429 16.8335128,11.6207143 17.0025641,11.6207143 C17.1453077,11.6207143 17.2890256,11.5716571 17.4049744,11.4716 C18.4187949,10.5919714 19,9.32668571 19,8.0002 C19,6.67371429 18.4183077,5.40842857 17.4044872,4.52977143 M10.1805897,0 C9.89558974,0 9.59402564,0.107828571 9.25884615,0.328342857 C8.30982051,0.953457143 6.05710256,2.90748571 4.28766667,4.48022857 L0.94025641,4.48022857 C0.421897436,4.48022857 0,4.91348571 0,5.44631429 L0,11.6411143 C0,12.1739429 0.421897436,12.6076857 0.94025641,12.6076857 L4.38510256,12.6076857 C6.1155641,14.1435143 8.32005128,16.0533429 9.25884615,16.6721429 C9.59402564,16.8926571 9.89558974,17 10.1801026,17 C10.9610513,17 11.2582308,16.2121714 11.3059744,15.7949429 C11.3079231,15.7784286 11.3088974,15.7619143 11.3088974,15.7449143 L11.3088974,1.25557143 C11.3088974,1.23905714 11.3079231,1.22205714 11.3059744,1.20554286 C11.2582308,0.7888 10.9610513,0 10.1805897,0" id="公告" fill="#F4953E" sketch:type="MSShapeGroup"></path>
    </g>
</svg>