<?xml version="1.0" encoding="UTF-8" standalone="no"?>
<svg width="16px" height="10px" viewBox="0 0 16 10" version="1.1" xmlns="http://www.w3.org/2000/svg" xmlns:xlink="http://www.w3.org/1999/xlink" xmlns:sketch="http://www.bohemiancoding.com/sketch/ns">
    <!-- Generator: Sketch 3.4 (15575) - http://www.bohemiancoding.com/sketch -->
    <title>Page 1</title>
    <desc>Created with Sketch.</desc>
    <defs></defs>
    <g id="Page-1" stroke="none" stroke-width="1" fill="none" fill-rule="evenodd" sketch:type="MSPage">
        <g id="美妆首页-copy-2" sketch:type="MSArtboardGroup" transform="translate(-388.000000, -342.000000)" fill="#FFFFFF">
            <g id="Group" sketch:type="MSLayerGroup" transform="translate(388.000000, 259.000000)">
                <path d="M0.837063538,86.8115797 C1.44482813,86.3777115 2.20134751,85.8373405 2.85415757,85.1517066 L2.99872209,84.99946 C3.79976315,84.1556432 4.89656785,83 5.74230519,83 C5.82611071,83 6.05378236,83.1140104 6.23710693,83.2058473 C6.64146855,83.4082027 7.19563253,83.6856339 7.85979125,83.7001253 C8.50823644,83.6856339 9.06240042,83.4082027 9.46693663,83.2058473 C9.6500866,83.1140104 9.87793285,83 9.96173837,83 C10.8079995,83 11.9055026,84.1566907 12.7068928,85.0012059 L12.8497114,85.151532 C13.5088069,85.8439751 14.2808652,86.3873142 14.9012006,86.8239759 C15.124682,86.9812858 15.3877964,87.1667055 15.6021988,87.3364117 C15.1274755,87.3006198 14.5481699,87.1955137 13.9447701,87.0848206 C13.0836685,86.9266377 12.1930603,86.7633915 11.4101771,86.7633915 C11.0398614,86.7633915 10.4727774,86.8964327 9.81612628,87.0506 C9.12857186,87.2121002 8.34918055,87.3950756 7.85333124,87.3966469 C7.35503761,87.3950756 6.5756463,87.2121002 5.88826647,87.0506 C5.23144073,86.8964327 4.66435673,86.7633915 4.29404111,86.7633915 C3.51150709,86.7633915 2.61897834,86.9266377 1.75613071,87.0844714 C1.16774614,87.1921964 0.601535117,87.2952073 0.133271792,87.3337928 C0.347674239,87.1614677 0.612534591,86.9720323 0.837063538,86.8115797 L0.837063538,86.8115797 Z M13.3282758,90.2680334 C12.734828,91.0474248 11.2608985,92.3603778 8.05900395,92.3980903 C8.04416339,92.3982649 8.02932283,92.3994871 8.01500605,92.4015822 L7.88563128,92.4000109 L7.76219274,92.4015822 C7.74770137,92.3994871 7.73303541,92.3982649 7.71802025,92.3980903 C4.23782157,92.3549654 2.73979796,90.6163501 2.47476301,90.268208 C1.40013185,88.8562597 0.692499022,88.3279357 0.243091938,88.0239661 C0.738068271,87.9796191 1.29956523,87.8780049 1.88201358,87.771502 C2.71413252,87.6192553 3.57471042,87.4617708 4.29404111,87.4617708 C4.58351933,87.4617708 5.16561848,87.5983039 5.7286868,87.7306468 C6.4879997,87.9087336 7.27315263,88.0931057 7.85333124,88.0950262 C8.43106552,88.0931057 9.21639305,87.9087336 9.97570595,87.7304722 C10.5387743,87.5983039 11.1208734,87.4617708 11.4101771,87.4617708 C12.1296823,87.4617708 12.9883397,87.6192553 13.8187127,87.7716766 C14.4512697,87.8877822 15.0597327,87.9983007 15.5842156,88.0344418 C15.1239836,88.3478395 14.3849237,88.8805284 13.3282758,90.2680334 L13.3282758,90.2680334 Z" id="Page-1" sketch:type="MSShapeGroup"></path>
            </g>
        </g>
    </g>
</svg>