<?xml version="1.0" encoding="UTF-8" standalone="no"?>
<svg width="20px" height="24px" viewBox="0 0 20 24" version="1.1" xmlns="http://www.w3.org/2000/svg" xmlns:xlink="http://www.w3.org/1999/xlink" xmlns:sketch="http://www.bohemiancoding.com/sketch/ns">
    <!-- Generator: Sketch 3.4 (15575) - http://www.bohemiancoding.com/sketch -->
    <title>icon-header3</title>
    <desc>Created with Sketch.</desc>
    <defs></defs>
    <g id="Page-1" stroke="none" stroke-width="1" fill="none" fill-rule="evenodd" sketch:type="MSPage">
        <g id="美妆首页-copy-2" sketch:type="MSArtboardGroup" transform="translate(-1400.000000, -132.000000)" fill="#999999">
            <g id="icon-header3" sketch:type="MSLayerGroup" transform="translate(1400.000000, 131.000000)">
                <path d="M19.2061905,5.14144 C18.922381,4.92592 18.537619,4.85344 18.1942857,4.95232 C18.1890476,4.95376 17.6880952,5.092 16.9261905,5.092 C15.257619,5.092 12.8366667,4.4656 10.7795238,1.48096 C10.5719048,1.17952 10.2180952,1 9.83285714,1 C9.44857143,1 9.0947619,1.17952 8.88714286,1.48096 C6.82952381,4.4656 4.40857143,5.092 2.74,5.092 C1.98095238,5.092 1.48095238,4.9552 1.48095238,4.9552 C1.13809524,4.85104 0.752380952,4.92112 0.462380952,5.13808 C0.172857143,5.35648 0,5.70448 0,6.0688 L0,12.48496 C0,21.74224 9.43190476,24.5032 9.53,24.53056 C9.62857143,24.55792 9.73047619,24.57136 9.83285714,24.57136 C9.9352381,24.57136 10.0371429,24.55792 10.1380952,24.53008 C10.2333333,24.50368 19.6661905,21.76144 19.6661905,12.48496 L19.6661905,6.0688 C19.6661905,5.70592 19.4938095,5.35888 19.2061905,5.14144 L19.2061905,5.14144 Z M18.7138095,12.48496 C18.7138095,21.01888 9.97190476,23.58016 9.88571429,23.60464 C9.85142857,23.61376 9.81095238,23.6128 9.78285714,23.6056 C9.6947619,23.58064 0.952380952,21.01216 0.952380952,12.48496 L0.952380952,6.0688 C0.952380952,6.00448 0.981904762,5.94544 1.03142857,5.90752 C1.06666667,5.8816 1.11,5.8672 1.15285714,5.8672 C1.17190476,5.8672 1.19047619,5.8696 1.19333333,5.87008 C1.30047619,5.90656 1.91190476,6.052 2.74,6.052 C4.63619048,6.052 7.37714286,5.35408 9.66904762,2.02816 C9.73904762,1.92688 9.92761905,1.92736 9.99714286,2.02816 C12.2895238,5.35408 15.0304762,6.052 16.9261905,6.052 C17.8585714,6.052 18.4547619,5.87584 18.4547619,5.87584 C18.5157143,5.85808 18.582381,5.8696 18.6333333,5.90848 C18.6838095,5.9464 18.7138095,6.00688 18.7138095,6.0688 L18.7138095,12.48496 L18.7138095,12.48496 Z" id="Imported-Layers" sketch:type="MSShapeGroup"></path>
                <text id="免" sketch:type="MSTextLayer" font-family="Heiti SC" font-size="12" font-weight="bold">
                    <tspan x="3.8" y="17.2">免</tspan>
                </text>
            </g>
        </g>
    </g>
</svg>