<?xml version="1.0" encoding="UTF-8" standalone="no"?>
<svg width="25px" height="22px" viewBox="0 0 25 22" version="1.1" xmlns="http://www.w3.org/2000/svg" xmlns:xlink="http://www.w3.org/1999/xlink" xmlns:sketch="http://www.bohemiancoding.com/sketch/ns">
    <!-- Generator: Sketch 3.4 (15575) - http://www.bohemiancoding.com/sketch -->
    <title>icon-header5</title>
    <desc>Created with Sketch.</desc>
    <defs></defs>
    <g id="Page-1" stroke="none" stroke-width="1" fill="none" fill-rule="evenodd" sketch:type="MSPage">
        <g id="美妆首页-copy-2" sketch:type="MSArtboardGroup" transform="translate(-1389.000000, -58.000000)" fill="#E73736">
            <g id="Group-Copy" sketch:type="MSLayerGroup">
                <path d="M1413.47,59.569 C1413.2045,59.496 1412.929,59.6535 1412.856,59.9195 L1412.504,61.21 L1393.7495,61.21 L1394.118,59.613 C1394.1345,59.542 1394.135,59.468 1394.12,59.3965 C1393.985,58.7605 1393.4145,58.299 1392.764,58.299 L1389.6765,58.299 C1389.4005,58.299 1389.1765,58.5225 1389.1765,58.799 C1389.1765,59.075 1389.4005,59.299 1389.6765,59.299 L1392.764,59.299 C1392.915,59.299 1393.0505,59.388 1393.1135,59.52 L1392.634,61.5975 C1392.633,61.6015 1392.6345,61.6055 1392.6335,61.6095 C1392.62,61.676 1392.618,61.746 1392.6335,61.8165 L1392.6335,61.8205 L1392.6335,61.8215 L1394.765,71.145 L1394.2205,72.888 C1394.2155,72.904 1394.211,72.921 1394.208,72.9375 C1394.1335,73.3025 1394.2265,73.6775 1394.4615,73.965 C1394.697,74.2535 1395.0455,74.419 1395.418,74.419 L1410.29,74.419 C1410.566,74.419 1410.79,74.1955 1410.79,73.919 C1410.79,73.6425 1410.566,73.419 1410.29,73.419 L1395.418,73.419 C1395.347,73.419 1395.281,73.3875 1395.236,73.332 C1395.195,73.282 1395.1765,73.2185 1395.185,73.155 L1395.662,71.6265 L1410.099,70.058 C1410.7335,70.045 1411.2735,69.6085 1411.4145,69.0055 L1413.821,60.1825 C1413.8935,59.9165 1413.7365,59.6415 1413.47,59.569 L1413.47,59.569 Z M1410.445,68.76 C1410.404,68.9355 1410.2495,69.0585 1410.069,69.0585 C1410.051,69.0585 1410.0325,69.0595 1410.015,69.0615 L1395.6705,70.62 L1393.7485,62.21 L1412.2315,62.21 L1410.445,68.76 Z M1396.2655,75.6715 C1395.153,75.6715 1394.248,76.576 1394.248,77.6885 C1394.248,78.801 1395.153,79.7055 1396.2655,79.7055 C1397.377,79.7055 1398.2815,78.801 1398.2815,77.6885 C1398.2815,76.576 1397.377,75.6715 1396.2655,75.6715 Z M1396.2655,78.7055 C1395.7045,78.7055 1395.248,78.2495 1395.248,77.6885 C1395.248,77.1275 1395.7045,76.6715 1396.2655,76.6715 C1396.8255,76.6715 1397.2815,77.1275 1397.2815,77.6885 C1397.2815,78.2495 1396.8255,78.7055 1396.2655,78.7055 Z M1408.1985,75.6715 C1407.0865,75.6715 1406.1815,76.576 1406.1815,77.6885 C1406.1815,78.801 1407.0865,79.7055 1408.1985,79.7055 C1409.311,79.7055 1410.2155,78.801 1410.2155,77.6885 C1410.2155,76.576 1409.311,75.6715 1408.1985,75.6715 Z M1408.1985,78.7055 C1407.6375,78.7055 1407.1815,78.2495 1407.1815,77.6885 C1407.1815,77.1275 1407.6375,76.6715 1408.1985,76.6715 C1408.7595,76.6715 1409.2155,77.1275 1409.2155,77.6885 C1409.2155,78.2495 1408.7595,78.7055 1408.1985,78.7055 L1408.1985,78.7055 Z" id="icon-header5" sketch:type="MSShapeGroup"></path>
            </g>
        </g>
    </g>
</svg>