<?xml version="1.0" encoding="UTF-8" standalone="no"?>
<svg width="13px" height="15px" viewBox="0 0 13 15" version="1.1" xmlns="http://www.w3.org/2000/svg" xmlns:xlink="http://www.w3.org/1999/xlink" xmlns:sketch="http://www.bohemiancoding.com/sketch/ns">
    <!-- Generator: Sketch 3.3.2 (12043) - http://www.bohemiancoding.com/sketch -->
    <title>美妆</title>
    <desc>Created with Sketch.</desc>
    <defs></defs>
    <g id="Page-1" stroke="none" stroke-width="1" fill="none" fill-rule="evenodd" sketch:type="MSPage">
        <g id="Group" sketch:type="MSLayerGroup" transform="translate(-21.000000, -433.000000)" stroke="#FFFFFF">
            <g id="美妆" transform="translate(21.000000, 434.000000)" sketch:type="MSShapeGroup">
                <path d="M8.58946067,9.98282521 C10.3893949,9.13516851 11.6315789,7.33444813 11.6315789,5.25 C11.6315789,2.35050506 9.22805497,0 6.26315789,0 C3.29826082,0 0.894736842,2.35050506 0.894736842,5.25 C0.894736842,7.31602344 2.10615941,9.13703156 3.97001246,9.98282528" id="Oval-38" stroke-linecap="round"></path>
                <path d="M10.5962639,9.625 C11.6622021,9.625 12.5263158,10.4017634 12.5263158,11.375 C12.5263158,12.3414983 11.6653314,13.125 10.5965307,13.125 L1.92978506,13.125 C0.863994202,13.125 0,12.3482366 0,11.375 C0,10.4085017 0.872260985,9.625 1.92285565,9.625 L3.2746666,9.625" id="Rectangle-18" stroke-linecap="round"></path>
                <path d="M6.26315789,8.75 C8.23975595,8.75 9.84210526,7.18299662 9.84210526,5.25 C9.84210526,3.31700338 8.23975595,1.75 6.26315789,1.75 C4.28655984,1.75 2.68421053,3.31700338 2.68421053,5.25 C2.68421053,7.18299662 4.28655984,8.75 6.26315789,8.75 Z" id="Oval-38-Copy"></path>
                <path d="M7.02579222,3.03985596 C7.02579222,3.03985596 8.31809279,3.29118347 8.5191683,4.72427368" id="Path-67" stroke-linecap="round" stroke-linejoin="round"></path>
                <path d="M7.33548777,10.0699768 L10.627239,10.0699768" id="Path-70" stroke-linecap="round"></path>
                <path d="M1.96706671,10.0699768 L5.53165155,10.0699768" id="Path-70-Copy" stroke-linecap="round"></path>
            </g>
        </g>
    </g>
</svg>