<?xml version="1.0" encoding="UTF-8" standalone="no"?>
<svg width="12px" height="15px" viewBox="0 0 12 15" version="1.1" xmlns="http://www.w3.org/2000/svg" xmlns:xlink="http://www.w3.org/1999/xlink" xmlns:sketch="http://www.bohemiancoding.com/sketch/ns">
    <!-- Generator: Sketch 3.4 (15575) - http://www.bohemiancoding.com/sketch -->
    <title>Imported Layers</title>
    <desc>Created with Sketch.</desc>
    <defs></defs>
    <g id="Page-1" stroke="none" stroke-width="1" fill="none" fill-rule="evenodd" sketch:type="MSPage">
        <g id="美妆首页-copy-2" sketch:type="MSArtboardGroup" transform="translate(-389.000000, -259.000000)" fill="#FFFFFF">
            <g id="Group" sketch:type="MSLayerGroup" transform="translate(388.000000, 259.000000)">
                <g id="Imported-Layers" transform="translate(1.000000, 0.000000)" sketch:type="MSShapeGroup">
                    <path d="M11.97375,5.01975904 C11.97375,2.24927711 9.3249375,0.160301205 5.8125,0.160301205 C5.6053125,0.160301205 5.4375,0.322048193 5.4375,0.521746988 L5.4375,4.3373494 L0.3789375,4.3373494 C0.1719375,4.3373494 0.0039375,4.49927711 0.0039375,4.69879518 C0.0039375,8.16740964 2.0176875,9.92638554 5.98875,9.92638554 C10.0160625,9.92638554 11.97375,8.32138554 11.97375,5.01975904 L11.97375,5.01975904 Z" id="Fill-1"></path>
                    <path d="M9.2653125,10.4607831 C7.978125,10.4607831 6.931125,11.4701205 6.931125,12.7106024 C6.931125,13.9510843 7.978125,14.9604217 9.2653125,14.9604217 C10.5523125,14.9604217 11.5993125,13.9510843 11.5993125,12.7106024 C11.5993125,11.4701205 10.5523125,10.4607831 9.2653125,10.4607831 L9.2653125,10.4607831 Z" id="Fill-2"></path>
                    <path d="M2.8100625,10.4607831 C1.5230625,10.4607831 0.4760625,11.4701205 0.4760625,12.7106024 C0.4760625,13.9510843 1.5230625,14.9604217 2.8100625,14.9604217 C4.09725,14.9604217 5.14425,13.9510843 5.14425,12.7106024 C5.14425,11.4701205 4.09725,10.4607831 2.8100625,10.4607831 L2.8100625,10.4607831 Z" id="Fill-3"></path>
                </g>
            </g>
        </g>
    </g>
</svg>