<?xml version="1.0" encoding="UTF-8" standalone="no"?>
<svg width="13px" height="15px" viewBox="0 0 13 15" version="1.1" xmlns="http://www.w3.org/2000/svg" xmlns:xlink="http://www.w3.org/1999/xlink" xmlns:sketch="http://www.bohemiancoding.com/sketch/ns">
    <!-- Generator: Sketch 3.4 (15575) - http://www.bohemiancoding.com/sketch -->
    <title>Imported Layers</title>
    <desc>Created with Sketch.</desc>
    <defs></defs>
    <g id="Page-1" stroke="none" stroke-width="1" fill="none" fill-rule="evenodd" sketch:type="MSPage">
        <g id="美妆首页-copy-2" sketch:type="MSArtboardGroup" transform="translate(-389.000000, -419.000000)" fill="#FFFFFF">
            <g id="Group" sketch:type="MSLayerGroup" transform="translate(388.000000, 259.000000)">
                <path d="M13.7969847,161.189782 L13.6531019,160.305368 L13.182228,161.071882 C12.2646831,162.563958 10.2923873,163.488498 8.20441775,164.465217 C7.33945187,164.870105 6.4447747,165.291836 5.60084041,165.762115 C3.72084992,166.75386 2.15499795,168.892569 3.15984059,171.230585 C3.16801955,171.24974 3.17853534,171.269059 3.18738196,171.288379 C2.17235736,171.760639 1.42440056,172.660079 1.01628756,173.90909 C0.959535649,174.082638 1.05584698,174.2689 1.23127715,174.325042 C1.2653283,174.335776 1.30004711,174.34106 1.33393134,174.34106 C1.47497653,174.34106 1.60583976,174.252057 1.65157512,174.112195 C2.01361892,173.004366 2.64456663,172.24776 3.52739267,171.859714 C4.16134489,172.710938 5.30873499,173.434024 6.82501249,173.434024 L6.82534633,173.434024 C7.89712285,173.434024 9.55945307,173.040199 11.3937082,171.225797 L11.4117353,171.193927 C14.3486466,167.785071 14.1668736,163.462903 13.7969847,161.189782 L13.7969847,161.189782 Z" id="Imported-Layers" sketch:type="MSShapeGroup"></path>
            </g>
        </g>
    </g>
</svg>