<svg xmlns="http://www.w3.org/2000/svg" xmlns:xlink="http://www.w3.org/1999/xlink" preserveAspectRatio="xMidYMid" width="49.03" height="49" viewBox="0 0 49.03 49">
  <defs>
    <style>
      .cls-1 {
        fill: #000;
        fill-rule: evenodd;
      }
    </style>
  </defs>
  <path d="M49.023,2.567 L49.023,34.208 C49.026,34.478 48.989,34.757 48.913,35.027 L45.486,46.976 C45.409,47.245 45.296,47.491 45.149,47.707 C44.787,48.243 44.245,48.552 43.662,48.552 L43.662,48.552 L43.662,47.892 C43.662,47.892 43.661,47.892 43.661,47.892 L43.660,48.552 C42.824,48.552 42.108,47.932 41.836,46.973 L38.412,35.032 C38.336,34.766 38.297,34.488 38.297,34.208 L38.298,2.389 C38.296,1.821 38.454,1.269 38.744,0.838 C39.108,0.297 39.651,-0.012 40.235,-0.013 L47.085,-0.015 C47.678,-0.007 48.216,0.302 48.575,0.833 C48.862,1.259 49.022,1.809 49.024,2.382 L49.023,2.567 ZM42.925,43.634 L44.398,43.634 L46.819,35.193 L40.505,35.193 L42.925,43.634 ZM46.957,1.954 L40.369,1.955 C40.308,2.062 40.264,2.206 40.265,2.385 L40.265,3.807 L40.264,33.224 L47.056,33.224 L47.057,2.381 C47.056,2.191 47.005,2.036 46.957,1.954 ZM30.715,48.997 L2.631,48.997 C1.188,48.997 0.013,47.821 0.013,46.376 L0.013,2.607 C0.013,1.162 1.188,-0.014 2.631,-0.014 L23.862,-0.014 C23.862,-0.014 23.863,-0.014 23.863,-0.014 C24.556,-0.014 25.209,0.254 25.701,0.741 L32.555,7.501 C33.051,7.991 33.336,8.671 33.336,9.367 L33.336,46.376 C33.336,47.821 32.160,48.997 30.715,48.997 ZM24.848,2.664 L24.854,8.382 L30.646,8.382 L24.848,2.664 ZM31.369,10.351 L23.871,10.351 C23.329,10.351 22.888,9.911 22.888,9.368 L22.880,1.955 L2.631,1.955 C2.272,1.955 1.980,2.247 1.980,2.607 L1.980,46.376 C1.980,46.736 2.272,47.029 2.631,47.029 L30.715,47.029 C31.076,47.029 31.369,46.736 31.369,46.376 L31.369,10.351 ZM23.863,38.171 L8.715,38.171 C8.171,38.171 7.731,37.730 7.731,37.187 C7.731,36.643 8.171,36.203 8.715,36.203 L23.863,36.203 C24.406,36.203 24.846,36.643 24.846,37.187 C24.846,37.730 24.406,38.171 23.863,38.171 ZM23.863,31.281 L8.715,31.281 C8.171,31.281 7.731,30.841 7.731,30.298 C7.731,29.754 8.171,29.313 8.715,29.313 L23.863,29.313 C24.406,29.313 24.846,29.754 24.846,30.298 C24.846,30.841 24.406,31.281 23.863,31.281 ZM23.863,24.392 L8.715,24.392 C8.171,24.392 7.731,23.951 7.731,23.408 C7.731,22.864 8.171,22.424 8.715,22.424 L23.863,22.424 C24.406,22.424 24.846,22.864 24.846,23.408 C24.846,23.951 24.406,24.392 23.863,24.392 ZM14.279,17.503 L8.715,17.503 C8.171,17.503 7.731,17.062 7.731,16.518 C7.731,15.975 8.171,15.534 8.715,15.534 L14.279,15.534 C14.822,15.534 15.263,15.975 15.263,16.518 C15.263,17.062 14.822,17.503 14.279,17.503 Z" class="cls-1"/>
</svg>
