<svg xmlns="http://www.w3.org/2000/svg" xmlns:xlink="http://www.w3.org/1999/xlink" width="70" height="223" viewBox="0 0 70 223"><svg preserveAspectRatio="xMidYMid" width="56.938" height="63" viewBox="0 0 56.938 63" id="airplane" y="0"><path d="M46.59 25.166l-2.714-.192L25.358 3.33C23.622 1.123 21.838.004 20.048 0l-2.624.002c-.43 0-.832.22-1.064.585-.23.363-.26.82-.078 1.21l11.2 23.878-14.167 1.05-6.077-6.788c-.24-.267-.582-.42-.94-.42h-5.03c-.463 0-.89.253-1.11.66-.22.406-.2.902.054 1.29l6.224 9.504L.193 41.45c-.232.39-.236.873-.012 1.267.225.393.644.637 1.097.637l5.022.002c.36 0 .7-.152.94-.42l6.076-6.788L27.488 37.2 16.284 61.21c-.182.388-.152.844.08 1.207.23.362.633.583 1.064.583h2.62c1.79 0 3.577-1.12 5.275-3.29l18.55-21.68 2.795-.2c.76-.103 1.462-.194 2.1-.27.696-.083 1.566-.255 2.657-.527 1.2-.298 2.392-.925 3.543-1.865 1.308-1.068 1.97-2.302 1.968-3.67-.002-3.625-3.477-5.756-10.347-6.332zm6.78 8.053c-.86.7-1.72 1.16-2.556 1.37-.974.24-1.763.4-2.344.47-.65.076-1.364.167-2.06.265l-3.24.23c-.34.022-.653.18-.872.436L23.37 58.117c-1.212 1.546-2.36 2.364-3.32 2.364h-.642l11.14-23.87c.175-.374.154-.81-.056-1.167s-.58-.588-.995-.62L12.883 33.59c-.4-.032-.774.124-1.035.417l-6.113 6.83h-2.24L9.01 31.58c.246-.413.235-.93-.03-1.332l-5.377-8.214h2.132l6.115 6.83c.26.293.637.455 1.034.417l16.616-1.23c.413-.032.786-.263.996-.62.21-.36.23-.796.053-1.17L19.41 2.518h.638c.958 0 2.108.82 3.357 2.405L42.3 27.01c.22.258.534.415.87.44l3.224.226c3.657.31 8.017 1.222 8.018 3.824 0 .214 0 .866-1.042 1.72z"/></svg>
<svg preserveAspectRatio="xMidYMid" width="70" height="59" viewBox="0 0 70 59" id="bookmark" y="63"><path d="M69.494 58.662c-.258.22-.583.338-.914.338-.08 0-.162-.007-.243-.02-9.99-1.755-23.104-1.755-33.094 0-.082.014-.16-.012-.243-.012-.082 0-.16.026-.243.01-9.987-1.753-23.104-1.753-33.094 0-.08.015-.163.022-.243.022-.332 0-.656-.118-.914-.338C.184 58.388 0 57.985 0 57.56V13.12C0 8.7 9.438 6.687 18.208 6.687 24.94 6.687 32.05 7.88 35 10.43c1.59-1.375 4.387-2.353 7.682-2.964v-4.95c0-1.388 1.113-2.516 2.48-2.516h13.492c.654 0 1.295.27 1.755.738.465.47.723 1.103.723 1.778V7.51C66.173 8.476 70 10.31 70 13.12v44.44c0 .425-.184.828-.506 1.102zM33.58 13.12c0-1.032-5.386-3.554-15.372-3.554-9.983 0-15.368 2.522-15.368 3.554v42.75c4.738-.73 10.014-1.112 15.368-1.112 5.356 0 10.632.383 15.372 1.11V13.12zM58.293 2.88h-12.77v34.11l6.384-6.46 6.386 6.46V2.88zm8.867 10.24c0-.64-2.083-1.845-6.027-2.674V37.87c0 .672-.258 1.303-.727 1.778-.232.237-.504.42-.808.547-.892.375-2.008.154-2.7-.547l-4.99-5.05-4.993 5.05c-.467.475-1.09.737-1.753.737-.327 0-.646-.065-.95-.192-.933-.395-1.532-1.31-1.53-2.33v-27.46c-4.092.828-6.262 2.066-6.262 2.717v42.75c9.478-1.456 21.26-1.456 30.74 0V13.12zM8.143 40.578c0-.795.635-1.44 1.42-1.44H26.51c.784 0 1.42.645 1.42 1.44 0 .795-.636 1.44-1.42 1.44H9.562c-.785 0-1.42-.645-1.42-1.44zm18.366-6.936H9.562c-.785 0-1.42-.644-1.42-1.44 0-.794.635-1.44 1.42-1.44H26.51c.784 0 1.42.646 1.42 1.44 0 .796-.636 1.44-1.42 1.44zm0-8.375H9.562c-.785 0-1.42-.645-1.42-1.44 0-.795.635-1.44 1.42-1.44H26.51c.784 0 1.42.645 1.42 1.44 0 .795-.636 1.44-1.42 1.44z"/></svg>
<svg preserveAspectRatio="xMidYMid" width="55" height="52" viewBox="0 0 55 52" id="delivery" y="122"><path d="M54.977 14.45v36.456c0 .604-.494 1.094-1.103 1.094H1.104C.494 52 0 51.51 0 50.906V14.34v-.005c.002-.127.032-.25.076-.37.013-.035.027-.067.043-.1.012-.027.02-.057.035-.083L8.073.537c.2-.333.56-.537.95-.537h36.932c.39 0 .75.204.95.537l7.82 13.08c.172.193.275.446.275.723 0 .04-.02.073-.023.11zM9.652 2.19l-6.61 11.054h17.97v-.833c0-.07.006-.14.02-.21l1.99-10.01H9.652zm22.386 11.054v-.726L30.17 3.122h-5.083l-1.868 9.396V27.586h8.818V13.244zM45.326 2.19h-13.09l1.99 10.01c.013.07.02.14.02.21v.834h17.69L45.325 2.19zm7.444 13.245H34.246V28.68c0 .606-.494 1.096-1.104 1.096H22.115c-.61 0-1.104-.49-1.104-1.095V15.436H2.21V49.81H52.77V15.436zM9.612 31.995h4.578c.61 0 1.104.49 1.104 1.096 0 .606-.495 1.096-1.104 1.096H9.612c-.61 0-1.104-.49-1.104-1.095 0-.604.494-1.094 1.104-1.094zm0 4.76h13.425c.61 0 1.104.49 1.104 1.095s-.493 1.095-1.103 1.095H9.612c-.61 0-1.104-.49-1.104-1.095s.494-1.095 1.104-1.095zm0 4.76h13.425c.61 0 1.104.49 1.104 1.094 0 .605-.493 1.094-1.103 1.094H9.612c-.61 0-1.104-.49-1.104-1.095 0-.606.494-1.095 1.104-1.095z"/></svg>
<svg preserveAspectRatio="xMidYMid" width="49.03" height="49" viewBox="0 0 49.03 49" id="edit" y="174"><path d="M49.023 2.567v31.64c.003.27-.034.55-.11.82l-3.427 11.95c-.077.268-.19.514-.337.73-.363.536-.905.845-1.488.845v-.66l-.002.66c-.836 0-1.552-.62-1.824-1.58l-3.424-11.94c-.076-.266-.115-.544-.115-.824V2.388c0-.567.157-1.12.447-1.55.364-.54.907-.85 1.49-.85l6.85-.003c.594.008 1.132.317 1.49.848.288.426.448.976.45 1.55v.184zm-6.098 41.067h1.473l2.42-8.44h-6.313l2.42 8.44zm4.032-41.68H40.37c-.062.108-.106.252-.105.43V33.225h6.79l.002-30.843c0-.19-.052-.344-.1-.426zM30.715 48.997H2.63c-1.442 0-2.617-1.176-2.617-2.62V2.606c0-1.445 1.175-2.62 2.618-2.62h21.232c.694 0 1.347.267 1.84.754l6.853 6.76c.496.49.78 1.17.78 1.867v37.01c0 1.444-1.175 2.62-2.62 2.62zM24.848 2.664l.006 5.718h5.792l-5.798-5.718zm6.52 7.687h-7.497c-.54 0-.982-.44-.982-.982l-.008-7.413H2.63c-.358 0-.65.292-.65.652v43.77c0 .36.292.652.65.652h28.085c.36 0 .654-.294.654-.654V10.35zm-7.505 27.82H8.715c-.544 0-.984-.44-.984-.983 0-.544.44-.984.985-.984h15.148c.543 0 .983.44.983.984 0 .543-.44.984-.983.984zm0-6.89H8.715c-.544 0-.984-.44-.984-.982 0-.544.44-.985.985-.985h15.148c.543 0 .983.44.983.985 0 .543-.44.983-.983.983zm0-6.888H8.715c-.544 0-.984-.44-.984-.984s.44-.984.985-.984h15.148c.543 0 .983.44.983.984 0 .543-.44.984-.983.984zm-9.584-6.89H8.714c-.544 0-.984-.44-.984-.984 0-.543.44-.984.985-.984h5.564c.542 0 .983.44.983.984s-.44.985-.984.985z"/></svg>
</svg>