<svg xmlns="http://www.w3.org/2000/svg" xmlns:xlink="http://www.w3.org/1999/xlink" width="497" height="198" viewBox="0 0 497 198"><svg width="497" height="120" viewBox="-10 -10 497 120" id="logo1" y="0"><title>Page 1</title><defs><path id="aaa" d="M0 2.556h476.424V102H0V2.556z"/><path id="aac" d="M0 2.556h476.424V102H0V2.556z"/></defs><g transform="translate(0 -2)" fill="none" fill-rule="evenodd"><path d="M181.956 29.268h-14.46v11.964h14.46V29.268zm-32.784 11.97h14.274V29.274h-14.274v11.964zm-3.87-15.456h18.138V15.516h4.056v10.266h18.33v21.486h-3.87v-2.544h-14.46v17.532h-4.056V44.724h-14.268v2.544h-3.87V25.782zM217.86 41.804l2.64-1.98c1.733 1.794 3.21 3.474 4.433 5.046l-2.784 2.112c-1.507-2.04-2.935-3.768-4.29-5.178zm-18.937 6.312h13.002v-9.33h-11.352v-3.198h11.352V29.27H199.68v-3.204h28.073v3.204H215.41v6.318h11.4v3.198h-11.4v9.33h13.1v3.204h-29.587v-3.204zm31.806-26.712h-33.973v34.914h33.972V21.404zm-37.603-3.348h41.226v43.956h-3.624V59.66h-33.98v2.4h-3.623V18.056zM270.775 49.954l2.778-2.358c4.962 4.59 8.844 8.424 11.634 11.496l-3.108 2.874c-3.2-3.798-6.973-7.806-11.305-12.012zm-7.914-7.116h10.17V29.836h-10.17v13.002zm10.17-26.76h3.87v10.368h6.74v3.39h-6.74v13.002h8.383v3.396H251.03v-3.396h7.96V29.836h-6.077v-3.39h6.078v-10.32h3.87v10.32h10.17V16.078zm-7.865 33.972c-3.708 4.524-7.566 8.556-11.586 12.108-.853-.978-1.813-1.884-2.88-2.736 3.99-3.012 7.727-6.888 11.213-11.634l3.252 2.262zm-27.138-11.73c4.932-6.63 8.814-14.184 11.634-22.668l3.775 1.368c-1.62 4.194-3.294 8.046-5.04 11.544v33.498h-3.768V35.416c-1.62 2.646-3.282 5.022-4.992 7.146-.45-1.29-.984-2.706-1.608-4.242zM322.45 25.27c2.23-2.42 4.397-5.095 6.503-8.01l3.114 2.357c-1.92 2.316-4.272 4.944-7.068 7.866l-2.55-2.214zm-13.897 22.373h18.804V41.8h-18.804v5.843zM327.35 32.62h-18.803v5.795h18.804V32.62zm-18.797 29.44h-3.444V29.086h10.793V15.7h3.63v13.385h11.262V56.41c0 3.64-1.716 5.465-5.142 5.465-1.758 0-4.254-.048-7.488-.144-.186-1.157-.408-2.447-.66-3.857 2.952.186 5.196.276 6.738.276 2.076 0 3.108-.877 3.108-2.635V51.04h-18.797v11.02zm-4.992-42.965l2.587-1.974c2.262 2.227 4.494 4.74 6.69 7.53l-2.964 2.407c-2.166-3.048-4.272-5.7-6.312-7.962zm-.33 32.55c0 1.386.08 2.694.235 3.918-2.01.972-4.35 2.262-7.02 3.858-.57.32-1.224.853-1.98 1.61l-2.496-3.253c1.007-.912 1.505-2.094 1.505-3.534V43.97h-6.312v-3.25h6.312v-6.355h-3.06v-3.252h12.012v3.252h-5.514v6.354h6.6v3.25h-6.6v11.215c2.298-1.23 4.404-2.406 6.318-3.54zm-16.487-21.432c3.048-4.362 5.478-9.216 7.302-14.562l3.528 1.183c-.846 2.106-1.752 4.128-2.73 6.078h8.718v3.247h-10.367c-1.38 2.55-2.868 4.968-4.476 7.26-.6-1.128-1.254-2.202-1.974-3.204zM359.72 33.326l2.124-2.124c2.004 1.536 3.99 3.144 5.934 4.806l-2.406 2.448c-1.914-1.884-3.798-3.594-5.652-5.13zm-.618 12.06l2.172-2.124c2.1 1.608 4.068 3.222 5.886 4.854l-2.448 2.454c-1.854-1.794-3.72-3.522-5.61-5.184zm14.61-14.748h-18.654l-1.158 8.574h19.602c.078-2.67.144-5.526.21-8.574zm-.306 11.874H353.48l-1.152 8.67h20.754c.12-2.574.234-5.472.324-8.67zm-27.96-3.3h4.83l1.668-11.772h25.398c-.096 4.362-.192 8.286-.282 11.772h4.944v3.3h-5.064c-.096 3.39-.186 6.282-.282 8.67h3.84v3.204h-4.056c-.264 2.31-.888 4.038-1.878 5.178-1.134 1.29-3.144 1.932-6.03 1.932-1.638 0-3.738-.06-6.318-.186-.156-1.068-.372-2.346-.654-3.816 3.042.282 5.382.426 7.02.426 2.364 0 3.78-1.182 4.236-3.534h-24.222V50.9l1.206-8.388h-4.356v-3.3zm-.378-10.266c3.894-3.678 7.032-8.19 9.42-13.524h4.008c-.756 1.632-1.548 3.186-2.382 4.662h24.9v3.3h-26.88c-2.028 3.156-4.248 5.934-6.666 8.334-.72-.942-1.524-1.866-2.4-2.772zm-8.292-10.272l2.4-2.496c1.89 1.44 4.506 3.624 7.872 6.54-1.068 1.038-1.992 1.974-2.778 2.784-3.396-3.234-5.892-5.514-7.494-6.828zm-.378 41.976c1.854-5.496 3.45-11.508 4.806-18.042 1.386.594 2.652 1.086 3.816 1.458-1.602 6.156-3.096 12.108-4.476 17.856l-4.146-1.272zm-1.41-29.448l2.358-2.688c2.886 2.016 5.568 4.038 8.052 6.084-1.128 1.29-2.046 2.292-2.736 3.012-2.796-2.508-5.352-4.65-7.674-6.408zM412.63 16.034h3.955V32.24l1.89-2.118c4.494 3.486 8.496 6.672 12.012 9.558l-2.688 3.486c-3.325-3.072-7.063-6.354-11.215-9.84v28.878h-3.954v-46.17zM382.854 40.01c4.68-7.122 8.196-15.246 10.554-24.354l3.864 1.08c-.755 2.544-1.535 4.998-2.35 7.356h13.09v3.486c-1.66 15.606-8.717 27.06-21.15 34.338-.66-1.032-1.475-2.148-2.447-3.342 6.09-3.612 10.77-8.136 14.04-13.566-2.202-1.854-4.668-3.738-7.404-5.652l2.405-2.88c2.67 1.95 4.95 3.666 6.828 5.142 1.956-4.056 3.21-8.706 3.774-13.95H393.55c-2.2 5.562-5.045 11.01-8.53 16.35-.625-1.29-1.345-2.622-2.167-4.008zM462.57 37.796l3.252-.936c1.446 4.524 2.844 9.264 4.194 14.226l-3.534 1.038c-.252-.948-.486-1.902-.708-2.88-3.33.222-6.312.492-8.946.804-1.38.156-2.784.408-4.194.756l-1.458-3.066c1.092-.69 1.914-1.632 2.448-2.82 1.728-4.182 3.354-9.21 4.896-15.078l3.582.84c-1.89 5.814-3.756 11.172-5.61 16.068 2.676-.156 5.496-.342 8.484-.564-.756-2.766-1.554-5.556-2.406-8.388zm-28.452-19.404h15.924V31.91c3.144-4.806 5.478-10.224 7.02-16.254l3.72.846c-.756 2.262-1.542 4.416-2.352 6.456h17.994c-.192 15.264-.378 25.428-.564 30.48-.282 5.088-2.892 7.638-7.824 7.638-2.7 0-5.574-.066-8.616-.192-.192-1.254-.444-2.544-.756-3.864 3.042.348 5.838.534 8.382.57 3.3-.036 5.046-1.668 5.232-4.908.216-5.334.378-14.094.468-26.28h-15.732c-1.164 2.73-2.37 5.226-3.624 7.488-.918-.6-2.028-1.182-3.348-1.74V47.6h-3.39V21.83h-9.144v26.052h-3.39v-29.49zm6.264 7.53h3.39v9.474c0 6.09-.42 10.818-1.272 14.184l1.368-1.272c3.204 3.33 6.018 6.36 8.436 9.09l-2.97 2.502c-2.232-2.862-4.68-5.766-7.35-8.724-1.128 3.582-3.846 7.248-8.148 10.986-.69-.984-1.524-1.938-2.502-2.88 3.678-2.73 6.114-5.652 7.308-8.766 1.158-2.694 1.74-7.284 1.74-13.752V25.922z" fill="#444344"/><mask id="aab" fill="#fff"><use xlink:href="#aaa"/></mask><path d="M10.072 90.01c-.918.307-2.622.09-2.622.09v-7.427h3.402v6.024c0 .708.078 1.032-.78 1.314zm-4.662.115H2.008s.078-5.304.078-6.012c0-.714.162-.852.972-1.26.81-.402 2.352 0 2.352 0v7.272zm7.494-8.832H7.618V80.16H5.572v1.157H2.008s-1.662.198-2.01 1.56v9.012H5.41v.995h2.13V91.83h3.462s1.842-.59 1.902-1.885c.066-1.296 0-8.652 0-8.652z" fill="#444344" mask="url(#aab)"/><path d="M17.37 84.375h2.682s.234 0 .234.234v1.427h-2.844v1.512h2.844v1.403H17.37v1.716h6.51s.93-.145 1.098-.44c.162-.293 0-1.565 0-1.565h-1.914s-.096.414-.348.378c-.258-.036-.438 0-.438 0V87.52h2.772v-1.555h-2.718v-1.59h2.79v-1.68H17.37v1.68zM14.922 80.3v12.745s8.538.024 10.272 0 2.64-1.974 2.64-1.974V80.3H14.922zM24.93 91.07h-7.746v-8.675h8.556v7.866c0 .74-.81.81-.81.81zM33.052 80.302v1.434c-.12.084-.354.732-.354.732v10.584H30.52v-8.37h-.768v-1.77c1.53-1.176 1.53-2.61 1.53-2.61h1.77z" fill="#444344"/><mask id="aad" fill="#fff"><use xlink:href="#aac"/></mask><path d="M39 86.676h-2.712v-3.174H39v3.174zm3.48-3.264v-1.704h-1.386v-1.404H39v1.404h-2.706v-1.404H34.35v1.344h-1.032v1.764h1.032v3.264h-1.296v1.716h9.426v-1.716h-1.296v-3.264h1.296zM34.495 88.627s.054 1.74-1.446 2.388v2.04s3.12-.744 3.767-4.428h-2.322zM38.833 88.627c.648 3.684 3.768 4.428 3.768 4.428v-2.04c-1.493-.648-1.445-2.388-1.445-2.388h-2.322zM47.282 80.27c0 .72.456.977.456.977h1.686v1.512h-2.7l-1.23 1.067h-1.29V82.08c1.152-.077 1.152-1.775 1.152-1.775l1.926-.036zM44.207 84.444v1.458h1.416v1.416h-1.416v1.698h1.416v2.43s-.066 1.392 1.194 1.458c1.254.066 2.25 0 2.25 0v-1.722h-1.08s-.288.222-.312-.552c-.024-.774 0-1.59 0-1.59h1.752v-1.704h-1.752v-1.368h1.752v-1.524h-5.22zM55.268 86.615h-2.886l-.48-.504.6-.61h2.784l.408.66-.426.455zm0 2.448h-2.886l-.48-.504.6-.62h2.784l.408.667-.426.456zm.45-5.412c1.944-.953 1.944-2.873 1.944-2.873H55.94c-.246.792-.972 1.632-.972 1.632v1.24h-.288v-3.623h-1.812v3.624h-.246v-1.457c-.792-.468-.924-1.506-.924-1.506h-1.572c-.18.228-.132.468-.132.468.288 1.386 1.326 2.316 1.614 2.34.288.018.132.222.132.222-.324.138-.708.282-.96.486-.438.348-.654.75-.654.75v7.98h1.812v-2.148h3.666v.42H54.17v1.728h2.34c.552-.126.954-.954.954-.954s.084-6.17 0-7.01c-.09-.833-1.746-1.32-1.746-1.32zM60.904 84.463h10.32c-2.232-.888-3.618-2.316-3.618-2.316h-3.204c-1.542 1.68-3.498 2.136-3.498 2.136v.18zm1.842-3.84h6.66s.678 1.59 3 2.43v1.5h-.978v1.728H60.472v-1.703h-.612v-1.68s2.088-.96 2.886-2.274zM69.335 90.62c0 .612-.57.702-.57.702H62.47v-2.7h6.865v1.998zm2.088-3.66H60.31v5.976h9.23s1.84-.408 1.883-1.836c.048-1.434 0-4.14 0-4.14zM80.398 80.16s-.474 1.434-2.1 2.862v1.992l1.362-.642h.432v8.562h2.106v-2.76h4.836v-1.482h-4.836V86.55h4.836v-1.614h-4.908v-1.65h4.908V81.66h-4.89s-.078-.402.072-.78c.156-.378.324-.72.324-.72h-2.142zm-2.1.156c-.432 1.53-1.332 2.454-1.332 2.454v10.164h-1.908V84.24s-.336.306-.552.438c-.216.138-.54.246-.54.246v-1.938c1.908-1.428 2.166-2.67 2.166-2.67h2.166zM95.315 92.924h6.78v-1.638h-2.118V84.44h2.118v-1.452h-2.19v-2.376h-2.028v2.364h-2.424v1.464h2.424v6.828h-2.562v1.656zm-6.522-11.292h2.064v-1.02h1.764v1.032h2.39v1.296c-.5.99-1.975 2.34-1.975 2.34v.21l.87.132 1.002 1.104v2.226c-.708-.324-2.148-1.71-2.148-1.71v6.084h-1.88v-5.91c-.395.276-2.087.876-2.087.876v-1.746c1.968-1.206 3.462-2.82 3.462-2.82v-.45l-3.462.036v-1.68zM26.81 99.728h1.325s-.402 2.082-3.162 2.268c-1.242.084-2.61-1.266-2.76-2.268-.12-.786-.096-2.73 1.278-3.438 1.375-.714 4.31-.396 4.567 1.83h-1.284s-.81-1.182-1.62-1.032c-.81.156-1.632.558-1.584 1.878.03.924.155 1.35 1.06 1.686.565.21 1.255.324 2.18-.924M56.532 99.728h1.326s-.402 2.082-3.162 2.268c-1.242.084-2.61-1.266-2.76-2.268-.12-.786-.096-2.73 1.278-3.438 1.374-.714 4.308-.396 4.566 1.83h-1.284s-.81-1.182-1.62-1.032c-.81.156-1.632.558-1.584 1.878.03.924.156 1.35 1.062 1.686.564.21 1.254.324 2.178-.924M28.81 96.086v5.61h1.417v-2.1h2.076v2.1h1.392v-5.61H32.32v2.1h-2.14v-2.1h-1.37zM36.174 101.694h-1.38v-5.676h1.38v5.676zM37.36 96.02v5.675h1.524v-2.982l1.854 2.982h1.746v-5.61h-1.41v3.138h-.288l-2.058-3.204H37.36zM46.123 98.096l-.678 1.5h1.434l-.757-1.5zm.756-2.076l2.495 5.676H47.72l-.487-1.038H44.96l-.445 1.038h-1.458l2.388-5.676h1.434zM61.51 95.885c-1.644 0-2.97 1.332-2.97 2.97 0 1.644 1.326 2.976 2.97 2.976 1.644 0 2.976-1.33 2.976-2.975 0-1.638-1.332-2.97-2.976-2.97m1.758 2.97c0 .972-.786 1.764-1.758 1.764s-1.758-.793-1.758-1.765c0-.966.786-1.758 1.758-1.758s1.758.792 1.758 1.758M70.993 95.885c-1.644 0-2.976 1.332-2.976 2.97 0 1.644 1.332 2.976 2.976 2.976s2.97-1.33 2.97-2.975c0-1.638-1.326-2.97-2.97-2.97m1.758 2.97c0 .972-.785 1.764-1.757 1.764-.972 0-1.758-.793-1.758-1.765 0-.966.786-1.758 1.758-1.758s1.758.792 1.758 1.758M67.542 99.528H65.01v-1.326h2.532v1.326zM76.193 97.082v1.776H77.5s.715-.138.715-.888-.714-.888-.714-.888h-1.307zm2.28-.96s1.284.312 1.284 1.758c0 1.62-1.284 1.71-1.284 1.71H76.17v2.124h-1.393v-5.592h3.696z" fill="#444344" mask="url(#aad)"/><path d="M30.96 25.788h13.602v28.194H30.96V25.788zM57.834 25.788h13.602v28.194H57.834V25.788z" fill="#FFF000" mask="url(#aad)"/><path d="M36.9 19.848h28.584V33.45H36.9V19.848zM36.9 46.326h28.584v13.602H36.9V46.326z" fill="#FFF000" mask="url(#aad)"/><path d="M51.196 39.765c-.066 0-.12.054-.12.12 0 .072.054.126.12.126s.12-.053.12-.125c0-.066-.054-.12-.12-.12m0 12.852c-7.02 0-12.726-5.712-12.726-12.732 0-7.014 5.706-12.726 12.726-12.726 7.02 0 12.726 5.71 12.726 12.725 0 7.02-5.706 12.732-12.726 12.732M50.97 77.133c-1.308 0-2.496-.444-3.432-1.29-.78-.702-8.004-8.202-11.07-11.394l-1.038-1.075-.03-1.494c-.018-1.013.09-4.487 2.394-6.545 1.242-1.11 2.922-1.668 4.992-1.668.954 0 1.698.12 1.842.15l1.134.198 5.376 5.13 4.686-4.674.498-.263c.342-.186 1.596-.78 3.306-.78 1.866 0 3.63.696 5.094 2.01 3 2.7 2.718 6.6 1.182 9.084l-.144.235-.174.204c-1.332 1.595-9.198 9.263-10.764 10.787l-.39.378-.486.258c-.426.228-1.566.75-2.976.75M59.628 26.265c-1.71 0-2.964-.6-3.306-.78l-.498-.27-4.686-4.668-5.376 5.124-1.134.205c-.138.024-.888.15-1.842.15-2.07 0-3.75-.564-4.992-1.668-2.304-2.064-2.412-5.532-2.394-6.546l.03-1.493 1.038-1.08c3.066-3.192 10.29-10.686 11.07-11.394.936-.84 2.124-1.284 3.432-1.284 1.41 0 2.55.52 2.976.75l.486.25.39.385c1.566 1.524 9.432 9.186 10.764 10.788l.174.204.144.228c1.536 2.484 1.818 6.39-1.182 9.09-1.464 1.314-3.228 2.01-5.094 2.01M73.11 55.656c-1.283 0-4.475-.234-6.407-2.4C64.58 50.88 65 47.43 65.18 46.428l.203-1.134 5.124-5.376-4.668-4.686-.27-.498c-.877-1.638-1.597-5.25 1.23-8.4 1.33-1.482 3.143-2.298 5.1-2.298 2.02 0 3.563.852 3.99 1.116l.227.144.21.174c1.596 1.332 9.264 9.198 10.782 10.764l.383.39.252.486c.894 1.686 1.29 4.38-.534 6.408-.7.78-8.2 7.998-11.393 11.07l-1.068 1.026-1.507.042h-.132zM29.177 55.655l-1.482-.042-1.092-1.026C23.41 51.52 15.91 44.297 15.21 43.517c-1.825-2.028-1.43-4.722-.535-6.408l.252-.487.384-.39c1.52-1.566 9.187-9.432 10.79-10.764l.203-.175.228-.144c.427-.257 1.97-1.115 3.99-1.115 1.957 0 3.77.816 5.1 2.298 2.833 3.15 2.107 6.762 1.23 8.4l-.27.498-4.667 4.687 5.124 5.376.204 1.134c.18 1.002.6 4.458-1.523 6.834-1.926 2.16-5.124 2.395-6.408 2.395h-.133z" fill="#FFF000" mask="url(#aad)"/><path d="M39.69 50.922h-6.51V28.434h6.51v22.488zM69.12 50.922h-6.51V28.434h6.51v22.488zM62.61 28.428H39.69v-6.51h22.92v6.51zM62.61 57.432H39.69v-6.51h22.92v6.51zM51.152 29.93c-5.382 0-9.744 4.36-9.744 9.743 0 5.388 4.362 9.75 9.744 9.75s9.744-4.362 9.744-9.75c0-5.382-4.362-9.744-9.744-9.744m4.326 9.743c0 2.394-1.938 4.326-4.326 4.326s-4.326-1.933-4.326-4.327c0-2.388 1.938-4.326 4.326-4.326s4.326 1.938 4.326 4.326M63.16 59.817c-2.184-1.962-4.422-.768-4.422-.768l-7.584 7.565-7.932-7.566s-2.67-.475-3.954.67c-1.278 1.14-1.218 3.95-1.218 3.95s11.064 11.513 11.898 12.263c.84.75 2.256 0 2.256 0s10.098-9.816 11.484-11.484c0 0 1.656-2.67-.528-4.633M63.16 19.44c-2.184 1.962-4.422.768-4.422.768l-7.584-7.566-7.932 7.566s-2.67.474-3.954-.672c-1.278-1.14-1.218-3.948-1.218-3.948S49.114 4.074 49.948 3.324c.84-.75 2.256 0 2.256 0s10.098 9.816 11.484 11.484c0 0 1.656 2.67-.528 4.632M71.357 27.637c-1.962 2.178-.768 4.416-.768 4.416l7.565 7.59-7.566 7.932s-.475 2.67.67 3.948c1.14 1.284 3.95 1.224 3.95 1.224s11.513-11.07 12.263-11.904c.75-.834 0-2.25 0-2.25s-9.816-10.098-11.484-11.49c0 0-2.67-1.65-4.633.534M30.98 27.637c1.962 2.178.768 4.416.768 4.416l-7.566 7.59 7.566 7.932s.474 2.67-.672 3.948c-1.14 1.284-3.948 1.224-3.948 1.224s-11.514-11.07-12.264-11.904c-.75-.834 0-2.25 0-2.25s9.816-10.098 11.484-11.49c0 0 2.67-1.65 4.632.534" fill="#094" mask="url(#aad)"/><path d="M158.51 81.144l-1.375.858c-1.188-1.578-2.802-2.37-4.86-2.37-1.638 0-3 .534-4.086 1.59-1.08 1.05-1.627 2.334-1.627 3.84 0 .984.252 1.908.75 2.772.498.87 1.182 1.536 2.052 2.016.87.48 1.842.72 2.922.72 1.98 0 3.6-.792 4.848-2.364l1.374.9c-.643.972-1.507 1.722-2.593 2.256-1.086.54-2.322.804-3.708.804-2.13 0-3.895-.672-5.305-2.028-1.398-1.356-2.1-3.006-2.1-4.944 0-1.302.33-2.514.984-3.636.653-1.116 1.56-1.992 2.705-2.616 1.14-.63 2.43-.936 3.852-.936.888 0 1.752.132 2.58.402.828.276 1.53.624 2.112 1.068.575.438 1.067.996 1.47 1.668M170.75 79.697c-1.44 0-2.676.534-3.714 1.602-1.038 1.055-1.554 2.345-1.554 3.857 0 .972.234 1.884.708 2.724.468.847 1.11 1.495 1.914 1.95.798.463 1.686.69 2.646.69s1.848-.227 2.646-.69c.804-.455 1.446-1.103 1.914-1.95.474-.84.708-1.75.708-2.723 0-1.512-.522-2.802-1.56-3.858-1.038-1.07-2.274-1.603-3.708-1.603m.006-1.692c2.076 0 3.798.75 5.16 2.25 1.236 1.368 1.86 2.994 1.86 4.866 0 1.885-.654 3.53-1.962 4.94-1.314 1.403-3 2.105-5.058 2.105-2.07 0-3.756-.702-5.07-2.106-1.308-1.41-1.962-3.055-1.962-4.94 0-1.865.624-3.485 1.86-4.853 1.362-1.512 3.084-2.262 5.172-2.262M189.892 79.697c-1.44 0-2.676.534-3.714 1.602-1.038 1.055-1.554 2.345-1.554 3.857 0 .972.234 1.884.708 2.724.468.847 1.11 1.495 1.914 1.95.798.463 1.686.69 2.646.69s1.848-.227 2.646-.69c.804-.455 1.446-1.103 1.914-1.95.474-.84.708-1.75.708-2.723 0-1.512-.522-2.802-1.56-3.858-1.038-1.07-2.274-1.603-3.708-1.603m.006-1.692c2.076 0 3.798.75 5.16 2.25 1.236 1.368 1.86 2.994 1.86 4.866 0 1.885-.654 3.53-1.962 4.94-1.314 1.403-3 2.105-5.058 2.105-2.07 0-3.756-.702-5.07-2.106-1.308-1.41-1.962-3.055-1.962-4.94 0-1.865.624-3.485 1.86-4.853 1.362-1.512 3.084-2.262 5.172-2.262M209.62 79.673c-1.493 0-2.76.522-3.785 1.572-1.026 1.05-1.536 2.346-1.536 3.906 0 1.02.227 1.94.69 2.76.455.817 1.103 1.46 1.96 1.94.847.48 1.753.72 2.7.72.925 0 1.807-.247 2.623-.727.816-.48 1.47-1.152 1.962-2.022.486-.863.726-1.775.726-2.717 0-.96-.24-1.866-.72-2.724-.485-.853-1.133-1.525-1.95-2-.81-.473-1.703-.707-2.67-.707zm-6.93-1.326h1.735v2.472c.684-.937 1.47-1.645 2.358-2.113.894-.468 1.89-.702 2.982-.702 1.914 0 3.552.684 4.914 2.058 1.355 1.386 2.04 3.042 2.04 4.986 0 1.98-.68 3.66-2.023 5.04-1.35 1.385-2.976 2.075-4.884 2.075-1.068 0-2.058-.222-2.952-.666-.9-.45-1.71-1.11-2.435-1.993v7.242h-1.734V78.346zM228.87 79.697c-1.44 0-2.677.534-3.715 1.602-1.038 1.055-1.554 2.345-1.554 3.857 0 .972.235 1.884.71 2.724.467.847 1.11 1.495 1.913 1.95.798.463 1.686.69 2.646.69s1.847-.227 2.645-.69c.804-.455 1.446-1.103 1.914-1.95.473-.84.707-1.75.707-2.723 0-1.512-.522-2.802-1.56-3.858-1.038-1.07-2.274-1.603-3.708-1.603m.005-1.692c2.076 0 3.798.75 5.16 2.25 1.236 1.368 1.86 2.994 1.86 4.866 0 1.885-.654 3.53-1.962 4.94-1.314 1.403-3 2.105-5.058 2.105-2.07 0-3.756-.702-5.07-2.106-1.308-1.41-1.962-3.055-1.962-4.94 0-1.865.624-3.485 1.86-4.853 1.362-1.512 3.084-2.262 5.172-2.262M240.36 78.35h1.847l4.524 9.82 4.465-9.82h1.854l-6.163 13.47h-.324l-6.204-13.47zM269.568 83.722c-.228-.924-.564-1.662-1.008-2.214-.438-.558-1.026-1.002-1.752-1.344-.732-.33-1.494-.504-2.298-.504-1.32 0-2.454.426-3.408 1.272-.69.624-1.218 1.554-1.572 2.79h10.038zm0 3.624l1.464.768c-.48.948-1.032 1.704-1.662 2.28-.63.582-1.332 1.02-2.118 1.32-.786.3-1.674.45-2.664.45-2.196 0-3.912-.72-5.154-2.16-1.242-1.434-1.86-3.066-1.86-4.884 0-1.71.522-3.234 1.572-4.566 1.326-1.704 3.108-2.55 5.34-2.55 2.298 0 4.134.864 5.502 2.604.978 1.236 1.47 2.766 1.488 4.614h-12.12c.036 1.566.534 2.85 1.5 3.846.966 1.002 2.16 1.506 3.588 1.506.684 0 1.344-.126 1.998-.366.648-.234 1.2-.552 1.656-.948.45-.396.942-1.032 1.47-1.914zM276.587 78.35h1.77v1.967c.528-.78 1.086-1.356 1.668-1.74.588-.384 1.194-.576 1.836-.576.48 0 .99.157 1.537.463l-.906 1.458c-.36-.16-.665-.233-.917-.233-.576 0-1.128.234-1.668.708s-.942 1.212-1.224 2.214c-.22.767-.323 2.32-.323 4.65v4.56h-1.77V78.35zM294.183 79.82l-1.122 1.152c-.923-.9-1.823-1.35-2.717-1.35-.558 0-1.038.186-1.44.558-.402.372-.6.804-.6 1.296 0 .444.162.858.498 1.254.325.408 1.02.882 2.077 1.428 1.296.666 2.172 1.308 2.634 1.932.457.624.685 1.332.685 2.112 0 1.11-.39 2.046-1.164 2.814-.78.768-1.75 1.152-2.92 1.152-.775 0-1.52-.174-2.22-.504-.71-.342-1.297-.81-1.76-1.404l1.093-1.242c.882 1.002 1.824 1.5 2.82 1.5.69 0 1.278-.222 1.77-.666.492-.444.738-.972.738-1.572 0-.498-.167-.936-.49-1.332-.32-.372-1.045-.852-2.185-1.434-1.212-.624-2.04-1.242-2.478-1.854-.438-.612-.654-1.308-.654-2.094 0-1.026.342-1.872 1.044-2.55.702-.678 1.578-1.014 2.646-1.014 1.242 0 2.49.606 3.75 1.818M311.13 83.722c-.23-.924-.565-1.662-1.01-2.214-.437-.558-1.025-1.002-1.75-1.344-.733-.33-1.495-.504-2.3-.504-1.32 0-2.453.426-3.407 1.272-.69.624-1.218 1.554-1.572 2.79h10.04zm0 3.624l1.463.768c-.48.948-1.032 1.704-1.662 2.28-.63.582-1.33 1.02-2.117 1.32-.786.3-1.674.45-2.664.45-2.197 0-3.913-.72-5.155-2.16-1.242-1.434-1.86-3.066-1.86-4.884 0-1.71.522-3.234 1.572-4.566 1.326-1.704 3.108-2.55 5.34-2.55 2.298 0 4.134.864 5.502 2.604.977 1.236 1.47 2.766 1.487 4.614h-12.12c.036 1.566.534 2.85 1.5 3.846.966 1.002 2.16 1.506 3.588 1.506.684 0 1.344-.126 1.998-.366.648-.234 1.2-.552 1.656-.948.45-.396.94-1.032 1.47-1.914zM325.303 79.673c-.966 0-1.86.234-2.67.708-.816.475-1.464 1.147-1.95 2-.486.857-.726 1.763-.726 2.723 0 .942.246 1.854.732 2.718.49.87 1.14 1.543 1.96 2.023.817.48 1.705.726 2.64.726.95 0 1.85-.24 2.695-.72.852-.48 1.506-1.123 1.962-1.94.462-.82.69-1.74.69-2.76 0-1.56-.516-2.855-1.542-3.905-1.026-1.05-2.292-1.572-3.792-1.572zm6.93-1.326v13.47h-1.71v-2.31c-.726.882-1.542 1.542-2.442 1.992-.905.443-1.9.665-2.97.665-1.907 0-3.533-.69-4.883-2.076-1.35-1.38-2.028-3.06-2.028-5.04 0-1.945.683-3.6 2.045-4.987 1.362-1.374 3-2.058 4.92-2.058 1.104 0 2.1.234 3 .702.894.468 1.68 1.176 2.358 2.112v-2.473h1.71zM345.44 79.82l-1.12 1.152c-.925-.9-1.825-1.35-2.72-1.35-.557 0-1.037.186-1.44.558-.4.372-.6.804-.6 1.296 0 .444.163.858.5 1.254.323.408 1.02.882 2.075 1.428 1.296.666 2.172 1.308 2.634 1.932.455.624.683 1.332.683 2.112 0 1.11-.39 2.046-1.164 2.814-.78.768-1.753 1.152-2.923 1.152-.774 0-1.518-.174-2.22-.504-.708-.342-1.296-.81-1.758-1.404l1.09-1.242c.883 1.002 1.825 1.5 2.82 1.5.69 0 1.28-.222 1.77-.666.493-.444.74-.972.74-1.572 0-.498-.17-.936-.493-1.332-.318-.372-1.044-.852-2.184-1.434-1.212-.624-2.04-1.242-2.478-1.854-.438-.612-.654-1.308-.654-2.094 0-1.026.343-1.872 1.045-2.55.702-.678 1.578-1.014 2.646-1.014 1.243 0 2.49.606 3.75 1.818M358.09 90.496c.967 0 1.855-.24 2.67-.714.817-.474 1.46-1.14 1.95-1.998.48-.858.72-1.764.72-2.724 0-.954-.24-1.872-.725-2.736-.492-.87-1.146-1.542-1.968-2.022-.81-.486-1.692-.726-2.622-.726-.942 0-1.848.24-2.694.726-.857.48-1.51 1.128-1.967 1.944-.462.822-.69 1.74-.69 2.766 0 1.56.516 2.862 1.542 3.906 1.026 1.05 2.286 1.578 3.786 1.578zm-6.93 1.326V73.144h1.735v7.518c.72-.888 1.536-1.554 2.43-1.998.9-.444 1.89-.66 2.958-.66 1.908 0 3.534.69 4.884 2.076 1.344 1.38 2.022 3.054 2.022 5.034 0 1.944-.685 3.606-2.04 4.986-1.37 1.38-3 2.064-4.915 2.064-1.098 0-2.088-.234-2.982-.702-.888-.474-1.68-1.176-2.358-2.118v2.478h-1.734zM370.66 78.35h1.734v6.287c0 1.536.084 2.592.246 3.168.246.828.72 1.476 1.416 1.956.702.48 1.536.72 2.502.72.972 0 1.788-.233 2.466-.7.672-.463 1.134-1.075 1.392-1.83.168-.523.258-1.627.258-3.313V78.35h1.776v6.61c0 1.855-.216 3.26-.654 4.2-.432.937-1.086 1.675-1.956 2.21-.87.533-1.962.797-3.276.797-1.308 0-2.406-.264-3.282-.798-.882-.535-1.536-1.28-1.974-2.233-.432-.948-.648-2.388-.648-4.302V78.35zM387.383 78.35h1.836l4.625 10.373 4.5-10.374h1.848l-8.04 18.395h-1.83l2.592-5.946-5.532-12.45zM406.87 89.095c.42 0 .78.144 1.08.444.295.3.445.665.445 1.09 0 .42-.15.787-.444 1.087-.3.294-.66.45-1.08.45-.42 0-.78-.156-1.08-.45-.293-.3-.443-.666-.443-1.086 0-.425.15-.79.444-1.09.3-.3.66-.445 1.08-.445M427.595 81.144l-1.374.858c-1.187-1.578-2.8-2.37-4.86-2.37-1.637 0-3 .534-4.085 1.59-1.08 1.05-1.626 2.334-1.626 3.84 0 .984.25 1.908.75 2.772.497.87 1.18 1.536 2.05 2.016.87.48 1.843.72 2.923.72 1.98 0 3.6-.792 4.848-2.364l1.375.9c-.642.972-1.506 1.722-2.592 2.256-1.086.54-2.322.804-3.708.804-2.13 0-3.894-.672-5.304-2.028-1.397-1.356-2.1-3.006-2.1-4.944 0-1.302.33-2.514.985-3.636.654-1.116 1.56-1.992 2.706-2.616 1.14-.63 2.43-.936 3.853-.936.888 0 1.752.132 2.58.402.828.276 1.53.624 2.112 1.068.576.438 1.068.996 1.47 1.668M439.835 79.697c-1.44 0-2.676.534-3.714 1.602-1.037 1.055-1.553 2.345-1.553 3.857 0 .972.234 1.884.708 2.724.468.847 1.11 1.495 1.914 1.95.797.463 1.685.69 2.645.69s1.848-.227 2.646-.69c.805-.455 1.447-1.103 1.915-1.95.474-.84.708-1.75.708-2.723 0-1.512-.522-2.802-1.56-3.858-1.038-1.07-2.274-1.603-3.708-1.603m.006-1.692c2.077 0 3.8.75 5.16 2.25 1.237 1.368 1.86 2.994 1.86 4.866 0 1.885-.653 3.53-1.96 4.94-1.315 1.403-3 2.105-5.06 2.105-2.07 0-3.755-.702-5.07-2.106-1.307-1.41-1.96-3.055-1.96-4.94 0-1.865.623-3.485 1.86-4.853 1.36-1.512 3.083-2.262 5.17-2.262M452.597 78.35h1.728v2.327c.606-.864 1.224-1.488 1.866-1.884.87-.528 1.795-.792 2.767-.792.648 0 1.266.127 1.854.385.59.258 1.07.594 1.435 1.02.378.426.702 1.038.972 1.824.576-1.05 1.296-1.855 2.16-2.407.864-.552 1.8-.822 2.796-.822.93 0 1.752.235 2.46.71.714.467 1.242 1.12 1.59 1.967.342.84.516 2.1.516 3.792v7.35h-1.765v-7.35c0-1.453-.108-2.443-.312-2.99-.204-.533-.558-.97-1.056-1.3-.498-.33-1.092-.493-1.782-.493-.846 0-1.608.246-2.304.744-.695.493-1.205 1.153-1.523 1.98-.318.823-.48 2.203-.48 4.135v5.274h-1.734v-6.895c0-1.632-.102-2.73-.306-3.312-.204-.588-.552-1.05-1.056-1.398-.503-.354-1.103-.528-1.793-.528-.804 0-1.554.24-2.25.726-.696.48-1.212 1.128-1.548 1.944-.337.822-.505 2.07-.505 3.756v5.706h-1.728V78.35z" fill="#939394" mask="url(#aad)"/><path d="M117.784 17.79v75.875" stroke="#CBCCCC" stroke-width=".25" mask="url(#aad)"/></g></svg>
<svg width="349" height="78" viewBox="-10 -10 349 78" id="logo2" y="120"><title>Page 1</title><defs><path id="aba" d="M0 2.617h328.662v56.966H0V2.617z"/><path id="abc" d="M0 2.617h328.662v56.966H0V2.617z"/></defs><g transform="translate(0 -2)" fill="none" fill-rule="evenodd"><path d="M103.725 23.022H92.68v9.14h11.045v-9.14zm-25.047 9.14H89.58v-9.14H78.678v9.14zm-2.952-11.803H89.58V12.51h3.1v7.847h14.002V36.77h-2.957v-1.948H92.68v13.393h-3.1V34.824H78.678v1.948h-2.95V20.36zM131.15 32.597l2.017-1.513c1.325 1.37 2.452 2.654 3.387 3.855l-2.126 1.612c-1.15-1.558-2.24-2.878-3.277-3.955zm-14.464 4.82h9.932v-7.126h-8.672V27.85h8.672v-4.826h-9.355v-2.447h21.446v2.447h-9.43v4.826h8.71v2.443h-8.71v7.128h10.006v2.448h-22.6v-2.448zm24.296-20.404h-25.95v26.67h25.95v-26.67zm-28.724-2.557h31.492v33.577h-2.768v-1.796h-25.955v1.833h-2.77V14.456zM171.573 38.823l2.122-1.802c3.79 3.508 6.756 6.436 8.887 8.783L180.208 48c-2.443-2.903-5.326-5.964-8.635-9.177zm-6.045-5.436h7.768v-9.932h-7.768v9.932zm7.768-20.442h2.957v7.92h5.147v2.59h-5.147v9.932h6.402v2.594H156.49v-2.593h6.08v-9.932h-4.642v-2.59h4.643v-7.883h2.958v7.883h7.768v-7.92zm-6.008 25.95c-2.833 3.457-5.78 6.537-8.85 9.25-.652-.747-1.385-1.44-2.2-2.09 3.047-2.3 5.902-5.26 8.565-8.887l2.485 1.728zm-20.73-8.96c3.767-5.064 6.732-10.834 8.886-17.315l2.883 1.045c-1.237 3.204-2.516 6.146-3.85 8.818v25.59H151.6V27.716c-1.24 2.02-2.508 3.837-3.815 5.46-.343-.986-.75-2.068-1.228-3.24zM211.046 19.965c1.705-1.847 3.36-3.89 4.968-6.118l2.38 1.8c-1.468 1.77-3.264 3.778-5.4 6.01l-1.948-1.692zM200.43 37.057h14.365v-4.464H200.43v4.464zm14.36-11.477h-14.364v4.428h14.365V25.58zm-14.36 22.49h-2.63V22.88h8.246V12.655h2.773V22.88h8.6v20.873c0 2.782-1.31 4.175-3.926 4.175-1.343 0-3.25-.036-5.72-.11-.143-.884-.312-1.87-.505-2.947 2.254.143 3.968.212 5.146.212 1.586 0 2.375-.67 2.375-2.012v-3.42h-14.36v8.42zm-3.812-32.82l1.975-1.51c1.728 1.702 3.433 3.622 5.11 5.753l-2.264 1.838c-1.655-2.327-3.264-4.353-4.822-6.08zm-.252 24.864c0 1.06.06 2.058.178 2.993-1.535.742-3.323 1.728-5.362 2.947-.436.243-.935.65-1.513 1.228l-1.907-2.484c.77-.697 1.15-1.6 1.15-2.7v-7.846h-4.822v-2.484h4.823v-4.854h-2.337V24.43h9.175v2.484h-4.21v4.854h5.04v2.484h-5.04v8.566c1.755-.94 3.364-1.838 4.826-2.704zM183.77 23.742c2.33-3.332 4.185-7.04 5.578-11.124l2.695.903c-.646 1.61-1.338 3.155-2.085 4.644h6.66v2.48h-7.92c-1.055 1.948-2.19 3.795-3.42 5.546-.458-.862-.957-1.682-1.507-2.448zM239.517 26.12l1.623-1.623c1.53 1.174 3.048 2.402 4.533 3.672l-1.838 1.87c-1.462-1.44-2.902-2.747-4.318-3.92zm-.472 9.212l1.66-1.622c1.603 1.228 3.107 2.46 4.496 3.708l-1.87 1.874c-1.416-1.37-2.84-2.69-4.285-3.96zm11.16-11.265h-14.25l-.884 6.55h14.975c.06-2.04.11-4.222.16-6.55zm-.233 9.07h-15.22l-.88 6.623h15.852c.092-1.966.18-4.18.248-6.623zm-21.36-2.52h3.69l1.275-8.993h19.4c-.072 3.332-.145 6.33-.214 8.992h3.777v2.52h-3.87c-.072 2.59-.14 4.8-.214 6.624h2.933v2.447h-3.1c-.2 1.765-.677 3.085-1.434 3.956-.866.985-2.4 1.476-4.606 1.476-1.25 0-2.855-.047-4.826-.143-.12-.816-.284-1.792-.5-2.915 2.324.215 4.112.325 5.363.325 1.806 0 2.887-.903 3.236-2.7H231.02v-2.662l.92-6.408h-3.327v-2.52zm-.287-7.843c2.974-2.81 5.37-6.256 7.196-10.33h3.062c-.577 1.246-1.182 2.433-1.82 3.56h19.02v2.52H235.25c-1.55 2.412-3.245 4.534-5.092 6.368-.55-.72-1.164-1.426-1.833-2.118zm-6.334-7.847l1.834-1.906c1.444 1.1 3.442 2.77 6.013 4.997-.816.793-1.52 1.508-2.122 2.126-2.594-2.47-4.5-4.212-5.724-5.216zm-.288 32.065c1.416-4.198 2.635-8.79 3.67-13.782 1.06.454 2.027.83 2.916 1.114-1.224 4.703-2.365 9.25-3.42 13.64l-3.166-.972zm-1.077-22.495l1.8-2.053c2.206 1.54 4.254 3.085 6.152 4.648-.862.985-1.563 1.75-2.09 2.3-2.136-1.915-4.09-3.552-5.862-4.895zM279.934 12.912h3.02v12.38l1.445-1.62c3.432 2.664 6.49 5.098 9.174 7.303l-2.053 2.663c-2.538-2.347-5.393-4.854-8.565-7.517v22.06h-3.02V12.912zm-22.747 18.315c3.575-5.44 6.26-11.647 8.062-18.604l2.95.825c-.576 1.943-1.172 3.818-1.796 5.62h10v2.662c-1.268 11.92-6.658 20.67-16.155 26.23-.505-.788-1.128-1.64-1.87-2.552 4.65-2.76 8.226-6.215 10.724-10.363-1.682-1.417-3.566-2.856-5.656-4.318l1.838-2.2c2.04 1.49 3.78 2.8 5.216 3.928 1.494-3.098 2.452-6.65 2.883-10.656h-8.026c-1.683 4.248-3.855 8.41-6.518 12.488-.477-.985-1.027-2.003-1.655-3.06z" fill="#444344"/><mask id="abb" fill="#fff"><use xlink:href="#aba"/></mask><path d="M318.083 29.535l2.484-.715c1.105 3.456 2.173 7.077 3.204 10.867l-2.7.793c-.19-.724-.37-1.453-.54-2.2-2.543.17-4.82.376-6.833.614-1.055.12-2.127.312-3.204.578l-1.114-2.342c.833-.528 1.46-1.247 1.87-2.155 1.32-3.194 2.56-7.035 3.74-11.518l2.735.642c-1.443 4.44-2.87 8.533-4.285 12.273 2.044-.12 4.198-.26 6.48-.43-.577-2.113-1.186-4.245-1.837-6.408zM296.35 14.713h12.163v10.326c2.402-3.672 4.184-7.81 5.362-12.417l2.842.646c-.577 1.727-1.178 3.372-1.797 4.93h13.746c-.147 11.66-.29 19.425-.43 23.284-.216 3.886-2.21 5.834-5.978 5.834-2.062 0-4.258-.05-6.58-.146-.148-.958-.34-1.944-.58-2.952 2.325.266 4.46.408 6.404.435 2.52-.027 3.855-1.274 3.997-3.75.164-4.073.287-10.765.356-20.074H313.84c-.89 2.087-1.812 3.993-2.77 5.72-.7-.457-1.55-.902-2.557-1.328v11.802h-2.59V17.34h-6.985v19.9h-2.59V14.712zm4.784 5.752h2.59v7.237c0 4.652-.322 8.263-.972 10.835l1.045-.972c2.447 2.544 4.597 4.858 6.444 6.944l-2.268 1.91c-1.705-2.186-3.575-4.405-5.615-6.664-.86 2.736-2.937 5.536-6.224 8.392-.527-.752-1.164-1.48-1.91-2.2 2.81-2.086 4.67-4.318 5.582-6.696.884-2.058 1.33-5.565 1.33-10.505v-8.282z" fill="#444344" mask="url(#abb)"/><mask id="abd" fill="#fff"><use xlink:href="#abc"/></mask><path d="M13.017 20.364h10.39V41.9h-10.39V20.365zM33.545 20.364h10.39V41.9h-10.39V20.365z" fill="#FFF000" mask="url(#abd)"/><path d="M17.554 15.822H39.39v10.39H17.553v-10.39zM17.554 36.053H39.39v10.39H17.553v-10.39z" fill="#FFF000" mask="url(#abd)"/><path d="M28.474 31.038c-.05 0-.092.042-.092.092 0 .055.042.096.092.096.05 0 .092-.04.092-.096 0-.05-.042-.092-.092-.092m0 9.818c-5.363 0-9.72-4.364-9.72-9.726 0-5.358 4.357-9.72 9.72-9.72 5.362 0 9.72 4.362 9.72 9.72 0 5.363-4.358 9.726-9.72 9.726M28.302 59.583c-1 0-1.907-.34-2.622-.985-.596-.536-6.114-6.265-8.456-8.704l-.793-.82-.022-1.142c-.014-.774.07-3.428 1.83-5 .947-.848 2.23-1.274 3.812-1.274.73 0 1.297.092 1.407.114l.866.152 4.107 3.92 3.58-3.572.38-.202c.26-.142 1.22-.595 2.525-.595 1.426 0 2.773.53 3.892 1.535 2.29 2.063 2.076 5.042.903 6.94l-.11.178-.133.156c-1.018 1.22-7.027 7.076-8.223 8.24l-.298.29-.37.196c-.326.175-1.197.573-2.274.573M34.915 20.726c-1.306 0-2.264-.46-2.525-.596l-.38-.206-3.58-3.566-4.107 3.914-.866.156c-.105.018-.678.114-1.407.114-1.58 0-2.865-.43-3.813-1.274-1.76-1.576-1.843-4.226-1.83-5l.024-1.14.794-.826c2.342-2.44 7.86-8.168 8.456-8.704.715-.642 1.622-.98 2.622-.98 1.077 0 1.948.398 2.273.572l.37.192.3.294c1.195 1.164 7.204 7.017 8.222 8.236l.133.16.11.175c1.173 1.897 1.388 4.88-.903 6.943-1.12 1.004-2.466 1.536-3.892 1.536M45.215 43.177c-.98 0-3.42-.178-4.895-1.833-1.622-1.815-1.302-4.45-1.164-5.216l.156-.866 3.914-4.107-3.566-3.58-.206-.38c-.67-1.25-1.22-4.01.94-6.416 1.017-1.134 2.4-1.757 3.895-1.757 1.544 0 2.722.65 3.047.853l.174.11.162.133c1.22 1.016 7.076 7.025 8.236 8.22l.293.3.194.37c.683 1.288.985 3.346-.408 4.895-.536.596-6.266 6.11-8.704 8.456l-.816.785-1.15.032h-.1zM11.654 43.176l-1.132-.032-.834-.783C7.248 40.02 1.52 34.5.984 33.905c-1.393-1.55-1.09-3.607-.408-4.895l.193-.372.292-.298c1.16-1.196 7.017-7.205 8.24-8.222l.157-.133.173-.11c.325-.197 1.503-.853 3.048-.853 1.495 0 2.88.624 3.897 1.756 2.163 2.406 1.608 5.165.94 6.416l-.207.38-3.566 3.58 3.914 4.107.156.867c.138.766.458 3.406-1.164 5.22-1.47 1.65-3.914 1.83-4.895 1.83h-.1z" fill="#FFF000" mask="url(#abd)"/><path d="M19.685 39.56h-4.972V22.38h4.972v17.18zM42.167 39.56h-4.973V22.38h4.973v17.18zM37.194 22.38h-17.51v-4.973h17.51v4.973zM37.194 44.532h-17.51V39.56h17.51v4.972zM28.44 23.524c-4.11 0-7.442 3.332-7.442 7.444 0 4.116 3.332 7.448 7.443 7.448 4.112 0 7.444-3.332 7.444-7.448 0-4.11-3.332-7.444-7.443-7.444m3.306 7.444c0 1.83-1.48 3.304-3.305 3.304-1.823 0-3.304-1.475-3.304-3.304 0-1.824 1.48-3.305 3.305-3.305 1.825 0 3.306 1.48 3.306 3.305M37.614 46.356c-1.67-1.5-3.378-.587-3.378-.587l-5.794 5.78-6.06-5.78s-2.038-.363-3.02.512c-.975.87-.93 3.016-.93 3.016s8.452 8.796 9.09 9.37c.64.572 1.722 0 1.722 0s7.714-7.5 8.773-8.774c0 0 1.265-2.04-.403-3.538M37.614 15.512c-1.67 1.5-3.378.587-3.378.587l-5.794-5.78-6.06 5.78s-2.038.36-3.02-.514c-.975-.87-.93-3.016-.93-3.016s8.452-8.796 9.09-9.37c.64-.57 1.722 0 1.722 0s7.714 7.5 8.773 8.774c0 0 1.265 2.04-.403 3.538M43.875 21.774c-1.5 1.664-.587 3.373-.587 3.373l5.78 5.798-5.78 6.06s-.362 2.04.514 3.015c.87.98 3.015.935 3.015.935s8.796-8.456 9.37-9.093c.572-.637 0-1.72 0-1.72s-7.5-7.713-8.774-8.776c0 0-2.04-1.26-3.538.408M13.03 21.774c1.5 1.664.588 3.373.588 3.373l-5.78 5.798 5.78 6.06s.362 2.04-.513 3.015c-.87.98-3.016.935-3.016.935S1.292 32.5.72 31.862c-.572-.637 0-1.72 0-1.72s7.5-7.713 8.773-8.776c0 0 2.04-1.26 3.538.408" fill="#094" mask="url(#abd)"/></g></svg>
</svg>