<svg xmlns="http://www.w3.org/2000/svg" xmlns:xlink="http://www.w3.org/1999/xlink" width="444" height="216" viewBox="0 0 444 216"><svg width="47" height="38" viewBox="-10 -10 47 38" id="chinese" y="0"><title>Group 3</title><g fill="none" fill-rule="evenodd"><path d="M11.28 7l-.545-.365-.517.404.18-.63-.544-.368.656-.024.18-.63.225.616.656-.024-.515.405.225.616zm-.955-4.23l.457.47.59-.29-.308.582.457.47-.645-.112-.307.58-.093-.65-.647-.112.59-.29-.093-.65zM9.177 2l-.058.654-.34-.563-.638.15.43-.497-.337-.562.604.258.43-.495-.058.653.604.257-.64.147zM9.1 8.97l-.337-.542-.602.165.398-.495-.364-.587.49.2.12.046.42-.498v.006l.01-.013-.03.673.58.237-.637.157-.048.654zM5.992 6.677L4.4 5.52 2.807 6.675l.608-1.872-1.592-1.158h1.97L4.4 1.774l.608 1.872h1.97L5.383 4.804l.61 1.872zM24.583 0h-22.3C1.024 0 0 1.022 0 2.284v13.432C0 16.978 1.022 18 2.284 18h22.298c1.26 0 2.284-1.022 2.284-2.284V2.284C26.866 1.022 25.843 0 24.582 0z" fill="#DD342C"/><path d="M5.008 3.646L4.4 1.774l-.608 1.872h-1.97l1.593 1.158-.608 1.872L4.4 5.52l1.593 1.156-.61-1.872 1.594-1.158h-1.97zM9.27.943l-.43.495-.605-.257.338.563-.43.496.638-.15.34.564L9.176 2l.64-.147-.605-.257.058-.653zM10.475 3.82l.093.65.307-.58.646.113-.455-.47.306-.582-.588.29-.457-.47.093.65-.59.288.647.113zM11.57 5.98l-.655.024-.225-.617-.18.63-.656.025.545.367-.182.63.517-.405.545.367-.226-.617.517-.405zM9.235 7.252l-.01.012v-.006l-.42.498-.122-.046-.49-.2.365.588-.396.495.6-.165.337.543.047-.653.638-.156-.58-.237.03-.67z" fill="#FFDE00"/></g></svg>
<svg width="47" height="38" viewBox="-10 -10 47 38" id="english" y="38"><title>Group 2</title><g fill="none" fill-rule="evenodd"><path d="M15.563 17.925h7.817l-7.817-5.366v5.365zM.002 11.923v3.735c0 .143.014.282.04.417l5.97-4.053-6.01-.1zM.042 1.905c-.025.136-.04.276-.04.42v3.55l5.965.097L.042 1.905zM23.636.058h-8.073v5.48L23.636.06zM26.668 5.874v-3.55c0-.143-.014-.283-.04-.42L20.703 5.97l5.965-.096zM26.63 16.075c.024-.136.04-.274.04-.417v-3.735l-6.013.1 5.972 4.052zM11.107.058H3.034l8.073 5.48V.06zM3.29 17.925h7.817V12.56L3.29 17.924z" fill="#273476"/><path d="M11.107 5.54L3.034.057h-.766c-.5 0-.962.165-1.337.44l7.95 5.557H6.886l-6.665-4.7c-.082.173-.144.357-.18.55l5.925 4.067-5.965-.098v1.21l7.756.117 4.24.065V.058h-.89v5.48zM14.672 10.894v7.031h.89V12.56l7.818 5.365h1.022c.547 0 1.05-.194 1.442-.518l-8.053-5.302h1.994l6.724 4.388c.053-.134.094-.273.12-.418l-5.97-4.053 6.01-.1v-1.208l-7.765.117-4.23.064zM.002 10.714v1.21l6.01.098-5.97 4.053c.1.532.382 1 .784 1.332l8.053-5.302h1.992l-8.574 5.82h.992l7.817-5.366v5.365h.89v-7.031l-4.23-.063-7.765-.116zM20.703 5.972l5.925-4.068c-.108-.575-.434-1.073-.89-1.406l-7.947 5.557H15.8L24.375.058h-.74l-8.072 5.48V.06h-.89v7.207l4.24-.064 7.755-.116v-1.21l-5.965.098z" fill="#FFF"/><path d="M18.912 7.2l-4.24.065V.058h-2.674v7.206l-4.24-.063-7.756-.116v3.63l7.765.117 4.23.064v7.031h2.675v-7.031l4.23-.063 7.767-.116v-3.63L18.91 7.2z" fill="#ED2F31"/><path d="M6.887 6.055H8.88L.93.498C.63.72.385 1.014.223 1.356l6.665 4.7zM15.798 6.055h1.993L25.74.498c-.376-.275-.837-.44-1.338-.44h-.027l-8.577 5.997zM17.79 12.105l8.054 5.302c.292-.24.522-.556.664-.914l-6.724-4.388H17.79zM8.88 12.105L.825 17.407c.392.324.895.518 1.442.518h.03l8.574-5.82H8.88z" fill="#ED2F31"/></g></svg>
<svg width="305" height="70" viewBox="-10 -10 305 70" id="logo" y="76"><title>Group 4</title><g fill="none" fill-rule="evenodd"><g transform="translate(56.098 13.195)" fill="#3E3A39"><path d="M62.593.914c-.026 0-.038-.008-.04-.022H57.82v1.943h5.434v-1.26c0-.364-.296-.66-.66-.66M91.458.914c-.024 0-.037-.008-.04-.022h-4.733v1.943h5.435v-1.26c0-.364-.296-.66-.662-.66M111.835 5.063c-.233-1.858-1.82-3.26-3.695-3.26H97.21c.144-.523.224-1.07.224-1.638H95.49c0 1.47-.75 2.768-1.89 3.53v2.193c1.086-.45 2.013-1.2 2.686-2.142h11.854c.878 0 1.624.643 1.76 1.505v15.04h-.003c0 .985-.8 1.81-1.783 1.81v1.943c2.055 0 3.726-1.697 3.726-3.752h.002V5.185l-.007-.12zM41.445 12.906h3.24v3.677h-3.24v-3.677zm3.24-7.407h-3.24V2.547h3.24v2.95zm-3.24 1.942h3.24v3.52h-3.24v-3.52zm11.244 7.214c2.32-4.34 2.29-8.74 2.29-10.633 0-2.45-1.79-3.304-2.735-3.413L47.812.603v1.944h4.253c.207.038.97.26.97 1.476 0 1.622 0 4.948-1.42 8.39-1.538-3.986-1.287-7.833-1.283-7.894l-1.94-.13c-.006.105-.163 2.6.496 5.722.345 1.634.85 3.18 1.557 4.595-.753 1.213-1.722 2.398-2.976 3.48v-.942c0-.365-.297-.662-.662-.662h-.18V2.547h.84V1.265c0-.365-.295-.662-.66-.662H38.63v1.944h.87v14.036h-.87v1.944h6.054v2.053h1.28c.367 0 .663-.298.663-.662v-1.39h.842v2.052c1.714-1.238 3.034-2.62 4.056-4.05 1.005 1.43 2.29 2.66 3.92 3.617V17.98c-1.162-.987-2.06-2.13-2.757-3.324zM25.63 1.97H14.308V.165h-1.943V1.97H.38v1.945h11.984V9.96H.38v1.945h11.984v6.047H.38v1.943h11.984v3.922h1.282c.365 0 .66-.295.66-.66v-3.262h11.987v-1.29c0-.338-.254-.612-.58-.653H14.307v-6.047h11.986V10.62c0-.358-.286-.647-.64-.66H14.306V3.916h11.986V2.633c0-.365-.297-.662-.662-.662M83.003 2.022c-.014 0-.023-.002-.03-.006l-13.997-.04c.176-.574.272-1.18.272-1.81h-1.943c0 1.47-.752 2.767-1.89 3.53v2.19c1.018-.42 1.898-1.107 2.56-1.97l15.683.046.004-1.296c-.01-.357-.3-.644-.66-.644M80.674 20.29c0 .806-.654 1.467-1.46 1.476H68.822c-.805-.007-1.462-.67-1.462-1.474v-4.716h5.686v3.383h1.282c.365 0 .662-.297.662-.662v-2.722h5.686v4.715zM67.358 9.927c0-.814.662-1.476 1.477-1.476h10.363c.814 0 1.476.662 1.476 1.477v3.705h-5.686V10.25h-1.944v3.382h-5.686V9.926zm15.626 3.706h-.366V9.927c0-1.886-1.534-3.42-3.42-3.42H68.835c-1.886 0-3.42 1.534-3.42 3.42v3.705h-1.028v1.944h1.027v4.716c0 1.867 1.52 3.4 3.398 3.418H79.23c1.867-.017 3.388-1.55 3.388-3.42v-4.714h1.028v-1.283c0-.365-.296-.66-.662-.66zM62.593 10.56H57.82v1.945h5.434v-1.283c0-.365-.296-.66-.66-.66M62.77 21.28h-4.95v1.944h5.434v-1.31c0-.303-.205-.555-.484-.634"/><path d="M107.332 6.902h-9.71c.072-.335.113-.682.113-1.038h-1.943c0 1.25-.758 2.326-1.837 2.795v2.046c1.13-.283 2.106-.954 2.784-1.86h3.257l-.017 3.995h-5.81v1.944h5.8l-.024 5.83h-2.95c-.307 0-.557-.25-.557-.558v-3.58h-1.945v3.58c0 1.38 1.123 2.502 2.502 2.502h7.376c1.38 0 2.503-1.123 2.503-2.503v-3.58h-1.944v3.58c0 .31-.25.56-.56.56h-2.482l.025-5.83h5.86v-1.282c0-.366-.296-.662-.66-.662h-5.192l.018-3.994h5.836V7.524c0-.288-.186-.53-.444-.622M91.458 10.56h-4.773v1.945h5.435v-1.283c0-.365-.296-.66-.662-.66M91.635 21.28h-4.95v1.944h5.434v-1.31c0-.303-.207-.555-.485-.634M54.783 21.9c-.034 0-.05-.017-.057-.042H35.254v-5.85h2.915v-1.283c0-.364-.296-.66-.662-.66h-2.254V9.816h2.915V8.54c0-.364-.296-.66-.662-.66-.012 0-.022-.003-.03-.006h-2.224v-3.96h2.915V2.65c0-.006-.003-.01-.003-.017 0-.366-.296-.662-.662-.662h-2.25V.166H33.31V1.97h-3.98v1.945h3.98v3.96h-3.98v1.942h3.98v11.92c-.666-.254-1.143-.893-1.15-1.647v-7.58h-1.945v7.581c-.008.808-.665 1.462-1.474 1.462v1.943c.93 0 1.775-.375 2.392-.98.684.786 1.69 1.286 2.81 1.286h21.503v-1.237c0-.366-.296-.662-.662-.662"/></g><path d="M49.275 24.637c0 13.607-11.03 24.637-24.637 24.637C11.03 49.274 0 38.244 0 24.637 0 11.03 11.03 0 24.638 0c13.606 0 24.637 11.03 24.637 24.637" fill="#E73836"/><path d="M32 43.06c-1.335 0-2.423-1.088-2.423-2.425v-4.14c0-.377.306-.682.683-.682.376 0 .682.305.682.682v4.14c0 .585.475 1.06 1.06 1.06.584 0 1.06-.475 1.06-1.06 0-.377.305-.682.68-.682.378 0 .684.305.684.682 0 1.337-1.088 2.425-2.425 2.425M35.08 24.137c-.377 0-.683-.305-.683-.682 0-.707-.574-1.28-1.28-1.28-.708 0-1.282.573-1.282 1.28 0 .377-.306.682-.682.682-.378 0-.683-.305-.683-.682 0-1.46 1.187-2.646 2.646-2.646 1.46 0 2.646 1.186 2.646 2.645 0 .377-.305.682-.682.682M18.157 24.137c-.377 0-.682-.305-.682-.682 0-.707-.575-1.28-1.282-1.28-.706 0-1.28.573-1.28 1.28 0 .377-.306.682-.683.682-.377 0-.683-.305-.683-.682 0-1.46 1.188-2.646 2.646-2.646 1.46 0 2.646 1.186 2.646 2.645 0 .377-.306.682-.683.682M22.763 43.067c-.377 0-.682-.306-.682-.682v-4.877c0-.377.306-.683.683-.683.376 0 .682.306.682.683v4.877c0 .376-.306.682-.682.682M26.51 43.067c-.375 0-.68-.306-.68-.682v-4.877c0-.377.305-.683.68-.683.378 0 .683.306.683.683v4.877c0 .376-.305.682-.682.682M17.333 43.06c-1.304 0-2.365-1.06-2.365-2.365 0-.377.306-.682.683-.682.377 0 .683.305.683.682 0 .55.45 1 1 1s1-.45 1-1v-4.2c0-.377.305-.682.682-.682.376 0 .682.305.682.683v4.2c0 1.303-1.06 2.364-2.364 2.364M24.655 25.974c-1.28 0-2.322 1.04-2.322 2.32 0 1.282 1.042 2.323 2.322 2.323s2.32-1.04 2.32-2.322c0-1.28-1.04-2.32-2.32-2.32m0 6.007c-2.033 0-3.687-1.654-3.687-3.687 0-2.032 1.654-3.686 3.687-3.686 2.032 0 3.686 1.653 3.686 3.685 0 2.033-1.653 3.687-3.685 3.687" fill="#FEFEFE"/><path d="M30.51 37.13l-.502-1.27c5.6-2.217 9.22-7.544 9.22-13.568 0-8.046-6.545-14.59-14.59-14.59-8.046 0-14.59 6.544-14.59 14.59 0 6.024 3.617 11.35 9.218 13.57l-.503 1.268c-2.94-1.165-5.448-3.16-7.254-5.77-1.85-2.672-2.827-5.808-2.827-9.068 0-8.798 7.157-15.956 15.954-15.956 8.798 0 15.955 7.158 15.955 15.956 0 3.26-.977 6.396-2.826 9.068-1.807 2.61-4.315 4.606-7.255 5.77" fill="#FEFEFE"/><path d="M176.22 14.634v21.95" stroke="#3F3A3A" stroke-linecap="square"/><path d="M193.596 24.077V16.83h7.12v7.247h-7.12zm14.752 0h-5.686V16.83h4.892v-1.82h-21.026v1.82h5.148v6.146c0 .384 0 .717-.026 1.1h-6.07v1.845h5.993c-.358 3.458-1.664 6.89-5.916 9.502.46.307 1.153.973 1.51 1.408 4.688-2.945 5.994-6.914 6.353-10.91h7.196v10.834h1.946V25.92h5.686v-1.843zm9.782-7.376c-.256-.92-.845-2.33-1.382-3.405l-1.64.487c.487 1.075 1.076 2.535 1.307 3.483l1.715-.564zm-2.33 5.943v-3.406h6.454V17.47H210.96v1.767h3.022v5.3c0 3.612-.384 7.633-3.483 10.936.46.307 1.074.82 1.407 1.23 3.38-3.612 3.893-7.94 3.893-12.14v-.18h3.457c-.153 7.018-.333 9.477-.768 10.04-.18.282-.41.36-.744.36-.41 0-1.357-.027-2.407-.13.28.513.46 1.256.51 1.768 1.077.078 2.1.078 2.74 0 .667-.076 1.103-.28 1.512-.82.64-.895.82-3.712 1-12.087.025-.256.025-.87.025-.87H215.8zm14.726-2.792c-.487 3.28-1.255 6.02-2.46 8.324-1.126-2.33-1.894-5.07-2.432-8.067.026-.077.05-.18.103-.256h4.79zm3.764 0v-1.766h-7.99c.41-1.434.743-2.945 1.05-4.456l-1.92-.307c-.795 4.38-2.203 8.657-4.278 11.346.436.333 1.178 1.075 1.486 1.434.666-.948 1.306-1.998 1.844-3.176.64 2.638 1.434 5.046 2.484 7.12-1.486 2.15-3.483 3.84-6.146 5.07.358.41.92 1.23 1.1 1.665 2.536-1.307 4.534-2.946 6.07-4.97 1.332 2.075 3.048 3.74 5.2 4.867.306-.538.895-1.255 1.33-1.64-2.253-1.05-3.994-2.765-5.377-4.942 1.587-2.766 2.637-6.12 3.278-10.244h1.87zm25.303 6.02h-10.5v-8.938h9.066v-1.87H238.13v1.87h9.014v8.938H236.8v1.87h10.346V36.7h1.947V27.74h10.5v-1.87zm-19.67-7.17c.975 1.868 1.948 4.352 2.306 5.863l1.792-.614c-.333-1.512-1.383-3.92-2.433-5.763l-1.666.512zm13.575 5.94c.998-1.536 2.228-3.97 3.15-6.018l-1.998-.563c-.64 1.842-1.818 4.455-2.766 6.042l1.614.538zm26.43 3.176v5.66h-12.37v-5.66h12.37zm-14.29 8.886h1.92V35.32h12.37v1.33h1.996V26h-16.287v10.704zm10.652-19.49c1.23 1.103 2.536 2.434 3.714 3.766l-13.06.64c2.252-2.125 4.532-4.763 6.555-7.53l-1.87-.844c-1.998 3.176-4.97 6.402-5.89 7.222-.846.845-1.512 1.408-2.075 1.51.205.513.537 1.46.614 1.87.998-.358 2.483-.41 17.107-1.23.64.795 1.178 1.538 1.562 2.204l1.612-1.153c-1.332-2.126-4.277-5.25-6.76-7.427l-1.512.973z" fill="#3E3A39"/></g></svg>
<svg width="444" height="70" viewBox="-10 -10 444 70" id="logo-english" y="146"><title>logo-english</title><defs><path id="aca" d="M0 .177V24.65h8.364V.177H0z"/></defs><g fill="none" fill-rule="evenodd"><path d="M49.775 24.637c0 13.607-11.03 24.637-24.637 24.637C11.53 49.274.5 38.244.5 24.637.5 11.03 11.53 0 25.138 0c13.606 0 24.637 11.03 24.637 24.637" fill="#E73836"/><path d="M32.5 43.06c-1.335 0-2.423-1.088-2.423-2.425v-4.14c0-.377.306-.682.683-.682.376 0 .682.305.682.682v4.14c0 .585.475 1.06 1.06 1.06.584 0 1.06-.475 1.06-1.06 0-.377.305-.682.68-.682.378 0 .684.305.684.682 0 1.337-1.088 2.425-2.425 2.425M35.58 24.137c-.377 0-.683-.305-.683-.682 0-.707-.574-1.28-1.28-1.28-.708 0-1.282.573-1.282 1.28 0 .377-.306.682-.682.682-.378 0-.683-.305-.683-.682 0-1.46 1.187-2.646 2.646-2.646 1.46 0 2.646 1.186 2.646 2.645 0 .377-.305.682-.682.682M18.657 24.137c-.377 0-.682-.305-.682-.682 0-.707-.575-1.28-1.282-1.28-.706 0-1.28.573-1.28 1.28 0 .377-.306.682-.683.682-.377 0-.683-.305-.683-.682 0-1.46 1.188-2.646 2.646-2.646 1.46 0 2.646 1.186 2.646 2.645 0 .377-.306.682-.683.682M23.263 43.067c-.377 0-.682-.306-.682-.682v-4.877c0-.377.306-.683.683-.683.376 0 .682.306.682.683v4.877c0 .376-.306.682-.682.682M27.01 43.067c-.375 0-.68-.306-.68-.682v-4.877c0-.377.305-.683.68-.683.378 0 .683.306.683.683v4.877c0 .376-.305.682-.682.682M17.833 43.06c-1.304 0-2.365-1.06-2.365-2.365 0-.377.306-.682.683-.682.377 0 .683.305.683.682 0 .55.45 1 1 1s1-.45 1-1v-4.2c0-.377.305-.682.682-.682.376 0 .682.305.682.683v4.2c0 1.303-1.06 2.364-2.364 2.364M25.155 25.974c-1.28 0-2.322 1.04-2.322 2.32 0 1.282 1.042 2.323 2.322 2.323s2.32-1.04 2.32-2.322c0-1.28-1.04-2.32-2.32-2.32m0 6.007c-2.033 0-3.687-1.654-3.687-3.687 0-2.032 1.654-3.686 3.687-3.686 2.032 0 3.686 1.653 3.686 3.685 0 2.033-1.653 3.687-3.685 3.687" fill="#FEFEFE"/><path d="M31.01 37.13l-.502-1.27c5.6-2.217 9.22-7.544 9.22-13.568 0-8.046-6.545-14.59-14.59-14.59-8.046 0-14.59 6.544-14.59 14.59 0 6.024 3.617 11.35 9.218 13.57l-.503 1.268c-2.94-1.165-5.448-3.16-7.254-5.77-1.85-2.672-2.827-5.808-2.827-9.068 0-8.798 7.157-15.956 15.954-15.956 8.798 0 15.955 7.158 15.955 15.956 0 3.26-.977 6.396-2.826 9.068-1.807 2.61-4.315 4.606-7.255 5.77" fill="#FEFEFE"/><path d="M176.72 14.634v21.95" stroke="#3F3A3A" stroke-linecap="square"/><g transform="translate(57 9)"><g transform="translate(0 .805)"><mask id="acb" fill="#fff"><use xlink:href="#aca"/></mask><path d="M8.364.623v2.183c-.817-.35-1.52-.525-2.103-.525-.434 0-.795.087-1.082.263-.287.176-.467.377-.542.605-.074.23-.11.837-.11 1.825l-.003 2.342H8.14v1.928H4.52L4.51 24.65h-2.23V9.243H0V7.315h2.278v-2.71c0-1.242.114-2.128.343-2.66.23-.53.617-.958 1.164-1.283C4.33.34 4.992.177 5.767.177c.723 0 1.588.148 2.597.446" fill="#E73836" mask="url(#acb)"/></g><path d="M26.067 15.036c-.298-1.19-.73-2.142-1.3-2.853-.57-.71-1.322-1.284-2.258-1.72-.937-.436-1.92-.654-2.952-.654-1.702 0-3.165.545-4.388 1.64-.893.797-1.57 1.99-2.025 3.586h12.922zm0 4.668l1.88.99c-.617 1.21-1.33 2.186-2.138 2.928-.808.745-1.718 1.31-2.727 1.7-1.01.386-2.154.58-3.43.58-2.827 0-5.04-.927-6.633-2.78-1.595-1.854-2.393-3.95-2.393-6.286 0-2.2.675-4.158 2.026-5.88 1.712-2.187 4.003-3.28 6.874-3.28 2.955 0 5.315 1.12 7.08 3.36 1.254 1.584 1.892 3.56 1.913 5.926h-15.6c.044 2.015.687 3.665 1.932 4.953 1.245 1.288 2.78 1.932 4.61 1.932.883 0 1.742-.153 2.576-.46.836-.307 1.545-.717 2.13-1.223.585-.51 1.218-1.328 1.9-2.46zM32.678 8.12h2.23v3.107c.893-1.19 1.882-2.078 2.964-2.67 1.085-.588 2.263-.882 3.538-.882 1.296 0 2.446.328 3.45.986 1.004.662 1.744 1.548 2.222 2.663.477 1.115.717 2.85.717 5.21v8.923h-2.232v-8.27c0-1.997-.083-3.33-.248-3.998-.26-1.148-.753-2.01-1.487-2.59-.733-.578-1.69-.868-2.868-.868-1.35 0-2.558.445-3.626 1.337-1.07.893-1.772 1.998-2.11 3.314-.215.863-.322 2.435-.322 4.718v6.358h-2.23V8.12zM60.944 9.826c-1.265 0-2.438.305-3.52.916-1.084.61-1.935 1.454-2.55 2.532-.617 1.078-.924 2.245-.924 3.498 0 1.902.636 3.473 1.91 4.717 1.276 1.24 2.927 1.862 4.956 1.862 2.05 0 3.7-.616 4.948-1.848 1.248-1.232 1.872-2.852 1.872-4.86 0-1.306-.286-2.472-.86-3.496-.574-1.025-1.387-1.835-2.44-2.43-1.05-.594-2.182-.892-3.392-.892zm6.58-1.706h2.232v13.814c0 2.433-.214 4.212-.64 5.338-.583 1.593-1.597 2.82-3.04 3.68-1.446.86-3.183 1.292-5.212 1.292-1.487 0-2.822-.21-4.007-.63-1.184-.424-2.15-.988-2.892-1.696-.743-.71-1.43-1.744-2.055-3.108h2.422c.658 1.147 1.51 1.997 2.55 2.55 1.045.55 2.337.827 3.88.827 1.52 0 2.803-.283 3.85-.85 1.05-.566 1.796-1.278 2.242-2.134.447-.858.67-2.243.67-4.154v-.893c-.84 1.063-1.865 1.878-3.078 2.446-1.212.568-2.5.852-3.86.852-1.594 0-3.094-.395-4.497-1.186-1.405-.793-2.49-1.858-3.255-3.196-.766-1.34-1.15-2.81-1.15-4.413 0-1.603.4-3.098 1.198-4.485.798-1.386 1.9-2.484 3.31-3.29 1.41-.807 2.894-1.21 4.457-1.21 1.297 0 2.507.267 3.63.804 1.12.534 2.203 1.42 3.244 2.65V8.12zM82.876 9.826c-1.24 0-2.388.305-3.437.914-1.05.61-1.887 1.467-2.508 2.57-.62 1.104-.93 2.27-.93 3.502 0 1.22.312 2.388.937 3.5.626 1.116 1.466 1.982 2.522 2.602 1.057.622 2.188.933 3.398.933 1.22 0 2.376-.31 3.47-.923 1.092-.616 1.932-1.45 2.522-2.5.59-1.05.884-2.23.884-3.548 0-2.005-.66-3.682-1.983-5.03-1.32-1.346-2.946-2.02-4.877-2.02zM91.79 8.12v23.677h-2.198v-9.322c-.935 1.138-1.984 1.99-3.147 2.565-1.163.574-2.436.862-3.816.862-2.454 0-4.55-.89-6.286-2.67-1.737-1.778-2.605-3.942-2.605-6.493 0-2.497.875-4.63 2.628-6.405 1.75-1.773 3.86-2.66 6.326-2.66 1.422 0 2.71.3 3.863.907 1.152.605 2.163 1.514 3.035 2.725V8.12h2.198zM96.507 8.12h2.23v8.094c0 1.976.107 3.337.32 4.08.32 1.063.928 1.9 1.827 2.517.898.617 1.97.924 3.216.924 1.243 0 2.3-.3 3.166-.9.868-.6 1.466-1.388 1.796-2.366.223-.667.335-2.086.335-4.254V8.12h2.278v8.508c0 2.39-.28 4.19-.836 5.402-.56 1.21-1.398 2.158-2.52 2.844-1.12.685-2.524 1.03-4.214 1.03-1.687 0-3.098-.345-4.23-1.03-1.13-.686-1.975-1.64-2.532-2.867-.56-1.228-.837-3.074-.837-5.538V8.12z" fill="#E73836"/></g><text font-family="ArialMT, Arial" font-size="24" fill="#444"><tspan x="184" y="33.433">Open Service Platform</tspan></text></g></svg>
</svg>