<svg xmlns="http://www.w3.org/2000/svg" xmlns:xlink="http://www.w3.org/1999/xlink" width="42" height="82" viewBox="0 0 42 82"><svg preserveAspectRatio="xMidYMid" width="40" height="40" viewBox="-10 -10 40 40" id="step" y="0"><circle cx="10" cy="10" r="10" class="cls-1" fill="#ff5b54"/><path d="M15.84 7.597l-6.43 6.33c-.16.158-.422.158-.583 0l-.13-.128-.14-.14-.607-.597c-.004-.004-.005-.01-.01-.013l-2.78-2.757c-.16-.16-.16-.417 0-.576l.878-.863c.16-.16.423-.16.584 0l2.5 2.48 5.256-5.175c.16-.16.423-.16.584 0l.877.862c.16.16.16.416 0 .575z" class="cls-2" fill="#fff" fill-rule="evenodd"/></svg>
<svg preserveAspectRatio="xMidYMid" width="42" height="42" viewBox="-10 -10 42 42" id="step-active" y="40"><circle cx="11" cy="11" r="10" class="cls-1" fill="#fff8f8" stroke="#969696" stroke-width="2"/><path d="M14.84 7.512l-6.43 6.33c-.16.158-.422.158-.583 0l-.13-.13v.002l-.14-.14-.607-.596c-.004-.004-.005-.01-.01-.013l-2.78-2.757c-.16-.16-.16-.417 0-.576l.878-.863c.16-.16.423-.16.584 0l2.5 2.48 5.256-5.176c.16-.16.423-.16.584 0l.877.863c.16.16.16.416 0 .575z" class="cls-2" fill="#969696" fill-rule="evenodd"/></svg>
</svg>