<svg xmlns="http://www.w3.org/2000/svg" xmlns:xlink="http://www.w3.org/1999/xlink" width="100" height="118" viewBox="0 0 100 118"><svg width="100" height="118" viewBox="-10 -10 100 118" id="error" y="0"><title>Group</title><defs><path id="aaa" d="M70.423.33H0v68.475h70.423V.33z"/></defs><g fill="none" fill-rule="evenodd"><ellipse cx="34.63" cy="2.337" rx="34.63" ry="2.337" transform="translate(10.667 93)" fill="#F0F0F0"/><g transform="translate(9.333 5.333)"><path d="M51.55 82.32c-2.86 0-5.188-2.347-5.188-5.23v-9.255c0-.737.592-1.336 1.324-1.336.732 0 1.325.598 1.325 1.335v9.256c0 1.412 1.14 2.56 2.54 2.56 1.4 0 2.54-1.148 2.54-2.56 0-.737.594-1.334 1.326-1.334.732 0 1.325.597 1.325 1.335 0 2.883-2.328 5.23-5.19 5.23M31.052 82.335c-.73 0-1.325-.596-1.325-1.334V70.1c0-.74.594-1.336 1.325-1.336.732 0 1.325.597 1.325 1.335V81c0 .74-.593 1.335-1.325 1.335M39.37 82.335c-.733 0-1.326-.596-1.326-1.334V70.1c0-.74.593-1.336 1.325-1.336.73 0 1.324.597 1.324 1.335V81c0 .74-.593 1.335-1.325 1.335M19.004 82.32c-2.79 0-5.057-2.286-5.057-5.094 0-.738.593-1.336 1.324-1.336.733 0 1.326.598 1.326 1.336 0 1.335 1.08 2.423 2.408 2.423 1.327 0 2.408-1.09 2.408-2.424v-9.39c0-.738.593-1.335 1.324-1.335.732 0 1.325.598 1.325 1.336v9.39c0 2.808-2.268 5.094-5.056 5.094" fill="#CCC"/><g transform="translate(0 .272)"><mask id="aab" fill="#fff"><use xlink:href="#aaa"/></mask><path d="M48.174 68.805l-.976-2.482c12.498-4.99 20.575-16.966 20.575-30.515C67.773 17.718 53.166 3 35.21 3 17.258 3 2.65 17.72 2.65 35.808c0 13.548 8.075 25.526 20.574 30.514l-.977 2.482c-6.487-2.588-12.023-7.026-16.01-12.83C2.158 50.035 0 43.06 0 35.81 0 16.246 15.797.33 35.21.33c19.417 0 35.213 15.916 35.213 35.478 0 7.253-2.158 14.227-6.24 20.167-3.984 5.804-9.52 10.24-16.01 12.83" fill="#CCC" mask="url(#aab)"/></g><path d="M59.22 43.615c-4.79 0-8.387-3.804-8.387-8.63h2.994c0 3.016 2.4 5.613 5.394 5.613v3.017zM11.31 43.615v-3.017c2.996 0 5.39-2.597 5.39-5.614h2.995c0 4.827-3.593 8.63-8.384 8.63M45.784 56.97c-2.18 0-3.292-1.366-4.104-2.363-.757-.932-1.085-1.258-1.787-1.258-.7 0-1.028.325-1.786 1.256-.81.997-1.92 2.363-4.102 2.363-2.18 0-3.29-1.366-4.103-2.363-.757-.932-1.085-1.258-1.786-1.258-.7 0-1.028.325-1.785 1.256-.81.997-1.92 2.363-4.102 2.363-2.18 0-3.41-1.367-4.22-2.364-.758-.93-.708-1.257-1.905-1.257V50.33c2.395 0 3.41 1.366 4.22 2.363.757.93 1.145 1.257 1.845 1.257s1.06-.326 1.816-1.258c.81-.997 1.936-2.362 4.117-2.362 2.182 0 3.3 1.365 4.11 2.362.76.932 1.09 1.258 1.792 1.258.7 0 1.03-.326 1.787-1.258.81-.997 1.922-2.362 4.102-2.362 2.18 0 3.293 1.365 4.104 2.362.758.932 1.086 1.258 1.788 1.258s.91-.326 1.668-1.258c.81-.997 2.187-2.362 3.984-2.362v3.017c-.6 0-.91.325-1.668 1.257-.81.997-1.802 2.362-3.984 2.362" fill="#CCC"/></g><g fill="#CCC"><path d="M3.876 9.94H0V7.567h3.876c1.502 0 2.723-1.254 2.723-2.796V.79h2.307v3.982c0 2.848-2.257 5.167-5.03 5.167M19.856 9.94H15.98c-2.774 0-5.03-2.32-5.03-5.168V.79h2.307v3.982c0 1.542 1.22 2.796 2.723 2.796h3.876v2.37zM13.257 21.303H10.95V17.32c0-2.848 2.256-5.166 5.03-5.166h3.876v2.37H15.98c-1.5 0-2.723 1.255-2.723 2.797v3.983zM8.907 21.303H6.6V17.32c0-1.54-1.223-2.796-2.724-2.796H0v-2.37h3.876c2.774 0 5.03 2.318 5.03 5.167v3.983z"/></g></g></svg>
</svg>