<svg xmlns="http://www.w3.org/2000/svg" xmlns:xlink="http://www.w3.org/1999/xlink" width="150" height="56" viewBox="0 0 150 56"><svg width="150" height="56" viewBox="-10 -10 150 56" id="wechatpay" y="0"><title>Group</title><g fill="none" fill-rule="evenodd"><path d="M14.405 22.478c-.18.09-.38.142-.595.142-.494 0-.925-.272-1.15-.675l-.087-.19-3.606-7.91c-.04-.087-.063-.184-.063-.28 0-.363.296-.66.66-.66.15 0 .285.05.395.132l4.254 3.03c.31.203.68.322 1.08.322.24 0 .467-.046.678-.123l20.01-8.905C32.393 3.136 26.487.374 19.803.374 8.866.374 0 7.762 0 16.877c0 4.972 2.668 9.448 6.842 12.474.336.24.556.632.556 1.075 0 .147-.032.28-.07.422l-.893 3.328c-.04.156-.106.32-.106.483 0 .364.294.66.66.66.142 0 .26-.053.38-.123l4.336-2.503c.326-.188.67-.305 1.05-.305.203 0 .4.032.583.088 2.022.582 4.204.905 6.464.905 10.936 0 19.804-7.39 19.804-16.503 0-2.76-.818-5.36-2.256-7.648L14.55 22.393l-.145.084z" fill="#00C800"/><path d="M76.707 14.546h11.105v.938H76.707v-.938zM76.707 17.674h11.105v1.017H76.707v-1.016zM86.513 26.484h-8.505V22.38h8.505v4.104zm-9.523.938h10.538v-5.98H76.99v5.98zM74.283 8.762c-.992 3.492-2.4 6.567-4.222 9.225l.003.003.554.962c.648-.958 1.297-2.035 1.946-3.232v11.77h1.016V13.608c.643-1.386 1.19-2.822 1.646-4.302l-.943-.544zM82.338 11.34l.798-.46c-.157-.363-.824-1.727-1.03-2.196l-.94.542c.334.626.648 1.253.938 1.88.05.104.077.182.077.234h-6.568v1.016h13.373V11.34h-6.647zM57.26 9.034h.94v5.006h1.954v-3.52h.94v4.458h-6.805V10.52h.938v3.52h2.033V9.034zM54.602 17.01h6.022v.94h-6.022v-.94zM61.48 22.455l-1.56 1.338v-3.81h-5.083v1.486c.147 2.103-.372 3.586-1.556 4.45l.544.942c1.456-1.2 2.134-2.866 2.03-5.003v-.94h3.128v2.27c-.038.77-.077 1.025-.35 1.405l.586 1.017c.52-.418 1.43-1.197 2.732-2.342l-.47-.815zM52.86 8.84c-.97 1.983-2.14 3.616-3.51 4.9l.572.99c1.558-1.56 2.83-3.353 3.82-5.38l-.88-.51zM52.726 13.962c-.933 2.332-2.15 4.354-3.65 6.068l.543.943c.617-.722 1.21-1.47 1.776-2.24v8.757h.938V17.167c.46-.817.894-1.71 1.306-2.68l-.914-.525z" fill="#020202"/><path d="M64.764 21.31c-.678-1.72-1.173-4.04-1.486-6.96.104-.312.235-.625.39-.938h2.738c-.21 3.337-.756 5.97-1.642 7.9zm3.675-7.898v-.938H63.98c.38-1.14.834-2.505.985-3.674h-.985c-.655 3.067-1.624 5.648-2.91 7.746l.594 1.028c.104-.206.25-.496.44-.877.206-.364.364-.652.47-.86.31 2.763.86 4.953 1.64 6.568-.745 1.293-1.875 2.61-3.377 3.948l.563.977c1.614-1.512 2.708-2.813 3.283-3.908.677 1.224 1.828 2.672 3.103 3.967l.57-.992c-1.334-1.275-2.49-2.687-3.127-3.914 1.146-2.085 1.85-5.11 2.112-9.072h1.094z" fill="#020202"/><path d="M121.947 22.616c-.684-1.35-2.09-3.69-3.23-5.398l.85-.422c1.158 1.708 2.587 3.985 3.27 5.25l-.89.57zM95.474 17.577h10.102c-1.16 2.34-2.96 4.132-5.175 5.545-2.132-1.454-3.81-3.29-4.926-5.545m13.826 9.736l.268-.885c-3.187-.477-5.947-1.386-8.257-2.737 2.486-1.643 4.494-3.815 5.735-6.703l-.662-.444-.207.043h-5.362v-3.712h8.136v-1.012h-8.136v-3.48h-.993v3.48h-8.114v1.012h8.115v3.712H94.3v.99c1.18 2.49 2.996 4.534 5.17 6.074-2.442 1.377-5.318 2.27-8.28 2.822l.288.944c.006.016.016.036.02.05 3.17-.633 6.254-1.644 8.882-3.183 2.463 1.54 5.444 2.572 8.88 3.1l.04-.07M116.585 8.53c-1.226 3.317-3.195 6.506-5.317 8.658l.423 1.072c.01.017.024.04.03.054.89-.885 1.718-1.94 2.505-3.1v12.23h.993v-13.79c.89-1.518 1.678-3.142 2.32-4.83l-.953-.294z" fill="#000"/><path d="M126.874 13.148V8.636h-.994v4.512h-8.673v1.013h8.673v11.725c0 .484-.166.61-.642.653-.378.017-.785.108-1.862.114l.003.885c1.466.01 1.962-.016 2.52-.176.663-.168.974-.505.974-1.496V14.16h2.794V13.15h-2.794z" fill="#000"/></g></svg>
</svg>