<?xml version="1.0" encoding="UTF-8" standalone="no"?>
<svg width="15px" height="15px" viewBox="0 0 15 15" version="1.1" xmlns="http://www.w3.org/2000/svg" xmlns:xlink="http://www.w3.org/1999/xlink" xmlns:sketch="http://www.bohemiancoding.com/sketch/ns">
    <!-- Generator: Sketch 3.3.2 (12043) - http://www.bohemiancoding.com/sketch -->
    <title>人气面膜</title>
    <desc>Created with Sketch.</desc>
    <defs></defs>
    <g id="Page-1" stroke="none" stroke-width="1" fill="none" fill-rule="evenodd" sketch:type="MSPage">
        <g id="Group" sketch:type="MSLayerGroup" transform="translate(-20.000000, -83.000000)" fill="#FFFFFF">
            <g id="人气面膜" transform="translate(20.000000, 82.000000)" sketch:type="MSShapeGroup">
                <path d="M8.86174838,1.06423293 C6.31666535,0.724701693 5.15619047,1.52070143 2.48946606,4.74273917 C0.365351103,7.30917555 -0.23451262,10.5476538 1.03566344,12.6846369 C2.53922302,15.2142716 6.6364732,16.8892572 10.4470942,15.4764958 C13.2130706,14.4510291 14.8290345,10.8959819 14.2641686,7.43269086 C13.6900381,3.91259743 11.7069553,1.44380272 8.86174838,1.06423293 L8.86174838,1.06423293 Z M8.72951317,2.0554513 C11.0807978,2.36912853 12.7675831,4.46905418 13.2772099,7.59366472 C13.7708945,10.6205308 12.3729284,13.6959928 10.0994725,14.5388609 C6.76169901,15.7763174 3.1618968,14.3046921 1.89528105,12.173699 C0.865615655,10.4413584 1.38303814,7.64795481 3.25983567,5.38033674 C5.72281785,2.4044681 6.63835597,1.77647683 8.72951317,2.0554513 L8.72951317,2.0554513 Z" id="Shape"></path>
                <path d="M9.27529437,9.87208241 C10.6264508,10.2089636 11.9681802,9.74509408 12.229745,8.69601486 C12.4913098,7.64693564 11.5244066,6.60745944 10.1732502,6.2705783 C8.82209375,5.93369716 7.4803644,6.39756664 7.21879958,7.44664585 C6.95723475,8.49572507 7.92413792,9.53520128 9.27529437,9.87208241 L9.27529437,9.87208241 Z M9.51721626,8.90178669 C8.63678351,8.68227015 8.0883426,8.0926648 8.1890953,7.68856775 C8.28984801,7.2844707 9.05089555,7.02135749 9.9313283,7.24087403 C10.811761,7.46039057 11.360202,8.04999592 11.2594493,8.45409297 C11.1586965,8.85819001 10.397649,9.12130323 9.51721626,8.90178669 L9.51721626,8.90178669 Z" id="Shape"></path>
                <path d="M5.22028473,12.5972668 C6.57582947,12.935242 7.8502245,12.7227411 8.06539635,11.859734 C8.2805682,10.9967268 7.25510732,10.2108074 5.89956258,9.87283213 C4.54401784,9.53485686 3.2696228,9.74735779 3.05445095,10.6103649 C2.8392791,11.4733721 3.86473999,12.2592915 5.22028473,12.5972668 L5.22028473,12.5972668 Z M5.46220662,11.6269711 C4.58616217,11.4085486 3.99837351,10.9580639 4.02474668,10.8522868 C4.05111985,10.7465098 4.78159623,10.6247054 5.65764068,10.8431279 C6.53368514,11.0615503 7.1214738,11.512035 7.09510063,11.6178121 C7.06872745,11.7235891 6.33825108,11.8453935 5.46220662,11.6269711 L5.46220662,11.6269711 Z" id="Shape"></path>
                <path d="M4.72705393,8.11937049 C5.6647549,8.11937049 6.47635852,7.53214418 6.47635852,6.71545075 C6.47635852,5.89875732 5.6647549,5.31153101 4.72705393,5.31153101 C3.78935295,5.31153101 2.97774934,5.89875732 2.97774934,6.71545075 C2.97774934,7.53214418 3.78935295,8.11937049 4.72705393,8.11937049 L4.72705393,8.11937049 Z M4.72705393,7.11937049 C4.28481116,7.11937049 3.97774934,6.89719949 3.97774934,6.71545075 C3.97774934,6.533702 4.28481116,6.31153101 4.72705393,6.31153101 C5.16929669,6.31153101 5.47635852,6.533702 5.47635852,6.71545075 C5.47635852,6.89719949 5.16929669,7.11937049 4.72705393,7.11937049 L4.72705393,7.11937049 Z" id="Shape"></path>
            </g>
        </g>
    </g>
</svg>