<?xml version="1.0" encoding="UTF-8" standalone="no"?>
<svg width="16px" height="16px" viewBox="0 0 16 16" version="1.1" xmlns="http://www.w3.org/2000/svg" xmlns:xlink="http://www.w3.org/1999/xlink" xmlns:sketch="http://www.bohemiancoding.com/sketch/ns">
    <!-- Generator: Sketch 3.3.2 (12043) - http://www.bohemiancoding.com/sketch -->
    <title>面部护理</title>
    <desc>Created with Sketch.</desc>
    <defs></defs>
    <g id="Page-1" stroke="none" stroke-width="1" fill="none" fill-rule="evenodd" sketch:type="MSPage">
        <g id="Group" sketch:type="MSLayerGroup" transform="translate(-20.000000, -134.000000)">
            <g id="面部护理" transform="translate(21.000000, 135.000000)" sketch:type="MSShapeGroup">
                <path d="M7,14 C10.8659932,14 14,10.8659932 14,7 C14,3.13400675 10.8659932,0 7,0 C3.13400675,0 0,3.13400675 0,7 C0,10.8659932 3.13400675,14 7,14 Z" id="Oval-31" stroke="#FFFFFF"></path>
                <path id="Path-44" stroke="#979797" d=""></path>
                <path d="M1.91113281,5.9169375 C1.91113281,5.9169375 3.50961582,3.82909765 5.61770385,5.95436605 C3.36085897,7.89627668 1.91113281,5.9169375 1.91113281,5.9169375 Z" id="Path-45" stroke="#FFFFFF"></path>
                <path d="M8.17026001,5.9169375 C8.17026001,5.9169375 9.76874302,3.82909765 11.8768311,5.95436605 C9.61998617,7.89627668 8.17026001,5.9169375 8.17026001,5.9169375 Z" id="Path-45-Copy" stroke="#FFFFFF"></path>
                <path d="M3,10.1779785 C3,10.1779785 3.44750977,11.1650391 4.45703125,11.1650391 L9.06886865,11.1650391 C9.06886865,11.1650391 10.1044922,10.8242188 10.1044922,10" id="Path-47" stroke="#FFFFFF" stroke-linecap="round" stroke-linejoin="round"></path>
            </g>
        </g>
    </g>
</svg>