<?xml version="1.0" encoding="UTF-8" standalone="no"?>
<svg width="13px" height="15px" viewBox="0 0 13 15" version="1.1" xmlns="http://www.w3.org/2000/svg" xmlns:xlink="http://www.w3.org/1999/xlink" xmlns:sketch="http://www.bohemiancoding.com/sketch/ns">
    <!-- Generator: Sketch 3.3.2 (12043) - http://www.bohemiancoding.com/sketch -->
    <title>口腔护理</title>
    <desc>Created with Sketch.</desc>
    <defs></defs>
    <g id="Page-1" stroke="none" stroke-width="1" fill="none" fill-rule="evenodd" sketch:type="MSPage">
        <g id="Group" sketch:type="MSLayerGroup" transform="translate(-21.000000, -334.000000)" stroke-linecap="round" stroke="#FFFFFF" stroke-linejoin="round">
            <g id="口腔护理" transform="translate(21.000000, 334.000000)" sketch:type="MSShapeGroup">
                <path d="M1.02465821,2.38330084 C1.68847658,-0.0988769617 4.46717462,0.935361321 4.79150383,1.08129882 C5.52597113,1.41178501 7.25783986,1.82500892 9.02709968,0.826995321 C9.86933474,0.351902835 11.9782963,0.925976544 12.1707764,2.69628914 C12.3831237,4.64932744 11.2100894,7.41325315 10.565796,9.69384798 C10.0255371,11.6061935 9.99562473,13.1117953 9.75383581,13.3372492 C9.21508796,13.8395999 8.42529304,13.4118654 8.42529304,12.6984866 C8.42529304,11.9851079 7.94450963,8.16073543 6.98552526,7.84725899 C6.57711191,7.71375528 5.92011918,8.49626037 5.59191887,9.69384753 C5.14948088,11.3082825 5.35314933,13.3372496 4.37915048,13.4954833 C3.24940778,13.6790187 3.4987792,11.6965327 2.75744626,9.69384753 C2.64550893,9.39145272 0.360839834,4.86547864 1.02465821,2.38330084 Z" id="Path-60"></path>
                <path d="M5.35107422,2.88977051 C5.35107422,2.88977051 7.50341797,2.88977051 8.3536378,1.23461914" id="Path-61"></path>
            </g>
        </g>
    </g>
</svg>