<svg xmlns="http://www.w3.org/2000/svg" xmlns:xlink="http://www.w3.org/1999/xlink" width="40" height="80" viewBox="0 0 40 80"><svg width="40" height="40" viewBox="-10 -10 40 40" id="a" y="0"><title>A</title><defs><filter x="-50%" y="-50%" width="200%" height="200%" filterUnits="objectBoundingBox" id="aaa"><feOffset dx="3" dy="2" in="SourceAlpha" result="shadowOffsetOuter1"/><feGaussianBlur in="shadowOffsetOuter1" result="shadowBlurOuter1"/><feColorMatrix values="0 0 0 0 0 0 0 0 0 0 0 0 0 0 0 0 0 0 0.107294497 0" in="shadowBlurOuter1" result="shadowMatrixOuter1"/><feMerge><feMergeNode in="shadowMatrixOuter1"/><feMergeNode in="SourceGraphic"/></feMerge></filter></defs><g fill="none" fill-rule="evenodd"><rect fill="#A9E9F7" width="20" height="20" rx="4"/><path d="M8.41 4.132h2.035L14.5 14.667h-2.085l-.824-2.17H7.295l-.86 2.17H4.352L8.41 4.132zm1.033 2.793L8.04 10.542h2.8L9.442 6.925z" fill="#FFF" filter="url(#aaa)"/></g></svg>
<svg width="40" height="40" viewBox="-10 -10 40 40" id="q" y="40"><title>Q</title><defs><filter x="-50%" y="-50%" width="200%" height="200%" filterUnits="objectBoundingBox" id="aba"><feOffset dx="2" dy="2" in="SourceAlpha" result="shadowOffsetOuter1"/><feGaussianBlur in="shadowOffsetOuter1" result="shadowBlurOuter1"/><feColorMatrix values="0 0 0 0 0 0 0 0 0 0 0 0 0 0 0 0 0 0 0.107294497 0" in="shadowBlurOuter1" result="shadowMatrixOuter1"/><feMerge><feMergeNode in="shadowMatrixOuter1"/><feMergeNode in="SourceGraphic"/></feMerge></filter></defs><g fill="none" fill-rule="evenodd"><rect fill="#E73736" width="20" height="20" rx="4"/><path d="M14.24 13.127l1.834 2.37h-2.377l-.93-1.196c-.77.422-1.627.632-2.572.632-1.58 0-2.894-.546-3.94-1.637-1.045-1.09-1.567-2.39-1.567-3.9 0-1.007.243-1.932.73-2.774.487-.842 1.157-1.51 2.01-2.008.85-.497 1.766-.745 2.745-.745 1.495 0 2.778.54 3.85 1.62 1.07 1.078 1.607 2.393 1.607 3.945 0 1.427-.463 2.66-1.39 3.695zm-1.252-1.62c.425-.63.637-1.326.637-2.09 0-.998-.337-1.845-1.01-2.542-.673-.697-1.487-1.046-2.442-1.046-.983 0-1.807.338-2.47 1.016-.664.678-.996 1.54-.996 2.586 0 1.165.418 2.086 1.253 2.764.654.53 1.397.795 2.228.795.477 0 .926-.092 1.346-.278L9.65 10.284h2.392l.946 1.224z" fill="#FFF" filter="url(#aba)"/></g></svg>
</svg>