<svg xmlns="http://www.w3.org/2000/svg" xmlns:xlink="http://www.w3.org/1999/xlink" width="58" height="870" viewBox="0 0 58 870"><svg preserveAspectRatio="xMidYMid" width="58" height="58" viewBox="0 0 58 58" id="onlineService1" y="0"><defs><style>.cls-1 { fill: #fceded; }.cls-2 { fill: #e60012; fill-rule: evenodd; }</style></defs><circle cx="29" cy="29" r="29" class="cls-1"/><path d="M29.736 31.922h-.022l-5.103-.183c-.335-.013-.6-.3-.587-.64.012-.343.29-.61.63-.598l5.104.183c.336.012.6.298.587.64-.01.334-.282.597-.608.597zm-3.877-9.63c.01-.34.288-.6.63-.596l9.565.342c.336.012.6.3.588.64-.012.334-.282.597-.61.597h-.02l-9.566-.342c-.337-.012-.6-.3-.588-.64zm8.847 5.356h-.022l-8.942-.32c-.336-.012-.6-.3-.587-.64.012-.34.283-.605.63-.597l8.942.32c.336.013.6.3.587.64-.01.335-.282.598-.608.598zm-.214 14.274c-.075.014-.15.024-.225.03-.07.032-.15.048-.232.048h-.006c-.105 0-10.578-.094-16-.225-4.652-.112-5.938-5.953-5.99-6.2-.04-.186.007-.38.125-.525.12-.146.304-.23.484-.224l16.565.39c.23.004.436.14.535.35 1.675 3.544 3.285 5.37 4.524 5.14 3.08-.573 5.476-12.153 6.44-22.905l-17.528-.52c-.19 2.337-1.017 10.853-3.348 15.935-.143.31-.505.443-.81.3-.305-.145-.437-.513-.295-.823 2.568-5.598 3.275-15.984 3.282-16.09.022-.33.285-.602.626-.576l18.757.558c.167.005.325.08.436.207.112.128.167.296.152.466-.472 5.566-2.4 23.72-7.492 24.666zm-5.678-5.48l-15.364-.36c.48 1.436 1.806 4.39 4.61 4.456 3.802.09 10.1.165 13.545.2-.914-.913-1.84-2.34-2.79-4.295z" class="cls-2"/></svg>
<svg preserveAspectRatio="xMidYMid" width="58" height="58" viewBox="0 0 58 58" id="onlineService10" y="58"><defs><style>.cls-1 { fill: #fceded; }.cls-2 { fill: #e60012; fill-rule: evenodd; }</style></defs><circle cx="29" cy="29" r="29" class="cls-1"/><path d="M41.026 40.027C37.82 43.234 33.55 45 29.002 45c-4.55 0-8.82-1.767-12.028-4.974C13.766 36.818 12 32.546 12 28c0-4.548 1.766-8.82 4.974-12.026C20.18 12.766 24.452 11 29 11c4.547 0 8.818 1.766 12.025 4.974C44.233 19.18 46 23.452 46 28c0 4.548-1.766 8.82-4.974 12.027zm-.99-23.064C37.093 14.02 33.173 12.4 29 12.4c-4.174 0-8.094 1.62-11.037 4.563C15.02 19.906 13.4 23.826 13.4 28c0 4.173 1.62 8.093 4.563 11.036C20.907 41.98 24.827 43.6 29 43.6h.002c4.173 0 8.092-1.62 11.035-4.563C42.98 36.095 44.6 32.175 44.6 28c0-4.174-1.62-8.093-4.564-11.037zm-5.72 13.032l1.803 5.895c.162.528-.028 1.106-.475 1.436-.447.325-1.066.332-1.514.024L29 33.817l-5.13 3.532c-.216.15-.473.23-.74.23-.28 0-.546-.088-.77-.253-.45-.33-.64-.907-.478-1.437l1.803-5.895-4.965-3.725c-.446-.336-.63-.916-.46-1.445.17-.53.66-.894 1.216-.906l6.244-.126 2.048-5.83c.182-.52.677-.873 1.232-.873.554 0 1.05.352 1.232.875l2.048 5.83 6.243.124c.558.012 1.046.375 1.216.904.17.528-.014 1.11-.46 1.445l-4.965 3.725zm-2.55-4.812c-.29-.006-.55-.193-.645-.468L29 18.68l-2.12 6.035c-.097.275-.355.462-.646.468l-6.458.13 5.14 3.857c.237.177.337.483.25.765l-1.87 6.11 5.308-3.653c.238-.166.555-.166.793 0l5.306 3.652-1.87-6.11c-.086-.28.014-.587.25-.764l5.14-3.857-6.456-.13z" class="cls-2"/></svg>
<svg preserveAspectRatio="xMidYMid" width="58" height="58" viewBox="0 0 58 58" id="onlineService11" y="116"><defs><style>.cls-1 { fill: #fceded; }.cls-2 { fill: #e60012; fill-rule: evenodd; }</style></defs><circle cx="29" cy="29" r="29" class="cls-1"/><path d="M41.476 34.425h-1.188v4.06c0 .284-.235.515-.524.515H18.23C17 39 16 38.016 16 36.808V22.59c0-1.205.994-2.185 2.22-2.19l-.15-.476c-.042-.13-.03-.273.036-.393.065-.12.176-.21.31-.25l17.225-5.24c.134-.04.277-.026.4.037.123.064.216.173.257.304l1.892 6.02h1.574c.29 0 .524.23.524.515 0 .285-.235.515-.524.515h-1.25l.687 2.187c.015.044.013.09.015.134h.55c.288 0 .523.232.523.517v3.866h1.188c.29 0 .524.23.524.516v5.26c0 .284-.235.515-.524.515zM18.23 21.43c-.65 0-1.18.52-1.18 1.16 0 .64.528 1.16 1.18 1.16h1.043l-.73-2.32h-.314zm17.22-6.25L19.226 20.11l1.145 3.64H36.9l1.144-.33-2.592-8.243zm3.79 9.602H18.23c-.436 0-.838-.127-1.18-.34v12.366c0 .64.53 1.16 1.18 1.16h21.01v-3.543h-3.35c-1.763 0-3.198-1.412-3.198-3.146 0-1.736 1.435-3.147 3.2-3.147h3.347v-3.35zm1.71 4.383h-5.06c-1.185 0-2.15.948-2.15 2.114 0 1.165.965 2.113 2.15 2.113h5.06v-4.228zm-5.415 2.114c0-.392.322-.708.72-.708.396 0 .718.316.718.707 0 .39-.322.706-.72.706-.396 0-.718-.317-.718-.707z" class="cls-2"/></svg>
<svg preserveAspectRatio="xMidYMid" width="58" height="58" viewBox="0 0 58 58" id="onlineService12" y="174"><defs><style>.cls-1 { fill: #fceded; }.cls-2 { fill: #e60012; fill-rule: evenodd; }</style></defs><circle cx="29" cy="29" r="29" class="cls-1"/><path d="M40.744 38.557c.003 1.87-1.56 3.443-3.48 3.443h-14.53c-1.92 0-3.48-1.573-3.48-3.505l-1.25-13.098C18 23.403 19.56 21.83 21.48 21.83h2.152v-5.42C23.632 12.874 26.49 10 30 10c3.51 0 6.367 2.875 6.367 6.41v5.42h2.15c1.92 0 3.483 1.573 3.483 3.505l-1.256 13.222zM35.07 16.41c0-2.816-2.275-5.105-5.07-5.105-2.796 0-5.07 2.29-5.07 5.104v5.42h10.14v-5.42zm3.448 6.726H21.48c-1.204 0-2.183.986-2.183 2.2l1.25 13.096c.003 1.276.983 2.263 2.187 2.263h14.53c1.206 0 2.186-.987 2.186-2.2l1.256-13.223c-.003-1.15-.983-2.136-2.188-2.136zm-6.39 13.673c-.04.328-.317.575-.645.575h-2.965c-.33 0-.605-.247-.644-.576l-.558-4.748c-.003-.025-.005-.05-.005-.076 0-1.492 1.207-2.705 2.688-2.705 1.483 0 2.69 1.214 2.69 2.706 0 .025-.002.05-.005.076l-.556 4.747zm-2.13-6.224c-.755 0-1.37.61-1.39 1.365l.486 4.13h1.812l.484-4.13c-.018-.755-.636-1.364-1.392-1.364z" class="cls-2"/></svg>
<svg preserveAspectRatio="xMidYMid" width="58" height="58" viewBox="0 0 58 58" id="onlineService13" y="232"><defs><style>.cls-1 { fill: #fceded; }.cls-2 { fill: #e60012; fill-rule: evenodd; }</style></defs><circle cx="29" cy="29" r="29" class="cls-1"/><path d="M35.76 44H24.24C22.452 44 21 42.592 21 40.86V17.14c0-1.732 1.453-3.14 3.24-3.14h11.52c1.787 0 3.24 1.408 3.24 3.14V40.86c0 1.732-1.453 3.14-3.24 3.14zm2.002-26.86c0-1.07-.897-1.94-2-1.94H24.238c-1.105 0-2.002.87-2.002 1.94v.954h15.524v-.955zm0 2.154H22.238v17.74h15.524v-17.74zm0 18.94H22.238v2.626c0 1.07.897 1.94 2 1.94h11.523c1.105 0 2.002-.87 2.002-1.94v-2.626zM30 41.964c-.87 0-1.572-.68-1.572-1.523 0-.84.703-1.523 1.572-1.523.87 0 1.572.683 1.572 1.524 0 .843-.703 1.525-1.572 1.525zm0-1.847c-.184 0-.334.146-.334.324 0 .18.15.325.334.325.184 0 .334-.145.334-.324 0-.177-.15-.323-.334-.323z" class="cls-2"/></svg>
<svg preserveAspectRatio="xMidYMid" width="58" height="58" viewBox="0 0 58 58" id="onlineService14" y="290"><defs><style>.cls-1 { fill: #fceded; }.cls-2 { fill: #e60012; fill-rule: evenodd; }</style></defs><circle cx="29" cy="29" r="29" class="cls-1"/><path d="M43.477 34.657L30.825 47.47c-.145.145-.317.262-.527.358-.037.018-.084.037-.13.055-.026.014-.08.037-.132.05-.147.043-.304.065-.464.067h-.008c-.025 0-.053-.002-.08-.006-.175-.007-.348-.042-.52-.104-.05-.018-.1-.038-.152-.062-.196-.086-.37-.203-.517-.35l-15.7-15.594c-.342-.344-.53-.793-.53-1.267L12 17.864c-.002-.474.187-.937.52-1.272.134-.138.297-.25.51-.352.034-.017.072-.033.11-.047.06-.03.112-.05.17-.066.15-.042.305-.064.462-.067L26.5 16c.482 0 .928.184 1.265.52l15.702 15.597c.34.336.53.787.53 1.266.003.48-.182.933-.52 1.274zm-.912-1.624l-15.703-15.6c-.095-.094-.22-.145-.353-.145l-12.72.06c-.033 0-.07.005-.105.012-.023.01-.045.02-.068.028-.106.05-.153.078-.18.11-.1.096-.15.226-.15.36l.06 12.753c.002.134.057.265.154.363l15.7 15.592c.032.033.08.063.145.09.14.055.185.05.248.055.023 0 .044-.004.066-.008.023-.012.046-.02.07-.03.103-.046.15-.076.184-.11l12.652-12.813c.096-.098.15-.225.148-.36 0-.136-.054-.263-.15-.357zm-7.02.597L24.132 35.4c-.21.043-.41-.03-.557-.178-.23-.232-.23-.59 0-.822.105-.106.242-.16.368-.18l11.41-1.77c.2-.053.4.02.548.168.23.232.24.6.01.832-.105.106-.24.16-.368.18zm-4.414-2.087c-1.018 1.023-2.573 1.19-3.624.138-1.03-1.032-.872-2.58.137-3.593l.02-.02c1.03-1.034 2.586-1.18 3.626-.138 1.04 1.042.87 2.58-.138 3.593l-.02.02zm-.672-2.824c-.493-.496-1.27-.307-1.838.263l-.02.02c-.6.6-.736 1.413-.264 1.887.494.496 1.272.306 1.84-.263l.02-.022c.588-.59.736-1.41.262-1.886zm-10.922-1.677c-.867 0-1.682-.338-2.294-.953-1.265-1.27-1.265-3.334 0-4.602.612-.615 1.427-.954 2.294-.954s1.682.34 2.294.954c.613.614.95 1.432.95 2.3 0 .87-.337 1.687-.95 2.302s-1.427.953-2.294.953zm1.386-4.644c-.37-.373-.862-.578-1.386-.578-.524 0-1.016.205-1.387.577-.765.765-.765 2.012 0 2.78.74.742 2.032.743 2.772 0 .37-.372.574-.866.574-1.39 0-.526-.203-1.02-.574-1.39zm7.425 13.897c1.03-1.034 2.584-1.18 3.625-.137 1.03 1.032.872 2.58-.137 3.593l-.02.02c-1.02 1.024-2.586 1.182-3.626.138-1.03-1.03-.873-2.58.136-3.593l.02-.02zm.672 2.824c.493.496 1.27.306 1.838-.262l.02-.02c.59-.592.736-1.414.264-1.888-.494-.496-1.272-.306-1.84.263l-.02.022c-.6.6-.736 1.41-.263 1.886z" class="cls-2"/></svg>
<svg preserveAspectRatio="xMidYMid" width="58" height="58" viewBox="0 0 58 58" id="onlineService15" y="348"><defs><style>.cls-1 { fill: #fceded; }.cls-2 { fill: #e60012; fill-rule: evenodd; }</style></defs><circle cx="29" cy="29" r="29" class="cls-1"/><path d="M35.477 37.552H32.29l-9.21 8.27c-.13.117-.295.178-.46.178-.1 0-.196-.02-.29-.063-.25-.115-.41-.37-.41-.65v-8.065C16.72 35.896 13 30.76 13 24.776 13 17.73 18.17 12 24.522 12h10.955C41.83 12 47 17.73 47 24.776c0 7.045-5.17 12.776-11.523 12.776zm0-24.13H24.522c-5.583 0-10.126 5.094-10.126 11.354 0 5.52 3.514 10.22 8.356 11.176.328.065.565.358.565.7v7.06l8.248-7.406c.128-.114.292-.177.462-.177h3.45c5.584 0 10.127-5.094 10.127-11.354 0-6.26-4.543-11.353-10.127-11.353zm2.608 12.645H22.402c-.386 0-.698-.318-.698-.712 0-.393.312-.712.698-.712h15.683c.386 0 .7.32.7.712 0 .394-.314.712-.7.712zm0-4.708H22.402c-.386 0-.698-.32-.698-.712 0-.393.312-.712.698-.712h15.683c.386 0 .7.32.7.712 0 .393-.314.71-.7.71zm-15.683 7.99h7.7c.385 0 .697.32.697.713 0 .393-.313.712-.7.712h-7.698c-.386 0-.698-.32-.698-.712 0-.393.312-.712.698-.712z" class="cls-2"/></svg>
<svg preserveAspectRatio="xMidYMid" width="58" height="58" viewBox="0 0 58 58" id="onlineService2" y="406"><defs><style>.cls-1 { fill: #fceded; }.cls-2 { fill: #e60012; fill-rule: evenodd; }</style></defs><circle cx="29" cy="29" r="29" class="cls-1"/><path d="M29 44c-8.27 0-15-6.73-15-15s6.73-15 15-15 15 6.73 15 15-6.73 15-15 15zm0-28.776c-7.596 0-13.775 6.18-13.775 13.776S21.405 42.776 29 42.776c7.596 0 13.775-6.18 13.775-13.776S36.595 15.224 29 15.224zm5.77 17.053c0 2.308-1.89 3.99-4.614 4.135v1.535c0 .363-.307.67-.67.67-.363 0-.67-.307-.67-.67v-1.563c-1.804-.172-3.332-.846-4.797-2.115-.136-.117-.29-.286-.29-.57 0-.362.328-.692.69-.692.272 0 .438.138.497.196 1.19 1.105 2.447 1.712 3.942 1.898v-5.85c-3.203-.726-4.57-1.98-4.57-4.173 0-2.242 1.894-3.926 4.525-4.05v-.672c0-.364.308-.67.67-.67.364 0 .67.306.67.67v.722c1.39.14 2.526.6 3.776 1.526.22.17.365.34.365.62 0 .38-.32.69-.714.69-.16 0-.305-.03-.487-.188-.955-.76-1.908-1.19-2.98-1.343v5.738c3.22.702 4.656 1.986 4.656 4.154zm-4.657 2.86c1.922-.095 3.25-1.22 3.25-2.773 0-1.302-.537-2.188-3.25-2.826v5.6zM28.86 22.305c-1.844.096-3.166 1.208-3.166 2.687 0 1.29.525 2.176 3.165 2.844v-5.53z" class="cls-2"/></svg>
<svg preserveAspectRatio="xMidYMid" width="58" height="58" viewBox="0 0 58 58" id="onlineService3" y="464"><defs><style>.cls-1 { fill: #fceded; }.cls-2 { fill: #e60012; fill-rule: evenodd; }</style></defs><circle cx="29" cy="29" r="29" class="cls-1"/><path d="M45.6 19.414l-.075.073-14.943 14.748c-.123.126-.278.228-.454.3l-6.76 2.693c-.166.065-.338.098-.513.098h-.008c-.365 0-.71-.14-.97-.398-.393-.387-.512-.966-.303-1.473l2.727-6.668c.07-.17.175-.326.303-.453l15.013-14.818c.513-.512 1.427-.516 1.95 0l4.03 3.976c.258.26.404.61.404.962 0 .36-.143.702-.4.96zM23.275 34.37l1.194 1.177 4.714-1.878-4.006-3.955-1.902 4.654zm21.492-16.067L40.74 14.33c-.053-.054-.117-.062-.15-.062-.032 0-.095.008-.147.06L25.84 28.74l2.48 2.45c.01-.01.014-.025.025-.035l12.98-12.813c.228-.225.597-.225.825 0 .227.224.227.59 0 .814L29.17 31.968c-.01.01-.025.014-.036.024l1.036 1.023L44.773 18.6c.037-.036.06-.09.06-.146 0-.054-.023-.11-.065-.15zm-11.63-.67H18.415c-.138 0-.25.11-.25.246v21.723c0 .135.112.246.25.246h22.3c.137 0 .25-.112.25-.247V26.317c0-.318.26-.576.582-.576.322 0 .583.26.583.577v13.286c0 .77-.634 1.397-1.414 1.397h-22.3c-.78 0-1.416-.627-1.416-1.397V17.88c0-.772.635-1.4 1.416-1.4h14.72c.323 0 .585.26.585.577 0 .318-.26.575-.583.575z" class="cls-2"/></svg>
<svg preserveAspectRatio="xMidYMid" width="58" height="58" viewBox="0 0 58 58" id="onlineService4" y="522"><defs><style>.cls-1 { fill: #fceded; }.cls-2 { fill: #e60012; fill-rule: evenodd; }</style></defs><circle cx="29" cy="29" r="29" class="cls-1"/><path d="M38.3 45H19.7c-.386 0-.7-.308-.7-.69V14.468c0-.266.154-.498.38-.613l2.975-2.62c.266-.234.67-.234.935 0l2.622 2.308 2.62-2.308c.265-.234.67-.234.935 0l2.62 2.308 2.62-2.308c.267-.234.67-.234.937 0l3.02 2.66c.198.123.336.333.336.573V44.31c0 .382-.314.69-.7.69zm-.702-30.195l-2.422-2.132-2.62 2.308c-.266.235-.67.235-.936 0L29 12.674l-2.62 2.308c-.267.235-.67.235-.936 0l-2.62-2.307-2.422 2.13v28.82h17.196V14.804zm-12.78 18.063h8.02c.388 0 .7.308.7.69 0 .38-.312.688-.7.688h-8.02c-.386 0-.7-.308-.7-.69 0-.38.314-.688.7-.688zm0 5.116h8.02c.388 0 .7.308.7.69 0 .38-.312.688-.7.688h-8.02c-.386 0-.7-.308-.7-.69 0-.38.314-.688.7-.688zm4.758-9.44v.755c0 .3-.244.54-.55.54-.307 0-.563-.24-.563-.54v-.78c-.96-.1-1.84-.44-2.62-.98-.218-.138-.346-.34-.346-.603 0-.39.307-.69.703-.69.154 0 .307.05.422.137.6.427 1.19.716 1.892.84V24.75c-1.866-.477-2.736-1.168-2.736-2.588 0-1.344 1.087-2.274 2.685-2.4v-.264c0-.302.256-.54.563-.54.306 0 .55.238.55.54v.277c.754.088 1.393.326 1.98.69.206.114.384.302.384.604 0 .388-.32.69-.715.69-.128 0-.256-.038-.384-.113-.446-.264-.88-.452-1.316-.553v2.413c1.943.477 2.775 1.243 2.775 2.588 0 1.382-1.1 2.3-2.724 2.45zm-1.062-7.525c-.818.074-1.227.5-1.227 1.054 0 .528.243.855 1.227 1.168V21.02zm1.01 3.97v2.286c.818-.088 1.266-.49 1.266-1.093 0-.553-.28-.892-1.266-1.194z" class="cls-2"/></svg>
<svg preserveAspectRatio="xMidYMid" width="58" height="58" viewBox="0 0 58 58" id="onlineService5" y="580"><defs><style>.cls-1 { fill: #fceded; }.cls-2 { fill: #e60012; fill-rule: evenodd; }</style></defs><circle cx="29" cy="29" r="29" class="cls-1"/><path d="M44.947 19.31c-.053-.17-.176-.31-.338-.382l-8.595-3.803c-.278-.125-.6-.02-.76.242l-2.975 4.9-8.24.97-.472-1.127c-.058-.138-.163-.25-.297-.316l-7.35-3.584c-.228-.112-.5-.067-.682.112-.183.178-.238.453-.14.69l2.388 5.7v14.52c0 .21.105.406.278.52l7.79 5.148c.025.016.052.024.077.036.02.01.04.02.06.027.064.023.13.037.196.037.023 0 .046 0 .07-.004l14.548-1.716c.306-.037.538-.3.538-.616V26.17l3.842-6.348c.093-.153.116-.34.063-.512zm-12.913 2.234v4.84l-5.564.655-1.932-4.613 7.496-.883zm1.216.444l5.46 3.607-5.46.644v-4.252zm-10.71-1.176l2.3 5.49-6.26-4.135-1.73-4.13 5.69 2.775zm-3.838 2.912l6.576 4.345v13.17l-6.576-4.345v-13.17zm7.792 17.96v-13.4l13.332-1.572v13.4l-13.332 1.572zm13.75-16.553l-6.77-4.472 2.54-4.183 7.467 3.305-3.237 5.35z" class="cls-2"/></svg>
<svg preserveAspectRatio="xMidYMid" width="58" height="58" viewBox="0 0 58 58" id="onlineService6" y="638"><defs><style>.cls-1 { fill: #fceded; }.cls-2 { fill: #e60012; fill-rule: evenodd; }</style></defs><circle cx="29" cy="29" r="29" class="cls-1"/><path d="M44.355 43H20.02c-.356 0-.645-.285-.645-.638v-7.09c0-.352.29-.637.645-.637.356 0 .645.285.645.638v2.595c2.017.282 3.614 1.862 3.9 3.857h15.313c.276-2.062 1.86-3.684 3.833-3.885v-5.477c-1.506-.156-2.848-1.14-3.488-2.615-.14-.323.01-.7.338-.838.325-.138.705.01.847.335.435 1 1.312 1.69 2.304 1.842v-2.6h-.41c-.356 0-.645-.284-.645-.636 0-.352.29-.637.645-.637h1.055c.356 0 .645.285.645.638v14.512c0 .353-.29.638-.645.638zm-23.69-3.842v2.567h2.595c-.26-1.292-1.29-2.31-2.595-2.567zm23.046-.02c-1.266.193-2.283 1.234-2.53 2.587h2.53V39.14zm-15.166-4.885c0-.268.22-.485.49-.485h.59c.467-1.546 1.648-2.538 3.037-2.538 1.052 0 1.83.394 2.525 1.278.09.105.14.24.14.37 0 .297-.254.548-.554.548-.23 0-.374-.127-.44-.203-.512-.67-.987-.93-1.7-.93-.79 0-1.467.56-1.804 1.475h2.217c.27 0 .5.222.5.485s-.23.485-.5.485h-2.44c-.013.147-.02.293-.02.438 0 .13 0 .257.008.375h2.453c.276 0 .5.224.5.496 0 .263-.23.485-.5.485H30.79c.34.975 1.06 1.55 1.956 1.55.63 0 1.134-.3 1.63-.974.106-.14.253-.212.427-.212.304 0 .543.23.543.526 0 .102-.038.21-.112.32-.703.958-1.503 1.402-2.52 1.402-1.507 0-2.696-.996-3.127-2.61h-.553c-.27 0-.49-.218-.49-.486 0-.272.22-.495.49-.495h.4c-.005-.117-.01-.233-.01-.353 0-.156.006-.31.017-.46h-.406c-.27 0-.49-.217-.49-.484zm12.804-7.066l-23.335 6.827c-.06.018-.123.027-.183.027-.28 0-.535-.18-.618-.456l-1.12-3.745v-.002L13.047 19.67c-.048-.163-.03-.337.052-.486.082-.15.22-.26.384-.307L36.82 12.05c.162-.05.34-.03.49.05.15.08.262.217.31.38l4.163 13.914c.05.162.03.337-.05.486-.083.15-.22.26-.385.307zM18.265 32.61l2.49-.727c-.62-1.166-1.9-1.854-3.226-1.733l.735 2.46zm-3.797-12.69l.737 2.462c.575-.298 1.05-.756 1.366-1.333.318-.578.45-1.22.39-1.86l-2.492.73zm22.098-6.468l-2.438.713c.293.604.75 1.092 1.33 1.403.57.306 1.206.396 1.827.287l-.72-2.403zm1.087 3.633c-.283.06-.568.1-.852.1-.673 0-1.342-.166-1.957-.496-.868-.467-1.556-1.237-1.96-2.16l-14.675 4.294c.147.97-.022 1.957-.504 2.834s-1.227 1.553-2.13 1.96l1.585 5.295c2.014-.297 4 .77 4.845 2.604L36.42 27.3c-.338-2.14.83-4.268 2.79-5.013l-1.557-5.202zm1.927 6.44c-1.29.544-2.065 1.946-1.906 3.407l2.69-.787-.784-2.62zM29.056 26.55l.172.573c.077.256-.078.538-.338.615-.044.013-.09.02-.135.02-.22 0-.426-.15-.488-.354l-.178-.596c-.807.133-1.588.042-2.42-.285-.187-.065-.31-.192-.366-.375-.085-.283.084-.583.377-.67.122-.036.256-.028.367.02.647.282 1.193.38 1.777.312l-.667-2.228c-1.617.07-2.465-.367-2.79-1.447-.32-1.08.308-2.14 1.538-2.628l-.05-.17c-.037-.12-.02-.257.043-.375.064-.116.17-.204.294-.24.25-.07.548.087.623.334l.058.197c.623-.09 1.19-.04 1.847.17.145.05.338.144.408.378.043.146.024.295-.052.422-.073.12-.192.21-.335.253-.08.023-.216.04-.347-.01-.45-.156-.854-.223-1.25-.2l.652 2.18c1.616-.084 2.496.36 2.816 1.43.33 1.1-.292 2.16-1.554 2.674zm-2.827-6.07c-.625.272-.938.773-.785 1.284.14.463.402.716 1.384.722l-.6-2.005zm3.304 3.765c-.135-.453-.407-.715-1.396-.715h-.02l.617 2.056c.66-.288.963-.79.8-1.34z" class="cls-2"/></svg>
<svg preserveAspectRatio="xMidYMid" width="58" height="58" viewBox="0 0 58 58" id="onlineService7" y="696"><defs><style>.cls-1 { fill: #fceded; }.cls-2 { fill: #e60012; fill-rule: evenodd; }</style></defs><circle cx="29" cy="29" r="29" class="cls-1"/><path d="M40.475 37.87v3.418c0 .29-.17.553-.43.66-.083.036-.17.052-.256.052-.184 0-.365-.076-.497-.22l-3.543-3.842h-1.918c-2.022 0-3.946-1.095-5.145-2.93-.213-.324-.132-.767.182-.988.312-.22.74-.137.952.19.958 1.463 2.42 2.303 4.01 2.303h2.21c.188 0 .366.08.496.22l2.565 2.78V37.22c0-.384.293-.698.663-.712 2.726-.097 4.862-2.628 4.862-5.76 0-3.18-2.252-5.768-5.02-5.768-.38 0-.686-.318-.686-.712 0-.393.306-.712.686-.712 3.524 0 6.392 3.225 6.392 7.19 0 3.654-2.378 6.65-5.525 7.125zM28.88 32.7h-2.307l-6.8 6.22c-.128.116-.29.177-.454.177-.097 0-.193-.02-.284-.064-.245-.114-.403-.368-.403-.648V32.41C14.757 31.334 12 27.41 12 22.85c0-5.43 3.918-9.85 8.734-9.85h8.146c4.816 0 8.734 4.42 8.734 9.85s-3.918 9.85-8.734 9.85zm0-18.275h-8.146c-4.06 0-7.362 3.78-7.362 8.425 0 4.097 2.556 7.584 6.078 8.293.322.065.555.358.555.7v4.965l5.855-5.356c.125-.114.287-.178.454-.178h2.566c4.06 0 7.362-3.78 7.362-8.424 0-4.646-3.303-8.425-7.362-8.425zm2.006 6.99H18.654c-.38 0-.686-.318-.686-.71 0-.395.306-.714.686-.714h12.232c.38 0 .686.32.686.714 0 .393-.307.712-.686.712zM18.654 24.51h6.004c.38 0 .686.32.686.713 0 .393-.307.712-.686.712h-6.004c-.38 0-.686-.32-.686-.712 0-.394.306-.713.686-.713z" class="cls-2"/></svg>
<svg preserveAspectRatio="xMidYMid" width="58" height="58" viewBox="0 0 58 58" id="onlineService8" y="754"><defs><style>.cls-1 { fill: #fceded; }.cls-2 { fill: #e60012; fill-rule: evenodd; }</style></defs><circle cx="29" cy="29" r="29" class="cls-1"/><path d="M39.554 31.765l-5.557-5.524c-.425-.42-1.152-.45-1.624-.02l-.34.33c-.414.397-1.092 1.05-1.3 1.245.003-.003.005-.005.006-.008-.742 0-2.96-1.45-4.613-3.636-.89-1.177-1.063-1.868-1.06-2.08l1.623-1.565c.218-.21.343-.503.345-.8.004-.3-.117-.596-.33-.808l-5.537-5.556c-.213-.213-.51-.338-.825-.34-.303 0-.59.115-.81.326l-.264.255c-.48.465-1.44 1.39-1.463 1.414l-.06.06c-3.424 3.44-1.9 8.038 4.944 14.905 4.596 4.61 8.247 6.853 11.16 6.853.812 0 1.576-.176 2.273-.522.375-.186.69-.404.958-.613.137.818.094 2.424-1.673 4.164-.85.837-1.85 1-2.542.972-1.26-.033-2.55-.642-3.468-1.647l-9.223-9.312c-.017-.017-.034-.033-.053-.047-.87-.694-3.01-1.546-4.88.186-.762.702-1.207 1.693-1.224 2.72-.016 1.026.397 2.03 1.135 2.756l3.222 3.17c.235.23.617.23.852 0 .236-.232.236-.608 0-.84l-3.22-3.17c-.51-.5-.794-1.19-.783-1.898.013-.706.32-1.39.844-1.873 1.486-1.375 3.012-.344 3.275-.148l9.177 9.266c1.116 1.224 2.73 1.98 4.315 2.022l.144.002c1.27 0 2.404-.455 3.283-1.32 2.748-2.706 2.056-5.277 1.828-5.905.495-.474 1.447-1.39 1.49-1.434.422-.445.413-1.137-.024-1.575zM36.98 34.18l-.108.098c-.306.284-.726.672-1.295.954-.532.265-1.097.395-1.727.395-2.537 0-6.002-2.187-10.3-6.498-9.066-9.102-6.176-12.006-4.944-13.245l.058-.057c.05-.05.98-.948 1.448-1.4l.23-.222 5.47 5.487-1.674 1.613c-.592.615-.22 1.91 1.022 3.554 1.716 2.268 4.22 4.113 5.58 4.113.206 0 .393-.04.546-.117.092-.045.176-.103.232-.16.09-.08.89-.85 1.357-1.3l.3-.287 5.488 5.454c-.262.255-1.6 1.54-1.683 1.616z" class="cls-2"/></svg>
<svg preserveAspectRatio="xMidYMid" width="58" height="58" viewBox="0 0 58 58" id="onlineService9" y="812"><defs><style>.cls-1 { fill: #fceded; }.cls-2 { fill: #e60012; fill-rule: evenodd; }</style></defs><circle cx="29" cy="29" r="29" class="cls-1"/><path d="M44.354 38.245h-1.807c.073.298.116.608.116.93 0 2.11-1.68 3.825-3.747 3.825-2.066 0-3.747-1.716-3.747-3.826 0-.32.042-.63.115-.93H24.3c.074.3.117.61.117.93 0 2.11-1.68 3.826-3.747 3.826-2.066 0-3.747-1.716-3.747-3.826 0-.32.043-.63.116-.93h-2.065c-.357 0-.646-.294-.646-.66v-2.772h-.684c-.357 0-.646-.295-.646-.66V18.66c0-.365.29-.66.646-.66h21.23c.356 0 .645.295.645.66v3.982h5.913c.14 0 .28.047.393.135.106.083 2.598 2.08 2.598 5.938v4.78c.324.037.576.317.576.657v3.433c0 .365-.29.66-.646.66zm-5.438 3.436c1.354 0 2.455-1.123 2.455-2.506 0-1.382-1.1-2.506-2.454-2.506s-2.455 1.124-2.455 2.506c0 1.383 1.102 2.507 2.456 2.507zm-18.246 0c1.353 0 2.454-1.123 2.454-2.506 0-1.382-1.1-2.506-2.454-2.506s-2.455 1.124-2.455 2.506c0 1.383 1.1 2.507 2.455 2.507zM34.23 23.3v-3.98H14.29V33.49H34.23v-10.19zm5.096.66H35.52v4.97h3.806v-4.97zm3.806 4.755c0-2.696-1.457-4.298-1.94-4.754h-.573v4.97h2.512v-.215zm.576 6.093c-.324-.036-.576-.316-.576-.656V30.25h-7.61v3.902c0 .365-.29.66-.647.66H15.62v2.114h2.025c.682-.954 1.782-1.577 3.025-1.577 1.242 0 2.342.622 3.025 1.576H35.89c.683-.954 1.784-1.577 3.026-1.577 1.243 0 2.343.622 3.025 1.576h1.768v-2.118zM20.67 38.313c.465 0 .844.386.844.86 0 .477-.38.863-.844.863-.466 0-.845-.386-.845-.862 0-.475.38-.86.845-.86zm18.246 0c.465 0 .844.386.844.86 0 .477-.38.863-.844.863-.466 0-.844-.386-.844-.862 0-.475.378-.86.844-.86zm1.73-16.425c-.197 0-.392-.09-.518-.265-.015-.02-1.5-2.025-3.145-2.025h-.004c-.358 0-.647-.295-.648-.66 0-.364.29-.66.645-.66h.006c2.3 0 4.107 2.454 4.183 2.56.212.29.152.703-.135.92-.114.088-.25.13-.383.13z" class="cls-2"/></svg>
</svg>