<?xml version="1.0" encoding="UTF-8" standalone="no"?>
<svg width="16px" height="16px" viewBox="0 0 16 16" version="1.1" xmlns="http://www.w3.org/2000/svg" xmlns:xlink="http://www.w3.org/1999/xlink" xmlns:sketch="http://www.bohemiancoding.com/sketch/ns">
    <!-- Generator: Sketch 3.4 (15575) - http://www.bohemiancoding.com/sketch -->
    <title>Imported Layers</title>
    <desc>Created with Sketch.</desc>
    <defs></defs>
    <g id="Page-1" stroke="none" stroke-width="1" fill="none" fill-rule="evenodd" sketch:type="MSPage">
        <g id="Group-+-Imported-Layers" sketch:type="MSLayerGroup" transform="translate(-232.000000, -178.000000)" fill="#1A1918">
            <g id="Imported-Layers" transform="translate(232.000000, 178.000000)" sketch:type="MSShapeGroup">
                <path d="M15.492,2.19633333 L10.4946667,2.19633333 L9.849,0.487666667 C9.79966667,0.358 9.67566667,0.272333333 9.537,0.272333333 L6.432,0.272333333 C6.29333333,0.272333333 6.16933333,0.358 6.12,0.487666667 L5.47466667,2.19633333 L0.477333333,2.19633333 C0.293,2.19633333 0.144,2.34566667 0.144,2.52966667 C0.144,2.71366667 0.293,2.863 0.477333333,2.863 L1.588,2.863 L2.522,15.6733333 C2.535,15.8473333 2.67966667,15.9823333 2.85433333,15.9823333 L13.1146667,15.9823333 C13.2893333,15.9823333 13.4343333,15.8473333 13.447,15.6733333 L14.3806667,2.863 L15.492,2.863 C15.676,2.863 15.8253333,2.71366667 15.8253333,2.52966667 C15.8253333,2.34566667 15.676,2.19633333 15.492,2.19633333 L15.492,2.19633333 Z M6.66233333,0.939 L9.30666667,0.939 L9.74366667,2.095 L6.22566667,2.095 L6.66233333,0.939 L6.66233333,0.939 Z M12.8046667,15.3156667 L3.16433333,15.3156667 L2.25633333,2.863 L13.7126667,2.863 L12.8046667,15.3156667 L12.8046667,15.3156667 Z" id="Fill-1"></path>
                <path d="M7.98433333,13.9843333 C8.16866667,13.9843333 8.31766667,13.835 8.31766667,13.651 L8.31766667,4.46066667 C8.31766667,4.27666667 8.16866667,4.12733333 7.98433333,4.12733333 C7.8,4.12733333 7.651,4.27666667 7.651,4.46066667 L7.651,13.651 C7.651,13.835 7.8,13.9843333 7.98433333,13.9843333" id="Fill-2"></path>
                <path d="M10.4506667,13.9836667 C10.458,13.9843333 10.4646667,13.9843333 10.472,13.9843333 C10.6466667,13.9843333 10.7933333,13.8483333 10.8043333,13.672 L11.3786667,4.48166667 C11.39,4.298 11.2503333,4.13966667 11.0666667,4.128 C10.8826667,4.11466667 10.7246667,4.256 10.7133333,4.44 L10.139,13.6303333 C10.1276667,13.814 10.2673333,13.972 10.4506667,13.9836667" id="Fill-3"></path>
                <path d="M5.49666667,13.9843333 C5.50366667,13.9843333 5.51066667,13.9843333 5.518,13.9836667 C5.70166667,13.9723333 5.841,13.814 5.82966667,13.6303333 L5.256,4.44 C5.24433333,4.25633333 5.091,4.11566667 4.90233333,4.128 C4.71866667,4.13933333 4.579,4.298 4.59066667,4.48166667 L5.16433333,13.672 C5.17533333,13.8483333 5.32233333,13.9843333 5.49666667,13.9843333" id="Fill-4"></path>
            </g>
        </g>
    </g>
</svg>