<svg xmlns="http://www.w3.org/2000/svg" xmlns:xlink="http://www.w3.org/1999/xlink" width="0" height="0" style="position:absolute">

<symbol id="icon-account" viewBox="0 0 15 15">
        <title>icon-account</title><path d="M7.5 8.75s-5.455 0-7.5 4.375c0 0 3.416 1.25 7.5 1.25s7.5-1.25 7.5-1.25C12.955 8.75 7.5 8.75 7.5 8.75zm0-.625c2.045 0 3.41-1.875 3.41-5S7.5 0 7.5 0 4.09 0 4.09 3.125s1.365 5 3.41 5z" fill-rule="evenodd"/>
</symbol>

<symbol id="icon-alipay" viewBox="0 0 36 36">
        <title>Clip 5 Copy</title><defs><path id="aba" d="M18 36c9.94 0 18-8.06 18-18S27.94 0 18 0 0 8.06 0 18s8.06 18 18 18z"/></defs><g fill="none" fill-rule="evenodd"><use fill="#0AE" xlink:href="#aba"/><path d="M15.545 10.758V7.87h3.194v2.888h6.52v1.27l-6.52.043v1.795l5.383.043s-.098 1.007-.78 2.837c-.682 1.83-1.322 2.765-1.322 2.765l10.446 3.427s-.375.98-.826 1.84c-.452.86-1.08 1.784-1.08 1.784l-9.983-4.73s-1.888 2.086-3.813 3.006c-1.926.918-4.136 1.49-6.53.925-2.395-.563-4.094-2.094-3.802-4.92.293-2.828 3.314-3.802 5.8-3.802 2.485 0 7.2 1.61 7.2 1.61s.397-.888.782-1.903c.385-1.014.494-1.83.494-1.83H10.666v-1.007h4.88v-1.925l-6.083.044v-1.27h6.082zm2.686 9.904s-2.99 3.55-6.51 3.55c-3.524 0-4.264-1.685-4.264-2.9 0-1.213.732-2.532 3.73-2.722 2.997-.19 7.045 2.072 7.045 2.072z" fill="#FFF"/></g>
</symbol>

<symbol id="icon-close" viewBox="0 0 17 15">
        <title>icon-close</title><g transform="translate(1)" fill="none" fill-rule="evenodd"><path d="M14.958.042L.042 14.958M14.958 14.958L.042.042"/></g>
</symbol>

<symbol id="icon-logo" viewBox="0 0 95 95">
        <title>icon-logo</title><g fill="none" fill-rule="evenodd"><path d="M94.253 47.627c0 25.87-20.972 46.84-46.842 46.84-25.87 0-46.84-20.97-46.84-46.84C.57 21.757 21.54.787 47.41.787c25.87 0 46.843 20.97 46.843 46.84" fill="#DD3D42"/><path d="M61.377 82.284c-2.446 0-4.436-1.99-4.436-4.436v-7.853c0-.625.51-1.132 1.134-1.132.625 0 1.132.507 1.132 1.132v7.853c0 1.196.974 2.17 2.17 2.17 1.2 0 2.174-.974 2.174-2.17 0-.626.507-1.133 1.133-1.133.625 0 1.132.507 1.132 1.133 0 2.446-1.99 4.436-4.438 4.436M67.216 46.395c-.625 0-1.132-.506-1.132-1.133 0-1.43-1.163-2.593-2.592-2.593-1.43 0-2.592 1.163-2.592 2.592 0 .627-.508 1.133-1.133 1.133-.626 0-1.132-.506-1.132-1.133 0-2.677 2.18-4.857 4.857-4.857 2.678 0 4.856 2.18 4.856 4.857 0 .627-.506 1.133-1.132 1.133M35.12 46.395c-.624 0-1.13-.506-1.13-1.133 0-1.43-1.164-2.593-2.594-2.593s-2.592 1.163-2.592 2.592c0 .627-.507 1.133-1.132 1.133-.625 0-1.133-.506-1.133-1.133 0-2.677 2.178-4.857 4.856-4.857s4.858 2.18 4.858 4.857c0 .627-.507 1.133-1.133 1.133M43.855 82.296c-.625 0-1.13-.507-1.13-1.13v-9.25c0-.626.505-1.133 1.13-1.133.626 0 1.133.507 1.133 1.132v9.25c0 .624-.507 1.13-1.133 1.13M50.965 82.296c-.626 0-1.133-.507-1.133-1.13v-9.25c0-.626.507-1.133 1.133-1.133.624 0 1.132.507 1.132 1.132v9.25c0 .624-.508 1.13-1.132 1.13M33.556 82.284c-2.383 0-4.322-1.94-4.322-4.323 0-.626.507-1.132 1.132-1.132.626 0 1.132.506 1.132 1.133 0 1.135.924 2.058 2.058 2.058 1.135 0 2.058-.923 2.058-2.057v-7.965c0-.625.507-1.132 1.133-1.132.625 0 1.132.507 1.132 1.132v7.966c0 2.383-1.94 4.324-4.324 4.324M47.444 61.273c-3.766 0-6.83-3.065-6.83-6.83 0-3.766 3.064-6.83 6.83-6.83s6.83 3.064 6.83 6.83c0 3.765-3.064 6.83-6.83 6.83zm0-11.394c-2.517 0-4.565 2.046-4.565 4.562 0 2.518 2.047 4.565 4.564 4.565s4.565-2.047 4.565-4.565c0-2.516-2.05-4.563-4.566-4.563z" fill="#FFF"/><path d="M58.492 71.048l-.835-2.106c10.684-4.23 17.587-14.393 17.587-25.887 0-15.348-12.485-27.834-27.833-27.834-15.346 0-27.833 12.487-27.833 27.835 0 11.494 6.903 21.655 17.586 25.887l-.834 2.106c-5.546-2.197-10.28-5.96-13.686-10.885-3.49-5.04-5.332-10.956-5.332-17.108 0-16.597 13.503-30.098 30.1-30.098 16.596 0 30.097 13.5 30.097 30.098 0 6.152-1.844 12.07-5.332 17.11-3.408 4.922-8.14 8.687-13.686 10.883" fill="#FFF"/></g>
</symbol>

<symbol id="icon-password" viewBox="0 0 18 19">
        <title>icon-password</title><path d="M7.875 11.613H6.187v-.034c-.185.018-.37.033-.562.033C2.52 11.613 0 9.095 0 5.988S2.52.363 5.625.363c3.106 0 5.625 2.518 5.625 5.625v2.25h.563V8.8h.562v.563h.563v.563h.562v.562h.563v.563h.562v.563h.563v.563h.562v.562h.563v.563h.562v.563h.563v.563H18V17.8c0 .312-.25.563-.563.563h-2.25c-.31 0-.562-.25-.562-.563v-2.25h-2.813c-.31 0-.562-.25-.562-.562v-2.25H8.437l-.562-1.125zm-3.375-9c-1.243 0-2.25 1.007-2.25 2.25s1.007 2.25 2.25 2.25 2.25-1.007 2.25-2.25-1.007-2.25-2.25-2.25z" fill-rule="evenodd"/>
</symbol>

<symbol id="icon-reflash" viewBox="0 0 18 18">
        <title>icon-reflash</title><path d="M18 6.75h-6.75l2.523-2.523C12.498 2.952 10.803 2.25 9 2.25c-1.803 0-3.498.702-4.773 1.977C2.952 5.502 2.25 7.197 2.25 9c0 1.803.702 3.498 1.977 4.773C5.502 15.048 7.197 15.75 9 15.75c1.803 0 3.498-.702 4.773-1.977.106-.106.208-.216.307-.328l1.693 1.48C14.123 16.81 11.7 18 9 18c-4.97 0-9-4.03-9-9s4.03-9 9-9c2.485 0 4.735 1.008 6.364 2.636L18 0v6.75z" fill="#E5E5E5" fill-rule="evenodd"/>
</symbol>

<symbol id="icon-success" viewBox="0 0 17 14">
        <title>icon-success</title><path d="M16.87.913L5.498 13.82 0 5.747l.855-.9 4.642 4.965L15.94 0l.93.913z" fill="#5BC2D8" fill-rule="evenodd"/>
</symbol>

<symbol id="icon-username" viewBox="0 0 20 20">
        <title>icon-username</title><path d="M10 12.03s-7.273 0-10 5.833c0 0 4.555 1.667 10 1.667s10-1.667 10-1.667c-2.727-5.833-10-5.833-10-5.833zm0-.834c2.727 0 4.545-2.5 4.545-6.666C14.545.363 10 .363 10 .363s-4.545 0-4.545 4.167c0 4.166 1.818 6.666 4.545 6.666z" fill-rule="evenodd"/>
</symbol>

<symbol id="icon-webchat" viewBox="0 0 36 36">
        <title>icon-webchat</title><g fill="none" fill-rule="evenodd"><path d="M18 0C8.064 0 0 8.06 0 18s8.064 18 18 18 17.996-8.06 17.996-18S27.936 0 18 0z" fill="#64B406"/><path d="M28.91 27.253l.773 2.568-2.817-1.543c-1.028.258-2.06.516-3.082.516-4.887 0-8.736-3.34-8.736-7.453 0-4.107 3.85-7.453 8.736-7.453 4.613 0 8.723 3.346 8.723 7.453 0 2.316-1.535 4.368-3.598 5.913z" fill="#FFF"/><path d="M13.76 23.656c-1.282 0-2.312-.262-3.597-.515l-3.59 1.8 1.026-3.09c-2.57-1.795-4.11-4.112-4.11-6.932 0-4.887 4.624-8.735 10.27-8.735 5.05 0 9.473 3.073 10.362 7.212-.325-.037-.655-.06-.988-.06-4.88 0-8.732 3.64-8.732 8.128 0 .746.116 1.465.316 2.153-.317.024-.636.04-.958.04z" fill="#FFF"/><path d="M20.75 17.253c-.49 0-.985.495-.985.985 0 .5.494.986.985.986.745 0 1.233-.487 1.233-.986 0-.49-.488-.985-1.233-.985M26.168 17.253c-.488 0-.978.495-.978.985 0 .5.49.986.978.986.738 0 1.233-.487 1.233-.986 0-.49-.494-.985-1.232-.985M10.653 10.11c-.738 0-1.483.486-1.483 1.228 0 .738.745 1.233 1.483 1.233.738 0 1.23-.494 1.23-1.232 0-.742-.492-1.23-1.23-1.23M17.547 12.57c.74 0 1.233-.494 1.233-1.232 0-.742-.492-1.23-1.233-1.23-.738 0-1.48.488-1.48 1.23 0 .738.742 1.233 1.48 1.233" fill="#64B406"/></g>
</symbol>
</svg>