<?xml version="1.0" encoding="UTF-8" standalone="no"?>
<svg width="37px" height="36px" viewBox="0 0 37 36" version="1.1" xmlns="http://www.w3.org/2000/svg" xmlns:xlink="http://www.w3.org/1999/xlink" xmlns:sketch="http://www.bohemiancoding.com/sketch/ns">
    <!-- Generator: Sketch 3.4 (15575) - http://www.bohemiancoding.com/sketch -->
    <title>icon-footer1</title>
    <desc>Created with Sketch.</desc>
    <defs></defs>
    <g id="Page-1" stroke="none" stroke-width="1" fill="none" fill-rule="evenodd" sketch:type="MSPage">
        <g id="美妆首页-copy-2" sketch:type="MSArtboardGroup" transform="translate(-400.000000, -4560.000000)" fill="#FFFFFF">
            <g id="icon-footer1" sketch:type="MSLayerGroup" transform="translate(400.000000, 4560.000000)">
                <path d="M36.2229102,17.9996352 C36.2229102,8.1417192 28.2062502,0.113099702 18.3129913,0.00510772848 C18.2762816,0.00437805298 18.2410403,0 18.2043306,0 L18.2043306,0.00218902649 C18.1734945,0.00218902649 18.1426583,0 18.1118222,0 C18.0949358,0 18.0787835,0.00145935099 18.061897,0.00145935099 L18.061897,0 C18.0420738,0 18.0222506,0.00218902649 18.0031616,0.00291870199 C8.06585102,0.0612927418 0,8.11107283 0,17.9996352 C0,27.8889272 8.06585102,35.9379776 18.0031616,35.9970813 C18.0222506,35.9970813 18.0420738,36 18.061897,36 L18.061897,35.9985406 C18.0787835,35.9985406 18.0949358,36 18.1118222,36 C18.1426583,36 18.1734945,35.997811 18.2043306,35.997811 L18.2043306,36 C18.2410403,36 18.2762816,35.9956219 18.3129913,35.9948923 C28.2062502,35.8869003 36.2229102,27.8582808 36.2229102,17.9996352 L36.2229102,17.9996352 Z M1.48674206,18.7293107 L8.64733236,18.7293107 C8.69432075,21.0795954 8.96670658,23.299998 9.42557759,25.3175507 L3.19153963,25.3175507 C2.19303632,23.3153212 1.59099756,21.0861625 1.48674206,18.7293107 L1.48674206,18.7293107 Z M34.7361682,17.2699597 L27.6174269,17.2699597 C27.5719069,14.9641851 27.3097998,12.783185 26.867081,10.7962787 L33.0908403,10.7962787 C34.0548365,12.7685915 34.6341152,14.9583477 34.7361682,17.2699597 L34.7361682,17.2699597 Z M26.1497739,17.2699597 L18.8460158,17.2699597 L18.8460158,10.7962787 L25.3340848,10.7962787 C25.8098422,12.778807 26.0983803,14.9714818 26.1497739,17.2699597 L26.1497739,17.2699597 Z M18.8460158,9.33692766 L18.8460158,1.52064374 C21.3826547,1.96574579 23.6256162,5.01068164 24.9376202,9.33692766 L18.8460158,9.33692766 L18.8460158,9.33692766 Z M17.3776286,1.52721082 L17.3776286,9.33692766 L11.3278732,9.33692766 C12.6325353,5.03476093 14.8578761,1.99858119 17.3776286,1.52721082 L17.3776286,1.52721082 Z M17.3776286,10.7962787 L17.3776286,17.2699597 L10.1157196,17.2699597 C10.1663789,14.9714818 10.4556512,12.778807 10.9314087,10.7962787 L17.3776286,10.7962787 L17.3776286,10.7962787 Z M8.64733236,17.2699597 L1.48674206,17.2699597 C1.58879498,14.9583477 2.16807374,12.7685915 3.13206995,10.7962787 L9.39841242,10.7962787 C8.95569367,12.783185 8.69358656,14.9641851 8.64733236,17.2699597 L8.64733236,17.2699597 Z M10.1157196,18.7293107 L17.3776286,18.7293107 L17.3776286,25.3175507 L10.9600422,25.3175507 C10.4681325,23.3051057 10.1678473,21.0722987 10.1157196,18.7293107 L10.1157196,18.7293107 Z M17.3776286,26.7769017 L17.3776286,34.4720595 C14.8806361,34.0050672 12.6729159,31.0185054 11.3631145,26.7769017 L17.3776286,26.7769017 L17.3776286,26.7769017 Z M18.8460158,34.4793563 L18.8460158,26.7769017 L24.9023789,26.7769017 C23.5852356,31.041855 21.3606289,34.0386323 18.8460158,34.4793563 L18.8460158,34.4793563 Z M18.8460158,25.3175507 L18.8460158,18.7293107 L26.1497739,18.7293107 C26.0976461,21.0722987 25.7973609,23.3051057 25.3054512,25.3175507 L18.8460158,25.3175507 L18.8460158,25.3175507 Z M27.6174269,18.7293107 L34.7361682,18.7293107 C34.6326469,21.0861625 34.0298739,23.3153212 33.0321048,25.3175507 L26.8399159,25.3175507 C27.2987869,23.299998 27.5704385,21.0795954 27.6174269,18.7293107 L27.6174269,18.7293107 Z M32.2817589,9.33692766 L26.5007184,9.33692766 C25.6329016,6.25404869 24.3076821,3.7403166 22.688051,2.10000608 C26.7173055,3.24778564 30.1269007,5.86732067 32.2817589,9.33692766 L32.2817589,9.33692766 Z M13.5950631,2.08322354 C11.9673559,3.72280439 10.6355287,6.24310355 9.76404084,9.33692766 L3.94115131,9.33692766 C6.10702246,5.84980846 9.5393776,3.22151732 13.5950631,2.08322354 L13.5950631,2.08322354 Z M4.01457067,26.7769017 L9.79854794,26.7769017 C10.6700358,29.8181892 11.9879133,32.2976265 13.5950631,33.9160468 C9.58416341,32.7908872 6.18484698,30.2063766 4.01457067,26.7769017 L4.01457067,26.7769017 Z M22.688051,33.8999939 C24.2878589,32.2801143 25.5983945,29.8072441 26.4669455,26.7769017 L32.2083395,26.7769017 C30.0490761,30.189594 26.6725197,32.7646188 22.688051,33.8999939 L22.688051,33.8999939 Z" id="Imported-Layers" sketch:type="MSShapeGroup"></path>
            </g>
        </g>
    </g>
</svg>