<?xml version="1.0" encoding="UTF-8" standalone="no"?>
<svg width="30px" height="30px" viewBox="0 0 30 30" version="1.1" xmlns="http://www.w3.org/2000/svg" xmlns:xlink="http://www.w3.org/1999/xlink" xmlns:sketch="http://www.bohemiancoding.com/sketch/ns">
    <!-- Generator: Sketch 3.4 (15575) - http://www.bohemiancoding.com/sketch -->
    <title>Rectangle 44 + Page 1</title>
    <desc>Created with Sketch.</desc>
    <defs>
        <path id="path-1" d="M0,0.29 L15.6813333,0.29 L15.6813333,16 L0,16 L0,0.29 Z"></path>
    </defs>
    <g id="Page-1" stroke="none" stroke-width="1" fill="none" fill-rule="evenodd" sketch:type="MSPage">
        <g id="个人中心收藏" sketch:type="MSArtboardGroup" transform="translate(-999.000000, -313.000000)">
            <g id="Rectangle-44-+-Page-1" sketch:type="MSLayerGroup" transform="translate(999.000000, 313.000000)">
                <rect id="Rectangle-44" opacity="0.6" fill="#333333" sketch:type="MSShapeGroup" x="0" y="0" width="30" height="30"></rect>
                <g id="Page-1" transform="translate(7.000000, 7.000000)">
                    <g id="Group-3">
                        <mask id="mask-2" sketch:name="Clip 2" fill="white">
                            <use xlink:href="#path-1"></use>
                        </mask>
                        <g id="Clip-2"></g>
                        <path d="M12.6608333,15.3333333 L3.0205,15.3333333 L2.1125,2.88066667 L13.5688333,2.88066667 L12.6608333,15.3333333 Z M6.5185,0.956666667 L9.16283333,0.956666667 L9.5995,2.11266667 L6.08183333,2.11266667 L6.5185,0.956666667 Z M15.3481667,2.214 L13.9271667,2.214 L10.3508333,2.214 L9.70516667,0.505333333 C9.65583333,0.375666667 9.53183333,0.29 9.39316667,0.29 L6.28816667,0.29 C6.1495,0.29 6.0255,0.375666667 5.97616667,0.505333333 L5.3305,2.214 L1.75383333,2.214 L0.3335,2.214 C0.149166667,2.214 0.000166666667,2.363 0.000166666667,2.54733333 C0.000166666667,2.73133333 0.149166667,2.88066667 0.3335,2.88066667 L1.44416667,2.88066667 L2.37816667,15.691 C2.39083333,15.865 2.53583333,16 2.7105,16 L12.9708333,16 C13.1455,16 13.2905,15.865 13.3031667,15.691 L14.2368333,2.88066667 L15.3481667,2.88066667 C15.5321667,2.88066667 15.6815,2.73133333 15.6815,2.54733333 C15.6815,2.363 15.5321667,2.214 15.3481667,2.214 L15.3481667,2.214 Z" id="Fill-1" fill="#FFFFFF" sketch:type="MSShapeGroup" mask="url(#mask-2)"></path>
                    </g>
                    <path d="M7.66666667,14 C7.851,14 8,13.8485002 8,13.6618308 L8,4.33816915 C8,4.15149978 7.851,4 7.66666667,4 C7.48233333,4 7.33333333,4.15149978 7.33333333,4.33816915 L7.33333333,13.6618308 C7.33333333,13.8485002 7.48233333,14 7.66666667,14" id="Fill-4" fill="#FFFFFF" sketch:type="MSShapeGroup"></path>
                    <path d="M10.335679,13.9993237 C10.3435602,13.9996618 10.3507248,14 10.3586059,14 C10.5459615,14 10.7035838,13.8620298 10.7157637,13.6828039 L11.33264,4.3596739 C11.3448199,4.1730084 11.1950787,4.01271955 10.9976926,4.00088388 C10.7995901,3.98735739 10.6297879,4.13073814 10.617608,4.31740363 L10.0007317,13.6405337 C9.98819356,13.8271991 10.138293,13.987488 10.335679,13.9993237" id="Fill-6" fill="#FFFFFF" sketch:type="MSShapeGroup"></path>
                    <path d="M5.6414228,14 C5.64894591,14 5.65646903,13.9996618 5.66435039,13.9993237 C5.86138436,13.987826 6.01148841,13.8271971 5.99930813,13.6408675 L5.38241269,4.31728748 C5.37023241,4.13095791 5.20544037,3.98825177 5.0026745,4.00076392 C4.80528229,4.01226157 4.65517823,4.17289051 4.66735851,4.35955825 L5.28425395,13.6831383 C5.29607599,13.8620282 5.45406141,14 5.6414228,14" id="Fill-8" fill="#FFFFFF" sketch:type="MSShapeGroup"></path>
                </g>
            </g>
        </g>
    </g>
</svg>