<svg xmlns="http://www.w3.org/2000/svg" xmlns:xlink="http://www.w3.org/1999/xlink" width="30" height="258" viewBox="0 0 30 258"><svg width="30" height="30" viewBox="0 0 30 30" id="icon-addtocart" y="0"><title>Oval 25 + Fill 1 Copy 4</title><g fill="none" fill-rule="evenodd"><path d="M15 30c8.284 0 15-6.716 15-15 0-8.284-6.716-15-15-15C6.716 0 0 6.716 0 15c0 8.284 6.716 15 15 15z" opacity=".503" fill="#FFF"/><path d="M23 9.373c-.19-.052-.387.06-.44.25l-.25.92H8.93l.262-1.14c.012-.05.012-.102.002-.153-.097-.454-.504-.783-.968-.783H6.023c-.197 0-.356.16-.356.356 0 .197.16.357.356.357h2.203c.108 0 .205.064.25.158l-.343 1.482v.01c-.01.046-.01.096 0 .146v.003l1.52 6.652-.388 1.243-.01.036c-.052.26.015.53.182.734.168.206.417.324.683.324h10.61c.197 0 .357-.16.357-.357 0-.196-.16-.356-.357-.356H10.12c-.05 0-.098-.022-.13-.062-.03-.036-.043-.08-.036-.126l.34-1.09 10.3-1.12c.453-.01.838-.32.94-.75L23.25 9.81c.05-.19-.06-.386-.25-.437zm-2.16 6.557c-.028.125-.14.213-.267.213-.013 0-.026 0-.04.002L10.3 17.257l-1.37-6h13.186L20.84 15.93zm-10.116 4.93c-.793 0-1.44.647-1.44 1.44 0 .794.647 1.44 1.44 1.44.793 0 1.44-.646 1.44-1.44 0-.793-.647-1.44-1.44-1.44zm0 2.166c-.4 0-.726-.325-.726-.726 0-.4.326-.725.726-.725.4 0 .725.325.725.725 0 .4-.326.726-.726.726zm8.514-2.165c-.793 0-1.44.647-1.44 1.44 0 .794.647 1.44 1.44 1.44.794 0 1.44-.646 1.44-1.44 0-.793-.646-1.44-1.44-1.44zm0 2.166c-.4 0-.725-.325-.725-.726 0-.4.325-.725.725-.725.4 0 .726.325.726.725 0 .4-.326.726-.726.726z" fill="#E73736"/></g></svg>
<svg width="16" height="16" viewBox="0 0 16 16" id="icon-ashbin" y="30"><title>Imported Layers</title><g fill="#1A1918" fill-rule="evenodd"><path d="M15.492 2.196h-4.997L9.85.488C9.8.358 9.675.272 9.536.272H6.432c-.14 0-.263.086-.312.216l-.645 1.708H.477c-.184 0-.333.15-.333.334 0 .184.15.333.333.333h1.11l.935 12.81c.013.174.158.31.332.31h10.26c.175 0 .32-.136.333-.31l.934-12.81h1.112c.184 0 .333-.15.333-.333 0-.184-.15-.334-.333-.334zM6.662.94h2.645l.437 1.155H6.226L6.662.94zm6.143 14.376h-9.64l-.91-12.453h11.458l-.908 12.453z"/><path d="M7.984 13.984c.185 0 .334-.15.334-.333V4.46c0-.183-.15-.333-.334-.333-.184 0-.333.15-.333.334v9.19c0 .185.15.334.334.334M10.45 13.984h.022c.175 0 .32-.136.332-.312l.575-9.19c.01-.184-.13-.342-.313-.354-.184-.013-.342.128-.354.312l-.574 9.19c-.012.184.127.342.31.354M5.497 13.984h.02c.185-.012.324-.17.313-.354l-.574-9.19c-.012-.184-.165-.324-.354-.312-.183.01-.323.17-.31.354l.572 9.19c.01.176.158.312.333.312"/></g></svg>
<svg width="13" height="15" viewBox="0 0 13 15" id="icon-beauty-makeup" y="46"><title>美妆</title><g transform="translate(0 1)" stroke="#FFF" fill="none" fill-rule="evenodd"><path d="M8.59 9.983c1.8-.848 3.042-2.65 3.042-4.733 0-2.9-2.404-5.25-5.37-5.25C3.3 0 .896 2.35.896 5.25c0 2.066 1.21 3.887 3.075 4.733" stroke-linecap="round"/><path d="M10.596 9.625c1.066 0 1.93.777 1.93 1.75 0 .966-.86 1.75-1.93 1.75H1.93c-1.066 0-1.93-.777-1.93-1.75 0-.966.872-1.75 1.923-1.75h1.352" stroke-linecap="round"/><path d="M6.263 8.75c1.977 0 3.58-1.567 3.58-3.5s-1.603-3.5-3.58-3.5c-1.976 0-3.58 1.567-3.58 3.5s1.604 3.5 3.58 3.5z"/><path d="M7.026 3.04s1.292.25 1.493 1.684" stroke-linecap="round" stroke-linejoin="round"/><path d="M7.335 10.07h3.292M1.967 10.07h3.565" stroke-linecap="round"/></g></svg>
<svg width="12" height="18" viewBox="0 0 12 18" id="icon-body" y="61"><title>身体护理</title><g transform="translate(1 1)" fill="none" fill-rule="evenodd"><path d="M1.732.097s1.665.378.476 2.518C1.018 4.755-.602 5.865.85 10.01c1.456 4.14.882 5.132.882 5.132M7.716.09s-.72.666-.27 2.465c.448 1.8 2.394 2.41 2.735 4.922.34 2.514-1.422 8.717-1.422 8.717" stroke="#FFF" stroke-linecap="round" stroke-linejoin="round"/><path d="M1.922 8.93s.636 1.826 5.51.95" stroke="#FFF" stroke-linecap="round"/><path stroke="#979797" d="M3.212 11.21s.65.783.325 2.597c-.325 1.813-.34 2.28-.34 2.28"/><path d="M4.044 10.162s1.313 3.307 0 5.612" stroke="#FFF" stroke-linecap="round" stroke-linejoin="round"/></g></svg>
<svg width="16" height="12" viewBox="0 0 16 12" id="icon-cup" y="79"><title>Stroke 280</title><path d="M12.12 1c0-.276-.223-.5-.5-.5H2.45c-.276 0-.5.224-.5.5v5.214c0 2.866 2.286 5.217 5.086 5.217 2.8 0 5.087-2.35 5.087-5.216V1zm-5.086 9.43c-2.242 0-4.086-1.896-4.086-4.216V1l-.5.5h9.173l-.5-.5v5.214c0 2.32-1.844 4.217-4.086 4.217zm6.035-3.964c1.376 0 2.43-1.275 2.43-2.735S14.447.998 13.07.998h-1.45c-.275 0-.5.224-.5.5v4.47c0 .275.225.5.5.5h1.45zm-.95-.5v-4.47l-.5.5h1.45c.778 0 1.43.79 1.43 1.735 0 .946-.652 1.736-1.43 1.736h-1.45l.5.5zM15 11.43v-1H1v1h14zm-14 0h14c.667 0 .667-1 0-1H1c-.667 0-.667 1 0 1z" fill="#FFF" fill-rule="evenodd"/></svg>
<svg width="17" height="17" viewBox="0 0 17 17" id="icon-earth" y="91"><title>Shape</title><path d="M15.5 8.5c0 3.866-3.134 7-7 7s-7-3.134-7-7 3.134-7 7-7c3.865 0 7 3.135 7 7zm1 0c0-4.418-3.582-8-8-8s-8 3.582-8 8 3.582 8 8 8 8-3.582 8-8zm-2.957-5.05c-.022.074-.124.43-.28.766-.262.567-.62 1-1.074 1.228l.344-.038c-.694-.173-1.432-.06-2.08.234-.253.114-.474.252-.62.383-.117.104-.196.203-.236.35-.107.398.202.67.532.67-.15 0-.183-.03-.184-.03.05.078.107.203.165.358.084.225.15.453.188.6.022.087.067.167.13.23.205.205.468.293.753.293.19 0 .375-.037.558-.098.106-.036.19-.072.246-.1l-.577-.094c.07.07.06.183-.103.447-.106.17-.26.362-.47.59-.537.52-.877.89-.877 1.22 0 .29.12.45.362.664.025.025.025.025.05.045.07.062.092.086.082.056-.03-.087-.006-.155-.023-.14l.353-.145c-.66.452-.96.62-1.137.678-.204.068-.342.26-.342.474 0 .568-.233.86-.674 1.016-.25.09-.49.114-.782.114.12 0 .117 0 .092-.03-.08-.094-.173-.238-.267-.405-.167-.303-.303-.648-.303-.695 0-.03.024-.094.11-.266.158-.316.216-.468.216-.71 0-.228-.094-.437-.253-.677-.054-.08-.116-.164-.183-.248-.136-.17-.27-.315-.363-.408l.146.353c0-.69-.242-1.16-.736-1.38-.328-.145-.584-.154-1.264-.115-.222.013-.332.017-.456.017-.192 0-.302-.097-.388-.328-.067-.177-.09-.368-.09-.476h-1 1v-.002-.015l.002-.068c.004-.08.012-.168.024-.264.036-.273.098-.546.194-.794.21-.543.532-.88 1.007-.975.685-.137 1.003-.092 1.075-.02-.026-.026-.042-.074-.042-.145 0 .133.052.26.146.354.43.43.997.507 1.74.383.153-.026.3-.056.513-.106.483-.11.588-.132.708-.132.25 0 .46-.183.495-.43.01-.077.028-.208.044-.373.022-.232.037-.463.042-.68.006-.376-.02-.68-.093-.92-.145-.467-.55-.744-1.038-.5-.367.182-.552.093-.584-.252-.012-.124.388-.424 1.102-.697.293-.112.61-.21.93-.296.19-.05.337-.085.417-.1l-.37-.07 3.35 2.124.268-.42h-.5zm1 0c0-.172-.087-.332-.232-.423L10.96.904c-.11-.07-.24-.094-.368-.067-.098.02-.262.058-.472.114-.35.094-.7.203-1.03.33-1.134.432-1.813.943-1.74 1.723.1 1.078 1.058 1.537 2.026 1.053-.163.08-.348-.045-.363-.096.034.11.05.326.046.6-.005.19-.018.397-.04.605-.013.15-.028.265-.037.33l.495-.43c-.234 0-.34.02-.933.158-.196.045-.325.072-.453.094-.456.075-.725.04-.87-.105l.148.353c0-.174-.07-.38-.25-.562-.36-.358-1-.45-1.98-.254-.855.17-1.422.76-1.743 1.595-.128.33-.208.678-.252 1.026-.016.122-.026.235-.032.337l-.004.098v.041c1-.665 0-.665 0 .002 0 .218.036.516.153.828.22.585.66.976 1.324.976.15 0 .272-.005.513-.02.498-.027.682-.02.803.033.09.04.14.14.14.465 0 .133.053.26.147.354.07.07.18.19.29.326.05.063.094.123.13.177.058.087.086.15.086.122 0 .027-.025.092-.11.264-.16.318-.216.47-.216.713 0 .63.833 2.13 1.478 2.13.4 0 .733-.035 1.117-.172.82-.29 1.34-.94 1.34-1.958l-.343.474c.313-.103.746-.343 1.174-.772l-.353.147c.616-.41.722-.718.616-1.033-.07-.202-.165-.31-.374-.49l-.045-.04c-.03-.027-.023-.02-.023.085 0 .124.032.09.613-.542.25-.272.44-.507.584-.742.38-.613.43-1.21-.04-1.68-.152-.15-.384-.19-.577-.092-.016.01-.06.027-.115.046-.09.03-.175.047-.24.047-.04 0-.05-.003-.046 0l-.353.355.485-.12c-.045-.18-.12-.442-.22-.708-.244-.647-.45-.977-.918-.977.25 0 .527.244.434.59-.025.092-.045.118-.065.135.064-.057.2-.142.367-.218.46-.208.973-.287 1.425-.174.116.03.238.016.345-.037 1.172-.588 1.906-2.177 1.906-2.89z" fill="#FFF" fill-rule="evenodd"/></svg>
<svg width="16" height="16" viewBox="0 0 16 16" id="icon-face" y="108"><title>面部护理</title><g transform="translate(1 1)" stroke="#FFF" fill="none" fill-rule="evenodd"><path d="M7 14c3.866 0 7-3.134 7-7s-3.134-7-7-7-7 3.134-7 7 3.134 7 7 7z"/><path d="M1.91 5.917s1.6-2.088 3.708.037C3.36 7.896 1.91 5.917 1.91 5.917zM8.17 5.917s1.6-2.088 3.707.037C9.62 7.896 8.17 5.917 8.17 5.917z"/><path d="M3 10.178s.448.987 1.457.987H9.07s1.034-.34 1.034-1.165" stroke-linecap="round" stroke-linejoin="round"/></g></svg>
<svg width="15" height="13" viewBox="0 0 15 13" id="icon-hair" y="124"><title>洗发护发</title><path d="M7.025.703c1.633 0 2.44 1.806 3.577 2.07C11.74 3.04 14 3.847 14 6.707s-.104 5.347-.104 5.347-2.197.285-2.37-.793c-.173-1.08-.104-3.046-.104-3.046s-.186-.626-.82-.237C9.97 8.367 9.51 9.1 7.676 9.215c-1.832.115-3.167-.938-3.552-1.39-.385-.454-.884 0-.884.34s.077 3.445.077 3.445-.465 1.115-1.98.382V6.108s-.068-2.75 3.56-3.7C8.523 1.457 5.39.702 7.024.702z" stroke="#FFF" fill="none" fill-rule="evenodd"/></svg>
<svg width="15" height="12" viewBox="0 0 15 12" id="icon-makeup" y="137"><title>魅力彩妆</title><g transform="translate(1 1)" stroke-linecap="round" stroke="#FFF" stroke-linejoin="round" fill="none" fill-rule="evenodd"><path d="M.01 7.37S.167-.27 5.79 2.74c0 0 .753-5.117 7.21-.854 0 0-.173 5.264-4.164 7.177C4.846 10.977.01 7.37.01 7.37z"/><path d="M2.6 6.38S4.022 5.1 6.546 4.3c1.144-.362 2.513-.624 4.08-.624 0 0-.874 1.833-3.516 2.7-2.643.87-4.51 0-4.51 0z"/></g></svg>
<svg width="13" height="14" viewBox="0 0 13 14" id="icon-man" y="149"><title>Stroke 105</title><path d="M6.5 7.628c1.445 0 2.723-.912 3.265-2.275L9.3 5.168l-.137.48c.12.035.244.052.37.052.755 0 1.367-.612 1.367-1.367 0-.754-.612-1.366-1.367-1.366H9.5v.5l.495-.07C9.74 1.605 8.262.254 6.5.254s-3.24 1.35-3.495 3.143l.495.07v-.5h-.033c-.755 0-1.367.612-1.367 1.366 0 .755.612 1.367 1.367 1.367.126 0 .25-.017.37-.05L3.7 5.167l-.465.185c.542 1.363 1.82 2.275 3.265 2.275zM3.998 4.564l-.435.123c-.03.008-.062.013-.096.013-.203 0-.367-.164-.367-.367 0-.202.164-.366.367-.366H3.934l.06-.43c.187-1.31 1.253-2.283 2.506-2.283s2.32.974 2.505 2.283l.06.43H9.534c.203 0 .367.164.367.366 0 .203-.164.367-.367.367-.034 0-.067-.005-.096-.013l-.435-.123-.167.42c-.393.99-1.31 1.644-2.335 1.644s-1.942-.654-2.335-1.645l-.167-.42zm-2.92 4.934l-.07.242c.057-.096.2-.27.442-.45.752-.562 1.833-.71 3.354-.152l-.217-.156 1.61 2.004.407.508.385-.525 1.468-2.005-.167.145c.06-.032.19-.088.373-.146.83-.264 1.713-.235 2.54.28.272.17.534.39.783.67l-.127-.334v3.414l.5-.5H.505l.5.51.07-3.506zm-1.082 3.996H12.86V9.39l-.128-.143c-.312-.35-.647-.632-1-.852-1.11-.69-2.287-.73-3.37-.385-.247.08-.432.16-.543.218l-.168.145-1.47 2.004.794-.017-1.61-2.004-.086-.108-.13-.048c-1.837-.676-3.273-.477-4.3.29-.357.268-.586.543-.705.746l-.065.112-.003.13-.07 3.506-.01.51z" fill="#FFF" fill-rule="evenodd"/></svg>
<svg width="15" height="15" viewBox="0 0 15 15" id="icon-mask" y="163"><title>人气面膜</title><g transform="translate(0 -1)" fill="#FFF" fill-rule="evenodd"><path d="M8.862 1.064c-2.545-.34-3.706.457-6.373 3.68-2.125 2.565-2.725 5.804-1.454 7.94 1.503 2.53 5.6 4.205 9.41 2.792 2.767-1.025 4.383-4.58 3.818-8.043-.574-3.52-2.557-5.99-5.402-6.37zm-.132.99c2.35.315 4.038 2.415 4.547 5.54.494 3.027-.904 6.102-3.178 6.945-3.338 1.236-6.938-.235-8.205-2.366C.865 10.44 1.383 7.648 3.26 5.38c2.463-2.976 3.378-3.604 5.47-3.325z"/><path d="M9.275 9.872c1.35.337 2.693-.127 2.955-1.176.26-1.05-.706-2.09-2.057-2.425-1.35-.336-2.693.128-2.954 1.177-.263 1.05.704 2.088 2.055 2.425zm.242-.97c-.88-.22-1.43-.81-1.328-1.213.1-.406.86-.67 1.74-.45.882.22 1.43.81 1.33 1.214-.1.404-.862.667-1.743.448zM5.22 12.597c1.356.338 2.63.126 2.845-.737.216-.863-.81-1.65-2.165-1.987-1.356-.338-2.63-.126-2.846.737-.215.863.81 1.65 2.166 1.987zm.242-.97c-.876-.218-1.464-.67-1.437-.775.026-.105.757-.227 1.633-.01.876.22 1.463.67 1.437.776-.026.106-.757.227-1.633.01zM4.727 8.12c.938 0 1.75-.588 1.75-1.405 0-.816-.812-1.403-1.75-1.403s-1.75.587-1.75 1.403c0 .817.812 1.404 1.75 1.404zm0-1c-.442 0-.75-.223-.75-.405 0-.18.308-.403.75-.403s.75.222.75.403c0 .182-.308.404-.75.404z"/></g></svg>
<svg width="13" height="15" viewBox="0 0 13 15" id="icon-mouth" y="178"><title>口腔护理</title><g stroke-linecap="round" stroke="#FFF" stroke-linejoin="round" fill="none" fill-rule="evenodd"><path d="M1.025 2.383C1.688-.1 4.467.935 4.792 1.08c.734.332 2.466.745 4.235-.253.842-.475 2.95.1 3.144 1.87.213 1.952-.96 4.716-1.604 6.997-.54 1.912-.57 3.418-.812 3.643-.54.503-1.33.075-1.33-.64 0-.712-.48-4.536-1.438-4.85-.41-.133-1.066.65-1.394 1.847-.443 1.614-.24 3.643-1.213 3.8-1.13.185-.88-1.797-1.623-3.8-.11-.303-2.396-4.83-1.732-7.31zM5.35 2.89s2.153 0 3.004-1.655"/></g></svg>
<svg width="20" height="20" viewBox="0 0 20 20" id="icon-star" y="193"><title>icon-star</title><path d="M18.957 7.81c-.114-.378-.444-.637-.82-.646l-5.5-.117-1.806-5.425C10.708 1.25 10.374 1 10 1c-.374 0-.708.25-.83.623L7.363 7.047l-5.502.117c-.375.01-.705.268-.82.645-.115.376.01.79.31 1.03l4.377 3.467-1.59 5.49c-.11.378.02.79.32 1.023.298.23.72.236 1.022.015L10 15.55l4.52 3.286c.147.107.32.164.498.164.188 0 .368-.062.522-.18.302-.235.43-.646.32-1.024l-1.59-5.49 4.378-3.467c.3-.24.425-.655.31-1.03" stroke="#E73736" fill="none" fill-rule="evenodd"/></svg>
<svg width="30" height="30" viewBox="0 0 30 30" id="icon-trash" y="213"><title>Rectangle 44 + Page 1</title><defs><path id="ana" d="M0 .29h15.68V16H0V.29z"/></defs><g fill="none" fill-rule="evenodd"><path opacity=".6" fill="#333" d="M0 0h30v30H0z"/><g transform="translate(7 7)"><mask id="anb" fill="#fff"><use xlink:href="#ana"/></mask><path d="M12.66 15.333H3.02L2.113 2.88H13.57l-.91 12.453zM6.52.957h2.643L9.6 2.113H6.082L6.52.957zm8.828 1.257H10.35L9.706.504C9.655.377 9.532.29 9.393.29H6.288c-.14 0-.263.086-.312.215l-.646 1.71H.334c-.185 0-.334.148-.334.332 0 .184.15.334.334.334h1.11l.934 12.81c.013.175.158.31.333.31h10.26c.175 0 .32-.135.333-.31l.934-12.81h1.11c.185 0 .335-.15.335-.333 0-.184-.15-.333-.334-.333z" fill="#FFF" mask="url(#anb)"/><path d="M7.667 14c.184 0 .333-.15.333-.338V4.338C8 4.15 7.85 4 7.667 4c-.185 0-.334.15-.334.338v9.324c0 .187.15.338.334.338M10.336 14h.023c.186 0 .344-.138.356-.317l.617-9.323c.012-.187-.138-.347-.335-.36-.198-.013-.368.13-.38.317L10 13.64c-.012.187.138.347.336.36M5.64 14h.024c.197-.012.347-.173.335-.36L5.38 4.318c-.012-.186-.177-.33-.38-.316-.197.012-.347.173-.335.36l.617 9.323c.012.18.17.317.357.317" fill="#FFF"/></g></g></svg>
<svg width="14" height="15" viewBox="0 0 14 15" id="icon-women" y="243"><title>女性呵护</title><g transform="translate(-1)" stroke-linecap="round" stroke="#FFF" stroke-linejoin="round" fill="none" fill-rule="evenodd"><path d="M2.31 9.3c.467-1.04 1.765-3.14 1.765-3.14s2.254.365 3.425.365c1.163 0 3.773-.168 3.773-.168S12.416 8.32 12.818 9.3c.507 1.234 1.315 3.7 1.315 3.7s-3.243 1.684-6.765 1.684c-3.523 0-6.433-1.752-6.433-1.752S1.752 10.54 2.31 9.3zM11.067 1.16s-1.87 2.668-.157 5.65M4.18.947s1.89 2.77.174 5.752"/></g></svg>
</svg>