<?xml version="1.0" encoding="UTF-8" standalone="no"?>
<svg width="18px" height="19px" viewBox="0 0 18 19" version="1.1" xmlns="http://www.w3.org/2000/svg" xmlns:xlink="http://www.w3.org/1999/xlink" xmlns:sketch="http://www.bohemiancoding.com/sketch/ns">
    <!-- Generator: Sketch 3.4 (15575) - http://www.bohemiancoding.com/sketch -->
    <title>icon-password</title>
    <desc>Created with Sketch.</desc>
    <defs></defs>
    <g id="Page-1" stroke="none" stroke-width="1" fill="none" fill-rule="evenodd" sketch:type="MSPage">
        <g id="1.整页-登录-0" sketch:type="MSArtboardGroup" transform="translate(-896.000000, -473.000000)" fill="#E5E5E5">
            <path d="M903.875,484.613 L902.1875,484.613 L902.1875,484.578688 C902.001875,484.597813 901.815687,484.613 901.625,484.613 C898.518875,484.613 896,482.094688 896,478.988 C896,475.881313 898.518875,473.363 901.625,473.363 C904.731125,473.363 907.25,475.881313 907.25,478.988 L907.25,481.238 L907.8125,481.238 L907.8125,481.8005 L908.375,481.8005 L908.375,482.363 L908.9375,482.363 L908.9375,482.9255 L909.5,482.9255 L909.5,483.488 L910.0625,483.488 L910.0625,484.0505 L910.625,484.0505 L910.625,484.613 L911.1875,484.613 L911.1875,485.1755 L911.75,485.1755 L911.75,485.738 L912.3125,485.738 L912.3125,486.3005 L912.875,486.3005 L912.875,486.863 L913.4375,486.863 L913.4375,487.4255 L914,487.4255 L914,490.8005 C914,491.111563 913.748563,491.363 913.4375,491.363 L911.1875,491.363 C910.876437,491.363 910.625,491.111563 910.625,490.8005 L910.625,488.5505 L907.8125,488.5505 C907.502,488.5505 907.25,488.299063 907.25,487.988 L907.25,485.738 L904.4375,485.738 L903.875,484.613 Z M900.5,475.613 C899.257438,475.613 898.25,476.620438 898.25,477.863 C898.25,479.105563 899.257438,480.113 900.5,480.113 C901.742562,480.113 902.75,479.105563 902.75,477.863 C902.75,476.620438 901.742562,475.613 900.5,475.613 L900.5,475.613 Z" id="icon-password" sketch:type="MSShapeGroup"></path>
        </g>
    </g>
</svg>